<?xml version="1.0" encoding="UTF-8" standalone="no"?>
<!DOCTYPE svg PUBLIC "-//W3C//DTD SVG 1.1//EN"
 "http://www.w3.org/Graphics/SVG/1.1/DTD/svg11.dtd">
<!-- Generated by graphviz version 14.1.1 (20251213.1925)
 -->
<!-- Title: mstd::function_traits&lt; R(C::*)(Args...) volatile &amp;noexcept &gt; Pages: 1 -->
<svg width="1866pt" height="689pt"
 viewBox="0.00 0.00 1866.00 689.00" xmlns="http://www.w3.org/2000/svg" xmlns:xlink="http://www.w3.org/1999/xlink">
<g id="graph0" class="graph" transform="scale(1 1) rotate(0) translate(4 684.92)">
<title>mstd::function_traits&lt; R(C::*)(Args...) volatile &amp;noexcept &gt;</title>
<!-- Node1 -->
<g id="Node000001" class="node">
<title>Node1</title>
<g id="a_Node000001"><a xlink:title=" ">
<polygon fill="#999999" stroke="#666666" points="1858,-509.56 1733.25,-509.56 1733.25,-465.56 1858,-465.56 1858,-509.56"/>
<text xml:space="preserve" text-anchor="start" x="1741.25" y="-496.06" font-family="Helvetica,sans-Serif" font-size="10.00">mstd::function_traits</text>
<text xml:space="preserve" text-anchor="start" x="1741.25" y="-484.06" font-family="Helvetica,sans-Serif" font-size="10.00">&lt; R(C::*)(Args...) volatile</text>
<text xml:space="preserve" text-anchor="middle" x="1795.62" y="-472.06" font-family="Helvetica,sans-Serif" font-size="10.00"> &amp;noexcept &gt;</text>
</a>
</g>
</g>
<!-- Node2 -->
<g id="Node000002" class="node">
<title>Node2</title>
<g id="a_Node000002"><a xlink:href="../../d0/d74/structmstd_1_1utils_1_1function__default__type__traits.html" target="_top" xlink:title=" ">
<polygon fill="white" stroke="#666666" points="588.75,-430.56 486.5,-430.56 486.5,-386.56 588.75,-386.56 588.75,-430.56"/>
<text xml:space="preserve" text-anchor="start" x="494.5" y="-417.06" font-family="Helvetica,sans-Serif" font-size="10.00">mstd::utils::function</text>
<text xml:space="preserve" text-anchor="start" x="494.5" y="-405.06" font-family="Helvetica,sans-Serif" font-size="10.00">_default_type_traits</text>
<text xml:space="preserve" text-anchor="middle" x="537.62" y="-393.06" font-family="Helvetica,sans-Serif" font-size="10.00">&lt; false &gt;</text>
</a>
</g>
</g>
<!-- Node2&#45;&gt;Node1 -->
<g id="edge1_Node000001_Node000002" class="edge">
<title>Node2&#45;&gt;Node1</title>
<g id="a_edge1_Node000001_Node000002"><a xlink:title=" ">
<path fill="none" stroke="#63b8ff" d="M562.83,-439.22C577.36,-455.96 597.04,-475.97 618,-489.56 644.84,-506.96 654.54,-506.49 685.5,-514.56 874.53,-563.84 924.4,-582.56 1119.75,-582.56 1119.75,-582.56 1119.75,-582.56 1644.62,-582.56 1698.88,-582.56 1749.43,-537.66 1775.73,-509.6"/>
<polygon fill="#63b8ff" stroke="#63b8ff" points="565.84,-437.35 556.71,-431.98 560.49,-441.87 565.84,-437.35"/>
</a>
</g>
</g>
<!-- Node5 -->
<g id="Node000005" class="node">
<title>Node5</title>
<g id="a_Node000005"><a xlink:href="../../d1/df3/structmstd_1_1function__traits_3_01_r_07_args_8_8_8_08_01volatile_01_6noexcept_00_01_c_01_4.html" target="_top" xlink:title=" ">
<polygon fill="white" stroke="#666666" points="1696.25,-509.56 1591,-509.56 1591,-465.56 1696.25,-465.56 1696.25,-509.56"/>
<text xml:space="preserve" text-anchor="start" x="1599" y="-496.06" font-family="Helvetica,sans-Serif" font-size="10.00">mstd::function_traits</text>
<text xml:space="preserve" text-anchor="start" x="1599" y="-484.06" font-family="Helvetica,sans-Serif" font-size="10.00">&lt; R(Args...) volatile</text>
<text xml:space="preserve" text-anchor="middle" x="1643.62" y="-472.06" font-family="Helvetica,sans-Serif" font-size="10.00"> &amp;noexcept, C &gt;</text>
</a>
</g>
</g>
<!-- Node2&#45;&gt;Node5 -->
<g id="edge6_Node000005_Node000002" class="edge">
<title>Node2&#45;&gt;Node5</title>
<g id="a_edge6_Node000005_Node000002"><a xlink:title=" ">
<path fill="none" stroke="#63b8ff" d="M576.39,-437.57C617.86,-466.47 687.57,-506.56 755.12,-506.56 755.12,-506.56 755.12,-506.56 1502.38,-506.56 1531.74,-506.56 1564.25,-502.42 1590.57,-498.01"/>
<polygon fill="#63b8ff" stroke="#63b8ff" points="578.63,-434.87 568.46,-431.92 574.57,-440.58 578.63,-434.87"/>
</a>
</g>
</g>
<!-- Node6 -->
<g id="Node000006" class="node">
<title>Node6</title>
<g id="a_Node000006"><a xlink:href="../../de/dcb/structmstd_1_1function__traits_3_01_r_07_args_8_8_8_08_01volatile_01_6_00_01_c_01_4.html" target="_top" xlink:title=" ">
<polygon fill="white" stroke="#666666" points="1554,-452.56 1448.75,-452.56 1448.75,-408.56 1554,-408.56 1554,-452.56"/>
<text xml:space="preserve" text-anchor="start" x="1456.75" y="-439.06" font-family="Helvetica,sans-Serif" font-size="10.00">mstd::function_traits</text>
<text xml:space="preserve" text-anchor="start" x="1456.75" y="-427.06" font-family="Helvetica,sans-Serif" font-size="10.00">&lt; R(Args...) volatile</text>
<text xml:space="preserve" text-anchor="middle" x="1501.38" y="-415.06" font-family="Helvetica,sans-Serif" font-size="10.00"> &amp;, C &gt;</text>
</a>
</g>
</g>
<!-- Node2&#45;&gt;Node6 -->
<g id="edge8_Node000006_Node000002" class="edge">
<title>Node2&#45;&gt;Node6</title>
<g id="a_edge8_Node000006_Node000002"><a xlink:title=" ">
<path fill="none" stroke="#63b8ff" d="M600.41,-418.2C643.63,-424.11 702.76,-430.56 755.12,-430.56 755.12,-430.56 755.12,-430.56 1247.5,-430.56 1317.08,-430.56 1397.44,-430.56 1448.55,-430.56"/>
<polygon fill="#63b8ff" stroke="#63b8ff" points="601.11,-414.76 590.72,-416.84 600.14,-421.69 601.11,-414.76"/>
</a>
</g>
</g>
<!-- Node7 -->
<g id="Node000007" class="node">
<title>Node7</title>
<g id="a_Node000007"><a xlink:href="../../d0/d52/structmstd_1_1function__traits_3_01_r_07_args_8_8_8_08_01volatile_00_01_c_01_4.html" target="_top" xlink:title=" ">
<polygon fill="white" stroke="#666666" points="1308.5,-332.56 1184.5,-332.56 1184.5,-300.56 1308.5,-300.56 1308.5,-332.56"/>
<text xml:space="preserve" text-anchor="start" x="1192.5" y="-319.06" font-family="Helvetica,sans-Serif" font-size="10.00">mstd::function_traits</text>
<text xml:space="preserve" text-anchor="middle" x="1246.5" y="-307.06" font-family="Helvetica,sans-Serif" font-size="10.00">&lt; R(Args...) volatile, C &gt;</text>
</a>
</g>
</g>
<!-- Node2&#45;&gt;Node7 -->
<g id="edge10_Node000007_Node000002" class="edge">
<title>Node2&#45;&gt;Node7</title>
<g id="a_edge10_Node000007_Node000002"><a xlink:title=" ">
<path fill="none" stroke="#63b8ff" d="M600.34,-401.97C713.04,-389.69 959.63,-361.72 1166.5,-330.56 1172.28,-329.69 1178.3,-328.73 1184.31,-327.73"/>
<polygon fill="#63b8ff" stroke="#63b8ff" points="600.27,-398.46 590.71,-403.02 601.03,-405.41 600.27,-398.46"/>
</a>
</g>
</g>
<!-- Node8 -->
<g id="Node000008" class="node">
<title>Node8</title>
<g id="a_Node000008"><a xlink:href="../../dd/db6/structmstd_1_1function__traits_3_01_r_07_args_8_8_8_08_00_01_c_01_4.html" target="_top" xlink:title=" ">
<polygon fill="white" stroke="#666666" points="1052.62,-285.56 947.38,-285.56 947.38,-253.56 1052.62,-253.56 1052.62,-285.56"/>
<text xml:space="preserve" text-anchor="start" x="955.38" y="-272.06" font-family="Helvetica,sans-Serif" font-size="10.00">mstd::function_traits</text>
<text xml:space="preserve" text-anchor="middle" x="1000" y="-260.06" font-family="Helvetica,sans-Serif" font-size="10.00">&lt; R(Args...), C &gt;</text>
</a>
</g>
</g>
<!-- Node2&#45;&gt;Node8 -->
<g id="edge12_Node000008_Node000002" class="edge">
<title>Node2&#45;&gt;Node8</title>
<g id="a_edge12_Node000008_Node000002"><a xlink:title=" ">
<path fill="none" stroke="#63b8ff" d="M599.58,-384.94C605.78,-382.72 612,-380.55 618,-378.56 734.41,-339.99 873.43,-302.28 947.13,-282.94"/>
<polygon fill="#63b8ff" stroke="#63b8ff" points="598.83,-381.49 590.64,-388.21 601.23,-388.07 598.83,-381.49"/>
</a>
</g>
</g>
<!-- Node13 -->
<g id="Node000013" class="node">
<title>Node13</title>
<g id="a_Node000013"><a xlink:href="../../d7/dcb/structmstd_1_1function__traits.html" target="_top" xlink:title=" ">
<polygon fill="white" stroke="#666666" points="808.75,-150.56 703.5,-150.56 703.5,-118.56 808.75,-118.56 808.75,-150.56"/>
<text xml:space="preserve" text-anchor="start" x="711.5" y="-137.06" font-family="Helvetica,sans-Serif" font-size="10.00">mstd::function_traits</text>
<text xml:space="preserve" text-anchor="middle" x="756.12" y="-125.06" font-family="Helvetica,sans-Serif" font-size="10.00">&lt; F, C &gt;</text>
</a>
</g>
</g>
<!-- Node2&#45;&gt;Node13 -->
<g id="edge21_Node000013_Node000002" class="edge">
<title>Node2&#45;&gt;Node13</title>
<g id="a_edge21_Node000013_Node000002"><a xlink:title=" ">
<path fill="none" stroke="#63b8ff" d="M556.13,-376.14C590.83,-312.32 666.59,-175.21 685.5,-159.56 690.74,-155.22 696.8,-151.61 703.11,-148.61"/>
<polygon fill="#63b8ff" stroke="#63b8ff" points="553.15,-374.3 551.46,-384.76 559.3,-377.64 553.15,-374.3"/>
</a>
</g>
</g>
<!-- Node3 -->
<g id="Node000003" class="node">
<title>Node3</title>
<g id="a_Node000003"><a xlink:title=" ">
<polygon fill="white" stroke="#666666" points="155.5,-365.56 0,-365.56 0,-333.56 155.5,-333.56 155.5,-365.56"/>
<text xml:space="preserve" text-anchor="start" x="8" y="-352.06" font-family="Helvetica,sans-Serif" font-size="10.00">static _MSTD_CONSTEXPR17</text>
<text xml:space="preserve" text-anchor="middle" x="77.75" y="-340.06" font-family="Helvetica,sans-Serif" font-size="10.00"> const bool</text>
</a>
</g>
</g>
<!-- Node3&#45;&gt;Node2 -->
<g id="edge2_Node000002_Node000003" class="edge">
<title>Node3&#45;&gt;Node2</title>
<g id="a_edge2_Node000002_Node000003"><a xlink:title=" ">
<path fill="none" stroke="#9a32cd" stroke-dasharray="5,2" d="M84.1,-377.18C93.78,-418.6 118.53,-495.46 173.5,-528.56 204.06,-546.96 226.17,-551.17 253.75,-528.56 285.3,-502.7 241.71,-466.16 271.75,-438.56 287.19,-424.37 413.54,-415.24 486.01,-411.11"/>
<polygon fill="#9a32cd" stroke="#9a32cd" points="87.54,-376.53 81.99,-367.5 80.71,-378.02 87.54,-376.53"/>
</a>
</g>
<text xml:space="preserve" text-anchor="start" x="286.5" y="-604.06" font-family="Helvetica,sans-Serif" font-size="10.00" fill="grey">is_const</text>
<text xml:space="preserve" text-anchor="start" x="286.5" y="-588.06" font-family="Helvetica,sans-Serif" font-size="10.00" fill="grey">is_free</text>
<text xml:space="preserve" text-anchor="start" x="286.5" y="-572.06" font-family="Helvetica,sans-Serif" font-size="10.00" fill="grey">is_functor</text>
<text xml:space="preserve" text-anchor="start" x="286.5" y="-556.06" font-family="Helvetica,sans-Serif" font-size="10.00" fill="grey">is_member</text>
<text xml:space="preserve" text-anchor="start" x="286.5" y="-540.06" font-family="Helvetica,sans-Serif" font-size="10.00" fill="grey">is_moved</text>
<text xml:space="preserve" text-anchor="start" x="286.5" y="-524.06" font-family="Helvetica,sans-Serif" font-size="10.00" fill="grey">is_noexcept</text>
<text xml:space="preserve" text-anchor="start" x="286.5" y="-508.06" font-family="Helvetica,sans-Serif" font-size="10.00" fill="grey">is_parent_moved</text>
<text xml:space="preserve" text-anchor="start" x="286.5" y="-492.06" font-family="Helvetica,sans-Serif" font-size="10.00" fill="grey">is_parent_ref</text>
<text xml:space="preserve" text-anchor="start" x="286.5" y="-476.06" font-family="Helvetica,sans-Serif" font-size="10.00" fill="grey">is_ptr</text>
<text xml:space="preserve" text-anchor="start" x="286.5" y="-460.06" font-family="Helvetica,sans-Serif" font-size="10.00" fill="grey">is_ref</text>
<text xml:space="preserve" text-anchor="start" x="286.5" y="-444.06" font-family="Helvetica,sans-Serif" font-size="10.00" fill="grey"> &#160;...</text>
</g>
<!-- Node4 -->
<g id="Node000004" class="node">
<title>Node4</title>
<g id="a_Node000004"><a xlink:href="../../d0/d74/structmstd_1_1utils_1_1function__default__type__traits.html" target="_top" xlink:title=" ">
<polygon fill="white" stroke="#666666" points="374.75,-388.56 272.5,-388.56 272.5,-344.56 374.75,-344.56 374.75,-388.56"/>
<text xml:space="preserve" text-anchor="start" x="280.5" y="-375.06" font-family="Helvetica,sans-Serif" font-size="10.00">mstd::utils::function</text>
<text xml:space="preserve" text-anchor="start" x="280.5" y="-363.06" font-family="Helvetica,sans-Serif" font-size="10.00">_default_type_traits</text>
<text xml:space="preserve" text-anchor="middle" x="323.62" y="-351.06" font-family="Helvetica,sans-Serif" font-size="10.00">&lt; IsMember &gt;</text>
</a>
</g>
</g>
<!-- Node3&#45;&gt;Node4 -->
<g id="edge4_Node000004_Node000003" class="edge">
<title>Node3&#45;&gt;Node4</title>
<g id="a_edge4_Node000004_Node000003"><a xlink:title=" ">
<path fill="none" stroke="#9a32cd" stroke-dasharray="5,2" d="M166.97,-346.25C194.81,-346.23 225.64,-347.26 253.75,-350.56 259.72,-351.26 265.93,-352.28 272.07,-353.47"/>
<polygon fill="#9a32cd" stroke="#9a32cd" points="167.14,-342.75 157.16,-346.31 167.18,-349.75 167.14,-342.75"/>
</a>
</g>
<text xml:space="preserve" text-anchor="start" x="176.5" y="-516.06" font-family="Helvetica,sans-Serif" font-size="10.00" fill="grey">is_const</text>
<text xml:space="preserve" text-anchor="start" x="176.5" y="-500.06" font-family="Helvetica,sans-Serif" font-size="10.00" fill="grey">is_free</text>
<text xml:space="preserve" text-anchor="start" x="176.5" y="-484.06" font-family="Helvetica,sans-Serif" font-size="10.00" fill="grey">is_functor</text>
<text xml:space="preserve" text-anchor="start" x="176.5" y="-468.06" font-family="Helvetica,sans-Serif" font-size="10.00" fill="grey">is_member</text>
<text xml:space="preserve" text-anchor="start" x="176.5" y="-452.06" font-family="Helvetica,sans-Serif" font-size="10.00" fill="grey">is_moved</text>
<text xml:space="preserve" text-anchor="start" x="176.5" y="-436.06" font-family="Helvetica,sans-Serif" font-size="10.00" fill="grey">is_noexcept</text>
<text xml:space="preserve" text-anchor="start" x="176.5" y="-420.06" font-family="Helvetica,sans-Serif" font-size="10.00" fill="grey">is_parent_moved</text>
<text xml:space="preserve" text-anchor="start" x="176.5" y="-404.06" font-family="Helvetica,sans-Serif" font-size="10.00" fill="grey">is_parent_ref</text>
<text xml:space="preserve" text-anchor="start" x="176.5" y="-388.06" font-family="Helvetica,sans-Serif" font-size="10.00" fill="grey">is_ptr</text>
<text xml:space="preserve" text-anchor="start" x="176.5" y="-372.06" font-family="Helvetica,sans-Serif" font-size="10.00" fill="grey">is_ref</text>
<text xml:space="preserve" text-anchor="start" x="176.5" y="-356.06" font-family="Helvetica,sans-Serif" font-size="10.00" fill="grey"> &#160;...</text>
</g>
<!-- Node3&#45;&gt;Node5 -->
<g id="edge27_Node000005_Node000003" class="edge">
<title>Node3&#45;&gt;Node5</title>
<g id="a_edge27_Node000005_Node000003"><a xlink:title=" ">
<path fill="none" stroke="#9a32cd" stroke-dasharray="5,2" d="M82.76,-377.33C91.22,-426.7 115.13,-530.58 173.5,-594.56 223.37,-649.22 248.64,-668.56 322.62,-668.56 322.62,-668.56 322.62,-668.56 643.75,-668.56 1053.62,-668.56 1155.26,-615.41 1554,-520.56 1566.14,-517.67 1578.88,-513.59 1590.8,-509.28"/>
<polygon fill="#9a32cd" stroke="#9a32cd" points="86.23,-376.82 81.18,-367.5 79.32,-377.93 86.23,-376.82"/>
</a>
</g>
<text xml:space="preserve" text-anchor="start" x="858.62" y="-668.42" font-family="Helvetica,sans-Serif" font-size="10.00" fill="grey">is_noexcept</text>
</g>
<!-- Node3&#45;&gt;Node6 -->
<g id="edge25_Node000006_Node000003" class="edge">
<title>Node3&#45;&gt;Node6</title>
<g id="a_edge25_Node000006_Node000003"><a xlink:title=" ">
<path fill="none" stroke="#9a32cd" stroke-dasharray="5,2" d="M86.36,-376.6C99.02,-417.82 127.63,-497.19 173.5,-550.56 207.78,-590.46 221.43,-601.23 271.75,-616.56 499.01,-685.81 1244.66,-498.22 1448.48,-444.48"/>
<polygon fill="#9a32cd" stroke="#9a32cd" points="89.79,-375.84 83.58,-367.26 83.08,-377.84 89.79,-375.84"/>
</a>
</g>
<text xml:space="preserve" text-anchor="start" x="728" y="-612.84" font-family="Helvetica,sans-Serif" font-size="10.00" fill="grey">is_parent_ref</text>
</g>
<!-- Node3&#45;&gt;Node7 -->
<g id="edge23_Node000007_Node000003" class="edge">
<title>Node3&#45;&gt;Node7</title>
<g id="a_edge23_Node000007_Node000003"><a xlink:title=" ">
<path fill="none" stroke="#9a32cd" stroke-dasharray="5,2" d="M167,-331.8C213.16,-323.99 270.72,-316.56 322.62,-316.56 322.62,-316.56 322.62,-316.56 1001,-316.56 1063.4,-316.56 1134.75,-316.56 1184.21,-316.56"/>
<polygon fill="#9a32cd" stroke="#9a32cd" points="166.57,-328.33 157.31,-333.48 167.76,-335.22 166.57,-328.33"/>
</a>
</g>
<text xml:space="preserve" text-anchor="start" x="621" y="-322.06" font-family="Helvetica,sans-Serif" font-size="10.00" fill="grey">is_volatile</text>
</g>
<!-- Node12 -->
<g id="Node000012" class="node">
<title>Node12</title>
<g id="a_Node000012"><a xlink:href="../../d0/d74/structmstd_1_1utils_1_1function__default__type__traits.html" target="_top" xlink:title=" ">
<polygon fill="white" stroke="#666666" points="588.75,-280.56 486.5,-280.56 486.5,-236.56 588.75,-236.56 588.75,-280.56"/>
<text xml:space="preserve" text-anchor="start" x="494.5" y="-267.06" font-family="Helvetica,sans-Serif" font-size="10.00">mstd::utils::function</text>
<text xml:space="preserve" text-anchor="start" x="494.5" y="-255.06" font-family="Helvetica,sans-Serif" font-size="10.00">_default_type_traits</text>
<text xml:space="preserve" text-anchor="middle" x="537.62" y="-243.06" font-family="Helvetica,sans-Serif" font-size="10.00">&lt; true &gt;</text>
</a>
</g>
</g>
<!-- Node3&#45;&gt;Node12 -->
<g id="edge18_Node000012_Node000003" class="edge">
<title>Node3&#45;&gt;Node12</title>
<g id="a_edge18_Node000012_Node000003"><a xlink:title=" ">
<path fill="none" stroke="#9a32cd" stroke-dasharray="5,2" d="M91.54,-323.17C117.43,-273.22 181.36,-166.12 271.75,-124.56 313.65,-105.3 332.14,-108.89 375.5,-124.56 437.26,-146.89 492.03,-204.35 518.96,-236.3"/>
<polygon fill="#9a32cd" stroke="#9a32cd" points="88.54,-321.35 87.14,-331.85 94.79,-324.51 88.54,-321.35"/>
</a>
</g>
<text xml:space="preserve" text-anchor="start" x="286.5" y="-290.06" font-family="Helvetica,sans-Serif" font-size="10.00" fill="grey">is_const</text>
<text xml:space="preserve" text-anchor="start" x="286.5" y="-274.06" font-family="Helvetica,sans-Serif" font-size="10.00" fill="grey">is_free</text>
<text xml:space="preserve" text-anchor="start" x="286.5" y="-258.06" font-family="Helvetica,sans-Serif" font-size="10.00" fill="grey">is_functor</text>
<text xml:space="preserve" text-anchor="start" x="286.5" y="-242.06" font-family="Helvetica,sans-Serif" font-size="10.00" fill="grey">is_member</text>
<text xml:space="preserve" text-anchor="start" x="286.5" y="-226.06" font-family="Helvetica,sans-Serif" font-size="10.00" fill="grey">is_moved</text>
<text xml:space="preserve" text-anchor="start" x="286.5" y="-210.06" font-family="Helvetica,sans-Serif" font-size="10.00" fill="grey">is_noexcept</text>
<text xml:space="preserve" text-anchor="start" x="286.5" y="-194.06" font-family="Helvetica,sans-Serif" font-size="10.00" fill="grey">is_parent_moved</text>
<text xml:space="preserve" text-anchor="start" x="286.5" y="-178.06" font-family="Helvetica,sans-Serif" font-size="10.00" fill="grey">is_parent_ref</text>
<text xml:space="preserve" text-anchor="start" x="286.5" y="-162.06" font-family="Helvetica,sans-Serif" font-size="10.00" fill="grey">is_ptr</text>
<text xml:space="preserve" text-anchor="start" x="286.5" y="-146.06" font-family="Helvetica,sans-Serif" font-size="10.00" fill="grey">is_ref</text>
<text xml:space="preserve" text-anchor="start" x="286.5" y="-130.06" font-family="Helvetica,sans-Serif" font-size="10.00" fill="grey"> &#160;...</text>
</g>
<!-- Node3&#45;&gt;Node13 -->
<g id="edge22_Node000013_Node000003" class="edge">
<title>Node3&#45;&gt;Node13</title>
<g id="a_edge22_Node000013_Node000003"><a xlink:title=" ">
<path fill="none" stroke="#9a32cd" stroke-dasharray="5,2" d="M84.33,-322.14C99.79,-254.85 150.29,-83.42 271.75,-33.56 406.71,21.84 457.67,-1.53 600,-33.56 657.69,-46.54 712.59,-93.04 738.91,-118.17"/>
<polygon fill="#9a32cd" stroke="#9a32cd" points="80.98,-321.09 82.25,-331.61 87.82,-322.6 80.98,-321.09"/>
</a>
</g>
<text xml:space="preserve" text-anchor="start" x="410.75" y="-8.37" font-family="Helvetica,sans-Serif" font-size="10.00" fill="grey">is_free</text>
</g>
<!-- Node4&#45;&gt;Node2 -->
<g id="edge3_Node000002_Node000004" class="edge">
<title>Node4&#45;&gt;Node2</title>
<g id="a_edge3_Node000002_Node000004"><a xlink:title=" ">
<path fill="none" stroke="orange" stroke-dasharray="5,2" d="M386.08,-378.54C408.49,-382.93 434.02,-387.94 457.25,-392.56 466.63,-394.43 476.62,-396.43 486.25,-398.37"/>
<polygon fill="orange" stroke="orange" points="386.99,-375.15 376.5,-376.67 385.65,-382.02 386.99,-375.15"/>
</a>
</g>
<text xml:space="preserve" text-anchor="start" x="405.88" y="-398.06" font-family="Helvetica,sans-Serif" font-size="10.00" fill="grey">&lt; false &gt;</text>
</g>
<!-- Node4&#45;&gt;Node12 -->
<g id="edge19_Node000012_Node000004" class="edge">
<title>Node4&#45;&gt;Node12</title>
<g id="a_edge19_Node000012_Node000004"><a xlink:title=" ">
<path fill="none" stroke="orange" stroke-dasharray="5,2" d="M378.7,-339.01C414.06,-321 459.65,-297.77 492.75,-280.91"/>
<polygon fill="orange" stroke="orange" points="377.22,-335.84 369.9,-343.5 380.4,-342.08 377.22,-335.84"/>
</a>
</g>
<text xml:space="preserve" text-anchor="start" x="408.12" y="-334.05" font-family="Helvetica,sans-Serif" font-size="10.00" fill="grey">&lt; true &gt;</text>
</g>
<!-- Node5&#45;&gt;Node1 -->
<g id="edge5_Node000001_Node000005" class="edge">
<title>Node5&#45;&gt;Node1</title>
<g id="a_edge5_Node000001_Node000005"><a xlink:title=" ">
<path fill="none" stroke="#63b8ff" d="M1708.1,-487.56C1716.3,-487.56 1724.7,-487.56 1732.87,-487.56"/>
<polygon fill="#63b8ff" stroke="#63b8ff" points="1708.18,-484.06 1698.18,-487.56 1708.18,-491.06 1708.18,-484.06"/>
</a>
</g>
</g>
<!-- Node6&#45;&gt;Node5 -->
<g id="edge7_Node000005_Node000006" class="edge">
<title>Node6&#45;&gt;Node5</title>
<g id="a_edge7_Node000005_Node000006"><a xlink:title=" ">
<path fill="none" stroke="#63b8ff" d="M1564.64,-455.87C1573.29,-459.38 1582.1,-462.97 1590.54,-466.4"/>
<polygon fill="#63b8ff" stroke="#63b8ff" points="1566.18,-452.72 1555.6,-452.2 1563.55,-459.2 1566.18,-452.72"/>
</a>
</g>
</g>
<!-- Node7&#45;&gt;Node6 -->
<g id="edge9_Node000006_Node000007" class="edge">
<title>Node7&#45;&gt;Node6</title>
<g id="a_edge9_Node000006_Node000007"><a xlink:title=" ">
<path fill="none" stroke="#63b8ff" d="M1294.25,-337.64C1338.74,-357.69 1405.45,-387.77 1450.84,-408.23"/>
<polygon fill="#63b8ff" stroke="#63b8ff" points="1295.93,-334.56 1285.38,-333.64 1293.06,-340.94 1295.93,-334.56"/>
</a>
</g>
</g>
<!-- Node8&#45;&gt;Node7 -->
<g id="edge11_Node000007_Node000008" class="edge">
<title>Node8&#45;&gt;Node7</title>
<g id="a_edge11_Node000007_Node000008"><a xlink:title=" ">
<path fill="none" stroke="#63b8ff" d="M1064,-281.67C1100.99,-288.78 1147.53,-297.73 1184.22,-304.78"/>
<polygon fill="#63b8ff" stroke="#63b8ff" points="1064.82,-278.27 1054.34,-279.82 1063.5,-285.14 1064.82,-278.27"/>
</a>
</g>
</g>
<!-- Node9 -->
<g id="Node000009" class="node">
<title>Node9</title>
<g id="a_Node000009"><a xlink:href="../../d1/d4f/structmstd_1_1utils_1_1function__core__traits_3_01_r_07_args_8_8_8_08_00_01_c_01_4.html" target="_top" xlink:title=" ">
<polygon fill="white" stroke="#666666" points="826.75,-200.56 685.5,-200.56 685.5,-168.56 826.75,-168.56 826.75,-200.56"/>
<text xml:space="preserve" text-anchor="start" x="693.5" y="-187.06" font-family="Helvetica,sans-Serif" font-size="10.00">mstd::utils::function</text>
<text xml:space="preserve" text-anchor="middle" x="756.12" y="-175.06" font-family="Helvetica,sans-Serif" font-size="10.00">_core_traits&lt; R(Args...), C &gt;</text>
</a>
</g>
</g>
<!-- Node9&#45;&gt;Node8 -->
<g id="edge13_Node000008_Node000009" class="edge">
<title>Node9&#45;&gt;Node8</title>
<g id="a_edge13_Node000008_Node000009"><a xlink:title=" ">
<path fill="none" stroke="#63b8ff" d="M793.98,-206.39C809.3,-214.8 827.51,-223.96 844.75,-230.56 877.9,-243.25 916.63,-253.03 947,-259.62"/>
<polygon fill="#63b8ff" stroke="#63b8ff" points="796.12,-203.57 785.68,-201.74 792.7,-209.68 796.12,-203.57"/>
</a>
</g>
</g>
<!-- Node10 -->
<g id="Node000010" class="node">
<title>Node10</title>
<g id="a_Node000010"><a xlink:href="../../df/db9/structmstd_1_1utils_1_1function__core__traits.html" target="_top" xlink:title=" ">
<polygon fill="white" stroke="#666666" points="600,-74.56 475.25,-74.56 475.25,-42.56 600,-42.56 600,-74.56"/>
<text xml:space="preserve" text-anchor="start" x="483.25" y="-61.06" font-family="Helvetica,sans-Serif" font-size="10.00">mstd::utils::function</text>
<text xml:space="preserve" text-anchor="middle" x="537.62" y="-49.06" font-family="Helvetica,sans-Serif" font-size="10.00">_core_traits&lt; R(Args...)&gt;</text>
</a>
</g>
</g>
<!-- Node10&#45;&gt;Node9 -->
<g id="edge14_Node000009_Node000010" class="edge">
<title>Node10&#45;&gt;Node9</title>
<g id="a_edge14_Node000009_Node000010"><a xlink:title=" ">
<path fill="none" stroke="#63b8ff" d="M611.23,-66.69C631.7,-72.22 652.46,-81.4 667.5,-96.56 688,-117.24 665.6,-138.3 685.5,-159.56 688.57,-162.84 692.1,-165.7 695.92,-168.18"/>
<polygon fill="#63b8ff" stroke="#63b8ff" points="612.27,-63.34 601.73,-64.4 610.63,-70.14 612.27,-63.34"/>
</a>
</g>
</g>
<!-- Node11 -->
<g id="Node000011" class="node">
<title>Node11</title>
<g id="a_Node000011"><a xlink:href="../../df/db9/structmstd_1_1utils_1_1function__core__traits.html" target="_top" xlink:title=" ">
<polygon fill="white" stroke="#666666" points="375.5,-74.56 271.75,-74.56 271.75,-42.56 375.5,-42.56 375.5,-74.56"/>
<text xml:space="preserve" text-anchor="start" x="279.75" y="-61.06" font-family="Helvetica,sans-Serif" font-size="10.00">mstd::utils::function</text>
<text xml:space="preserve" text-anchor="middle" x="323.62" y="-49.06" font-family="Helvetica,sans-Serif" font-size="10.00">_core_traits&lt; F, C &gt;</text>
</a>
</g>
</g>
<!-- Node11&#45;&gt;Node9 -->
<g id="edge16_Node000009_Node000011" class="edge">
<title>Node11&#45;&gt;Node9</title>
<g id="a_edge16_Node000009_Node000011"><a xlink:title=" ">
<path fill="none" stroke="orange" stroke-dasharray="5,2" d="M386.21,-78.33C388.67,-79.09 391.11,-79.84 393.5,-80.56 499.61,-112.76 624,-147.99 695.77,-168.07"/>
<polygon fill="orange" stroke="orange" points="387.38,-75.03 376.8,-75.4 385.3,-81.71 387.38,-75.03"/>
</a>
</g>
<text xml:space="preserve" text-anchor="start" x="500.5" y="-145.11" font-family="Helvetica,sans-Serif" font-size="10.00" fill="grey">&lt; R(Args...), C &gt;</text>
</g>
<!-- Node11&#45;&gt;Node10 -->
<g id="edge15_Node000010_Node000011" class="edge">
<title>Node11&#45;&gt;Node10</title>
<g id="a_edge15_Node000010_Node000011"><a xlink:title=" ">
<path fill="none" stroke="orange" stroke-dasharray="5,2" d="M387.45,-58.56C415.05,-58.56 447.35,-58.56 474.83,-58.56"/>
<polygon fill="orange" stroke="orange" points="387.46,-55.06 377.46,-58.56 387.46,-62.06 387.46,-55.06"/>
</a>
</g>
<text xml:space="preserve" text-anchor="start" x="396.5" y="-64.06" font-family="Helvetica,sans-Serif" font-size="10.00" fill="grey">&lt; R(Args...)&gt;</text>
</g>
<!-- Node12&#45;&gt;Node8 -->
<g id="edge17_Node000008_Node000012" class="edge">
<title>Node12&#45;&gt;Node8</title>
<g id="a_edge17_Node000008_Node000012"><a xlink:title=" ">
<path fill="none" stroke="#63b8ff" d="M600.5,-260.04C691.93,-262.23 861.48,-266.28 946.92,-268.32"/>
<polygon fill="#63b8ff" stroke="#63b8ff" points="600.8,-256.55 590.72,-259.81 600.64,-263.55 600.8,-256.55"/>
</a>
</g>
</g>
<!-- Node13&#45;&gt;Node1 -->
<g id="edge29_Node000001_Node000013" class="edge">
<title>Node13&#45;&gt;Node1</title>
<g id="a_edge29_Node000001_Node000013"><a xlink:title=" ">
<path fill="none" stroke="orange" stroke-dasharray="5,2" d="M802.64,-113.7C850.47,-93.71 928.44,-66.56 999,-66.56 999,-66.56 999,-66.56 1644.62,-66.56 1730.07,-66.56 1779.52,-378.19 1791.67,-465.22"/>
<polygon fill="orange" stroke="orange" points="801.53,-110.37 793.71,-117.51 804.28,-116.81 801.53,-110.37"/>
</a>
</g>
<text xml:space="preserve" text-anchor="start" x="1329.5" y="-88.06" font-family="Helvetica,sans-Serif" font-size="10.00" fill="grey">&lt; R(C::*)(Args...)</text>
<text xml:space="preserve" text-anchor="start" x="1329.5" y="-72.06" font-family="Helvetica,sans-Serif" font-size="10.00" fill="grey">   volatile &amp;noexcept &gt;</text>
</g>
<!-- Node13&#45;&gt;Node5 -->
<g id="edge28_Node000005_Node000013" class="edge">
<title>Node13&#45;&gt;Node5</title>
<g id="a_edge28_Node000005_Node000013"><a xlink:title=" ">
<path fill="none" stroke="orange" stroke-dasharray="5,2" d="M820.25,-126.88C868.99,-121.61 938.17,-115.56 999,-115.56 999,-115.56 999,-115.56 1502.38,-115.56 1577.52,-115.56 1626.3,-384.7 1639.2,-465.13"/>
<polygon fill="orange" stroke="orange" points="819.99,-123.39 810.44,-127.96 820.76,-130.35 819.99,-123.39"/>
</a>
</g>
<text xml:space="preserve" text-anchor="start" x="1203.75" y="-137.06" font-family="Helvetica,sans-Serif" font-size="10.00" fill="grey">&lt; R(Args...) volatile</text>
<text xml:space="preserve" text-anchor="start" x="1203.75" y="-121.06" font-family="Helvetica,sans-Serif" font-size="10.00" fill="grey">   &amp;noexcept, C &gt;</text>
</g>
<!-- Node13&#45;&gt;Node6 -->
<g id="edge26_Node000006_Node000013" class="edge">
<title>Node13&#45;&gt;Node6</title>
<g id="a_edge26_Node000006_Node000013"><a xlink:title=" ">
<path fill="none" stroke="orange" stroke-dasharray="5,2" d="M820.4,-136.85C902.37,-141.44 1048.72,-155.22 1166.5,-196.56 1294.55,-241.51 1326.33,-262.88 1430.75,-349.56 1451.58,-366.85 1471.3,-390.77 1484.4,-408.13"/>
<polygon fill="orange" stroke="orange" points="820.71,-133.36 810.54,-136.33 820.34,-140.35 820.71,-133.36"/>
</a>
</g>
<text xml:space="preserve" text-anchor="start" x="1078" y="-218.06" font-family="Helvetica,sans-Serif" font-size="10.00" fill="grey">&lt; R(Args...) volatile</text>
<text xml:space="preserve" text-anchor="start" x="1078" y="-202.06" font-family="Helvetica,sans-Serif" font-size="10.00" fill="grey">   &amp;, C &gt;</text>
</g>
<!-- Node13&#45;&gt;Node7 -->
<g id="edge24_Node000007_Node000013" class="edge">
<title>Node13&#45;&gt;Node7</title>
<g id="a_edge24_Node000007_Node000013"><a xlink:title=" ">
<path fill="none" stroke="orange" stroke-dasharray="5,2" d="M814.56,-154.64C824.59,-158.03 834.96,-161.46 844.75,-164.56 938.43,-194.26 965.19,-191.5 1057,-226.56 1114.42,-248.49 1178.44,-280.84 1215.15,-300.19"/>
<polygon fill="orange" stroke="orange" points="815.86,-151.39 805.27,-151.48 813.61,-158.02 815.86,-151.39"/>
</a>
</g>
<text xml:space="preserve" text-anchor="start" x="946" y="-232.06" font-family="Helvetica,sans-Serif" font-size="10.00" fill="grey">&lt; R(Args...) volatile, C &gt;</text>
</g>
<!-- Node13&#45;&gt;Node8 -->
<g id="edge20_Node000008_Node000013" class="edge">
<title>Node13&#45;&gt;Node8</title>
<g id="a_edge20_Node000008_Node000013"><a xlink:title=" ">
<path fill="none" stroke="orange" stroke-dasharray="5,2" d="M819.15,-154.12C821.82,-155.79 824.37,-157.6 826.75,-159.56 838.77,-169.43 832.2,-180.38 844.75,-189.56 874.34,-211.2 892.22,-192.17 925,-208.56 934.31,-213.22 934.98,-216.92 943,-223.56 954.92,-233.43 968.32,-244.43 979.02,-253.2"/>
<polygon fill="orange" stroke="orange" points="820.89,-151.08 810.44,-149.37 817.54,-157.23 820.89,-151.08"/>
</a>
</g>
<text xml:space="preserve" text-anchor="start" x="847.75" y="-214.06" font-family="Helvetica,sans-Serif" font-size="10.00" fill="grey">&lt; R(Args...), C &gt;</text>
</g>
</g>
</svg>
