<?xml version="1.0" encoding="UTF-8" standalone="no"?>
<!DOCTYPE svg PUBLIC "-//W3C//DTD SVG 1.1//EN"
 "http://www.w3.org/Graphics/SVG/1.1/DTD/svg11.dtd">
<!-- Generated by graphviz version 14.1.1 (20251213.1925)
 -->
<!-- Title: mstd::function_traits&lt; R(Args...) volatile &amp;&amp;, C &gt; Pages: 1 -->
<svg width="1459pt" height="642pt"
 viewBox="0.00 0.00 1459.00 642.00" xmlns="http://www.w3.org/2000/svg" xmlns:xlink="http://www.w3.org/1999/xlink">
<g id="graph0" class="graph" transform="scale(1 1) rotate(0) translate(4 638)">
<title>mstd::function_traits&lt; R(Args...) volatile &amp;&amp;, C &gt;</title>
<!-- Node1 -->
<g id="Node000001" class="node">
<title>Node1</title>
<g id="a_Node000001"><a xlink:title=" ">
<polygon fill="#999999" stroke="#666666" points="1450.75,-295 1345.5,-295 1345.5,-251 1450.75,-251 1450.75,-295"/>
<text xml:space="preserve" text-anchor="start" x="1353.5" y="-281.5" font-family="Helvetica,sans-Serif" font-size="10.00">mstd::function_traits</text>
<text xml:space="preserve" text-anchor="start" x="1353.5" y="-269.5" font-family="Helvetica,sans-Serif" font-size="10.00">&lt; R(Args...) volatile</text>
<text xml:space="preserve" text-anchor="middle" x="1398.12" y="-257.5" font-family="Helvetica,sans-Serif" font-size="10.00"> &amp;&amp;, C &gt;</text>
</a>
</g>
</g>
<!-- Node2 -->
<g id="Node000002" class="node">
<title>Node2</title>
<g id="a_Node000002"><a xlink:href="../../d0/d74/structmstd_1_1utils_1_1function__default__type__traits.html" target="_top" xlink:title=" ">
<polygon fill="white" stroke="#666666" points="588.75,-308 486.5,-308 486.5,-264 588.75,-264 588.75,-308"/>
<text xml:space="preserve" text-anchor="start" x="494.5" y="-294.5" font-family="Helvetica,sans-Serif" font-size="10.00">mstd::utils::function</text>
<text xml:space="preserve" text-anchor="start" x="494.5" y="-282.5" font-family="Helvetica,sans-Serif" font-size="10.00">_default_type_traits</text>
<text xml:space="preserve" text-anchor="middle" x="537.62" y="-270.5" font-family="Helvetica,sans-Serif" font-size="10.00">&lt; false &gt;</text>
</a>
</g>
</g>
<!-- Node2&#45;&gt;Node1 -->
<g id="edge1_Node000001_Node000002" class="edge">
<title>Node2&#45;&gt;Node1</title>
<g id="a_edge1_Node000001_Node000002"><a xlink:title=" ">
<path fill="none" stroke="#63b8ff" d="M600.02,-294.27C643.3,-299.39 702.65,-305 755.12,-305 755.12,-305 755.12,-305 1247.5,-305 1280.44,-305 1316.57,-297.49 1345.08,-289.75"/>
<polygon fill="#63b8ff" stroke="#63b8ff" points="600.67,-290.82 590.33,-293.1 599.83,-297.77 600.67,-290.82"/>
</a>
</g>
</g>
<!-- Node5 -->
<g id="Node000005" class="node">
<title>Node5</title>
<g id="a_Node000005"><a xlink:href="../../d0/d52/structmstd_1_1function__traits_3_01_r_07_args_8_8_8_08_01volatile_00_01_c_01_4.html" target="_top" xlink:title=" ">
<polygon fill="white" stroke="#666666" points="1308.5,-194 1184.5,-194 1184.5,-162 1308.5,-162 1308.5,-194"/>
<text xml:space="preserve" text-anchor="start" x="1192.5" y="-180.5" font-family="Helvetica,sans-Serif" font-size="10.00">mstd::function_traits</text>
<text xml:space="preserve" text-anchor="middle" x="1246.5" y="-168.5" font-family="Helvetica,sans-Serif" font-size="10.00">&lt; R(Args...) volatile, C &gt;</text>
</a>
</g>
</g>
<!-- Node2&#45;&gt;Node5 -->
<g id="edge6_Node000005_Node000002" class="edge">
<title>Node2&#45;&gt;Node5</title>
<g id="a_edge6_Node000005_Node000002"><a xlink:title=" ">
<path fill="none" stroke="#63b8ff" d="M600.28,-277.33C712.88,-261.37 959.32,-225.86 1166.5,-192 1172.27,-191.06 1178.28,-190.05 1184.29,-189.02"/>
<polygon fill="#63b8ff" stroke="#63b8ff" points="600.07,-273.82 590.65,-278.69 601.05,-280.75 600.07,-273.82"/>
</a>
</g>
</g>
<!-- Node6 -->
<g id="Node000006" class="node">
<title>Node6</title>
<g id="a_Node000006"><a xlink:href="../../dd/db6/structmstd_1_1function__traits_3_01_r_07_args_8_8_8_08_00_01_c_01_4.html" target="_top" xlink:title=" ">
<polygon fill="white" stroke="#666666" points="1052.62,-194 947.38,-194 947.38,-162 1052.62,-162 1052.62,-194"/>
<text xml:space="preserve" text-anchor="start" x="955.38" y="-180.5" font-family="Helvetica,sans-Serif" font-size="10.00">mstd::function_traits</text>
<text xml:space="preserve" text-anchor="middle" x="1000" y="-168.5" font-family="Helvetica,sans-Serif" font-size="10.00">&lt; R(Args...), C &gt;</text>
</a>
</g>
</g>
<!-- Node2&#45;&gt;Node6 -->
<g id="edge8_Node000006_Node000002" class="edge">
<title>Node2&#45;&gt;Node6</title>
<g id="a_edge8_Node000006_Node000002"><a xlink:title=" ">
<path fill="none" stroke="#63b8ff" d="M598.74,-259.49C605.17,-257.11 611.68,-254.89 618,-253 751.05,-213.24 789.09,-223.44 925,-195 932.1,-193.52 939.56,-191.88 946.9,-190.24"/>
<polygon fill="#63b8ff" stroke="#63b8ff" points="597.5,-256.22 589.43,-263.08 600.02,-262.75 597.5,-256.22"/>
</a>
</g>
</g>
<!-- Node11 -->
<g id="Node000011" class="node">
<title>Node11</title>
<g id="a_Node000011"><a xlink:href="../../d7/dcb/structmstd_1_1function__traits.html" target="_top" xlink:title=" ">
<polygon fill="white" stroke="#666666" points="808.75,-107 703.5,-107 703.5,-75 808.75,-75 808.75,-107"/>
<text xml:space="preserve" text-anchor="start" x="711.5" y="-93.5" font-family="Helvetica,sans-Serif" font-size="10.00">mstd::function_traits</text>
<text xml:space="preserve" text-anchor="middle" x="756.12" y="-81.5" font-family="Helvetica,sans-Serif" font-size="10.00">&lt; F, C &gt;</text>
</a>
</g>
</g>
<!-- Node2&#45;&gt;Node11 -->
<g id="edge17_Node000011_Node000002" class="edge">
<title>Node2&#45;&gt;Node11</title>
<g id="a_edge17_Node000011_Node000002"><a xlink:title=" ">
<path fill="none" stroke="#63b8ff" d="M569.43,-255.59C579.4,-245.43 590.37,-233.91 600,-223 640.29,-177.37 635.98,-151.4 685.5,-116 690.93,-112.12 697.03,-108.78 703.3,-105.93"/>
<polygon fill="#63b8ff" stroke="#63b8ff" points="566.95,-253.12 562.4,-262.69 571.92,-258.05 566.95,-253.12"/>
</a>
</g>
</g>
<!-- Node3 -->
<g id="Node000003" class="node">
<title>Node3</title>
<g id="a_Node000003"><a xlink:title=" ">
<polygon fill="white" stroke="#666666" points="155.5,-191 0,-191 0,-159 155.5,-159 155.5,-191"/>
<text xml:space="preserve" text-anchor="start" x="8" y="-177.5" font-family="Helvetica,sans-Serif" font-size="10.00">static _MSTD_CONSTEXPR17</text>
<text xml:space="preserve" text-anchor="middle" x="77.75" y="-165.5" font-family="Helvetica,sans-Serif" font-size="10.00"> const bool</text>
</a>
</g>
</g>
<!-- Node3&#45;&gt;Node1 -->
<g id="edge21_Node000001_Node000003" class="edge">
<title>Node3&#45;&gt;Node1</title>
<g id="a_edge21_Node000001_Node000003"><a xlink:title=" ">
<path fill="none" stroke="#9a32cd" stroke-dasharray="5,2" d="M80.82,-202.92C89.65,-299.86 132.99,-616 322.62,-616 322.62,-616 322.62,-616 1247.5,-616 1387.99,-616 1397.9,-371.25 1397.58,-295.24"/>
<polygon fill="#9a32cd" stroke="#9a32cd" points="84.31,-202.66 79.97,-192.99 77.33,-203.25 84.31,-202.66"/>
</a>
</g>
<text xml:space="preserve" text-anchor="start" x="719" y="-621.5" font-family="Helvetica,sans-Serif" font-size="10.00" fill="grey">is_parent_moved</text>
</g>
<!-- Node3&#45;&gt;Node2 -->
<g id="edge2_Node000002_Node000003" class="edge">
<title>Node3&#45;&gt;Node2</title>
<g id="a_edge2_Node000002_Node000003"><a xlink:title=" ">
<path fill="none" stroke="#9a32cd" stroke-dasharray="5,2" d="M81.16,-202.5C87.09,-251.36 107.15,-352.26 173.5,-396 226.8,-431.14 402.15,-383.25 457.25,-351 477.69,-339.03 498.32,-321.96 513.42,-308.31"/>
<polygon fill="#9a32cd" stroke="#9a32cd" points="84.66,-202.34 80.1,-192.78 77.7,-203.1 84.66,-202.34"/>
</a>
</g>
<text xml:space="preserve" text-anchor="start" x="286.5" y="-571.1" font-family="Helvetica,sans-Serif" font-size="10.00" fill="grey">is_const</text>
<text xml:space="preserve" text-anchor="start" x="286.5" y="-555.1" font-family="Helvetica,sans-Serif" font-size="10.00" fill="grey">is_free</text>
<text xml:space="preserve" text-anchor="start" x="286.5" y="-539.1" font-family="Helvetica,sans-Serif" font-size="10.00" fill="grey">is_functor</text>
<text xml:space="preserve" text-anchor="start" x="286.5" y="-523.1" font-family="Helvetica,sans-Serif" font-size="10.00" fill="grey">is_member</text>
<text xml:space="preserve" text-anchor="start" x="286.5" y="-507.1" font-family="Helvetica,sans-Serif" font-size="10.00" fill="grey">is_moved</text>
<text xml:space="preserve" text-anchor="start" x="286.5" y="-491.1" font-family="Helvetica,sans-Serif" font-size="10.00" fill="grey">is_noexcept</text>
<text xml:space="preserve" text-anchor="start" x="286.5" y="-475.1" font-family="Helvetica,sans-Serif" font-size="10.00" fill="grey">is_parent_moved</text>
<text xml:space="preserve" text-anchor="start" x="286.5" y="-459.1" font-family="Helvetica,sans-Serif" font-size="10.00" fill="grey">is_parent_ref</text>
<text xml:space="preserve" text-anchor="start" x="286.5" y="-443.1" font-family="Helvetica,sans-Serif" font-size="10.00" fill="grey">is_ptr</text>
<text xml:space="preserve" text-anchor="start" x="286.5" y="-427.1" font-family="Helvetica,sans-Serif" font-size="10.00" fill="grey">is_ref</text>
<text xml:space="preserve" text-anchor="start" x="286.5" y="-411.1" font-family="Helvetica,sans-Serif" font-size="10.00" fill="grey"> &#160;...</text>
</g>
<!-- Node4 -->
<g id="Node000004" class="node">
<title>Node4</title>
<g id="a_Node000004"><a xlink:href="../../d0/d74/structmstd_1_1utils_1_1function__default__type__traits.html" target="_top" xlink:title=" ">
<polygon fill="white" stroke="#666666" points="374.75,-374 272.5,-374 272.5,-330 374.75,-330 374.75,-374"/>
<text xml:space="preserve" text-anchor="start" x="280.5" y="-360.5" font-family="Helvetica,sans-Serif" font-size="10.00">mstd::utils::function</text>
<text xml:space="preserve" text-anchor="start" x="280.5" y="-348.5" font-family="Helvetica,sans-Serif" font-size="10.00">_default_type_traits</text>
<text xml:space="preserve" text-anchor="middle" x="323.62" y="-336.5" font-family="Helvetica,sans-Serif" font-size="10.00">&lt; IsMember &gt;</text>
</a>
</g>
</g>
<!-- Node3&#45;&gt;Node4 -->
<g id="edge4_Node000004_Node000003" class="edge">
<title>Node3&#45;&gt;Node4</title>
<g id="a_edge4_Node000004_Node000003"><a xlink:title=" ">
<path fill="none" stroke="#9a32cd" stroke-dasharray="5,2" d="M166.78,-177.4C198.23,-182.74 231.39,-194.27 253.75,-218 284.12,-250.23 247.92,-278.68 271.75,-316 275.01,-321.11 279.28,-325.7 283.96,-329.77"/>
<polygon fill="#9a32cd" stroke="#9a32cd" points="167.65,-173.99 157.24,-175.98 166.62,-180.91 167.65,-173.99"/>
</a>
</g>
<text xml:space="preserve" text-anchor="start" x="176.5" y="-383.5" font-family="Helvetica,sans-Serif" font-size="10.00" fill="grey">is_const</text>
<text xml:space="preserve" text-anchor="start" x="176.5" y="-367.5" font-family="Helvetica,sans-Serif" font-size="10.00" fill="grey">is_free</text>
<text xml:space="preserve" text-anchor="start" x="176.5" y="-351.5" font-family="Helvetica,sans-Serif" font-size="10.00" fill="grey">is_functor</text>
<text xml:space="preserve" text-anchor="start" x="176.5" y="-335.5" font-family="Helvetica,sans-Serif" font-size="10.00" fill="grey">is_member</text>
<text xml:space="preserve" text-anchor="start" x="176.5" y="-319.5" font-family="Helvetica,sans-Serif" font-size="10.00" fill="grey">is_moved</text>
<text xml:space="preserve" text-anchor="start" x="176.5" y="-303.5" font-family="Helvetica,sans-Serif" font-size="10.00" fill="grey">is_noexcept</text>
<text xml:space="preserve" text-anchor="start" x="176.5" y="-287.5" font-family="Helvetica,sans-Serif" font-size="10.00" fill="grey">is_parent_moved</text>
<text xml:space="preserve" text-anchor="start" x="176.5" y="-271.5" font-family="Helvetica,sans-Serif" font-size="10.00" fill="grey">is_parent_ref</text>
<text xml:space="preserve" text-anchor="start" x="176.5" y="-255.5" font-family="Helvetica,sans-Serif" font-size="10.00" fill="grey">is_ptr</text>
<text xml:space="preserve" text-anchor="start" x="176.5" y="-239.5" font-family="Helvetica,sans-Serif" font-size="10.00" fill="grey">is_ref</text>
<text xml:space="preserve" text-anchor="start" x="176.5" y="-223.5" font-family="Helvetica,sans-Serif" font-size="10.00" fill="grey"> &#160;...</text>
</g>
<!-- Node3&#45;&gt;Node5 -->
<g id="edge19_Node000005_Node000003" class="edge">
<title>Node3&#45;&gt;Node5</title>
<g id="a_edge19_Node000005_Node000003"><a xlink:title=" ">
<path fill="none" stroke="#9a32cd" stroke-dasharray="5,2" d="M94.43,-149.25C111.2,-123.59 139.97,-84.56 173.5,-60 231.14,-17.79 251.18,0 322.62,0 322.62,0 322.62,0 885.88,0 958.33,0 1150.45,-117.51 1219.95,-161.57"/>
<polygon fill="#9a32cd" stroke="#9a32cd" points="91.64,-147.11 89.22,-157.43 97.55,-150.88 91.64,-147.11"/>
</a>
</g>
<text xml:space="preserve" text-anchor="start" x="621" y="-5.5" font-family="Helvetica,sans-Serif" font-size="10.00" fill="grey">is_volatile</text>
</g>
<!-- Node10 -->
<g id="Node000010" class="node">
<title>Node10</title>
<g id="a_Node000010"><a xlink:href="../../d0/d74/structmstd_1_1utils_1_1function__default__type__traits.html" target="_top" xlink:title=" ">
<polygon fill="white" stroke="#666666" points="588.75,-214 486.5,-214 486.5,-170 588.75,-170 588.75,-214"/>
<text xml:space="preserve" text-anchor="start" x="494.5" y="-200.5" font-family="Helvetica,sans-Serif" font-size="10.00">mstd::utils::function</text>
<text xml:space="preserve" text-anchor="start" x="494.5" y="-188.5" font-family="Helvetica,sans-Serif" font-size="10.00">_default_type_traits</text>
<text xml:space="preserve" text-anchor="middle" x="537.62" y="-176.5" font-family="Helvetica,sans-Serif" font-size="10.00">&lt; true &gt;</text>
</a>
</g>
</g>
<!-- Node3&#45;&gt;Node10 -->
<g id="edge14_Node000010_Node000003" class="edge">
<title>Node3&#45;&gt;Node10</title>
<g id="a_edge14_Node000010_Node000003"><a xlink:title=" ">
<path fill="none" stroke="#9a32cd" stroke-dasharray="5,2" d="M154.4,-156.23C214.49,-143.87 300.59,-131.86 375.5,-143 413.53,-148.65 455,-161.43 486.35,-172.52"/>
<polygon fill="#9a32cd" stroke="#9a32cd" points="154.03,-152.73 144.97,-158.22 155.47,-159.58 154.03,-152.73"/>
</a>
</g>
<text xml:space="preserve" text-anchor="start" x="286.5" y="-308.5" font-family="Helvetica,sans-Serif" font-size="10.00" fill="grey">is_const</text>
<text xml:space="preserve" text-anchor="start" x="286.5" y="-292.5" font-family="Helvetica,sans-Serif" font-size="10.00" fill="grey">is_free</text>
<text xml:space="preserve" text-anchor="start" x="286.5" y="-276.5" font-family="Helvetica,sans-Serif" font-size="10.00" fill="grey">is_functor</text>
<text xml:space="preserve" text-anchor="start" x="286.5" y="-260.5" font-family="Helvetica,sans-Serif" font-size="10.00" fill="grey">is_member</text>
<text xml:space="preserve" text-anchor="start" x="286.5" y="-244.5" font-family="Helvetica,sans-Serif" font-size="10.00" fill="grey">is_moved</text>
<text xml:space="preserve" text-anchor="start" x="286.5" y="-228.5" font-family="Helvetica,sans-Serif" font-size="10.00" fill="grey">is_noexcept</text>
<text xml:space="preserve" text-anchor="start" x="286.5" y="-212.5" font-family="Helvetica,sans-Serif" font-size="10.00" fill="grey">is_parent_moved</text>
<text xml:space="preserve" text-anchor="start" x="286.5" y="-196.5" font-family="Helvetica,sans-Serif" font-size="10.00" fill="grey">is_parent_ref</text>
<text xml:space="preserve" text-anchor="start" x="286.5" y="-180.5" font-family="Helvetica,sans-Serif" font-size="10.00" fill="grey">is_ptr</text>
<text xml:space="preserve" text-anchor="start" x="286.5" y="-164.5" font-family="Helvetica,sans-Serif" font-size="10.00" fill="grey">is_ref</text>
<text xml:space="preserve" text-anchor="start" x="286.5" y="-148.5" font-family="Helvetica,sans-Serif" font-size="10.00" fill="grey"> &#160;...</text>
</g>
<!-- Node3&#45;&gt;Node11 -->
<g id="edge18_Node000011_Node000003" class="edge">
<title>Node3&#45;&gt;Node11</title>
<g id="a_edge18_Node000011_Node000003"><a xlink:title=" ">
<path fill="none" stroke="#9a32cd" stroke-dasharray="5,2" d="M106.09,-151.43C141.52,-122.59 206.51,-75.36 271.75,-57 423.99,-14.15 613.32,-52.57 703.15,-76.01"/>
<polygon fill="#9a32cd" stroke="#9a32cd" points="103.96,-148.64 98.49,-157.72 108.43,-154.04 103.96,-148.64"/>
</a>
</g>
<text xml:space="preserve" text-anchor="start" x="410.75" y="-43.83" font-family="Helvetica,sans-Serif" font-size="10.00" fill="grey">is_free</text>
</g>
<!-- Node4&#45;&gt;Node2 -->
<g id="edge3_Node000002_Node000004" class="edge">
<title>Node4&#45;&gt;Node2</title>
<g id="a_edge3_Node000002_Node000004"><a xlink:title=" ">
<path fill="none" stroke="orange" stroke-dasharray="5,2" d="M386.07,-332.87C417.84,-322.98 456.12,-311.06 486.14,-301.72"/>
<polygon fill="orange" stroke="orange" points="385.09,-329.51 376.58,-335.83 387.17,-336.19 385.09,-329.51"/>
</a>
</g>
<text xml:space="preserve" text-anchor="start" x="405.88" y="-334.27" font-family="Helvetica,sans-Serif" font-size="10.00" fill="grey">&lt; false &gt;</text>
</g>
<!-- Node4&#45;&gt;Node10 -->
<g id="edge15_Node000010_Node000004" class="edge">
<title>Node4&#45;&gt;Node10</title>
<g id="a_edge15_Node000010_Node000004"><a xlink:title=" ">
<path fill="none" stroke="orange" stroke-dasharray="5,2" d="M368.51,-322.6C370.96,-320.46 373.31,-318.25 375.5,-316 385.56,-305.66 383.34,-299.24 393.5,-289 423.63,-258.64 464.56,-232.02 494.94,-214.39"/>
<polygon fill="orange" stroke="orange" points="366.65,-319.61 361.11,-328.64 371.07,-325.03 366.65,-319.61"/>
</a>
</g>
<text xml:space="preserve" text-anchor="start" x="408.12" y="-294.5" font-family="Helvetica,sans-Serif" font-size="10.00" fill="grey">&lt; true &gt;</text>
</g>
<!-- Node5&#45;&gt;Node1 -->
<g id="edge5_Node000001_Node000005" class="edge">
<title>Node5&#45;&gt;Node1</title>
<g id="a_edge5_Node000001_Node000005"><a xlink:title=" ">
<path fill="none" stroke="#63b8ff" d="M1282.63,-200.3C1306.53,-215.48 1338.04,-235.48 1361.95,-250.67"/>
<polygon fill="#63b8ff" stroke="#63b8ff" points="1284.82,-197.55 1274.5,-195.14 1281.07,-203.46 1284.82,-197.55"/>
</a>
</g>
</g>
<!-- Node6&#45;&gt;Node5 -->
<g id="edge7_Node000005_Node000006" class="edge">
<title>Node6&#45;&gt;Node5</title>
<g id="a_edge7_Node000005_Node000006"><a xlink:title=" ">
<path fill="none" stroke="#63b8ff" d="M1064,-178C1100.99,-178 1147.53,-178 1184.22,-178"/>
<polygon fill="#63b8ff" stroke="#63b8ff" points="1064.37,-174.5 1054.37,-178 1064.37,-181.5 1064.37,-174.5"/>
</a>
</g>
</g>
<!-- Node7 -->
<g id="Node000007" class="node">
<title>Node7</title>
<g id="a_Node000007"><a xlink:href="../../d1/d4f/structmstd_1_1utils_1_1function__core__traits_3_01_r_07_args_8_8_8_08_00_01_c_01_4.html" target="_top" xlink:title=" ">
<polygon fill="white" stroke="#666666" points="826.75,-157 685.5,-157 685.5,-125 826.75,-125 826.75,-157"/>
<text xml:space="preserve" text-anchor="start" x="693.5" y="-143.5" font-family="Helvetica,sans-Serif" font-size="10.00">mstd::utils::function</text>
<text xml:space="preserve" text-anchor="middle" x="756.12" y="-131.5" font-family="Helvetica,sans-Serif" font-size="10.00">_core_traits&lt; R(Args...), C &gt;</text>
</a>
</g>
</g>
<!-- Node7&#45;&gt;Node6 -->
<g id="edge9_Node000006_Node000007" class="edge">
<title>Node7&#45;&gt;Node6</title>
<g id="a_edge9_Node000006_Node000007"><a xlink:title=" ">
<path fill="none" stroke="#63b8ff" d="M838.08,-153.38C874.12,-158.9 915.49,-165.22 947.26,-170.08"/>
<polygon fill="#63b8ff" stroke="#63b8ff" points="839,-149.98 828.58,-151.93 837.94,-156.9 839,-149.98"/>
</a>
</g>
</g>
<!-- Node8 -->
<g id="Node000008" class="node">
<title>Node8</title>
<g id="a_Node000008"><a xlink:href="../../df/db9/structmstd_1_1utils_1_1function__core__traits.html" target="_top" xlink:title=" ">
<polygon fill="white" stroke="#666666" points="600,-152 475.25,-152 475.25,-120 600,-120 600,-152"/>
<text xml:space="preserve" text-anchor="start" x="483.25" y="-138.5" font-family="Helvetica,sans-Serif" font-size="10.00">mstd::utils::function</text>
<text xml:space="preserve" text-anchor="middle" x="537.62" y="-126.5" font-family="Helvetica,sans-Serif" font-size="10.00">_core_traits&lt; R(Args...)&gt;</text>
</a>
</g>
</g>
<!-- Node8&#45;&gt;Node7 -->
<g id="edge10_Node000007_Node000008" class="edge">
<title>Node8&#45;&gt;Node7</title>
<g id="a_edge10_Node000007_Node000008"><a xlink:title=" ">
<path fill="none" stroke="#63b8ff" d="M611.8,-137.69C635.54,-138.24 661.8,-138.84 685.29,-139.39"/>
<polygon fill="#63b8ff" stroke="#63b8ff" points="611.97,-134.19 601.89,-137.46 611.81,-141.19 611.97,-134.19"/>
</a>
</g>
</g>
<!-- Node9 -->
<g id="Node000009" class="node">
<title>Node9</title>
<g id="a_Node000009"><a xlink:href="../../df/db9/structmstd_1_1utils_1_1function__core__traits.html" target="_top" xlink:title=" ">
<polygon fill="white" stroke="#666666" points="375.5,-98 271.75,-98 271.75,-66 375.5,-66 375.5,-98"/>
<text xml:space="preserve" text-anchor="start" x="279.75" y="-84.5" font-family="Helvetica,sans-Serif" font-size="10.00">mstd::utils::function</text>
<text xml:space="preserve" text-anchor="middle" x="323.62" y="-72.5" font-family="Helvetica,sans-Serif" font-size="10.00">_core_traits&lt; F, C &gt;</text>
</a>
</g>
</g>
<!-- Node9&#45;&gt;Node7 -->
<g id="edge12_Node000007_Node000009" class="edge">
<title>Node9&#45;&gt;Node7</title>
<g id="a_edge12_Node000007_Node000009"><a xlink:title=" ">
<path fill="none" stroke="orange" stroke-dasharray="5,2" d="M386.98,-79.9C443.11,-79.1 527.65,-80.58 600,-93 620.63,-96.54 669.52,-112.13 706.95,-124.59"/>
<polygon fill="orange" stroke="orange" points="387.24,-76.4 377.31,-80.07 387.37,-83.39 387.24,-76.4"/>
</a>
</g>
<text xml:space="preserve" text-anchor="start" x="500.5" y="-98.5" font-family="Helvetica,sans-Serif" font-size="10.00" fill="grey">&lt; R(Args...), C &gt;</text>
</g>
<!-- Node9&#45;&gt;Node8 -->
<g id="edge11_Node000008_Node000009" class="edge">
<title>Node9&#45;&gt;Node8</title>
<g id="a_edge11_Node000008_Node000009"><a xlink:title=" ">
<path fill="none" stroke="orange" stroke-dasharray="5,2" d="M387.09,-97.91C414.76,-104.96 447.23,-113.23 474.83,-120.26"/>
<polygon fill="orange" stroke="orange" points="387.97,-94.52 377.41,-95.45 386.24,-101.31 387.97,-94.52"/>
</a>
</g>
<text xml:space="preserve" text-anchor="start" x="396.5" y="-120.92" font-family="Helvetica,sans-Serif" font-size="10.00" fill="grey">&lt; R(Args...)&gt;</text>
</g>
<!-- Node10&#45;&gt;Node6 -->
<g id="edge13_Node000006_Node000010" class="edge">
<title>Node10&#45;&gt;Node6</title>
<g id="a_edge13_Node000006_Node000010"><a xlink:title=" ">
<path fill="none" stroke="#63b8ff" d="M600.5,-190.12C691.93,-187.34 861.48,-182.18 946.92,-179.58"/>
<polygon fill="#63b8ff" stroke="#63b8ff" points="600.61,-186.61 590.72,-190.42 600.82,-193.61 600.61,-186.61"/>
</a>
</g>
</g>
<!-- Node11&#45;&gt;Node1 -->
<g id="edge22_Node000001_Node000011" class="edge">
<title>Node11&#45;&gt;Node1</title>
<g id="a_edge22_Node000001_Node000011"><a xlink:title=" ">
<path fill="none" stroke="orange" stroke-dasharray="5,2" d="M820.56,-86.21C901.61,-81.54 1045.84,-78.08 1166.5,-101 1232.53,-113.54 1254.71,-112.71 1308.5,-153 1343.95,-179.55 1371.58,-224.17 1386.03,-250.88"/>
<polygon fill="orange" stroke="orange" points="820.35,-82.72 810.58,-86.82 820.78,-89.71 820.35,-82.72"/>
</a>
</g>
<text xml:space="preserve" text-anchor="start" x="1078" y="-122.5" font-family="Helvetica,sans-Serif" font-size="10.00" fill="grey">&lt; R(Args...) volatile</text>
<text xml:space="preserve" text-anchor="start" x="1078" y="-106.5" font-family="Helvetica,sans-Serif" font-size="10.00" fill="grey">   &amp;&amp;, C &gt;</text>
</g>
<!-- Node11&#45;&gt;Node5 -->
<g id="edge20_Node000005_Node000011" class="edge">
<title>Node11&#45;&gt;Node5</title>
<g id="a_edge20_Node000005_Node000011"><a xlink:title=" ">
<path fill="none" stroke="orange" stroke-dasharray="5,2" d="M820.23,-99.32C851.73,-103.55 890.4,-108.88 925,-114 983.76,-122.7 998.68,-123.72 1057,-135 1099.68,-143.25 1147.41,-154.16 1184.17,-162.92"/>
<polygon fill="orange" stroke="orange" points="820.85,-95.87 810.47,-98.01 819.92,-102.81 820.85,-95.87"/>
</a>
</g>
<text xml:space="preserve" text-anchor="start" x="946" y="-140.5" font-family="Helvetica,sans-Serif" font-size="10.00" fill="grey">&lt; R(Args...) volatile, C &gt;</text>
</g>
<!-- Node11&#45;&gt;Node6 -->
<g id="edge16_Node000006_Node000011" class="edge">
<title>Node11&#45;&gt;Node6</title>
<g id="a_edge16_Node000006_Node000011"><a xlink:title=" ">
<path fill="none" stroke="orange" stroke-dasharray="5,2" d="M820.12,-105.8C863.51,-116.15 915.05,-128.84 925,-133 943.04,-140.54 961.84,-152.02 975.97,-161.5"/>
<polygon fill="orange" stroke="orange" points="821.02,-102.41 810.48,-103.5 819.4,-109.22 821.02,-102.41"/>
</a>
</g>
<text xml:space="preserve" text-anchor="start" x="847.75" y="-138.5" font-family="Helvetica,sans-Serif" font-size="10.00" fill="grey">&lt; R(Args...), C &gt;</text>
</g>
</g>
</svg>
