<?xml version="1.0" encoding="UTF-8" standalone="no"?>
<!DOCTYPE svg PUBLIC "-//W3C//DTD SVG 1.1//EN"
 "http://www.w3.org/Graphics/SVG/1.1/DTD/svg11.dtd">
<!-- Generated by graphviz version 14.1.1 (20251213.1925)
 -->
<!-- Title: mstd::function_traits&lt; R(C::*)(Args...) &amp;noexcept &gt; Pages: 1 -->
<svg width="1703pt" height="652pt"
 viewBox="0.00 0.00 1703.00 652.00" xmlns="http://www.w3.org/2000/svg" xmlns:xlink="http://www.w3.org/1999/xlink">
<g id="graph0" class="graph" transform="scale(1 1) rotate(0) translate(4 648)">
<title>mstd::function_traits&lt; R(C::*)(Args...) &amp;noexcept &gt;</title>
<!-- Node1 -->
<g id="Node000001" class="node">
<title>Node1</title>
<g id="a_Node000001"><a xlink:title=" ">
<polygon fill="#999999" stroke="#666666" points="1695.25,-507 1545.75,-507 1545.75,-475 1695.25,-475 1695.25,-507"/>
<text xml:space="preserve" text-anchor="start" x="1553.75" y="-493.5" font-family="Helvetica,sans-Serif" font-size="10.00">mstd::function_traits</text>
<text xml:space="preserve" text-anchor="middle" x="1620.5" y="-481.5" font-family="Helvetica,sans-Serif" font-size="10.00">&lt; R(C::*)(Args...) &amp;noexcept &gt;</text>
</a>
</g>
</g>
<!-- Node2 -->
<g id="Node000002" class="node">
<title>Node2</title>
<g id="a_Node000002"><a xlink:href="../../d0/d74/structmstd_1_1utils_1_1function__default__type__traits.html" target="_top" xlink:title=" ">
<polygon fill="white" stroke="#666666" points="588.75,-375 486.5,-375 486.5,-331 588.75,-331 588.75,-375"/>
<text xml:space="preserve" text-anchor="start" x="494.5" y="-361.5" font-family="Helvetica,sans-Serif" font-size="10.00">mstd::utils::function</text>
<text xml:space="preserve" text-anchor="start" x="494.5" y="-349.5" font-family="Helvetica,sans-Serif" font-size="10.00">_default_type_traits</text>
<text xml:space="preserve" text-anchor="middle" x="537.62" y="-337.5" font-family="Helvetica,sans-Serif" font-size="10.00">&lt; false &gt;</text>
</a>
</g>
</g>
<!-- Node2&#45;&gt;Node1 -->
<g id="edge1_Node000001_Node000002" class="edge">
<title>Node2&#45;&gt;Node1</title>
<g id="a_edge1_Node000001_Node000002"><a xlink:title=" ">
<path fill="none" stroke="#63b8ff" d="M555.89,-385.04C588.95,-441.55 666.94,-553 767.88,-553 767.88,-553 767.88,-553 1439.88,-553 1495.79,-553 1556.41,-525.82 1590.99,-507.45"/>
<polygon fill="#63b8ff" stroke="#63b8ff" points="559,-383.43 551,-376.48 552.92,-386.9 559,-383.43"/>
</a>
</g>
</g>
<!-- Node5 -->
<g id="Node000005" class="node">
<title>Node5</title>
<g id="a_Node000005"><a xlink:href="../../de/d2b/structmstd_1_1function__traits_3_01_r_07_args_8_8_8_08_01_6noexcept_00_01_c_01_4.html" target="_top" xlink:title=" ">
<polygon fill="white" stroke="#666666" points="1508.75,-461 1369,-461 1369,-429 1508.75,-429 1508.75,-461"/>
<text xml:space="preserve" text-anchor="start" x="1377" y="-447.5" font-family="Helvetica,sans-Serif" font-size="10.00">mstd::function_traits</text>
<text xml:space="preserve" text-anchor="middle" x="1438.88" y="-435.5" font-family="Helvetica,sans-Serif" font-size="10.00">&lt; R(Args...) &amp;noexcept, C &gt;</text>
</a>
</g>
</g>
<!-- Node2&#45;&gt;Node5 -->
<g id="edge6_Node000005_Node000002" class="edge">
<title>Node2&#45;&gt;Node5</title>
<g id="a_edge6_Node000005_Node000002"><a xlink:title=" ">
<path fill="none" stroke="#63b8ff" d="M600.18,-337.16C646.07,-326.74 710.48,-315 767.88,-315 767.88,-315 767.88,-315 1280.38,-315 1350.93,-315 1406.97,-393.55 1428.42,-428.54"/>
<polygon fill="#63b8ff" stroke="#63b8ff" points="599.64,-333.7 590.69,-339.37 601.22,-340.51 599.64,-333.7"/>
</a>
</g>
</g>
<!-- Node6 -->
<g id="Node000006" class="node">
<title>Node6</title>
<g id="a_Node000006"><a xlink:href="../../d8/d00/structmstd_1_1function__traits_3_01_r_07_args_8_8_8_08_01_6_00_01_c_01_4.html" target="_top" xlink:title=" ">
<polygon fill="white" stroke="#666666" points="1332,-287 1226.75,-287 1226.75,-255 1332,-255 1332,-287"/>
<text xml:space="preserve" text-anchor="start" x="1234.75" y="-273.5" font-family="Helvetica,sans-Serif" font-size="10.00">mstd::function_traits</text>
<text xml:space="preserve" text-anchor="middle" x="1279.38" y="-261.5" font-family="Helvetica,sans-Serif" font-size="10.00">&lt; R(Args...) &amp;, C &gt;</text>
</a>
</g>
</g>
<!-- Node2&#45;&gt;Node6 -->
<g id="edge8_Node000006_Node000002" class="edge">
<title>Node2&#45;&gt;Node6</title>
<g id="a_edge8_Node000006_Node000002"><a xlink:title=" ">
<path fill="none" stroke="#63b8ff" d="M600.3,-351.22C678.87,-348.51 818.72,-342.21 937.75,-329 1059.03,-315.54 1088.69,-306.81 1208.75,-285 1214.45,-283.96 1220.41,-282.84 1226.33,-281.69"/>
<polygon fill="#63b8ff" stroke="#63b8ff" points="600.56,-347.71 590.68,-351.54 600.79,-354.71 600.56,-347.71"/>
</a>
</g>
</g>
<!-- Node7 -->
<g id="Node000007" class="node">
<title>Node7</title>
<g id="a_Node000007"><a xlink:href="../../dd/db6/structmstd_1_1function__traits_3_01_r_07_args_8_8_8_08_00_01_c_01_4.html" target="_top" xlink:title=" ">
<polygon fill="white" stroke="#666666" points="1061,-287 955.75,-287 955.75,-255 1061,-255 1061,-287"/>
<text xml:space="preserve" text-anchor="start" x="963.75" y="-273.5" font-family="Helvetica,sans-Serif" font-size="10.00">mstd::function_traits</text>
<text xml:space="preserve" text-anchor="middle" x="1008.38" y="-261.5" font-family="Helvetica,sans-Serif" font-size="10.00">&lt; R(Args...), C &gt;</text>
</a>
</g>
</g>
<!-- Node2&#45;&gt;Node7 -->
<g id="edge10_Node000007_Node000002" class="edge">
<title>Node2&#45;&gt;Node7</title>
<g id="a_edge10_Node000007_Node000002"><a xlink:title=" ">
<path fill="none" stroke="#63b8ff" d="M574.48,-324.02C587.45,-315.08 602.69,-306.22 618,-301 733.52,-261.64 879.09,-262.8 955.34,-266.95"/>
<polygon fill="#63b8ff" stroke="#63b8ff" points="572.77,-320.94 566.69,-329.62 576.86,-326.63 572.77,-320.94"/>
</a>
</g>
</g>
<!-- Node12 -->
<g id="Node000012" class="node">
<title>Node12</title>
<g id="a_Node000012"><a xlink:href="../../d7/dcb/structmstd_1_1function__traits.html" target="_top" xlink:title=" ">
<polygon fill="white" stroke="#666666" points="821.5,-448 716.25,-448 716.25,-416 821.5,-416 821.5,-448"/>
<text xml:space="preserve" text-anchor="start" x="724.25" y="-434.5" font-family="Helvetica,sans-Serif" font-size="10.00">mstd::function_traits</text>
<text xml:space="preserve" text-anchor="middle" x="768.88" y="-422.5" font-family="Helvetica,sans-Serif" font-size="10.00">&lt; F, C &gt;</text>
</a>
</g>
</g>
<!-- Node2&#45;&gt;Node12 -->
<g id="edge19_Node000012_Node000002" class="edge">
<title>Node2&#45;&gt;Node12</title>
<g id="a_edge19_Node000012_Node000002"><a xlink:title=" ">
<path fill="none" stroke="#63b8ff" d="M600.07,-374.17C637.76,-387.16 685.3,-403.55 720.15,-415.55"/>
<polygon fill="#63b8ff" stroke="#63b8ff" points="601.24,-370.88 590.65,-370.93 598.96,-377.49 601.24,-370.88"/>
</a>
</g>
</g>
<!-- Node3 -->
<g id="Node000003" class="node">
<title>Node3</title>
<g id="a_Node000003"><a xlink:title=" ">
<polygon fill="white" stroke="#666666" points="155.5,-301 0,-301 0,-269 155.5,-269 155.5,-301"/>
<text xml:space="preserve" text-anchor="start" x="8" y="-287.5" font-family="Helvetica,sans-Serif" font-size="10.00">static _MSTD_CONSTEXPR17</text>
<text xml:space="preserve" text-anchor="middle" x="77.75" y="-275.5" font-family="Helvetica,sans-Serif" font-size="10.00"> const bool</text>
</a>
</g>
</g>
<!-- Node3&#45;&gt;Node2 -->
<g id="edge2_Node000002_Node000003" class="edge">
<title>Node3&#45;&gt;Node2</title>
<g id="a_edge2_Node000002_Node000003"><a xlink:title=" ">
<path fill="none" stroke="#9a32cd" stroke-dasharray="5,2" d="M98.23,-309.96C115.54,-329.93 142.79,-356.45 173.5,-368 279.07,-407.7 414.25,-384.65 486.22,-367.12"/>
<polygon fill="#9a32cd" stroke="#9a32cd" points="101.08,-307.9 91.98,-302.48 95.71,-312.39 101.08,-307.9"/>
</a>
</g>
<text xml:space="preserve" text-anchor="start" x="286.5" y="-555.38" font-family="Helvetica,sans-Serif" font-size="10.00" fill="grey">is_const</text>
<text xml:space="preserve" text-anchor="start" x="286.5" y="-539.38" font-family="Helvetica,sans-Serif" font-size="10.00" fill="grey">is_free</text>
<text xml:space="preserve" text-anchor="start" x="286.5" y="-523.38" font-family="Helvetica,sans-Serif" font-size="10.00" fill="grey">is_functor</text>
<text xml:space="preserve" text-anchor="start" x="286.5" y="-507.38" font-family="Helvetica,sans-Serif" font-size="10.00" fill="grey">is_member</text>
<text xml:space="preserve" text-anchor="start" x="286.5" y="-491.38" font-family="Helvetica,sans-Serif" font-size="10.00" fill="grey">is_moved</text>
<text xml:space="preserve" text-anchor="start" x="286.5" y="-475.38" font-family="Helvetica,sans-Serif" font-size="10.00" fill="grey">is_noexcept</text>
<text xml:space="preserve" text-anchor="start" x="286.5" y="-459.38" font-family="Helvetica,sans-Serif" font-size="10.00" fill="grey">is_parent_moved</text>
<text xml:space="preserve" text-anchor="start" x="286.5" y="-443.38" font-family="Helvetica,sans-Serif" font-size="10.00" fill="grey">is_parent_ref</text>
<text xml:space="preserve" text-anchor="start" x="286.5" y="-427.38" font-family="Helvetica,sans-Serif" font-size="10.00" fill="grey">is_ptr</text>
<text xml:space="preserve" text-anchor="start" x="286.5" y="-411.38" font-family="Helvetica,sans-Serif" font-size="10.00" fill="grey">is_ref</text>
<text xml:space="preserve" text-anchor="start" x="286.5" y="-395.38" font-family="Helvetica,sans-Serif" font-size="10.00" fill="grey"> &#160;...</text>
</g>
<!-- Node4 -->
<g id="Node000004" class="node">
<title>Node4</title>
<g id="a_Node000004"><a xlink:href="../../d0/d74/structmstd_1_1utils_1_1function__default__type__traits.html" target="_top" xlink:title=" ">
<polygon fill="white" stroke="#666666" points="374.75,-346 272.5,-346 272.5,-302 374.75,-302 374.75,-346"/>
<text xml:space="preserve" text-anchor="start" x="280.5" y="-332.5" font-family="Helvetica,sans-Serif" font-size="10.00">mstd::utils::function</text>
<text xml:space="preserve" text-anchor="start" x="280.5" y="-320.5" font-family="Helvetica,sans-Serif" font-size="10.00">_default_type_traits</text>
<text xml:space="preserve" text-anchor="middle" x="323.62" y="-308.5" font-family="Helvetica,sans-Serif" font-size="10.00">&lt; IsMember &gt;</text>
</a>
</g>
</g>
<!-- Node3&#45;&gt;Node4 -->
<g id="edge4_Node000004_Node000003" class="edge">
<title>Node3&#45;&gt;Node4</title>
<g id="a_edge4_Node000004_Node000003"><a xlink:title=" ">
<path fill="none" stroke="#9a32cd" stroke-dasharray="5,2" d="M95.26,-259.49C111.87,-236.42 139.8,-203.98 173.5,-190 206.44,-176.33 226.35,-167.17 253.75,-190 287.77,-218.34 247.92,-250.68 271.75,-288 275.01,-293.11 279.28,-297.7 283.96,-301.77"/>
<polygon fill="#9a32cd" stroke="#9a32cd" points="92.55,-257.27 89.72,-267.48 98.3,-261.26 92.55,-257.27"/>
</a>
</g>
<text xml:space="preserve" text-anchor="start" x="176.5" y="-355.5" font-family="Helvetica,sans-Serif" font-size="10.00" fill="grey">is_const</text>
<text xml:space="preserve" text-anchor="start" x="176.5" y="-339.5" font-family="Helvetica,sans-Serif" font-size="10.00" fill="grey">is_free</text>
<text xml:space="preserve" text-anchor="start" x="176.5" y="-323.5" font-family="Helvetica,sans-Serif" font-size="10.00" fill="grey">is_functor</text>
<text xml:space="preserve" text-anchor="start" x="176.5" y="-307.5" font-family="Helvetica,sans-Serif" font-size="10.00" fill="grey">is_member</text>
<text xml:space="preserve" text-anchor="start" x="176.5" y="-291.5" font-family="Helvetica,sans-Serif" font-size="10.00" fill="grey">is_moved</text>
<text xml:space="preserve" text-anchor="start" x="176.5" y="-275.5" font-family="Helvetica,sans-Serif" font-size="10.00" fill="grey">is_noexcept</text>
<text xml:space="preserve" text-anchor="start" x="176.5" y="-259.5" font-family="Helvetica,sans-Serif" font-size="10.00" fill="grey">is_parent_moved</text>
<text xml:space="preserve" text-anchor="start" x="176.5" y="-243.5" font-family="Helvetica,sans-Serif" font-size="10.00" fill="grey">is_parent_ref</text>
<text xml:space="preserve" text-anchor="start" x="176.5" y="-227.5" font-family="Helvetica,sans-Serif" font-size="10.00" fill="grey">is_ptr</text>
<text xml:space="preserve" text-anchor="start" x="176.5" y="-211.5" font-family="Helvetica,sans-Serif" font-size="10.00" fill="grey">is_ref</text>
<text xml:space="preserve" text-anchor="start" x="176.5" y="-195.5" font-family="Helvetica,sans-Serif" font-size="10.00" fill="grey"> &#160;...</text>
</g>
<!-- Node3&#45;&gt;Node5 -->
<g id="edge23_Node000005_Node000003" class="edge">
<title>Node3&#45;&gt;Node5</title>
<g id="a_edge23_Node000005_Node000003"><a xlink:title=" ">
<path fill="none" stroke="#9a32cd" stroke-dasharray="5,2" d="M82.93,-312.42C91.74,-362.19 116.32,-468.58 173.5,-537 223,-596.22 245.44,-626 322.62,-626 322.62,-626 322.62,-626 1280.38,-626 1367.23,-626 1417.08,-505.94 1432.59,-461.38"/>
<polygon fill="#9a32cd" stroke="#9a32cd" points="86.43,-312.09 81.32,-302.81 79.52,-313.25 86.43,-312.09"/>
</a>
</g>
<text xml:space="preserve" text-anchor="start" x="742.62" y="-631.5" font-family="Helvetica,sans-Serif" font-size="10.00" fill="grey">is_noexcept</text>
</g>
<!-- Node3&#45;&gt;Node6 -->
<g id="edge21_Node000006_Node000003" class="edge">
<title>Node3&#45;&gt;Node6</title>
<g id="a_edge21_Node000006_Node000003"><a xlink:title=" ">
<path fill="none" stroke="#9a32cd" stroke-dasharray="5,2" d="M87.16,-258.14C111.24,-187.15 187.53,0 322.62,0 322.62,0 322.62,0 1009.38,0 1153.89,0 1247.35,-196.52 1271.91,-254.86"/>
<polygon fill="#9a32cd" stroke="#9a32cd" points="83.91,-256.83 84.1,-267.42 90.55,-259.02 83.91,-256.83"/>
</a>
</g>
<text xml:space="preserve" text-anchor="start" x="621" y="-5.5" font-family="Helvetica,sans-Serif" font-size="10.00" fill="grey">is_parent_ref</text>
</g>
<!-- Node11 -->
<g id="Node000011" class="node">
<title>Node11</title>
<g id="a_Node000011"><a xlink:href="../../d0/d74/structmstd_1_1utils_1_1function__default__type__traits.html" target="_top" xlink:title=" ">
<polygon fill="white" stroke="#666666" points="588.75,-261 486.5,-261 486.5,-217 588.75,-217 588.75,-261"/>
<text xml:space="preserve" text-anchor="start" x="494.5" y="-247.5" font-family="Helvetica,sans-Serif" font-size="10.00">mstd::utils::function</text>
<text xml:space="preserve" text-anchor="start" x="494.5" y="-235.5" font-family="Helvetica,sans-Serif" font-size="10.00">_default_type_traits</text>
<text xml:space="preserve" text-anchor="middle" x="537.62" y="-223.5" font-family="Helvetica,sans-Serif" font-size="10.00">&lt; true &gt;</text>
</a>
</g>
</g>
<!-- Node3&#45;&gt;Node11 -->
<g id="edge16_Node000011_Node000003" class="edge">
<title>Node3&#45;&gt;Node11</title>
<g id="a_edge16_Node000011_Node000003"><a xlink:title=" ">
<path fill="none" stroke="#9a32cd" stroke-dasharray="5,2" d="M95.68,-259.34C125.3,-217.41 191.12,-136.7 271.75,-115 316.28,-103.02 331.85,-100.15 375.5,-115 434.65,-135.12 489.03,-186.7 516.96,-216.61"/>
<polygon fill="#9a32cd" stroke="#9a32cd" points="92.93,-257.16 90.12,-267.38 98.69,-261.14 92.93,-257.16"/>
</a>
</g>
<text xml:space="preserve" text-anchor="start" x="286.5" y="-280.5" font-family="Helvetica,sans-Serif" font-size="10.00" fill="grey">is_const</text>
<text xml:space="preserve" text-anchor="start" x="286.5" y="-264.5" font-family="Helvetica,sans-Serif" font-size="10.00" fill="grey">is_free</text>
<text xml:space="preserve" text-anchor="start" x="286.5" y="-248.5" font-family="Helvetica,sans-Serif" font-size="10.00" fill="grey">is_functor</text>
<text xml:space="preserve" text-anchor="start" x="286.5" y="-232.5" font-family="Helvetica,sans-Serif" font-size="10.00" fill="grey">is_member</text>
<text xml:space="preserve" text-anchor="start" x="286.5" y="-216.5" font-family="Helvetica,sans-Serif" font-size="10.00" fill="grey">is_moved</text>
<text xml:space="preserve" text-anchor="start" x="286.5" y="-200.5" font-family="Helvetica,sans-Serif" font-size="10.00" fill="grey">is_noexcept</text>
<text xml:space="preserve" text-anchor="start" x="286.5" y="-184.5" font-family="Helvetica,sans-Serif" font-size="10.00" fill="grey">is_parent_moved</text>
<text xml:space="preserve" text-anchor="start" x="286.5" y="-168.5" font-family="Helvetica,sans-Serif" font-size="10.00" fill="grey">is_parent_ref</text>
<text xml:space="preserve" text-anchor="start" x="286.5" y="-152.5" font-family="Helvetica,sans-Serif" font-size="10.00" fill="grey">is_ptr</text>
<text xml:space="preserve" text-anchor="start" x="286.5" y="-136.5" font-family="Helvetica,sans-Serif" font-size="10.00" fill="grey">is_ref</text>
<text xml:space="preserve" text-anchor="start" x="286.5" y="-120.5" font-family="Helvetica,sans-Serif" font-size="10.00" fill="grey"> &#160;...</text>
</g>
<!-- Node3&#45;&gt;Node12 -->
<g id="edge20_Node000012_Node000003" class="edge">
<title>Node3&#45;&gt;Node12</title>
<g id="a_edge20_Node000012_Node000003"><a xlink:title=" ">
<path fill="none" stroke="#9a32cd" stroke-dasharray="5,2" d="M87.3,-312.37C107.76,-372.58 165.92,-515.64 271.75,-572 354.59,-616.12 634.74,-493.96 733.26,-448.38"/>
<polygon fill="#9a32cd" stroke="#9a32cd" points="90.63,-311.32 84.18,-302.92 83.99,-313.51 90.63,-311.32"/>
</a>
</g>
<text xml:space="preserve" text-anchor="start" x="410.75" y="-577.85" font-family="Helvetica,sans-Serif" font-size="10.00" fill="grey">is_free</text>
</g>
<!-- Node4&#45;&gt;Node2 -->
<g id="edge3_Node000002_Node000004" class="edge">
<title>Node4&#45;&gt;Node2</title>
<g id="a_edge3_Node000002_Node000004"><a xlink:title=" ">
<path fill="none" stroke="orange" stroke-dasharray="5,2" d="M386.49,-332.46C418.17,-336.8 456.25,-342.01 486.14,-346.09"/>
<polygon fill="orange" stroke="orange" points="387.02,-329 376.63,-331.11 386.07,-335.94 387.02,-329"/>
</a>
</g>
<text xml:space="preserve" text-anchor="start" x="405.88" y="-347.45" font-family="Helvetica,sans-Serif" font-size="10.00" fill="grey">&lt; false &gt;</text>
</g>
<!-- Node4&#45;&gt;Node11 -->
<g id="edge17_Node000011_Node000004" class="edge">
<title>Node4&#45;&gt;Node11</title>
<g id="a_edge17_Node000011_Node000004"><a xlink:title=" ">
<path fill="none" stroke="orange" stroke-dasharray="5,2" d="M385.66,-299.53C417.5,-286.76 455.99,-271.33 486.14,-259.24"/>
<polygon fill="orange" stroke="orange" points="384.52,-296.21 376.54,-303.19 387.12,-302.71 384.52,-296.21"/>
</a>
</g>
<text xml:space="preserve" text-anchor="start" x="408.12" y="-299.58" font-family="Helvetica,sans-Serif" font-size="10.00" fill="grey">&lt; true &gt;</text>
</g>
<!-- Node5&#45;&gt;Node1 -->
<g id="edge5_Node000001_Node000005" class="edge">
<title>Node5&#45;&gt;Node1</title>
<g id="a_edge5_Node000001_Node000005"><a xlink:title=" ">
<path fill="none" stroke="#63b8ff" d="M1515.27,-464.31C1528.59,-467.72 1542.34,-471.24 1555.31,-474.56"/>
<polygon fill="#63b8ff" stroke="#63b8ff" points="1516.24,-460.94 1505.68,-461.85 1514.5,-467.72 1516.24,-460.94"/>
</a>
</g>
</g>
<!-- Node6&#45;&gt;Node5 -->
<g id="edge7_Node000005_Node000006" class="edge">
<title>Node6&#45;&gt;Node5</title>
<g id="a_edge7_Node000005_Node000006"><a xlink:title=" ">
<path fill="none" stroke="#63b8ff" d="M1340.1,-292.99C1343.96,-295.42 1347.64,-298.09 1351,-301 1393.12,-337.55 1420.75,-399.72 1432.06,-428.93"/>
<polygon fill="#63b8ff" stroke="#63b8ff" points="1341.95,-290.02 1331.52,-288.17 1338.52,-296.12 1341.95,-290.02"/>
</a>
</g>
</g>
<!-- Node7&#45;&gt;Node6 -->
<g id="edge9_Node000006_Node000007" class="edge">
<title>Node7&#45;&gt;Node6</title>
<g id="a_edge9_Node000006_Node000007"><a xlink:title=" ">
<path fill="none" stroke="#63b8ff" d="M1072.5,-271C1119.44,-271 1182.71,-271 1226.67,-271"/>
<polygon fill="#63b8ff" stroke="#63b8ff" points="1072.75,-267.5 1062.75,-271 1072.75,-274.5 1072.75,-267.5"/>
</a>
</g>
</g>
<!-- Node8 -->
<g id="Node000008" class="node">
<title>Node8</title>
<g id="a_Node000008"><a xlink:href="../../d1/d4f/structmstd_1_1utils_1_1function__core__traits_3_01_r_07_args_8_8_8_08_00_01_c_01_4.html" target="_top" xlink:title=" ">
<polygon fill="white" stroke="#666666" points="839.5,-112 698.25,-112 698.25,-80 839.5,-80 839.5,-112"/>
<text xml:space="preserve" text-anchor="start" x="706.25" y="-98.5" font-family="Helvetica,sans-Serif" font-size="10.00">mstd::utils::function</text>
<text xml:space="preserve" text-anchor="middle" x="768.88" y="-86.5" font-family="Helvetica,sans-Serif" font-size="10.00">_core_traits&lt; R(Args...), C &gt;</text>
</a>
</g>
</g>
<!-- Node8&#45;&gt;Node7 -->
<g id="edge11_Node000007_Node000008" class="edge">
<title>Node8&#45;&gt;Node7</title>
<g id="a_edge11_Node000007_Node000008"><a xlink:title=" ">
<path fill="none" stroke="#63b8ff" d="M801.37,-119.21C850.19,-155.18 942.9,-223.49 985.26,-254.71"/>
<polygon fill="#63b8ff" stroke="#63b8ff" points="803.56,-116.48 793.44,-113.36 799.41,-122.11 803.56,-116.48"/>
</a>
</g>
</g>
<!-- Node9 -->
<g id="Node000009" class="node">
<title>Node9</title>
<g id="a_Node000009"><a xlink:href="../../df/db9/structmstd_1_1utils_1_1function__core__traits.html" target="_top" xlink:title=" ">
<polygon fill="white" stroke="#666666" points="600,-60 475.25,-60 475.25,-28 600,-28 600,-60"/>
<text xml:space="preserve" text-anchor="start" x="483.25" y="-46.5" font-family="Helvetica,sans-Serif" font-size="10.00">mstd::utils::function</text>
<text xml:space="preserve" text-anchor="middle" x="537.62" y="-34.5" font-family="Helvetica,sans-Serif" font-size="10.00">_core_traits&lt; R(Args...)&gt;</text>
</a>
</g>
</g>
<!-- Node9&#45;&gt;Node8 -->
<g id="edge12_Node000008_Node000009" class="edge">
<title>Node9&#45;&gt;Node8</title>
<g id="a_edge12_Node000008_Node000009"><a xlink:title=" ">
<path fill="none" stroke="#63b8ff" d="M611.55,-60.54C639.19,-66.81 670.57,-73.93 697.93,-80.13"/>
<polygon fill="#63b8ff" stroke="#63b8ff" points="612.36,-57.14 601.84,-58.34 610.82,-63.96 612.36,-57.14"/>
</a>
</g>
</g>
<!-- Node10 -->
<g id="Node000010" class="node">
<title>Node10</title>
<g id="a_Node000010"><a xlink:href="../../df/db9/structmstd_1_1utils_1_1function__core__traits.html" target="_top" xlink:title=" ">
<polygon fill="white" stroke="#666666" points="375.5,-65 271.75,-65 271.75,-33 375.5,-33 375.5,-65"/>
<text xml:space="preserve" text-anchor="start" x="279.75" y="-51.5" font-family="Helvetica,sans-Serif" font-size="10.00">mstd::utils::function</text>
<text xml:space="preserve" text-anchor="middle" x="323.62" y="-39.5" font-family="Helvetica,sans-Serif" font-size="10.00">_core_traits&lt; F, C &gt;</text>
</a>
</g>
</g>
<!-- Node10&#45;&gt;Node8 -->
<g id="edge14_Node000008_Node000010" class="edge">
<title>Node10&#45;&gt;Node8</title>
<g id="a_edge14_Node000008_Node000010"><a xlink:title=" ">
<path fill="none" stroke="orange" stroke-dasharray="5,2" d="M386.95,-67.72C389.15,-68.18 391.34,-68.61 393.5,-69 498.53,-87.82 622.37,-93.61 697.99,-95.34"/>
<polygon fill="orange" stroke="orange" points="387.88,-64.34 377.34,-65.5 386.3,-71.16 387.88,-64.34"/>
</a>
</g>
<text xml:space="preserve" text-anchor="start" x="500.5" y="-96.71" font-family="Helvetica,sans-Serif" font-size="10.00" fill="grey">&lt; R(Args...), C &gt;</text>
</g>
<!-- Node10&#45;&gt;Node9 -->
<g id="edge13_Node000009_Node000010" class="edge">
<title>Node10&#45;&gt;Node9</title>
<g id="a_edge13_Node000009_Node000010"><a xlink:title=" ">
<path fill="none" stroke="orange" stroke-dasharray="5,2" d="M387.09,-47.53C414.76,-46.87 447.23,-46.11 474.83,-45.46"/>
<polygon fill="orange" stroke="orange" points="387.37,-44.02 377.46,-47.75 387.54,-51.02 387.37,-44.02"/>
</a>
</g>
<text xml:space="preserve" text-anchor="start" x="396.5" y="-52.74" font-family="Helvetica,sans-Serif" font-size="10.00" fill="grey">&lt; R(Args...)&gt;</text>
</g>
<!-- Node11&#45;&gt;Node7 -->
<g id="edge15_Node000007_Node000011" class="edge">
<title>Node11&#45;&gt;Node7</title>
<g id="a_edge15_Node000007_Node000011"><a xlink:title=" ">
<path fill="none" stroke="#63b8ff" d="M600.22,-241.66C678.69,-245.3 818.45,-252.57 937.75,-263 943.45,-263.5 949.4,-264.08 955.32,-264.71"/>
<polygon fill="#63b8ff" stroke="#63b8ff" points="600.76,-238.18 590.61,-241.22 600.44,-245.18 600.76,-238.18"/>
</a>
</g>
</g>
<!-- Node12&#45;&gt;Node1 -->
<g id="edge25_Node000001_Node000012" class="edge">
<title>Node12&#45;&gt;Node1</title>
<g id="a_edge25_Node000001_Node000012"><a xlink:title=" ">
<path fill="none" stroke="orange" stroke-dasharray="5,2" d="M820.92,-452.33C868.41,-469.39 941.55,-491 1007.38,-491 1007.38,-491 1007.38,-491 1439.88,-491 1474.65,-491 1513.2,-491 1545.65,-491"/>
<polygon fill="orange" stroke="orange" points="822.32,-449.11 811.73,-448.96 819.91,-455.68 822.32,-449.11"/>
</a>
</g>
<text xml:space="preserve" text-anchor="start" x="1241.88" y="-512.5" font-family="Helvetica,sans-Serif" font-size="10.00" fill="grey">&lt; R(C::*)(Args...)</text>
<text xml:space="preserve" text-anchor="start" x="1241.88" y="-496.5" font-family="Helvetica,sans-Serif" font-size="10.00" fill="grey">   &amp;noexcept &gt;</text>
</g>
<!-- Node12&#45;&gt;Node5 -->
<g id="edge24_Node000005_Node000012" class="edge">
<title>Node12&#45;&gt;Node5</title>
<g id="a_edge24_Node000005_Node000012"><a xlink:title=" ">
<path fill="none" stroke="orange" stroke-dasharray="5,2" d="M833.03,-433.23C958.52,-435.67 1238.38,-441.12 1368.67,-443.65"/>
<polygon fill="orange" stroke="orange" points="833.32,-429.73 823.25,-433.04 833.18,-436.73 833.32,-429.73"/>
</a>
</g>
<text xml:space="preserve" text-anchor="start" x="1082" y="-446" font-family="Helvetica,sans-Serif" font-size="10.00" fill="grey">&lt; R(Args...) &amp;noexcept, C &gt;</text>
</g>
<!-- Node12&#45;&gt;Node6 -->
<g id="edge22_Node000006_Node000012" class="edge">
<title>Node12&#45;&gt;Node6</title>
<g id="a_edge22_Node000006_Node000012"><a xlink:title=" ">
<path fill="none" stroke="orange" stroke-dasharray="5,2" d="M833.11,-425.37C946.88,-413.06 1177.19,-386.14 1208.75,-367 1239.91,-348.1 1261.26,-309.44 1271.48,-287.39"/>
<polygon fill="orange" stroke="orange" points="832.89,-421.88 823.32,-426.43 833.64,-428.84 832.89,-421.88"/>
</a>
</g>
<text xml:space="preserve" text-anchor="start" x="966.38" y="-416.31" font-family="Helvetica,sans-Serif" font-size="10.00" fill="grey">&lt; R(Args...) &amp;, C &gt;</text>
</g>
<!-- Node12&#45;&gt;Node7 -->
<g id="edge18_Node000007_Node000012" class="edge">
<title>Node12&#45;&gt;Node7</title>
<g id="a_edge18_Node000007_Node000012"><a xlink:title=" ">
<path fill="none" stroke="orange" stroke-dasharray="5,2" d="M803.38,-409.28C851.91,-376.39 940.6,-316.27 983.23,-287.37"/>
<polygon fill="orange" stroke="orange" points="801.52,-406.32 795.21,-414.83 805.45,-412.11 801.52,-406.32"/>
</a>
</g>
<text xml:space="preserve" text-anchor="start" x="860.5" y="-376.16" font-family="Helvetica,sans-Serif" font-size="10.00" fill="grey">&lt; R(Args...), C &gt;</text>
</g>
</g>
</svg>
