<?xml version="1.0" encoding="UTF-8" standalone="no"?>
<!DOCTYPE svg PUBLIC "-//W3C//DTD SVG 1.1//EN"
 "http://www.w3.org/Graphics/SVG/1.1/DTD/svg11.dtd">
<!-- Generated by graphviz version 14.1.1 (20251213.1925)
 -->
<!-- Title: mstd::function_traits&lt; R(C::*)(Args...) const volatile &amp;&amp;noexcept &gt; Pages: 1 -->
<!--zoomable 478 -->

<svg id="main" version="1.1" xmlns="http://www.w3.org/2000/svg" xmlns:xlink="http://www.w3.org/1999/xlink" xml:space="preserve" onload="init(evt)">

<style type="text/css"><![CDATA[
.node, .edge {opacity: 0.7;}
.node.selected, .edge.selected {opacity: 1;}
.edge:hover path { stroke: red; }
.edge:hover polygon { stroke: red; fill: red; }
]]></style>

<defs>
  <circle id="rim" cx="0" cy="0" r="7"/>
  <circle id="rim2" cx="0" cy="0" r="3.5"/>
  <g id="zoomPlus">
    <use xlink:href="#rim" fill="#404040"><set attributeName="fill" to="#808080" begin="zoomplus.mouseover" end="zoomplus.mouseout"/></use>
    <path d="M-4,0h8M0,-4v8" fill="none" stroke="white" stroke-width="1.5" pointer-events="none"/>
  </g>
  <g id="zoomMin">
    <use xlink:href="#rim" fill="#404040"><set attributeName="fill" to="#808080" begin="zoomminus.mouseover" end="zoomminus.mouseout"/></use>
    <path d="M-4,0h8" fill="none" stroke="white" stroke-width="1.5" pointer-events="none"/>
  </g>
  <g id="arrowUp" transform="translate(30 24)">
    <use xlink:href="#rim"/>
    <path pointer-events="none" fill="none" stroke="white" stroke-width="1.5" d="M0,-3.0v7 M-2.5,-0.5L0,-3.0L2.5,-0.5"/>
  </g>
  <g id="arrowRight" transform="rotate(90) translate(36 -43)">
    <use xlink:href="#rim"/>
    <path pointer-events="none" fill="none" stroke="white" stroke-width="1.5" d="M0,-3.0v7 M-2.5,-0.5L0,-3.0L2.5,-0.5"/>
  </g>
  <g id="arrowDown" transform="rotate(180) translate(-30 -48)">
    <use xlink:href="#rim"/>
    <path pointer-events="none" fill="none" stroke="white" stroke-width="1.5" d="M0,-3.0v7 M-2.5,-0.5L0,-3.0L2.5,-0.5"/>
  </g>
  <g id="arrowLeft" transform="rotate(270) translate(-36 17)">
    <use xlink:href="#rim"/>
    <path pointer-events="none" fill="none" stroke="white" stroke-width="1.5" d="M0,-3.0v7 M-2.5,-0.5L0,-3.0L2.5,-0.5"/>
  </g>
  <g id="resetDef">
    <use xlink:href="#rim2" fill="#404040"><set attributeName="fill" to="#808080" begin="reset.mouseover" end="reset.mouseout"/></use>
  </g>
</defs>
<script type="application/ecmascript">
var viewWidth = 1875;
var viewHeight = 478;
var sectionId = 'dynsection-0';
</script>
<script type="application/ecmascript" xlink:href="../../svg.min.js"/>
<svg id="graph" class="graph">
<g id="viewport">
<title>mstd::function_traits&lt; R(C::*)(Args...) const volatile &amp;&amp;noexcept &gt;</title>
<!-- Node1 -->
<g id="Node000001" class="node">
<title>Node1</title>
<g id="a_Node000001"><a xlink:title=" ">
<polygon fill="#999999" stroke="#666666" points="1866.75,-269 1748.75,-269 1748.75,-225 1866.75,-225 1866.75,-269"/>
<text xml:space="preserve" text-anchor="start" x="1756.75" y="-255.5" font-family="Helvetica,sans-Serif" font-size="10.00">mstd::function_traits</text>
<text xml:space="preserve" text-anchor="start" x="1756.75" y="-243.5" font-family="Helvetica,sans-Serif" font-size="10.00">&lt; R(C::*)(Args...) const</text>
<text xml:space="preserve" text-anchor="middle" x="1807.75" y="-231.5" font-family="Helvetica,sans-Serif" font-size="10.00"> volatile &amp;&amp;noexcept &gt;</text>
</a>
</g>
</g>
<!-- Node2 -->
<g id="Node000002" class="node">
<title>Node2</title>
<g id="a_Node000002"><a xlink:href="../../d0/d74/structmstd_1_1utils_1_1function__default__type__traits.html" target="_top" xlink:title=" ">
<polygon fill="white" stroke="#666666" points="317,-369 214.75,-369 214.75,-325 317,-325 317,-369"/>
<text xml:space="preserve" text-anchor="start" x="222.75" y="-355.5" font-family="Helvetica,sans-Serif" font-size="10.00">mstd::utils::function</text>
<text xml:space="preserve" text-anchor="start" x="222.75" y="-343.5" font-family="Helvetica,sans-Serif" font-size="10.00">_default_type_traits</text>
<text xml:space="preserve" text-anchor="middle" x="265.88" y="-331.5" font-family="Helvetica,sans-Serif" font-size="10.00">&lt; false &gt;</text>
</a>
</g>
</g>
<!-- Node2&#45;&gt;Node1 -->
<g id="edge1_Node000001_Node000002" class="edge">
<title>Node2&#45;&gt;Node1</title>
<g id="a_edge1_Node000001_Node000002"><a xlink:title=" ">
<path fill="none" stroke="#63b8ff" d="M292.27,-377.53C306.63,-392.97 325.78,-410.76 346.25,-422 422.54,-463.91 449.08,-470 536.12,-470 536.12,-470 536.12,-470 1648.5,-470 1746.29,-470 1789.17,-325.6 1802.19,-269.2"/>
<polygon fill="#63b8ff" stroke="#63b8ff" points="295.12,-375.47 285.82,-370.38 289.92,-380.15 295.12,-375.47"/>
</a>
</g>
</g>
<!-- Node4 -->
<g id="Node000004" class="node">
<title>Node4</title>
<g id="a_Node000004"><a xlink:href="../../df/d66/structmstd_1_1function__traits_3_01_r_07_args_8_8_8_08_01const_01volatile_01_6_6noexcept_00_01_c_01_4.html" target="_top" xlink:title=" ">
<polygon fill="white" stroke="#666666" points="1711.75,-269 1583.25,-269 1583.25,-225 1711.75,-225 1711.75,-269"/>
<text xml:space="preserve" text-anchor="start" x="1591.25" y="-255.5" font-family="Helvetica,sans-Serif" font-size="10.00">mstd::function_traits</text>
<text xml:space="preserve" text-anchor="start" x="1591.25" y="-243.5" font-family="Helvetica,sans-Serif" font-size="10.00">&lt; R(Args...) const volatile</text>
<text xml:space="preserve" text-anchor="middle" x="1647.5" y="-231.5" font-family="Helvetica,sans-Serif" font-size="10.00"> &amp;&amp;noexcept, C &gt;</text>
</a>
</g>
</g>
<!-- Node2&#45;&gt;Node4 -->
<g id="edge4_Node000004_Node000002" class="edge">
<title>Node2&#45;&gt;Node4</title>
<g id="a_edge4_Node000004_Node000002"><a xlink:title=" ">
<path fill="none" stroke="#63b8ff" d="M310.87,-375.11C322.08,-381.38 334.34,-387.49 346.25,-392 426.91,-422.52 449.88,-432 536.12,-432 536.12,-432 536.12,-432 1483,-432 1568.94,-432 1620.56,-318.52 1638.9,-269.32"/>
<polygon fill="#63b8ff" stroke="#63b8ff" points="312.63,-372.09 302.22,-370.11 309.12,-378.15 312.63,-372.09"/>
</a>
</g>
</g>
<!-- Node5 -->
<g id="Node000005" class="node">
<title>Node5</title>
<g id="a_Node000005"><a xlink:href="../../d7/d15/structmstd_1_1function__traits_3_01_r_07_args_8_8_8_08_01const_01volatile_01_6_6_00_01_c_01_4.html" target="_top" xlink:title=" ">
<polygon fill="white" stroke="#666666" points="1546.25,-269 1417.75,-269 1417.75,-225 1546.25,-225 1546.25,-269"/>
<text xml:space="preserve" text-anchor="start" x="1425.75" y="-255.5" font-family="Helvetica,sans-Serif" font-size="10.00">mstd::function_traits</text>
<text xml:space="preserve" text-anchor="start" x="1425.75" y="-243.5" font-family="Helvetica,sans-Serif" font-size="10.00">&lt; R(Args...) const volatile</text>
<text xml:space="preserve" text-anchor="middle" x="1482" y="-231.5" font-family="Helvetica,sans-Serif" font-size="10.00"> &amp;&amp;, C &gt;</text>
</a>
</g>
</g>
<!-- Node2&#45;&gt;Node5 -->
<g id="edge6_Node000005_Node000002" class="edge">
<title>Node2&#45;&gt;Node5</title>
<g id="a_edge6_Node000005_Node000002"><a xlink:title=" ">
<path fill="none" stroke="#63b8ff" d="M328.18,-363.92C382.41,-377.39 463.92,-394 536.12,-394 536.12,-394 536.12,-394 1306.25,-394 1382.77,-394 1443.23,-310.45 1468.36,-269.33"/>
<polygon fill="#63b8ff" stroke="#63b8ff" points="329.06,-360.53 318.5,-361.47 327.34,-367.32 329.06,-360.53"/>
</a>
</g>
</g>
<!-- Node6 -->
<g id="Node000006" class="node">
<title>Node6</title>
<g id="a_Node000006"><a xlink:href="../../da/d58/structmstd_1_1function__traits_3_01_r_07_args_8_8_8_08_01const_01volatile_00_01_c_01_4.html" target="_top" xlink:title=" ">
<polygon fill="white" stroke="#666666" points="1380.75,-263 1229.75,-263 1229.75,-231 1380.75,-231 1380.75,-263"/>
<text xml:space="preserve" text-anchor="start" x="1237.75" y="-249.5" font-family="Helvetica,sans-Serif" font-size="10.00">mstd::function_traits</text>
<text xml:space="preserve" text-anchor="middle" x="1305.25" y="-237.5" font-family="Helvetica,sans-Serif" font-size="10.00">&lt; R(Args...) const volatile, C &gt;</text>
</a>
</g>
</g>
<!-- Node2&#45;&gt;Node6 -->
<g id="edge8_Node000006_Node000002" class="edge">
<title>Node2&#45;&gt;Node6</title>
<g id="a_edge8_Node000006_Node000002"><a xlink:title=" ">
<path fill="none" stroke="#63b8ff" d="M328.69,-350.24C383.25,-352.82 464.95,-356 536.12,-356 536.12,-356 536.12,-356 1011.62,-356 1116.53,-356 1230.03,-293.73 1279.2,-263.32"/>
<polygon fill="#63b8ff" stroke="#63b8ff" points="329.14,-346.76 318.99,-349.77 328.81,-353.75 329.14,-346.76"/>
</a>
</g>
</g>
<!-- Node7 -->
<g id="Node000007" class="node">
<title>Node7</title>
<g id="a_Node000007"><a xlink:href="../../df/d15/structmstd_1_1function__traits_3_01_r_07_args_8_8_8_08_01const_00_01_c_01_4.html" target="_top" xlink:title=" ">
<polygon fill="white" stroke="#666666" points="1069.25,-263 952,-263 952,-231 1069.25,-231 1069.25,-263"/>
<text xml:space="preserve" text-anchor="start" x="960" y="-249.5" font-family="Helvetica,sans-Serif" font-size="10.00">mstd::function_traits</text>
<text xml:space="preserve" text-anchor="middle" x="1010.62" y="-237.5" font-family="Helvetica,sans-Serif" font-size="10.00">&lt; R(Args...) const, C &gt;</text>
</a>
</g>
</g>
<!-- Node2&#45;&gt;Node7 -->
<g id="edge10_Node000007_Node000002" class="edge">
<title>Node2&#45;&gt;Node7</title>
<g id="a_edge10_Node000007_Node000002"><a xlink:title=" ">
<path fill="none" stroke="#63b8ff" d="M328.5,-340.2C446.37,-326.94 711.82,-295.86 934,-261 939.8,-260.09 945.85,-259.08 951.88,-258.03"/>
<polygon fill="#63b8ff" stroke="#63b8ff" points="328.27,-336.7 318.73,-341.3 329.05,-343.66 328.27,-336.7"/>
</a>
</g>
</g>
<!-- Node8 -->
<g id="Node000008" class="node">
<title>Node8</title>
<g id="a_Node000008"><a xlink:href="../../dd/db6/structmstd_1_1function__traits_3_01_r_07_args_8_8_8_08_00_01_c_01_4.html" target="_top" xlink:title=" ">
<polygon fill="white" stroke="#666666" points="830.25,-263 725,-263 725,-231 830.25,-231 830.25,-263"/>
<text xml:space="preserve" text-anchor="start" x="733" y="-249.5" font-family="Helvetica,sans-Serif" font-size="10.00">mstd::function_traits</text>
<text xml:space="preserve" text-anchor="middle" x="777.62" y="-237.5" font-family="Helvetica,sans-Serif" font-size="10.00">&lt; R(Args...), C &gt;</text>
</a>
</g>
</g>
<!-- Node2&#45;&gt;Node8 -->
<g id="edge12_Node000008_Node000002" class="edge">
<title>Node2&#45;&gt;Node8</title>
<g id="a_edge12_Node000008_Node000002"><a xlink:title=" ">
<path fill="none" stroke="#63b8ff" d="M311.4,-319.2C322.45,-313.35 334.49,-307.81 346.25,-304 499.65,-254.32 546.23,-278.75 706,-257 712.01,-256.18 718.31,-255.31 724.57,-254.44"/>
<polygon fill="#63b8ff" stroke="#63b8ff" points="309.98,-315.99 302.91,-323.88 313.36,-322.12 309.98,-315.99"/>
</a>
</g>
</g>
<!-- Node13 -->
<g id="Node000013" class="node">
<title>Node13</title>
<g id="a_Node000013"><a xlink:href="../../d7/dcb/structmstd_1_1function__traits.html" target="_top" xlink:title=" ">
<polygon fill="white" stroke="#666666" points="589.75,-155 484.5,-155 484.5,-123 589.75,-123 589.75,-155"/>
<text xml:space="preserve" text-anchor="start" x="492.5" y="-141.5" font-family="Helvetica,sans-Serif" font-size="10.00">mstd::function_traits</text>
<text xml:space="preserve" text-anchor="middle" x="537.12" y="-129.5" font-family="Helvetica,sans-Serif" font-size="10.00">&lt; F, C &gt;</text>
</a>
</g>
</g>
<!-- Node2&#45;&gt;Node13 -->
<g id="edge20_Node000013_Node000002" class="edge">
<title>Node2&#45;&gt;Node13</title>
<g id="a_edge20_Node000013_Node000002"><a xlink:title=" ">
<path fill="none" stroke="#63b8ff" d="M320.28,-317.06C323.29,-313.97 326,-310.61 328.25,-307 345.77,-278.88 322.64,-182.24 346.25,-159 381.81,-124.01 441.18,-123.25 484.08,-128.56"/>
<polygon fill="#63b8ff" stroke="#63b8ff" points="317.99,-314.41 312.84,-323.67 322.64,-319.65 317.99,-314.41"/>
</a>
</g>
</g>
<!-- Node3 -->
<g id="Node000003" class="node">
<title>Node3</title>
<g id="a_Node000003"><a xlink:href="../../d0/d74/structmstd_1_1utils_1_1function__default__type__traits.html" target="_top" xlink:title=" ">
<polygon fill="white" stroke="#666666" points="103,-340 0.75,-340 0.75,-296 103,-296 103,-340"/>
<text xml:space="preserve" text-anchor="start" x="8.75" y="-326.5" font-family="Helvetica,sans-Serif" font-size="10.00">mstd::utils::function</text>
<text xml:space="preserve" text-anchor="start" x="8.75" y="-314.5" font-family="Helvetica,sans-Serif" font-size="10.00">_default_type_traits</text>
<text xml:space="preserve" text-anchor="middle" x="51.88" y="-302.5" font-family="Helvetica,sans-Serif" font-size="10.00">&lt; IsMember &gt;</text>
</a>
</g>
</g>
<!-- Node3&#45;&gt;Node2 -->
<g id="edge2_Node000002_Node000003" class="edge">
<title>Node3&#45;&gt;Node2</title>
<g id="a_edge2_Node000002_Node000003"><a xlink:title=" ">
<path fill="none" stroke="orange" stroke-dasharray="5,2" d="M114.74,-326.46C146.42,-330.8 184.5,-336.01 214.39,-340.09"/>
<polygon fill="orange" stroke="orange" points="115.27,-323 104.88,-325.11 114.32,-329.94 115.27,-323"/>
</a>
</g>
<text xml:space="preserve" text-anchor="start" x="134.12" y="-341.45" font-family="Helvetica,sans-Serif" font-size="10.00" fill="grey">&lt; false &gt;</text>
</g>
<!-- Node12 -->
<g id="Node000012" class="node">
<title>Node12</title>
<g id="a_Node000012"><a xlink:href="../../d0/d74/structmstd_1_1utils_1_1function__default__type__traits.html" target="_top" xlink:title=" ">
<polygon fill="white" stroke="#666666" points="448.5,-210 346.25,-210 346.25,-166 448.5,-166 448.5,-210"/>
<text xml:space="preserve" text-anchor="start" x="354.25" y="-196.5" font-family="Helvetica,sans-Serif" font-size="10.00">mstd::utils::function</text>
<text xml:space="preserve" text-anchor="start" x="354.25" y="-184.5" font-family="Helvetica,sans-Serif" font-size="10.00">_default_type_traits</text>
<text xml:space="preserve" text-anchor="middle" x="397.38" y="-172.5" font-family="Helvetica,sans-Serif" font-size="10.00">&lt; true &gt;</text>
</a>
</g>
</g>
<!-- Node3&#45;&gt;Node12 -->
<g id="edge18_Node000012_Node000003" class="edge">
<title>Node3&#45;&gt;Node12</title>
<g id="a_edge18_Node000012_Node000003"><a xlink:title=" ">
<path fill="none" stroke="orange" stroke-dasharray="5,2" d="M85.45,-287.47C91.88,-280.71 98.31,-273.35 103.75,-266 113.69,-252.57 108.8,-243.56 121.75,-233 185.4,-181.09 285.62,-178.28 345.77,-182.25"/>
<polygon fill="orange" stroke="orange" points="82.95,-285.02 78.44,-294.61 87.95,-289.93 82.95,-285.02"/>
</a>
</g>
<text xml:space="preserve" text-anchor="start" x="136.38" y="-238.5" font-family="Helvetica,sans-Serif" font-size="10.00" fill="grey">&lt; true &gt;</text>
</g>
<!-- Node4&#45;&gt;Node1 -->
<g id="edge3_Node000001_Node000004" class="edge">
<title>Node4&#45;&gt;Node1</title>
<g id="a_edge3_Node000001_Node000004"><a xlink:title=" ">
<path fill="none" stroke="#63b8ff" d="M1723.35,-247C1731.77,-247 1740.25,-247 1748.41,-247"/>
<polygon fill="#63b8ff" stroke="#63b8ff" points="1723.47,-243.5 1713.47,-247 1723.47,-250.5 1723.47,-243.5"/>
</a>
</g>
</g>
<!-- Node5&#45;&gt;Node4 -->
<g id="edge5_Node000004_Node000005" class="edge">
<title>Node5&#45;&gt;Node4</title>
<g id="a_edge5_Node000004_Node000005"><a xlink:title=" ">
<path fill="none" stroke="#63b8ff" d="M1557.99,-247C1566.34,-247 1574.8,-247 1582.99,-247"/>
<polygon fill="#63b8ff" stroke="#63b8ff" points="1558.2,-243.5 1548.2,-247 1558.2,-250.5 1558.2,-243.5"/>
</a>
</g>
</g>
<!-- Node6&#45;&gt;Node5 -->
<g id="edge7_Node000005_Node000006" class="edge">
<title>Node6&#45;&gt;Node5</title>
<g id="a_edge7_Node000005_Node000006"><a xlink:title=" ">
<path fill="none" stroke="#63b8ff" d="M1392.48,-247C1400.83,-247 1409.2,-247 1417.28,-247"/>
<polygon fill="#63b8ff" stroke="#63b8ff" points="1392.63,-243.5 1382.63,-247 1392.63,-250.5 1392.63,-243.5"/>
</a>
</g>
</g>
<!-- Node7&#45;&gt;Node6 -->
<g id="edge9_Node000006_Node000007" class="edge">
<title>Node7&#45;&gt;Node6</title>
<g id="a_edge9_Node000006_Node000007"><a xlink:title=" ">
<path fill="none" stroke="#63b8ff" d="M1080.78,-247C1125.45,-247 1183.57,-247 1229.33,-247"/>
<polygon fill="#63b8ff" stroke="#63b8ff" points="1080.95,-243.5 1070.95,-247 1080.95,-250.5 1080.95,-243.5"/>
</a>
</g>
</g>
<!-- Node8&#45;&gt;Node7 -->
<g id="edge11_Node000007_Node000008" class="edge">
<title>Node8&#45;&gt;Node7</title>
<g id="a_edge11_Node000007_Node000008"><a xlink:title=" ">
<path fill="none" stroke="#63b8ff" d="M841.8,-247C876.17,-247 918.38,-247 951.87,-247"/>
<polygon fill="#63b8ff" stroke="#63b8ff" points="841.98,-243.5 831.98,-247 841.98,-250.5 841.98,-243.5"/>
</a>
</g>
</g>
<!-- Node9 -->
<g id="Node000009" class="node">
<title>Node9</title>
<g id="a_Node000009"><a xlink:href="../../d1/d4f/structmstd_1_1utils_1_1function__core__traits_3_01_r_07_args_8_8_8_08_00_01_c_01_4.html" target="_top" xlink:title=" ">
<polygon fill="white" stroke="#666666" points="607.75,-252 466.5,-252 466.5,-220 607.75,-220 607.75,-252"/>
<text xml:space="preserve" text-anchor="start" x="474.5" y="-238.5" font-family="Helvetica,sans-Serif" font-size="10.00">mstd::utils::function</text>
<text xml:space="preserve" text-anchor="middle" x="537.12" y="-226.5" font-family="Helvetica,sans-Serif" font-size="10.00">_core_traits&lt; R(Args...), C &gt;</text>
</a>
</g>
</g>
<!-- Node9&#45;&gt;Node8 -->
<g id="edge13_Node000008_Node000009" class="edge">
<title>Node9&#45;&gt;Node8</title>
<g id="a_edge13_Node000008_Node000009"><a xlink:title=" ">
<path fill="none" stroke="#63b8ff" d="M619.44,-240.69C621.57,-240.8 623.67,-240.9 625.75,-241 658.61,-242.59 695.51,-244.06 724.6,-245.15"/>
<polygon fill="#63b8ff" stroke="#63b8ff" points="619.63,-237.19 609.46,-240.17 619.27,-244.18 619.63,-237.19"/>
</a>
</g>
</g>
<!-- Node10 -->
<g id="Node000010" class="node">
<title>Node10</title>
<g id="a_Node000010"><a xlink:href="../../df/db9/structmstd_1_1utils_1_1function__core__traits.html" target="_top" xlink:title=" ">
<polygon fill="white" stroke="#666666" points="328.25,-298 203.5,-298 203.5,-266 328.25,-266 328.25,-298"/>
<text xml:space="preserve" text-anchor="start" x="211.5" y="-284.5" font-family="Helvetica,sans-Serif" font-size="10.00">mstd::utils::function</text>
<text xml:space="preserve" text-anchor="middle" x="265.88" y="-272.5" font-family="Helvetica,sans-Serif" font-size="10.00">_core_traits&lt; R(Args...)&gt;</text>
</a>
</g>
</g>
<!-- Node10&#45;&gt;Node9 -->
<g id="edge14_Node000009_Node000010" class="edge">
<title>Node10&#45;&gt;Node9</title>
<g id="a_edge14_Node000009_Node000010"><a xlink:title=" ">
<path fill="none" stroke="#63b8ff" d="M339.99,-269.51C379.22,-262.81 427.34,-254.59 466.1,-247.96"/>
<polygon fill="#63b8ff" stroke="#63b8ff" points="339.41,-266.06 330.14,-271.19 340.58,-272.96 339.41,-266.06"/>
</a>
</g>
</g>
<!-- Node11 -->
<g id="Node000011" class="node">
<title>Node11</title>
<g id="a_Node000011"><a xlink:href="../../df/db9/structmstd_1_1utils_1_1function__core__traits.html" target="_top" xlink:title=" ">
<polygon fill="white" stroke="#666666" points="103.75,-257 0,-257 0,-225 103.75,-225 103.75,-257"/>
<text xml:space="preserve" text-anchor="start" x="8" y="-243.5" font-family="Helvetica,sans-Serif" font-size="10.00">mstd::utils::function</text>
<text xml:space="preserve" text-anchor="middle" x="51.88" y="-231.5" font-family="Helvetica,sans-Serif" font-size="10.00">_core_traits&lt; F, C &gt;</text>
</a>
</g>
</g>
<!-- Node11&#45;&gt;Node9 -->
<g id="edge16_Node000009_Node000011" class="edge">
<title>Node11&#45;&gt;Node9</title>
<g id="a_edge16_Node000009_Node000011"><a xlink:title=" ">
<path fill="none" stroke="orange" stroke-dasharray="5,2" d="M115.39,-240.11C142.48,-239.74 174.55,-239.32 203.5,-239 294.16,-237.99 398.73,-237.09 466.04,-236.55"/>
<polygon fill="orange" stroke="orange" points="115.58,-236.61 105.63,-240.24 115.68,-243.61 115.58,-236.61"/>
</a>
</g>
<text xml:space="preserve" text-anchor="start" x="228.75" y="-244.5" font-family="Helvetica,sans-Serif" font-size="10.00" fill="grey">&lt; R(Args...), C &gt;</text>
</g>
<!-- Node11&#45;&gt;Node10 -->
<g id="edge15_Node000010_Node000011" class="edge">
<title>Node11&#45;&gt;Node10</title>
<g id="a_edge15_Node000010_Node000011"><a xlink:title=" ">
<path fill="none" stroke="orange" stroke-dasharray="5,2" d="M115.34,-253.08C143.01,-258.43 175.48,-264.71 203.08,-270.05"/>
<polygon fill="orange" stroke="orange" points="116.16,-249.67 105.68,-251.21 114.83,-256.55 116.16,-249.67"/>
</a>
</g>
<text xml:space="preserve" text-anchor="start" x="124.75" y="-271.88" font-family="Helvetica,sans-Serif" font-size="10.00" fill="grey">&lt; R(Args...)&gt;</text>
</g>
<!-- Node12&#45;&gt;Node8 -->
<g id="edge17_Node000008_Node000012" class="edge">
<title>Node12&#45;&gt;Node8</title>
<g id="a_edge17_Node000008_Node000012"><a xlink:title=" ">
<path fill="none" stroke="#63b8ff" d="M460.05,-192.14C501.96,-195.6 558.52,-201.52 607.75,-211 615.9,-212.57 617.68,-214.05 625.75,-216 658.5,-223.9 695.56,-231.54 724.76,-237.25"/>
<polygon fill="#63b8ff" stroke="#63b8ff" points="460.39,-188.66 450.14,-191.35 459.83,-195.64 460.39,-188.66"/>
</a>
</g>
</g>
<!-- Node13&#45;&gt;Node1 -->
<g id="edge25_Node000001_Node000013" class="edge">
<title>Node13&#45;&gt;Node1</title>
<g id="a_edge25_Node000001_Node000013"><a xlink:title=" ">
<path fill="none" stroke="orange" stroke-dasharray="5,2" d="M561.07,-114.32C600.82,-74.37 686.88,0 776.62,0 776.62,0 776.62,0 1648.5,0 1754.69,0 1792.88,-163.84 1803.39,-224.64"/>
<polygon fill="orange" stroke="orange" points="558.61,-111.82 554.14,-121.43 563.62,-116.71 558.61,-111.82"/>
</a>
</g>
<text xml:space="preserve" text-anchor="start" x="1239.25" y="-21.5" font-family="Helvetica,sans-Serif" font-size="10.00" fill="grey">&lt; R(C::*)(Args...)</text>
<text xml:space="preserve" text-anchor="start" x="1239.25" y="-5.5" font-family="Helvetica,sans-Serif" font-size="10.00" fill="grey">   const volatile &amp;&amp;noexcept &gt;</text>
</g>
<!-- Node13&#45;&gt;Node4 -->
<g id="edge24_Node000004_Node000013" class="edge">
<title>Node13&#45;&gt;Node4</title>
<g id="a_edge24_Node000004_Node000013"><a xlink:title=" ">
<path fill="none" stroke="orange" stroke-dasharray="5,2" d="M578.22,-117.55C624.61,-94.76 703.97,-62 776.62,-62 776.62,-62 776.62,-62 1483,-62 1568.94,-62 1620.56,-175.48 1638.9,-224.68"/>
<polygon fill="orange" stroke="orange" points="576.72,-114.38 569.35,-121.99 579.86,-120.64 576.72,-114.38"/>
</a>
</g>
<text xml:space="preserve" text-anchor="start" x="1090.25" y="-83.5" font-family="Helvetica,sans-Serif" font-size="10.00" fill="grey">&lt; R(Args...) const</text>
<text xml:space="preserve" text-anchor="start" x="1090.25" y="-67.5" font-family="Helvetica,sans-Serif" font-size="10.00" fill="grey">   volatile &amp;&amp;noexcept, C &gt;</text>
</g>
<!-- Node13&#45;&gt;Node5 -->
<g id="edge23_Node000005_Node000013" class="edge">
<title>Node13&#45;&gt;Node5</title>
<g id="a_edge23_Node000005_Node000013"><a xlink:title=" ">
<path fill="none" stroke="orange" stroke-dasharray="5,2" d="M601.46,-132.83C701.39,-124.36 901.54,-112.6 1069.25,-135 1196.1,-151.94 1339.25,-197.02 1418.93,-224.55"/>
<polygon fill="orange" stroke="orange" points="601.24,-129.33 591.58,-133.68 601.84,-136.31 601.24,-129.33"/>
</a>
</g>
<text xml:space="preserve" text-anchor="start" x="971.25" y="-156.5" font-family="Helvetica,sans-Serif" font-size="10.00" fill="grey">&lt; R(Args...) const</text>
<text xml:space="preserve" text-anchor="start" x="971.25" y="-140.5" font-family="Helvetica,sans-Serif" font-size="10.00" fill="grey">   volatile &amp;&amp;, C &gt;</text>
</g>
<!-- Node13&#45;&gt;Node6 -->
<g id="edge22_Node000006_Node000013" class="edge">
<title>Node13&#45;&gt;Node6</title>
<g id="a_edge22_Node000006_Node000013"><a xlink:title=" ">
<path fill="none" stroke="orange" stroke-dasharray="5,2" d="M601.36,-141.48C679.73,-145.11 817.24,-153.36 934,-170 1041.25,-185.29 1164.05,-212.86 1237.81,-230.52"/>
<polygon fill="orange" stroke="orange" points="601.89,-138 591.74,-141.04 601.57,-144.99 601.89,-138"/>
</a>
</g>
<text xml:space="preserve" text-anchor="start" x="852.25" y="-191.5" font-family="Helvetica,sans-Serif" font-size="10.00" fill="grey">&lt; R(Args...) const</text>
<text xml:space="preserve" text-anchor="start" x="852.25" y="-175.5" font-family="Helvetica,sans-Serif" font-size="10.00" fill="grey">   volatile, C &gt;</text>
</g>
<!-- Node13&#45;&gt;Node7 -->
<g id="edge21_Node000007_Node000013" class="edge">
<title>Node13&#45;&gt;Node7</title>
<g id="a_edge21_Node000007_Node000013"><a xlink:title=" ">
<path fill="none" stroke="orange" stroke-dasharray="5,2" d="M601.16,-152.63C660.57,-165.55 752.05,-185.67 831.25,-204 871.6,-213.34 916.96,-224.28 951.85,-232.79"/>
<polygon fill="orange" stroke="orange" points="602.07,-149.25 591.56,-150.54 600.59,-156.09 602.07,-149.25"/>
</a>
</g>
<text xml:space="preserve" text-anchor="start" x="727" y="-209.5" font-family="Helvetica,sans-Serif" font-size="10.00" fill="grey">&lt; R(Args...) const, C &gt;</text>
</g>
<!-- Node13&#45;&gt;Node8 -->
<g id="edge19_Node000008_Node000013" class="edge">
<title>Node13&#45;&gt;Node8</title>
<g id="a_edge19_Node000008_Node000013"><a xlink:title=" ">
<path fill="none" stroke="orange" stroke-dasharray="5,2" d="M585.79,-159.7C598.66,-164.98 612.64,-170.44 625.75,-175 660.8,-187.18 673.76,-179.63 706,-198 715.56,-203.45 715.25,-208.33 724,-215 731.23,-220.51 739.46,-225.89 747.23,-230.62"/>
<polygon fill="orange" stroke="orange" points="587.27,-156.53 576.7,-155.92 584.59,-162.99 587.27,-156.53"/>
</a>
</g>
<text xml:space="preserve" text-anchor="start" x="628.75" y="-203.5" font-family="Helvetica,sans-Serif" font-size="10.00" fill="grey">&lt; R(Args...), C &gt;</text>
</g>
</g>
</svg>

<g id="navigator" transform="translate(0 0)" fill="#404254">
  <rect fill="#f2f5e9" fill-opacity="0.5" stroke="#606060" stroke-width=".5" x="0" y="0" width="60" height="60"/>
  <use id="zoomplus" xlink:href="#zoomPlus" x="17" y="9" onmousedown="handleZoom(evt,'in')"/>
  <use id="zoomminus" xlink:href="#zoomMin" x="42" y="9" onmousedown="handleZoom(evt,'out')"/>
  <use id="reset" xlink:href="#resetDef" x="30" y="36" onmousedown="handleReset()"/>
   <use id="arrowup" xlink:href="#arrowUp" x="0" y="0" onmousedown="handlePan(0,-1)"/>
  <use id="arrowright" xlink:href="#arrowRight" x="0" y="0" onmousedown="handlePan(1,0)"/>
  <use id="arrowdown" xlink:href="#arrowDown" x="0" y="0" onmousedown="handlePan(0,1)"/>
  <use id="arrowleft" xlink:href="#arrowLeft" x="0" y="0" onmousedown="handlePan(-1,0)"/>
</g>
<svg viewBox="0 0 15 15" width="100%" height="30px" preserveAspectRatio="xMaxYMin meet">
 <g id="arrow_out" transform="scale(0.3 0.3)">
  <a xlink:href="structmstd_1_1function__traits_3_01_r_07_c_1_1_5_08_07_args_8_8_8_08_01const_01volatile_01_6_6noexcept_01_4__inherit__graph_org.svg" target="_base">
   <rect id="button" ry="5" rx="5" y="6" x="6" height="38" width="38"
        fill="#f2f5e9" fill-opacity="0.5" stroke="#606060" stroke-width="1.0"/>
   <path id="arrow"
     d="M 11.500037,31.436501 C 11.940474,20.09759 22.043105,11.32322 32.158766,21.979434 L 37.068811,17.246167 C 37.068811,17.246167 37.088388,32 37.088388,32 L 22.160133,31.978069 C 22.160133,31.978069 26.997745,27.140456 26.997745,27.140456 C 18.528582,18.264221 13.291696,25.230495 11.500037,31.436501 z"
     style="fill:#404040;"/>
  </a>
 </g>
</svg>

<style type='text/css'>
<![CDATA[
[data-mouse-over-selected='false'] { opacity: 0.7; }
[data-mouse-over-selected='true']  { opacity: 1.0; }
]]>
</style>
<script type="application/ecmascript"><![CDATA[
document.addEventListener('DOMContentLoaded', (event) => {
  highlightEdges();
  highlightAdjacentNodes();
});
]]></script>
</svg>
