<?xml version="1.0" encoding="UTF-8" standalone="no"?>
<!DOCTYPE svg PUBLIC "-//W3C//DTD SVG 1.1//EN"
 "http://www.w3.org/Graphics/SVG/1.1/DTD/svg11.dtd">
<!-- Generated by graphviz version 14.1.1 (20251213.1925)
 -->
<!-- Title: mstd::bimap&lt; Key, T, Map &gt; Pages: 1 -->
<svg width="361pt" height="274pt"
 viewBox="0.00 0.00 361.00 274.00" xmlns="http://www.w3.org/2000/svg" xmlns:xlink="http://www.w3.org/1999/xlink">
<g id="graph0" class="graph" transform="scale(1 1) rotate(0) translate(4 270)">
<title>mstd::bimap&lt; Key, T, Map &gt;</title>
<!-- Node1 -->
<g id="Node000001" class="node">
<title>Node1</title>
<g id="a_Node000001"><a xlink:title=" ">
<polygon fill="#999999" stroke="#666666" points="225.88,-32 116.88,-32 116.88,0 225.88,0 225.88,-32"/>
<text xml:space="preserve" text-anchor="start" x="124.88" y="-18.5" font-family="Helvetica,sans-Serif" font-size="10.00">mstd::bimap&lt; Key, T,</text>
<text xml:space="preserve" text-anchor="middle" x="171.38" y="-6.5" font-family="Helvetica,sans-Serif" font-size="10.00"> Map &gt;</text>
</a>
</g>
</g>
<!-- Node2 -->
<g id="Node000002" class="node">
<title>Node2</title>
<g id="a_Node000002"><a xlink:title=" ">
<polygon fill="white" stroke="#666666" points="94.75,-118 0,-118 0,-86 94.75,-86 94.75,-118"/>
<text xml:space="preserve" text-anchor="start" x="8" y="-104.5" font-family="Helvetica,sans-Serif" font-size="10.00">std::vector&lt; value</text>
<text xml:space="preserve" text-anchor="middle" x="47.38" y="-92.5" font-family="Helvetica,sans-Serif" font-size="10.00">_type &gt;</text>
</a>
</g>
</g>
<!-- Node2&#45;&gt;Node1 -->
<g id="edge1_Node000001_Node000002" class="edge">
<title>Node2&#45;&gt;Node1</title>
<g id="a_edge1_Node000001_Node000002"><a xlink:title=" ">
<path fill="none" stroke="#9a32cd" stroke-dasharray="5,2" d="M79.59,-79.18C101.31,-64.47 129.42,-45.42 148.78,-32.31"/>
<polygon fill="#9a32cd" stroke="#9a32cd" points="77.69,-76.24 71.37,-84.74 81.61,-82.03 77.69,-76.24"/>
</a>
</g>
<text xml:space="preserve" text-anchor="start" x="123.48" y="-55.5" font-family="Helvetica,sans-Serif" font-size="10.00" fill="grey">_data</text>
</g>
<!-- Node3 -->
<g id="Node000003" class="node">
<title>Node3</title>
<g id="a_Node000003"><a xlink:title=" ">
<polygon fill="white" stroke="#666666" points="90.25,-192 4.5,-192 4.5,-172 90.25,-172 90.25,-192"/>
<text xml:space="preserve" text-anchor="middle" x="47.38" y="-178.5" font-family="Helvetica,sans-Serif" font-size="10.00">std::vector&lt; T &gt;</text>
</a>
</g>
</g>
<!-- Node3&#45;&gt;Node2 -->
<g id="edge2_Node000002_Node000003" class="edge">
<title>Node3&#45;&gt;Node2</title>
<g id="a_edge2_Node000002_Node000003"><a xlink:title=" ">
<path fill="none" stroke="orange" stroke-dasharray="5,2" d="M47.38,-160.51C47.38,-147.32 47.38,-130.47 47.38,-118.42"/>
<polygon fill="orange" stroke="orange" points="43.88,-160.23 47.38,-170.23 50.88,-160.23 43.88,-160.23"/>
</a>
</g>
<text xml:space="preserve" text-anchor="start" x="50.38" y="-141.5" font-family="Helvetica,sans-Serif" font-size="10.00" fill="grey">&lt; value_type &gt;</text>
</g>
<!-- Node4 -->
<g id="Node000004" class="node">
<title>Node4</title>
<g id="a_Node000004"><a xlink:title=" ">
<polygon fill="white" stroke="#666666" points="61.77,-266 32.98,-266 32.98,-246 61.77,-246 61.77,-266"/>
<text xml:space="preserve" text-anchor="middle" x="47.38" y="-252.5" font-family="Helvetica,sans-Serif" font-size="10.00">T</text>
</a>
</g>
</g>
<!-- Node4&#45;&gt;Node3 -->
<g id="edge3_Node000003_Node000004" class="edge">
<title>Node4&#45;&gt;Node3</title>
<g id="a_edge3_Node000003_Node000004"><a xlink:title=" ">
<path fill="none" stroke="#9a32cd" stroke-dasharray="5,2" d="M47.38,-234.18C47.38,-220.29 47.38,-202.71 47.38,-192.19"/>
<polygon fill="#9a32cd" stroke="#9a32cd" points="43.88,-234.07 47.38,-244.07 50.88,-234.07 43.88,-234.07"/>
</a>
</g>
<text xml:space="preserve" text-anchor="start" x="50.38" y="-215.5" font-family="Helvetica,sans-Serif" font-size="10.00" fill="grey">elements</text>
</g>
<!-- Node5 -->
<g id="Node000005" class="node">
<title>Node5</title>
<g id="a_Node000005"><a xlink:title=" ">
<polygon fill="white" stroke="#666666" points="230,-112 112.75,-112 112.75,-92 230,-92 230,-112"/>
<text xml:space="preserve" text-anchor="middle" x="171.38" y="-98.5" font-family="Helvetica,sans-Serif" font-size="10.00">Map&lt; Key, size_type &gt;</text>
</a>
</g>
</g>
<!-- Node5&#45;&gt;Node1 -->
<g id="edge4_Node000001_Node000005" class="edge">
<title>Node5&#45;&gt;Node1</title>
<g id="a_edge4_Node000001_Node000005"><a xlink:title=" ">
<path fill="none" stroke="#9a32cd" stroke-dasharray="5,2" d="M171.38,-80.61C171.38,-65.72 171.38,-45.86 171.38,-32.32"/>
<polygon fill="#9a32cd" stroke="#9a32cd" points="167.88,-80.18 171.38,-90.18 174.88,-80.18 167.88,-80.18"/>
</a>
</g>
<text xml:space="preserve" text-anchor="start" x="174.38" y="-55.5" font-family="Helvetica,sans-Serif" font-size="10.00" fill="grey">_map</text>
</g>
<!-- Node6 -->
<g id="Node000006" class="node">
<title>Node6</title>
<g id="a_Node000006"><a xlink:title=" ">
<polygon fill="white" stroke="#666666" points="353,-112 247.75,-112 247.75,-92 353,-92 353,-112"/>
<text xml:space="preserve" text-anchor="middle" x="300.38" y="-98.5" font-family="Helvetica,sans-Serif" font-size="10.00">Map&lt; T, size_type &gt;</text>
</a>
</g>
</g>
<!-- Node6&#45;&gt;Node1 -->
<g id="edge5_Node000001_Node000006" class="edge">
<title>Node6&#45;&gt;Node1</title>
<g id="a_edge5_Node000001_Node000006"><a xlink:title=" ">
<path fill="none" stroke="#9a32cd" stroke-dasharray="5,2" d="M276.61,-85.53C253.34,-70.37 218.09,-47.42 194.9,-32.32"/>
<polygon fill="#9a32cd" stroke="#9a32cd" points="274.52,-88.34 284.81,-90.86 278.34,-82.47 274.52,-88.34"/>
</a>
</g>
<text xml:space="preserve" text-anchor="start" x="250.43" y="-55.5" font-family="Helvetica,sans-Serif" font-size="10.00" fill="grey">_invertedMap</text>
</g>
</g>
</svg>
