<?xml version="1.0" encoding="UTF-8" standalone="no"?>
<!DOCTYPE svg PUBLIC "-//W3C//DTD SVG 1.1//EN"
 "http://www.w3.org/Graphics/SVG/1.1/DTD/svg11.dtd">
<!-- Generated by graphviz version 14.1.1 (20251213.1925)
 -->
<!-- Title: mstd::utils::unique_impl&lt; T, U &gt; Pages: 1 -->
<!--zoomable 271 -->

<svg id="main" version="1.1" xmlns="http://www.w3.org/2000/svg" xmlns:xlink="http://www.w3.org/1999/xlink" xml:space="preserve" onload="init(evt)">

<style type="text/css"><![CDATA[
.node, .edge {opacity: 0.7;}
.node.selected, .edge.selected {opacity: 1;}
.edge:hover path { stroke: red; }
.edge:hover polygon { stroke: red; fill: red; }
]]></style>

<defs>
  <circle id="rim" cx="0" cy="0" r="7"/>
  <circle id="rim2" cx="0" cy="0" r="3.5"/>
  <g id="zoomPlus">
    <use xlink:href="#rim" fill="#404040"><set attributeName="fill" to="#808080" begin="zoomplus.mouseover" end="zoomplus.mouseout"/></use>
    <path d="M-4,0h8M0,-4v8" fill="none" stroke="white" stroke-width="1.5" pointer-events="none"/>
  </g>
  <g id="zoomMin">
    <use xlink:href="#rim" fill="#404040"><set attributeName="fill" to="#808080" begin="zoomminus.mouseover" end="zoomminus.mouseout"/></use>
    <path d="M-4,0h8" fill="none" stroke="white" stroke-width="1.5" pointer-events="none"/>
  </g>
  <g id="arrowUp" transform="translate(30 24)">
    <use xlink:href="#rim"/>
    <path pointer-events="none" fill="none" stroke="white" stroke-width="1.5" d="M0,-3.0v7 M-2.5,-0.5L0,-3.0L2.5,-0.5"/>
  </g>
  <g id="arrowRight" transform="rotate(90) translate(36 -43)">
    <use xlink:href="#rim"/>
    <path pointer-events="none" fill="none" stroke="white" stroke-width="1.5" d="M0,-3.0v7 M-2.5,-0.5L0,-3.0L2.5,-0.5"/>
  </g>
  <g id="arrowDown" transform="rotate(180) translate(-30 -48)">
    <use xlink:href="#rim"/>
    <path pointer-events="none" fill="none" stroke="white" stroke-width="1.5" d="M0,-3.0v7 M-2.5,-0.5L0,-3.0L2.5,-0.5"/>
  </g>
  <g id="arrowLeft" transform="rotate(270) translate(-36 17)">
    <use xlink:href="#rim"/>
    <path pointer-events="none" fill="none" stroke="white" stroke-width="1.5" d="M0,-3.0v7 M-2.5,-0.5L0,-3.0L2.5,-0.5"/>
  </g>
  <g id="resetDef">
    <use xlink:href="#rim2" fill="#404040"><set attributeName="fill" to="#808080" begin="reset.mouseover" end="reset.mouseout"/></use>
  </g>
</defs>
<script type="application/ecmascript">
var viewWidth = 541;
var viewHeight = 271;
var sectionId = 'dynsection-0';
</script>
<script type="application/ecmascript" xlink:href="../../svg.min.js"/>
<svg id="graph" class="graph">
<g id="viewport">
<title>mstd::utils::unique_impl&lt; T, U &gt;</title>
<!-- Node1 -->
<g id="Node000001" class="node">
<title>Node1</title>
<g id="a_Node000001"><a xlink:title=" ">
<polygon fill="#999999" stroke="#666666" points="96.25,-138 0,-138 0,-106 96.25,-106 96.25,-138"/>
<text xml:space="preserve" text-anchor="start" x="8" y="-124.5" font-family="Helvetica,sans-Serif" font-size="10.00">mstd::utils::unique</text>
<text xml:space="preserve" text-anchor="middle" x="48.12" y="-112.5" font-family="Helvetica,sans-Serif" font-size="10.00">_impl&lt; T, U &gt;</text>
</a>
</g>
</g>
<!-- Node2 -->
<g id="Node000002" class="node">
<title>Node2</title>
<g id="a_Node000002"><a xlink:href="../../dc/d00/structmstd_1_1utils_1_1unique__impl.html" target="_top" xlink:title=" ">
<polygon fill="white" stroke="#666666" points="375.5,-263 268.75,-263 268.75,-207 375.5,-207 375.5,-263"/>
<text xml:space="preserve" text-anchor="start" x="276.75" y="-249.5" font-family="Helvetica,sans-Serif" font-size="10.00">mstd::utils::unique</text>
<text xml:space="preserve" text-anchor="start" x="276.75" y="-237.5" font-family="Helvetica,sans-Serif" font-size="10.00">_impl&lt; types_holder</text>
<text xml:space="preserve" text-anchor="start" x="276.75" y="-225.5" font-family="Helvetica,sans-Serif" font-size="10.00">&lt; T &gt;, types_holder&lt;</text>
<text xml:space="preserve" text-anchor="middle" x="322.12" y="-213.5" font-family="Helvetica,sans-Serif" font-size="10.00"> Us... &gt; &gt;</text>
</a>
</g>
</g>
<!-- Node1&#45;&gt;Node2 -->
<g id="edge1_Node000001_Node000002" class="edge">
<title>Node1&#45;&gt;Node2</title>
<g id="a_edge1_Node000001_Node000002"><a xlink:title=" ">
<path fill="none" stroke="orange" stroke-dasharray="5,2" d="M77.41,-145.4C88.41,-153.69 101.44,-162.54 114.25,-169 164.07,-194.12 225.43,-212.25 268.33,-223.08"/>
<polygon fill="orange" stroke="orange" points="79.55,-142.64 69.51,-139.27 75.26,-148.17 79.55,-142.64"/>
</a>
</g>
<text xml:space="preserve" text-anchor="start" x="117.25" y="-235.57" font-family="Helvetica,sans-Serif" font-size="10.00" fill="grey">&lt; types_holder&lt; T &gt;</text>
<text xml:space="preserve" text-anchor="start" x="117.25" y="-219.57" font-family="Helvetica,sans-Serif" font-size="10.00" fill="grey">  , types_holder&lt; Us... &gt; &gt;</text>
</g>
<!-- Node3 -->
<g id="Node000003" class="node">
<title>Node3</title>
<g id="a_Node000003"><a xlink:href="../../d1/df0/structmstd_1_1utils_1_1unique__impl_3_01types__holder_3_4_00_01types__holder_3_01_t_00_01_us_8_8_8_01_4_01_4.html" target="_top" xlink:title=" ">
<polygon fill="white" stroke="#666666" points="532.75,-195 426.75,-195 426.75,-139 532.75,-139 532.75,-195"/>
<text xml:space="preserve" text-anchor="start" x="434.75" y="-181.5" font-family="Helvetica,sans-Serif" font-size="10.00">mstd::utils::unique</text>
<text xml:space="preserve" text-anchor="start" x="434.75" y="-169.5" font-family="Helvetica,sans-Serif" font-size="10.00">_impl&lt; types_holder</text>
<text xml:space="preserve" text-anchor="start" x="434.75" y="-157.5" font-family="Helvetica,sans-Serif" font-size="10.00">&lt;&gt;, types_holder&lt; T,</text>
<text xml:space="preserve" text-anchor="middle" x="479.75" y="-145.5" font-family="Helvetica,sans-Serif" font-size="10.00"> Us... &gt; &gt;</text>
</a>
</g>
</g>
<!-- Node1&#45;&gt;Node3 -->
<g id="edge5_Node000001_Node000003" class="edge">
<title>Node1&#45;&gt;Node3</title>
<g id="a_edge5_Node000001_Node000003"><a xlink:title=" ">
<path fill="none" stroke="orange" stroke-dasharray="5,2" d="M107.65,-139.7C109.87,-140.18 112.08,-140.61 114.25,-141 172.64,-151.48 340.22,-160.52 426.31,-164.63"/>
<polygon fill="orange" stroke="orange" points="108.52,-136.31 97.98,-137.43 106.92,-143.13 108.52,-136.31"/>
</a>
</g>
<text xml:space="preserve" text-anchor="start" x="268.88" y="-184.24" font-family="Helvetica,sans-Serif" font-size="10.00" fill="grey">&lt; types_holder&lt;&gt;, types</text>
<text xml:space="preserve" text-anchor="start" x="268.88" y="-168.24" font-family="Helvetica,sans-Serif" font-size="10.00" fill="grey">  _holder&lt; T, Us... &gt; &gt;</text>
</g>
<!-- Node4 -->
<g id="Node000004" class="node">
<title>Node4</title>
<g id="a_Node000004"><a xlink:href="../../de/dd4/structmstd_1_1utils_1_1unique__impl_3_01types__holder_3_01_ts_8_8_8_01_4_00_01types__holder_3_01_t_00_01_us_8_8_8_01_4_01_4.html" target="_top" xlink:title=" ">
<polygon fill="white" stroke="#666666" points="379.25,-118 265,-118 265,-62 379.25,-62 379.25,-118"/>
<text xml:space="preserve" text-anchor="start" x="273" y="-104.5" font-family="Helvetica,sans-Serif" font-size="10.00">mstd::utils::unique</text>
<text xml:space="preserve" text-anchor="start" x="273" y="-92.5" font-family="Helvetica,sans-Serif" font-size="10.00">_impl&lt; types_holder</text>
<text xml:space="preserve" text-anchor="start" x="273" y="-80.5" font-family="Helvetica,sans-Serif" font-size="10.00">&lt; Ts... &gt;, types_holder</text>
<text xml:space="preserve" text-anchor="middle" x="322.12" y="-68.5" font-family="Helvetica,sans-Serif" font-size="10.00">&lt; T, Us... &gt; &gt;</text>
</a>
</g>
</g>
<!-- Node1&#45;&gt;Node4 -->
<g id="edge3_Node000001_Node000004" class="edge">
<title>Node1&#45;&gt;Node4</title>
<g id="a_edge3_Node000001_Node000004"><a xlink:title=" ">
<path fill="none" stroke="orange" stroke-dasharray="5,2" d="M86.9,-100.62C95.62,-96.65 105.05,-93.1 114.25,-91 164.15,-79.6 222.59,-80.58 264.61,-83.69"/>
<polygon fill="orange" stroke="orange" points="85.5,-97.41 78.03,-104.93 88.56,-103.7 85.5,-97.41"/>
</a>
</g>
<text xml:space="preserve" text-anchor="start" x="128.88" y="-128.5" font-family="Helvetica,sans-Serif" font-size="10.00" fill="grey">&lt; types_holder&lt; Ts...</text>
<text xml:space="preserve" text-anchor="start" x="128.88" y="-112.5" font-family="Helvetica,sans-Serif" font-size="10.00" fill="grey">   &gt;, types_holder&lt; T,</text>
<text xml:space="preserve" text-anchor="start" x="128.88" y="-96.5" font-family="Helvetica,sans-Serif" font-size="10.00" fill="grey">   Us... &gt; &gt;</text>
</g>
<!-- Node5 -->
<g id="Node000005" class="node">
<title>Node5</title>
<g id="a_Node000005"><a xlink:href="../../de/d66/structmstd_1_1utils_1_1unique__impl_3_01types__holder_3_01_ts_8_8_8_01_4_00_01types__holder_3_4_01_4.html" target="_top" xlink:title=" ">
<polygon fill="white" stroke="#666666" points="389.75,-44 254.5,-44 254.5,0 389.75,0 389.75,-44"/>
<text xml:space="preserve" text-anchor="start" x="262.5" y="-30.5" font-family="Helvetica,sans-Serif" font-size="10.00">mstd::utils::unique</text>
<text xml:space="preserve" text-anchor="start" x="262.5" y="-18.5" font-family="Helvetica,sans-Serif" font-size="10.00">_impl&lt; types_holder</text>
<text xml:space="preserve" text-anchor="middle" x="322.12" y="-6.5" font-family="Helvetica,sans-Serif" font-size="10.00">&lt; Ts... &gt;, types_holder&lt;&gt; &gt;</text>
</a>
</g>
</g>
<!-- Node1&#45;&gt;Node5 -->
<g id="edge4_Node000001_Node000005" class="edge">
<title>Node1&#45;&gt;Node5</title>
<g id="a_edge4_Node000001_Node000005"><a xlink:title=" ">
<path fill="none" stroke="orange" stroke-dasharray="5,2" d="M63.6,-95.8C74.92,-78.01 92.4,-55.67 114.25,-44 156.94,-21.2 211.62,-16.24 254.04,-16.69"/>
<polygon fill="orange" stroke="orange" points="60.61,-93.97 58.44,-104.34 66.6,-97.59 60.61,-93.97"/>
</a>
</g>
<text xml:space="preserve" text-anchor="start" x="126.62" y="-65.5" font-family="Helvetica,sans-Serif" font-size="10.00" fill="grey">&lt; types_holder&lt; Ts...</text>
<text xml:space="preserve" text-anchor="start" x="126.62" y="-49.5" font-family="Helvetica,sans-Serif" font-size="10.00" fill="grey">   &gt;, types_holder&lt;&gt; &gt;</text>
</g>
<!-- Node2&#45;&gt;Node3 -->
<g id="edge2_Node000002_Node000003" class="edge">
<title>Node2&#45;&gt;Node3</title>
<g id="a_edge2_Node000002_Node000003"><a xlink:title=" ">
<path fill="none" stroke="#63b8ff" d="M386.32,-207.38C399.63,-201.57 413.53,-195.5 426.38,-189.88"/>
<polygon fill="#63b8ff" stroke="#63b8ff" points="384.96,-204.16 377.2,-211.37 387.76,-210.58 384.96,-204.16"/>
</a>
</g>
</g>
</g>
</svg>

<g id="navigator" transform="translate(0 0)" fill="#404254">
  <rect fill="#f2f5e9" fill-opacity="0.5" stroke="#606060" stroke-width=".5" x="0" y="0" width="60" height="60"/>
  <use id="zoomplus" xlink:href="#zoomPlus" x="17" y="9" onmousedown="handleZoom(evt,'in')"/>
  <use id="zoomminus" xlink:href="#zoomMin" x="42" y="9" onmousedown="handleZoom(evt,'out')"/>
  <use id="reset" xlink:href="#resetDef" x="30" y="36" onmousedown="handleReset()"/>
   <use id="arrowup" xlink:href="#arrowUp" x="0" y="0" onmousedown="handlePan(0,-1)"/>
  <use id="arrowright" xlink:href="#arrowRight" x="0" y="0" onmousedown="handlePan(1,0)"/>
  <use id="arrowdown" xlink:href="#arrowDown" x="0" y="0" onmousedown="handlePan(0,1)"/>
  <use id="arrowleft" xlink:href="#arrowLeft" x="0" y="0" onmousedown="handlePan(-1,0)"/>
</g>
<svg viewBox="0 0 15 15" width="100%" height="30px" preserveAspectRatio="xMaxYMin meet">
 <g id="arrow_out" transform="scale(0.3 0.3)">
  <a xlink:href="structmstd_1_1utils_1_1unique__impl__inherit__graph_org.svg" target="_base">
   <rect id="button" ry="5" rx="5" y="6" x="6" height="38" width="38"
        fill="#f2f5e9" fill-opacity="0.5" stroke="#606060" stroke-width="1.0"/>
   <path id="arrow"
     d="M 11.500037,31.436501 C 11.940474,20.09759 22.043105,11.32322 32.158766,21.979434 L 37.068811,17.246167 C 37.068811,17.246167 37.088388,32 37.088388,32 L 22.160133,31.978069 C 22.160133,31.978069 26.997745,27.140456 26.997745,27.140456 C 18.528582,18.264221 13.291696,25.230495 11.500037,31.436501 z"
     style="fill:#404040;"/>
  </a>
 </g>
</svg>

<style type='text/css'>
<![CDATA[
[data-mouse-over-selected='false'] { opacity: 0.7; }
[data-mouse-over-selected='true']  { opacity: 1.0; }
]]>
</style>
<script type="application/ecmascript"><![CDATA[
document.addEventListener('DOMContentLoaded', (event) => {
  highlightEdges();
  highlightAdjacentNodes();
});
]]></script>
</svg>
