<?xml version="1.0" encoding="UTF-8" standalone="no"?>
<!DOCTYPE svg PUBLIC "-//W3C//DTD SVG 1.1//EN"
 "http://www.w3.org/Graphics/SVG/1.1/DTD/svg11.dtd">
<!-- Generated by graphviz version 14.1.1 (20251213.1925)
 -->
<!-- Title: mstd::are_unsigned_integrals&lt; Ns &gt; Pages: 1 -->
<svg width="666pt" height="120pt"
 viewBox="0.00 0.00 666.00 120.00" xmlns="http://www.w3.org/2000/svg" xmlns:xlink="http://www.w3.org/1999/xlink">
<g id="graph0" class="graph" transform="scale(1 1) rotate(0) translate(4 116)">
<title>mstd::are_unsigned_integrals&lt; Ns &gt;</title>
<!-- Node1 -->
<g id="Node000001" class="node">
<title>Node1</title>
<g id="a_Node000001"><a xlink:title=" ">
<polygon fill="#999999" stroke="#666666" points="657.75,-69 556.25,-69 556.25,-37 657.75,-37 657.75,-69"/>
<text xml:space="preserve" text-anchor="start" x="564.25" y="-55.5" font-family="Helvetica,sans-Serif" font-size="10.00">mstd::are_unsigned</text>
<text xml:space="preserve" text-anchor="middle" x="607" y="-43.5" font-family="Helvetica,sans-Serif" font-size="10.00">_integrals&lt; Ns &gt;</text>
</a>
</g>
</g>
<!-- Node2 -->
<g id="Node000002" class="node">
<title>Node2</title>
<g id="a_Node000002"><a xlink:href="../../dd/def/structmstd_1_1all__check.html" target="_top" xlink:title=" ">
<polygon fill="white" stroke="#666666" points="519.25,-75 403.5,-75 403.5,-31 519.25,-31 519.25,-75"/>
<text xml:space="preserve" text-anchor="start" x="411.5" y="-61.5" font-family="Helvetica,sans-Serif" font-size="10.00">mstd::all_check&lt; mstd</text>
<text xml:space="preserve" text-anchor="start" x="411.5" y="-49.5" font-family="Helvetica,sans-Serif" font-size="10.00">::is_unsigned_integral,</text>
<text xml:space="preserve" text-anchor="middle" x="461.38" y="-37.5" font-family="Helvetica,sans-Serif" font-size="10.00"> Ns... &gt;</text>
</a>
</g>
</g>
<!-- Node2&#45;&gt;Node1 -->
<g id="edge1_Node000001_Node000002" class="edge">
<title>Node2&#45;&gt;Node1</title>
<g id="a_edge1_Node000001_Node000002"><a xlink:title=" ">
<path fill="none" stroke="#63b8ff" d="M530.97,-53C539.4,-53 547.89,-53 555.98,-53"/>
<polygon fill="#63b8ff" stroke="#63b8ff" points="531.07,-49.5 521.07,-53 531.07,-56.5 531.07,-49.5"/>
</a>
</g>
</g>
<!-- Node3 -->
<g id="Node000003" class="node">
<title>Node3</title>
<g id="a_Node000003"><a xlink:title=" ">
<polygon fill="white" stroke="#666666" points="265.12,-112 155.38,-112 155.38,-56 265.12,-56 265.12,-112"/>
<text xml:space="preserve" text-anchor="start" x="163.38" y="-98.5" font-family="Helvetica,sans-Serif" font-size="10.00">std::bool_constant</text>
<text xml:space="preserve" text-anchor="start" x="163.38" y="-86.5" font-family="Helvetica,sans-Serif" font-size="10.00">&lt;(mstd::is_unsigned</text>
<text xml:space="preserve" text-anchor="start" x="163.38" y="-74.5" font-family="Helvetica,sans-Serif" font-size="10.00">_integral&lt; Ts &gt;::value</text>
<text xml:space="preserve" text-anchor="middle" x="210.25" y="-62.5" font-family="Helvetica,sans-Serif" font-size="10.00"> &amp;&amp;...)&gt;</text>
</a>
</g>
</g>
<!-- Node3&#45;&gt;Node2 -->
<g id="edge2_Node000002_Node000003" class="edge">
<title>Node3&#45;&gt;Node2</title>
<g id="a_edge2_Node000002_Node000003"><a xlink:title=" ">
<path fill="none" stroke="#63b8ff" d="M276.8,-78.97C309.54,-76.11 349.7,-72.08 385.5,-67 391.26,-66.18 397.25,-65.23 403.23,-64.22"/>
<polygon fill="#63b8ff" stroke="#63b8ff" points="276.73,-75.47 267.06,-79.8 277.32,-82.44 276.73,-75.47"/>
</a>
</g>
</g>
<!-- Node4 -->
<g id="Node000004" class="node">
<title>Node4</title>
<g id="a_Node000004"><a xlink:href="../../dd/def/structmstd_1_1all__check.html" target="_top" xlink:title=" ">
<polygon fill="white" stroke="#666666" points="273,-38 147.5,-38 147.5,-6 273,-6 273,-38"/>
<text xml:space="preserve" text-anchor="start" x="155.5" y="-24.5" font-family="Helvetica,sans-Serif" font-size="10.00">mstd::all_check&lt; Check,</text>
<text xml:space="preserve" text-anchor="middle" x="210.25" y="-12.5" font-family="Helvetica,sans-Serif" font-size="10.00"> Ts &gt;</text>
</a>
</g>
</g>
<!-- Node4&#45;&gt;Node2 -->
<g id="edge3_Node000002_Node000004" class="edge">
<title>Node4&#45;&gt;Node2</title>
<g id="a_edge3_Node000002_Node000004"><a xlink:title=" ">
<path fill="none" stroke="orange" stroke-dasharray="5,2" d="M284.64,-20.57C315.93,-21.09 352.71,-23.2 385.5,-29 391.28,-30.02 397.23,-31.38 403.13,-32.93"/>
<polygon fill="orange" stroke="orange" points="284.93,-17.07 274.89,-20.46 284.85,-24.07 284.93,-17.07"/>
</a>
</g>
<text xml:space="preserve" text-anchor="start" x="294" y="-50.5" font-family="Helvetica,sans-Serif" font-size="10.00" fill="grey">&lt; mstd::is_unsigned</text>
<text xml:space="preserve" text-anchor="start" x="294" y="-34.5" font-family="Helvetica,sans-Serif" font-size="10.00" fill="grey">  _integral, Ns... &gt;</text>
</g>
<!-- Node5 -->
<g id="Node000005" class="node">
<title>Node5</title>
<g id="a_Node000005"><a xlink:title=" ">
<polygon fill="white" stroke="#666666" points="110.5,-44 0,-44 0,0 110.5,0 110.5,-44"/>
<text xml:space="preserve" text-anchor="start" x="8" y="-30.5" font-family="Helvetica,sans-Serif" font-size="10.00">std::bool_constant</text>
<text xml:space="preserve" text-anchor="start" x="8" y="-18.5" font-family="Helvetica,sans-Serif" font-size="10.00">&lt;(Check&lt; Ts &gt;::value</text>
<text xml:space="preserve" text-anchor="middle" x="55.25" y="-6.5" font-family="Helvetica,sans-Serif" font-size="10.00"> &amp;&amp;...)&gt;</text>
</a>
</g>
</g>
<!-- Node5&#45;&gt;Node4 -->
<g id="edge4_Node000004_Node000005" class="edge">
<title>Node5&#45;&gt;Node4</title>
<g id="a_edge4_Node000004_Node000005"><a xlink:title=" ">
<path fill="none" stroke="#63b8ff" d="M121.92,-22C130.32,-22 138.89,-22 147.23,-22"/>
<polygon fill="#63b8ff" stroke="#63b8ff" points="122.14,-18.5 112.14,-22 122.14,-25.5 122.14,-18.5"/>
</a>
</g>
</g>
</g>
</svg>
