<?xml version="1.0" encoding="UTF-8" standalone="no"?>
<!DOCTYPE svg PUBLIC "-//W3C//DTD SVG 1.1//EN"
 "http://www.w3.org/Graphics/SVG/1.1/DTD/svg11.dtd">
<!-- Generated by graphviz version 14.1.1 (20251213.1925)
 -->
<!-- Title: mstd::ordered_set&lt; T &gt; Pages: 1 -->
<svg width="272pt" height="274pt"
 viewBox="0.00 0.00 272.00 274.00" xmlns="http://www.w3.org/2000/svg" xmlns:xlink="http://www.w3.org/1999/xlink">

<svg id="main" version="1.1" xmlns="http://www.w3.org/2000/svg" xmlns:xlink="http://www.w3.org/1999/xlink" xml:space="preserve">

<style type="text/css"><![CDATA[
.node, .edge {opacity: 0.7;}
.node.selected, .edge.selected {opacity: 1;}
.edge:hover path { stroke: red; }
.edge:hover polygon { stroke: red; fill: red; }
]]></style>
<script type="application/ecmascript" xlink:href="../../svg.min.js"/>
<svg id="graph" class="graph">
<g id="graph0" class="graph" transform="scale(1 1) rotate(0) translate(4 270)">
<title>mstd::ordered_set&lt; T &gt;</title>
<!-- Node1 -->
<g id="Node000001" class="node">
<title>Node1</title>
<g id="a_Node000001"><a xlink:title=" ">
<polygon fill="#999999" stroke="#666666" points="146.12,-20 28.12,-20 28.12,0 146.12,0 146.12,-20"/>
<text xml:space="preserve" text-anchor="middle" x="87.12" y="-6.5" font-family="Helvetica,sans-Serif" font-size="10.00">mstd::ordered_set&lt; T &gt;</text>
</a>
</g>
</g>
<!-- Node2 -->
<g id="Node000002" class="node">
<title>Node2</title>
<g id="a_Node000002"><a xlink:title=" ">
<polygon fill="white" stroke="#666666" points="66.25,-100 0,-100 0,-80 66.25,-80 66.25,-100"/>
<text xml:space="preserve" text-anchor="middle" x="33.12" y="-86.5" font-family="Helvetica,sans-Serif" font-size="10.00">vector&lt; T &gt;</text>
</a>
</g>
</g>
<!-- Node2&#45;&gt;Node1 -->
<g id="edge1_Node000001_Node000002" class="edge">
<title>Node2&#45;&gt;Node1</title>
<g id="a_edge1_Node000001_Node000002"><a xlink:title=" ">
<path fill="none" stroke="#9a32cd" stroke-dasharray="5,2" d="M28.98,-68.26C28.11,-58.4 28.81,-46.86 34.38,-38 39.3,-30.16 47.28,-24.5 55.56,-20.45"/>
<polygon fill="#9a32cd" stroke="#9a32cd" points="25.5,-68.66 30.44,-78.03 32.42,-67.63 25.5,-68.66"/>
</a>
</g>
<text xml:space="preserve" text-anchor="start" x="37.38" y="-43.5" font-family="Helvetica,sans-Serif" font-size="10.00" fill="grey">_orderedElements</text>
</g>
<!-- Node3 -->
<g id="Node000003" class="node">
<title>Node3</title>
<g id="a_Node000003"><a xlink:title=" ">
<polygon fill="white" stroke="#666666" points="192.25,-106 90,-106 90,-74 192.25,-74 192.25,-106"/>
<text xml:space="preserve" text-anchor="start" x="98" y="-92.5" font-family="Helvetica,sans-Serif" font-size="10.00">std::unordered_map</text>
<text xml:space="preserve" text-anchor="middle" x="141.12" y="-80.5" font-family="Helvetica,sans-Serif" font-size="10.00">&lt; T, size_t &gt;</text>
</a>
</g>
</g>
<!-- Node3&#45;&gt;Node1 -->
<g id="edge2_Node000001_Node000003" class="edge">
<title>Node3&#45;&gt;Node1</title>
<g id="a_edge2_Node000001_Node000003"><a xlink:title=" ">
<path fill="none" stroke="#9a32cd" stroke-dasharray="5,2" d="M132.7,-63.2C129.24,-54.72 124.72,-45.54 119.12,-38 114.1,-31.23 107.06,-25.05 100.86,-20.32"/>
<polygon fill="#9a32cd" stroke="#9a32cd" points="129.33,-64.18 136.1,-72.33 135.89,-61.74 129.33,-64.18"/>
</a>
</g>
<text xml:space="preserve" text-anchor="start" x="132.1" y="-43.5" font-family="Helvetica,sans-Serif" font-size="10.00" fill="grey">_elementsMap</text>
</g>
<!-- Node4 -->
<g id="Node000004" class="node">
<title>Node4</title>
<g id="a_Node000004"><a xlink:title=" ">
<polygon fill="white" stroke="#666666" points="76.53,-266 47.73,-266 47.73,-246 76.53,-246 76.53,-266"/>
<text xml:space="preserve" text-anchor="middle" x="62.12" y="-252.5" font-family="Helvetica,sans-Serif" font-size="10.00">T</text>
</a>
</g>
</g>
<!-- Node4&#45;&gt;Node3 -->
<g id="edge3_Node000003_Node000004" class="edge">
<title>Node4&#45;&gt;Node3</title>
<g id="a_edge3_Node000003_Node000004"><a xlink:title=" ">
<path fill="none" stroke="#9a32cd" stroke-dasharray="5,2" d="M54.62,-234.62C48.53,-214.6 42.67,-183.7 54.12,-160 65.62,-136.22 89.72,-118.13 109.65,-106.45"/>
<polygon fill="#9a32cd" stroke="#9a32cd" points="51.3,-235.72 57.8,-244.09 57.93,-233.49 51.3,-235.72"/>
</a>
</g>
<text xml:space="preserve" text-anchor="start" x="57.12" y="-172.5" font-family="Helvetica,sans-Serif" font-size="10.00" fill="grey">keys</text>
</g>
<!-- Node6 -->
<g id="Node000006" class="node">
<title>Node6</title>
<g id="a_Node000006"><a xlink:title=" ">
<polygon fill="white" stroke="#666666" points="192.25,-192 90,-192 90,-160 192.25,-160 192.25,-192"/>
<text xml:space="preserve" text-anchor="start" x="98" y="-178.5" font-family="Helvetica,sans-Serif" font-size="10.00">std::unordered_map</text>
<text xml:space="preserve" text-anchor="middle" x="141.12" y="-166.5" font-family="Helvetica,sans-Serif" font-size="10.00">&lt; K, T &gt;</text>
</a>
</g>
</g>
<!-- Node4&#45;&gt;Node6 -->
<g id="edge7_Node000006_Node000004" class="edge">
<title>Node4&#45;&gt;Node6</title>
<g id="a_edge7_Node000006_Node000004"><a xlink:title=" ">
<path fill="none" stroke="#9a32cd" stroke-dasharray="5,2" d="M73.53,-236.21C79.2,-227.69 86.52,-217.8 94.38,-210 100.86,-203.56 108.72,-197.49 116.13,-192.35"/>
<polygon fill="#9a32cd" stroke="#9a32cd" points="70.73,-234.1 68.32,-244.41 76.64,-237.85 70.73,-234.1"/>
</a>
</g>
<text xml:space="preserve" text-anchor="start" x="97.38" y="-215.5" font-family="Helvetica,sans-Serif" font-size="10.00" fill="grey">elements</text>
</g>
<!-- Node5 -->
<g id="Node000005" class="node">
<title>Node5</title>
<g id="a_Node000005"><a xlink:title=" ">
<polygon fill="white" stroke="#666666" points="252.25,-186 210,-186 210,-166 252.25,-166 252.25,-186"/>
<text xml:space="preserve" text-anchor="middle" x="231.12" y="-172.5" font-family="Helvetica,sans-Serif" font-size="10.00">size_t</text>
</a>
</g>
</g>
<!-- Node5&#45;&gt;Node3 -->
<g id="edge4_Node000003_Node000005" class="edge">
<title>Node5&#45;&gt;Node3</title>
<g id="a_edge4_Node000003_Node000005"><a xlink:title=" ">
<path fill="none" stroke="#9a32cd" stroke-dasharray="5,2" d="M224.71,-154.8C220.66,-144.59 214.58,-132.58 206.12,-124 199.19,-116.97 190.45,-111.16 181.65,-106.48"/>
<polygon fill="#9a32cd" stroke="#9a32cd" points="221.4,-155.95 228.04,-164.21 228,-153.62 221.4,-155.95"/>
</a>
</g>
<text xml:space="preserve" text-anchor="start" x="221.63" y="-129.5" font-family="Helvetica,sans-Serif" font-size="10.00" fill="grey">elements</text>
</g>
<!-- Node6&#45;&gt;Node3 -->
<g id="edge5_Node000003_Node000006" class="edge">
<title>Node6&#45;&gt;Node3</title>
<g id="a_edge5_Node000003_Node000006"><a xlink:title=" ">
<path fill="none" stroke="orange" stroke-dasharray="5,2" d="M141.12,-148.27C141.12,-134.42 141.12,-118.01 141.12,-106.31"/>
<polygon fill="orange" stroke="orange" points="137.63,-148.08 141.13,-158.08 144.63,-148.08 137.63,-148.08"/>
</a>
</g>
<text xml:space="preserve" text-anchor="start" x="144.12" y="-129.5" font-family="Helvetica,sans-Serif" font-size="10.00" fill="grey">&lt; T, size_t &gt;</text>
</g>
<!-- Node7 -->
<g id="Node000007" class="node">
<title>Node7</title>
<g id="a_Node000007"><a xlink:title=" ">
<polygon fill="white" stroke="#666666" points="161.53,-266 132.72,-266 132.72,-246 161.53,-246 161.53,-266"/>
<text xml:space="preserve" text-anchor="middle" x="147.12" y="-252.5" font-family="Helvetica,sans-Serif" font-size="10.00">K</text>
</a>
</g>
</g>
<!-- Node7&#45;&gt;Node6 -->
<g id="edge6_Node000006_Node000007" class="edge">
<title>Node7&#45;&gt;Node6</title>
<g id="a_edge6_Node000006_Node000007"><a xlink:title=" ">
<path fill="none" stroke="#9a32cd" stroke-dasharray="5,2" d="M145.55,-234.51C144.53,-221.32 143.24,-204.47 142.31,-192.42"/>
<polygon fill="#9a32cd" stroke="#9a32cd" points="142.04,-234.53 146.3,-244.24 149.02,-234 142.04,-234.53"/>
</a>
</g>
<text xml:space="preserve" text-anchor="start" x="148.01" y="-215.5" font-family="Helvetica,sans-Serif" font-size="10.00" fill="grey">keys</text>
</g>
</g>
</svg>
</svg>

<style type='text/css'>
<![CDATA[
[data-mouse-over-selected='false'] { opacity: 0.7; }
[data-mouse-over-selected='true']  { opacity: 1.0; }
]]>
</style>
<script type="application/ecmascript"><![CDATA[
document.addEventListener('DOMContentLoaded', (event) => {
  highlightEdges();
  highlightAdjacentNodes();
});
]]></script>
</svg>
