<?xml version="1.0" encoding="UTF-8" standalone="no"?>
<!DOCTYPE svg PUBLIC "-//W3C//DTD SVG 1.1//EN"
 "http://www.w3.org/Graphics/SVG/1.1/DTD/svg11.dtd">
<!-- Generated by graphviz version 14.1.1 (20251213.1925)
 -->
<!-- Title: mstd::function_traits&lt; R(Args...) volatile, C &gt; Pages: 1 -->
<svg width="1527pt" height="322pt"
 viewBox="0.00 0.00 1527.00 322.00" xmlns="http://www.w3.org/2000/svg" xmlns:xlink="http://www.w3.org/1999/xlink">
<g id="graph0" class="graph" transform="scale(1 1) rotate(0) translate(4 318)">
<title>mstd::function_traits&lt; R(Args...) volatile, C &gt;</title>
<!-- Node1 -->
<g id="Node000001" class="node">
<title>Node1</title>
<g id="a_Node000001"><a xlink:title=" ">
<polygon fill="#999999" stroke="#666666" points="999,-118 875,-118 875,-86 999,-86 999,-118"/>
<text xml:space="preserve" text-anchor="start" x="883" y="-104.5" font-family="Helvetica,sans-Serif" font-size="10.00">mstd::function_traits</text>
<text xml:space="preserve" text-anchor="middle" x="937" y="-92.5" font-family="Helvetica,sans-Serif" font-size="10.00">&lt; R(Args...) volatile, C &gt;</text>
</a>
</g>
</g>
<!-- Node10 -->
<g id="Node000010" class="node">
<title>Node10</title>
<g id="a_Node000010"><a xlink:href="../../dd/d45/structmstd_1_1function__traits_3_01_r_07_args_8_8_8_08_01volatile_01_6_6_00_01_c_01_4.html" target="_top" xlink:title=" ">
<polygon fill="white" stroke="#666666" points="1155.5,-236 1050.25,-236 1050.25,-192 1155.5,-192 1155.5,-236"/>
<text xml:space="preserve" text-anchor="start" x="1058.25" y="-222.5" font-family="Helvetica,sans-Serif" font-size="10.00">mstd::function_traits</text>
<text xml:space="preserve" text-anchor="start" x="1058.25" y="-210.5" font-family="Helvetica,sans-Serif" font-size="10.00">&lt; R(Args...) volatile</text>
<text xml:space="preserve" text-anchor="middle" x="1102.88" y="-198.5" font-family="Helvetica,sans-Serif" font-size="10.00"> &amp;&amp;, C &gt;</text>
</a>
</g>
</g>
<!-- Node1&#45;&gt;Node10 -->
<g id="edge14_Node000001_Node000010" class="edge">
<title>Node1&#45;&gt;Node10</title>
<g id="a_edge14_Node000001_Node000010"><a xlink:title=" ">
<path fill="none" stroke="#63b8ff" d="M971.01,-124.56C999.61,-144.11 1040.76,-172.23 1069.25,-191.7"/>
<polygon fill="#63b8ff" stroke="#63b8ff" points="973.31,-121.89 963.08,-119.14 969.36,-127.67 973.31,-121.89"/>
</a>
</g>
</g>
<!-- Node13 -->
<g id="Node000013" class="node">
<title>Node13</title>
<g id="a_Node000013"><a xlink:href="../../de/dcb/structmstd_1_1function__traits_3_01_r_07_args_8_8_8_08_01volatile_01_6_00_01_c_01_4.html" target="_top" xlink:title=" ">
<polygon fill="white" stroke="#666666" points="1155.5,-156 1050.25,-156 1050.25,-112 1155.5,-112 1155.5,-156"/>
<text xml:space="preserve" text-anchor="start" x="1058.25" y="-142.5" font-family="Helvetica,sans-Serif" font-size="10.00">mstd::function_traits</text>
<text xml:space="preserve" text-anchor="start" x="1058.25" y="-130.5" font-family="Helvetica,sans-Serif" font-size="10.00">&lt; R(Args...) volatile</text>
<text xml:space="preserve" text-anchor="middle" x="1102.88" y="-118.5" font-family="Helvetica,sans-Serif" font-size="10.00"> &amp;, C &gt;</text>
</a>
</g>
</g>
<!-- Node1&#45;&gt;Node13 -->
<g id="edge17_Node000001_Node000013" class="edge">
<title>Node1&#45;&gt;Node13</title>
<g id="a_edge17_Node000001_Node000013"><a xlink:title=" ">
<path fill="none" stroke="#63b8ff" d="M1010.54,-116.16C1023.82,-118.76 1037.44,-121.42 1049.97,-123.86"/>
<polygon fill="#63b8ff" stroke="#63b8ff" points="1011.46,-112.78 1000.97,-114.3 1010.12,-119.65 1011.46,-112.78"/>
</a>
</g>
</g>
<!-- Node17 -->
<g id="Node000017" class="node">
<title>Node17</title>
<g id="a_Node000017"><a xlink:href="../../d8/dba/structmstd_1_1function__traits_3_01_r_07_args_8_8_8_08_01volatile_01noexcept_00_01_c_01_4.html" target="_top" xlink:title=" ">
<polygon fill="white" stroke="#666666" points="1155.5,-94 1050.25,-94 1050.25,-50 1155.5,-50 1155.5,-94"/>
<text xml:space="preserve" text-anchor="start" x="1058.25" y="-80.5" font-family="Helvetica,sans-Serif" font-size="10.00">mstd::function_traits</text>
<text xml:space="preserve" text-anchor="start" x="1058.25" y="-68.5" font-family="Helvetica,sans-Serif" font-size="10.00">&lt; R(Args...) volatile</text>
<text xml:space="preserve" text-anchor="middle" x="1102.88" y="-56.5" font-family="Helvetica,sans-Serif" font-size="10.00"> noexcept, C &gt;</text>
</a>
</g>
</g>
<!-- Node1&#45;&gt;Node17 -->
<g id="edge21_Node000001_Node000017" class="edge">
<title>Node1&#45;&gt;Node17</title>
<g id="a_edge21_Node000001_Node000017"><a xlink:title=" ">
<path fill="none" stroke="#63b8ff" d="M1010.54,-88.72C1023.82,-86.29 1037.44,-83.8 1049.97,-81.5"/>
<polygon fill="#63b8ff" stroke="#63b8ff" points="1010.18,-85.23 1000.98,-90.47 1011.44,-92.11 1010.18,-85.23"/>
</a>
</g>
</g>
<!-- Node19 -->
<g id="Node000019" class="node">
<title>Node19</title>
<g id="a_Node000019"><a xlink:href="../../d4/db6/structmstd_1_1function__traits_3_01_r_07_c_1_1_5_08_07_args_8_8_8_08_01volatile_01_4.html" target="_top" xlink:title=" ">
<polygon fill="white" stroke="#666666" points="1169.75,-32 1036,-32 1036,0 1169.75,0 1169.75,-32"/>
<text xml:space="preserve" text-anchor="start" x="1044" y="-18.5" font-family="Helvetica,sans-Serif" font-size="10.00">mstd::function_traits</text>
<text xml:space="preserve" text-anchor="middle" x="1102.88" y="-6.5" font-family="Helvetica,sans-Serif" font-size="10.00">&lt; R(C::*)(Args...) volatile &gt;</text>
</a>
</g>
</g>
<!-- Node1&#45;&gt;Node19 -->
<g id="edge23_Node000001_Node000019" class="edge">
<title>Node1&#45;&gt;Node19</title>
<g id="a_edge23_Node000001_Node000019"><a xlink:title=" ">
<path fill="none" stroke="#63b8ff" d="M970.88,-79.29C989.49,-67.03 1013.47,-52.16 1036,-41 1042.14,-37.96 1048.74,-35.05 1055.32,-32.37"/>
<polygon fill="#63b8ff" stroke="#63b8ff" points="969.05,-76.31 962.68,-84.78 972.94,-82.13 969.05,-76.31"/>
</a>
</g>
</g>
<!-- Node2 -->
<g id="Node000002" class="node">
<title>Node2</title>
<g id="a_Node000002"><a xlink:href="../../d0/d74/structmstd_1_1utils_1_1function__default__type__traits.html" target="_top" xlink:title=" ">
<polygon fill="white" stroke="#666666" points="317,-163 214.75,-163 214.75,-119 317,-119 317,-163"/>
<text xml:space="preserve" text-anchor="start" x="222.75" y="-149.5" font-family="Helvetica,sans-Serif" font-size="10.00">mstd::utils::function</text>
<text xml:space="preserve" text-anchor="start" x="222.75" y="-137.5" font-family="Helvetica,sans-Serif" font-size="10.00">_default_type_traits</text>
<text xml:space="preserve" text-anchor="middle" x="265.88" y="-125.5" font-family="Helvetica,sans-Serif" font-size="10.00">&lt; false &gt;</text>
</a>
</g>
</g>
<!-- Node2&#45;&gt;Node1 -->
<g id="edge1_Node000001_Node000002" class="edge">
<title>Node2&#45;&gt;Node1</title>
<g id="a_edge1_Node000001_Node000002"><a xlink:title=" ">
<path fill="none" stroke="#63b8ff" d="M328.25,-124.64C367.47,-115.05 419.59,-103.88 466.5,-99 612.23,-83.84 784.78,-91.45 874.64,-97.32"/>
<polygon fill="#63b8ff" stroke="#63b8ff" points="327.62,-121.19 318.75,-127 329.3,-127.99 327.62,-121.19"/>
</a>
</g>
</g>
<!-- Node4 -->
<g id="Node000004" class="node">
<title>Node4</title>
<g id="a_Node000004"><a xlink:href="../../dd/db6/structmstd_1_1function__traits_3_01_r_07_args_8_8_8_08_00_01_c_01_4.html" target="_top" xlink:title=" ">
<polygon fill="white" stroke="#666666" points="833.62,-184 728.38,-184 728.38,-152 833.62,-152 833.62,-184"/>
<text xml:space="preserve" text-anchor="start" x="736.38" y="-170.5" font-family="Helvetica,sans-Serif" font-size="10.00">mstd::function_traits</text>
<text xml:space="preserve" text-anchor="middle" x="781" y="-158.5" font-family="Helvetica,sans-Serif" font-size="10.00">&lt; R(Args...), C &gt;</text>
</a>
</g>
</g>
<!-- Node2&#45;&gt;Node4 -->
<g id="edge4_Node000004_Node000002" class="edge">
<title>Node2&#45;&gt;Node4</title>
<g id="a_edge4_Node000004_Node000002"><a xlink:title=" ">
<path fill="none" stroke="#63b8ff" d="M328.64,-145.83C334.59,-146.25 340.53,-146.65 346.25,-147 483.95,-155.54 646.43,-162.6 727.9,-165.93"/>
<polygon fill="#63b8ff" stroke="#63b8ff" points="328.98,-142.35 318.76,-145.12 328.48,-149.33 328.98,-142.35"/>
</a>
</g>
</g>
<!-- Node9 -->
<g id="Node000009" class="node">
<title>Node9</title>
<g id="a_Node000009"><a xlink:href="../../d7/dcb/structmstd_1_1function__traits.html" target="_top" xlink:title=" ">
<polygon fill="white" stroke="#666666" points="589.75,-140 484.5,-140 484.5,-108 589.75,-108 589.75,-140"/>
<text xml:space="preserve" text-anchor="start" x="492.5" y="-126.5" font-family="Helvetica,sans-Serif" font-size="10.00">mstd::function_traits</text>
<text xml:space="preserve" text-anchor="middle" x="537.12" y="-114.5" font-family="Helvetica,sans-Serif" font-size="10.00">&lt; F, C &gt;</text>
</a>
</g>
</g>
<!-- Node2&#45;&gt;Node9 -->
<g id="edge12_Node000009_Node000002" class="edge">
<title>Node2&#45;&gt;Node9</title>
<g id="a_edge12_Node000009_Node000002"><a xlink:title=" ">
<path fill="none" stroke="#63b8ff" d="M328.48,-137.11C375.56,-134.14 439.72,-130.09 484.21,-127.28"/>
<polygon fill="#63b8ff" stroke="#63b8ff" points="328.47,-133.6 318.71,-137.73 328.91,-140.59 328.47,-133.6"/>
</a>
</g>
</g>
<!-- Node3 -->
<g id="Node000003" class="node">
<title>Node3</title>
<g id="a_Node000003"><a xlink:href="../../d0/d74/structmstd_1_1utils_1_1function__default__type__traits.html" target="_top" xlink:title=" ">
<polygon fill="white" stroke="#666666" points="103,-209 0.75,-209 0.75,-165 103,-165 103,-209"/>
<text xml:space="preserve" text-anchor="start" x="8.75" y="-195.5" font-family="Helvetica,sans-Serif" font-size="10.00">mstd::utils::function</text>
<text xml:space="preserve" text-anchor="start" x="8.75" y="-183.5" font-family="Helvetica,sans-Serif" font-size="10.00">_default_type_traits</text>
<text xml:space="preserve" text-anchor="middle" x="51.88" y="-171.5" font-family="Helvetica,sans-Serif" font-size="10.00">&lt; IsMember &gt;</text>
</a>
</g>
</g>
<!-- Node3&#45;&gt;Node2 -->
<g id="edge2_Node000002_Node000003" class="edge">
<title>Node3&#45;&gt;Node2</title>
<g id="a_edge2_Node000002_Node000003"><a xlink:title=" ">
<path fill="none" stroke="orange" stroke-dasharray="5,2" d="M109.78,-160.68C113.79,-159.3 117.8,-158.06 121.75,-157 151.94,-148.93 186.78,-144.93 214.52,-142.94"/>
<polygon fill="orange" stroke="orange" points="108.84,-157.29 100.67,-164.05 111.27,-163.86 108.84,-157.29"/>
</a>
</g>
<text xml:space="preserve" text-anchor="start" x="134.12" y="-162.5" font-family="Helvetica,sans-Serif" font-size="10.00" fill="grey">&lt; false &gt;</text>
</g>
<!-- Node8 -->
<g id="Node000008" class="node">
<title>Node8</title>
<g id="a_Node000008"><a xlink:href="../../d0/d74/structmstd_1_1utils_1_1function__default__type__traits.html" target="_top" xlink:title=" ">
<polygon fill="white" stroke="#666666" points="448.5,-227 346.25,-227 346.25,-183 448.5,-183 448.5,-227"/>
<text xml:space="preserve" text-anchor="start" x="354.25" y="-213.5" font-family="Helvetica,sans-Serif" font-size="10.00">mstd::utils::function</text>
<text xml:space="preserve" text-anchor="start" x="354.25" y="-201.5" font-family="Helvetica,sans-Serif" font-size="10.00">_default_type_traits</text>
<text xml:space="preserve" text-anchor="middle" x="397.38" y="-189.5" font-family="Helvetica,sans-Serif" font-size="10.00">&lt; true &gt;</text>
</a>
</g>
</g>
<!-- Node3&#45;&gt;Node8 -->
<g id="edge10_Node000008_Node000003" class="edge">
<title>Node3&#45;&gt;Node8</title>
<g id="a_edge10_Node000008_Node000003"><a xlink:title=" ">
<path fill="none" stroke="orange" stroke-dasharray="5,2" d="M114.68,-190.24C180.83,-193.71 284.51,-199.14 345.92,-202.36"/>
<polygon fill="orange" stroke="orange" points="114.87,-186.74 104.7,-189.72 114.51,-193.73 114.87,-186.74"/>
</a>
</g>
<text xml:space="preserve" text-anchor="start" x="136.38" y="-199.21" font-family="Helvetica,sans-Serif" font-size="10.00" fill="grey">&lt; true &gt;</text>
</g>
<!-- Node4&#45;&gt;Node1 -->
<g id="edge3_Node000001_Node000004" class="edge">
<title>Node4&#45;&gt;Node1</title>
<g id="a_edge3_Node000001_Node000004"><a xlink:title=" ">
<path fill="none" stroke="#63b8ff" d="M830.77,-147.1C852.41,-137.82 877.51,-127.07 897.76,-118.39"/>
<polygon fill="#63b8ff" stroke="#63b8ff" points="829.67,-143.76 821.85,-150.92 832.42,-150.2 829.67,-143.76"/>
</a>
</g>
</g>
<!-- Node5 -->
<g id="Node000005" class="node">
<title>Node5</title>
<g id="a_Node000005"><a xlink:href="../../d1/d4f/structmstd_1_1utils_1_1function__core__traits_3_01_r_07_args_8_8_8_08_00_01_c_01_4.html" target="_top" xlink:title=" ">
<polygon fill="white" stroke="#666666" points="607.75,-266 466.5,-266 466.5,-234 607.75,-234 607.75,-266"/>
<text xml:space="preserve" text-anchor="start" x="474.5" y="-252.5" font-family="Helvetica,sans-Serif" font-size="10.00">mstd::utils::function</text>
<text xml:space="preserve" text-anchor="middle" x="537.12" y="-240.5" font-family="Helvetica,sans-Serif" font-size="10.00">_core_traits&lt; R(Args...), C &gt;</text>
</a>
</g>
</g>
<!-- Node5&#45;&gt;Node4 -->
<g id="edge5_Node000004_Node000005" class="edge">
<title>Node5&#45;&gt;Node4</title>
<g id="a_edge5_Node000004_Node000005"><a xlink:title=" ">
<path fill="none" stroke="#63b8ff" d="M618.92,-242.81C647.23,-238.42 678.74,-231.36 706,-220 726.73,-211.37 747.39,-196.15 761.59,-184.4"/>
<polygon fill="#63b8ff" stroke="#63b8ff" points="618.73,-239.3 609.34,-244.2 619.74,-246.23 618.73,-239.3"/>
</a>
</g>
</g>
<!-- Node6 -->
<g id="Node000006" class="node">
<title>Node6</title>
<g id="a_Node000006"><a xlink:href="../../df/db9/structmstd_1_1utils_1_1function__core__traits.html" target="_top" xlink:title=" ">
<polygon fill="white" stroke="#666666" points="328.25,-314 203.5,-314 203.5,-282 328.25,-282 328.25,-314"/>
<text xml:space="preserve" text-anchor="start" x="211.5" y="-300.5" font-family="Helvetica,sans-Serif" font-size="10.00">mstd::utils::function</text>
<text xml:space="preserve" text-anchor="middle" x="265.88" y="-288.5" font-family="Helvetica,sans-Serif" font-size="10.00">_core_traits&lt; R(Args...)&gt;</text>
</a>
</g>
</g>
<!-- Node6&#45;&gt;Node5 -->
<g id="edge6_Node000005_Node000006" class="edge">
<title>Node6&#45;&gt;Node5</title>
<g id="a_edge6_Node000005_Node000006"><a xlink:title=" ">
<path fill="none" stroke="#63b8ff" d="M339.74,-285.01C379.02,-278.01 427.26,-269.41 466.1,-262.48"/>
<polygon fill="#63b8ff" stroke="#63b8ff" points="339.37,-281.52 330.14,-286.72 340.6,-288.41 339.37,-281.52"/>
</a>
</g>
</g>
<!-- Node7 -->
<g id="Node000007" class="node">
<title>Node7</title>
<g id="a_Node000007"><a xlink:href="../../df/db9/structmstd_1_1utils_1_1function__core__traits.html" target="_top" xlink:title=" ">
<polygon fill="white" stroke="#666666" points="103.75,-274 0,-274 0,-242 103.75,-242 103.75,-274"/>
<text xml:space="preserve" text-anchor="start" x="8" y="-260.5" font-family="Helvetica,sans-Serif" font-size="10.00">mstd::utils::function</text>
<text xml:space="preserve" text-anchor="middle" x="51.88" y="-248.5" font-family="Helvetica,sans-Serif" font-size="10.00">_core_traits&lt; F, C &gt;</text>
</a>
</g>
</g>
<!-- Node7&#45;&gt;Node5 -->
<g id="edge8_Node000005_Node000007" class="edge">
<title>Node7&#45;&gt;Node5</title>
<g id="a_edge8_Node000005_Node000007"><a xlink:title=" ">
<path fill="none" stroke="orange" stroke-dasharray="5,2" d="M115.39,-256.69C142.48,-256.14 174.55,-255.51 203.5,-255 294.16,-253.42 398.72,-251.89 466.04,-250.95"/>
<polygon fill="orange" stroke="orange" points="115.55,-253.18 105.63,-256.89 115.7,-260.18 115.55,-253.18"/>
</a>
</g>
<text xml:space="preserve" text-anchor="start" x="228.75" y="-260.5" font-family="Helvetica,sans-Serif" font-size="10.00" fill="grey">&lt; R(Args...), C &gt;</text>
</g>
<!-- Node7&#45;&gt;Node6 -->
<g id="edge7_Node000006_Node000007" class="edge">
<title>Node7&#45;&gt;Node6</title>
<g id="a_edge7_Node000006_Node000007"><a xlink:title=" ">
<path fill="none" stroke="orange" stroke-dasharray="5,2" d="M115.34,-269.79C143.01,-275.01 175.48,-281.13 203.08,-286.34"/>
<polygon fill="orange" stroke="orange" points="116.16,-266.38 105.68,-267.96 114.86,-273.26 116.16,-266.38"/>
</a>
</g>
<text xml:space="preserve" text-anchor="start" x="124.75" y="-288.26" font-family="Helvetica,sans-Serif" font-size="10.00" fill="grey">&lt; R(Args...)&gt;</text>
</g>
<!-- Node8&#45;&gt;Node4 -->
<g id="edge9_Node000004_Node000008" class="edge">
<title>Node8&#45;&gt;Node4</title>
<g id="a_edge9_Node000004_Node000008"><a xlink:title=" ">
<path fill="none" stroke="#63b8ff" d="M460.1,-202.43C522.36,-199.35 621.15,-193.16 706,-182 713.13,-181.06 720.61,-179.88 727.97,-178.6"/>
<polygon fill="#63b8ff" stroke="#63b8ff" points="460.24,-198.92 450.42,-202.89 460.58,-205.91 460.24,-198.92"/>
</a>
</g>
</g>
<!-- Node9&#45;&gt;Node1 -->
<g id="edge13_Node000001_Node000009" class="edge">
<title>Node9&#45;&gt;Node1</title>
<g id="a_edge13_Node000001_Node000009"><a xlink:title=" ">
<path fill="none" stroke="orange" stroke-dasharray="5,2" d="M601.28,-120.51C676.21,-116.36 800.3,-109.5 874.5,-105.4"/>
<polygon fill="orange" stroke="orange" points="601.44,-116.99 591.65,-121.04 601.83,-123.98 601.44,-116.99"/>
</a>
</g>
<text xml:space="preserve" text-anchor="start" x="727" y="-119.14" font-family="Helvetica,sans-Serif" font-size="10.00" fill="grey">&lt; R(Args...) volatile, C &gt;</text>
</g>
<!-- Node9&#45;&gt;Node4 -->
<g id="edge11_Node000004_Node000009" class="edge">
<title>Node9&#45;&gt;Node4</title>
<g id="a_edge11_Node000004_Node000009"><a xlink:title=" ">
<path fill="none" stroke="orange" stroke-dasharray="5,2" d="M601.25,-123.52C633.06,-124.53 672,-127.69 706,-136 720.41,-139.52 735.58,-145.62 748.4,-151.54"/>
<polygon fill="orange" stroke="orange" points="601.47,-120.02 591.39,-123.27 601.3,-127.02 601.47,-120.02"/>
</a>
</g>
<text xml:space="preserve" text-anchor="start" x="628.75" y="-141.5" font-family="Helvetica,sans-Serif" font-size="10.00" fill="grey">&lt; R(Args...), C &gt;</text>
</g>
<!-- Node11 -->
<g id="Node000011" class="node">
<title>Node11</title>
<g id="a_Node000011"><a xlink:href="../../dc/d98/structmstd_1_1function__traits_3_01_r_07_args_8_8_8_08_01volatile_01_6_6noexcept_00_01_c_01_4.html" target="_top" xlink:title=" ">
<polygon fill="white" stroke="#666666" points="1334.5,-236 1229.25,-236 1229.25,-192 1334.5,-192 1334.5,-236"/>
<text xml:space="preserve" text-anchor="start" x="1237.25" y="-222.5" font-family="Helvetica,sans-Serif" font-size="10.00">mstd::function_traits</text>
<text xml:space="preserve" text-anchor="start" x="1237.25" y="-210.5" font-family="Helvetica,sans-Serif" font-size="10.00">&lt; R(Args...) volatile</text>
<text xml:space="preserve" text-anchor="middle" x="1281.88" y="-198.5" font-family="Helvetica,sans-Serif" font-size="10.00"> &amp;&amp;noexcept, C &gt;</text>
</a>
</g>
</g>
<!-- Node10&#45;&gt;Node11 -->
<g id="edge15_Node000010_Node000011" class="edge">
<title>Node10&#45;&gt;Node11</title>
<g id="a_edge15_Node000010_Node000011"><a xlink:title=" ">
<path fill="none" stroke="#63b8ff" d="M1166.91,-214C1187.19,-214 1209.43,-214 1228.83,-214"/>
<polygon fill="#63b8ff" stroke="#63b8ff" points="1167.06,-210.5 1157.06,-214 1167.06,-217.5 1167.06,-210.5"/>
</a>
</g>
</g>
<!-- Node12 -->
<g id="Node000012" class="node">
<title>Node12</title>
<g id="a_Node000012"><a xlink:href="../../d4/d21/structmstd_1_1function__traits_3_01_r_07_c_1_1_5_08_07_args_8_8_8_08_01volatile_01_6_6_01_4.html" target="_top" xlink:title=" ">
<polygon fill="white" stroke="#666666" points="1357,-286 1206.75,-286 1206.75,-254 1357,-254 1357,-286"/>
<text xml:space="preserve" text-anchor="start" x="1214.75" y="-272.5" font-family="Helvetica,sans-Serif" font-size="10.00">mstd::function_traits</text>
<text xml:space="preserve" text-anchor="middle" x="1281.88" y="-260.5" font-family="Helvetica,sans-Serif" font-size="10.00">&lt; R(C::*)(Args...) volatile &amp;&amp; &gt;</text>
</a>
</g>
</g>
<!-- Node10&#45;&gt;Node12 -->
<g id="edge16_Node000010_Node000012" class="edge">
<title>Node10&#45;&gt;Node12</title>
<g id="a_edge16_Node000010_Node000012"><a xlink:title=" ">
<path fill="none" stroke="#63b8ff" d="M1166.34,-233.76C1186.78,-240.23 1209.25,-247.34 1228.83,-253.53"/>
<polygon fill="#63b8ff" stroke="#63b8ff" points="1167.58,-230.48 1156.99,-230.8 1165.47,-237.16 1167.58,-230.48"/>
</a>
</g>
</g>
<!-- Node14 -->
<g id="Node000014" class="node">
<title>Node14</title>
<g id="a_Node000014"><a xlink:href="../../d1/df3/structmstd_1_1function__traits_3_01_r_07_args_8_8_8_08_01volatile_01_6noexcept_00_01_c_01_4.html" target="_top" xlink:title=" ">
<polygon fill="white" stroke="#666666" points="1334.5,-124 1229.25,-124 1229.25,-80 1334.5,-80 1334.5,-124"/>
<text xml:space="preserve" text-anchor="start" x="1237.25" y="-110.5" font-family="Helvetica,sans-Serif" font-size="10.00">mstd::function_traits</text>
<text xml:space="preserve" text-anchor="start" x="1237.25" y="-98.5" font-family="Helvetica,sans-Serif" font-size="10.00">&lt; R(Args...) volatile</text>
<text xml:space="preserve" text-anchor="middle" x="1281.88" y="-86.5" font-family="Helvetica,sans-Serif" font-size="10.00"> &amp;noexcept, C &gt;</text>
</a>
</g>
</g>
<!-- Node13&#45;&gt;Node14 -->
<g id="edge18_Node000013_Node000014" class="edge">
<title>Node13&#45;&gt;Node14</title>
<g id="a_edge18_Node000013_Node000014"><a xlink:title=" ">
<path fill="none" stroke="#63b8ff" d="M1166.62,-122.66C1186.98,-118.97 1209.34,-114.93 1228.83,-111.41"/>
<polygon fill="#63b8ff" stroke="#63b8ff" points="1166.25,-119.17 1157.04,-124.39 1167.5,-126.05 1166.25,-119.17"/>
</a>
</g>
</g>
<!-- Node16 -->
<g id="Node000016" class="node">
<title>Node16</title>
<g id="a_Node000016"><a xlink:href="../../d9/dbb/structmstd_1_1function__traits_3_01_r_07_c_1_1_5_08_07_args_8_8_8_08_01volatile_01_6_01_4.html" target="_top" xlink:title=" ">
<polygon fill="white" stroke="#666666" points="1353.62,-174 1210.12,-174 1210.12,-142 1353.62,-142 1353.62,-174"/>
<text xml:space="preserve" text-anchor="start" x="1218.12" y="-160.5" font-family="Helvetica,sans-Serif" font-size="10.00">mstd::function_traits</text>
<text xml:space="preserve" text-anchor="middle" x="1281.88" y="-148.5" font-family="Helvetica,sans-Serif" font-size="10.00">&lt; R(C::*)(Args...) volatile &amp; &gt;</text>
</a>
</g>
</g>
<!-- Node13&#45;&gt;Node16 -->
<g id="edge20_Node000013_Node000016" class="edge">
<title>Node13&#45;&gt;Node16</title>
<g id="a_edge20_Node000013_Node000016"><a xlink:title=" ">
<path fill="none" stroke="#63b8ff" d="M1166.94,-142.55C1180.81,-144.43 1195.58,-146.43 1209.73,-148.35"/>
<polygon fill="#63b8ff" stroke="#63b8ff" points="1167.43,-139.09 1157.05,-141.21 1166.49,-146.02 1167.43,-139.09"/>
</a>
</g>
</g>
<!-- Node15 -->
<g id="Node000015" class="node">
<title>Node15</title>
<g id="a_Node000015"><a xlink:href="../../de/d57/structmstd_1_1function__traits_3_01_r_07_c_1_1_5_08_07_args_8_8_8_08_01volatile_01_6noexcept_01_4.html" target="_top" xlink:title=" ">
<polygon fill="white" stroke="#666666" points="1518.75,-124 1394,-124 1394,-80 1518.75,-80 1518.75,-124"/>
<text xml:space="preserve" text-anchor="start" x="1402" y="-110.5" font-family="Helvetica,sans-Serif" font-size="10.00">mstd::function_traits</text>
<text xml:space="preserve" text-anchor="start" x="1402" y="-98.5" font-family="Helvetica,sans-Serif" font-size="10.00">&lt; R(C::*)(Args...) volatile</text>
<text xml:space="preserve" text-anchor="middle" x="1456.38" y="-86.5" font-family="Helvetica,sans-Serif" font-size="10.00"> &amp;noexcept &gt;</text>
</a>
</g>
</g>
<!-- Node14&#45;&gt;Node15 -->
<g id="edge19_Node000014_Node000015" class="edge">
<title>Node14&#45;&gt;Node15</title>
<g id="a_edge19_Node000014_Node000015"><a xlink:title=" ">
<path fill="none" stroke="#63b8ff" d="M1345.76,-102C1361.37,-102 1378.07,-102 1393.62,-102"/>
<polygon fill="#63b8ff" stroke="#63b8ff" points="1346.14,-98.5 1336.14,-102 1346.14,-105.5 1346.14,-98.5"/>
</a>
</g>
</g>
<!-- Node18 -->
<g id="Node000018" class="node">
<title>Node18</title>
<g id="a_Node000018"><a xlink:href="../../d5/dda/structmstd_1_1function__traits_3_01_r_07_c_1_1_5_08_07_args_8_8_8_08_01volatile_01noexcept_01_4.html" target="_top" xlink:title=" ">
<polygon fill="white" stroke="#666666" points="1344.25,-62 1219.5,-62 1219.5,-18 1344.25,-18 1344.25,-62"/>
<text xml:space="preserve" text-anchor="start" x="1227.5" y="-48.5" font-family="Helvetica,sans-Serif" font-size="10.00">mstd::function_traits</text>
<text xml:space="preserve" text-anchor="start" x="1227.5" y="-36.5" font-family="Helvetica,sans-Serif" font-size="10.00">&lt; R(C::*)(Args...) volatile</text>
<text xml:space="preserve" text-anchor="middle" x="1281.88" y="-24.5" font-family="Helvetica,sans-Serif" font-size="10.00"> noexcept &gt;</text>
</a>
</g>
</g>
<!-- Node17&#45;&gt;Node18 -->
<g id="edge22_Node000017_Node000018" class="edge">
<title>Node17&#45;&gt;Node18</title>
<g id="a_edge22_Node000017_Node000018"><a xlink:title=" ">
<path fill="none" stroke="#63b8ff" d="M1166.54,-60.67C1183.61,-57.58 1202.09,-54.24 1219.12,-51.16"/>
<polygon fill="#63b8ff" stroke="#63b8ff" points="1166.25,-57.17 1157.04,-62.39 1167.5,-64.05 1166.25,-57.17"/>
</a>
</g>
</g>
</g>
</svg>
