<?xml version="1.0" encoding="UTF-8" standalone="no"?>
<!DOCTYPE svg PUBLIC "-//W3C//DTD SVG 1.1//EN"
 "http://www.w3.org/Graphics/SVG/1.1/DTD/svg11.dtd">
<!-- Generated by graphviz version 14.1.1 (20251213.1925)
 -->
<!-- Title: mstd::function_traits&lt; R(Args...) const volatile, C &gt; Pages: 1 -->
<!--zoomable 394 -->

<svg id="main" version="1.1" xmlns="http://www.w3.org/2000/svg" xmlns:xlink="http://www.w3.org/1999/xlink" xml:space="preserve" onload="init(evt)">

<style type="text/css"><![CDATA[
.node, .edge {opacity: 0.7;}
.node.selected, .edge.selected {opacity: 1;}
.edge:hover path { stroke: red; }
.edge:hover polygon { stroke: red; fill: red; }
]]></style>

<defs>
  <circle id="rim" cx="0" cy="0" r="7"/>
  <circle id="rim2" cx="0" cy="0" r="3.5"/>
  <g id="zoomPlus">
    <use xlink:href="#rim" fill="#404040"><set attributeName="fill" to="#808080" begin="zoomplus.mouseover" end="zoomplus.mouseout"/></use>
    <path d="M-4,0h8M0,-4v8" fill="none" stroke="white" stroke-width="1.5" pointer-events="none"/>
  </g>
  <g id="zoomMin">
    <use xlink:href="#rim" fill="#404040"><set attributeName="fill" to="#808080" begin="zoomminus.mouseover" end="zoomminus.mouseout"/></use>
    <path d="M-4,0h8" fill="none" stroke="white" stroke-width="1.5" pointer-events="none"/>
  </g>
  <g id="arrowUp" transform="translate(30 24)">
    <use xlink:href="#rim"/>
    <path pointer-events="none" fill="none" stroke="white" stroke-width="1.5" d="M0,-3.0v7 M-2.5,-0.5L0,-3.0L2.5,-0.5"/>
  </g>
  <g id="arrowRight" transform="rotate(90) translate(36 -43)">
    <use xlink:href="#rim"/>
    <path pointer-events="none" fill="none" stroke="white" stroke-width="1.5" d="M0,-3.0v7 M-2.5,-0.5L0,-3.0L2.5,-0.5"/>
  </g>
  <g id="arrowDown" transform="rotate(180) translate(-30 -48)">
    <use xlink:href="#rim"/>
    <path pointer-events="none" fill="none" stroke="white" stroke-width="1.5" d="M0,-3.0v7 M-2.5,-0.5L0,-3.0L2.5,-0.5"/>
  </g>
  <g id="arrowLeft" transform="rotate(270) translate(-36 17)">
    <use xlink:href="#rim"/>
    <path pointer-events="none" fill="none" stroke="white" stroke-width="1.5" d="M0,-3.0v7 M-2.5,-0.5L0,-3.0L2.5,-0.5"/>
  </g>
  <g id="resetDef">
    <use xlink:href="#rim2" fill="#404040"><set attributeName="fill" to="#808080" begin="reset.mouseover" end="reset.mouseout"/></use>
  </g>
</defs>
<script type="application/ecmascript">
var viewWidth = 1751;
var viewHeight = 394;
var sectionId = 'dynsection-0';
</script>
<script type="application/ecmascript" xlink:href="../../svg.min.js"/>
<svg id="graph" class="graph">
<g id="viewport">
<title>mstd::function_traits&lt; R(Args...) const volatile, C &gt;</title>
<!-- Node1 -->
<g id="Node000001" class="node">
<title>Node1</title>
<g id="a_Node000001"><a xlink:title=" ">
<polygon fill="#999999" stroke="#666666" points="1257.25,-130 1106.25,-130 1106.25,-98 1257.25,-98 1257.25,-130"/>
<text xml:space="preserve" text-anchor="start" x="1114.25" y="-116.5" font-family="Helvetica,sans-Serif" font-size="10.00">mstd::function_traits</text>
<text xml:space="preserve" text-anchor="middle" x="1181.75" y="-104.5" font-family="Helvetica,sans-Serif" font-size="10.00">&lt; R(Args...) const volatile, C &gt;</text>
</a>
</g>
</g>
<!-- Node11 -->
<g id="Node000011" class="node">
<title>Node11</title>
<g id="a_Node000011"><a xlink:href="../../d7/d15/structmstd_1_1function__traits_3_01_r_07_args_8_8_8_08_01const_01volatile_01_6_6_00_01_c_01_4.html" target="_top" xlink:title=" ">
<polygon fill="white" stroke="#666666" points="1422.75,-256 1294.25,-256 1294.25,-212 1422.75,-212 1422.75,-256"/>
<text xml:space="preserve" text-anchor="start" x="1302.25" y="-242.5" font-family="Helvetica,sans-Serif" font-size="10.00">mstd::function_traits</text>
<text xml:space="preserve" text-anchor="start" x="1302.25" y="-230.5" font-family="Helvetica,sans-Serif" font-size="10.00">&lt; R(Args...) const volatile</text>
<text xml:space="preserve" text-anchor="middle" x="1358.5" y="-218.5" font-family="Helvetica,sans-Serif" font-size="10.00"> &amp;&amp;, C &gt;</text>
</a>
</g>
</g>
<!-- Node1&#45;&gt;Node11 -->
<g id="edge17_Node000001_Node000011" class="edge">
<title>Node1&#45;&gt;Node11</title>
<g id="a_edge17_Node000001_Node000011"><a xlink:title=" ">
<path fill="none" stroke="#63b8ff" d="M1215.87,-136.74C1247.16,-158.23 1293.83,-190.28 1324.94,-211.64"/>
<polygon fill="#63b8ff" stroke="#63b8ff" points="1218.15,-134.07 1207.93,-131.29 1214.19,-139.84 1218.15,-134.07"/>
</a>
</g>
</g>
<!-- Node15 -->
<g id="Node000015" class="node">
<title>Node15</title>
<g id="a_Node000015"><a xlink:href="../../dd/d03/structmstd_1_1function__traits_3_01_r_07_args_8_8_8_08_01const_01volatile_01_6_00_01_c_01_4.html" target="_top" xlink:title=" ">
<polygon fill="white" stroke="#666666" points="1422.75,-168 1294.25,-168 1294.25,-124 1422.75,-124 1422.75,-168"/>
<text xml:space="preserve" text-anchor="start" x="1302.25" y="-154.5" font-family="Helvetica,sans-Serif" font-size="10.00">mstd::function_traits</text>
<text xml:space="preserve" text-anchor="start" x="1302.25" y="-142.5" font-family="Helvetica,sans-Serif" font-size="10.00">&lt; R(Args...) const volatile</text>
<text xml:space="preserve" text-anchor="middle" x="1358.5" y="-130.5" font-family="Helvetica,sans-Serif" font-size="10.00"> &amp;, C &gt;</text>
</a>
</g>
</g>
<!-- Node1&#45;&gt;Node15 -->
<g id="edge21_Node000001_Node000015" class="edge">
<title>Node1&#45;&gt;Node15</title>
<g id="a_edge21_Node000001_Node000015"><a xlink:title=" ">
<path fill="none" stroke="#63b8ff" d="M1268.69,-129.74C1277.14,-131.28 1285.61,-132.84 1293.78,-134.33"/>
<polygon fill="#63b8ff" stroke="#63b8ff" points="1269.58,-126.34 1259.11,-127.98 1268.31,-133.23 1269.58,-126.34"/>
</a>
</g>
</g>
<!-- Node19 -->
<g id="Node000019" class="node">
<title>Node19</title>
<g id="a_Node000019"><a xlink:href="../../d1/d86/structmstd_1_1function__traits_3_01_r_07_args_8_8_8_08_01const_01volatile_01noexcept_00_01_c_01_4.html" target="_top" xlink:title=" ">
<polygon fill="white" stroke="#666666" points="1422.75,-106 1294.25,-106 1294.25,-62 1422.75,-62 1422.75,-106"/>
<text xml:space="preserve" text-anchor="start" x="1302.25" y="-92.5" font-family="Helvetica,sans-Serif" font-size="10.00">mstd::function_traits</text>
<text xml:space="preserve" text-anchor="start" x="1302.25" y="-80.5" font-family="Helvetica,sans-Serif" font-size="10.00">&lt; R(Args...) const volatile</text>
<text xml:space="preserve" text-anchor="middle" x="1358.5" y="-68.5" font-family="Helvetica,sans-Serif" font-size="10.00"> noexcept, C &gt;</text>
</a>
</g>
</g>
<!-- Node1&#45;&gt;Node19 -->
<g id="edge25_Node000001_Node000019" class="edge">
<title>Node1&#45;&gt;Node19</title>
<g id="a_edge25_Node000001_Node000019"><a xlink:title=" ">
<path fill="none" stroke="#63b8ff" d="M1268.69,-99.25C1277.14,-97.8 1285.61,-96.34 1293.78,-94.94"/>
<polygon fill="#63b8ff" stroke="#63b8ff" points="1268.38,-95.75 1259.11,-100.89 1269.56,-102.65 1268.38,-95.75"/>
</a>
</g>
</g>
<!-- Node21 -->
<g id="Node000021" class="node">
<title>Node21</title>
<g id="a_Node000021"><a xlink:href="../../dd/dd4/structmstd_1_1function__traits_3_01_r_07_c_1_1_5_08_07_args_8_8_8_08_01const_01volatile_01_4.html" target="_top" xlink:title=" ">
<polygon fill="white" stroke="#666666" points="1417.5,-44 1299.5,-44 1299.5,0 1417.5,0 1417.5,-44"/>
<text xml:space="preserve" text-anchor="start" x="1307.5" y="-30.5" font-family="Helvetica,sans-Serif" font-size="10.00">mstd::function_traits</text>
<text xml:space="preserve" text-anchor="start" x="1307.5" y="-18.5" font-family="Helvetica,sans-Serif" font-size="10.00">&lt; R(C::*)(Args...) const</text>
<text xml:space="preserve" text-anchor="middle" x="1358.5" y="-6.5" font-family="Helvetica,sans-Serif" font-size="10.00"> volatile &gt;</text>
</a>
</g>
</g>
<!-- Node1&#45;&gt;Node21 -->
<g id="edge27_Node000001_Node000021" class="edge">
<title>Node1&#45;&gt;Node21</title>
<g id="a_edge27_Node000001_Node000021"><a xlink:title=" ">
<path fill="none" stroke="#63b8ff" d="M1221.87,-92.04C1243.15,-80.24 1270.01,-65.56 1294.25,-53 1299.68,-50.19 1305.4,-47.29 1311.09,-44.45"/>
<polygon fill="#63b8ff" stroke="#63b8ff" points="1220.26,-88.93 1213.23,-96.85 1223.67,-95.05 1220.26,-88.93"/>
</a>
</g>
</g>
<!-- Node2 -->
<g id="Node000002" class="node">
<title>Node2</title>
<g id="a_Node000002"><a xlink:href="../../d0/d74/structmstd_1_1utils_1_1function__default__type__traits.html" target="_top" xlink:title=" ">
<polygon fill="white" stroke="#666666" points="317,-203 214.75,-203 214.75,-159 317,-159 317,-203"/>
<text xml:space="preserve" text-anchor="start" x="222.75" y="-189.5" font-family="Helvetica,sans-Serif" font-size="10.00">mstd::utils::function</text>
<text xml:space="preserve" text-anchor="start" x="222.75" y="-177.5" font-family="Helvetica,sans-Serif" font-size="10.00">_default_type_traits</text>
<text xml:space="preserve" text-anchor="middle" x="265.88" y="-165.5" font-family="Helvetica,sans-Serif" font-size="10.00">&lt; false &gt;</text>
</a>
</g>
</g>
<!-- Node2&#45;&gt;Node1 -->
<g id="edge1_Node000001_Node000002" class="edge">
<title>Node2&#45;&gt;Node1</title>
<g id="a_edge1_Node000001_Node000002"><a xlink:title=" ">
<path fill="none" stroke="#63b8ff" d="M306.24,-152.21C356.79,-118.15 448.5,-66 536.12,-66 536.12,-66 536.12,-66 1011.62,-66 1059.09,-66 1111.29,-83.71 1144.96,-97.62"/>
<polygon fill="#63b8ff" stroke="#63b8ff" points="304.5,-149.16 298.23,-157.7 308.46,-154.93 304.5,-149.16"/>
</a>
</g>
</g>
<!-- Node4 -->
<g id="Node000004" class="node">
<title>Node4</title>
<g id="a_Node000004"><a xlink:href="../../df/d15/structmstd_1_1function__traits_3_01_r_07_args_8_8_8_08_01const_00_01_c_01_4.html" target="_top" xlink:title=" ">
<polygon fill="white" stroke="#666666" points="1069.25,-191 952,-191 952,-159 1069.25,-159 1069.25,-191"/>
<text xml:space="preserve" text-anchor="start" x="960" y="-177.5" font-family="Helvetica,sans-Serif" font-size="10.00">mstd::function_traits</text>
<text xml:space="preserve" text-anchor="middle" x="1010.62" y="-165.5" font-family="Helvetica,sans-Serif" font-size="10.00">&lt; R(Args...) const, C &gt;</text>
</a>
</g>
</g>
<!-- Node2&#45;&gt;Node4 -->
<g id="edge4_Node000004_Node000002" class="edge">
<title>Node2&#45;&gt;Node4</title>
<g id="a_edge4_Node000004_Node000002"><a xlink:title=" ">
<path fill="none" stroke="#63b8ff" d="M328.43,-171.28C367.8,-165.56 420.02,-158.9 466.5,-156 643.06,-144.99 852.34,-160.3 951.7,-169.28"/>
<polygon fill="#63b8ff" stroke="#63b8ff" points="328.05,-167.8 318.67,-172.72 329.07,-174.72 328.05,-167.8"/>
</a>
</g>
</g>
<!-- Node5 -->
<g id="Node000005" class="node">
<title>Node5</title>
<g id="a_Node000005"><a xlink:href="../../dd/db6/structmstd_1_1function__traits_3_01_r_07_args_8_8_8_08_00_01_c_01_4.html" target="_top" xlink:title=" ">
<polygon fill="white" stroke="#666666" points="830.25,-263 725,-263 725,-231 830.25,-231 830.25,-263"/>
<text xml:space="preserve" text-anchor="start" x="733" y="-249.5" font-family="Helvetica,sans-Serif" font-size="10.00">mstd::function_traits</text>
<text xml:space="preserve" text-anchor="middle" x="777.62" y="-237.5" font-family="Helvetica,sans-Serif" font-size="10.00">&lt; R(Args...), C &gt;</text>
</a>
</g>
</g>
<!-- Node2&#45;&gt;Node5 -->
<g id="edge6_Node000005_Node000002" class="edge">
<title>Node2&#45;&gt;Node5</title>
<g id="a_edge6_Node000005_Node000002"><a xlink:title=" ">
<path fill="none" stroke="#63b8ff" d="M328.15,-192.06C334.26,-193.08 340.37,-194.08 346.25,-195 470.11,-214.34 501.2,-218.76 625.75,-233 658.55,-236.75 695.45,-240.19 724.55,-242.72"/>
<polygon fill="#63b8ff" stroke="#63b8ff" points="329.15,-188.68 318.71,-190.44 327.97,-195.58 329.15,-188.68"/>
</a>
</g>
</g>
<!-- Node10 -->
<g id="Node000010" class="node">
<title>Node10</title>
<g id="a_Node000010"><a xlink:href="../../d7/dcb/structmstd_1_1function__traits.html" target="_top" xlink:title=" ">
<polygon fill="white" stroke="#666666" points="589.75,-197 484.5,-197 484.5,-165 589.75,-165 589.75,-197"/>
<text xml:space="preserve" text-anchor="start" x="492.5" y="-183.5" font-family="Helvetica,sans-Serif" font-size="10.00">mstd::function_traits</text>
<text xml:space="preserve" text-anchor="middle" x="537.12" y="-171.5" font-family="Helvetica,sans-Serif" font-size="10.00">&lt; F, C &gt;</text>
</a>
</g>
</g>
<!-- Node2&#45;&gt;Node10 -->
<g id="edge14_Node000010_Node000002" class="edge">
<title>Node2&#45;&gt;Node10</title>
<g id="a_edge14_Node000010_Node000002"><a xlink:title=" ">
<path fill="none" stroke="#63b8ff" d="M328.48,-181C375.56,-181 439.72,-181 484.21,-181"/>
<polygon fill="#63b8ff" stroke="#63b8ff" points="328.72,-177.5 318.72,-181 328.72,-184.5 328.72,-177.5"/>
</a>
</g>
</g>
<!-- Node3 -->
<g id="Node000003" class="node">
<title>Node3</title>
<g id="a_Node000003"><a xlink:href="../../d0/d74/structmstd_1_1utils_1_1function__default__type__traits.html" target="_top" xlink:title=" ">
<polygon fill="white" stroke="#666666" points="103,-281 0.75,-281 0.75,-237 103,-237 103,-281"/>
<text xml:space="preserve" text-anchor="start" x="8.75" y="-267.5" font-family="Helvetica,sans-Serif" font-size="10.00">mstd::utils::function</text>
<text xml:space="preserve" text-anchor="start" x="8.75" y="-255.5" font-family="Helvetica,sans-Serif" font-size="10.00">_default_type_traits</text>
<text xml:space="preserve" text-anchor="middle" x="51.88" y="-243.5" font-family="Helvetica,sans-Serif" font-size="10.00">&lt; IsMember &gt;</text>
</a>
</g>
</g>
<!-- Node3&#45;&gt;Node2 -->
<g id="edge2_Node000002_Node000003" class="edge">
<title>Node3&#45;&gt;Node2</title>
<g id="a_edge2_Node000002_Node000003"><a xlink:title=" ">
<path fill="none" stroke="orange" stroke-dasharray="5,2" d="M107.61,-231.92C112.36,-229.83 117.12,-227.83 121.75,-226 151.92,-214.1 186.59,-203.13 214.26,-195"/>
<polygon fill="orange" stroke="orange" points="106.34,-228.65 98.67,-235.96 109.23,-235.03 106.34,-228.65"/>
</a>
</g>
<text xml:space="preserve" text-anchor="start" x="134.12" y="-231.5" font-family="Helvetica,sans-Serif" font-size="10.00" fill="grey">&lt; false &gt;</text>
</g>
<!-- Node9 -->
<g id="Node000009" class="node">
<title>Node9</title>
<g id="a_Node000009"><a xlink:href="../../d0/d74/structmstd_1_1utils_1_1function__default__type__traits.html" target="_top" xlink:title=" ">
<polygon fill="white" stroke="#666666" points="448.5,-299 346.25,-299 346.25,-255 448.5,-255 448.5,-299"/>
<text xml:space="preserve" text-anchor="start" x="354.25" y="-285.5" font-family="Helvetica,sans-Serif" font-size="10.00">mstd::utils::function</text>
<text xml:space="preserve" text-anchor="start" x="354.25" y="-273.5" font-family="Helvetica,sans-Serif" font-size="10.00">_default_type_traits</text>
<text xml:space="preserve" text-anchor="middle" x="397.38" y="-261.5" font-family="Helvetica,sans-Serif" font-size="10.00">&lt; true &gt;</text>
</a>
</g>
</g>
<!-- Node3&#45;&gt;Node9 -->
<g id="edge12_Node000009_Node000003" class="edge">
<title>Node3&#45;&gt;Node9</title>
<g id="a_edge12_Node000009_Node000003"><a xlink:title=" ">
<path fill="none" stroke="orange" stroke-dasharray="5,2" d="M114.68,-262.24C180.83,-265.71 284.51,-271.14 345.92,-274.36"/>
<polygon fill="orange" stroke="orange" points="114.87,-258.74 104.7,-261.72 114.51,-265.73 114.87,-258.74"/>
</a>
</g>
<text xml:space="preserve" text-anchor="start" x="136.38" y="-271.21" font-family="Helvetica,sans-Serif" font-size="10.00" fill="grey">&lt; true &gt;</text>
</g>
<!-- Node4&#45;&gt;Node1 -->
<g id="edge3_Node000001_Node000004" class="edge">
<title>Node4&#45;&gt;Node1</title>
<g id="a_edge3_Node000001_Node000004"><a xlink:title=" ">
<path fill="none" stroke="#63b8ff" d="M1067.74,-154.76C1089.58,-146.88 1114.28,-137.97 1135.01,-130.5"/>
<polygon fill="#63b8ff" stroke="#63b8ff" points="1066.59,-151.45 1058.37,-158.14 1068.97,-158.04 1066.59,-151.45"/>
</a>
</g>
</g>
<!-- Node5&#45;&gt;Node4 -->
<g id="edge5_Node000004_Node000005" class="edge">
<title>Node5&#45;&gt;Node4</title>
<g id="a_edge5_Node000004_Node000005"><a xlink:title=" ">
<path fill="none" stroke="#63b8ff" d="M841.64,-229.69C869.99,-221.66 903.8,-211.75 934,-202 944.08,-198.74 954.84,-195.04 964.99,-191.44"/>
<polygon fill="#63b8ff" stroke="#63b8ff" points="840.79,-226.3 832.11,-232.38 842.69,-233.03 840.79,-226.3"/>
</a>
</g>
</g>
<!-- Node6 -->
<g id="Node000006" class="node">
<title>Node6</title>
<g id="a_Node000006"><a xlink:href="../../d1/d4f/structmstd_1_1utils_1_1function__core__traits_3_01_r_07_args_8_8_8_08_00_01_c_01_4.html" target="_top" xlink:title=" ">
<polygon fill="white" stroke="#666666" points="607.75,-338 466.5,-338 466.5,-306 607.75,-306 607.75,-338"/>
<text xml:space="preserve" text-anchor="start" x="474.5" y="-324.5" font-family="Helvetica,sans-Serif" font-size="10.00">mstd::utils::function</text>
<text xml:space="preserve" text-anchor="middle" x="537.12" y="-312.5" font-family="Helvetica,sans-Serif" font-size="10.00">_core_traits&lt; R(Args...), C &gt;</text>
</a>
</g>
</g>
<!-- Node6&#45;&gt;Node5 -->
<g id="edge7_Node000005_Node000006" class="edge">
<title>Node6&#45;&gt;Node5</title>
<g id="a_edge7_Node000005_Node000006"><a xlink:title=" ">
<path fill="none" stroke="#63b8ff" d="M619.02,-314.06C647.2,-309.6 678.61,-302.69 706,-292 724.01,-284.97 742.37,-273.1 755.86,-263.31"/>
<polygon fill="#63b8ff" stroke="#63b8ff" points="618.86,-310.54 609.48,-315.48 619.89,-317.46 618.86,-310.54"/>
</a>
</g>
</g>
<!-- Node7 -->
<g id="Node000007" class="node">
<title>Node7</title>
<g id="a_Node000007"><a xlink:href="../../df/db9/structmstd_1_1utils_1_1function__core__traits.html" target="_top" xlink:title=" ">
<polygon fill="white" stroke="#666666" points="328.25,-386 203.5,-386 203.5,-354 328.25,-354 328.25,-386"/>
<text xml:space="preserve" text-anchor="start" x="211.5" y="-372.5" font-family="Helvetica,sans-Serif" font-size="10.00">mstd::utils::function</text>
<text xml:space="preserve" text-anchor="middle" x="265.88" y="-360.5" font-family="Helvetica,sans-Serif" font-size="10.00">_core_traits&lt; R(Args...)&gt;</text>
</a>
</g>
</g>
<!-- Node7&#45;&gt;Node6 -->
<g id="edge8_Node000006_Node000007" class="edge">
<title>Node7&#45;&gt;Node6</title>
<g id="a_edge8_Node000006_Node000007"><a xlink:title=" ">
<path fill="none" stroke="#63b8ff" d="M339.74,-357.01C379.02,-350.01 427.26,-341.41 466.1,-334.48"/>
<polygon fill="#63b8ff" stroke="#63b8ff" points="339.37,-353.52 330.14,-358.72 340.6,-360.41 339.37,-353.52"/>
</a>
</g>
</g>
<!-- Node8 -->
<g id="Node000008" class="node">
<title>Node8</title>
<g id="a_Node000008"><a xlink:href="../../df/db9/structmstd_1_1utils_1_1function__core__traits.html" target="_top" xlink:title=" ">
<polygon fill="white" stroke="#666666" points="103.75,-346 0,-346 0,-314 103.75,-314 103.75,-346"/>
<text xml:space="preserve" text-anchor="start" x="8" y="-332.5" font-family="Helvetica,sans-Serif" font-size="10.00">mstd::utils::function</text>
<text xml:space="preserve" text-anchor="middle" x="51.88" y="-320.5" font-family="Helvetica,sans-Serif" font-size="10.00">_core_traits&lt; F, C &gt;</text>
</a>
</g>
</g>
<!-- Node8&#45;&gt;Node6 -->
<g id="edge10_Node000006_Node000008" class="edge">
<title>Node8&#45;&gt;Node6</title>
<g id="a_edge10_Node000006_Node000008"><a xlink:title=" ">
<path fill="none" stroke="orange" stroke-dasharray="5,2" d="M115.39,-328.69C142.48,-328.14 174.55,-327.51 203.5,-327 294.16,-325.42 398.72,-323.89 466.04,-322.95"/>
<polygon fill="orange" stroke="orange" points="115.55,-325.18 105.63,-328.89 115.7,-332.18 115.55,-325.18"/>
</a>
</g>
<text xml:space="preserve" text-anchor="start" x="228.75" y="-332.5" font-family="Helvetica,sans-Serif" font-size="10.00" fill="grey">&lt; R(Args...), C &gt;</text>
</g>
<!-- Node8&#45;&gt;Node7 -->
<g id="edge9_Node000007_Node000008" class="edge">
<title>Node8&#45;&gt;Node7</title>
<g id="a_edge9_Node000007_Node000008"><a xlink:title=" ">
<path fill="none" stroke="orange" stroke-dasharray="5,2" d="M115.34,-341.79C143.01,-347.01 175.48,-353.13 203.08,-358.34"/>
<polygon fill="orange" stroke="orange" points="116.16,-338.38 105.68,-339.96 114.86,-345.26 116.16,-338.38"/>
</a>
</g>
<text xml:space="preserve" text-anchor="start" x="124.75" y="-360.26" font-family="Helvetica,sans-Serif" font-size="10.00" fill="grey">&lt; R(Args...)&gt;</text>
</g>
<!-- Node9&#45;&gt;Node5 -->
<g id="edge11_Node000005_Node000009" class="edge">
<title>Node9&#45;&gt;Node5</title>
<g id="a_edge11_Node000005_Node000009"><a xlink:title=" ">
<path fill="none" stroke="#63b8ff" d="M460.12,-276.39C522.39,-275.17 621.19,-271.56 706,-261 712.08,-260.24 718.42,-259.26 724.69,-258.17"/>
<polygon fill="#63b8ff" stroke="#63b8ff" points="460.37,-272.89 450.44,-276.57 460.5,-279.89 460.37,-272.89"/>
</a>
</g>
</g>
<!-- Node10&#45;&gt;Node1 -->
<g id="edge16_Node000001_Node000010" class="edge">
<title>Node10&#45;&gt;Node1</title>
<g id="a_edge16_Node000001_Node000010"><a xlink:title=" ">
<path fill="none" stroke="orange" stroke-dasharray="5,2" d="M601.31,-171.04C664.06,-161.44 763.1,-147.06 849.25,-138 937.19,-128.75 1038.64,-121.97 1105.91,-118.02"/>
<polygon fill="orange" stroke="orange" points="600.87,-167.57 591.52,-172.54 601.93,-174.48 600.87,-167.57"/>
</a>
</g>
<text xml:space="preserve" text-anchor="start" x="852.25" y="-159.5" font-family="Helvetica,sans-Serif" font-size="10.00" fill="grey">&lt; R(Args...) const</text>
<text xml:space="preserve" text-anchor="start" x="852.25" y="-143.5" font-family="Helvetica,sans-Serif" font-size="10.00" fill="grey">   volatile, C &gt;</text>
</g>
<!-- Node10&#45;&gt;Node4 -->
<g id="edge15_Node000004_Node000010" class="edge">
<title>Node10&#45;&gt;Node4</title>
<g id="a_edge15_Node000004_Node000010"><a xlink:title=" ">
<path fill="none" stroke="orange" stroke-dasharray="5,2" d="M601.3,-180.2C693.34,-179.02 862.98,-176.87 951.86,-175.74"/>
<polygon fill="orange" stroke="orange" points="601.4,-176.69 591.45,-180.32 601.49,-183.69 601.4,-176.69"/>
</a>
</g>
<text xml:space="preserve" text-anchor="start" x="727" y="-184.1" font-family="Helvetica,sans-Serif" font-size="10.00" fill="grey">&lt; R(Args...) const, C &gt;</text>
</g>
<!-- Node10&#45;&gt;Node5 -->
<g id="edge13_Node000005_Node000010" class="edge">
<title>Node10&#45;&gt;Node5</title>
<g id="a_edge13_Node000005_Node000010"><a xlink:title=" ">
<path fill="none" stroke="orange" stroke-dasharray="5,2" d="M600.92,-190.26C632.83,-195.83 671.96,-204 706,-215 718.94,-219.18 732.66,-225.04 744.53,-230.61"/>
<polygon fill="orange" stroke="orange" points="601.89,-186.87 591.45,-188.65 600.72,-193.77 601.89,-186.87"/>
</a>
</g>
<text xml:space="preserve" text-anchor="start" x="628.75" y="-220.5" font-family="Helvetica,sans-Serif" font-size="10.00" fill="grey">&lt; R(Args...), C &gt;</text>
</g>
<!-- Node12 -->
<g id="Node000012" class="node">
<title>Node12</title>
<g id="a_Node000012"><a xlink:href="../../df/d66/structmstd_1_1function__traits_3_01_r_07_args_8_8_8_08_01const_01volatile_01_6_6noexcept_00_01_c_01_4.html" target="_top" xlink:title=" ">
<polygon fill="white" stroke="#666666" points="1588.25,-256 1459.75,-256 1459.75,-212 1588.25,-212 1588.25,-256"/>
<text xml:space="preserve" text-anchor="start" x="1467.75" y="-242.5" font-family="Helvetica,sans-Serif" font-size="10.00">mstd::function_traits</text>
<text xml:space="preserve" text-anchor="start" x="1467.75" y="-230.5" font-family="Helvetica,sans-Serif" font-size="10.00">&lt; R(Args...) const volatile</text>
<text xml:space="preserve" text-anchor="middle" x="1524" y="-218.5" font-family="Helvetica,sans-Serif" font-size="10.00"> &amp;&amp;noexcept, C &gt;</text>
</a>
</g>
</g>
<!-- Node11&#45;&gt;Node12 -->
<g id="edge18_Node000011_Node000012" class="edge">
<title>Node11&#45;&gt;Node12</title>
<g id="a_edge18_Node000011_Node000012"><a xlink:title=" ">
<path fill="none" stroke="#63b8ff" d="M1434.49,-234C1442.84,-234 1451.3,-234 1459.49,-234"/>
<polygon fill="#63b8ff" stroke="#63b8ff" points="1434.7,-230.5 1424.7,-234 1434.7,-237.5 1434.7,-230.5"/>
</a>
</g>
</g>
<!-- Node14 -->
<g id="Node000014" class="node">
<title>Node14</title>
<g id="a_Node000014"><a xlink:href="../../d5/dd9/structmstd_1_1function__traits_3_01_r_07_c_1_1_5_08_07_args_8_8_8_08_01const_01volatile_01_6_6_01_4.html" target="_top" xlink:title=" ">
<polygon fill="white" stroke="#666666" points="1583,-318 1465,-318 1465,-274 1583,-274 1583,-318"/>
<text xml:space="preserve" text-anchor="start" x="1473" y="-304.5" font-family="Helvetica,sans-Serif" font-size="10.00">mstd::function_traits</text>
<text xml:space="preserve" text-anchor="start" x="1473" y="-292.5" font-family="Helvetica,sans-Serif" font-size="10.00">&lt; R(C::*)(Args...) const</text>
<text xml:space="preserve" text-anchor="middle" x="1524" y="-280.5" font-family="Helvetica,sans-Serif" font-size="10.00"> volatile &amp;&amp; &gt;</text>
</a>
</g>
</g>
<!-- Node11&#45;&gt;Node14 -->
<g id="edge20_Node000011_Node000014" class="edge">
<title>Node11&#45;&gt;Node14</title>
<g id="a_edge20_Node000011_Node000014"><a xlink:title=" ">
<path fill="none" stroke="#63b8ff" d="M1429.23,-260.44C1441.02,-264.91 1453.15,-269.51 1464.61,-273.86"/>
<polygon fill="#63b8ff" stroke="#63b8ff" points="1430.53,-257.19 1419.94,-256.92 1428.05,-263.74 1430.53,-257.19"/>
</a>
</g>
</g>
<!-- Node13 -->
<g id="Node000013" class="node">
<title>Node13</title>
<g id="a_Node000013"><a xlink:href="../../d9/d7d/structmstd_1_1function__traits_3_01_r_07_c_1_1_5_08_07_args_8_8_8_08_01const_01volatile_01_6_6noexcept_01_4.html" target="_top" xlink:title=" ">
<polygon fill="white" stroke="#666666" points="1743.25,-256 1625.25,-256 1625.25,-212 1743.25,-212 1743.25,-256"/>
<text xml:space="preserve" text-anchor="start" x="1633.25" y="-242.5" font-family="Helvetica,sans-Serif" font-size="10.00">mstd::function_traits</text>
<text xml:space="preserve" text-anchor="start" x="1633.25" y="-230.5" font-family="Helvetica,sans-Serif" font-size="10.00">&lt; R(C::*)(Args...) const</text>
<text xml:space="preserve" text-anchor="middle" x="1684.25" y="-218.5" font-family="Helvetica,sans-Serif" font-size="10.00"> volatile &amp;&amp;noexcept &gt;</text>
</a>
</g>
</g>
<!-- Node12&#45;&gt;Node13 -->
<g id="edge19_Node000012_Node000013" class="edge">
<title>Node12&#45;&gt;Node13</title>
<g id="a_edge19_Node000012_Node000013"><a xlink:title=" ">
<path fill="none" stroke="#63b8ff" d="M1599.85,-234C1608.27,-234 1616.75,-234 1624.91,-234"/>
<polygon fill="#63b8ff" stroke="#63b8ff" points="1599.97,-230.5 1589.97,-234 1599.97,-237.5 1599.97,-230.5"/>
</a>
</g>
</g>
<!-- Node16 -->
<g id="Node000016" class="node">
<title>Node16</title>
<g id="a_Node000016"><a xlink:href="../../d3/d6e/structmstd_1_1function__traits_3_01_r_07_args_8_8_8_08_01const_01volatile_01_6noexcept_00_01_c_01_4.html" target="_top" xlink:title=" ">
<polygon fill="white" stroke="#666666" points="1588.25,-132 1459.75,-132 1459.75,-88 1588.25,-88 1588.25,-132"/>
<text xml:space="preserve" text-anchor="start" x="1467.75" y="-118.5" font-family="Helvetica,sans-Serif" font-size="10.00">mstd::function_traits</text>
<text xml:space="preserve" text-anchor="start" x="1467.75" y="-106.5" font-family="Helvetica,sans-Serif" font-size="10.00">&lt; R(Args...) const volatile</text>
<text xml:space="preserve" text-anchor="middle" x="1524" y="-94.5" font-family="Helvetica,sans-Serif" font-size="10.00"> &amp;noexcept, C &gt;</text>
</a>
</g>
</g>
<!-- Node15&#45;&gt;Node16 -->
<g id="edge22_Node000015_Node000016" class="edge">
<title>Node15&#45;&gt;Node16</title>
<g id="a_edge22_Node000015_Node000016"><a xlink:title=" ">
<path fill="none" stroke="#63b8ff" d="M1434.2,-129.55C1442.65,-127.69 1451.2,-125.81 1459.49,-123.98"/>
<polygon fill="#63b8ff" stroke="#63b8ff" points="1433.67,-126.08 1424.66,-131.65 1435.18,-132.92 1433.67,-126.08"/>
</a>
</g>
</g>
<!-- Node18 -->
<g id="Node000018" class="node">
<title>Node18</title>
<g id="a_Node000018"><a xlink:href="../../d4/df6/structmstd_1_1function__traits_3_01_r_07_c_1_1_5_08_07_args_8_8_8_08_01const_01volatile_01_6_01_4.html" target="_top" xlink:title=" ">
<polygon fill="white" stroke="#666666" points="1583,-194 1465,-194 1465,-150 1583,-150 1583,-194"/>
<text xml:space="preserve" text-anchor="start" x="1473" y="-180.5" font-family="Helvetica,sans-Serif" font-size="10.00">mstd::function_traits</text>
<text xml:space="preserve" text-anchor="start" x="1473" y="-168.5" font-family="Helvetica,sans-Serif" font-size="10.00">&lt; R(C::*)(Args...) const</text>
<text xml:space="preserve" text-anchor="middle" x="1524" y="-156.5" font-family="Helvetica,sans-Serif" font-size="10.00"> volatile &amp; &gt;</text>
</a>
</g>
</g>
<!-- Node15&#45;&gt;Node18 -->
<g id="edge24_Node000015_Node000018" class="edge">
<title>Node15&#45;&gt;Node18</title>
<g id="a_edge24_Node000015_Node000018"><a xlink:title=" ">
<path fill="none" stroke="#63b8ff" d="M1434.49,-157.92C1444.58,-159.53 1454.81,-161.16 1464.56,-162.71"/>
<polygon fill="#63b8ff" stroke="#63b8ff" points="1435.1,-154.48 1424.68,-156.36 1434,-161.39 1435.1,-154.48"/>
</a>
</g>
</g>
<!-- Node17 -->
<g id="Node000017" class="node">
<title>Node17</title>
<g id="a_Node000017"><a xlink:href="../../d5/ded/structmstd_1_1function__traits_3_01_r_07_c_1_1_5_08_07_args_8_8_8_08_01const_01volatile_01_6noexcept_01_4.html" target="_top" xlink:title=" ">
<polygon fill="white" stroke="#666666" points="1743.25,-132 1625.25,-132 1625.25,-88 1743.25,-88 1743.25,-132"/>
<text xml:space="preserve" text-anchor="start" x="1633.25" y="-118.5" font-family="Helvetica,sans-Serif" font-size="10.00">mstd::function_traits</text>
<text xml:space="preserve" text-anchor="start" x="1633.25" y="-106.5" font-family="Helvetica,sans-Serif" font-size="10.00">&lt; R(C::*)(Args...) const</text>
<text xml:space="preserve" text-anchor="middle" x="1684.25" y="-94.5" font-family="Helvetica,sans-Serif" font-size="10.00"> volatile &amp;noexcept &gt;</text>
</a>
</g>
</g>
<!-- Node16&#45;&gt;Node17 -->
<g id="edge23_Node000016_Node000017" class="edge">
<title>Node16&#45;&gt;Node17</title>
<g id="a_edge23_Node000016_Node000017"><a xlink:title=" ">
<path fill="none" stroke="#63b8ff" d="M1599.85,-110C1608.27,-110 1616.75,-110 1624.91,-110"/>
<polygon fill="#63b8ff" stroke="#63b8ff" points="1599.97,-106.5 1589.97,-110 1599.97,-113.5 1599.97,-106.5"/>
</a>
</g>
</g>
<!-- Node20 -->
<g id="Node000020" class="node">
<title>Node20</title>
<g id="a_Node000020"><a xlink:href="../../db/d12/structmstd_1_1function__traits_3_01_r_07_c_1_1_5_08_07_args_8_8_8_08_01const_01volatile_01noexcept_01_4.html" target="_top" xlink:title=" ">
<polygon fill="white" stroke="#666666" points="1583,-70 1465,-70 1465,-26 1583,-26 1583,-70"/>
<text xml:space="preserve" text-anchor="start" x="1473" y="-56.5" font-family="Helvetica,sans-Serif" font-size="10.00">mstd::function_traits</text>
<text xml:space="preserve" text-anchor="start" x="1473" y="-44.5" font-family="Helvetica,sans-Serif" font-size="10.00">&lt; R(C::*)(Args...) const</text>
<text xml:space="preserve" text-anchor="middle" x="1524" y="-32.5" font-family="Helvetica,sans-Serif" font-size="10.00"> volatile noexcept &gt;</text>
</a>
</g>
</g>
<!-- Node19&#45;&gt;Node20 -->
<g id="edge26_Node000019_Node000020" class="edge">
<title>Node19&#45;&gt;Node20</title>
<g id="a_edge26_Node000019_Node000020"><a xlink:title=" ">
<path fill="none" stroke="#63b8ff" d="M1434.16,-67.56C1444.36,-65.32 1454.71,-63.04 1464.56,-60.87"/>
<polygon fill="#63b8ff" stroke="#63b8ff" points="1433.67,-64.08 1424.66,-69.65 1435.18,-70.92 1433.67,-64.08"/>
</a>
</g>
</g>
</g>
</svg>

<g id="navigator" transform="translate(0 0)" fill="#404254">
  <rect fill="#f2f5e9" fill-opacity="0.5" stroke="#606060" stroke-width=".5" x="0" y="0" width="60" height="60"/>
  <use id="zoomplus" xlink:href="#zoomPlus" x="17" y="9" onmousedown="handleZoom(evt,'in')"/>
  <use id="zoomminus" xlink:href="#zoomMin" x="42" y="9" onmousedown="handleZoom(evt,'out')"/>
  <use id="reset" xlink:href="#resetDef" x="30" y="36" onmousedown="handleReset()"/>
   <use id="arrowup" xlink:href="#arrowUp" x="0" y="0" onmousedown="handlePan(0,-1)"/>
  <use id="arrowright" xlink:href="#arrowRight" x="0" y="0" onmousedown="handlePan(1,0)"/>
  <use id="arrowdown" xlink:href="#arrowDown" x="0" y="0" onmousedown="handlePan(0,1)"/>
  <use id="arrowleft" xlink:href="#arrowLeft" x="0" y="0" onmousedown="handlePan(-1,0)"/>
</g>
<svg viewBox="0 0 15 15" width="100%" height="30px" preserveAspectRatio="xMaxYMin meet">
 <g id="arrow_out" transform="scale(0.3 0.3)">
  <a xlink:href="structmstd_1_1function__traits_3_01_r_07_args_8_8_8_08_01const_01volatile_00_01_c_01_4__inherit__graph_org.svg" target="_base">
   <rect id="button" ry="5" rx="5" y="6" x="6" height="38" width="38"
        fill="#f2f5e9" fill-opacity="0.5" stroke="#606060" stroke-width="1.0"/>
   <path id="arrow"
     d="M 11.500037,31.436501 C 11.940474,20.09759 22.043105,11.32322 32.158766,21.979434 L 37.068811,17.246167 C 37.068811,17.246167 37.088388,32 37.088388,32 L 22.160133,31.978069 C 22.160133,31.978069 26.997745,27.140456 26.997745,27.140456 C 18.528582,18.264221 13.291696,25.230495 11.500037,31.436501 z"
     style="fill:#404040;"/>
  </a>
 </g>
</svg>

<style type='text/css'>
<![CDATA[
[data-mouse-over-selected='false'] { opacity: 0.7; }
[data-mouse-over-selected='true']  { opacity: 1.0; }
]]>
</style>
<script type="application/ecmascript"><![CDATA[
document.addEventListener('DOMContentLoaded', (event) => {
  highlightEdges();
  highlightAdjacentNodes();
});
]]></script>
</svg>
