<?xml version="1.0" encoding="UTF-8" standalone="no"?>
<!DOCTYPE svg PUBLIC "-//W3C//DTD SVG 1.1//EN"
 "http://www.w3.org/Graphics/SVG/1.1/DTD/svg11.dtd">
<!-- Generated by graphviz version 14.1.1 (20251213.1925)
 -->
<!-- Title: mstd::base_event_handler&lt; EventsMap, Args &gt; Pages: 1 -->
<!--zoomable 143 -->

<svg id="main" version="1.1" xmlns="http://www.w3.org/2000/svg" xmlns:xlink="http://www.w3.org/1999/xlink" xml:space="preserve" onload="init(evt)">

<style type="text/css"><![CDATA[
.node, .edge {opacity: 0.7;}
.node.selected, .edge.selected {opacity: 1;}
.edge:hover path { stroke: red; }
.edge:hover polygon { stroke: red; fill: red; }
]]></style>

<defs>
  <circle id="rim" cx="0" cy="0" r="7"/>
  <circle id="rim2" cx="0" cy="0" r="3.5"/>
  <g id="zoomPlus">
    <use xlink:href="#rim" fill="#404040"><set attributeName="fill" to="#808080" begin="zoomplus.mouseover" end="zoomplus.mouseout"/></use>
    <path d="M-4,0h8M0,-4v8" fill="none" stroke="white" stroke-width="1.5" pointer-events="none"/>
  </g>
  <g id="zoomMin">
    <use xlink:href="#rim" fill="#404040"><set attributeName="fill" to="#808080" begin="zoomminus.mouseover" end="zoomminus.mouseout"/></use>
    <path d="M-4,0h8" fill="none" stroke="white" stroke-width="1.5" pointer-events="none"/>
  </g>
  <g id="arrowUp" transform="translate(30 24)">
    <use xlink:href="#rim"/>
    <path pointer-events="none" fill="none" stroke="white" stroke-width="1.5" d="M0,-3.0v7 M-2.5,-0.5L0,-3.0L2.5,-0.5"/>
  </g>
  <g id="arrowRight" transform="rotate(90) translate(36 -43)">
    <use xlink:href="#rim"/>
    <path pointer-events="none" fill="none" stroke="white" stroke-width="1.5" d="M0,-3.0v7 M-2.5,-0.5L0,-3.0L2.5,-0.5"/>
  </g>
  <g id="arrowDown" transform="rotate(180) translate(-30 -48)">
    <use xlink:href="#rim"/>
    <path pointer-events="none" fill="none" stroke="white" stroke-width="1.5" d="M0,-3.0v7 M-2.5,-0.5L0,-3.0L2.5,-0.5"/>
  </g>
  <g id="arrowLeft" transform="rotate(270) translate(-36 17)">
    <use xlink:href="#rim"/>
    <path pointer-events="none" fill="none" stroke="white" stroke-width="1.5" d="M0,-3.0v7 M-2.5,-0.5L0,-3.0L2.5,-0.5"/>
  </g>
  <g id="resetDef">
    <use xlink:href="#rim2" fill="#404040"><set attributeName="fill" to="#808080" begin="reset.mouseover" end="reset.mouseout"/></use>
  </g>
</defs>
<script type="application/ecmascript">
var viewWidth = 655;
var viewHeight = 143;
var sectionId = 'dynsection-0';
</script>
<script type="application/ecmascript" xlink:href="../../svg.min.js"/>
<svg id="graph" class="graph">
<g id="viewport">
<title>mstd::base_event_handler&lt; EventsMap, Args &gt;</title>
<!-- Node1 -->
<g id="Node000001" class="node">
<title>Node1</title>
<g id="a_Node000001"><a xlink:title=" ">
<polygon fill="#999999" stroke="#666666" points="130.75,-78 0,-78 0,-46 130.75,-46 130.75,-78"/>
<text xml:space="preserve" text-anchor="start" x="8" y="-64.5" font-family="Helvetica,sans-Serif" font-size="10.00">mstd::base_event_handler</text>
<text xml:space="preserve" text-anchor="middle" x="65.38" y="-52.5" font-family="Helvetica,sans-Serif" font-size="10.00">&lt; EventsMap, Args &gt;</text>
</a>
</g>
</g>
<!-- Node2 -->
<g id="Node000002" class="node">
<title>Node2</title>
<g id="a_Node000002"><a xlink:href="../../db/d50/classmstd_1_1base__event__handler.html" target="_top" xlink:title=" ">
<polygon fill="white" stroke="#666666" points="413.75,-135 283,-135 283,-103 413.75,-103 413.75,-135"/>
<text xml:space="preserve" text-anchor="start" x="291" y="-121.5" font-family="Helvetica,sans-Serif" font-size="10.00">mstd::base_event_handler</text>
<text xml:space="preserve" text-anchor="middle" x="348.38" y="-109.5" font-family="Helvetica,sans-Serif" font-size="10.00">&lt; EventsMap &gt;</text>
</a>
</g>
</g>
<!-- Node1&#45;&gt;Node2 -->
<g id="edge1_Node000001_Node000002" class="edge">
<title>Node1&#45;&gt;Node2</title>
<g id="a_edge1_Node000001_Node000002"><a xlink:title=" ">
<path fill="none" stroke="orange" stroke-dasharray="5,2" d="M109.03,-82.91C121.57,-88.29 135.48,-93.53 148.75,-97 192.55,-108.47 243.31,-113.96 282.55,-116.59"/>
<polygon fill="orange" stroke="orange" points="110.81,-79.87 100.25,-79.01 107.97,-86.27 110.81,-79.87"/>
</a>
</g>
<text xml:space="preserve" text-anchor="start" x="167.12" y="-119.47" font-family="Helvetica,sans-Serif" font-size="10.00" fill="grey">&lt; EventsMap &gt;</text>
</g>
<!-- Node3 -->
<g id="Node000003" class="node">
<title>Node3</title>
<g id="a_Node000003"><a xlink:href="../../db/d50/classmstd_1_1base__event__handler.html" target="_top" xlink:title=" ">
<polygon fill="white" stroke="#666666" points="425.75,-82 271,-82 271,-50 425.75,-50 425.75,-82"/>
<text xml:space="preserve" text-anchor="start" x="279" y="-68.5" font-family="Helvetica,sans-Serif" font-size="10.00">mstd::base_event_handler</text>
<text xml:space="preserve" text-anchor="middle" x="348.38" y="-56.5" font-family="Helvetica,sans-Serif" font-size="10.00">&lt; std::unordered_map, Args... &gt;</text>
</a>
</g>
</g>
<!-- Node1&#45;&gt;Node3 -->
<g id="edge2_Node000001_Node000003" class="edge">
<title>Node1&#45;&gt;Node3</title>
<g id="a_edge2_Node000001_Node000003"><a xlink:title=" ">
<path fill="none" stroke="orange" stroke-dasharray="5,2" d="M142.38,-61.95C176.24,-62.05 216.62,-62.32 253,-63 258.74,-63.11 264.67,-63.24 270.64,-63.39"/>
<polygon fill="orange" stroke="orange" points="142.68,-58.45 132.67,-61.93 142.66,-65.45 142.68,-58.45"/>
</a>
</g>
<text xml:space="preserve" text-anchor="start" x="151.75" y="-84.5" font-family="Helvetica,sans-Serif" font-size="10.00" fill="grey">&lt; std::unordered_map,</text>
<text xml:space="preserve" text-anchor="start" x="151.75" y="-68.5" font-family="Helvetica,sans-Serif" font-size="10.00" fill="grey">   Args... &gt;</text>
</g>
<!-- Node5 -->
<g id="Node000005" class="node">
<title>Node5</title>
<g id="a_Node000005"><a xlink:href="../../db/d50/classmstd_1_1base__event__handler.html" target="_top" xlink:title=" ">
<polygon fill="white" stroke="#666666" points="413.75,-32 283,-32 283,0 413.75,0 413.75,-32"/>
<text xml:space="preserve" text-anchor="start" x="291" y="-18.5" font-family="Helvetica,sans-Serif" font-size="10.00">mstd::base_event_handler</text>
<text xml:space="preserve" text-anchor="middle" x="348.38" y="-6.5" font-family="Helvetica,sans-Serif" font-size="10.00">&lt; std::map, Args... &gt;</text>
</a>
</g>
</g>
<!-- Node1&#45;&gt;Node5 -->
<g id="edge4_Node000001_Node000005" class="edge">
<title>Node1&#45;&gt;Node5</title>
<g id="a_edge4_Node000001_Node000005"><a xlink:title=" ">
<path fill="none" stroke="orange" stroke-dasharray="5,2" d="M134.75,-42.96C139.47,-41.88 144.17,-40.88 148.75,-40 193.09,-31.44 243.61,-25.39 282.61,-21.5"/>
<polygon fill="orange" stroke="orange" points="134.14,-39.5 125.22,-45.22 135.76,-46.31 134.14,-39.5"/>
</a>
</g>
<text xml:space="preserve" text-anchor="start" x="155.5" y="-45.5" font-family="Helvetica,sans-Serif" font-size="10.00" fill="grey">&lt; std::map, Args... &gt;</text>
</g>
<!-- Node4 -->
<g id="Node000004" class="node">
<title>Node4</title>
<g id="a_Node000004"><a xlink:href="../../db/d50/classmstd_1_1base__event__handler.html" target="_top" xlink:title=" ">
<polygon fill="white" stroke="#666666" points="646.5,-82 479.75,-82 479.75,-50 646.5,-50 646.5,-82"/>
<text xml:space="preserve" text-anchor="start" x="487.75" y="-68.5" font-family="Helvetica,sans-Serif" font-size="10.00">mstd::base_event_handler</text>
<text xml:space="preserve" text-anchor="middle" x="563.12" y="-56.5" font-family="Helvetica,sans-Serif" font-size="10.00">&lt; std::unordered_map, Args... &gt;&lt;&gt;</text>
</a>
</g>
</g>
<!-- Node3&#45;&gt;Node4 -->
<g id="edge3_Node000003_Node000004" class="edge">
<title>Node3&#45;&gt;Node4</title>
<g id="a_edge3_Node000003_Node000004"><a xlink:title=" ">
<path fill="none" stroke="orange" stroke-dasharray="5,2" d="M437.65,-66C451.44,-66 465.65,-66 479.32,-66"/>
<polygon fill="orange" stroke="orange" points="437.7,-62.5 427.7,-66 437.7,-69.5 437.7,-62.5"/>
</a>
</g>
<text xml:space="preserve" text-anchor="start" x="446.75" y="-71.5" font-family="Helvetica,sans-Serif" font-size="10.00" fill="grey">&lt;&gt;</text>
</g>
<!-- Node6 -->
<g id="Node000006" class="node">
<title>Node6</title>
<g id="a_Node000006"><a xlink:href="../../db/d50/classmstd_1_1base__event__handler.html" target="_top" xlink:title=" ">
<polygon fill="white" stroke="#666666" points="628.5,-32 497.75,-32 497.75,0 628.5,0 628.5,-32"/>
<text xml:space="preserve" text-anchor="start" x="505.75" y="-18.5" font-family="Helvetica,sans-Serif" font-size="10.00">mstd::base_event_handler</text>
<text xml:space="preserve" text-anchor="middle" x="563.12" y="-6.5" font-family="Helvetica,sans-Serif" font-size="10.00">&lt; std::map, Args... &gt;&lt;&gt;</text>
</a>
</g>
</g>
<!-- Node5&#45;&gt;Node6 -->
<g id="edge5_Node000005_Node000006" class="edge">
<title>Node5&#45;&gt;Node6</title>
<g id="a_edge5_Node000005_Node000006"><a xlink:title=" ">
<path fill="none" stroke="orange" stroke-dasharray="5,2" d="M425.43,-16C448.97,-16 474.67,-16 497.37,-16"/>
<polygon fill="orange" stroke="orange" points="425.59,-12.5 415.59,-16 425.59,-19.5 425.59,-12.5"/>
</a>
</g>
<text xml:space="preserve" text-anchor="start" x="446.75" y="-21.5" font-family="Helvetica,sans-Serif" font-size="10.00" fill="grey">&lt;&gt;</text>
</g>
</g>
</svg>

<g id="navigator" transform="translate(0 0)" fill="#404254">
  <rect fill="#f2f5e9" fill-opacity="0.5" stroke="#606060" stroke-width=".5" x="0" y="0" width="60" height="60"/>
  <use id="zoomplus" xlink:href="#zoomPlus" x="17" y="9" onmousedown="handleZoom(evt,'in')"/>
  <use id="zoomminus" xlink:href="#zoomMin" x="42" y="9" onmousedown="handleZoom(evt,'out')"/>
  <use id="reset" xlink:href="#resetDef" x="30" y="36" onmousedown="handleReset()"/>
   <use id="arrowup" xlink:href="#arrowUp" x="0" y="0" onmousedown="handlePan(0,-1)"/>
  <use id="arrowright" xlink:href="#arrowRight" x="0" y="0" onmousedown="handlePan(1,0)"/>
  <use id="arrowdown" xlink:href="#arrowDown" x="0" y="0" onmousedown="handlePan(0,1)"/>
  <use id="arrowleft" xlink:href="#arrowLeft" x="0" y="0" onmousedown="handlePan(-1,0)"/>
</g>
<svg viewBox="0 0 15 15" width="100%" height="30px" preserveAspectRatio="xMaxYMin meet">
 <g id="arrow_out" transform="scale(0.3 0.3)">
  <a xlink:href="classmstd_1_1base__event__handler__inherit__graph_org.svg" target="_base">
   <rect id="button" ry="5" rx="5" y="6" x="6" height="38" width="38"
        fill="#f2f5e9" fill-opacity="0.5" stroke="#606060" stroke-width="1.0"/>
   <path id="arrow"
     d="M 11.500037,31.436501 C 11.940474,20.09759 22.043105,11.32322 32.158766,21.979434 L 37.068811,17.246167 C 37.068811,17.246167 37.088388,32 37.088388,32 L 22.160133,31.978069 C 22.160133,31.978069 26.997745,27.140456 26.997745,27.140456 C 18.528582,18.264221 13.291696,25.230495 11.500037,31.436501 z"
     style="fill:#404040;"/>
  </a>
 </g>
</svg>

<style type='text/css'>
<![CDATA[
[data-mouse-over-selected='false'] { opacity: 0.7; }
[data-mouse-over-selected='true']  { opacity: 1.0; }
]]>
</style>
<script type="application/ecmascript"><![CDATA[
document.addEventListener('DOMContentLoaded', (event) => {
  highlightEdges();
  highlightAdjacentNodes();
});
]]></script>
</svg>
