<?xml version="1.0" encoding="UTF-8" standalone="no"?>
<!DOCTYPE svg PUBLIC "-//W3C//DTD SVG 1.1//EN"
 "http://www.w3.org/Graphics/SVG/1.1/DTD/svg11.dtd">
<!-- Generated by graphviz version 14.1.1 (20251213.1925)
 -->
<!-- Title: mstd::base_event_handler&lt; EventsMap, Args &gt; Pages: 1 -->
<svg width="655pt" height="143pt"
 viewBox="0.00 0.00 655.00 143.00" xmlns="http://www.w3.org/2000/svg" xmlns:xlink="http://www.w3.org/1999/xlink">
<g id="graph0" class="graph" transform="scale(1 1) rotate(0) translate(4 139)">
<title>mstd::base_event_handler&lt; EventsMap, Args &gt;</title>
<!-- Node1 -->
<g id="Node000001" class="node">
<title>Node1</title>
<g id="a_Node000001"><a xlink:title=" ">
<polygon fill="#999999" stroke="#666666" points="130.75,-78 0,-78 0,-46 130.75,-46 130.75,-78"/>
<text xml:space="preserve" text-anchor="start" x="8" y="-64.5" font-family="Helvetica,sans-Serif" font-size="10.00">mstd::base_event_handler</text>
<text xml:space="preserve" text-anchor="middle" x="65.38" y="-52.5" font-family="Helvetica,sans-Serif" font-size="10.00">&lt; EventsMap, Args &gt;</text>
</a>
</g>
</g>
<!-- Node2 -->
<g id="Node000002" class="node">
<title>Node2</title>
<g id="a_Node000002"><a xlink:href="../../db/d50/classmstd_1_1base__event__handler.html" target="_top" xlink:title=" ">
<polygon fill="white" stroke="#666666" points="413.75,-135 283,-135 283,-103 413.75,-103 413.75,-135"/>
<text xml:space="preserve" text-anchor="start" x="291" y="-121.5" font-family="Helvetica,sans-Serif" font-size="10.00">mstd::base_event_handler</text>
<text xml:space="preserve" text-anchor="middle" x="348.38" y="-109.5" font-family="Helvetica,sans-Serif" font-size="10.00">&lt; EventsMap &gt;</text>
</a>
</g>
</g>
<!-- Node1&#45;&gt;Node2 -->
<g id="edge1_Node000001_Node000002" class="edge">
<title>Node1&#45;&gt;Node2</title>
<g id="a_edge1_Node000001_Node000002"><a xlink:title=" ">
<path fill="none" stroke="orange" stroke-dasharray="5,2" d="M109.03,-82.91C121.57,-88.29 135.48,-93.53 148.75,-97 192.55,-108.47 243.31,-113.96 282.55,-116.59"/>
<polygon fill="orange" stroke="orange" points="110.81,-79.87 100.25,-79.01 107.97,-86.27 110.81,-79.87"/>
</a>
</g>
<text xml:space="preserve" text-anchor="start" x="167.12" y="-119.47" font-family="Helvetica,sans-Serif" font-size="10.00" fill="grey">&lt; EventsMap &gt;</text>
</g>
<!-- Node3 -->
<g id="Node000003" class="node">
<title>Node3</title>
<g id="a_Node000003"><a xlink:href="../../db/d50/classmstd_1_1base__event__handler.html" target="_top" xlink:title=" ">
<polygon fill="white" stroke="#666666" points="425.75,-82 271,-82 271,-50 425.75,-50 425.75,-82"/>
<text xml:space="preserve" text-anchor="start" x="279" y="-68.5" font-family="Helvetica,sans-Serif" font-size="10.00">mstd::base_event_handler</text>
<text xml:space="preserve" text-anchor="middle" x="348.38" y="-56.5" font-family="Helvetica,sans-Serif" font-size="10.00">&lt; std::unordered_map, Args... &gt;</text>
</a>
</g>
</g>
<!-- Node1&#45;&gt;Node3 -->
<g id="edge2_Node000001_Node000003" class="edge">
<title>Node1&#45;&gt;Node3</title>
<g id="a_edge2_Node000001_Node000003"><a xlink:title=" ">
<path fill="none" stroke="orange" stroke-dasharray="5,2" d="M142.38,-61.95C176.24,-62.05 216.62,-62.32 253,-63 258.74,-63.11 264.67,-63.24 270.64,-63.39"/>
<polygon fill="orange" stroke="orange" points="142.68,-58.45 132.67,-61.93 142.66,-65.45 142.68,-58.45"/>
</a>
</g>
<text xml:space="preserve" text-anchor="start" x="151.75" y="-84.5" font-family="Helvetica,sans-Serif" font-size="10.00" fill="grey">&lt; std::unordered_map,</text>
<text xml:space="preserve" text-anchor="start" x="151.75" y="-68.5" font-family="Helvetica,sans-Serif" font-size="10.00" fill="grey">   Args... &gt;</text>
</g>
<!-- Node5 -->
<g id="Node000005" class="node">
<title>Node5</title>
<g id="a_Node000005"><a xlink:href="../../db/d50/classmstd_1_1base__event__handler.html" target="_top" xlink:title=" ">
<polygon fill="white" stroke="#666666" points="413.75,-32 283,-32 283,0 413.75,0 413.75,-32"/>
<text xml:space="preserve" text-anchor="start" x="291" y="-18.5" font-family="Helvetica,sans-Serif" font-size="10.00">mstd::base_event_handler</text>
<text xml:space="preserve" text-anchor="middle" x="348.38" y="-6.5" font-family="Helvetica,sans-Serif" font-size="10.00">&lt; std::map, Args... &gt;</text>
</a>
</g>
</g>
<!-- Node1&#45;&gt;Node5 -->
<g id="edge4_Node000001_Node000005" class="edge">
<title>Node1&#45;&gt;Node5</title>
<g id="a_edge4_Node000001_Node000005"><a xlink:title=" ">
<path fill="none" stroke="orange" stroke-dasharray="5,2" d="M134.75,-42.96C139.47,-41.88 144.17,-40.88 148.75,-40 193.09,-31.44 243.61,-25.39 282.61,-21.5"/>
<polygon fill="orange" stroke="orange" points="134.14,-39.5 125.22,-45.22 135.76,-46.31 134.14,-39.5"/>
</a>
</g>
<text xml:space="preserve" text-anchor="start" x="155.5" y="-45.5" font-family="Helvetica,sans-Serif" font-size="10.00" fill="grey">&lt; std::map, Args... &gt;</text>
</g>
<!-- Node4 -->
<g id="Node000004" class="node">
<title>Node4</title>
<g id="a_Node000004"><a xlink:href="../../db/d50/classmstd_1_1base__event__handler.html" target="_top" xlink:title=" ">
<polygon fill="white" stroke="#666666" points="646.5,-82 479.75,-82 479.75,-50 646.5,-50 646.5,-82"/>
<text xml:space="preserve" text-anchor="start" x="487.75" y="-68.5" font-family="Helvetica,sans-Serif" font-size="10.00">mstd::base_event_handler</text>
<text xml:space="preserve" text-anchor="middle" x="563.12" y="-56.5" font-family="Helvetica,sans-Serif" font-size="10.00">&lt; std::unordered_map, Args... &gt;&lt;&gt;</text>
</a>
</g>
</g>
<!-- Node3&#45;&gt;Node4 -->
<g id="edge3_Node000003_Node000004" class="edge">
<title>Node3&#45;&gt;Node4</title>
<g id="a_edge3_Node000003_Node000004"><a xlink:title=" ">
<path fill="none" stroke="orange" stroke-dasharray="5,2" d="M437.65,-66C451.44,-66 465.65,-66 479.32,-66"/>
<polygon fill="orange" stroke="orange" points="437.7,-62.5 427.7,-66 437.7,-69.5 437.7,-62.5"/>
</a>
</g>
<text xml:space="preserve" text-anchor="start" x="446.75" y="-71.5" font-family="Helvetica,sans-Serif" font-size="10.00" fill="grey">&lt;&gt;</text>
</g>
<!-- Node6 -->
<g id="Node000006" class="node">
<title>Node6</title>
<g id="a_Node000006"><a xlink:href="../../db/d50/classmstd_1_1base__event__handler.html" target="_top" xlink:title=" ">
<polygon fill="white" stroke="#666666" points="628.5,-32 497.75,-32 497.75,0 628.5,0 628.5,-32"/>
<text xml:space="preserve" text-anchor="start" x="505.75" y="-18.5" font-family="Helvetica,sans-Serif" font-size="10.00">mstd::base_event_handler</text>
<text xml:space="preserve" text-anchor="middle" x="563.12" y="-6.5" font-family="Helvetica,sans-Serif" font-size="10.00">&lt; std::map, Args... &gt;&lt;&gt;</text>
</a>
</g>
</g>
<!-- Node5&#45;&gt;Node6 -->
<g id="edge5_Node000005_Node000006" class="edge">
<title>Node5&#45;&gt;Node6</title>
<g id="a_edge5_Node000005_Node000006"><a xlink:title=" ">
<path fill="none" stroke="orange" stroke-dasharray="5,2" d="M425.43,-16C448.97,-16 474.67,-16 497.37,-16"/>
<polygon fill="orange" stroke="orange" points="425.59,-12.5 415.59,-16 425.59,-19.5 425.59,-12.5"/>
</a>
</g>
<text xml:space="preserve" text-anchor="start" x="446.75" y="-21.5" font-family="Helvetica,sans-Serif" font-size="10.00" fill="grey">&lt;&gt;</text>
</g>
</g>
</svg>
