<?xml version="1.0" encoding="UTF-8" standalone="no"?>
<!DOCTYPE svg PUBLIC "-//W3C//DTD SVG 1.1//EN"
 "http://www.w3.org/Graphics/SVG/1.1/DTD/svg11.dtd">
<!-- Generated by graphviz version 14.1.1 (20251213.1925)
 -->
<!-- Title: mstd::function_traits&lt; R(Args...) volatile &amp;&amp;noexcept, C &gt; Pages: 1 -->
<!--zoomable 688 -->

<svg id="main" version="1.1" xmlns="http://www.w3.org/2000/svg" xmlns:xlink="http://www.w3.org/1999/xlink" xml:space="preserve" onload="init(evt)">

<style type="text/css"><![CDATA[
.node, .edge {opacity: 0.7;}
.node.selected, .edge.selected {opacity: 1;}
.edge:hover path { stroke: red; }
.edge:hover polygon { stroke: red; fill: red; }
]]></style>

<defs>
  <circle id="rim" cx="0" cy="0" r="7"/>
  <circle id="rim2" cx="0" cy="0" r="3.5"/>
  <g id="zoomPlus">
    <use xlink:href="#rim" fill="#404040"><set attributeName="fill" to="#808080" begin="zoomplus.mouseover" end="zoomplus.mouseout"/></use>
    <path d="M-4,0h8M0,-4v8" fill="none" stroke="white" stroke-width="1.5" pointer-events="none"/>
  </g>
  <g id="zoomMin">
    <use xlink:href="#rim" fill="#404040"><set attributeName="fill" to="#808080" begin="zoomminus.mouseover" end="zoomminus.mouseout"/></use>
    <path d="M-4,0h8" fill="none" stroke="white" stroke-width="1.5" pointer-events="none"/>
  </g>
  <g id="arrowUp" transform="translate(30 24)">
    <use xlink:href="#rim"/>
    <path pointer-events="none" fill="none" stroke="white" stroke-width="1.5" d="M0,-3.0v7 M-2.5,-0.5L0,-3.0L2.5,-0.5"/>
  </g>
  <g id="arrowRight" transform="rotate(90) translate(36 -43)">
    <use xlink:href="#rim"/>
    <path pointer-events="none" fill="none" stroke="white" stroke-width="1.5" d="M0,-3.0v7 M-2.5,-0.5L0,-3.0L2.5,-0.5"/>
  </g>
  <g id="arrowDown" transform="rotate(180) translate(-30 -48)">
    <use xlink:href="#rim"/>
    <path pointer-events="none" fill="none" stroke="white" stroke-width="1.5" d="M0,-3.0v7 M-2.5,-0.5L0,-3.0L2.5,-0.5"/>
  </g>
  <g id="arrowLeft" transform="rotate(270) translate(-36 17)">
    <use xlink:href="#rim"/>
    <path pointer-events="none" fill="none" stroke="white" stroke-width="1.5" d="M0,-3.0v7 M-2.5,-0.5L0,-3.0L2.5,-0.5"/>
  </g>
  <g id="resetDef">
    <use xlink:href="#rim2" fill="#404040"><set attributeName="fill" to="#808080" begin="reset.mouseover" end="reset.mouseout"/></use>
  </g>
</defs>
<script type="application/ecmascript">
var viewWidth = 1601;
var viewHeight = 688;
var sectionId = 'dynsection-1';
</script>
<script type="application/ecmascript" xlink:href="../../svg.min.js"/>
<svg id="graph" class="graph">
<g id="viewport">
<title>mstd::function_traits&lt; R(Args...) volatile &amp;&amp;noexcept, C &gt;</title>
<!-- Node1 -->
<g id="Node000001" class="node">
<title>Node1</title>
<g id="a_Node000001"><a xlink:title=" ">
<polygon fill="#999999" stroke="#666666" points="1593,-339 1487.75,-339 1487.75,-295 1593,-295 1593,-339"/>
<text xml:space="preserve" text-anchor="start" x="1495.75" y="-325.5" font-family="Helvetica,sans-Serif" font-size="10.00">mstd::function_traits</text>
<text xml:space="preserve" text-anchor="start" x="1495.75" y="-313.5" font-family="Helvetica,sans-Serif" font-size="10.00">&lt; R(Args...) volatile</text>
<text xml:space="preserve" text-anchor="middle" x="1540.38" y="-301.5" font-family="Helvetica,sans-Serif" font-size="10.00"> &amp;&amp;noexcept, C &gt;</text>
</a>
</g>
</g>
<!-- Node2 -->
<g id="Node000002" class="node">
<title>Node2</title>
<g id="a_Node000002"><a xlink:href="../../d0/d74/structmstd_1_1utils_1_1function__default__type__traits.html" target="_top" xlink:title=" ">
<polygon fill="white" stroke="#666666" points="588.75,-252 486.5,-252 486.5,-208 588.75,-208 588.75,-252"/>
<text xml:space="preserve" text-anchor="start" x="494.5" y="-238.5" font-family="Helvetica,sans-Serif" font-size="10.00">mstd::utils::function</text>
<text xml:space="preserve" text-anchor="start" x="494.5" y="-226.5" font-family="Helvetica,sans-Serif" font-size="10.00">_default_type_traits</text>
<text xml:space="preserve" text-anchor="middle" x="537.62" y="-214.5" font-family="Helvetica,sans-Serif" font-size="10.00">&lt; false &gt;</text>
</a>
</g>
</g>
<!-- Node2&#45;&gt;Node1 -->
<g id="edge1_Node000001_Node000002" class="edge">
<title>Node2&#45;&gt;Node1</title>
<g id="a_edge1_Node000001_Node000002"><a xlink:title=" ">
<path fill="none" stroke="#63b8ff" d="M588.58,-257.82C671.27,-301.19 843.01,-380 999,-380 999,-380 999,-380 1399.12,-380 1439.96,-380 1482.08,-357.5 1509.37,-339.39"/>
<polygon fill="#63b8ff" stroke="#63b8ff" points="590.27,-254.76 579.8,-253.17 587,-260.94 590.27,-254.76"/>
</a>
</g>
</g>
<!-- Node5 -->
<g id="Node000005" class="node">
<title>Node5</title>
<g id="a_Node000005"><a xlink:href="../../dd/d45/structmstd_1_1function__traits_3_01_r_07_args_8_8_8_08_01volatile_01_6_6_00_01_c_01_4.html" target="_top" xlink:title=" ">
<polygon fill="white" stroke="#666666" points="1450.75,-164 1345.5,-164 1345.5,-120 1450.75,-120 1450.75,-164"/>
<text xml:space="preserve" text-anchor="start" x="1353.5" y="-150.5" font-family="Helvetica,sans-Serif" font-size="10.00">mstd::function_traits</text>
<text xml:space="preserve" text-anchor="start" x="1353.5" y="-138.5" font-family="Helvetica,sans-Serif" font-size="10.00">&lt; R(Args...) volatile</text>
<text xml:space="preserve" text-anchor="middle" x="1398.12" y="-126.5" font-family="Helvetica,sans-Serif" font-size="10.00"> &amp;&amp;, C &gt;</text>
</a>
</g>
</g>
<!-- Node2&#45;&gt;Node5 -->
<g id="edge6_Node000005_Node000002" class="edge">
<title>Node2&#45;&gt;Node5</title>
<g id="a_edge6_Node000005_Node000002"><a xlink:title=" ">
<path fill="none" stroke="#63b8ff" d="M591.56,-202.71C618.91,-189.8 653.24,-175.4 685.5,-167 901.19,-110.81 961.86,-127.58 1184.5,-117 1239.55,-114.38 1253.91,-109.45 1308.5,-117 1320.54,-118.67 1333.24,-121.54 1345.15,-124.77"/>
<polygon fill="#63b8ff" stroke="#63b8ff" points="590.3,-199.43 582.8,-206.91 593.33,-205.74 590.3,-199.43"/>
</a>
</g>
</g>
<!-- Node6 -->
<g id="Node000006" class="node">
<title>Node6</title>
<g id="a_Node000006"><a xlink:href="../../d0/d52/structmstd_1_1function__traits_3_01_r_07_args_8_8_8_08_01volatile_00_01_c_01_4.html" target="_top" xlink:title=" ">
<polygon fill="white" stroke="#666666" points="1308.5,-158 1184.5,-158 1184.5,-126 1308.5,-126 1308.5,-158"/>
<text xml:space="preserve" text-anchor="start" x="1192.5" y="-144.5" font-family="Helvetica,sans-Serif" font-size="10.00">mstd::function_traits</text>
<text xml:space="preserve" text-anchor="middle" x="1246.5" y="-132.5" font-family="Helvetica,sans-Serif" font-size="10.00">&lt; R(Args...) volatile, C &gt;</text>
</a>
</g>
</g>
<!-- Node2&#45;&gt;Node6 -->
<g id="edge8_Node000006_Node000002" class="edge">
<title>Node2&#45;&gt;Node6</title>
<g id="a_edge8_Node000006_Node000002"><a xlink:title=" ">
<path fill="none" stroke="#63b8ff" d="M599.87,-215.45C698.99,-192.94 901.02,-151.4 1075,-143 1111.22,-141.25 1151.82,-140.95 1184.31,-141.1"/>
<polygon fill="#63b8ff" stroke="#63b8ff" points="599.32,-211.98 590.36,-217.62 600.88,-218.8 599.32,-211.98"/>
</a>
</g>
</g>
<!-- Node7 -->
<g id="Node000007" class="node">
<title>Node7</title>
<g id="a_Node000007"><a xlink:href="../../dd/db6/structmstd_1_1function__traits_3_01_r_07_args_8_8_8_08_00_01_c_01_4.html" target="_top" xlink:title=" ">
<polygon fill="white" stroke="#666666" points="1052.62,-321 947.38,-321 947.38,-289 1052.62,-289 1052.62,-321"/>
<text xml:space="preserve" text-anchor="start" x="955.38" y="-307.5" font-family="Helvetica,sans-Serif" font-size="10.00">mstd::function_traits</text>
<text xml:space="preserve" text-anchor="middle" x="1000" y="-295.5" font-family="Helvetica,sans-Serif" font-size="10.00">&lt; R(Args...), C &gt;</text>
</a>
</g>
</g>
<!-- Node2&#45;&gt;Node7 -->
<g id="edge10_Node000007_Node000002" class="edge">
<title>Node2&#45;&gt;Node7</title>
<g id="a_edge10_Node000007_Node000002"><a xlink:title=" ">
<path fill="none" stroke="#63b8ff" d="M600.19,-242.71C626.46,-248.1 657.47,-254.41 685.5,-260 756.21,-274.1 773.36,-280.84 844.75,-291 878.69,-295.83 917.09,-299.32 947.08,-301.61"/>
<polygon fill="#63b8ff" stroke="#63b8ff" points="601.22,-239.35 590.73,-240.76 599.82,-246.2 601.22,-239.35"/>
</a>
</g>
</g>
<!-- Node12 -->
<g id="Node000012" class="node">
<title>Node12</title>
<g id="a_Node000012"><a xlink:href="../../d7/dcb/structmstd_1_1function__traits.html" target="_top" xlink:title=" ">
<polygon fill="white" stroke="#666666" points="808.75,-251 703.5,-251 703.5,-219 808.75,-219 808.75,-251"/>
<text xml:space="preserve" text-anchor="start" x="711.5" y="-237.5" font-family="Helvetica,sans-Serif" font-size="10.00">mstd::function_traits</text>
<text xml:space="preserve" text-anchor="middle" x="756.12" y="-225.5" font-family="Helvetica,sans-Serif" font-size="10.00">&lt; F, C &gt;</text>
</a>
</g>
</g>
<!-- Node2&#45;&gt;Node12 -->
<g id="edge19_Node000012_Node000002" class="edge">
<title>Node2&#45;&gt;Node12</title>
<g id="a_edge19_Node000012_Node000002"><a xlink:title=" ">
<path fill="none" stroke="#63b8ff" d="M600.28,-231.42C632.75,-232.17 672.13,-233.08 703.05,-233.8"/>
<polygon fill="#63b8ff" stroke="#63b8ff" points="600.7,-227.93 590.62,-231.2 600.54,-234.93 600.7,-227.93"/>
</a>
</g>
</g>
<!-- Node3 -->
<g id="Node000003" class="node">
<title>Node3</title>
<g id="a_Node000003"><a xlink:title=" ">
<polygon fill="white" stroke="#666666" points="155.5,-196 0,-196 0,-164 155.5,-164 155.5,-196"/>
<text xml:space="preserve" text-anchor="start" x="8" y="-182.5" font-family="Helvetica,sans-Serif" font-size="10.00">static _MSTD_CONSTEXPR17</text>
<text xml:space="preserve" text-anchor="middle" x="77.75" y="-170.5" font-family="Helvetica,sans-Serif" font-size="10.00"> const bool</text>
</a>
</g>
</g>
<!-- Node3&#45;&gt;Node1 -->
<g id="edge25_Node000001_Node000003" class="edge">
<title>Node3&#45;&gt;Node1</title>
<g id="a_edge25_Node000001_Node000003"><a xlink:title=" ">
<path fill="none" stroke="#9a32cd" stroke-dasharray="5,2" d="M79.72,-207.81C84.89,-310.45 117.59,-662 322.62,-662 322.62,-662 322.62,-662 1399.12,-662 1469.03,-662 1520.91,-415.82 1535.34,-339.37"/>
<polygon fill="#9a32cd" stroke="#9a32cd" points="83.21,-207.66 79.27,-197.83 76.22,-207.97 83.21,-207.66"/>
</a>
</g>
<text xml:space="preserve" text-anchor="start" x="858.62" y="-667.5" font-family="Helvetica,sans-Serif" font-size="10.00" fill="grey">is_noexcept</text>
</g>
<!-- Node3&#45;&gt;Node2 -->
<g id="edge2_Node000002_Node000003" class="edge">
<title>Node3&#45;&gt;Node2</title>
<g id="a_edge2_Node000002_Node000003"><a xlink:title=" ">
<path fill="none" stroke="#9a32cd" stroke-dasharray="5,2" d="M114.41,-158.04C170.69,-126.29 283.22,-74.6 375.5,-106 434.65,-126.12 489.03,-177.7 516.96,-207.61"/>
<polygon fill="#9a32cd" stroke="#9a32cd" points="112.8,-154.93 105.88,-162.96 116.29,-161 112.8,-154.93"/>
</a>
</g>
<text xml:space="preserve" text-anchor="start" x="286.5" y="-271.5" font-family="Helvetica,sans-Serif" font-size="10.00" fill="grey">is_const</text>
<text xml:space="preserve" text-anchor="start" x="286.5" y="-255.5" font-family="Helvetica,sans-Serif" font-size="10.00" fill="grey">is_free</text>
<text xml:space="preserve" text-anchor="start" x="286.5" y="-239.5" font-family="Helvetica,sans-Serif" font-size="10.00" fill="grey">is_functor</text>
<text xml:space="preserve" text-anchor="start" x="286.5" y="-223.5" font-family="Helvetica,sans-Serif" font-size="10.00" fill="grey">is_member</text>
<text xml:space="preserve" text-anchor="start" x="286.5" y="-207.5" font-family="Helvetica,sans-Serif" font-size="10.00" fill="grey">is_moved</text>
<text xml:space="preserve" text-anchor="start" x="286.5" y="-191.5" font-family="Helvetica,sans-Serif" font-size="10.00" fill="grey">is_noexcept</text>
<text xml:space="preserve" text-anchor="start" x="286.5" y="-175.5" font-family="Helvetica,sans-Serif" font-size="10.00" fill="grey">is_parent_moved</text>
<text xml:space="preserve" text-anchor="start" x="286.5" y="-159.5" font-family="Helvetica,sans-Serif" font-size="10.00" fill="grey">is_parent_ref</text>
<text xml:space="preserve" text-anchor="start" x="286.5" y="-143.5" font-family="Helvetica,sans-Serif" font-size="10.00" fill="grey">is_ptr</text>
<text xml:space="preserve" text-anchor="start" x="286.5" y="-127.5" font-family="Helvetica,sans-Serif" font-size="10.00" fill="grey">is_ref</text>
<text xml:space="preserve" text-anchor="start" x="286.5" y="-111.5" font-family="Helvetica,sans-Serif" font-size="10.00" fill="grey"> &#160;...</text>
</g>
<!-- Node4 -->
<g id="Node000004" class="node">
<title>Node4</title>
<g id="a_Node000004"><a xlink:href="../../d0/d74/structmstd_1_1utils_1_1function__default__type__traits.html" target="_top" xlink:title=" ">
<polygon fill="white" stroke="#666666" points="374.75,-370 272.5,-370 272.5,-326 374.75,-326 374.75,-370"/>
<text xml:space="preserve" text-anchor="start" x="280.5" y="-356.5" font-family="Helvetica,sans-Serif" font-size="10.00">mstd::utils::function</text>
<text xml:space="preserve" text-anchor="start" x="280.5" y="-344.5" font-family="Helvetica,sans-Serif" font-size="10.00">_default_type_traits</text>
<text xml:space="preserve" text-anchor="middle" x="323.62" y="-332.5" font-family="Helvetica,sans-Serif" font-size="10.00">&lt; IsMember &gt;</text>
</a>
</g>
</g>
<!-- Node3&#45;&gt;Node4 -->
<g id="edge4_Node000004_Node000003" class="edge">
<title>Node3&#45;&gt;Node4</title>
<g id="a_edge4_Node000004_Node000003"><a xlink:title=" ">
<path fill="none" stroke="#9a32cd" stroke-dasharray="5,2" d="M166.91,-192.68C207.04,-199.25 247.11,-207.29 253.75,-214 284.9,-245.47 247.92,-274.68 271.75,-312 275.01,-317.11 279.28,-321.7 283.96,-325.77"/>
<polygon fill="#9a32cd" stroke="#9a32cd" points="167.55,-189.23 157.12,-191.1 166.43,-196.14 167.55,-189.23"/>
</a>
</g>
<text xml:space="preserve" text-anchor="start" x="176.5" y="-379.5" font-family="Helvetica,sans-Serif" font-size="10.00" fill="grey">is_const</text>
<text xml:space="preserve" text-anchor="start" x="176.5" y="-363.5" font-family="Helvetica,sans-Serif" font-size="10.00" fill="grey">is_free</text>
<text xml:space="preserve" text-anchor="start" x="176.5" y="-347.5" font-family="Helvetica,sans-Serif" font-size="10.00" fill="grey">is_functor</text>
<text xml:space="preserve" text-anchor="start" x="176.5" y="-331.5" font-family="Helvetica,sans-Serif" font-size="10.00" fill="grey">is_member</text>
<text xml:space="preserve" text-anchor="start" x="176.5" y="-315.5" font-family="Helvetica,sans-Serif" font-size="10.00" fill="grey">is_moved</text>
<text xml:space="preserve" text-anchor="start" x="176.5" y="-299.5" font-family="Helvetica,sans-Serif" font-size="10.00" fill="grey">is_noexcept</text>
<text xml:space="preserve" text-anchor="start" x="176.5" y="-283.5" font-family="Helvetica,sans-Serif" font-size="10.00" fill="grey">is_parent_moved</text>
<text xml:space="preserve" text-anchor="start" x="176.5" y="-267.5" font-family="Helvetica,sans-Serif" font-size="10.00" fill="grey">is_parent_ref</text>
<text xml:space="preserve" text-anchor="start" x="176.5" y="-251.5" font-family="Helvetica,sans-Serif" font-size="10.00" fill="grey">is_ptr</text>
<text xml:space="preserve" text-anchor="start" x="176.5" y="-235.5" font-family="Helvetica,sans-Serif" font-size="10.00" fill="grey">is_ref</text>
<text xml:space="preserve" text-anchor="start" x="176.5" y="-219.5" font-family="Helvetica,sans-Serif" font-size="10.00" fill="grey"> &#160;...</text>
</g>
<!-- Node3&#45;&gt;Node5 -->
<g id="edge23_Node000005_Node000003" class="edge">
<title>Node3&#45;&gt;Node5</title>
<g id="a_edge23_Node000005_Node000003"><a xlink:title=" ">
<path fill="none" stroke="#9a32cd" stroke-dasharray="5,2" d="M92.83,-153.75C108.96,-125.95 137.82,-82.5 173.5,-56 230.34,-13.79 251.83,0 322.62,0 322.62,0 322.62,0 1247.5,0 1316.26,0 1366.04,-79.88 1386.64,-119.81"/>
<polygon fill="#9a32cd" stroke="#9a32cd" points="89.9,-151.83 88.03,-162.25 96,-155.27 89.9,-151.83"/>
</a>
</g>
<text xml:space="preserve" text-anchor="start" x="719" y="-5.5" font-family="Helvetica,sans-Serif" font-size="10.00" fill="grey">is_parent_moved</text>
</g>
<!-- Node3&#45;&gt;Node6 -->
<g id="edge21_Node000006_Node000003" class="edge">
<title>Node3&#45;&gt;Node6</title>
<g id="a_edge21_Node000006_Node000003"><a xlink:title=" ">
<path fill="none" stroke="#9a32cd" stroke-dasharray="5,2" d="M103.11,-155.63C144.43,-116.99 232.61,-46 322.62,-46 322.62,-46 322.62,-46 885.88,-46 1007.85,-46 1145.46,-98.19 1209.34,-125.61"/>
<polygon fill="#9a32cd" stroke="#9a32cd" points="100.7,-153.09 95.88,-162.52 105.53,-158.15 100.7,-153.09"/>
</a>
</g>
<text xml:space="preserve" text-anchor="start" x="621" y="-51.5" font-family="Helvetica,sans-Serif" font-size="10.00" fill="grey">is_volatile</text>
</g>
<!-- Node11 -->
<g id="Node000011" class="node">
<title>Node11</title>
<g id="a_Node000011"><a xlink:href="../../d0/d74/structmstd_1_1utils_1_1function__default__type__traits.html" target="_top" xlink:title=" ">
<polygon fill="white" stroke="#666666" points="588.75,-370 486.5,-370 486.5,-326 588.75,-326 588.75,-370"/>
<text xml:space="preserve" text-anchor="start" x="494.5" y="-356.5" font-family="Helvetica,sans-Serif" font-size="10.00">mstd::utils::function</text>
<text xml:space="preserve" text-anchor="start" x="494.5" y="-344.5" font-family="Helvetica,sans-Serif" font-size="10.00">_default_type_traits</text>
<text xml:space="preserve" text-anchor="middle" x="537.62" y="-332.5" font-family="Helvetica,sans-Serif" font-size="10.00">&lt; true &gt;</text>
</a>
</g>
</g>
<!-- Node3&#45;&gt;Node11 -->
<g id="edge16_Node000011_Node000003" class="edge">
<title>Node3&#45;&gt;Node11</title>
<g id="a_edge16_Node000011_Node000003"><a xlink:title=" ">
<path fill="none" stroke="#9a32cd" stroke-dasharray="5,2" d="M81.68,-207.41C88.38,-254.7 109.55,-350.54 173.5,-392 226.57,-426.41 395.14,-381.95 457.25,-370 466.66,-368.19 476.58,-365.82 486.1,-363.31"/>
<polygon fill="#9a32cd" stroke="#9a32cd" points="85.18,-207.2 80.43,-197.73 78.24,-208.1 85.18,-207.2"/>
</a>
</g>
<text xml:space="preserve" text-anchor="start" x="286.5" y="-568.41" font-family="Helvetica,sans-Serif" font-size="10.00" fill="grey">is_const</text>
<text xml:space="preserve" text-anchor="start" x="286.5" y="-552.41" font-family="Helvetica,sans-Serif" font-size="10.00" fill="grey">is_free</text>
<text xml:space="preserve" text-anchor="start" x="286.5" y="-536.41" font-family="Helvetica,sans-Serif" font-size="10.00" fill="grey">is_functor</text>
<text xml:space="preserve" text-anchor="start" x="286.5" y="-520.41" font-family="Helvetica,sans-Serif" font-size="10.00" fill="grey">is_member</text>
<text xml:space="preserve" text-anchor="start" x="286.5" y="-504.41" font-family="Helvetica,sans-Serif" font-size="10.00" fill="grey">is_moved</text>
<text xml:space="preserve" text-anchor="start" x="286.5" y="-488.41" font-family="Helvetica,sans-Serif" font-size="10.00" fill="grey">is_noexcept</text>
<text xml:space="preserve" text-anchor="start" x="286.5" y="-472.41" font-family="Helvetica,sans-Serif" font-size="10.00" fill="grey">is_parent_moved</text>
<text xml:space="preserve" text-anchor="start" x="286.5" y="-456.41" font-family="Helvetica,sans-Serif" font-size="10.00" fill="grey">is_parent_ref</text>
<text xml:space="preserve" text-anchor="start" x="286.5" y="-440.41" font-family="Helvetica,sans-Serif" font-size="10.00" fill="grey">is_ptr</text>
<text xml:space="preserve" text-anchor="start" x="286.5" y="-424.41" font-family="Helvetica,sans-Serif" font-size="10.00" fill="grey">is_ref</text>
<text xml:space="preserve" text-anchor="start" x="286.5" y="-408.41" font-family="Helvetica,sans-Serif" font-size="10.00" fill="grey"> &#160;...</text>
</g>
<!-- Node3&#45;&gt;Node12 -->
<g id="edge20_Node000012_Node000003" class="edge">
<title>Node3&#45;&gt;Node12</title>
<g id="a_edge20_Node000012_Node000003"><a xlink:title=" ">
<path fill="none" stroke="#9a32cd" stroke-dasharray="5,2" d="M166.94,-166.68C197.74,-166.88 230.42,-173.26 253.75,-194 284.24,-221.1 240.2,-258.14 271.75,-284 336.57,-337.14 592.1,-278.23 703.14,-249.23"/>
<polygon fill="#9a32cd" stroke="#9a32cd" points="167.14,-163.17 157.21,-166.84 167.26,-170.17 167.14,-163.17"/>
</a>
</g>
<text xml:space="preserve" text-anchor="start" x="410.75" y="-310.28" font-family="Helvetica,sans-Serif" font-size="10.00" fill="grey">is_free</text>
</g>
<!-- Node4&#45;&gt;Node2 -->
<g id="edge3_Node000002_Node000004" class="edge">
<title>Node4&#45;&gt;Node2</title>
<g id="a_edge3_Node000002_Node000004"><a xlink:title=" ">
<path fill="none" stroke="orange" stroke-dasharray="5,2" d="M345.33,-316.27C360.82,-293.49 381.36,-265.53 393.5,-258 421.14,-240.85 457.1,-233.86 486.05,-231.15"/>
<polygon fill="orange" stroke="orange" points="342.55,-314.13 339.88,-324.39 348.36,-318.04 342.55,-314.13"/>
</a>
</g>
<text xml:space="preserve" text-anchor="start" x="405.88" y="-263.5" font-family="Helvetica,sans-Serif" font-size="10.00" fill="grey">&lt; false &gt;</text>
</g>
<!-- Node4&#45;&gt;Node11 -->
<g id="edge17_Node000011_Node000004" class="edge">
<title>Node4&#45;&gt;Node11</title>
<g id="a_edge17_Node000011_Node000004"><a xlink:title=" ">
<path fill="none" stroke="orange" stroke-dasharray="5,2" d="M386.49,-348C418.17,-348 456.25,-348 486.14,-348"/>
<polygon fill="orange" stroke="orange" points="386.65,-344.5 376.65,-348 386.65,-351.5 386.65,-344.5"/>
</a>
</g>
<text xml:space="preserve" text-anchor="start" x="408.12" y="-353.5" font-family="Helvetica,sans-Serif" font-size="10.00" fill="grey">&lt; true &gt;</text>
</g>
<!-- Node5&#45;&gt;Node1 -->
<g id="edge5_Node000001_Node000005" class="edge">
<title>Node5&#45;&gt;Node1</title>
<g id="a_edge5_Node000001_Node000005"><a xlink:title=" ">
<path fill="none" stroke="#63b8ff" d="M1423.96,-172.99C1451.96,-207.93 1496.8,-263.87 1521.54,-294.74"/>
<polygon fill="#63b8ff" stroke="#63b8ff" points="1426.82,-170.96 1417.83,-165.34 1421.36,-175.34 1426.82,-170.96"/>
</a>
</g>
</g>
<!-- Node6&#45;&gt;Node5 -->
<g id="edge7_Node000005_Node000006" class="edge">
<title>Node6&#45;&gt;Node5</title>
<g id="a_edge7_Node000005_Node000006"><a xlink:title=" ">
<path fill="none" stroke="#63b8ff" d="M1320.24,-142C1328.69,-142 1337.16,-142 1345.25,-142"/>
<polygon fill="#63b8ff" stroke="#63b8ff" points="1320.3,-138.5 1310.3,-142 1320.3,-145.5 1320.3,-138.5"/>
</a>
</g>
</g>
<!-- Node7&#45;&gt;Node6 -->
<g id="edge9_Node000006_Node000007" class="edge">
<title>Node7&#45;&gt;Node6</title>
<g id="a_edge9_Node000006_Node000007"><a xlink:title=" ">
<path fill="none" stroke="#63b8ff" d="M1063.69,-292.32C1096.54,-283.48 1136.14,-269.2 1166.5,-247 1199.46,-222.9 1224.95,-181.16 1237.3,-158.24"/>
<polygon fill="#63b8ff" stroke="#63b8ff" points="1063.11,-288.85 1054.3,-294.73 1064.86,-295.63 1063.11,-288.85"/>
</a>
</g>
</g>
<!-- Node8 -->
<g id="Node000008" class="node">
<title>Node8</title>
<g id="a_Node000008"><a xlink:href="../../d1/d4f/structmstd_1_1utils_1_1function__core__traits_3_01_r_07_args_8_8_8_08_00_01_c_01_4.html" target="_top" xlink:title=" ">
<polygon fill="white" stroke="#666666" points="826.75,-580 685.5,-580 685.5,-548 826.75,-548 826.75,-580"/>
<text xml:space="preserve" text-anchor="start" x="693.5" y="-566.5" font-family="Helvetica,sans-Serif" font-size="10.00">mstd::utils::function</text>
<text xml:space="preserve" text-anchor="middle" x="756.12" y="-554.5" font-family="Helvetica,sans-Serif" font-size="10.00">_core_traits&lt; R(Args...), C &gt;</text>
</a>
</g>
</g>
<!-- Node8&#45;&gt;Node7 -->
<g id="edge11_Node000007_Node000008" class="edge">
<title>Node8&#45;&gt;Node7</title>
<g id="a_edge11_Node000007_Node000008"><a xlink:title=" ">
<path fill="none" stroke="#63b8ff" d="M780.08,-539.41C829.09,-486.94 942.82,-365.16 983.88,-321.2"/>
<polygon fill="#63b8ff" stroke="#63b8ff" points="777.56,-536.99 773.29,-546.69 782.67,-541.77 777.56,-536.99"/>
</a>
</g>
</g>
<!-- Node9 -->
<g id="Node000009" class="node">
<title>Node9</title>
<g id="a_Node000009"><a xlink:href="../../df/db9/structmstd_1_1utils_1_1function__core__traits.html" target="_top" xlink:title=" ">
<polygon fill="white" stroke="#666666" points="600,-580 475.25,-580 475.25,-548 600,-548 600,-580"/>
<text xml:space="preserve" text-anchor="start" x="483.25" y="-566.5" font-family="Helvetica,sans-Serif" font-size="10.00">mstd::utils::function</text>
<text xml:space="preserve" text-anchor="middle" x="537.62" y="-554.5" font-family="Helvetica,sans-Serif" font-size="10.00">_core_traits&lt; R(Args...)&gt;</text>
</a>
</g>
</g>
<!-- Node9&#45;&gt;Node8 -->
<g id="edge12_Node000008_Node000009" class="edge">
<title>Node9&#45;&gt;Node8</title>
<g id="a_edge12_Node000008_Node000009"><a xlink:title=" ">
<path fill="none" stroke="#63b8ff" d="M611.8,-564C635.54,-564 661.8,-564 685.29,-564"/>
<polygon fill="#63b8ff" stroke="#63b8ff" points="611.89,-560.5 601.89,-564 611.89,-567.5 611.89,-560.5"/>
</a>
</g>
</g>
<!-- Node10 -->
<g id="Node000010" class="node">
<title>Node10</title>
<g id="a_Node000010"><a xlink:href="../../df/db9/structmstd_1_1utils_1_1function__core__traits.html" target="_top" xlink:title=" ">
<polygon fill="white" stroke="#666666" points="375.5,-634 271.75,-634 271.75,-602 375.5,-602 375.5,-634"/>
<text xml:space="preserve" text-anchor="start" x="279.75" y="-620.5" font-family="Helvetica,sans-Serif" font-size="10.00">mstd::utils::function</text>
<text xml:space="preserve" text-anchor="middle" x="323.62" y="-608.5" font-family="Helvetica,sans-Serif" font-size="10.00">_core_traits&lt; F, C &gt;</text>
</a>
</g>
</g>
<!-- Node10&#45;&gt;Node8 -->
<g id="edge14_Node000008_Node000010" class="edge">
<title>Node10&#45;&gt;Node8</title>
<g id="a_edge14_Node000008_Node000010"><a xlink:title=" ">
<path fill="none" stroke="orange" stroke-dasharray="5,2" d="M387.12,-612.4C443.01,-607.17 527.11,-598.7 600,-589 627.99,-585.27 658.7,-580.47 685.36,-576.08"/>
<polygon fill="orange" stroke="orange" points="387.12,-608.89 377.49,-613.3 387.77,-615.86 387.12,-608.89"/>
</a>
</g>
<text xml:space="preserve" text-anchor="start" x="500.5" y="-608.8" font-family="Helvetica,sans-Serif" font-size="10.00" fill="grey">&lt; R(Args...), C &gt;</text>
</g>
<!-- Node10&#45;&gt;Node9 -->
<g id="edge13_Node000009_Node000010" class="edge">
<title>Node10&#45;&gt;Node9</title>
<g id="a_edge13_Node000009_Node000010"><a xlink:title=" ">
<path fill="none" stroke="orange" stroke-dasharray="5,2" d="M362.78,-596.47C372.55,-591.72 383.2,-587.17 393.5,-584 419.64,-575.95 449.46,-571.13 475.1,-568.25"/>
<polygon fill="orange" stroke="orange" points="361.28,-593.31 353.95,-600.96 364.45,-599.56 361.28,-593.31"/>
</a>
</g>
<text xml:space="preserve" text-anchor="start" x="396.5" y="-589.5" font-family="Helvetica,sans-Serif" font-size="10.00" fill="grey">&lt; R(Args...)&gt;</text>
</g>
<!-- Node11&#45;&gt;Node7 -->
<g id="edge15_Node000007_Node000011" class="edge">
<title>Node11&#45;&gt;Node7</title>
<g id="a_edge15_Node000007_Node000011"><a xlink:title=" ">
<path fill="none" stroke="#63b8ff" d="M600.35,-344.13C676.72,-339.05 810.68,-329.22 925,-316 932.1,-315.18 939.56,-314.2 946.9,-313.18"/>
<polygon fill="#63b8ff" stroke="#63b8ff" points="600.31,-340.62 590.56,-344.77 600.77,-347.61 600.31,-340.62"/>
</a>
</g>
</g>
<!-- Node12&#45;&gt;Node1 -->
<g id="edge26_Node000001_Node000012" class="edge">
<title>Node12&#45;&gt;Node1</title>
<g id="a_edge26_Node000001_Node000012"><a xlink:title=" ">
<path fill="none" stroke="orange" stroke-dasharray="5,2" d="M820.36,-241.63C971.04,-257.42 1348.97,-297.04 1487.46,-311.56"/>
<polygon fill="orange" stroke="orange" points="820.87,-238.16 810.56,-240.6 820.14,-245.13 820.87,-238.16"/>
</a>
</g>
<text xml:space="preserve" text-anchor="start" x="1203.75" y="-314.24" font-family="Helvetica,sans-Serif" font-size="10.00" fill="grey">&lt; R(Args...) volatile</text>
<text xml:space="preserve" text-anchor="start" x="1203.75" y="-298.24" font-family="Helvetica,sans-Serif" font-size="10.00" fill="grey">   &amp;&amp;noexcept, C &gt;</text>
</g>
<!-- Node12&#45;&gt;Node5 -->
<g id="edge24_Node000005_Node000012" class="edge">
<title>Node12&#45;&gt;Node5</title>
<g id="a_edge24_Node000005_Node000012"><a xlink:title=" ">
<path fill="none" stroke="orange" stroke-dasharray="5,2" d="M820.12,-228.45C944.21,-215.35 1216.24,-185.59 1308.5,-167 1320.57,-164.57 1333.39,-161.34 1345.43,-158.01"/>
<polygon fill="orange" stroke="orange" points="820.02,-224.94 810.45,-229.47 820.76,-231.9 820.02,-224.94"/>
</a>
</g>
<text xml:space="preserve" text-anchor="start" x="1078" y="-220.9" font-family="Helvetica,sans-Serif" font-size="10.00" fill="grey">&lt; R(Args...) volatile</text>
<text xml:space="preserve" text-anchor="start" x="1078" y="-204.9" font-family="Helvetica,sans-Serif" font-size="10.00" fill="grey">   &amp;&amp;, C &gt;</text>
</g>
<!-- Node12&#45;&gt;Node6 -->
<g id="edge22_Node000006_Node000012" class="edge">
<title>Node12&#45;&gt;Node6</title>
<g id="a_edge22_Node000006_Node000012"><a xlink:title=" ">
<path fill="none" stroke="orange" stroke-dasharray="5,2" d="M804.2,-214.2C817.16,-209.03 831.35,-203.86 844.75,-200 962.12,-166.17 1104.77,-151.55 1184.32,-145.64"/>
<polygon fill="orange" stroke="orange" points="802.98,-210.92 795.05,-217.95 805.63,-217.4 802.98,-210.92"/>
</a>
</g>
<text xml:space="preserve" text-anchor="start" x="946" y="-181.49" font-family="Helvetica,sans-Serif" font-size="10.00" fill="grey">&lt; R(Args...) volatile, C &gt;</text>
</g>
<!-- Node12&#45;&gt;Node7 -->
<g id="edge18_Node000007_Node000012" class="edge">
<title>Node12&#45;&gt;Node7</title>
<g id="a_edge18_Node000007_Node000012"><a xlink:title=" ">
<path fill="none" stroke="orange" stroke-dasharray="5,2" d="M820.16,-246.38C851.98,-252.85 890.95,-261.89 925,-273 938.17,-277.3 952.23,-283.06 964.51,-288.51"/>
<polygon fill="orange" stroke="orange" points="821.2,-243.02 810.71,-244.5 819.84,-249.89 821.2,-243.02"/>
</a>
</g>
<text xml:space="preserve" text-anchor="start" x="847.75" y="-278.5" font-family="Helvetica,sans-Serif" font-size="10.00" fill="grey">&lt; R(Args...), C &gt;</text>
</g>
</g>
</svg>

<g id="navigator" transform="translate(0 0)" fill="#404254">
  <rect fill="#f2f5e9" fill-opacity="0.5" stroke="#606060" stroke-width=".5" x="0" y="0" width="60" height="60"/>
  <use id="zoomplus" xlink:href="#zoomPlus" x="17" y="9" onmousedown="handleZoom(evt,'in')"/>
  <use id="zoomminus" xlink:href="#zoomMin" x="42" y="9" onmousedown="handleZoom(evt,'out')"/>
  <use id="reset" xlink:href="#resetDef" x="30" y="36" onmousedown="handleReset()"/>
   <use id="arrowup" xlink:href="#arrowUp" x="0" y="0" onmousedown="handlePan(0,-1)"/>
  <use id="arrowright" xlink:href="#arrowRight" x="0" y="0" onmousedown="handlePan(1,0)"/>
  <use id="arrowdown" xlink:href="#arrowDown" x="0" y="0" onmousedown="handlePan(0,1)"/>
  <use id="arrowleft" xlink:href="#arrowLeft" x="0" y="0" onmousedown="handlePan(-1,0)"/>
</g>
<svg viewBox="0 0 15 15" width="100%" height="30px" preserveAspectRatio="xMaxYMin meet">
 <g id="arrow_out" transform="scale(0.3 0.3)">
  <a xlink:href="structmstd_1_1function__traits_3_01_r_07_args_8_8_8_08_01volatile_01_6_6noexcept_00_01_c_01_4__coll__graph_org.svg" target="_base">
   <rect id="button" ry="5" rx="5" y="6" x="6" height="38" width="38"
        fill="#f2f5e9" fill-opacity="0.5" stroke="#606060" stroke-width="1.0"/>
   <path id="arrow"
     d="M 11.500037,31.436501 C 11.940474,20.09759 22.043105,11.32322 32.158766,21.979434 L 37.068811,17.246167 C 37.068811,17.246167 37.088388,32 37.088388,32 L 22.160133,31.978069 C 22.160133,31.978069 26.997745,27.140456 26.997745,27.140456 C 18.528582,18.264221 13.291696,25.230495 11.500037,31.436501 z"
     style="fill:#404040;"/>
  </a>
 </g>
</svg>

<style type='text/css'>
<![CDATA[
[data-mouse-over-selected='false'] { opacity: 0.7; }
[data-mouse-over-selected='true']  { opacity: 1.0; }
]]>
</style>
<script type="application/ecmascript"><![CDATA[
document.addEventListener('DOMContentLoaded', (event) => {
  highlightEdges();
  highlightAdjacentNodes();
});
]]></script>
</svg>
