<?xml version="1.0" encoding="UTF-8" standalone="no"?>
<!DOCTYPE svg PUBLIC "-//W3C//DTD SVG 1.1//EN"
 "http://www.w3.org/Graphics/SVG/1.1/DTD/svg11.dtd">
<!-- Generated by graphviz version 14.1.1 (20251213.1925)
 -->
<!-- Title: mstd::function_traits&lt; R(*)(Args...) noexcept &gt; Pages: 1 -->
<!--zoomable 364 -->

<svg id="main" version="1.1" xmlns="http://www.w3.org/2000/svg" xmlns:xlink="http://www.w3.org/1999/xlink" xml:space="preserve" onload="init(evt)">

<style type="text/css"><![CDATA[
.node, .edge {opacity: 0.7;}
.node.selected, .edge.selected {opacity: 1;}
.edge:hover path { stroke: red; }
.edge:hover polygon { stroke: red; fill: red; }
]]></style>

<defs>
  <circle id="rim" cx="0" cy="0" r="7"/>
  <circle id="rim2" cx="0" cy="0" r="3.5"/>
  <g id="zoomPlus">
    <use xlink:href="#rim" fill="#404040"><set attributeName="fill" to="#808080" begin="zoomplus.mouseover" end="zoomplus.mouseout"/></use>
    <path d="M-4,0h8M0,-4v8" fill="none" stroke="white" stroke-width="1.5" pointer-events="none"/>
  </g>
  <g id="zoomMin">
    <use xlink:href="#rim" fill="#404040"><set attributeName="fill" to="#808080" begin="zoomminus.mouseover" end="zoomminus.mouseout"/></use>
    <path d="M-4,0h8" fill="none" stroke="white" stroke-width="1.5" pointer-events="none"/>
  </g>
  <g id="arrowUp" transform="translate(30 24)">
    <use xlink:href="#rim"/>
    <path pointer-events="none" fill="none" stroke="white" stroke-width="1.5" d="M0,-3.0v7 M-2.5,-0.5L0,-3.0L2.5,-0.5"/>
  </g>
  <g id="arrowRight" transform="rotate(90) translate(36 -43)">
    <use xlink:href="#rim"/>
    <path pointer-events="none" fill="none" stroke="white" stroke-width="1.5" d="M0,-3.0v7 M-2.5,-0.5L0,-3.0L2.5,-0.5"/>
  </g>
  <g id="arrowDown" transform="rotate(180) translate(-30 -48)">
    <use xlink:href="#rim"/>
    <path pointer-events="none" fill="none" stroke="white" stroke-width="1.5" d="M0,-3.0v7 M-2.5,-0.5L0,-3.0L2.5,-0.5"/>
  </g>
  <g id="arrowLeft" transform="rotate(270) translate(-36 17)">
    <use xlink:href="#rim"/>
    <path pointer-events="none" fill="none" stroke="white" stroke-width="1.5" d="M0,-3.0v7 M-2.5,-0.5L0,-3.0L2.5,-0.5"/>
  </g>
  <g id="resetDef">
    <use xlink:href="#rim2" fill="#404040"><set attributeName="fill" to="#808080" begin="reset.mouseover" end="reset.mouseout"/></use>
  </g>
</defs>
<script type="application/ecmascript">
var viewWidth = 1442;
var viewHeight = 364;
var sectionId = 'dynsection-1';
</script>
<script type="application/ecmascript" xlink:href="../../svg.min.js"/>
<svg id="graph" class="graph">
<g id="viewport">
<title>mstd::function_traits&lt; R(*)(Args...) noexcept &gt;</title>
<!-- Node1 -->
<g id="Node000001" class="node">
<title>Node1</title>
<g id="a_Node000001"><a xlink:title=" ">
<polygon fill="#999999" stroke="#666666" points="1433.5,-133.62 1304.25,-133.62 1304.25,-101.62 1433.5,-101.62 1433.5,-133.62"/>
<text xml:space="preserve" text-anchor="start" x="1312.25" y="-120.12" font-family="Helvetica,sans-Serif" font-size="10.00">mstd::function_traits</text>
<text xml:space="preserve" text-anchor="middle" x="1368.88" y="-108.12" font-family="Helvetica,sans-Serif" font-size="10.00">&lt; R(*)(Args...) noexcept &gt;</text>
</a>
</g>
</g>
<!-- Node2 -->
<g id="Node000002" class="node">
<title>Node2</title>
<g id="a_Node000002"><a xlink:href="../../d0/d74/structmstd_1_1utils_1_1function__default__type__traits.html" target="_top" xlink:title=" ">
<polygon fill="white" stroke="#666666" points="558,-131.62 455.75,-131.62 455.75,-87.62 558,-87.62 558,-131.62"/>
<text xml:space="preserve" text-anchor="start" x="463.75" y="-118.12" font-family="Helvetica,sans-Serif" font-size="10.00">mstd::utils::function</text>
<text xml:space="preserve" text-anchor="start" x="463.75" y="-106.12" font-family="Helvetica,sans-Serif" font-size="10.00">_default_type_traits</text>
<text xml:space="preserve" text-anchor="middle" x="506.88" y="-94.12" font-family="Helvetica,sans-Serif" font-size="10.00">&lt; false &gt;</text>
</a>
</g>
</g>
<!-- Node2&#45;&gt;Node1 -->
<g id="edge1_Node000001_Node000002" class="edge">
<title>Node2&#45;&gt;Node1</title>
<g id="a_edge1_Node000001_Node000002"><a xlink:title=" ">
<path fill="none" stroke="#63b8ff" d="M547.79,-80.9C588.87,-54.23 655.73,-18.62 719.88,-18.62 719.88,-18.62 719.88,-18.62 1208.5,-18.62 1270.39,-18.62 1328.2,-73.15 1353.9,-101.27"/>
<polygon fill="#63b8ff" stroke="#63b8ff" points="546.08,-77.84 539.69,-86.28 549.96,-83.67 546.08,-77.84"/>
</a>
</g>
</g>
<!-- Node5 -->
<g id="Node000005" class="node">
<title>Node5</title>
<g id="a_Node000005"><a xlink:href="../../df/d39/structmstd_1_1function__traits_3_01_r_07_args_8_8_8_08_01noexcept_01_4.html" target="_top" xlink:title=" ">
<polygon fill="white" stroke="#666666" points="1267.25,-156.62 1147.75,-156.62 1147.75,-124.62 1267.25,-124.62 1267.25,-156.62"/>
<text xml:space="preserve" text-anchor="start" x="1155.75" y="-143.12" font-family="Helvetica,sans-Serif" font-size="10.00">mstd::function_traits</text>
<text xml:space="preserve" text-anchor="middle" x="1207.5" y="-131.12" font-family="Helvetica,sans-Serif" font-size="10.00">&lt; R(Args...) noexcept &gt;</text>
</a>
</g>
</g>
<!-- Node2&#45;&gt;Node5 -->
<g id="edge6_Node000005_Node000002" class="edge">
<title>Node2&#45;&gt;Node5</title>
<g id="a_edge6_Node000005_Node000002"><a xlink:title=" ">
<path fill="none" stroke="#63b8ff" d="M569.47,-97.04C596.64,-92.1 629.03,-87.04 658.5,-84.62 787.35,-73.99 1114.12,-97.46 1129.75,-101.62 1147.81,-106.41 1166.53,-115.82 1180.96,-124.2"/>
<polygon fill="#63b8ff" stroke="#63b8ff" points="568.85,-93.6 559.66,-98.86 570.13,-100.48 568.85,-93.6"/>
</a>
</g>
</g>
<!-- Node6 -->
<g id="Node000006" class="node">
<title>Node6</title>
<g id="a_Node000006"><a xlink:href="../../d0/dfd/structmstd_1_1function__traits_3_01_r_07_args_8_8_8_08_4.html" target="_top" xlink:title=" ">
<polygon fill="white" stroke="#666666" points="990.38,-210.62 885.12,-210.62 885.12,-178.62 990.38,-178.62 990.38,-210.62"/>
<text xml:space="preserve" text-anchor="start" x="893.12" y="-197.12" font-family="Helvetica,sans-Serif" font-size="10.00">mstd::function_traits</text>
<text xml:space="preserve" text-anchor="middle" x="937.75" y="-185.12" font-family="Helvetica,sans-Serif" font-size="10.00">&lt; R(Args...)&gt;</text>
</a>
</g>
</g>
<!-- Node2&#45;&gt;Node6 -->
<g id="edge8_Node000006_Node000002" class="edge">
<title>Node2&#45;&gt;Node6</title>
<g id="a_edge8_Node000006_Node000002"><a xlink:title=" ">
<path fill="none" stroke="#63b8ff" d="M569.4,-116.45C628.66,-127.44 720.9,-147.31 801.25,-162.62 828.79,-167.86 859.6,-173.14 884.87,-178.18"/>
<polygon fill="#63b8ff" stroke="#63b8ff" points="570.32,-113.06 559.86,-114.71 569.07,-119.95 570.32,-113.06"/>
</a>
</g>
</g>
<!-- Node2&#45;&gt;Node6 -->
<g id="edge11_Node000006_Node000002" class="edge">
<title>Node2&#45;&gt;Node6</title>
<g id="a_edge11_Node000006_Node000002"><a xlink:title=" ">
<path fill="none" stroke="#63b8ff" d="M569.4,-130.29C628.66,-145.44 720.9,-165.31 801.25,-180.62 828.79,-185.86 859.6,-191.14 884.87,-194.44"/>
<polygon fill="#63b8ff" stroke="#63b8ff" points="570.39,-126.93 559.83,-127.8 568.63,-133.7 570.39,-126.93"/>
</a>
</g>
</g>
<!-- Node9 -->
<g id="Node000009" class="node">
<title>Node9</title>
<g id="a_Node000009"><a xlink:href="../../d7/dcb/structmstd_1_1function__traits.html" target="_top" xlink:title=" ">
<polygon fill="white" stroke="#666666" points="773.5,-125.62 668.25,-125.62 668.25,-93.62 773.5,-93.62 773.5,-125.62"/>
<text xml:space="preserve" text-anchor="start" x="676.25" y="-112.12" font-family="Helvetica,sans-Serif" font-size="10.00">mstd::function_traits</text>
<text xml:space="preserve" text-anchor="middle" x="720.88" y="-100.12" font-family="Helvetica,sans-Serif" font-size="10.00">&lt; F, C &gt;</text>
</a>
</g>
</g>
<!-- Node2&#45;&gt;Node9 -->
<g id="edge13_Node000009_Node000002" class="edge">
<title>Node2&#45;&gt;Node9</title>
<g id="a_edge13_Node000009_Node000002"><a xlink:title=" ">
<path fill="none" stroke="#63b8ff" d="M569.57,-109.62C600.76,-109.62 638.2,-109.62 667.91,-109.62"/>
<polygon fill="#63b8ff" stroke="#63b8ff" points="569.9,-106.12 559.9,-109.62 569.9,-113.12 569.9,-106.12"/>
</a>
</g>
</g>
<!-- Node3 -->
<g id="Node000003" class="node">
<title>Node3</title>
<g id="a_Node000003"><a xlink:title=" ">
<polygon fill="white" stroke="#666666" points="155.5,-114.62 0,-114.62 0,-82.62 155.5,-82.62 155.5,-114.62"/>
<text xml:space="preserve" text-anchor="start" x="8" y="-101.12" font-family="Helvetica,sans-Serif" font-size="10.00">static _MSTD_CONSTEXPR17</text>
<text xml:space="preserve" text-anchor="middle" x="77.75" y="-89.12" font-family="Helvetica,sans-Serif" font-size="10.00"> const bool</text>
</a>
</g>
</g>
<!-- Node3&#45;&gt;Node1 -->
<g id="edge17_Node000001_Node000003" class="edge">
<title>Node3&#45;&gt;Node1</title>
<g id="a_edge17_Node000001_Node000003"><a xlink:title=" ">
<path fill="none" stroke="#9a32cd" stroke-dasharray="5,2" d="M83.71,-126.21C93.11,-170.23 117.8,-256.01 173.5,-301.62 226,-344.6 254.02,-337.62 321.88,-337.62 321.88,-337.62 321.88,-337.62 1208.5,-337.62 1309.19,-337.62 1352.78,-184.6 1364.48,-133.79"/>
<polygon fill="#9a32cd" stroke="#9a32cd" points="87.15,-125.57 81.75,-116.45 80.29,-126.95 87.15,-125.57"/>
</a>
</g>
<text xml:space="preserve" text-anchor="start" x="708.88" y="-343.12" font-family="Helvetica,sans-Serif" font-size="10.00" fill="grey">is_ptr</text>
</g>
<!-- Node3&#45;&gt;Node2 -->
<g id="edge2_Node000002_Node000003" class="edge">
<title>Node3&#45;&gt;Node2</title>
<g id="a_edge2_Node000002_Node000003"><a xlink:title=" ">
<path fill="none" stroke="#9a32cd" stroke-dasharray="5,2" d="M118.76,-77.35C175.79,-49.83 283.55,-8.14 374,-32.62 413.16,-43.21 452.61,-68.64 478.02,-87.4"/>
<polygon fill="#9a32cd" stroke="#9a32cd" points="117.49,-74.07 110.08,-81.64 120.59,-80.35 117.49,-74.07"/>
</a>
</g>
<text xml:space="preserve" text-anchor="start" x="285.75" y="-198.12" font-family="Helvetica,sans-Serif" font-size="10.00" fill="grey">is_const</text>
<text xml:space="preserve" text-anchor="start" x="285.75" y="-182.12" font-family="Helvetica,sans-Serif" font-size="10.00" fill="grey">is_free</text>
<text xml:space="preserve" text-anchor="start" x="285.75" y="-166.12" font-family="Helvetica,sans-Serif" font-size="10.00" fill="grey">is_functor</text>
<text xml:space="preserve" text-anchor="start" x="285.75" y="-150.12" font-family="Helvetica,sans-Serif" font-size="10.00" fill="grey">is_member</text>
<text xml:space="preserve" text-anchor="start" x="285.75" y="-134.12" font-family="Helvetica,sans-Serif" font-size="10.00" fill="grey">is_moved</text>
<text xml:space="preserve" text-anchor="start" x="285.75" y="-118.12" font-family="Helvetica,sans-Serif" font-size="10.00" fill="grey">is_noexcept</text>
<text xml:space="preserve" text-anchor="start" x="285.75" y="-102.12" font-family="Helvetica,sans-Serif" font-size="10.00" fill="grey">is_parent_moved</text>
<text xml:space="preserve" text-anchor="start" x="285.75" y="-86.12" font-family="Helvetica,sans-Serif" font-size="10.00" fill="grey">is_parent_ref</text>
<text xml:space="preserve" text-anchor="start" x="285.75" y="-70.12" font-family="Helvetica,sans-Serif" font-size="10.00" fill="grey">is_ptr</text>
<text xml:space="preserve" text-anchor="start" x="285.75" y="-54.12" font-family="Helvetica,sans-Serif" font-size="10.00" fill="grey">is_ref</text>
<text xml:space="preserve" text-anchor="start" x="285.75" y="-38.12" font-family="Helvetica,sans-Serif" font-size="10.00" fill="grey"> &#160;...</text>
</g>
<!-- Node4 -->
<g id="Node000004" class="node">
<title>Node4</title>
<g id="a_Node000004"><a xlink:href="../../d0/d74/structmstd_1_1utils_1_1function__default__type__traits.html" target="_top" xlink:title=" ">
<polygon fill="white" stroke="#666666" points="374,-263.62 271.75,-263.62 271.75,-219.62 374,-219.62 374,-263.62"/>
<text xml:space="preserve" text-anchor="start" x="279.75" y="-250.12" font-family="Helvetica,sans-Serif" font-size="10.00">mstd::utils::function</text>
<text xml:space="preserve" text-anchor="start" x="279.75" y="-238.12" font-family="Helvetica,sans-Serif" font-size="10.00">_default_type_traits</text>
<text xml:space="preserve" text-anchor="middle" x="322.88" y="-226.12" font-family="Helvetica,sans-Serif" font-size="10.00">&lt; IsMember &gt;</text>
</a>
</g>
</g>
<!-- Node3&#45;&gt;Node4 -->
<g id="edge4_Node000004_Node000003" class="edge">
<title>Node3&#45;&gt;Node4</title>
<g id="a_edge4_Node000004_Node000003"><a xlink:title=" ">
<path fill="none" stroke="#9a32cd" stroke-dasharray="5,2" d="M144.59,-80.14C180.82,-74.19 224.27,-74.57 253.75,-99.62 290.17,-130.55 246.44,-165.08 271.75,-205.62 274.93,-210.7 279.11,-215.29 283.71,-219.35"/>
<polygon fill="#9a32cd" stroke="#9a32cd" points="144.29,-76.63 135.09,-81.89 145.56,-83.52 144.29,-76.63"/>
</a>
</g>
<text xml:space="preserve" text-anchor="start" x="176.5" y="-265.12" font-family="Helvetica,sans-Serif" font-size="10.00" fill="grey">is_const</text>
<text xml:space="preserve" text-anchor="start" x="176.5" y="-249.12" font-family="Helvetica,sans-Serif" font-size="10.00" fill="grey">is_free</text>
<text xml:space="preserve" text-anchor="start" x="176.5" y="-233.12" font-family="Helvetica,sans-Serif" font-size="10.00" fill="grey">is_functor</text>
<text xml:space="preserve" text-anchor="start" x="176.5" y="-217.12" font-family="Helvetica,sans-Serif" font-size="10.00" fill="grey">is_member</text>
<text xml:space="preserve" text-anchor="start" x="176.5" y="-201.12" font-family="Helvetica,sans-Serif" font-size="10.00" fill="grey">is_moved</text>
<text xml:space="preserve" text-anchor="start" x="176.5" y="-185.12" font-family="Helvetica,sans-Serif" font-size="10.00" fill="grey">is_noexcept</text>
<text xml:space="preserve" text-anchor="start" x="176.5" y="-169.12" font-family="Helvetica,sans-Serif" font-size="10.00" fill="grey">is_parent_moved</text>
<text xml:space="preserve" text-anchor="start" x="176.5" y="-153.12" font-family="Helvetica,sans-Serif" font-size="10.00" fill="grey">is_parent_ref</text>
<text xml:space="preserve" text-anchor="start" x="176.5" y="-137.12" font-family="Helvetica,sans-Serif" font-size="10.00" fill="grey">is_ptr</text>
<text xml:space="preserve" text-anchor="start" x="176.5" y="-121.12" font-family="Helvetica,sans-Serif" font-size="10.00" fill="grey">is_ref</text>
<text xml:space="preserve" text-anchor="start" x="176.5" y="-105.12" font-family="Helvetica,sans-Serif" font-size="10.00" fill="grey"> &#160;...</text>
</g>
<!-- Node3&#45;&gt;Node5 -->
<g id="edge15_Node000005_Node000003" class="edge">
<title>Node3&#45;&gt;Node5</title>
<g id="a_edge15_Node000005_Node000003"><a xlink:title=" ">
<path fill="none" stroke="#9a32cd" stroke-dasharray="5,2" d="M84.58,-125.91C94.84,-166.56 120.28,-242.06 173.5,-277.62 228.58,-314.41 255.64,-291.62 321.88,-291.62 321.88,-291.62 321.88,-291.62 938.75,-291.62 1047.35,-291.62 1152.49,-196.2 1191.04,-157.06"/>
<polygon fill="#9a32cd" stroke="#9a32cd" points="88.05,-125.35 82.32,-116.43 81.24,-126.97 88.05,-125.35"/>
</a>
</g>
<text xml:space="preserve" text-anchor="start" x="582.38" y="-297.12" font-family="Helvetica,sans-Serif" font-size="10.00" fill="grey">is_noexcept</text>
</g>
<!-- Node3&#45;&gt;Node9 -->
<g id="edge14_Node000009_Node000003" class="edge">
<title>Node3&#45;&gt;Node9</title>
<g id="a_edge14_Node000009_Node000003"><a xlink:title=" ">
<path fill="none" stroke="#9a32cd" stroke-dasharray="5,2" d="M102.49,-74.53C120.34,-58.11 146.31,-37.6 173.5,-27.62 283.52,12.8 321.26,1.92 437,-16.62 528.12,-31.21 629.7,-70.67 682.85,-93.22"/>
<polygon fill="#9a32cd" stroke="#9a32cd" points="100.35,-71.74 95.5,-81.16 105.17,-76.81 100.35,-71.74"/>
</a>
</g>
<text xml:space="preserve" text-anchor="start" x="399.88" y="-22.12" font-family="Helvetica,sans-Serif" font-size="10.00" fill="grey">is_free</text>
</g>
<!-- Node4&#45;&gt;Node2 -->
<g id="edge3_Node000002_Node000004" class="edge">
<title>Node4&#45;&gt;Node2</title>
<g id="a_edge3_Node000002_Node000004"><a xlink:title=" ">
<path fill="none" stroke="orange" stroke-dasharray="5,2" d="M364.35,-212.58C367.62,-210.22 370.87,-207.88 374,-205.62 408.77,-180.48 448.57,-151.47 475.27,-131.98"/>
<polygon fill="orange" stroke="orange" points="362.48,-209.61 356.41,-218.29 366.57,-215.29 362.48,-209.61"/>
</a>
</g>
<text xml:space="preserve" text-anchor="start" x="395" y="-195.46" font-family="Helvetica,sans-Serif" font-size="10.00" fill="grey">&lt; false &gt;</text>
</g>
<!-- Node5&#45;&gt;Node1 -->
<g id="edge5_Node000001_Node000005" class="edge">
<title>Node5&#45;&gt;Node1</title>
<g id="a_edge5_Node000001_Node000005"><a xlink:title=" ">
<path fill="none" stroke="#63b8ff" d="M1278.69,-130.49C1287.07,-129.28 1295.58,-128.05 1303.87,-126.85"/>
<polygon fill="#63b8ff" stroke="#63b8ff" points="1278.29,-127.01 1268.89,-131.9 1279.29,-133.94 1278.29,-127.01"/>
</a>
</g>
</g>
<!-- Node6&#45;&gt;Node5 -->
<g id="edge7_Node000005_Node000006" class="edge">
<title>Node6&#45;&gt;Node5</title>
<g id="a_edge7_Node000005_Node000006"><a xlink:title=" ">
<path fill="none" stroke="#63b8ff" d="M1001.87,-181.88C1046.02,-172.98 1104.56,-161.17 1147.72,-152.47"/>
<polygon fill="#63b8ff" stroke="#63b8ff" points="1001.29,-178.43 992.18,-183.84 1002.67,-185.29 1001.29,-178.43"/>
</a>
</g>
</g>
<!-- Node7 -->
<g id="Node000007" class="node">
<title>Node7</title>
<g id="a_Node000007"><a xlink:href="../../df/db9/structmstd_1_1utils_1_1function__core__traits.html" target="_top" xlink:title=" ">
<polygon fill="white" stroke="#666666" points="783.25,-263.62 658.5,-263.62 658.5,-231.62 783.25,-231.62 783.25,-263.62"/>
<text xml:space="preserve" text-anchor="start" x="666.5" y="-250.12" font-family="Helvetica,sans-Serif" font-size="10.00">mstd::utils::function</text>
<text xml:space="preserve" text-anchor="middle" x="720.88" y="-238.12" font-family="Helvetica,sans-Serif" font-size="10.00">_core_traits&lt; R(Args...)&gt;</text>
</a>
</g>
</g>
<!-- Node7&#45;&gt;Node6 -->
<g id="edge9_Node000006_Node000007" class="edge">
<title>Node7&#45;&gt;Node6</title>
<g id="a_edge9_Node000006_Node000007"><a xlink:title=" ">
<path fill="none" stroke="#63b8ff" d="M794.74,-233.86C817.37,-229.18 842.32,-223.61 865,-217.62 872.46,-215.64 880.29,-213.36 887.93,-211.01"/>
<polygon fill="#63b8ff" stroke="#63b8ff" points="794.08,-230.43 784.98,-235.85 795.47,-237.28 794.08,-230.43"/>
</a>
</g>
</g>
<!-- Node8 -->
<g id="Node000008" class="node">
<title>Node8</title>
<g id="a_Node000008"><a xlink:href="../../df/db9/structmstd_1_1utils_1_1function__core__traits.html" target="_top" xlink:title=" ">
<polygon fill="white" stroke="#666666" points="558.75,-263.62 455,-263.62 455,-231.62 558.75,-231.62 558.75,-263.62"/>
<text xml:space="preserve" text-anchor="start" x="463" y="-250.12" font-family="Helvetica,sans-Serif" font-size="10.00">mstd::utils::function</text>
<text xml:space="preserve" text-anchor="middle" x="506.88" y="-238.12" font-family="Helvetica,sans-Serif" font-size="10.00">_core_traits&lt; F, C &gt;</text>
</a>
</g>
</g>
<!-- Node8&#45;&gt;Node7 -->
<g id="edge10_Node000007_Node000008" class="edge">
<title>Node8&#45;&gt;Node7</title>
<g id="a_edge10_Node000007_Node000008"><a xlink:title=" ">
<path fill="none" stroke="orange" stroke-dasharray="5,2" d="M570.7,-247.62C598.3,-247.62 630.6,-247.62 658.08,-247.62"/>
<polygon fill="orange" stroke="orange" points="570.71,-244.12 560.71,-247.62 570.71,-251.12 570.71,-244.12"/>
</a>
</g>
<text xml:space="preserve" text-anchor="start" x="579.75" y="-253.12" font-family="Helvetica,sans-Serif" font-size="10.00" fill="grey">&lt; R(Args...)&gt;</text>
</g>
<!-- Node9&#45;&gt;Node1 -->
<g id="edge18_Node000001_Node000009" class="edge">
<title>Node9&#45;&gt;Node1</title>
<g id="a_edge18_Node000001_Node000009"><a xlink:title=" ">
<path fill="none" stroke="orange" stroke-dasharray="5,2" d="M785.08,-107.96C865.26,-106.13 1007.79,-103.8 1129.75,-106.62 1188.81,-107.98 1256.05,-111.24 1303.98,-113.86"/>
<polygon fill="orange" stroke="orange" points="785.14,-104.46 775.23,-108.19 785.31,-111.45 785.14,-104.46"/>
</a>
</g>
<text xml:space="preserve" text-anchor="start" x="1013.5" y="-112.12" font-family="Helvetica,sans-Serif" font-size="10.00" fill="grey">&lt; R(*)(Args...) noexcept &gt;</text>
</g>
<!-- Node9&#45;&gt;Node5 -->
<g id="edge16_Node000005_Node000009" class="edge">
<title>Node9&#45;&gt;Node5</title>
<g id="a_edge16_Node000005_Node000009"><a xlink:title=" ">
<path fill="none" stroke="orange" stroke-dasharray="5,2" d="M785.1,-113.66C879.42,-119.69 1055.69,-130.97 1147.5,-136.84"/>
<polygon fill="orange" stroke="orange" points="785.45,-110.17 775.25,-113.03 785,-117.16 785.45,-110.17"/>
</a>
</g>
<text xml:space="preserve" text-anchor="start" x="886" y="-132.16" font-family="Helvetica,sans-Serif" font-size="10.00" fill="grey">&lt; R(Args...) noexcept &gt;</text>
</g>
<!-- Node9&#45;&gt;Node6 -->
<g id="edge12_Node000006_Node000009" class="edge">
<title>Node9&#45;&gt;Node6</title>
<g id="a_edge12_Node000006_Node000009"><a xlink:title=" ">
<path fill="none" stroke="orange" stroke-dasharray="5,2" d="M784.85,-125.72C810.21,-133.03 839.44,-142.55 865,-153.62 873.82,-157.44 893.07,-168.49 909.41,-178.16"/>
<polygon fill="orange" stroke="orange" points="785.9,-122.38 775.33,-123.03 784,-129.11 785.9,-122.38"/>
</a>
</g>
<text xml:space="preserve" text-anchor="start" x="804.25" y="-159.12" font-family="Helvetica,sans-Serif" font-size="10.00" fill="grey">&lt; R(Args...)&gt;</text>
</g>
</g>
</svg>

<g id="navigator" transform="translate(0 0)" fill="#404254">
  <rect fill="#f2f5e9" fill-opacity="0.5" stroke="#606060" stroke-width=".5" x="0" y="0" width="60" height="60"/>
  <use id="zoomplus" xlink:href="#zoomPlus" x="17" y="9" onmousedown="handleZoom(evt,'in')"/>
  <use id="zoomminus" xlink:href="#zoomMin" x="42" y="9" onmousedown="handleZoom(evt,'out')"/>
  <use id="reset" xlink:href="#resetDef" x="30" y="36" onmousedown="handleReset()"/>
   <use id="arrowup" xlink:href="#arrowUp" x="0" y="0" onmousedown="handlePan(0,-1)"/>
  <use id="arrowright" xlink:href="#arrowRight" x="0" y="0" onmousedown="handlePan(1,0)"/>
  <use id="arrowdown" xlink:href="#arrowDown" x="0" y="0" onmousedown="handlePan(0,1)"/>
  <use id="arrowleft" xlink:href="#arrowLeft" x="0" y="0" onmousedown="handlePan(-1,0)"/>
</g>
<svg viewBox="0 0 15 15" width="100%" height="30px" preserveAspectRatio="xMaxYMin meet">
 <g id="arrow_out" transform="scale(0.3 0.3)">
  <a xlink:href="structmstd_1_1function__traits_3_01_r_07_5_08_07_args_8_8_8_08_01noexcept_01_4__coll__graph_org.svg" target="_base">
   <rect id="button" ry="5" rx="5" y="6" x="6" height="38" width="38"
        fill="#f2f5e9" fill-opacity="0.5" stroke="#606060" stroke-width="1.0"/>
   <path id="arrow"
     d="M 11.500037,31.436501 C 11.940474,20.09759 22.043105,11.32322 32.158766,21.979434 L 37.068811,17.246167 C 37.068811,17.246167 37.088388,32 37.088388,32 L 22.160133,31.978069 C 22.160133,31.978069 26.997745,27.140456 26.997745,27.140456 C 18.528582,18.264221 13.291696,25.230495 11.500037,31.436501 z"
     style="fill:#404040;"/>
  </a>
 </g>
</svg>

<style type='text/css'>
<![CDATA[
[data-mouse-over-selected='false'] { opacity: 0.7; }
[data-mouse-over-selected='true']  { opacity: 1.0; }
]]>
</style>
<script type="application/ecmascript"><![CDATA[
document.addEventListener('DOMContentLoaded', (event) => {
  highlightEdges();
  highlightAdjacentNodes();
});
]]></script>
</svg>
