<?xml version="1.0" encoding="UTF-8" standalone="no"?>
<!DOCTYPE svg PUBLIC "-//W3C//DTD SVG 1.1//EN"
 "http://www.w3.org/Graphics/SVG/1.1/DTD/svg11.dtd">
<!-- Generated by graphviz version 14.1.1 (20251213.1925)
 -->
<!-- Title: mstd::function_traits&lt; R(Args...) &amp;noexcept, C &gt; Pages: 1 -->
<svg width="1517pt" height="642pt"
 viewBox="0.00 0.00 1517.00 642.00" xmlns="http://www.w3.org/2000/svg" xmlns:xlink="http://www.w3.org/1999/xlink">
<g id="graph0" class="graph" transform="scale(1 1) rotate(0) translate(4 638)">
<title>mstd::function_traits&lt; R(Args...) &amp;noexcept, C &gt;</title>
<!-- Node1 -->
<g id="Node000001" class="node">
<title>Node1</title>
<g id="a_Node000001"><a xlink:title=" ">
<polygon fill="#999999" stroke="#666666" points="1508.75,-282 1369,-282 1369,-250 1508.75,-250 1508.75,-282"/>
<text xml:space="preserve" text-anchor="start" x="1377" y="-268.5" font-family="Helvetica,sans-Serif" font-size="10.00">mstd::function_traits</text>
<text xml:space="preserve" text-anchor="middle" x="1438.88" y="-256.5" font-family="Helvetica,sans-Serif" font-size="10.00">&lt; R(Args...) &amp;noexcept, C &gt;</text>
</a>
</g>
</g>
<!-- Node2 -->
<g id="Node000002" class="node">
<title>Node2</title>
<g id="a_Node000002"><a xlink:href="../../d0/d74/structmstd_1_1utils_1_1function__default__type__traits.html" target="_top" xlink:title=" ">
<polygon fill="white" stroke="#666666" points="588.75,-301 486.5,-301 486.5,-257 588.75,-257 588.75,-301"/>
<text xml:space="preserve" text-anchor="start" x="494.5" y="-287.5" font-family="Helvetica,sans-Serif" font-size="10.00">mstd::utils::function</text>
<text xml:space="preserve" text-anchor="start" x="494.5" y="-275.5" font-family="Helvetica,sans-Serif" font-size="10.00">_default_type_traits</text>
<text xml:space="preserve" text-anchor="middle" x="537.62" y="-263.5" font-family="Helvetica,sans-Serif" font-size="10.00">&lt; false &gt;</text>
</a>
</g>
</g>
<!-- Node2&#45;&gt;Node1 -->
<g id="edge1_Node000001_Node000002" class="edge">
<title>Node2&#45;&gt;Node1</title>
<g id="a_edge1_Node000001_Node000002"><a xlink:title=" ">
<path fill="none" stroke="#63b8ff" d="M600.36,-286.9C646.44,-292.12 710.99,-298 767.88,-298 767.88,-298 767.88,-298 1280.38,-298 1315.39,-298 1353.93,-290.31 1384.12,-282.47"/>
<polygon fill="#63b8ff" stroke="#63b8ff" points="600.9,-283.44 590.57,-285.77 600.1,-290.39 600.9,-283.44"/>
</a>
</g>
</g>
<!-- Node5 -->
<g id="Node000005" class="node">
<title>Node5</title>
<g id="a_Node000005"><a xlink:href="../../d8/d00/structmstd_1_1function__traits_3_01_r_07_args_8_8_8_08_01_6_00_01_c_01_4.html" target="_top" xlink:title=" ">
<polygon fill="white" stroke="#666666" points="1332,-187 1226.75,-187 1226.75,-155 1332,-155 1332,-187"/>
<text xml:space="preserve" text-anchor="start" x="1234.75" y="-173.5" font-family="Helvetica,sans-Serif" font-size="10.00">mstd::function_traits</text>
<text xml:space="preserve" text-anchor="middle" x="1279.38" y="-161.5" font-family="Helvetica,sans-Serif" font-size="10.00">&lt; R(Args...) &amp;, C &gt;</text>
</a>
</g>
</g>
<!-- Node2&#45;&gt;Node5 -->
<g id="edge6_Node000005_Node000002" class="edge">
<title>Node2&#45;&gt;Node5</title>
<g id="a_edge6_Node000005_Node000002"><a xlink:title=" ">
<path fill="none" stroke="#63b8ff" d="M600.55,-271.55C719,-257.04 985.72,-223.03 1208.75,-185 1214.46,-184.03 1220.42,-182.94 1226.35,-181.81"/>
<polygon fill="#63b8ff" stroke="#63b8ff" points="600.23,-268.07 590.72,-272.76 601.07,-275.02 600.23,-268.07"/>
</a>
</g>
</g>
<!-- Node6 -->
<g id="Node000006" class="node">
<title>Node6</title>
<g id="a_Node000006"><a xlink:href="../../dd/db6/structmstd_1_1function__traits_3_01_r_07_args_8_8_8_08_00_01_c_01_4.html" target="_top" xlink:title=" ">
<polygon fill="white" stroke="#666666" points="1061,-187 955.75,-187 955.75,-155 1061,-155 1061,-187"/>
<text xml:space="preserve" text-anchor="start" x="963.75" y="-173.5" font-family="Helvetica,sans-Serif" font-size="10.00">mstd::function_traits</text>
<text xml:space="preserve" text-anchor="middle" x="1008.38" y="-161.5" font-family="Helvetica,sans-Serif" font-size="10.00">&lt; R(Args...), C &gt;</text>
</a>
</g>
</g>
<!-- Node2&#45;&gt;Node6 -->
<g id="edge8_Node000006_Node000002" class="edge">
<title>Node2&#45;&gt;Node6</title>
<g id="a_edge8_Node000006_Node000002"><a xlink:title=" ">
<path fill="none" stroke="#63b8ff" d="M598.71,-252.4C605.15,-250.04 611.67,-247.85 618,-246 756.51,-205.62 796.95,-221.47 937.75,-190 943.5,-188.72 949.48,-187.26 955.42,-185.75"/>
<polygon fill="#63b8ff" stroke="#63b8ff" points="597.48,-249.13 589.4,-255.97 599.99,-255.66 597.48,-249.13"/>
</a>
</g>
</g>
<!-- Node11 -->
<g id="Node000011" class="node">
<title>Node11</title>
<g id="a_Node000011"><a xlink:href="../../d7/dcb/structmstd_1_1function__traits.html" target="_top" xlink:title=" ">
<polygon fill="white" stroke="#666666" points="821.5,-104 716.25,-104 716.25,-72 821.5,-72 821.5,-104"/>
<text xml:space="preserve" text-anchor="start" x="724.25" y="-90.5" font-family="Helvetica,sans-Serif" font-size="10.00">mstd::function_traits</text>
<text xml:space="preserve" text-anchor="middle" x="768.88" y="-78.5" font-family="Helvetica,sans-Serif" font-size="10.00">&lt; F, C &gt;</text>
</a>
</g>
</g>
<!-- Node2&#45;&gt;Node11 -->
<g id="edge17_Node000011_Node000002" class="edge">
<title>Node2&#45;&gt;Node11</title>
<g id="a_edge17_Node000011_Node000002"><a xlink:title=" ">
<path fill="none" stroke="#63b8ff" d="M572.69,-249.05C581.74,-240.79 591.39,-231.7 600,-223 646.11,-176.4 643.9,-149.65 698.25,-113 703.68,-109.34 709.71,-106.14 715.89,-103.37"/>
<polygon fill="#63b8ff" stroke="#63b8ff" points="570.45,-246.36 565.37,-255.66 575.14,-251.56 570.45,-246.36"/>
</a>
</g>
</g>
<!-- Node3 -->
<g id="Node000003" class="node">
<title>Node3</title>
<g id="a_Node000003"><a xlink:title=" ">
<polygon fill="white" stroke="#666666" points="155.5,-191 0,-191 0,-159 155.5,-159 155.5,-191"/>
<text xml:space="preserve" text-anchor="start" x="8" y="-177.5" font-family="Helvetica,sans-Serif" font-size="10.00">static _MSTD_CONSTEXPR17</text>
<text xml:space="preserve" text-anchor="middle" x="77.75" y="-165.5" font-family="Helvetica,sans-Serif" font-size="10.00"> const bool</text>
</a>
</g>
</g>
<!-- Node3&#45;&gt;Node1 -->
<g id="edge21_Node000001_Node000003" class="edge">
<title>Node3&#45;&gt;Node1</title>
<g id="a_edge21_Node000001_Node000003"><a xlink:title=" ">
<path fill="none" stroke="#9a32cd" stroke-dasharray="5,2" d="M80.82,-202.92C89.65,-299.86 132.99,-616 322.62,-616 322.62,-616 322.62,-616 1280.38,-616 1428.63,-616 1438.15,-351.61 1438.11,-282.41"/>
<polygon fill="#9a32cd" stroke="#9a32cd" points="84.31,-202.66 79.97,-192.99 77.33,-203.25 84.31,-202.66"/>
</a>
</g>
<text xml:space="preserve" text-anchor="start" x="742.62" y="-621.5" font-family="Helvetica,sans-Serif" font-size="10.00" fill="grey">is_noexcept</text>
</g>
<!-- Node3&#45;&gt;Node2 -->
<g id="edge2_Node000002_Node000003" class="edge">
<title>Node3&#45;&gt;Node2</title>
<g id="a_edge2_Node000002_Node000003"><a xlink:title=" ">
<path fill="none" stroke="#9a32cd" stroke-dasharray="5,2" d="M81.16,-202.5C87.09,-251.36 107.15,-352.26 173.5,-396 203.28,-415.63 218.13,-397.9 253.75,-396 346.54,-391.06 378.52,-397.37 457.25,-348 478.44,-334.71 499.69,-315.88 514.85,-301.25"/>
<polygon fill="#9a32cd" stroke="#9a32cd" points="84.66,-202.34 80.1,-192.78 77.7,-203.1 84.66,-202.34"/>
</a>
</g>
<text xml:space="preserve" text-anchor="start" x="286.5" y="-560.52" font-family="Helvetica,sans-Serif" font-size="10.00" fill="grey">is_const</text>
<text xml:space="preserve" text-anchor="start" x="286.5" y="-544.52" font-family="Helvetica,sans-Serif" font-size="10.00" fill="grey">is_free</text>
<text xml:space="preserve" text-anchor="start" x="286.5" y="-528.52" font-family="Helvetica,sans-Serif" font-size="10.00" fill="grey">is_functor</text>
<text xml:space="preserve" text-anchor="start" x="286.5" y="-512.52" font-family="Helvetica,sans-Serif" font-size="10.00" fill="grey">is_member</text>
<text xml:space="preserve" text-anchor="start" x="286.5" y="-496.52" font-family="Helvetica,sans-Serif" font-size="10.00" fill="grey">is_moved</text>
<text xml:space="preserve" text-anchor="start" x="286.5" y="-480.52" font-family="Helvetica,sans-Serif" font-size="10.00" fill="grey">is_noexcept</text>
<text xml:space="preserve" text-anchor="start" x="286.5" y="-464.52" font-family="Helvetica,sans-Serif" font-size="10.00" fill="grey">is_parent_moved</text>
<text xml:space="preserve" text-anchor="start" x="286.5" y="-448.52" font-family="Helvetica,sans-Serif" font-size="10.00" fill="grey">is_parent_ref</text>
<text xml:space="preserve" text-anchor="start" x="286.5" y="-432.52" font-family="Helvetica,sans-Serif" font-size="10.00" fill="grey">is_ptr</text>
<text xml:space="preserve" text-anchor="start" x="286.5" y="-416.52" font-family="Helvetica,sans-Serif" font-size="10.00" fill="grey">is_ref</text>
<text xml:space="preserve" text-anchor="start" x="286.5" y="-400.52" font-family="Helvetica,sans-Serif" font-size="10.00" fill="grey"> &#160;...</text>
</g>
<!-- Node4 -->
<g id="Node000004" class="node">
<title>Node4</title>
<g id="a_Node000004"><a xlink:href="../../d0/d74/structmstd_1_1utils_1_1function__default__type__traits.html" target="_top" xlink:title=" ">
<polygon fill="white" stroke="#666666" points="374.75,-374 272.5,-374 272.5,-330 374.75,-330 374.75,-374"/>
<text xml:space="preserve" text-anchor="start" x="280.5" y="-360.5" font-family="Helvetica,sans-Serif" font-size="10.00">mstd::utils::function</text>
<text xml:space="preserve" text-anchor="start" x="280.5" y="-348.5" font-family="Helvetica,sans-Serif" font-size="10.00">_default_type_traits</text>
<text xml:space="preserve" text-anchor="middle" x="323.62" y="-336.5" font-family="Helvetica,sans-Serif" font-size="10.00">&lt; IsMember &gt;</text>
</a>
</g>
</g>
<!-- Node3&#45;&gt;Node4 -->
<g id="edge4_Node000004_Node000003" class="edge">
<title>Node3&#45;&gt;Node4</title>
<g id="a_edge4_Node000004_Node000003"><a xlink:title=" ">
<path fill="none" stroke="#9a32cd" stroke-dasharray="5,2" d="M166.78,-177.4C198.23,-182.74 231.39,-194.27 253.75,-218 284.12,-250.23 247.92,-278.68 271.75,-316 275.01,-321.11 279.28,-325.7 283.96,-329.77"/>
<polygon fill="#9a32cd" stroke="#9a32cd" points="167.65,-173.99 157.24,-175.98 166.62,-180.91 167.65,-173.99"/>
</a>
</g>
<text xml:space="preserve" text-anchor="start" x="176.5" y="-383.5" font-family="Helvetica,sans-Serif" font-size="10.00" fill="grey">is_const</text>
<text xml:space="preserve" text-anchor="start" x="176.5" y="-367.5" font-family="Helvetica,sans-Serif" font-size="10.00" fill="grey">is_free</text>
<text xml:space="preserve" text-anchor="start" x="176.5" y="-351.5" font-family="Helvetica,sans-Serif" font-size="10.00" fill="grey">is_functor</text>
<text xml:space="preserve" text-anchor="start" x="176.5" y="-335.5" font-family="Helvetica,sans-Serif" font-size="10.00" fill="grey">is_member</text>
<text xml:space="preserve" text-anchor="start" x="176.5" y="-319.5" font-family="Helvetica,sans-Serif" font-size="10.00" fill="grey">is_moved</text>
<text xml:space="preserve" text-anchor="start" x="176.5" y="-303.5" font-family="Helvetica,sans-Serif" font-size="10.00" fill="grey">is_noexcept</text>
<text xml:space="preserve" text-anchor="start" x="176.5" y="-287.5" font-family="Helvetica,sans-Serif" font-size="10.00" fill="grey">is_parent_moved</text>
<text xml:space="preserve" text-anchor="start" x="176.5" y="-271.5" font-family="Helvetica,sans-Serif" font-size="10.00" fill="grey">is_parent_ref</text>
<text xml:space="preserve" text-anchor="start" x="176.5" y="-255.5" font-family="Helvetica,sans-Serif" font-size="10.00" fill="grey">is_ptr</text>
<text xml:space="preserve" text-anchor="start" x="176.5" y="-239.5" font-family="Helvetica,sans-Serif" font-size="10.00" fill="grey">is_ref</text>
<text xml:space="preserve" text-anchor="start" x="176.5" y="-223.5" font-family="Helvetica,sans-Serif" font-size="10.00" fill="grey"> &#160;...</text>
</g>
<!-- Node3&#45;&gt;Node5 -->
<g id="edge19_Node000005_Node000003" class="edge">
<title>Node3&#45;&gt;Node5</title>
<g id="a_edge19_Node000005_Node000003"><a xlink:title=" ">
<path fill="none" stroke="#9a32cd" stroke-dasharray="5,2" d="M94.43,-149.25C111.2,-123.59 139.97,-84.56 173.5,-60 231.14,-17.79 251.18,0 322.62,0 322.62,0 322.62,0 898.62,0 973.1,0 1142.56,-92.87 1208.75,-127 1224.64,-135.19 1241.61,-145.87 1254.82,-154.66"/>
<polygon fill="#9a32cd" stroke="#9a32cd" points="91.64,-147.11 89.22,-157.43 97.55,-150.88 91.64,-147.11"/>
</a>
</g>
<text xml:space="preserve" text-anchor="start" x="621" y="-5.5" font-family="Helvetica,sans-Serif" font-size="10.00" fill="grey">is_parent_ref</text>
</g>
<!-- Node10 -->
<g id="Node000010" class="node">
<title>Node10</title>
<g id="a_Node000010"><a xlink:href="../../d0/d74/structmstd_1_1utils_1_1function__default__type__traits.html" target="_top" xlink:title=" ">
<polygon fill="white" stroke="#666666" points="588.75,-214 486.5,-214 486.5,-170 588.75,-170 588.75,-214"/>
<text xml:space="preserve" text-anchor="start" x="494.5" y="-200.5" font-family="Helvetica,sans-Serif" font-size="10.00">mstd::utils::function</text>
<text xml:space="preserve" text-anchor="start" x="494.5" y="-188.5" font-family="Helvetica,sans-Serif" font-size="10.00">_default_type_traits</text>
<text xml:space="preserve" text-anchor="middle" x="537.62" y="-176.5" font-family="Helvetica,sans-Serif" font-size="10.00">&lt; true &gt;</text>
</a>
</g>
</g>
<!-- Node3&#45;&gt;Node10 -->
<g id="edge14_Node000010_Node000003" class="edge">
<title>Node3&#45;&gt;Node10</title>
<g id="a_edge14_Node000010_Node000003"><a xlink:title=" ">
<path fill="none" stroke="#9a32cd" stroke-dasharray="5,2" d="M154.4,-156.23C214.49,-143.87 300.59,-131.86 375.5,-143 413.53,-148.65 455,-161.43 486.35,-172.52"/>
<polygon fill="#9a32cd" stroke="#9a32cd" points="154.03,-152.73 144.97,-158.22 155.47,-159.58 154.03,-152.73"/>
</a>
</g>
<text xml:space="preserve" text-anchor="start" x="286.5" y="-308.5" font-family="Helvetica,sans-Serif" font-size="10.00" fill="grey">is_const</text>
<text xml:space="preserve" text-anchor="start" x="286.5" y="-292.5" font-family="Helvetica,sans-Serif" font-size="10.00" fill="grey">is_free</text>
<text xml:space="preserve" text-anchor="start" x="286.5" y="-276.5" font-family="Helvetica,sans-Serif" font-size="10.00" fill="grey">is_functor</text>
<text xml:space="preserve" text-anchor="start" x="286.5" y="-260.5" font-family="Helvetica,sans-Serif" font-size="10.00" fill="grey">is_member</text>
<text xml:space="preserve" text-anchor="start" x="286.5" y="-244.5" font-family="Helvetica,sans-Serif" font-size="10.00" fill="grey">is_moved</text>
<text xml:space="preserve" text-anchor="start" x="286.5" y="-228.5" font-family="Helvetica,sans-Serif" font-size="10.00" fill="grey">is_noexcept</text>
<text xml:space="preserve" text-anchor="start" x="286.5" y="-212.5" font-family="Helvetica,sans-Serif" font-size="10.00" fill="grey">is_parent_moved</text>
<text xml:space="preserve" text-anchor="start" x="286.5" y="-196.5" font-family="Helvetica,sans-Serif" font-size="10.00" fill="grey">is_parent_ref</text>
<text xml:space="preserve" text-anchor="start" x="286.5" y="-180.5" font-family="Helvetica,sans-Serif" font-size="10.00" fill="grey">is_ptr</text>
<text xml:space="preserve" text-anchor="start" x="286.5" y="-164.5" font-family="Helvetica,sans-Serif" font-size="10.00" fill="grey">is_ref</text>
<text xml:space="preserve" text-anchor="start" x="286.5" y="-148.5" font-family="Helvetica,sans-Serif" font-size="10.00" fill="grey"> &#160;...</text>
</g>
<!-- Node3&#45;&gt;Node11 -->
<g id="edge18_Node000011_Node000003" class="edge">
<title>Node3&#45;&gt;Node11</title>
<g id="a_edge18_Node000011_Node000003"><a xlink:title=" ">
<path fill="none" stroke="#9a32cd" stroke-dasharray="5,2" d="M106.09,-151.43C141.52,-122.59 206.51,-75.36 271.75,-57 428.76,-12.81 624.35,-50.76 715.98,-73.66"/>
<polygon fill="#9a32cd" stroke="#9a32cd" points="103.96,-148.64 98.49,-157.72 108.43,-154.04 103.96,-148.64"/>
</a>
</g>
<text xml:space="preserve" text-anchor="start" x="410.75" y="-43.24" font-family="Helvetica,sans-Serif" font-size="10.00" fill="grey">is_free</text>
</g>
<!-- Node4&#45;&gt;Node2 -->
<g id="edge3_Node000002_Node000004" class="edge">
<title>Node4&#45;&gt;Node2</title>
<g id="a_edge3_Node000002_Node000004"><a xlink:title=" ">
<path fill="none" stroke="orange" stroke-dasharray="5,2" d="M385.66,-330.98C417.5,-320.02 455.99,-306.77 486.14,-296.39"/>
<polygon fill="orange" stroke="orange" points="384.88,-327.55 376.57,-334.11 387.16,-334.17 384.88,-327.55"/>
</a>
</g>
<text xml:space="preserve" text-anchor="start" x="405.88" y="-331.8" font-family="Helvetica,sans-Serif" font-size="10.00" fill="grey">&lt; false &gt;</text>
</g>
<!-- Node4&#45;&gt;Node10 -->
<g id="edge15_Node000010_Node000004" class="edge">
<title>Node4&#45;&gt;Node10</title>
<g id="a_edge15_Node000010_Node000004"><a xlink:title=" ">
<path fill="none" stroke="orange" stroke-dasharray="5,2" d="M369.27,-322.22C371.46,-320.21 373.55,-318.13 375.5,-316 386.25,-304.24 382.52,-296.54 393.5,-285 421.58,-255.48 460.79,-230.84 491.06,-214.35"/>
<polygon fill="orange" stroke="orange" points="367.01,-319.55 361.62,-328.66 371.52,-324.9 367.01,-319.55"/>
</a>
</g>
<text xml:space="preserve" text-anchor="start" x="408.12" y="-290.5" font-family="Helvetica,sans-Serif" font-size="10.00" fill="grey">&lt; true &gt;</text>
</g>
<!-- Node5&#45;&gt;Node1 -->
<g id="edge5_Node000001_Node000005" class="edge">
<title>Node5&#45;&gt;Node1</title>
<g id="a_edge5_Node000001_Node000005"><a xlink:title=" ">
<path fill="none" stroke="#63b8ff" d="M1317.09,-193.15C1345.69,-210.4 1384.76,-233.96 1410.63,-249.56"/>
<polygon fill="#63b8ff" stroke="#63b8ff" points="1319.12,-190.28 1308.75,-188.11 1315.5,-196.27 1319.12,-190.28"/>
</a>
</g>
</g>
<!-- Node6&#45;&gt;Node5 -->
<g id="edge7_Node000005_Node000006" class="edge">
<title>Node6&#45;&gt;Node5</title>
<g id="a_edge7_Node000005_Node000006"><a xlink:title=" ">
<path fill="none" stroke="#63b8ff" d="M1072.5,-171C1119.44,-171 1182.71,-171 1226.67,-171"/>
<polygon fill="#63b8ff" stroke="#63b8ff" points="1072.75,-167.5 1062.75,-171 1072.75,-174.5 1072.75,-167.5"/>
</a>
</g>
</g>
<!-- Node7 -->
<g id="Node000007" class="node">
<title>Node7</title>
<g id="a_Node000007"><a xlink:href="../../d1/d4f/structmstd_1_1utils_1_1function__core__traits_3_01_r_07_args_8_8_8_08_00_01_c_01_4.html" target="_top" xlink:title=" ">
<polygon fill="white" stroke="#666666" points="839.5,-154 698.25,-154 698.25,-122 839.5,-122 839.5,-154"/>
<text xml:space="preserve" text-anchor="start" x="706.25" y="-140.5" font-family="Helvetica,sans-Serif" font-size="10.00">mstd::utils::function</text>
<text xml:space="preserve" text-anchor="middle" x="768.88" y="-128.5" font-family="Helvetica,sans-Serif" font-size="10.00">_core_traits&lt; R(Args...), C &gt;</text>
</a>
</g>
</g>
<!-- Node7&#45;&gt;Node6 -->
<g id="edge9_Node000006_Node000007" class="edge">
<title>Node7&#45;&gt;Node6</title>
<g id="a_edge9_Node000006_Node000007"><a xlink:title=" ">
<path fill="none" stroke="#63b8ff" d="M850.91,-149.26C885.57,-154.08 925,-159.55 955.61,-163.81"/>
<polygon fill="#63b8ff" stroke="#63b8ff" points="851.73,-145.84 841.35,-147.93 850.77,-152.77 851.73,-145.84"/>
</a>
</g>
</g>
<!-- Node8 -->
<g id="Node000008" class="node">
<title>Node8</title>
<g id="a_Node000008"><a xlink:href="../../df/db9/structmstd_1_1utils_1_1function__core__traits.html" target="_top" xlink:title=" ">
<polygon fill="white" stroke="#666666" points="600,-152 475.25,-152 475.25,-120 600,-120 600,-152"/>
<text xml:space="preserve" text-anchor="start" x="483.25" y="-138.5" font-family="Helvetica,sans-Serif" font-size="10.00">mstd::utils::function</text>
<text xml:space="preserve" text-anchor="middle" x="537.62" y="-126.5" font-family="Helvetica,sans-Serif" font-size="10.00">_core_traits&lt; R(Args...)&gt;</text>
</a>
</g>
</g>
<!-- Node8&#45;&gt;Node7 -->
<g id="edge10_Node000007_Node000008" class="edge">
<title>Node8&#45;&gt;Node7</title>
<g id="a_edge10_Node000007_Node000008"><a xlink:title=" ">
<path fill="none" stroke="#63b8ff" d="M611.55,-136.64C639.19,-136.88 670.57,-137.15 697.93,-137.39"/>
<polygon fill="#63b8ff" stroke="#63b8ff" points="611.91,-133.14 601.87,-136.55 611.84,-140.14 611.91,-133.14"/>
</a>
</g>
</g>
<!-- Node9 -->
<g id="Node000009" class="node">
<title>Node9</title>
<g id="a_Node000009"><a xlink:href="../../df/db9/structmstd_1_1utils_1_1function__core__traits.html" target="_top" xlink:title=" ">
<polygon fill="white" stroke="#666666" points="375.5,-98 271.75,-98 271.75,-66 375.5,-66 375.5,-98"/>
<text xml:space="preserve" text-anchor="start" x="279.75" y="-84.5" font-family="Helvetica,sans-Serif" font-size="10.00">mstd::utils::function</text>
<text xml:space="preserve" text-anchor="middle" x="323.62" y="-72.5" font-family="Helvetica,sans-Serif" font-size="10.00">_core_traits&lt; F, C &gt;</text>
</a>
</g>
</g>
<!-- Node9&#45;&gt;Node7 -->
<g id="edge12_Node000007_Node000009" class="edge">
<title>Node9&#45;&gt;Node7</title>
<g id="a_edge12_Node000007_Node000009"><a xlink:title=" ">
<path fill="none" stroke="orange" stroke-dasharray="5,2" d="M387.12,-80.57C443.18,-80.21 527.53,-81.98 600,-93 640.42,-99.15 685.08,-111.39 718.17,-121.56"/>
<polygon fill="orange" stroke="orange" points="387.44,-77.06 377.47,-80.65 387.5,-84.06 387.44,-77.06"/>
</a>
</g>
<text xml:space="preserve" text-anchor="start" x="500.5" y="-98.5" font-family="Helvetica,sans-Serif" font-size="10.00" fill="grey">&lt; R(Args...), C &gt;</text>
</g>
<!-- Node9&#45;&gt;Node8 -->
<g id="edge11_Node000008_Node000009" class="edge">
<title>Node9&#45;&gt;Node8</title>
<g id="a_edge11_Node000008_Node000009"><a xlink:title=" ">
<path fill="none" stroke="orange" stroke-dasharray="5,2" d="M387.09,-97.91C414.76,-104.96 447.23,-113.23 474.83,-120.26"/>
<polygon fill="orange" stroke="orange" points="387.97,-94.52 377.41,-95.45 386.24,-101.31 387.97,-94.52"/>
</a>
</g>
<text xml:space="preserve" text-anchor="start" x="396.5" y="-120.92" font-family="Helvetica,sans-Serif" font-size="10.00" fill="grey">&lt; R(Args...)&gt;</text>
</g>
<!-- Node10&#45;&gt;Node6 -->
<g id="edge13_Node000006_Node000010" class="edge">
<title>Node10&#45;&gt;Node6</title>
<g id="a_edge13_Node000006_Node000010"><a xlink:title=" ">
<path fill="none" stroke="#63b8ff" d="M600.46,-189.23C693.7,-185.05 868.59,-177.22 955.55,-173.32"/>
<polygon fill="#63b8ff" stroke="#63b8ff" points="600.58,-185.72 590.75,-189.66 600.89,-192.71 600.58,-185.72"/>
</a>
</g>
</g>
<!-- Node11&#45;&gt;Node1 -->
<g id="edge22_Node000001_Node000011" class="edge">
<title>Node11&#45;&gt;Node1</title>
<g id="a_edge22_Node000001_Node000011"><a xlink:title=" ">
<path fill="none" stroke="orange" stroke-dasharray="5,2" d="M833.04,-77.3C943.74,-62.04 1175.81,-45.95 1332,-146 1375.28,-173.73 1411.3,-224.05 1427.95,-249.83"/>
<polygon fill="orange" stroke="orange" points="832.66,-73.82 823.25,-78.7 833.65,-80.75 832.66,-73.82"/>
</a>
</g>
<text xml:space="preserve" text-anchor="start" x="1082" y="-96.41" font-family="Helvetica,sans-Serif" font-size="10.00" fill="grey">&lt; R(Args...) &amp;noexcept, C &gt;</text>
</g>
<!-- Node11&#45;&gt;Node5 -->
<g id="edge20_Node000005_Node000011" class="edge">
<title>Node11&#45;&gt;Node5</title>
<g id="a_edge20_Node000005_Node000011"><a xlink:title=" ">
<path fill="none" stroke="orange" stroke-dasharray="5,2" d="M833.04,-94.3C864.55,-97.66 903.22,-102.11 937.75,-107 1040.67,-121.58 1159.79,-145.63 1226.39,-159.72"/>
<polygon fill="orange" stroke="orange" points="833.59,-90.84 823.28,-93.27 832.86,-97.8 833.59,-90.84"/>
</a>
</g>
<text xml:space="preserve" text-anchor="start" x="966.38" y="-132.08" font-family="Helvetica,sans-Serif" font-size="10.00" fill="grey">&lt; R(Args...) &amp;, C &gt;</text>
</g>
<!-- Node11&#45;&gt;Node6 -->
<g id="edge16_Node000006_Node000011" class="edge">
<title>Node11&#45;&gt;Node6</title>
<g id="a_edge16_Node000006_Node000011"><a xlink:title=" ">
<path fill="none" stroke="orange" stroke-dasharray="5,2" d="M832.88,-98.67C865.01,-105.28 904.26,-115.19 937.75,-129 954.06,-135.73 971.05,-145.9 984.15,-154.55"/>
<polygon fill="orange" stroke="orange" points="833.81,-95.29 823.32,-96.77 832.45,-102.15 833.81,-95.29"/>
</a>
</g>
<text xml:space="preserve" text-anchor="start" x="860.5" y="-134.5" font-family="Helvetica,sans-Serif" font-size="10.00" fill="grey">&lt; R(Args...), C &gt;</text>
</g>
</g>
</svg>
