<?xml version="1.0" encoding="UTF-8" standalone="no"?>
<!DOCTYPE svg PUBLIC "-//W3C//DTD SVG 1.1//EN"
 "http://www.w3.org/Graphics/SVG/1.1/DTD/svg11.dtd">
<!-- Generated by graphviz version 14.1.1 (20251213.1925)
 -->
<!-- Title: mstd::base_event_handler&lt; EventsMap, Args &gt; Pages: 1 -->
<svg width="365pt" height="446pt"
 viewBox="0.00 0.00 365.00 446.00" xmlns="http://www.w3.org/2000/svg" xmlns:xlink="http://www.w3.org/1999/xlink">
<g id="graph0" class="graph" transform="scale(1 1) rotate(0) translate(4 442)">
<title>mstd::base_event_handler&lt; EventsMap, Args &gt;</title>
<!-- Node1 -->
<g id="Node000001" class="node">
<title>Node1</title>
<g id="a_Node000001"><a xlink:title=" ">
<polygon fill="#999999" stroke="#666666" points="153.12,-32 22.38,-32 22.38,0 153.12,0 153.12,-32"/>
<text xml:space="preserve" text-anchor="start" x="30.38" y="-18.5" font-family="Helvetica,sans-Serif" font-size="10.00">mstd::base_event_handler</text>
<text xml:space="preserve" text-anchor="middle" x="87.75" y="-6.5" font-family="Helvetica,sans-Serif" font-size="10.00">&lt; EventsMap, Args &gt;</text>
</a>
</g>
</g>
<!-- Node2 -->
<g id="Node000002" class="node">
<title>Node2</title>
<g id="a_Node000002"><a xlink:title=" ">
<polygon fill="white" stroke="#666666" points="110.25,-118 1.25,-118 1.25,-86 110.25,-86 110.25,-118"/>
<text xml:space="preserve" text-anchor="start" x="9.25" y="-104.5" font-family="Helvetica,sans-Serif" font-size="10.00">EventsMap&lt; id_type,</text>
<text xml:space="preserve" text-anchor="middle" x="55.75" y="-92.5" font-family="Helvetica,sans-Serif" font-size="10.00"> event_handler &gt;</text>
</a>
</g>
</g>
<!-- Node2&#45;&gt;Node1 -->
<g id="edge1_Node000001_Node000002" class="edge">
<title>Node2&#45;&gt;Node1</title>
<g id="a_edge1_Node000001_Node000002"><a xlink:title=" ">
<path fill="none" stroke="#9a32cd" stroke-dasharray="5,2" d="M65.62,-75.1C70.96,-61.08 77.37,-44.24 81.92,-32.31"/>
<polygon fill="#9a32cd" stroke="#9a32cd" points="62.45,-73.59 62.16,-84.18 68.99,-76.08 62.45,-73.59"/>
</a>
</g>
<text xml:space="preserve" text-anchor="start" x="77.62" y="-55.5" font-family="Helvetica,sans-Serif" font-size="10.00" fill="grey">_events</text>
</g>
<!-- Node3 -->
<g id="Node000003" class="node">
<title>Node3</title>
<g id="a_Node000003"><a xlink:href="../../da/db8/classmstd_1_1base__id__manager.html" target="_top" xlink:title=" ">
<polygon fill="white" stroke="#666666" points="248.88,-118 128.62,-118 128.62,-86 248.88,-86 248.88,-118"/>
<text xml:space="preserve" text-anchor="start" x="136.62" y="-104.5" font-family="Helvetica,sans-Serif" font-size="10.00">mstd::base_id_manager</text>
<text xml:space="preserve" text-anchor="middle" x="188.75" y="-92.5" font-family="Helvetica,sans-Serif" font-size="10.00">&lt; id_type &gt;</text>
</a>
</g>
</g>
<!-- Node3&#45;&gt;Node1 -->
<g id="edge2_Node000001_Node000003" class="edge">
<title>Node3&#45;&gt;Node1</title>
<g id="a_edge2_Node000001_Node000003"><a xlink:title=" ">
<path fill="none" stroke="#9a32cd" stroke-dasharray="5,2" d="M161.55,-78.38C144,-63.78 121.64,-45.19 106.16,-32.31"/>
<polygon fill="#9a32cd" stroke="#9a32cd" points="159.13,-80.92 169.06,-84.63 163.61,-75.54 159.13,-80.92"/>
</a>
</g>
<text xml:space="preserve" text-anchor="start" x="150.3" y="-55.5" font-family="Helvetica,sans-Serif" font-size="10.00" fill="grey">_ids</text>
</g>
<!-- Node4 -->
<g id="Node000004" class="node">
<title>Node4</title>
<g id="a_Node000004"><a xlink:href="../../da/db8/classmstd_1_1base__id__manager.html" target="_top" xlink:title=" ">
<polygon fill="white" stroke="#666666" points="248.88,-204 128.62,-204 128.62,-172 248.88,-172 248.88,-204"/>
<text xml:space="preserve" text-anchor="start" x="136.62" y="-190.5" font-family="Helvetica,sans-Serif" font-size="10.00">mstd::base_id_manager</text>
<text xml:space="preserve" text-anchor="middle" x="188.75" y="-178.5" font-family="Helvetica,sans-Serif" font-size="10.00">&lt; IdT &gt;</text>
</a>
</g>
</g>
<!-- Node4&#45;&gt;Node3 -->
<g id="edge3_Node000003_Node000004" class="edge">
<title>Node4&#45;&gt;Node3</title>
<g id="a_edge3_Node000003_Node000004"><a xlink:title=" ">
<path fill="none" stroke="orange" stroke-dasharray="5,2" d="M188.75,-160.27C188.75,-146.42 188.75,-130.01 188.75,-118.31"/>
<polygon fill="orange" stroke="orange" points="185.25,-160.08 188.75,-170.08 192.25,-160.08 185.25,-160.08"/>
</a>
</g>
<text xml:space="preserve" text-anchor="start" x="191.75" y="-141.5" font-family="Helvetica,sans-Serif" font-size="10.00" fill="grey">&lt; id_type &gt;</text>
</g>
<!-- Node5 -->
<g id="Node000005" class="node">
<title>Node5</title>
<g id="a_Node000005"><a xlink:title=" ">
<polygon fill="white" stroke="#666666" points="155.5,-290 0,-290 0,-258 155.5,-258 155.5,-290"/>
<text xml:space="preserve" text-anchor="start" x="8" y="-276.5" font-family="Helvetica,sans-Serif" font-size="10.00">static _MSTD_CONSTEXPR17</text>
<text xml:space="preserve" text-anchor="middle" x="77.75" y="-264.5" font-family="Helvetica,sans-Serif" font-size="10.00"> id_type</text>
</a>
</g>
</g>
<!-- Node5&#45;&gt;Node4 -->
<g id="edge4_Node000004_Node000005" class="edge">
<title>Node5&#45;&gt;Node4</title>
<g id="a_edge4_Node000004_Node000005"><a xlink:title=" ">
<path fill="none" stroke="#9a32cd" stroke-dasharray="5,2" d="M105.55,-250.37C116.76,-241.4 129.89,-231.07 142,-222 149.95,-216.04 158.82,-209.71 166.69,-204.19"/>
<polygon fill="#9a32cd" stroke="#9a32cd" points="103.42,-247.59 97.83,-256.59 107.81,-253.05 103.42,-247.59"/>
</a>
</g>
<text xml:space="preserve" text-anchor="start" x="145" y="-227.5" font-family="Helvetica,sans-Serif" font-size="10.00" fill="grey">max_ids</text>
</g>
<!-- Node6 -->
<g id="Node000006" class="node">
<title>Node6</title>
<g id="a_Node000006"><a xlink:title=" ">
<polygon fill="white" stroke="#666666" points="203.88,-284 173.62,-284 173.62,-264 203.88,-264 203.88,-284"/>
<text xml:space="preserve" text-anchor="middle" x="188.75" y="-270.5" font-family="Helvetica,sans-Serif" font-size="10.00">IdT</text>
</a>
</g>
</g>
<!-- Node6&#45;&gt;Node4 -->
<g id="edge5_Node000004_Node000006" class="edge">
<title>Node6&#45;&gt;Node4</title>
<g id="a_edge5_Node000004_Node000006"><a xlink:title=" ">
<path fill="none" stroke="#9a32cd" stroke-dasharray="5,2" d="M188.75,-252.61C188.75,-237.72 188.75,-217.86 188.75,-204.32"/>
<polygon fill="#9a32cd" stroke="#9a32cd" points="185.25,-252.18 188.75,-262.18 192.25,-252.18 185.25,-252.18"/>
</a>
</g>
<text xml:space="preserve" text-anchor="start" x="191.75" y="-227.5" font-family="Helvetica,sans-Serif" font-size="10.00" fill="grey">_nextId</text>
</g>
<!-- Node7 -->
<g id="Node000007" class="node">
<title>Node7</title>
<g id="a_Node000007"><a xlink:title=" ">
<polygon fill="white" stroke="#666666" points="320,-284 221.5,-284 221.5,-264 320,-264 320,-284"/>
<text xml:space="preserve" text-anchor="middle" x="270.75" y="-270.5" font-family="Helvetica,sans-Serif" font-size="10.00">std::set&lt; id_type &gt;</text>
</a>
</g>
</g>
<!-- Node7&#45;&gt;Node4 -->
<g id="edge6_Node000004_Node000007" class="edge">
<title>Node7&#45;&gt;Node4</title>
<g id="a_edge6_Node000004_Node000007"><a xlink:title=" ">
<path fill="none" stroke="#9a32cd" stroke-dasharray="5,2" d="M258.03,-254.66C250.62,-244.54 240.77,-232.03 230.75,-222 224.46,-215.7 216.98,-209.49 210.09,-204.18"/>
<polygon fill="#9a32cd" stroke="#9a32cd" points="255.02,-256.46 263.68,-262.57 260.72,-252.4 255.02,-256.46"/>
</a>
</g>
<text xml:space="preserve" text-anchor="start" x="249.15" y="-227.5" font-family="Helvetica,sans-Serif" font-size="10.00" fill="grey">_removedIds</text>
</g>
<!-- Node8 -->
<g id="Node000008" class="node">
<title>Node8</title>
<g id="a_Node000008"><a xlink:title=" ">
<polygon fill="white" stroke="#666666" points="262.5,-364 215,-364 215,-344 262.5,-344 262.5,-364"/>
<text xml:space="preserve" text-anchor="middle" x="238.75" y="-350.5" font-family="Helvetica,sans-Serif" font-size="10.00">id_type</text>
</a>
</g>
</g>
<!-- Node8&#45;&gt;Node7 -->
<g id="edge7_Node000007_Node000008" class="edge">
<title>Node8&#45;&gt;Node7</title>
<g id="a_edge7_Node000007_Node000008"><a xlink:title=" ">
<path fill="none" stroke="#9a32cd" stroke-dasharray="5,2" d="M244.75,-332.8C247.27,-324.96 250.4,-315.96 253.75,-308 257.2,-299.8 261.87,-290.85 265.44,-284.35"/>
<polygon fill="#9a32cd" stroke="#9a32cd" points="241.49,-331.5 241.89,-342.09 248.18,-333.57 241.49,-331.5"/>
</a>
</g>
<text xml:space="preserve" text-anchor="start" x="256.75" y="-313.5" font-family="Helvetica,sans-Serif" font-size="10.00" fill="grey">keys</text>
</g>
<!-- Node9 -->
<g id="Node000009" class="node">
<title>Node9</title>
<g id="a_Node000009"><a xlink:title=" ">
<polygon fill="white" stroke="#666666" points="354.62,-364 280.88,-364 280.88,-344 354.62,-344 354.62,-364"/>
<text xml:space="preserve" text-anchor="middle" x="317.75" y="-350.5" font-family="Helvetica,sans-Serif" font-size="10.00">std::set&lt; K &gt;</text>
</a>
</g>
</g>
<!-- Node9&#45;&gt;Node7 -->
<g id="edge8_Node000007_Node000009" class="edge">
<title>Node9&#45;&gt;Node7</title>
<g id="a_edge8_Node000007_Node000009"><a xlink:title=" ">
<path fill="none" stroke="orange" stroke-dasharray="5,2" d="M306.28,-333.97C296.77,-318.19 283.66,-296.43 276.32,-284.24"/>
<polygon fill="orange" stroke="orange" points="303.23,-335.69 311.39,-342.45 309.23,-332.08 303.23,-335.69"/>
</a>
</g>
<text xml:space="preserve" text-anchor="start" x="304.21" y="-313.5" font-family="Helvetica,sans-Serif" font-size="10.00" fill="grey">&lt; id_type &gt;</text>
</g>
<!-- Node10 -->
<g id="Node000010" class="node">
<title>Node10</title>
<g id="a_Node000010"><a xlink:title=" ">
<polygon fill="white" stroke="#666666" points="332.15,-438 303.35,-438 303.35,-418 332.15,-418 332.15,-438"/>
<text xml:space="preserve" text-anchor="middle" x="317.75" y="-424.5" font-family="Helvetica,sans-Serif" font-size="10.00">K</text>
</a>
</g>
</g>
<!-- Node10&#45;&gt;Node9 -->
<g id="edge9_Node000009_Node000010" class="edge">
<title>Node10&#45;&gt;Node9</title>
<g id="a_edge9_Node000009_Node000010"><a xlink:title=" ">
<path fill="none" stroke="#9a32cd" stroke-dasharray="5,2" d="M317.75,-406.18C317.75,-392.29 317.75,-374.71 317.75,-364.19"/>
<polygon fill="#9a32cd" stroke="#9a32cd" points="314.25,-406.07 317.75,-416.07 321.25,-406.07 314.25,-406.07"/>
</a>
</g>
<text xml:space="preserve" text-anchor="start" x="320.75" y="-387.5" font-family="Helvetica,sans-Serif" font-size="10.00" fill="grey">keys</text>
</g>
</g>
</svg>
