<?xml version="1.0" encoding="UTF-8" standalone="no"?>
<!DOCTYPE svg PUBLIC "-//W3C//DTD SVG 1.1//EN"
 "http://www.w3.org/Graphics/SVG/1.1/DTD/svg11.dtd">
<!-- Generated by graphviz version 14.1.1 (20251213.1925)
 -->
<!-- Title: mstd::utils::unique_impl&lt; types_holder&lt;&gt;, types_holder&lt; T, Us... &gt; &gt; Pages: 1 -->
<svg width="518pt" height="125pt"
 viewBox="0.00 0.00 518.00 125.00" xmlns="http://www.w3.org/2000/svg" xmlns:xlink="http://www.w3.org/1999/xlink">
<g id="graph0" class="graph" transform="scale(1 1) rotate(0) translate(4 121.13)">
<title>mstd::utils::unique_impl&lt; types_holder&lt;&gt;, types_holder&lt; T, Us... &gt; &gt;</title>
<!-- Node1 -->
<g id="Node000001" class="node">
<title>Node1</title>
<g id="a_Node000001"><a xlink:title=" ">
<polygon fill="#999999" stroke="#666666" points="510,-88 404,-88 404,-32 510,-32 510,-88"/>
<text xml:space="preserve" text-anchor="start" x="412" y="-74.5" font-family="Helvetica,sans-Serif" font-size="10.00">mstd::utils::unique</text>
<text xml:space="preserve" text-anchor="start" x="412" y="-62.5" font-family="Helvetica,sans-Serif" font-size="10.00">_impl&lt; types_holder</text>
<text xml:space="preserve" text-anchor="start" x="412" y="-50.5" font-family="Helvetica,sans-Serif" font-size="10.00">&lt;&gt;, types_holder&lt; T,</text>
<text xml:space="preserve" text-anchor="middle" x="457" y="-38.5" font-family="Helvetica,sans-Serif" font-size="10.00"> Us... &gt; &gt;</text>
</a>
</g>
</g>
<!-- Node2 -->
<g id="Node000002" class="node">
<title>Node2</title>
<g id="a_Node000002"><a xlink:href="../../dc/d00/structmstd_1_1utils_1_1unique__impl.html" target="_top" xlink:title=" ">
<polygon fill="white" stroke="#666666" points="364.12,-56 257.38,-56 257.38,0 364.12,0 364.12,-56"/>
<text xml:space="preserve" text-anchor="start" x="265.38" y="-42.5" font-family="Helvetica,sans-Serif" font-size="10.00">mstd::utils::unique</text>
<text xml:space="preserve" text-anchor="start" x="265.38" y="-30.5" font-family="Helvetica,sans-Serif" font-size="10.00">_impl&lt; types_holder</text>
<text xml:space="preserve" text-anchor="start" x="265.38" y="-18.5" font-family="Helvetica,sans-Serif" font-size="10.00">&lt; T &gt;, types_holder&lt;</text>
<text xml:space="preserve" text-anchor="middle" x="310.75" y="-6.5" font-family="Helvetica,sans-Serif" font-size="10.00"> Us... &gt; &gt;</text>
</a>
</g>
</g>
<!-- Node2&#45;&gt;Node1 -->
<g id="edge1_Node000001_Node000002" class="edge">
<title>Node2&#45;&gt;Node1</title>
<g id="a_edge1_Node000001_Node000002"><a xlink:title=" ">
<path fill="none" stroke="#63b8ff" d="M375.29,-42.09C384.81,-44.21 394.54,-46.37 403.79,-48.42"/>
<polygon fill="#63b8ff" stroke="#63b8ff" points="376.23,-38.72 365.71,-39.97 374.72,-45.55 376.23,-38.72"/>
</a>
</g>
</g>
<!-- Node3 -->
<g id="Node000003" class="node">
<title>Node3</title>
<g id="a_Node000003"><a xlink:href="../../dc/d00/structmstd_1_1utils_1_1unique__impl.html" target="_top" xlink:title=" ">
<polygon fill="white" stroke="#666666" points="96.25,-76 0,-76 0,-44 96.25,-44 96.25,-76"/>
<text xml:space="preserve" text-anchor="start" x="8" y="-62.5" font-family="Helvetica,sans-Serif" font-size="10.00">mstd::utils::unique</text>
<text xml:space="preserve" text-anchor="middle" x="48.12" y="-50.5" font-family="Helvetica,sans-Serif" font-size="10.00">_impl&lt; T, U &gt;</text>
</a>
</g>
</g>
<!-- Node3&#45;&gt;Node1 -->
<g id="edge3_Node000001_Node000003" class="edge">
<title>Node3&#45;&gt;Node1</title>
<g id="a_edge3_Node000001_Node000003"><a xlink:title=" ">
<path fill="none" stroke="orange" stroke-dasharray="5,2" d="M107.64,-76.96C109.86,-77.36 112.07,-77.7 114.25,-78 216.1,-91.82 336.37,-78.74 403.64,-68.81"/>
<polygon fill="orange" stroke="orange" points="108.46,-73.56 97.96,-74.98 107.05,-80.42 108.46,-73.56"/>
</a>
</g>
<text xml:space="preserve" text-anchor="start" x="257.5" y="-104.63" font-family="Helvetica,sans-Serif" font-size="10.00" fill="grey">&lt; types_holder&lt;&gt;, types</text>
<text xml:space="preserve" text-anchor="start" x="257.5" y="-88.63" font-family="Helvetica,sans-Serif" font-size="10.00" fill="grey">  _holder&lt; T, Us... &gt; &gt;</text>
</g>
<!-- Node3&#45;&gt;Node2 -->
<g id="edge2_Node000002_Node000003" class="edge">
<title>Node3&#45;&gt;Node2</title>
<g id="a_edge2_Node000002_Node000003"><a xlink:title=" ">
<path fill="none" stroke="orange" stroke-dasharray="5,2" d="M107.7,-45.15C109.91,-44.74 112.1,-44.35 114.25,-44 162.32,-36.18 217.68,-32.1 257.2,-30.03"/>
<polygon fill="orange" stroke="orange" points="107.19,-41.68 98.09,-47.11 108.59,-48.54 107.19,-41.68"/>
</a>
</g>
<text xml:space="preserve" text-anchor="start" x="117.25" y="-65.5" font-family="Helvetica,sans-Serif" font-size="10.00" fill="grey">&lt; types_holder&lt; T &gt;</text>
<text xml:space="preserve" text-anchor="start" x="117.25" y="-49.5" font-family="Helvetica,sans-Serif" font-size="10.00" fill="grey">  , types_holder&lt; Us... &gt; &gt;</text>
</g>
</g>
</svg>
