<?xml version="1.0" encoding="UTF-8" standalone="no"?>
<!DOCTYPE svg PUBLIC "-//W3C//DTD SVG 1.1//EN"
 "http://www.w3.org/Graphics/SVG/1.1/DTD/svg11.dtd">
<!-- Generated by graphviz version 14.1.1 (20251213.1925)
 -->
<!-- Title: mstd::quat&lt; T &gt; Pages: 1 -->
<!--zoomable 571 -->

<svg id="main" version="1.1" xmlns="http://www.w3.org/2000/svg" xmlns:xlink="http://www.w3.org/1999/xlink" xml:space="preserve" onload="init(evt)">

<style type="text/css"><![CDATA[
.node, .edge {opacity: 0.7;}
.node.selected, .edge.selected {opacity: 1;}
.edge:hover path { stroke: red; }
.edge:hover polygon { stroke: red; fill: red; }
]]></style>

<defs>
  <circle id="rim" cx="0" cy="0" r="7"/>
  <circle id="rim2" cx="0" cy="0" r="3.5"/>
  <g id="zoomPlus">
    <use xlink:href="#rim" fill="#404040"><set attributeName="fill" to="#808080" begin="zoomplus.mouseover" end="zoomplus.mouseout"/></use>
    <path d="M-4,0h8M0,-4v8" fill="none" stroke="white" stroke-width="1.5" pointer-events="none"/>
  </g>
  <g id="zoomMin">
    <use xlink:href="#rim" fill="#404040"><set attributeName="fill" to="#808080" begin="zoomminus.mouseover" end="zoomminus.mouseout"/></use>
    <path d="M-4,0h8" fill="none" stroke="white" stroke-width="1.5" pointer-events="none"/>
  </g>
  <g id="arrowUp" transform="translate(30 24)">
    <use xlink:href="#rim"/>
    <path pointer-events="none" fill="none" stroke="white" stroke-width="1.5" d="M0,-3.0v7 M-2.5,-0.5L0,-3.0L2.5,-0.5"/>
  </g>
  <g id="arrowRight" transform="rotate(90) translate(36 -43)">
    <use xlink:href="#rim"/>
    <path pointer-events="none" fill="none" stroke="white" stroke-width="1.5" d="M0,-3.0v7 M-2.5,-0.5L0,-3.0L2.5,-0.5"/>
  </g>
  <g id="arrowDown" transform="rotate(180) translate(-30 -48)">
    <use xlink:href="#rim"/>
    <path pointer-events="none" fill="none" stroke="white" stroke-width="1.5" d="M0,-3.0v7 M-2.5,-0.5L0,-3.0L2.5,-0.5"/>
  </g>
  <g id="arrowLeft" transform="rotate(270) translate(-36 17)">
    <use xlink:href="#rim"/>
    <path pointer-events="none" fill="none" stroke="white" stroke-width="1.5" d="M0,-3.0v7 M-2.5,-0.5L0,-3.0L2.5,-0.5"/>
  </g>
  <g id="resetDef">
    <use xlink:href="#rim2" fill="#404040"><set attributeName="fill" to="#808080" begin="reset.mouseover" end="reset.mouseout"/></use>
  </g>
</defs>
<script type="application/ecmascript">
var viewWidth = 365;
var viewHeight = 571;
var sectionId = 'dynsection-0';
</script>
<script type="application/ecmascript" xlink:href="../../svg.min.js"/>
<svg id="graph" class="graph">
<g id="viewport">
<title>mstd::quat&lt; T &gt;</title>
<!-- Node1 -->
<g id="Node000001" class="node">
<title>Node1</title>
<g id="a_Node000001"><a xlink:title=" ">
<polygon fill="#999999" stroke="#666666" points="85.75,-295.76 0,-295.76 0,-275.76 85.75,-275.76 85.75,-295.76"/>
<text xml:space="preserve" text-anchor="middle" x="42.88" y="-282.26" font-family="Helvetica,sans-Serif" font-size="10.00">mstd::quat&lt; T &gt;</text>
</a>
</g>
</g>
<!-- Node2 -->
<g id="Node000002" class="node">
<title>Node2</title>
<g id="a_Node000002"><a xlink:href="../../d2/dc9/classmstd_1_1quat.html" target="_top" xlink:title=" ">
<polygon fill="white" stroke="#666666" points="341.38,-544.76 242.12,-544.76 242.12,-524.76 341.38,-524.76 341.38,-544.76"/>
<text xml:space="preserve" text-anchor="middle" x="291.75" y="-531.26" font-family="Helvetica,sans-Serif" font-size="10.00">mstd::quat&lt; float &gt;</text>
</a>
</g>
</g>
<!-- Node1&#45;&gt;Node2 -->
<g id="edge1_Node000001_Node000002" class="edge">
<title>Node1&#45;&gt;Node2</title>
<g id="a_edge1_Node000001_Node000002"><a xlink:title=" ">
<path fill="none" stroke="orange" stroke-dasharray="5,2" d="M46.51,-307.58C53.2,-359.03 72.54,-485.67 103.75,-512.76 141.27,-545.34 200.16,-546.99 241.81,-542.95"/>
<polygon fill="orange" stroke="orange" points="49.99,-307.21 45.27,-297.73 43.05,-308.08 49.99,-307.21"/>
</a>
</g>
<text xml:space="preserve" text-anchor="start" x="137.88" y="-550" font-family="Helvetica,sans-Serif" font-size="10.00" fill="grey">&lt; float &gt;</text>
</g>
<!-- Node3 -->
<g id="Node000003" class="node">
<title>Node3</title>
<g id="a_Node000003"><a xlink:href="../../d2/dc9/classmstd_1_1quat.html" target="_top" xlink:title=" ">
<polygon fill="white" stroke="#666666" points="346.25,-503.76 237.25,-503.76 237.25,-483.76 346.25,-483.76 346.25,-503.76"/>
<text xml:space="preserve" text-anchor="middle" x="291.75" y="-490.26" font-family="Helvetica,sans-Serif" font-size="10.00">mstd::quat&lt; double &gt;</text>
</a>
</g>
</g>
<!-- Node1&#45;&gt;Node3 -->
<g id="edge2_Node000001_Node000003" class="edge">
<title>Node1&#45;&gt;Node3</title>
<g id="a_edge2_Node000001_Node000003"><a xlink:title=" ">
<path fill="none" stroke="orange" stroke-dasharray="5,2" d="M43.8,-307.2C44.94,-346.64 53.5,-430.44 103.75,-471.76 123.51,-488.01 188.99,-492.62 236.92,-493.74"/>
<polygon fill="orange" stroke="orange" points="47.3,-307.33 43.67,-297.37 40.3,-307.42 47.3,-307.33"/>
</a>
</g>
<text xml:space="preserve" text-anchor="start" x="133" y="-497.95" font-family="Helvetica,sans-Serif" font-size="10.00" fill="grey">&lt; double &gt;</text>
</g>
<!-- Node4 -->
<g id="Node000004" class="node">
<title>Node4</title>
<g id="a_Node000004"><a xlink:href="../../d2/dc9/classmstd_1_1quat.html" target="_top" xlink:title=" ">
<polygon fill="white" stroke="#666666" points="356.75,-462.76 226.75,-462.76 226.75,-442.76 356.75,-442.76 356.75,-462.76"/>
<text xml:space="preserve" text-anchor="middle" x="291.75" y="-449.26" font-family="Helvetica,sans-Serif" font-size="10.00">mstd::quat&lt; long double &gt;</text>
</a>
</g>
</g>
<!-- Node1&#45;&gt;Node4 -->
<g id="edge3_Node000001_Node000004" class="edge">
<title>Node1&#45;&gt;Node4</title>
<g id="a_edge3_Node000001_Node000004"><a xlink:title=" ">
<path fill="none" stroke="orange" stroke-dasharray="5,2" d="M46.03,-307.21C50.53,-339.68 64.07,-400.72 103.75,-430.76 122.64,-445.07 180.13,-450.23 226.42,-452.01"/>
<polygon fill="orange" stroke="orange" points="49.52,-306.94 44.86,-297.43 42.57,-307.77 49.52,-306.94"/>
</a>
</g>
<text xml:space="preserve" text-anchor="start" x="122.5" y="-456.44" font-family="Helvetica,sans-Serif" font-size="10.00" fill="grey">&lt; long double &gt;</text>
</g>
<!-- Node5 -->
<g id="Node000005" class="node">
<title>Node5</title>
<g id="a_Node000005"><a xlink:href="../../d2/dc9/classmstd_1_1quat.html" target="_top" xlink:title=" ">
<polygon fill="white" stroke="#666666" points="337.25,-424.76 246.25,-424.76 246.25,-404.76 337.25,-404.76 337.25,-424.76"/>
<text xml:space="preserve" text-anchor="middle" x="291.75" y="-411.26" font-family="Helvetica,sans-Serif" font-size="10.00">mstd::quat&lt; int &gt;</text>
</a>
</g>
</g>
<!-- Node1&#45;&gt;Node5 -->
<g id="edge4_Node000001_Node000005" class="edge">
<title>Node1&#45;&gt;Node5</title>
<g id="a_edge4_Node000001_Node000005"><a xlink:title=" ">
<path fill="none" stroke="orange" stroke-dasharray="5,2" d="M49.86,-307.04C57.87,-331.33 74.59,-370.21 103.75,-389.76 126.33,-404.9 198.25,-410.92 246.04,-413.28"/>
<polygon fill="orange" stroke="orange" points="53.24,-306.13 46.96,-297.59 46.54,-308.18 53.24,-306.13"/>
</a>
</g>
<text xml:space="preserve" text-anchor="start" x="142" y="-416.11" font-family="Helvetica,sans-Serif" font-size="10.00" fill="grey">&lt; int &gt;</text>
</g>
<!-- Node6 -->
<g id="Node000006" class="node">
<title>Node6</title>
<g id="a_Node000006"><a xlink:href="../../d2/dc9/classmstd_1_1quat.html" target="_top" xlink:title=" ">
<polygon fill="white" stroke="#666666" points="347,-386.76 236.5,-386.76 236.5,-354.76 347,-354.76 347,-386.76"/>
<text xml:space="preserve" text-anchor="start" x="244.5" y="-373.26" font-family="Helvetica,sans-Serif" font-size="10.00">mstd::quat&lt; unsigned</text>
<text xml:space="preserve" text-anchor="middle" x="291.75" y="-361.26" font-family="Helvetica,sans-Serif" font-size="10.00"> int &gt;</text>
</a>
</g>
</g>
<!-- Node1&#45;&gt;Node6 -->
<g id="edge5_Node000001_Node000006" class="edge">
<title>Node1&#45;&gt;Node6</title>
<g id="a_edge5_Node000001_Node000006"><a xlink:title=" ">
<path fill="none" stroke="orange" stroke-dasharray="5,2" d="M58.57,-304.46C69.6,-317.11 85.83,-333.04 103.75,-341.76 145.26,-361.96 197.53,-368.72 236.25,-370.72"/>
<polygon fill="orange" stroke="orange" points="61.57,-302.59 52.48,-297.15 56.19,-307.07 61.57,-302.59"/>
</a>
</g>
<text xml:space="preserve" text-anchor="start" x="121" y="-373.91" font-family="Helvetica,sans-Serif" font-size="10.00" fill="grey">&lt; unsigned int &gt;</text>
</g>
<!-- Node7 -->
<g id="Node000007" class="node">
<title>Node7</title>
<g id="a_Node000007"><a xlink:href="../../d2/dc9/classmstd_1_1quat.html" target="_top" xlink:title=" ">
<polygon fill="white" stroke="#666666" points="341,-336.76 242.5,-336.76 242.5,-316.76 341,-316.76 341,-336.76"/>
<text xml:space="preserve" text-anchor="middle" x="291.75" y="-323.26" font-family="Helvetica,sans-Serif" font-size="10.00">mstd::quat&lt; bool &gt;</text>
</a>
</g>
</g>
<!-- Node1&#45;&gt;Node7 -->
<g id="edge6_Node000001_Node000007" class="edge">
<title>Node1&#45;&gt;Node7</title>
<g id="a_edge6_Node000001_Node000007"><a xlink:title=" ">
<path fill="none" stroke="orange" stroke-dasharray="5,2" d="M83.69,-299.55C90.33,-301.52 97.19,-303.35 103.75,-304.76 150.25,-314.78 204.3,-320.52 242.29,-323.6"/>
<polygon fill="orange" stroke="orange" points="84.84,-296.25 74.26,-296.62 82.76,-302.93 84.84,-296.25"/>
</a>
</g>
<text xml:space="preserve" text-anchor="start" x="138.25" y="-325.62" font-family="Helvetica,sans-Serif" font-size="10.00" fill="grey">&lt; bool &gt;</text>
</g>
<!-- Node8 -->
<g id="Node000008" class="node">
<title>Node8</title>
<g id="a_Node000008"><a xlink:href="../../d2/dc9/classmstd_1_1quat.html" target="_top" xlink:title=" ">
<polygon fill="white" stroke="#666666" points="341.38,-298.76 242.12,-298.76 242.12,-278.76 341.38,-278.76 341.38,-298.76"/>
<text xml:space="preserve" text-anchor="middle" x="291.75" y="-285.26" font-family="Helvetica,sans-Serif" font-size="10.00">mstd::quat&lt; char &gt;</text>
</a>
</g>
</g>
<!-- Node1&#45;&gt;Node8 -->
<g id="edge7_Node000001_Node000008" class="edge">
<title>Node1&#45;&gt;Node8</title>
<g id="a_edge7_Node000001_Node000008"><a xlink:title=" ">
<path fill="none" stroke="orange" stroke-dasharray="5,2" d="M97.65,-285.84C129.87,-285.95 171.66,-286.2 208.75,-286.76 219.43,-286.93 230.89,-287.17 241.76,-287.42"/>
<polygon fill="orange" stroke="orange" points="97.76,-282.34 87.75,-285.81 97.74,-289.34 97.76,-282.34"/>
</a>
</g>
<text xml:space="preserve" text-anchor="start" x="137.88" y="-292.26" font-family="Helvetica,sans-Serif" font-size="10.00" fill="grey">&lt; char &gt;</text>
</g>
<!-- Node9 -->
<g id="Node000009" class="node">
<title>Node9</title>
<g id="a_Node000009"><a xlink:href="../../d2/dc9/classmstd_1_1quat.html" target="_top" xlink:title=" ">
<polygon fill="white" stroke="#666666" points="347,-260.76 236.5,-260.76 236.5,-228.76 347,-228.76 347,-260.76"/>
<text xml:space="preserve" text-anchor="start" x="244.5" y="-247.26" font-family="Helvetica,sans-Serif" font-size="10.00">mstd::quat&lt; unsigned</text>
<text xml:space="preserve" text-anchor="middle" x="291.75" y="-235.26" font-family="Helvetica,sans-Serif" font-size="10.00"> char &gt;</text>
</a>
</g>
</g>
<!-- Node1&#45;&gt;Node9 -->
<g id="edge8_Node000001_Node000009" class="edge">
<title>Node1&#45;&gt;Node9</title>
<g id="a_edge8_Node000001_Node000009"><a xlink:title=" ">
<path fill="none" stroke="orange" stroke-dasharray="5,2" d="M78.57,-271.35C86.71,-268.43 95.44,-265.68 103.75,-263.76 147.63,-253.64 198.54,-248.91 236.15,-246.7"/>
<polygon fill="orange" stroke="orange" points="77.47,-268.02 69.34,-274.82 79.93,-274.58 77.47,-268.02"/>
</a>
</g>
<text xml:space="preserve" text-anchor="start" x="116.88" y="-269.26" font-family="Helvetica,sans-Serif" font-size="10.00" fill="grey">&lt; unsigned char &gt;</text>
</g>
<!-- Node10 -->
<g id="Node000010" class="node">
<title>Node10</title>
<g id="a_Node000010"><a xlink:href="../../d2/dc9/classmstd_1_1quat.html" target="_top" xlink:title=" ">
<polygon fill="white" stroke="#666666" points="341.75,-210.76 241.75,-210.76 241.75,-178.76 341.75,-178.76 341.75,-210.76"/>
<text xml:space="preserve" text-anchor="start" x="249.75" y="-197.26" font-family="Helvetica,sans-Serif" font-size="10.00">mstd::quat&lt; signed</text>
<text xml:space="preserve" text-anchor="middle" x="291.75" y="-185.26" font-family="Helvetica,sans-Serif" font-size="10.00"> char &gt;</text>
</a>
</g>
</g>
<!-- Node1&#45;&gt;Node10 -->
<g id="edge9_Node000001_Node000010" class="edge">
<title>Node1&#45;&gt;Node10</title>
<g id="a_edge9_Node000001_Node000010"><a xlink:title=" ">
<path fill="none" stroke="orange" stroke-dasharray="5,2" d="M58.04,-266.6C68.99,-253.25 85.36,-236.19 103.75,-226.76 146.83,-204.67 202.1,-197.4 241.35,-195.21"/>
<polygon fill="orange" stroke="orange" points="55.4,-264.29 52,-274.32 60.92,-268.6 55.4,-264.29"/>
</a>
</g>
<text xml:space="preserve" text-anchor="start" x="122.12" y="-232.26" font-family="Helvetica,sans-Serif" font-size="10.00" fill="grey">&lt; signed char &gt;</text>
</g>
<!-- Node11 -->
<g id="Node000011" class="node">
<title>Node11</title>
<g id="a_Node000011"><a xlink:href="../../d2/dc9/classmstd_1_1quat.html" target="_top" xlink:title=" ">
<polygon fill="white" stroke="#666666" points="341,-160.76 242.5,-160.76 242.5,-140.76 341,-140.76 341,-160.76"/>
<text xml:space="preserve" text-anchor="middle" x="291.75" y="-147.26" font-family="Helvetica,sans-Serif" font-size="10.00">mstd::quat&lt; long &gt;</text>
</a>
</g>
</g>
<!-- Node1&#45;&gt;Node11 -->
<g id="edge10_Node000001_Node000011" class="edge">
<title>Node1&#45;&gt;Node11</title>
<g id="a_edge10_Node000001_Node000011"><a xlink:title=" ">
<path fill="none" stroke="orange" stroke-dasharray="5,2" d="M49.24,-264.63C56.84,-239.32 73.35,-197.71 103.75,-176.76 144.37,-148.77 201.86,-144.71 242.35,-146.11"/>
<polygon fill="orange" stroke="orange" points="45.9,-263.55 46.6,-274.13 52.65,-265.43 45.9,-263.55"/>
</a>
</g>
<text xml:space="preserve" text-anchor="start" x="138.25" y="-182.26" font-family="Helvetica,sans-Serif" font-size="10.00" fill="grey">&lt; long &gt;</text>
</g>
<!-- Node12 -->
<g id="Node000012" class="node">
<title>Node12</title>
<g id="a_Node000012"><a xlink:href="../../d2/dc9/classmstd_1_1quat.html" target="_top" xlink:title=" ">
<polygon fill="white" stroke="#666666" points="347,-122.76 236.5,-122.76 236.5,-90.76 347,-90.76 347,-122.76"/>
<text xml:space="preserve" text-anchor="start" x="244.5" y="-109.26" font-family="Helvetica,sans-Serif" font-size="10.00">mstd::quat&lt; unsigned</text>
<text xml:space="preserve" text-anchor="middle" x="291.75" y="-97.26" font-family="Helvetica,sans-Serif" font-size="10.00"> long &gt;</text>
</a>
</g>
</g>
<!-- Node1&#45;&gt;Node12 -->
<g id="edge11_Node000001_Node000012" class="edge">
<title>Node1&#45;&gt;Node12</title>
<g id="a_edge11_Node000001_Node000012"><a xlink:title=" ">
<path fill="none" stroke="orange" stroke-dasharray="5,2" d="M44.99,-263.9C48.07,-228.35 59.74,-158.59 103.75,-124.76 140.99,-96.14 195.5,-94.02 236.07,-97.65"/>
<polygon fill="orange" stroke="orange" points="41.5,-263.59 44.3,-273.81 48.48,-264.07 41.5,-263.59"/>
</a>
</g>
<text xml:space="preserve" text-anchor="start" x="117.25" y="-130.26" font-family="Helvetica,sans-Serif" font-size="10.00" fill="grey">&lt; unsigned long &gt;</text>
</g>
<!-- Node13 -->
<g id="Node000013" class="node">
<title>Node13</title>
<g id="a_Node000013"><a xlink:href="../../d2/dc9/classmstd_1_1quat.html" target="_top" xlink:title=" ">
<polygon fill="white" stroke="#666666" points="351.5,-72.76 232,-72.76 232,-52.76 351.5,-52.76 351.5,-72.76"/>
<text xml:space="preserve" text-anchor="middle" x="291.75" y="-59.26" font-family="Helvetica,sans-Serif" font-size="10.00">mstd::quat&lt; long long &gt;</text>
</a>
</g>
</g>
<!-- Node1&#45;&gt;Node13 -->
<g id="edge12_Node000001_Node000013" class="edge">
<title>Node1&#45;&gt;Node13</title>
<g id="a_edge12_Node000001_Node000013"><a xlink:title=" ">
<path fill="none" stroke="orange" stroke-dasharray="5,2" d="M46.85,-264.08C54.04,-215.21 73.97,-98.81 103.75,-74.76 143.36,-42.78 204.43,-45.42 245.91,-52.3"/>
<polygon fill="orange" stroke="orange" points="43.39,-263.56 45.45,-273.96 50.32,-264.55 43.39,-263.56"/>
</a>
</g>
<text xml:space="preserve" text-anchor="start" x="127.75" y="-80.26" font-family="Helvetica,sans-Serif" font-size="10.00" fill="grey">&lt; long long &gt;</text>
</g>
<!-- Node14 -->
<g id="Node000014" class="node">
<title>Node14</title>
<g id="a_Node000014"><a xlink:href="../../d2/dc9/classmstd_1_1quat.html" target="_top" xlink:title=" ">
<polygon fill="white" stroke="#666666" points="347,-34.76 236.5,-34.76 236.5,-2.76 347,-2.76 347,-34.76"/>
<text xml:space="preserve" text-anchor="start" x="244.5" y="-21.26" font-family="Helvetica,sans-Serif" font-size="10.00">mstd::quat&lt; unsigned</text>
<text xml:space="preserve" text-anchor="middle" x="291.75" y="-9.26" font-family="Helvetica,sans-Serif" font-size="10.00"> long long &gt;</text>
</a>
</g>
</g>
<!-- Node1&#45;&gt;Node14 -->
<g id="edge13_Node000001_Node000014" class="edge">
<title>Node1&#45;&gt;Node14</title>
<g id="a_edge13_Node000001_Node000014"><a xlink:title=" ">
<path fill="none" stroke="orange" stroke-dasharray="5,2" d="M45.56,-264.1C50.48,-207.28 66.82,-56.3 103.75,-25.76 140.05,4.26 195.22,2.51 236.24,-4.64"/>
<polygon fill="orange" stroke="orange" points="42.08,-263.79 44.74,-274.05 49.05,-264.37 42.08,-263.79"/>
</a>
</g>
<text xml:space="preserve" text-anchor="start" x="106.75" y="-31.26" font-family="Helvetica,sans-Serif" font-size="10.00" fill="grey">&lt; unsigned long long &gt;</text>
</g>
</g>
</svg>

<g id="navigator" transform="translate(0 0)" fill="#404254">
  <rect fill="#f2f5e9" fill-opacity="0.5" stroke="#606060" stroke-width=".5" x="0" y="0" width="60" height="60"/>
  <use id="zoomplus" xlink:href="#zoomPlus" x="17" y="9" onmousedown="handleZoom(evt,'in')"/>
  <use id="zoomminus" xlink:href="#zoomMin" x="42" y="9" onmousedown="handleZoom(evt,'out')"/>
  <use id="reset" xlink:href="#resetDef" x="30" y="36" onmousedown="handleReset()"/>
   <use id="arrowup" xlink:href="#arrowUp" x="0" y="0" onmousedown="handlePan(0,-1)"/>
  <use id="arrowright" xlink:href="#arrowRight" x="0" y="0" onmousedown="handlePan(1,0)"/>
  <use id="arrowdown" xlink:href="#arrowDown" x="0" y="0" onmousedown="handlePan(0,1)"/>
  <use id="arrowleft" xlink:href="#arrowLeft" x="0" y="0" onmousedown="handlePan(-1,0)"/>
</g>
<svg viewBox="0 0 15 15" width="100%" height="30px" preserveAspectRatio="xMaxYMin meet">
 <g id="arrow_out" transform="scale(0.3 0.3)">
  <a xlink:href="classmstd_1_1quat__inherit__graph_org.svg" target="_base">
   <rect id="button" ry="5" rx="5" y="6" x="6" height="38" width="38"
        fill="#f2f5e9" fill-opacity="0.5" stroke="#606060" stroke-width="1.0"/>
   <path id="arrow"
     d="M 11.500037,31.436501 C 11.940474,20.09759 22.043105,11.32322 32.158766,21.979434 L 37.068811,17.246167 C 37.068811,17.246167 37.088388,32 37.088388,32 L 22.160133,31.978069 C 22.160133,31.978069 26.997745,27.140456 26.997745,27.140456 C 18.528582,18.264221 13.291696,25.230495 11.500037,31.436501 z"
     style="fill:#404040;"/>
  </a>
 </g>
</svg>

<style type='text/css'>
<![CDATA[
[data-mouse-over-selected='false'] { opacity: 0.7; }
[data-mouse-over-selected='true']  { opacity: 1.0; }
]]>
</style>
<script type="application/ecmascript"><![CDATA[
document.addEventListener('DOMContentLoaded', (event) => {
  highlightEdges();
  highlightAdjacentNodes();
});
]]></script>
</svg>
