<?xml version="1.0" encoding="UTF-8" standalone="no"?>
<!DOCTYPE svg PUBLIC "-//W3C//DTD SVG 1.1//EN"
 "http://www.w3.org/Graphics/SVG/1.1/DTD/svg11.dtd">
<!-- Generated by graphviz version 14.1.1 (20251213.1925)
 -->
<!-- Title: mstd::function_traits&lt; R(&amp;&amp;)(Args...) noexcept &gt; Pages: 1 -->
<!--zoomable 262 -->

<svg id="main" version="1.1" xmlns="http://www.w3.org/2000/svg" xmlns:xlink="http://www.w3.org/1999/xlink" xml:space="preserve" onload="init(evt)">

<style type="text/css"><![CDATA[
.node, .edge {opacity: 0.7;}
.node.selected, .edge.selected {opacity: 1;}
.edge:hover path { stroke: red; }
.edge:hover polygon { stroke: red; fill: red; }
]]></style>

<defs>
  <circle id="rim" cx="0" cy="0" r="7"/>
  <circle id="rim2" cx="0" cy="0" r="3.5"/>
  <g id="zoomPlus">
    <use xlink:href="#rim" fill="#404040"><set attributeName="fill" to="#808080" begin="zoomplus.mouseover" end="zoomplus.mouseout"/></use>
    <path d="M-4,0h8M0,-4v8" fill="none" stroke="white" stroke-width="1.5" pointer-events="none"/>
  </g>
  <g id="zoomMin">
    <use xlink:href="#rim" fill="#404040"><set attributeName="fill" to="#808080" begin="zoomminus.mouseover" end="zoomminus.mouseout"/></use>
    <path d="M-4,0h8" fill="none" stroke="white" stroke-width="1.5" pointer-events="none"/>
  </g>
  <g id="arrowUp" transform="translate(30 24)">
    <use xlink:href="#rim"/>
    <path pointer-events="none" fill="none" stroke="white" stroke-width="1.5" d="M0,-3.0v7 M-2.5,-0.5L0,-3.0L2.5,-0.5"/>
  </g>
  <g id="arrowRight" transform="rotate(90) translate(36 -43)">
    <use xlink:href="#rim"/>
    <path pointer-events="none" fill="none" stroke="white" stroke-width="1.5" d="M0,-3.0v7 M-2.5,-0.5L0,-3.0L2.5,-0.5"/>
  </g>
  <g id="arrowDown" transform="rotate(180) translate(-30 -48)">
    <use xlink:href="#rim"/>
    <path pointer-events="none" fill="none" stroke="white" stroke-width="1.5" d="M0,-3.0v7 M-2.5,-0.5L0,-3.0L2.5,-0.5"/>
  </g>
  <g id="arrowLeft" transform="rotate(270) translate(-36 17)">
    <use xlink:href="#rim"/>
    <path pointer-events="none" fill="none" stroke="white" stroke-width="1.5" d="M0,-3.0v7 M-2.5,-0.5L0,-3.0L2.5,-0.5"/>
  </g>
  <g id="resetDef">
    <use xlink:href="#rim2" fill="#404040"><set attributeName="fill" to="#808080" begin="reset.mouseover" end="reset.mouseout"/></use>
  </g>
</defs>
<script type="application/ecmascript">
var viewWidth = 1189;
var viewHeight = 262;
var sectionId = 'dynsection-0';
</script>
<script type="application/ecmascript" xlink:href="../../svg.min.js"/>
<svg id="graph" class="graph">
<g id="viewport">
<title>mstd::function_traits&lt; R(&amp;&amp;)(Args...) noexcept &gt;</title>
<!-- Node1 -->
<g id="Node000001" class="node">
<title>Node1</title>
<g id="a_Node000001"><a xlink:title=" ">
<polygon fill="#999999" stroke="#666666" points="1181.25,-232 1042.25,-232 1042.25,-200 1181.25,-200 1181.25,-232"/>
<text xml:space="preserve" text-anchor="start" x="1050.25" y="-218.5" font-family="Helvetica,sans-Serif" font-size="10.00">mstd::function_traits</text>
<text xml:space="preserve" text-anchor="middle" x="1111.75" y="-206.5" font-family="Helvetica,sans-Serif" font-size="10.00">&lt; R(&amp;&amp;)(Args...) noexcept &gt;</text>
</a>
</g>
</g>
<!-- Node2 -->
<g id="Node000002" class="node">
<title>Node2</title>
<g id="a_Node000002"><a xlink:href="../../d0/d74/structmstd_1_1utils_1_1function__default__type__traits.html" target="_top" xlink:title=" ">
<polygon fill="white" stroke="#666666" points="286.25,-138 184,-138 184,-94 286.25,-94 286.25,-138"/>
<text xml:space="preserve" text-anchor="start" x="192" y="-124.5" font-family="Helvetica,sans-Serif" font-size="10.00">mstd::utils::function</text>
<text xml:space="preserve" text-anchor="start" x="192" y="-112.5" font-family="Helvetica,sans-Serif" font-size="10.00">_default_type_traits</text>
<text xml:space="preserve" text-anchor="middle" x="235.12" y="-100.5" font-family="Helvetica,sans-Serif" font-size="10.00">&lt; false &gt;</text>
</a>
</g>
</g>
<!-- Node2&#45;&gt;Node1 -->
<g id="edge1_Node000001_Node000002" class="edge">
<title>Node2&#45;&gt;Node1</title>
<g id="a_edge1_Node000001_Node000002"><a xlink:title=" ">
<path fill="none" stroke="#63b8ff" d="M261.73,-146.99C298.42,-187.67 370.18,-254 448.12,-254 448.12,-254 448.12,-254 946.5,-254 987.33,-254 1032.43,-242.72 1065.03,-232.45"/>
<polygon fill="#63b8ff" stroke="#63b8ff" points="264.47,-144.8 255.23,-139.61 259.22,-149.43 264.47,-144.8"/>
</a>
</g>
</g>
<!-- Node4 -->
<g id="Node000004" class="node">
<title>Node4</title>
<g id="a_Node000004"><a xlink:href="../../df/d39/structmstd_1_1function__traits_3_01_r_07_args_8_8_8_08_01noexcept_01_4.html" target="_top" xlink:title=" ">
<polygon fill="white" stroke="#666666" points="1005.25,-163 885.75,-163 885.75,-131 1005.25,-131 1005.25,-163"/>
<text xml:space="preserve" text-anchor="start" x="893.75" y="-149.5" font-family="Helvetica,sans-Serif" font-size="10.00">mstd::function_traits</text>
<text xml:space="preserve" text-anchor="middle" x="945.5" y="-137.5" font-family="Helvetica,sans-Serif" font-size="10.00">&lt; R(Args...) noexcept &gt;</text>
</a>
</g>
</g>
<!-- Node2&#45;&gt;Node4 -->
<g id="edge4_Node000004_Node000002" class="edge">
<title>Node2&#45;&gt;Node4</title>
<g id="a_edge4_Node000004_Node000002"><a xlink:title=" ">
<path fill="none" stroke="#63b8ff" d="M298.13,-117.7C369.37,-119.74 489.78,-123.46 593.25,-128 696.05,-132.51 815.7,-139.31 885.48,-143.44"/>
<polygon fill="#63b8ff" stroke="#63b8ff" points="298.31,-114.2 288.22,-117.42 298.11,-121.2 298.31,-114.2"/>
</a>
</g>
</g>
<!-- Node5 -->
<g id="Node000005" class="node">
<title>Node5</title>
<g id="a_Node000005"><a xlink:href="../../d0/dfd/structmstd_1_1function__traits_3_01_r_07_args_8_8_8_08_4.html" target="_top" xlink:title=" ">
<polygon fill="white" stroke="#666666" points="718.62,-85 613.38,-85 613.38,-53 718.62,-53 718.62,-85"/>
<text xml:space="preserve" text-anchor="start" x="621.38" y="-71.5" font-family="Helvetica,sans-Serif" font-size="10.00">mstd::function_traits</text>
<text xml:space="preserve" text-anchor="middle" x="666" y="-59.5" font-family="Helvetica,sans-Serif" font-size="10.00">&lt; R(Args...)&gt;</text>
</a>
</g>
</g>
<!-- Node2&#45;&gt;Node5 -->
<g id="edge6_Node000005_Node000002" class="edge">
<title>Node2&#45;&gt;Node5</title>
<g id="a_edge6_Node000005_Node000002"><a xlink:title=" ">
<path fill="none" stroke="#63b8ff" d="M297.53,-94.17C300.05,-93.75 302.55,-93.36 305,-93 413.98,-76.98 542.73,-67.41 612.92,-65.88"/>
<polygon fill="#63b8ff" stroke="#63b8ff" points="297.12,-90.69 287.91,-95.91 298.37,-97.58 297.12,-90.69"/>
</a>
</g>
</g>
<!-- Node2&#45;&gt;Node5 -->
<g id="edge9_Node000005_Node000002" class="edge">
<title>Node2&#45;&gt;Node5</title>
<g id="a_edge9_Node000005_Node000002"><a xlink:title=" ">
<path fill="none" stroke="#63b8ff" d="M297.53,-112.16C300.05,-111.75 302.55,-111.36 305,-111 413.98,-94.98 542.73,-85.41 612.92,-78.08"/>
<polygon fill="#63b8ff" stroke="#63b8ff" points="297.18,-108.67 287.91,-113.8 298.36,-115.57 297.18,-108.67"/>
</a>
</g>
</g>
<!-- Node8 -->
<g id="Node000008" class="node">
<title>Node8</title>
<g id="a_Node000008"><a xlink:href="../../d7/dcb/structmstd_1_1function__traits.html" target="_top" xlink:title=" ">
<polygon fill="white" stroke="#666666" points="501.75,-186 396.5,-186 396.5,-154 501.75,-154 501.75,-186"/>
<text xml:space="preserve" text-anchor="start" x="404.5" y="-172.5" font-family="Helvetica,sans-Serif" font-size="10.00">mstd::function_traits</text>
<text xml:space="preserve" text-anchor="middle" x="449.12" y="-160.5" font-family="Helvetica,sans-Serif" font-size="10.00">&lt; F, C &gt;</text>
</a>
</g>
</g>
<!-- Node2&#45;&gt;Node8 -->
<g id="edge11_Node000008_Node000002" class="edge">
<title>Node2&#45;&gt;Node8</title>
<g id="a_edge11_Node000008_Node000002"><a xlink:title=" ">
<path fill="none" stroke="#63b8ff" d="M297.41,-131.61C328.69,-139.58 366.32,-149.16 396.16,-156.76"/>
<polygon fill="#63b8ff" stroke="#63b8ff" points="298.66,-128.32 288.1,-129.24 296.93,-135.1 298.66,-128.32"/>
</a>
</g>
</g>
<!-- Node3 -->
<g id="Node000003" class="node">
<title>Node3</title>
<g id="a_Node000003"><a xlink:href="../../d0/d74/structmstd_1_1utils_1_1function__default__type__traits.html" target="_top" xlink:title=" ">
<polygon fill="white" stroke="#666666" points="102.25,-138 0,-138 0,-94 102.25,-94 102.25,-138"/>
<text xml:space="preserve" text-anchor="start" x="8" y="-124.5" font-family="Helvetica,sans-Serif" font-size="10.00">mstd::utils::function</text>
<text xml:space="preserve" text-anchor="start" x="8" y="-112.5" font-family="Helvetica,sans-Serif" font-size="10.00">_default_type_traits</text>
<text xml:space="preserve" text-anchor="middle" x="51.12" y="-100.5" font-family="Helvetica,sans-Serif" font-size="10.00">&lt; IsMember &gt;</text>
</a>
</g>
</g>
<!-- Node3&#45;&gt;Node2 -->
<g id="edge2_Node000002_Node000003" class="edge">
<title>Node3&#45;&gt;Node2</title>
<g id="a_edge2_Node000002_Node000003"><a xlink:title=" ">
<path fill="none" stroke="orange" stroke-dasharray="5,2" d="M113.64,-116C136.46,-116 162.05,-116 183.76,-116"/>
<polygon fill="orange" stroke="orange" points="113.85,-112.5 103.85,-116 113.85,-119.5 113.85,-112.5"/>
</a>
</g>
<text xml:space="preserve" text-anchor="start" x="123.25" y="-121.5" font-family="Helvetica,sans-Serif" font-size="10.00" fill="grey">&lt; false &gt;</text>
</g>
<!-- Node4&#45;&gt;Node1 -->
<g id="edge3_Node000001_Node000004" class="edge">
<title>Node4&#45;&gt;Node1</title>
<g id="a_edge3_Node000001_Node000004"><a xlink:title=" ">
<path fill="none" stroke="#63b8ff" d="M995.84,-167.73C1020.07,-177.9 1048.84,-189.99 1071.54,-199.53"/>
<polygon fill="#63b8ff" stroke="#63b8ff" points="997.4,-164.58 986.82,-163.94 994.68,-171.04 997.4,-164.58"/>
</a>
</g>
</g>
<!-- Node5&#45;&gt;Node4 -->
<g id="edge5_Node000004_Node000005" class="edge">
<title>Node5&#45;&gt;Node4</title>
<g id="a_edge5_Node000004_Node000005"><a xlink:title=" ">
<path fill="none" stroke="#63b8ff" d="M730.02,-72.32C770.39,-76 823.35,-83.73 867.75,-100 887.7,-107.31 908.12,-120.12 922.87,-130.52"/>
<polygon fill="#63b8ff" stroke="#63b8ff" points="730.48,-68.85 720.23,-71.5 729.9,-75.83 730.48,-68.85"/>
</a>
</g>
</g>
<!-- Node6 -->
<g id="Node000006" class="node">
<title>Node6</title>
<g id="a_Node000006"><a xlink:href="../../df/db9/structmstd_1_1utils_1_1function__core__traits.html" target="_top" xlink:title=" ">
<polygon fill="white" stroke="#666666" points="511.5,-32 386.75,-32 386.75,0 511.5,0 511.5,-32"/>
<text xml:space="preserve" text-anchor="start" x="394.75" y="-18.5" font-family="Helvetica,sans-Serif" font-size="10.00">mstd::utils::function</text>
<text xml:space="preserve" text-anchor="middle" x="449.12" y="-6.5" font-family="Helvetica,sans-Serif" font-size="10.00">_core_traits&lt; R(Args...)&gt;</text>
</a>
</g>
</g>
<!-- Node6&#45;&gt;Node5 -->
<g id="edge7_Node000005_Node000006" class="edge">
<title>Node6&#45;&gt;Node5</title>
<g id="a_edge7_Node000005_Node000006"><a xlink:title=" ">
<path fill="none" stroke="#63b8ff" d="M522.99,-29.75C545.62,-34.43 570.57,-40.01 593.25,-46 600.71,-47.97 608.54,-50.26 616.18,-52.61"/>
<polygon fill="#63b8ff" stroke="#63b8ff" points="523.72,-26.33 513.23,-27.76 522.33,-33.19 523.72,-26.33"/>
</a>
</g>
</g>
<!-- Node7 -->
<g id="Node000007" class="node">
<title>Node7</title>
<g id="a_Node000007"><a xlink:href="../../df/db9/structmstd_1_1utils_1_1function__core__traits.html" target="_top" xlink:title=" ">
<polygon fill="white" stroke="#666666" points="287,-32 183.25,-32 183.25,0 287,0 287,-32"/>
<text xml:space="preserve" text-anchor="start" x="191.25" y="-18.5" font-family="Helvetica,sans-Serif" font-size="10.00">mstd::utils::function</text>
<text xml:space="preserve" text-anchor="middle" x="235.12" y="-6.5" font-family="Helvetica,sans-Serif" font-size="10.00">_core_traits&lt; F, C &gt;</text>
</a>
</g>
</g>
<!-- Node7&#45;&gt;Node6 -->
<g id="edge8_Node000006_Node000007" class="edge">
<title>Node7&#45;&gt;Node6</title>
<g id="a_edge8_Node000006_Node000007"><a xlink:title=" ">
<path fill="none" stroke="orange" stroke-dasharray="5,2" d="M298.95,-16C326.55,-16 358.85,-16 386.33,-16"/>
<polygon fill="orange" stroke="orange" points="298.96,-12.5 288.96,-16 298.96,-19.5 298.96,-12.5"/>
</a>
</g>
<text xml:space="preserve" text-anchor="start" x="308" y="-21.5" font-family="Helvetica,sans-Serif" font-size="10.00" fill="grey">&lt; R(Args...)&gt;</text>
</g>
<!-- Node8&#45;&gt;Node1 -->
<g id="edge13_Node000001_Node000008" class="edge">
<title>Node8&#45;&gt;Node1</title>
<g id="a_edge13_Node000001_Node000008"><a xlink:title=" ">
<path fill="none" stroke="orange" stroke-dasharray="5,2" d="M513.35,-177.45C518.81,-178.01 524.25,-178.54 529.5,-179 714.33,-195.35 932.83,-207.27 1041.77,-212.71"/>
<polygon fill="orange" stroke="orange" points="514,-174 503.68,-176.43 513.26,-180.96 514,-174"/>
</a>
</g>
<text xml:space="preserve" text-anchor="start" x="741.75" y="-208.65" font-family="Helvetica,sans-Serif" font-size="10.00" fill="grey">&lt; R(&amp;&amp;)(Args...) noexcept &gt;</text>
</g>
<!-- Node8&#45;&gt;Node4 -->
<g id="edge12_Node000004_Node000008" class="edge">
<title>Node8&#45;&gt;Node4</title>
<g id="a_edge12_Node000004_Node000008"><a xlink:title=" ">
<path fill="none" stroke="orange" stroke-dasharray="5,2" d="M513.41,-167.06C609.77,-162.57 791.94,-154.1 885.61,-149.74"/>
<polygon fill="orange" stroke="orange" points="513.44,-163.55 503.61,-167.51 513.76,-170.54 513.44,-163.55"/>
</a>
</g>
<text xml:space="preserve" text-anchor="start" x="614.25" y="-167.77" font-family="Helvetica,sans-Serif" font-size="10.00" fill="grey">&lt; R(Args...) noexcept &gt;</text>
</g>
<!-- Node8&#45;&gt;Node5 -->
<g id="edge10_Node000005_Node000008" class="edge">
<title>Node8&#45;&gt;Node5</title>
<g id="a_edge10_Node000005_Node000008"><a xlink:title=" ">
<path fill="none" stroke="orange" stroke-dasharray="5,2" d="M495.44,-148.7C535.58,-129.83 593.34,-102.68 630.01,-85.45"/>
<polygon fill="orange" stroke="orange" points="494.06,-145.48 486.5,-152.9 497.04,-151.82 494.06,-145.48"/>
</a>
</g>
<text xml:space="preserve" text-anchor="start" x="532.5" y="-137.02" font-family="Helvetica,sans-Serif" font-size="10.00" fill="grey">&lt; R(Args...)&gt;</text>
</g>
</g>
</svg>

<g id="navigator" transform="translate(0 0)" fill="#404254">
  <rect fill="#f2f5e9" fill-opacity="0.5" stroke="#606060" stroke-width=".5" x="0" y="0" width="60" height="60"/>
  <use id="zoomplus" xlink:href="#zoomPlus" x="17" y="9" onmousedown="handleZoom(evt,'in')"/>
  <use id="zoomminus" xlink:href="#zoomMin" x="42" y="9" onmousedown="handleZoom(evt,'out')"/>
  <use id="reset" xlink:href="#resetDef" x="30" y="36" onmousedown="handleReset()"/>
   <use id="arrowup" xlink:href="#arrowUp" x="0" y="0" onmousedown="handlePan(0,-1)"/>
  <use id="arrowright" xlink:href="#arrowRight" x="0" y="0" onmousedown="handlePan(1,0)"/>
  <use id="arrowdown" xlink:href="#arrowDown" x="0" y="0" onmousedown="handlePan(0,1)"/>
  <use id="arrowleft" xlink:href="#arrowLeft" x="0" y="0" onmousedown="handlePan(-1,0)"/>
</g>
<svg viewBox="0 0 15 15" width="100%" height="30px" preserveAspectRatio="xMaxYMin meet">
 <g id="arrow_out" transform="scale(0.3 0.3)">
  <a xlink:href="structmstd_1_1function__traits_3_01_r_07_6_6_08_07_args_8_8_8_08_01noexcept_01_4__inherit__graph_org.svg" target="_base">
   <rect id="button" ry="5" rx="5" y="6" x="6" height="38" width="38"
        fill="#f2f5e9" fill-opacity="0.5" stroke="#606060" stroke-width="1.0"/>
   <path id="arrow"
     d="M 11.500037,31.436501 C 11.940474,20.09759 22.043105,11.32322 32.158766,21.979434 L 37.068811,17.246167 C 37.068811,17.246167 37.088388,32 37.088388,32 L 22.160133,31.978069 C 22.160133,31.978069 26.997745,27.140456 26.997745,27.140456 C 18.528582,18.264221 13.291696,25.230495 11.500037,31.436501 z"
     style="fill:#404040;"/>
  </a>
 </g>
</svg>

<style type='text/css'>
<![CDATA[
[data-mouse-over-selected='false'] { opacity: 0.7; }
[data-mouse-over-selected='true']  { opacity: 1.0; }
]]>
</style>
<script type="application/ecmascript"><![CDATA[
document.addEventListener('DOMContentLoaded', (event) => {
  highlightEdges();
  highlightAdjacentNodes();
});
]]></script>
</svg>
