<?xml version="1.0" encoding="UTF-8" standalone="no"?>
<!DOCTYPE svg PUBLIC "-//W3C//DTD SVG 1.1//EN"
 "http://www.w3.org/Graphics/SVG/1.1/DTD/svg11.dtd">
<!-- Generated by graphviz version 14.1.1 (20251213.1925)
 -->
<!-- Title: mstd::function_traits&lt; F, std::void_t&lt; decltype(&amp;F::operator())&gt; &gt; Pages: 1 -->
<svg width="894pt" height="120pt"
 viewBox="0.00 0.00 894.00 120.00" xmlns="http://www.w3.org/2000/svg" xmlns:xlink="http://www.w3.org/1999/xlink">
<g id="graph0" class="graph" transform="scale(1 1) rotate(0) translate(4 115.74)">
<title>mstd::function_traits&lt; F, std::void_t&lt; decltype(&amp;F::operator())&gt; &gt;</title>
<!-- Node1 -->
<g id="Node000001" class="node">
<title>Node1</title>
<g id="a_Node000001"><a xlink:title=" ">
<polygon fill="#999999" stroke="#666666" points="886,-95.52 758.25,-95.52 758.25,-51.52 886,-51.52 886,-95.52"/>
<text xml:space="preserve" text-anchor="start" x="766.25" y="-82.02" font-family="Helvetica,sans-Serif" font-size="10.00">mstd::function_traits</text>
<text xml:space="preserve" text-anchor="start" x="766.25" y="-70.02" font-family="Helvetica,sans-Serif" font-size="10.00">&lt; F, std::void_t&lt; decltype</text>
<text xml:space="preserve" text-anchor="middle" x="822.12" y="-58.02" font-family="Helvetica,sans-Serif" font-size="10.00">(&amp;F::operator())&gt; &gt;</text>
</a>
</g>
</g>
<!-- Node2 -->
<g id="Node000002" class="node">
<title>Node2</title>
<g id="a_Node000002"><a xlink:href="../../d0/d74/structmstd_1_1utils_1_1function__default__type__traits.html" target="_top" xlink:title=" ">
<polygon fill="white" stroke="#666666" points="285.5,-99.52 183.25,-99.52 183.25,-55.52 285.5,-55.52 285.5,-99.52"/>
<text xml:space="preserve" text-anchor="start" x="191.25" y="-86.02" font-family="Helvetica,sans-Serif" font-size="10.00">mstd::utils::function</text>
<text xml:space="preserve" text-anchor="start" x="191.25" y="-74.02" font-family="Helvetica,sans-Serif" font-size="10.00">_default_type_traits</text>
<text xml:space="preserve" text-anchor="middle" x="234.38" y="-62.02" font-family="Helvetica,sans-Serif" font-size="10.00">&lt; false &gt;</text>
</a>
</g>
</g>
<!-- Node2&#45;&gt;Node1 -->
<g id="edge1_Node000001_Node000002" class="edge">
<title>Node2&#45;&gt;Node1</title>
<g id="a_edge1_Node000001_Node000002"><a xlink:title=" ">
<path fill="none" stroke="#63b8ff" d="M296.95,-89.73C299.16,-90.02 301.35,-90.29 303.5,-90.52 488.11,-110.61 536.94,-121.24 721.25,-98.52 733.22,-97.05 745.83,-94.61 757.9,-91.83"/>
<polygon fill="#63b8ff" stroke="#63b8ff" points="297.74,-86.31 287.33,-88.31 296.71,-93.24 297.74,-86.31"/>
</a>
</g>
</g>
<!-- Node4 -->
<g id="Node000004" class="node">
<title>Node4</title>
<g id="a_Node000004"><a xlink:href="../../d7/dcb/structmstd_1_1function__traits.html" target="_top" xlink:title=" ">
<polygon fill="white" stroke="#666666" points="721.25,-89.52 587.5,-89.52 587.5,-57.52 721.25,-57.52 721.25,-89.52"/>
<text xml:space="preserve" text-anchor="start" x="595.5" y="-76.02" font-family="Helvetica,sans-Serif" font-size="10.00">mstd::function_traits</text>
<text xml:space="preserve" text-anchor="middle" x="654.38" y="-64.02" font-family="Helvetica,sans-Serif" font-size="10.00">&lt; decltype(&amp;F::operator())&gt;</text>
</a>
</g>
</g>
<!-- Node2&#45;&gt;Node4 -->
<g id="edge4_Node000004_Node000002" class="edge">
<title>Node2&#45;&gt;Node4</title>
<g id="a_edge4_Node000004_Node000002"><a xlink:title=" ">
<path fill="none" stroke="#63b8ff" d="M296.83,-76.94C374.47,-76.19 507.53,-74.92 587.29,-74.16"/>
<polygon fill="#63b8ff" stroke="#63b8ff" points="297.28,-73.43 287.31,-77.03 297.34,-80.43 297.28,-73.43"/>
</a>
</g>
</g>
<!-- Node5 -->
<g id="Node000005" class="node">
<title>Node5</title>
<g id="a_Node000005"><a xlink:href="../../d7/dcb/structmstd_1_1function__traits.html" target="_top" xlink:title=" ">
<polygon fill="white" stroke="#666666" points="427.75,-49.52 322.5,-49.52 322.5,-17.52 427.75,-17.52 427.75,-49.52"/>
<text xml:space="preserve" text-anchor="start" x="330.5" y="-36.02" font-family="Helvetica,sans-Serif" font-size="10.00">mstd::function_traits</text>
<text xml:space="preserve" text-anchor="middle" x="375.12" y="-24.02" font-family="Helvetica,sans-Serif" font-size="10.00">&lt; F, C &gt;</text>
</a>
</g>
</g>
<!-- Node2&#45;&gt;Node5 -->
<g id="edge6_Node000005_Node000002" class="edge">
<title>Node2&#45;&gt;Node5</title>
<g id="a_edge6_Node000005_Node000002"><a xlink:title=" ">
<path fill="none" stroke="#63b8ff" d="M296.66,-58.09C305.29,-55.35 314.09,-52.56 322.51,-49.89"/>
<polygon fill="#63b8ff" stroke="#63b8ff" points="295.78,-54.7 287.3,-61.06 297.89,-61.37 295.78,-54.7"/>
</a>
</g>
</g>
<!-- Node3 -->
<g id="Node000003" class="node">
<title>Node3</title>
<g id="a_Node000003"><a xlink:href="../../d0/d74/structmstd_1_1utils_1_1function__default__type__traits.html" target="_top" xlink:title=" ">
<polygon fill="white" stroke="#666666" points="102.25,-99.52 0,-99.52 0,-55.52 102.25,-55.52 102.25,-99.52"/>
<text xml:space="preserve" text-anchor="start" x="8" y="-86.02" font-family="Helvetica,sans-Serif" font-size="10.00">mstd::utils::function</text>
<text xml:space="preserve" text-anchor="start" x="8" y="-74.02" font-family="Helvetica,sans-Serif" font-size="10.00">_default_type_traits</text>
<text xml:space="preserve" text-anchor="middle" x="51.12" y="-62.02" font-family="Helvetica,sans-Serif" font-size="10.00">&lt; IsMember &gt;</text>
</a>
</g>
</g>
<!-- Node3&#45;&gt;Node2 -->
<g id="edge2_Node000002_Node000003" class="edge">
<title>Node3&#45;&gt;Node2</title>
<g id="a_edge2_Node000002_Node000003"><a xlink:title=" ">
<path fill="none" stroke="orange" stroke-dasharray="5,2" d="M114.07,-77.52C136.49,-77.52 161.52,-77.52 182.84,-77.52"/>
<polygon fill="orange" stroke="orange" points="114.13,-74.02 104.13,-77.52 114.13,-81.02 114.13,-74.02"/>
</a>
</g>
<text xml:space="preserve" text-anchor="start" x="123.25" y="-83.02" font-family="Helvetica,sans-Serif" font-size="10.00" fill="grey">&lt; false &gt;</text>
</g>
<!-- Node4&#45;&gt;Node1 -->
<g id="edge3_Node000001_Node000004" class="edge">
<title>Node4&#45;&gt;Node1</title>
<g id="a_edge3_Node000001_Node000004"><a xlink:title=" ">
<path fill="none" stroke="#63b8ff" d="M732.73,-73.52C741.12,-73.52 749.6,-73.52 757.8,-73.52"/>
<polygon fill="#63b8ff" stroke="#63b8ff" points="732.87,-70.02 722.87,-73.52 732.87,-77.02 732.87,-70.02"/>
</a>
</g>
</g>
<!-- Node5&#45;&gt;Node1 -->
<g id="edge7_Node000001_Node000005" class="edge">
<title>Node5&#45;&gt;Node1</title>
<g id="a_edge7_Node000001_Node000005"><a xlink:title=" ">
<path fill="none" stroke="orange" stroke-dasharray="5,2" d="M438.93,-18.3C509.08,-3.98 625.37,11.68 721.25,-14.52 747.48,-21.69 773.82,-37.71 792.86,-51.25"/>
<polygon fill="orange" stroke="orange" points="438.63,-14.79 429.56,-20.27 440.07,-21.64 438.63,-14.79"/>
</a>
</g>
<text xml:space="preserve" text-anchor="start" x="598.5" y="-36.02" font-family="Helvetica,sans-Serif" font-size="10.00" fill="grey">&lt; F, std::void_t&lt; decltype</text>
<text xml:space="preserve" text-anchor="start" x="598.5" y="-20.02" font-family="Helvetica,sans-Serif" font-size="10.00" fill="grey">  (&amp;F::operator())&gt; &gt;</text>
</g>
<!-- Node5&#45;&gt;Node4 -->
<g id="edge5_Node000004_Node000005" class="edge">
<title>Node5&#45;&gt;Node4</title>
<g id="a_edge5_Node000004_Node000005"><a xlink:title=" ">
<path fill="none" stroke="orange" stroke-dasharray="5,2" d="M439.31,-33.32C477.35,-34.21 526.56,-37.17 569.5,-45.52 583.36,-48.22 598.1,-52.59 611.28,-57.09"/>
<polygon fill="orange" stroke="orange" points="439.46,-29.82 429.4,-33.13 439.33,-36.82 439.46,-29.82"/>
</a>
</g>
<text xml:space="preserve" text-anchor="start" x="448.75" y="-51.02" font-family="Helvetica,sans-Serif" font-size="10.00" fill="grey">&lt; decltype(&amp;F::operator())&gt;</text>
</g>
</g>
</svg>
