<?xml version="1.0" encoding="UTF-8" standalone="no"?>
<!DOCTYPE svg PUBLIC "-//W3C//DTD SVG 1.1//EN"
 "http://www.w3.org/Graphics/SVG/1.1/DTD/svg11.dtd">
<!-- Generated by graphviz version 14.1.1 (20251213.1925)
 -->
<!-- Title: mstd::utils::if_impl&lt; true, TrueValue, FalseValue &gt; Pages: 1 -->
<svg width="619pt" height="95pt"
 viewBox="0.00 0.00 619.00 95.00" xmlns="http://www.w3.org/2000/svg" xmlns:xlink="http://www.w3.org/1999/xlink">
<g id="graph0" class="graph" transform="scale(1 1) rotate(0) translate(4 90.64)">
<title>mstd::utils::if_impl&lt; true, TrueValue, FalseValue &gt;</title>
<!-- Node1 -->
<g id="Node000001" class="node">
<title>Node1</title>
<g id="a_Node000001"><a xlink:title=" ">
<polygon fill="#999999" stroke="#666666" points="611.25,-69 458,-69 458,-37 611.25,-37 611.25,-69"/>
<text xml:space="preserve" text-anchor="start" x="466" y="-55.5" font-family="Helvetica,sans-Serif" font-size="10.00">mstd::utils::if_impl</text>
<text xml:space="preserve" text-anchor="middle" x="534.62" y="-43.5" font-family="Helvetica,sans-Serif" font-size="10.00">&lt; true, TrueValue, FalseValue &gt;</text>
</a>
</g>
</g>
<!-- Node2 -->
<g id="Node000002" class="node">
<title>Node2</title>
<g id="a_Node000002"><a xlink:title=" ">
<polygon fill="white" stroke="#666666" points="155.5,-67 0,-67 0,-35 155.5,-35 155.5,-67"/>
<text xml:space="preserve" text-anchor="start" x="8" y="-53.5" font-family="Helvetica,sans-Serif" font-size="10.00">static _MSTD_CONSTEXPR17</text>
<text xml:space="preserve" text-anchor="middle" x="77.75" y="-41.5" font-family="Helvetica,sans-Serif" font-size="10.00"> const auto</text>
</a>
</g>
</g>
<!-- Node2&#45;&gt;Node1 -->
<g id="edge1_Node000001_Node000002" class="edge">
<title>Node2&#45;&gt;Node1</title>
<g id="a_edge1_Node000001_Node000002"><a xlink:title=" ">
<path fill="none" stroke="#9a32cd" stroke-dasharray="5,2" d="M167.43,-60.14C240.61,-66.36 347.12,-72.42 440,-66 445.73,-65.6 451.64,-65.07 457.58,-64.45"/>
<polygon fill="#9a32cd" stroke="#9a32cd" points="167.76,-56.65 157.49,-59.27 167.15,-63.62 167.76,-56.65"/>
</a>
</g>
<text xml:space="preserve" text-anchor="start" x="268.12" y="-74.14" font-family="Helvetica,sans-Serif" font-size="10.00" fill="grey">value</text>
</g>
<!-- Node3 -->
<g id="Node000003" class="node">
<title>Node3</title>
<g id="a_Node000003"><a xlink:href="../../dc/d3f/structmstd_1_1utils_1_1if__impl.html" target="_top" xlink:title=" ">
<polygon fill="white" stroke="#666666" points="338.75,-44 220.75,-44 220.75,0 338.75,0 338.75,-44"/>
<text xml:space="preserve" text-anchor="start" x="228.75" y="-30.5" font-family="Helvetica,sans-Serif" font-size="10.00">mstd::utils::if_impl</text>
<text xml:space="preserve" text-anchor="start" x="228.75" y="-18.5" font-family="Helvetica,sans-Serif" font-size="10.00">&lt; Condition, TrueValue,</text>
<text xml:space="preserve" text-anchor="middle" x="279.75" y="-6.5" font-family="Helvetica,sans-Serif" font-size="10.00"> FalseValue &gt;</text>
</a>
</g>
</g>
<!-- Node2&#45;&gt;Node3 -->
<g id="edge3_Node000003_Node000002" class="edge">
<title>Node2&#45;&gt;Node3</title>
<g id="a_edge3_Node000003_Node000002"><a xlink:title=" ">
<path fill="none" stroke="#9a32cd" stroke-dasharray="5,2" d="M166.96,-38.21C185.05,-35.59 203.67,-32.89 220.39,-30.46"/>
<polygon fill="#9a32cd" stroke="#9a32cd" points="166.68,-34.71 157.29,-39.61 167.69,-41.64 166.68,-34.71"/>
</a>
</g>
<text xml:space="preserve" text-anchor="start" x="176.5" y="-42" font-family="Helvetica,sans-Serif" font-size="10.00" fill="grey">value</text>
</g>
<!-- Node3&#45;&gt;Node1 -->
<g id="edge2_Node000001_Node000003" class="edge">
<title>Node3&#45;&gt;Node1</title>
<g id="a_edge2_Node000001_Node000003"><a xlink:title=" ">
<path fill="none" stroke="orange" stroke-dasharray="5,2" d="M350.49,-23.99C378.42,-25.41 410.83,-27.84 440,-32 448.49,-33.21 457.36,-34.79 466.1,-36.53"/>
<polygon fill="orange" stroke="orange" points="350.88,-20.51 340.73,-23.53 350.55,-27.5 350.88,-20.51"/>
</a>
</g>
<text xml:space="preserve" text-anchor="start" x="359.75" y="-53.5" font-family="Helvetica,sans-Serif" font-size="10.00" fill="grey">&lt; true, TrueValue,</text>
<text xml:space="preserve" text-anchor="start" x="359.75" y="-37.5" font-family="Helvetica,sans-Serif" font-size="10.00" fill="grey">   FalseValue &gt;</text>
</g>
</g>
</svg>
