<?xml version="1.0" encoding="UTF-8" standalone="no"?>
<!DOCTYPE svg PUBLIC "-//W3C//DTD SVG 1.1//EN"
 "http://www.w3.org/Graphics/SVG/1.1/DTD/svg11.dtd">
<!-- Generated by graphviz version 14.1.1 (20251213.1925)
 -->
<!-- Title: mstd::function_traits&lt; R(C::*)(Args...)&gt; Pages: 1 -->
<svg width="1150pt" height="667pt"
 viewBox="0.00 0.00 1150.00 667.00" xmlns="http://www.w3.org/2000/svg" xmlns:xlink="http://www.w3.org/1999/xlink">
<g id="graph0" class="graph" transform="scale(1 1) rotate(0) translate(4 663.16)">
<title>mstd::function_traits&lt; R(C::*)(Args...)&gt;</title>
<!-- Node1 -->
<g id="Node000001" class="node">
<title>Node1</title>
<g id="a_Node000001"><a xlink:title=" ">
<polygon fill="#999999" stroke="#666666" points="1142,-207.16 1036.75,-207.16 1036.75,-175.16 1142,-175.16 1142,-207.16"/>
<text xml:space="preserve" text-anchor="start" x="1044.75" y="-193.66" font-family="Helvetica,sans-Serif" font-size="10.00">mstd::function_traits</text>
<text xml:space="preserve" text-anchor="middle" x="1089.38" y="-181.66" font-family="Helvetica,sans-Serif" font-size="10.00">&lt; R(C::*)(Args...)&gt;</text>
</a>
</g>
</g>
<!-- Node2 -->
<g id="Node000002" class="node">
<title>Node2</title>
<g id="a_Node000002"><a xlink:href="../../d0/d74/structmstd_1_1utils_1_1function__default__type__traits.html" target="_top" xlink:title=" ">
<polygon fill="white" stroke="#666666" points="588.75,-177.16 486.5,-177.16 486.5,-133.16 588.75,-133.16 588.75,-177.16"/>
<text xml:space="preserve" text-anchor="start" x="494.5" y="-163.66" font-family="Helvetica,sans-Serif" font-size="10.00">mstd::utils::function</text>
<text xml:space="preserve" text-anchor="start" x="494.5" y="-151.66" font-family="Helvetica,sans-Serif" font-size="10.00">_default_type_traits</text>
<text xml:space="preserve" text-anchor="middle" x="537.62" y="-139.66" font-family="Helvetica,sans-Serif" font-size="10.00">&lt; false &gt;</text>
</a>
</g>
</g>
<!-- Node2&#45;&gt;Node1 -->
<g id="edge1_Node000001_Node000002" class="edge">
<title>Node2&#45;&gt;Node1</title>
<g id="a_edge1_Node000001_Node000002"><a xlink:title=" ">
<path fill="none" stroke="#63b8ff" d="M600.44,-153.27C606.71,-153.18 612.98,-153.14 619,-153.16 689.78,-153.38 707.61,-149.74 778.25,-154.16 869.44,-159.87 974.94,-174.09 1036.41,-183.15"/>
<polygon fill="#63b8ff" stroke="#63b8ff" points="600.66,-149.77 590.73,-153.44 600.79,-156.77 600.66,-149.77"/>
</a>
</g>
</g>
<!-- Node5 -->
<g id="Node000005" class="node">
<title>Node5</title>
<g id="a_Node000005"><a xlink:href="../../dd/db6/structmstd_1_1function__traits_3_01_r_07_args_8_8_8_08_00_01_c_01_4.html" target="_top" xlink:title=" ">
<polygon fill="white" stroke="#666666" points="999.75,-259.16 894.5,-259.16 894.5,-227.16 999.75,-227.16 999.75,-259.16"/>
<text xml:space="preserve" text-anchor="start" x="902.5" y="-245.66" font-family="Helvetica,sans-Serif" font-size="10.00">mstd::function_traits</text>
<text xml:space="preserve" text-anchor="middle" x="947.12" y="-233.66" font-family="Helvetica,sans-Serif" font-size="10.00">&lt; R(Args...), C &gt;</text>
</a>
</g>
</g>
<!-- Node2&#45;&gt;Node5 -->
<g id="edge6_Node000005_Node000002" class="edge">
<title>Node2&#45;&gt;Node5</title>
<g id="a_edge6_Node000005_Node000002"><a xlink:title=" ">
<path fill="none" stroke="#63b8ff" d="M600.13,-156.28C648.96,-158.25 718.69,-163.47 778.25,-177.16 823.73,-187.61 833.12,-196.96 876.5,-214.16 886.48,-218.12 897.21,-222.51 907.19,-226.66"/>
<polygon fill="#63b8ff" stroke="#63b8ff" points="600.44,-152.79 590.32,-155.92 600.18,-159.78 600.44,-152.79"/>
</a>
</g>
</g>
<!-- Node10 -->
<g id="Node000010" class="node">
<title>Node10</title>
<g id="a_Node000010"><a xlink:href="../../d7/dcb/structmstd_1_1function__traits.html" target="_top" xlink:title=" ">
<polygon fill="white" stroke="#666666" points="760.25,-218.16 655,-218.16 655,-186.16 760.25,-186.16 760.25,-218.16"/>
<text xml:space="preserve" text-anchor="start" x="663" y="-204.66" font-family="Helvetica,sans-Serif" font-size="10.00">mstd::function_traits</text>
<text xml:space="preserve" text-anchor="middle" x="707.62" y="-192.66" font-family="Helvetica,sans-Serif" font-size="10.00">&lt; F, C &gt;</text>
</a>
</g>
</g>
<!-- Node2&#45;&gt;Node10 -->
<g id="edge15_Node000010_Node000002" class="edge">
<title>Node2&#45;&gt;Node10</title>
<g id="a_edge15_Node000010_Node000002"><a xlink:title=" ">
<path fill="none" stroke="#63b8ff" d="M599.95,-172.32C617.85,-177.32 637.24,-182.75 654.51,-187.58"/>
<polygon fill="#63b8ff" stroke="#63b8ff" points="601.06,-168.99 590.49,-169.67 599.18,-175.73 601.06,-168.99"/>
</a>
</g>
</g>
<!-- Node3 -->
<g id="Node000003" class="node">
<title>Node3</title>
<g id="a_Node000003"><a xlink:title=" ">
<polygon fill="white" stroke="#666666" points="155.5,-237.16 0,-237.16 0,-205.16 155.5,-205.16 155.5,-237.16"/>
<text xml:space="preserve" text-anchor="start" x="8" y="-223.66" font-family="Helvetica,sans-Serif" font-size="10.00">static _MSTD_CONSTEXPR17</text>
<text xml:space="preserve" text-anchor="middle" x="77.75" y="-211.66" font-family="Helvetica,sans-Serif" font-size="10.00"> const bool</text>
</a>
</g>
</g>
<!-- Node3&#45;&gt;Node2 -->
<g id="edge2_Node000002_Node000003" class="edge">
<title>Node3&#45;&gt;Node2</title>
<g id="a_edge2_Node000002_Node000003"><a xlink:title=" ">
<path fill="none" stroke="#9a32cd" stroke-dasharray="5,2" d="M93.06,-195.06C120.49,-148.1 185.49,-50.79 271.75,-13.16 314.01,5.28 332.36,3.14 375.5,-13.16 439.16,-37.21 493.94,-99.13 520.15,-132.71"/>
<polygon fill="#9a32cd" stroke="#9a32cd" points="90.16,-193.06 88.24,-203.48 96.24,-196.54 90.16,-193.06"/>
</a>
</g>
<text xml:space="preserve" text-anchor="start" x="286.5" y="-178.66" font-family="Helvetica,sans-Serif" font-size="10.00" fill="grey">is_const</text>
<text xml:space="preserve" text-anchor="start" x="286.5" y="-162.66" font-family="Helvetica,sans-Serif" font-size="10.00" fill="grey">is_free</text>
<text xml:space="preserve" text-anchor="start" x="286.5" y="-146.66" font-family="Helvetica,sans-Serif" font-size="10.00" fill="grey">is_functor</text>
<text xml:space="preserve" text-anchor="start" x="286.5" y="-130.66" font-family="Helvetica,sans-Serif" font-size="10.00" fill="grey">is_member</text>
<text xml:space="preserve" text-anchor="start" x="286.5" y="-114.66" font-family="Helvetica,sans-Serif" font-size="10.00" fill="grey">is_moved</text>
<text xml:space="preserve" text-anchor="start" x="286.5" y="-98.66" font-family="Helvetica,sans-Serif" font-size="10.00" fill="grey">is_noexcept</text>
<text xml:space="preserve" text-anchor="start" x="286.5" y="-82.66" font-family="Helvetica,sans-Serif" font-size="10.00" fill="grey">is_parent_moved</text>
<text xml:space="preserve" text-anchor="start" x="286.5" y="-66.66" font-family="Helvetica,sans-Serif" font-size="10.00" fill="grey">is_parent_ref</text>
<text xml:space="preserve" text-anchor="start" x="286.5" y="-50.66" font-family="Helvetica,sans-Serif" font-size="10.00" fill="grey">is_ptr</text>
<text xml:space="preserve" text-anchor="start" x="286.5" y="-34.66" font-family="Helvetica,sans-Serif" font-size="10.00" fill="grey">is_ref</text>
<text xml:space="preserve" text-anchor="start" x="286.5" y="-18.66" font-family="Helvetica,sans-Serif" font-size="10.00" fill="grey"> &#160;...</text>
</g>
<!-- Node4 -->
<g id="Node000004" class="node">
<title>Node4</title>
<g id="a_Node000004"><a xlink:href="../../d0/d74/structmstd_1_1utils_1_1function__default__type__traits.html" target="_top" xlink:title=" ">
<polygon fill="white" stroke="#666666" points="374.75,-277.16 272.5,-277.16 272.5,-233.16 374.75,-233.16 374.75,-277.16"/>
<text xml:space="preserve" text-anchor="start" x="280.5" y="-263.66" font-family="Helvetica,sans-Serif" font-size="10.00">mstd::utils::function</text>
<text xml:space="preserve" text-anchor="start" x="280.5" y="-251.66" font-family="Helvetica,sans-Serif" font-size="10.00">_default_type_traits</text>
<text xml:space="preserve" text-anchor="middle" x="323.62" y="-239.66" font-family="Helvetica,sans-Serif" font-size="10.00">&lt; IsMember &gt;</text>
</a>
</g>
</g>
<!-- Node3&#45;&gt;Node4 -->
<g id="edge4_Node000004_Node000003" class="edge">
<title>Node3&#45;&gt;Node4</title>
<g id="a_edge4_Node000004_Node000003"><a xlink:title=" ">
<path fill="none" stroke="#9a32cd" stroke-dasharray="5,2" d="M167.02,-228.06C194.87,-230.82 225.68,-234.48 253.75,-239.16 259.8,-240.17 266.12,-241.4 272.37,-242.71"/>
<polygon fill="#9a32cd" stroke="#9a32cd" points="167.49,-224.59 157.2,-227.11 166.82,-231.55 167.49,-224.59"/>
</a>
</g>
<text xml:space="preserve" text-anchor="start" x="176.5" y="-404.66" font-family="Helvetica,sans-Serif" font-size="10.00" fill="grey">is_const</text>
<text xml:space="preserve" text-anchor="start" x="176.5" y="-388.66" font-family="Helvetica,sans-Serif" font-size="10.00" fill="grey">is_free</text>
<text xml:space="preserve" text-anchor="start" x="176.5" y="-372.66" font-family="Helvetica,sans-Serif" font-size="10.00" fill="grey">is_functor</text>
<text xml:space="preserve" text-anchor="start" x="176.5" y="-356.66" font-family="Helvetica,sans-Serif" font-size="10.00" fill="grey">is_member</text>
<text xml:space="preserve" text-anchor="start" x="176.5" y="-340.66" font-family="Helvetica,sans-Serif" font-size="10.00" fill="grey">is_moved</text>
<text xml:space="preserve" text-anchor="start" x="176.5" y="-324.66" font-family="Helvetica,sans-Serif" font-size="10.00" fill="grey">is_noexcept</text>
<text xml:space="preserve" text-anchor="start" x="176.5" y="-308.66" font-family="Helvetica,sans-Serif" font-size="10.00" fill="grey">is_parent_moved</text>
<text xml:space="preserve" text-anchor="start" x="176.5" y="-292.66" font-family="Helvetica,sans-Serif" font-size="10.00" fill="grey">is_parent_ref</text>
<text xml:space="preserve" text-anchor="start" x="176.5" y="-276.66" font-family="Helvetica,sans-Serif" font-size="10.00" fill="grey">is_ptr</text>
<text xml:space="preserve" text-anchor="start" x="176.5" y="-260.66" font-family="Helvetica,sans-Serif" font-size="10.00" fill="grey">is_ref</text>
<text xml:space="preserve" text-anchor="start" x="176.5" y="-244.66" font-family="Helvetica,sans-Serif" font-size="10.00" fill="grey"> &#160;...</text>
</g>
<!-- Node9 -->
<g id="Node000009" class="node">
<title>Node9</title>
<g id="a_Node000009"><a xlink:href="../../d0/d74/structmstd_1_1utils_1_1function__default__type__traits.html" target="_top" xlink:title=" ">
<polygon fill="white" stroke="#666666" points="588.75,-309.16 486.5,-309.16 486.5,-265.16 588.75,-265.16 588.75,-309.16"/>
<text xml:space="preserve" text-anchor="start" x="494.5" y="-295.66" font-family="Helvetica,sans-Serif" font-size="10.00">mstd::utils::function</text>
<text xml:space="preserve" text-anchor="start" x="494.5" y="-283.66" font-family="Helvetica,sans-Serif" font-size="10.00">_default_type_traits</text>
<text xml:space="preserve" text-anchor="middle" x="537.62" y="-271.66" font-family="Helvetica,sans-Serif" font-size="10.00">&lt; true &gt;</text>
</a>
</g>
</g>
<!-- Node3&#45;&gt;Node9 -->
<g id="edge12_Node000009_Node000003" class="edge">
<title>Node3&#45;&gt;Node9</title>
<g id="a_edge12_Node000009_Node000003"><a xlink:title=" ">
<path fill="none" stroke="#9a32cd" stroke-dasharray="5,2" d="M82.78,-248.76C90.93,-293.31 113.96,-379.81 173.5,-417.16 289.78,-490.1 452.69,-362.86 512.98,-309.27"/>
<polygon fill="#9a32cd" stroke="#9a32cd" points="86.27,-248.41 81.15,-239.13 79.37,-249.58 86.27,-248.41"/>
</a>
</g>
<text xml:space="preserve" text-anchor="start" x="286.5" y="-603.63" font-family="Helvetica,sans-Serif" font-size="10.00" fill="grey">is_const</text>
<text xml:space="preserve" text-anchor="start" x="286.5" y="-587.63" font-family="Helvetica,sans-Serif" font-size="10.00" fill="grey">is_free</text>
<text xml:space="preserve" text-anchor="start" x="286.5" y="-571.63" font-family="Helvetica,sans-Serif" font-size="10.00" fill="grey">is_functor</text>
<text xml:space="preserve" text-anchor="start" x="286.5" y="-555.63" font-family="Helvetica,sans-Serif" font-size="10.00" fill="grey">is_member</text>
<text xml:space="preserve" text-anchor="start" x="286.5" y="-539.63" font-family="Helvetica,sans-Serif" font-size="10.00" fill="grey">is_moved</text>
<text xml:space="preserve" text-anchor="start" x="286.5" y="-523.63" font-family="Helvetica,sans-Serif" font-size="10.00" fill="grey">is_noexcept</text>
<text xml:space="preserve" text-anchor="start" x="286.5" y="-507.63" font-family="Helvetica,sans-Serif" font-size="10.00" fill="grey">is_parent_moved</text>
<text xml:space="preserve" text-anchor="start" x="286.5" y="-491.63" font-family="Helvetica,sans-Serif" font-size="10.00" fill="grey">is_parent_ref</text>
<text xml:space="preserve" text-anchor="start" x="286.5" y="-475.63" font-family="Helvetica,sans-Serif" font-size="10.00" fill="grey">is_ptr</text>
<text xml:space="preserve" text-anchor="start" x="286.5" y="-459.63" font-family="Helvetica,sans-Serif" font-size="10.00" fill="grey">is_ref</text>
<text xml:space="preserve" text-anchor="start" x="286.5" y="-443.63" font-family="Helvetica,sans-Serif" font-size="10.00" fill="grey"> &#160;...</text>
</g>
<!-- Node3&#45;&gt;Node10 -->
<g id="edge16_Node000010_Node000003" class="edge">
<title>Node3&#45;&gt;Node10</title>
<g id="a_edge16_Node000010_Node000003"><a xlink:title=" ">
<path fill="none" stroke="#9a32cd" stroke-dasharray="5,2" d="M167.07,-214.4C230.13,-209.92 316.97,-204.47 393.5,-202.16 485.33,-199.39 592.38,-200.28 654.53,-201.2"/>
<polygon fill="#9a32cd" stroke="#9a32cd" points="167.21,-210.88 157.49,-215.09 167.71,-217.86 167.21,-210.88"/>
</a>
</g>
<text xml:space="preserve" text-anchor="start" x="410.75" y="-207.66" font-family="Helvetica,sans-Serif" font-size="10.00" fill="grey">is_free</text>
</g>
<!-- Node4&#45;&gt;Node2 -->
<g id="edge3_Node000002_Node000004" class="edge">
<title>Node4&#45;&gt;Node2</title>
<g id="a_edge3_Node000002_Node000004"><a xlink:title=" ">
<path fill="none" stroke="orange" stroke-dasharray="5,2" d="M386.1,-243.75C414.44,-237.89 444.56,-230.64 457.25,-224.16 480.01,-212.52 501.62,-192.98 516.52,-177.65"/>
<polygon fill="orange" stroke="orange" points="385.54,-240.29 376.43,-245.7 386.93,-247.15 385.54,-240.29"/>
</a>
</g>
<text xml:space="preserve" text-anchor="start" x="405.88" y="-247.31" font-family="Helvetica,sans-Serif" font-size="10.00" fill="grey">&lt; false &gt;</text>
</g>
<!-- Node4&#45;&gt;Node9 -->
<g id="edge13_Node000009_Node000004" class="edge">
<title>Node4&#45;&gt;Node9</title>
<g id="a_edge13_Node000009_Node000004"><a xlink:title=" ">
<path fill="none" stroke="orange" stroke-dasharray="5,2" d="M386.49,-264.5C418.17,-269.28 456.25,-275.03 486.14,-279.54"/>
<polygon fill="orange" stroke="orange" points="387.04,-261.04 376.63,-263.01 386,-267.96 387.04,-261.04"/>
</a>
</g>
<text xml:space="preserve" text-anchor="start" x="408.12" y="-280.47" font-family="Helvetica,sans-Serif" font-size="10.00" fill="grey">&lt; true &gt;</text>
</g>
<!-- Node5&#45;&gt;Node1 -->
<g id="edge5_Node000001_Node000005" class="edge">
<title>Node5&#45;&gt;Node1</title>
<g id="a_edge5_Node000001_Node000005"><a xlink:title=" ">
<path fill="none" stroke="#63b8ff" d="M1003.22,-222.73C1016.84,-217.68 1031.26,-212.33 1044.29,-207.51"/>
<polygon fill="#63b8ff" stroke="#63b8ff" points="1002.08,-219.42 993.92,-226.18 1004.51,-225.99 1002.08,-219.42"/>
</a>
</g>
</g>
<!-- Node6 -->
<g id="Node000006" class="node">
<title>Node6</title>
<g id="a_Node000006"><a xlink:href="../../d1/d4f/structmstd_1_1utils_1_1function__core__traits_3_01_r_07_args_8_8_8_08_00_01_c_01_4.html" target="_top" xlink:title=" ">
<polygon fill="white" stroke="#666666" points="778.25,-607.16 637,-607.16 637,-575.16 778.25,-575.16 778.25,-607.16"/>
<text xml:space="preserve" text-anchor="start" x="645" y="-593.66" font-family="Helvetica,sans-Serif" font-size="10.00">mstd::utils::function</text>
<text xml:space="preserve" text-anchor="middle" x="707.62" y="-581.66" font-family="Helvetica,sans-Serif" font-size="10.00">_core_traits&lt; R(Args...), C &gt;</text>
</a>
</g>
</g>
<!-- Node6&#45;&gt;Node5 -->
<g id="edge7_Node000005_Node000006" class="edge">
<title>Node6&#45;&gt;Node5</title>
<g id="a_edge7_Node000005_Node000006"><a xlink:title=" ">
<path fill="none" stroke="#63b8ff" d="M725.98,-565.73C772.15,-498.08 897.03,-315.1 935.01,-259.44"/>
<polygon fill="#63b8ff" stroke="#63b8ff" points="723.36,-563.36 720.61,-573.59 729.14,-567.3 723.36,-563.36"/>
</a>
</g>
</g>
<!-- Node7 -->
<g id="Node000007" class="node">
<title>Node7</title>
<g id="a_Node000007"><a xlink:href="../../df/db9/structmstd_1_1utils_1_1function__core__traits.html" target="_top" xlink:title=" ">
<polygon fill="white" stroke="#666666" points="600,-607.16 475.25,-607.16 475.25,-575.16 600,-575.16 600,-607.16"/>
<text xml:space="preserve" text-anchor="start" x="483.25" y="-593.66" font-family="Helvetica,sans-Serif" font-size="10.00">mstd::utils::function</text>
<text xml:space="preserve" text-anchor="middle" x="537.62" y="-581.66" font-family="Helvetica,sans-Serif" font-size="10.00">_core_traits&lt; R(Args...)&gt;</text>
</a>
</g>
</g>
<!-- Node7&#45;&gt;Node6 -->
<g id="edge8_Node000006_Node000007" class="edge">
<title>Node7&#45;&gt;Node6</title>
<g id="a_edge8_Node000006_Node000007"><a xlink:title=" ">
<path fill="none" stroke="#63b8ff" d="M611.73,-591.16C619.95,-591.16 628.32,-591.16 636.51,-591.16"/>
<polygon fill="#63b8ff" stroke="#63b8ff" points="611.74,-587.66 601.74,-591.16 611.74,-594.66 611.74,-587.66"/>
</a>
</g>
</g>
<!-- Node8 -->
<g id="Node000008" class="node">
<title>Node8</title>
<g id="a_Node000008"><a xlink:href="../../df/db9/structmstd_1_1utils_1_1function__core__traits.html" target="_top" xlink:title=" ">
<polygon fill="white" stroke="#666666" points="375.5,-659.16 271.75,-659.16 271.75,-627.16 375.5,-627.16 375.5,-659.16"/>
<text xml:space="preserve" text-anchor="start" x="279.75" y="-645.66" font-family="Helvetica,sans-Serif" font-size="10.00">mstd::utils::function</text>
<text xml:space="preserve" text-anchor="middle" x="323.62" y="-633.66" font-family="Helvetica,sans-Serif" font-size="10.00">_core_traits&lt; F, C &gt;</text>
</a>
</g>
</g>
<!-- Node8&#45;&gt;Node6 -->
<g id="edge10_Node000006_Node000008" class="edge">
<title>Node8&#45;&gt;Node6</title>
<g id="a_edge10_Node000006_Node000008"><a xlink:title=" ">
<path fill="none" stroke="orange" stroke-dasharray="5,2" d="M387.06,-639.41C443.07,-635.48 527.4,-628.18 600,-616.16 613.88,-613.86 628.65,-610.8 642.62,-607.62"/>
<polygon fill="orange" stroke="orange" points="387.14,-635.89 377.41,-640.07 387.62,-642.88 387.14,-635.89"/>
</a>
</g>
<text xml:space="preserve" text-anchor="start" x="500.5" y="-637.38" font-family="Helvetica,sans-Serif" font-size="10.00" fill="grey">&lt; R(Args...), C &gt;</text>
</g>
<!-- Node8&#45;&gt;Node7 -->
<g id="edge9_Node000007_Node000008" class="edge">
<title>Node8&#45;&gt;Node7</title>
<g id="a_edge9_Node000007_Node000008"><a xlink:title=" ">
<path fill="none" stroke="orange" stroke-dasharray="5,2" d="M365.1,-621.95C374.24,-617.84 384.05,-613.95 393.5,-611.16 419.61,-603.46 449.3,-598.69 474.84,-595.76"/>
<polygon fill="orange" stroke="orange" points="363.66,-618.75 356.09,-626.17 366.63,-625.09 363.66,-618.75"/>
</a>
</g>
<text xml:space="preserve" text-anchor="start" x="396.5" y="-616.66" font-family="Helvetica,sans-Serif" font-size="10.00" fill="grey">&lt; R(Args...)&gt;</text>
</g>
<!-- Node9&#45;&gt;Node5 -->
<g id="edge11_Node000005_Node000009" class="edge">
<title>Node9&#45;&gt;Node5</title>
<g id="a_edge11_Node000005_Node000009"><a xlink:title=" ">
<path fill="none" stroke="#63b8ff" d="M600.39,-281.74C668.19,-275.6 780.24,-264.91 876.5,-253.16 882.2,-252.46 888.15,-251.69 894.07,-250.88"/>
<polygon fill="#63b8ff" stroke="#63b8ff" points="600.23,-278.24 590.58,-282.62 600.85,-285.21 600.23,-278.24"/>
</a>
</g>
</g>
<!-- Node10&#45;&gt;Node1 -->
<g id="edge17_Node000001_Node000010" class="edge">
<title>Node10&#45;&gt;Node1</title>
<g id="a_edge17_Node000001_Node000010"><a xlink:title=" ">
<path fill="none" stroke="orange" stroke-dasharray="5,2" d="M772.11,-200.32C846.28,-198.17 967.56,-194.66 1036.39,-192.67"/>
<polygon fill="orange" stroke="orange" points="772.04,-196.82 762.14,-200.61 772.24,-203.82 772.04,-196.82"/>
</a>
</g>
<text xml:space="preserve" text-anchor="start" x="906.62" y="-202.25" font-family="Helvetica,sans-Serif" font-size="10.00" fill="grey">&lt; R(C::*)(Args...)&gt;</text>
</g>
<!-- Node10&#45;&gt;Node5 -->
<g id="edge14_Node000005_Node000010" class="edge">
<title>Node10&#45;&gt;Node5</title>
<g id="a_edge14_Node000005_Node000010"><a xlink:title=" ">
<path fill="none" stroke="orange" stroke-dasharray="5,2" d="M771.75,-213.06C809.97,-219.65 858.11,-227.97 894.13,-234.18"/>
<polygon fill="orange" stroke="orange" points="772.69,-209.67 762.24,-211.41 771.5,-216.56 772.69,-209.67"/>
</a>
</g>
<text xml:space="preserve" text-anchor="start" x="799.25" y="-236.54" font-family="Helvetica,sans-Serif" font-size="10.00" fill="grey">&lt; R(Args...), C &gt;</text>
</g>
</g>
</svg>
