<?xml version="1.0" encoding="UTF-8" standalone="no"?>
<!DOCTYPE svg PUBLIC "-//W3C//DTD SVG 1.1//EN"
 "http://www.w3.org/Graphics/SVG/1.1/DTD/svg11.dtd">
<!-- Generated by graphviz version 14.1.1 (20251213.1925)
 -->
<!-- Title: mstd::function_traits&lt; std::function&lt; R(Args...)&gt; &gt; Pages: 1 -->
<svg width="1187pt" height="355pt"
 viewBox="0.00 0.00 1187.00 355.00" xmlns="http://www.w3.org/2000/svg" xmlns:xlink="http://www.w3.org/1999/xlink">
<g id="graph0" class="graph" transform="scale(1 1) rotate(0) translate(4 350.92)">
<title>mstd::function_traits&lt; std::function&lt; R(Args...)&gt; &gt;</title>
<!-- Node1 -->
<g id="Node000001" class="node">
<title>Node1</title>
<g id="a_Node000001"><a xlink:title=" ">
<polygon fill="#999999" stroke="#666666" points="1179.25,-202.92 1033.5,-202.92 1033.5,-170.92 1179.25,-170.92 1179.25,-202.92"/>
<text xml:space="preserve" text-anchor="start" x="1041.5" y="-189.42" font-family="Helvetica,sans-Serif" font-size="10.00">mstd::function_traits</text>
<text xml:space="preserve" text-anchor="middle" x="1106.38" y="-177.42" font-family="Helvetica,sans-Serif" font-size="10.00">&lt; std::function&lt; R(Args...)&gt; &gt;</text>
</a>
</g>
</g>
<!-- Node2 -->
<g id="Node000002" class="node">
<title>Node2</title>
<g id="a_Node000002"><a xlink:href="../../d0/d74/structmstd_1_1utils_1_1function__default__type__traits.html" target="_top" xlink:title=" ">
<polygon fill="white" stroke="#666666" points="558,-174.92 455.75,-174.92 455.75,-130.92 558,-130.92 558,-174.92"/>
<text xml:space="preserve" text-anchor="start" x="463.75" y="-161.42" font-family="Helvetica,sans-Serif" font-size="10.00">mstd::utils::function</text>
<text xml:space="preserve" text-anchor="start" x="463.75" y="-149.42" font-family="Helvetica,sans-Serif" font-size="10.00">_default_type_traits</text>
<text xml:space="preserve" text-anchor="middle" x="506.88" y="-137.42" font-family="Helvetica,sans-Serif" font-size="10.00">&lt; false &gt;</text>
</a>
</g>
</g>
<!-- Node2&#45;&gt;Node1 -->
<g id="edge1_Node000001_Node000002" class="edge">
<title>Node2&#45;&gt;Node1</title>
<g id="a_edge1_Node000001_Node000002"><a xlink:title=" ">
<path fill="none" stroke="#63b8ff" d="M569.26,-174.43C571.77,-174.99 574.28,-175.49 576.75,-175.92 737.97,-203.85 930.97,-198.22 1033.33,-192.22"/>
<polygon fill="#63b8ff" stroke="#63b8ff" points="570.23,-171.07 559.68,-172.02 568.52,-177.85 570.23,-171.07"/>
</a>
</g>
</g>
<!-- Node5 -->
<g id="Node000005" class="node">
<title>Node5</title>
<g id="a_Node000005"><a xlink:href="../../d0/dfd/structmstd_1_1function__traits_3_01_r_07_args_8_8_8_08_4.html" target="_top" xlink:title=" ">
<polygon fill="white" stroke="#666666" points="996.5,-168.92 891.25,-168.92 891.25,-136.92 996.5,-136.92 996.5,-168.92"/>
<text xml:space="preserve" text-anchor="start" x="899.25" y="-155.42" font-family="Helvetica,sans-Serif" font-size="10.00">mstd::function_traits</text>
<text xml:space="preserve" text-anchor="middle" x="943.88" y="-143.42" font-family="Helvetica,sans-Serif" font-size="10.00">&lt; R(Args...)&gt;</text>
</a>
</g>
</g>
<!-- Node2&#45;&gt;Node5 -->
<g id="edge6_Node000005_Node000002" class="edge">
<title>Node2&#45;&gt;Node5</title>
<g id="a_edge6_Node000005_Node000002"><a xlink:title=" ">
<path fill="none" stroke="#63b8ff" d="M569.63,-148.04C655.77,-145.45 810.47,-145.55 890.98,-148.36"/>
<polygon fill="#63b8ff" stroke="#63b8ff" points="569.59,-144.54 559.71,-148.36 569.82,-151.53 569.59,-144.54"/>
</a>
</g>
</g>
<!-- Node2&#45;&gt;Node5 -->
<g id="edge9_Node000005_Node000002" class="edge">
<title>Node2&#45;&gt;Node5</title>
<g id="a_edge9_Node000005_Node000002"><a xlink:title=" ">
<path fill="none" stroke="#63b8ff" d="M569.63,-157.8C655.77,-160.39 810.47,-160.29 890.98,-157.48"/>
<polygon fill="#63b8ff" stroke="#63b8ff" points="569.82,-154.31 559.71,-157.48 569.59,-161.3 569.82,-154.31"/>
</a>
</g>
</g>
<!-- Node8 -->
<g id="Node000008" class="node">
<title>Node8</title>
<g id="a_Node000008"><a xlink:href="../../d7/dcb/structmstd_1_1function__traits.html" target="_top" xlink:title=" ">
<polygon fill="white" stroke="#666666" points="781.75,-65.92 676.5,-65.92 676.5,-33.92 781.75,-33.92 781.75,-65.92"/>
<text xml:space="preserve" text-anchor="start" x="684.5" y="-52.42" font-family="Helvetica,sans-Serif" font-size="10.00">mstd::function_traits</text>
<text xml:space="preserve" text-anchor="middle" x="729.12" y="-40.42" font-family="Helvetica,sans-Serif" font-size="10.00">&lt; F, C &gt;</text>
</a>
</g>
</g>
<!-- Node2&#45;&gt;Node8 -->
<g id="edge11_Node000008_Node000002" class="edge">
<title>Node2&#45;&gt;Node8</title>
<g id="a_edge11_Node000008_Node000002"><a xlink:title=" ">
<path fill="none" stroke="#63b8ff" d="M569.03,-134.23C603.92,-123.19 642.03,-110.35 648.75,-104.92 660.85,-95.15 654.94,-85.04 666.75,-74.92 670.51,-71.7 674.73,-68.86 679.16,-66.35"/>
<polygon fill="#63b8ff" stroke="#63b8ff" points="568.28,-130.8 559.79,-137.13 570.38,-137.48 568.28,-130.8"/>
</a>
</g>
</g>
<!-- Node3 -->
<g id="Node000003" class="node">
<title>Node3</title>
<g id="a_Node000003"><a xlink:title=" ">
<polygon fill="white" stroke="#666666" points="155.5,-81.92 0,-81.92 0,-49.92 155.5,-49.92 155.5,-81.92"/>
<text xml:space="preserve" text-anchor="start" x="8" y="-68.42" font-family="Helvetica,sans-Serif" font-size="10.00">static _MSTD_CONSTEXPR17</text>
<text xml:space="preserve" text-anchor="middle" x="77.75" y="-56.42" font-family="Helvetica,sans-Serif" font-size="10.00"> const bool</text>
</a>
</g>
</g>
<!-- Node3&#45;&gt;Node1 -->
<g id="edge13_Node000001_Node000003" class="edge">
<title>Node3&#45;&gt;Node1</title>
<g id="a_edge13_Node000001_Node000003"><a xlink:title=" ">
<path fill="none" stroke="#9a32cd" stroke-dasharray="5,2" d="M81.89,-93.34C88.9,-140.75 110.55,-237.35 173.5,-282.92 227.15,-321.76 255.64,-296.92 321.88,-296.92 321.88,-296.92 321.88,-296.92 944.88,-296.92 1010.41,-296.92 1068.79,-233.75 1093.22,-203.15"/>
<polygon fill="#9a32cd" stroke="#9a32cd" points="85.38,-93.08 80.57,-83.64 78.45,-94.02 85.38,-93.08"/>
</a>
</g>
<text xml:space="preserve" text-anchor="start" x="579.75" y="-334.42" font-family="Helvetica,sans-Serif" font-size="10.00" fill="grey">is_free</text>
<text xml:space="preserve" text-anchor="start" x="579.75" y="-318.42" font-family="Helvetica,sans-Serif" font-size="10.00" fill="grey">is_functor</text>
<text xml:space="preserve" text-anchor="start" x="579.75" y="-302.42" font-family="Helvetica,sans-Serif" font-size="10.00" fill="grey">is_std_function</text>
</g>
<!-- Node3&#45;&gt;Node2 -->
<g id="edge2_Node000002_Node000003" class="edge">
<title>Node3&#45;&gt;Node2</title>
<g id="a_edge2_Node000002_Node000003"><a xlink:title=" ">
<path fill="none" stroke="#9a32cd" stroke-dasharray="5,2" d="M134.63,-46.11C195.56,-27.77 294.93,-7.55 374,-37.92 419.24,-55.3 418.3,-79.26 455,-110.92 462.46,-117.35 470.65,-124.21 478.23,-130.47"/>
<polygon fill="#9a32cd" stroke="#9a32cd" points="133.67,-42.74 125.16,-49.05 135.75,-49.43 133.67,-42.74"/>
</a>
</g>
<text xml:space="preserve" text-anchor="start" x="285.75" y="-203.42" font-family="Helvetica,sans-Serif" font-size="10.00" fill="grey">is_const</text>
<text xml:space="preserve" text-anchor="start" x="285.75" y="-187.42" font-family="Helvetica,sans-Serif" font-size="10.00" fill="grey">is_free</text>
<text xml:space="preserve" text-anchor="start" x="285.75" y="-171.42" font-family="Helvetica,sans-Serif" font-size="10.00" fill="grey">is_functor</text>
<text xml:space="preserve" text-anchor="start" x="285.75" y="-155.42" font-family="Helvetica,sans-Serif" font-size="10.00" fill="grey">is_member</text>
<text xml:space="preserve" text-anchor="start" x="285.75" y="-139.42" font-family="Helvetica,sans-Serif" font-size="10.00" fill="grey">is_moved</text>
<text xml:space="preserve" text-anchor="start" x="285.75" y="-123.42" font-family="Helvetica,sans-Serif" font-size="10.00" fill="grey">is_noexcept</text>
<text xml:space="preserve" text-anchor="start" x="285.75" y="-107.42" font-family="Helvetica,sans-Serif" font-size="10.00" fill="grey">is_parent_moved</text>
<text xml:space="preserve" text-anchor="start" x="285.75" y="-91.42" font-family="Helvetica,sans-Serif" font-size="10.00" fill="grey">is_parent_ref</text>
<text xml:space="preserve" text-anchor="start" x="285.75" y="-75.42" font-family="Helvetica,sans-Serif" font-size="10.00" fill="grey">is_ptr</text>
<text xml:space="preserve" text-anchor="start" x="285.75" y="-59.42" font-family="Helvetica,sans-Serif" font-size="10.00" fill="grey">is_ref</text>
<text xml:space="preserve" text-anchor="start" x="285.75" y="-43.42" font-family="Helvetica,sans-Serif" font-size="10.00" fill="grey"> &#160;...</text>
</g>
<!-- Node4 -->
<g id="Node000004" class="node">
<title>Node4</title>
<g id="a_Node000004"><a xlink:href="../../d0/d74/structmstd_1_1utils_1_1function__default__type__traits.html" target="_top" xlink:title=" ">
<polygon fill="white" stroke="#666666" points="374,-268.92 271.75,-268.92 271.75,-224.92 374,-224.92 374,-268.92"/>
<text xml:space="preserve" text-anchor="start" x="279.75" y="-255.42" font-family="Helvetica,sans-Serif" font-size="10.00">mstd::utils::function</text>
<text xml:space="preserve" text-anchor="start" x="279.75" y="-243.42" font-family="Helvetica,sans-Serif" font-size="10.00">_default_type_traits</text>
<text xml:space="preserve" text-anchor="middle" x="322.88" y="-231.42" font-family="Helvetica,sans-Serif" font-size="10.00">&lt; IsMember &gt;</text>
</a>
</g>
</g>
<!-- Node3&#45;&gt;Node4 -->
<g id="edge4_Node000004_Node000003" class="edge">
<title>Node3&#45;&gt;Node4</title>
<g id="a_edge4_Node000004_Node000003"><a xlink:title=" ">
<path fill="none" stroke="#9a32cd" stroke-dasharray="5,2" d="M166.79,-65.99C198.25,-70.57 231.41,-81.4 253.75,-104.92 286.67,-139.56 246.44,-170.39 271.75,-210.92 274.93,-216.01 279.11,-220.6 283.71,-224.65"/>
<polygon fill="#9a32cd" stroke="#9a32cd" points="167.62,-62.57 157.26,-64.81 166.75,-69.51 167.62,-62.57"/>
</a>
</g>
<text xml:space="preserve" text-anchor="start" x="176.5" y="-270.42" font-family="Helvetica,sans-Serif" font-size="10.00" fill="grey">is_const</text>
<text xml:space="preserve" text-anchor="start" x="176.5" y="-254.42" font-family="Helvetica,sans-Serif" font-size="10.00" fill="grey">is_free</text>
<text xml:space="preserve" text-anchor="start" x="176.5" y="-238.42" font-family="Helvetica,sans-Serif" font-size="10.00" fill="grey">is_functor</text>
<text xml:space="preserve" text-anchor="start" x="176.5" y="-222.42" font-family="Helvetica,sans-Serif" font-size="10.00" fill="grey">is_member</text>
<text xml:space="preserve" text-anchor="start" x="176.5" y="-206.42" font-family="Helvetica,sans-Serif" font-size="10.00" fill="grey">is_moved</text>
<text xml:space="preserve" text-anchor="start" x="176.5" y="-190.42" font-family="Helvetica,sans-Serif" font-size="10.00" fill="grey">is_noexcept</text>
<text xml:space="preserve" text-anchor="start" x="176.5" y="-174.42" font-family="Helvetica,sans-Serif" font-size="10.00" fill="grey">is_parent_moved</text>
<text xml:space="preserve" text-anchor="start" x="176.5" y="-158.42" font-family="Helvetica,sans-Serif" font-size="10.00" fill="grey">is_parent_ref</text>
<text xml:space="preserve" text-anchor="start" x="176.5" y="-142.42" font-family="Helvetica,sans-Serif" font-size="10.00" fill="grey">is_ptr</text>
<text xml:space="preserve" text-anchor="start" x="176.5" y="-126.42" font-family="Helvetica,sans-Serif" font-size="10.00" fill="grey">is_ref</text>
<text xml:space="preserve" text-anchor="start" x="176.5" y="-110.42" font-family="Helvetica,sans-Serif" font-size="10.00" fill="grey"> &#160;...</text>
</g>
<!-- Node3&#45;&gt;Node8 -->
<g id="edge12_Node000008_Node000003" class="edge">
<title>Node3&#45;&gt;Node8</title>
<g id="a_edge12_Node000008_Node000003"><a xlink:title=" ">
<path fill="none" stroke="#9a32cd" stroke-dasharray="5,2" d="M114.18,-44.2C131.42,-34.83 152.84,-24.89 173.5,-19.92 354.21,23.57 577.21,-15.44 676.38,-37.37"/>
<polygon fill="#9a32cd" stroke="#9a32cd" points="112.87,-40.91 105.87,-48.86 116.3,-47.02 112.87,-40.91"/>
</a>
</g>
<text xml:space="preserve" text-anchor="start" x="399.88" y="-8.07" font-family="Helvetica,sans-Serif" font-size="10.00" fill="grey">is_free</text>
</g>
<!-- Node4&#45;&gt;Node2 -->
<g id="edge3_Node000002_Node000004" class="edge">
<title>Node4&#45;&gt;Node2</title>
<g id="a_edge3_Node000002_Node000004"><a xlink:title=" ">
<path fill="none" stroke="orange" stroke-dasharray="5,2" d="M377.11,-219.42C404.25,-205.41 436.82,-188.58 462.42,-175.36"/>
<polygon fill="orange" stroke="orange" points="375.63,-216.25 368.35,-223.95 378.84,-222.47 375.63,-216.25"/>
</a>
</g>
<text xml:space="preserve" text-anchor="start" x="395" y="-216.6" font-family="Helvetica,sans-Serif" font-size="10.00" fill="grey">&lt; false &gt;</text>
</g>
<!-- Node5&#45;&gt;Node1 -->
<g id="edge5_Node000001_Node000005" class="edge">
<title>Node5&#45;&gt;Node1</title>
<g id="a_edge5_Node000001_Node000005"><a xlink:title=" ">
<path fill="none" stroke="#63b8ff" d="M1008.02,-166.3C1016.26,-168.04 1024.74,-169.84 1033.11,-171.61"/>
<polygon fill="#63b8ff" stroke="#63b8ff" points="1008.97,-162.92 998.47,-164.27 1007.52,-169.77 1008.97,-162.92"/>
</a>
</g>
</g>
<!-- Node6 -->
<g id="Node000006" class="node">
<title>Node6</title>
<g id="a_Node000006"><a xlink:href="../../df/db9/structmstd_1_1utils_1_1function__core__traits.html" target="_top" xlink:title=" ">
<polygon fill="white" stroke="#666666" points="791.5,-115.92 666.75,-115.92 666.75,-83.92 791.5,-83.92 791.5,-115.92"/>
<text xml:space="preserve" text-anchor="start" x="674.75" y="-102.42" font-family="Helvetica,sans-Serif" font-size="10.00">mstd::utils::function</text>
<text xml:space="preserve" text-anchor="middle" x="729.12" y="-90.42" font-family="Helvetica,sans-Serif" font-size="10.00">_core_traits&lt; R(Args...)&gt;</text>
</a>
</g>
</g>
<!-- Node6&#45;&gt;Node5 -->
<g id="edge7_Node000005_Node000006" class="edge">
<title>Node6&#45;&gt;Node5</title>
<g id="a_edge7_Node000005_Node000006"><a xlink:title=" ">
<path fill="none" stroke="#63b8ff" d="M803.15,-115.97C825.69,-121.13 850.55,-127.05 873.25,-132.92 878.97,-134.4 884.94,-136.01 890.87,-137.66"/>
<polygon fill="#63b8ff" stroke="#63b8ff" points="803.95,-112.56 793.42,-113.76 802.39,-119.39 803.95,-112.56"/>
</a>
</g>
</g>
<!-- Node7 -->
<g id="Node000007" class="node">
<title>Node7</title>
<g id="a_Node000007"><a xlink:href="../../df/db9/structmstd_1_1utils_1_1function__core__traits.html" target="_top" xlink:title=" ">
<polygon fill="white" stroke="#666666" points="558.75,-101.92 455,-101.92 455,-69.92 558.75,-69.92 558.75,-101.92"/>
<text xml:space="preserve" text-anchor="start" x="463" y="-88.42" font-family="Helvetica,sans-Serif" font-size="10.00">mstd::utils::function</text>
<text xml:space="preserve" text-anchor="middle" x="506.88" y="-76.42" font-family="Helvetica,sans-Serif" font-size="10.00">_core_traits&lt; F, C &gt;</text>
</a>
</g>
</g>
<!-- Node7&#45;&gt;Node6 -->
<g id="edge8_Node000006_Node000007" class="edge">
<title>Node7&#45;&gt;Node6</title>
<g id="a_edge8_Node000006_Node000007"><a xlink:title=" ">
<path fill="none" stroke="orange" stroke-dasharray="5,2" d="M570.46,-89.9C600.55,-91.81 636.51,-94.1 666.48,-96"/>
<polygon fill="orange" stroke="orange" points="570.95,-86.42 560.75,-89.28 570.5,-93.41 570.95,-86.42"/>
</a>
</g>
<text xml:space="preserve" text-anchor="start" x="583.88" y="-100.09" font-family="Helvetica,sans-Serif" font-size="10.00" fill="grey">&lt; R(Args...)&gt;</text>
</g>
<!-- Node8&#45;&gt;Node1 -->
<g id="edge14_Node000001_Node000008" class="edge">
<title>Node8&#45;&gt;Node1</title>
<g id="a_edge14_Node000001_Node000008"><a xlink:title=" ">
<path fill="none" stroke="orange" stroke-dasharray="5,2" d="M793.39,-50.05C849.47,-52.49 932.2,-61.96 996.5,-93.92 1035.46,-113.28 1072.03,-149.63 1091.27,-170.7"/>
<polygon fill="orange" stroke="orange" points="793.82,-46.56 783.7,-49.69 793.57,-53.55 793.82,-46.56"/>
</a>
</g>
<text xml:space="preserve" text-anchor="start" x="904.12" y="-115.42" font-family="Helvetica,sans-Serif" font-size="10.00" fill="grey">&lt; std::function&lt; R</text>
<text xml:space="preserve" text-anchor="start" x="904.12" y="-99.42" font-family="Helvetica,sans-Serif" font-size="10.00" fill="grey">  (Args...)&gt; &gt;</text>
</g>
<!-- Node8&#45;&gt;Node5 -->
<g id="edge10_Node000005_Node000008" class="edge">
<title>Node8&#45;&gt;Node5</title>
<g id="a_edge10_Node000005_Node000008"><a xlink:title=" ">
<path fill="none" stroke="orange" stroke-dasharray="5,2" d="M792.83,-64.56C818.64,-71.97 848.28,-82.33 873.25,-95.92 893.28,-106.82 913.11,-123.83 926.45,-136.43"/>
<polygon fill="orange" stroke="orange" points="794.06,-61.27 783.49,-61.97 792.19,-68.02 794.06,-61.27"/>
</a>
</g>
<text xml:space="preserve" text-anchor="start" x="812.5" y="-101.42" font-family="Helvetica,sans-Serif" font-size="10.00" fill="grey">&lt; R(Args...)&gt;</text>
</g>
</g>
</svg>
