<?xml version="1.0" encoding="UTF-8" standalone="no"?>
<!DOCTYPE svg PUBLIC "-//W3C//DTD SVG 1.1//EN"
 "http://www.w3.org/Graphics/SVG/1.1/DTD/svg11.dtd">
<!-- Generated by graphviz version 14.1.1 (20251213.1925)
 -->
<!-- Title: mstd::function_traits&lt; R(Args...) const, C &gt; Pages: 1 -->
<!--zoomable 562 -->

<svg id="main" version="1.1" xmlns="http://www.w3.org/2000/svg" xmlns:xlink="http://www.w3.org/1999/xlink" xml:space="preserve" onload="init(evt)">

<style type="text/css"><![CDATA[
.node, .edge {opacity: 0.7;}
.node.selected, .edge.selected {opacity: 1;}
.edge:hover path { stroke: red; }
.edge:hover polygon { stroke: red; fill: red; }
]]></style>

<defs>
  <circle id="rim" cx="0" cy="0" r="7"/>
  <circle id="rim2" cx="0" cy="0" r="3.5"/>
  <g id="zoomPlus">
    <use xlink:href="#rim" fill="#404040"><set attributeName="fill" to="#808080" begin="zoomplus.mouseover" end="zoomplus.mouseout"/></use>
    <path d="M-4,0h8M0,-4v8" fill="none" stroke="white" stroke-width="1.5" pointer-events="none"/>
  </g>
  <g id="zoomMin">
    <use xlink:href="#rim" fill="#404040"><set attributeName="fill" to="#808080" begin="zoomminus.mouseover" end="zoomminus.mouseout"/></use>
    <path d="M-4,0h8" fill="none" stroke="white" stroke-width="1.5" pointer-events="none"/>
  </g>
  <g id="arrowUp" transform="translate(30 24)">
    <use xlink:href="#rim"/>
    <path pointer-events="none" fill="none" stroke="white" stroke-width="1.5" d="M0,-3.0v7 M-2.5,-0.5L0,-3.0L2.5,-0.5"/>
  </g>
  <g id="arrowRight" transform="rotate(90) translate(36 -43)">
    <use xlink:href="#rim"/>
    <path pointer-events="none" fill="none" stroke="white" stroke-width="1.5" d="M0,-3.0v7 M-2.5,-0.5L0,-3.0L2.5,-0.5"/>
  </g>
  <g id="arrowDown" transform="rotate(180) translate(-30 -48)">
    <use xlink:href="#rim"/>
    <path pointer-events="none" fill="none" stroke="white" stroke-width="1.5" d="M0,-3.0v7 M-2.5,-0.5L0,-3.0L2.5,-0.5"/>
  </g>
  <g id="arrowLeft" transform="rotate(270) translate(-36 17)">
    <use xlink:href="#rim"/>
    <path pointer-events="none" fill="none" stroke="white" stroke-width="1.5" d="M0,-3.0v7 M-2.5,-0.5L0,-3.0L2.5,-0.5"/>
  </g>
  <g id="resetDef">
    <use xlink:href="#rim2" fill="#404040"><set attributeName="fill" to="#808080" begin="reset.mouseover" end="reset.mouseout"/></use>
  </g>
</defs>
<script type="application/ecmascript">
var viewWidth = 1722;
var viewHeight = 562;
var sectionId = 'dynsection-0';
</script>
<script type="application/ecmascript" xlink:href="../../svg.min.js"/>
<svg id="graph" class="graph">
<g id="viewport">
<title>mstd::function_traits&lt; R(Args...) const, C &gt;</title>
<!-- Node1 -->
<g id="Node000001" class="node">
<title>Node1</title>
<g id="a_Node000001"><a xlink:title=" ">
<polygon fill="#999999" stroke="#666666" points="985.5,-348 868.25,-348 868.25,-316 985.5,-316 985.5,-348"/>
<text xml:space="preserve" text-anchor="start" x="876.25" y="-334.5" font-family="Helvetica,sans-Serif" font-size="10.00">mstd::function_traits</text>
<text xml:space="preserve" text-anchor="middle" x="926.88" y="-322.5" font-family="Helvetica,sans-Serif" font-size="10.00">&lt; R(Args...) const, C &gt;</text>
</a>
</g>
</g>
<!-- Node10 -->
<g id="Node000010" class="node">
<title>Node10</title>
<g id="a_Node000010"><a xlink:href="../../df/d7c/structmstd_1_1function__traits_3_01_r_07_args_8_8_8_08_01const_01_6_6_00_01_c_01_4.html" target="_top" xlink:title=" ">
<polygon fill="white" stroke="#666666" points="1169.38,-504 1035.62,-504 1035.62,-472 1169.38,-472 1169.38,-504"/>
<text xml:space="preserve" text-anchor="start" x="1043.62" y="-490.5" font-family="Helvetica,sans-Serif" font-size="10.00">mstd::function_traits</text>
<text xml:space="preserve" text-anchor="middle" x="1102.5" y="-478.5" font-family="Helvetica,sans-Serif" font-size="10.00">&lt; R(Args...) const &amp;&amp;, C &gt;</text>
</a>
</g>
</g>
<!-- Node1&#45;&gt;Node10 -->
<g id="edge14_Node000001_Node000010" class="edge">
<title>Node1&#45;&gt;Node10</title>
<g id="a_edge14_Node000001_Node000010"><a xlink:title=" ">
<path fill="none" stroke="#63b8ff" d="M954.59,-356C990.25,-388.04 1052.48,-443.96 1083.23,-471.59"/>
<polygon fill="#63b8ff" stroke="#63b8ff" points="957.03,-353.49 947.25,-349.41 952.35,-358.7 957.03,-353.49"/>
</a>
</g>
</g>
<!-- Node14 -->
<g id="Node000014" class="node">
<title>Node14</title>
<g id="a_Node000014"><a xlink:href="../../d1/d31/structmstd_1_1function__traits_3_01_r_07_args_8_8_8_08_01const_01_6_00_01_c_01_4.html" target="_top" xlink:title=" ">
<polygon fill="white" stroke="#666666" points="1166,-404 1039,-404 1039,-372 1166,-372 1166,-404"/>
<text xml:space="preserve" text-anchor="start" x="1047" y="-390.5" font-family="Helvetica,sans-Serif" font-size="10.00">mstd::function_traits</text>
<text xml:space="preserve" text-anchor="middle" x="1102.5" y="-378.5" font-family="Helvetica,sans-Serif" font-size="10.00">&lt; R(Args...) const &amp;, C &gt;</text>
</a>
</g>
</g>
<!-- Node1&#45;&gt;Node14 -->
<g id="edge18_Node000001_Node000014" class="edge">
<title>Node1&#45;&gt;Node14</title>
<g id="a_edge18_Node000001_Node000014"><a xlink:title=" ">
<path fill="none" stroke="#63b8ff" d="M989.83,-351.98C1009.68,-358.39 1031.43,-365.4 1050.41,-371.52"/>
<polygon fill="#63b8ff" stroke="#63b8ff" points="991.06,-348.7 980.47,-348.96 988.91,-355.36 991.06,-348.7"/>
</a>
</g>
</g>
<!-- Node18 -->
<g id="Node000018" class="node">
<title>Node18</title>
<g id="a_Node000018"><a xlink:href="../../d8/d3a/structmstd_1_1function__traits_3_01_r_07_args_8_8_8_08_01const_01noexcept_00_01_c_01_4.html" target="_top" xlink:title=" ">
<polygon fill="white" stroke="#666666" points="1182.5,-348 1022.5,-348 1022.5,-316 1182.5,-316 1182.5,-348"/>
<text xml:space="preserve" text-anchor="start" x="1030.5" y="-334.5" font-family="Helvetica,sans-Serif" font-size="10.00">mstd::function_traits</text>
<text xml:space="preserve" text-anchor="middle" x="1102.5" y="-322.5" font-family="Helvetica,sans-Serif" font-size="10.00">&lt; R(Args...) const noexcept, C &gt;</text>
</a>
</g>
</g>
<!-- Node1&#45;&gt;Node18 -->
<g id="edge22_Node000001_Node000018" class="edge">
<title>Node1&#45;&gt;Node18</title>
<g id="a_edge22_Node000001_Node000018"><a xlink:title=" ">
<path fill="none" stroke="#63b8ff" d="M997.18,-332C1005.44,-332 1013.92,-332 1022.3,-332"/>
<polygon fill="#63b8ff" stroke="#63b8ff" points="997.2,-328.5 987.2,-332 997.2,-335.5 997.2,-328.5"/>
</a>
</g>
</g>
<!-- Node20 -->
<g id="Node000020" class="node">
<title>Node20</title>
<g id="a_Node000020"><a xlink:href="../../da/d58/structmstd_1_1function__traits_3_01_r_07_args_8_8_8_08_01const_01volatile_00_01_c_01_4.html" target="_top" xlink:title=" ">
<polygon fill="white" stroke="#666666" points="1178,-274 1027,-274 1027,-242 1178,-242 1178,-274"/>
<text xml:space="preserve" text-anchor="start" x="1035" y="-260.5" font-family="Helvetica,sans-Serif" font-size="10.00">mstd::function_traits</text>
<text xml:space="preserve" text-anchor="middle" x="1102.5" y="-248.5" font-family="Helvetica,sans-Serif" font-size="10.00">&lt; R(Args...) const volatile, C &gt;</text>
</a>
</g>
</g>
<!-- Node1&#45;&gt;Node20 -->
<g id="edge24_Node000001_Node000020" class="edge">
<title>Node1&#45;&gt;Node20</title>
<g id="a_edge24_Node000001_Node000020"><a xlink:title=" ">
<path fill="none" stroke="#63b8ff" d="M976.92,-311.1C1004.21,-299.46 1037.7,-285.19 1063.07,-274.38"/>
<polygon fill="#63b8ff" stroke="#63b8ff" points="975.63,-307.84 967.8,-314.98 978.37,-314.28 975.63,-307.84"/>
</a>
</g>
</g>
<!-- Node32 -->
<g id="Node000032" class="node">
<title>Node32</title>
<g id="a_Node000032"><a xlink:href="../../d5/d4c/structmstd_1_1function__traits_3_01_r_07_c_1_1_5_08_07_args_8_8_8_08_01const_01_4.html" target="_top" xlink:title=" ">
<polygon fill="white" stroke="#666666" points="1166,-224 1039,-224 1039,-192 1166,-192 1166,-224"/>
<text xml:space="preserve" text-anchor="start" x="1047" y="-210.5" font-family="Helvetica,sans-Serif" font-size="10.00">mstd::function_traits</text>
<text xml:space="preserve" text-anchor="middle" x="1102.5" y="-198.5" font-family="Helvetica,sans-Serif" font-size="10.00">&lt; R(C::*)(Args...) const &gt;</text>
</a>
</g>
</g>
<!-- Node1&#45;&gt;Node32 -->
<g id="edge36_Node000001_Node000032" class="edge">
<title>Node1&#45;&gt;Node32</title>
<g id="a_edge36_Node000001_Node000032"><a xlink:title=" ">
<path fill="none" stroke="#63b8ff" d="M946.17,-306.6C963.49,-284.26 991.42,-252.36 1022.5,-233 1027.75,-229.73 1033.47,-226.85 1039.34,-224.33"/>
<polygon fill="#63b8ff" stroke="#63b8ff" points="943.57,-304.23 940.33,-314.31 949.16,-308.45 943.57,-304.23"/>
</a>
</g>
</g>
<!-- Node2 -->
<g id="Node000002" class="node">
<title>Node2</title>
<g id="a_Node000002"><a xlink:href="../../d0/d74/structmstd_1_1utils_1_1function__default__type__traits.html" target="_top" xlink:title=" ">
<polygon fill="white" stroke="#666666" points="317,-393 214.75,-393 214.75,-349 317,-349 317,-393"/>
<text xml:space="preserve" text-anchor="start" x="222.75" y="-379.5" font-family="Helvetica,sans-Serif" font-size="10.00">mstd::utils::function</text>
<text xml:space="preserve" text-anchor="start" x="222.75" y="-367.5" font-family="Helvetica,sans-Serif" font-size="10.00">_default_type_traits</text>
<text xml:space="preserve" text-anchor="middle" x="265.88" y="-355.5" font-family="Helvetica,sans-Serif" font-size="10.00">&lt; false &gt;</text>
</a>
</g>
</g>
<!-- Node2&#45;&gt;Node1 -->
<g id="edge1_Node000001_Node000002" class="edge">
<title>Node2&#45;&gt;Node1</title>
<g id="a_edge1_Node000001_Node000002"><a xlink:title=" ">
<path fill="none" stroke="#63b8ff" d="M328.25,-354.64C367.47,-345.05 419.59,-333.88 466.5,-329 610.28,-314.04 780.74,-321.77 868.02,-327.56"/>
<polygon fill="#63b8ff" stroke="#63b8ff" points="327.62,-351.19 318.75,-357 329.3,-357.99 327.62,-351.19"/>
</a>
</g>
</g>
<!-- Node4 -->
<g id="Node000004" class="node">
<title>Node4</title>
<g id="a_Node000004"><a xlink:href="../../dd/db6/structmstd_1_1function__traits_3_01_r_07_args_8_8_8_08_00_01_c_01_4.html" target="_top" xlink:title=" ">
<polygon fill="white" stroke="#666666" points="830.25,-414 725,-414 725,-382 830.25,-382 830.25,-414"/>
<text xml:space="preserve" text-anchor="start" x="733" y="-400.5" font-family="Helvetica,sans-Serif" font-size="10.00">mstd::function_traits</text>
<text xml:space="preserve" text-anchor="middle" x="777.62" y="-388.5" font-family="Helvetica,sans-Serif" font-size="10.00">&lt; R(Args...), C &gt;</text>
</a>
</g>
</g>
<!-- Node2&#45;&gt;Node4 -->
<g id="edge4_Node000004_Node000002" class="edge">
<title>Node2&#45;&gt;Node4</title>
<g id="a_edge4_Node000004_Node000002"><a xlink:title=" ">
<path fill="none" stroke="#63b8ff" d="M328.64,-375.83C334.59,-376.25 340.53,-376.64 346.25,-377 482.7,-385.48 643.66,-392.56 724.6,-395.91"/>
<polygon fill="#63b8ff" stroke="#63b8ff" points="328.98,-372.35 318.76,-375.12 328.48,-379.33 328.98,-372.35"/>
</a>
</g>
</g>
<!-- Node9 -->
<g id="Node000009" class="node">
<title>Node9</title>
<g id="a_Node000009"><a xlink:href="../../d7/dcb/structmstd_1_1function__traits.html" target="_top" xlink:title=" ">
<polygon fill="white" stroke="#666666" points="589.75,-370 484.5,-370 484.5,-338 589.75,-338 589.75,-370"/>
<text xml:space="preserve" text-anchor="start" x="492.5" y="-356.5" font-family="Helvetica,sans-Serif" font-size="10.00">mstd::function_traits</text>
<text xml:space="preserve" text-anchor="middle" x="537.12" y="-344.5" font-family="Helvetica,sans-Serif" font-size="10.00">&lt; F, C &gt;</text>
</a>
</g>
</g>
<!-- Node2&#45;&gt;Node9 -->
<g id="edge12_Node000009_Node000002" class="edge">
<title>Node2&#45;&gt;Node9</title>
<g id="a_edge12_Node000009_Node000002"><a xlink:title=" ">
<path fill="none" stroke="#63b8ff" d="M328.48,-367.11C375.56,-364.14 439.72,-360.09 484.21,-357.28"/>
<polygon fill="#63b8ff" stroke="#63b8ff" points="328.47,-363.6 318.71,-367.73 328.91,-370.59 328.47,-363.6"/>
</a>
</g>
</g>
<!-- Node3 -->
<g id="Node000003" class="node">
<title>Node3</title>
<g id="a_Node000003"><a xlink:href="../../d0/d74/structmstd_1_1utils_1_1function__default__type__traits.html" target="_top" xlink:title=" ">
<polygon fill="white" stroke="#666666" points="103,-439 0.75,-439 0.75,-395 103,-395 103,-439"/>
<text xml:space="preserve" text-anchor="start" x="8.75" y="-425.5" font-family="Helvetica,sans-Serif" font-size="10.00">mstd::utils::function</text>
<text xml:space="preserve" text-anchor="start" x="8.75" y="-413.5" font-family="Helvetica,sans-Serif" font-size="10.00">_default_type_traits</text>
<text xml:space="preserve" text-anchor="middle" x="51.88" y="-401.5" font-family="Helvetica,sans-Serif" font-size="10.00">&lt; IsMember &gt;</text>
</a>
</g>
</g>
<!-- Node3&#45;&gt;Node2 -->
<g id="edge2_Node000002_Node000003" class="edge">
<title>Node3&#45;&gt;Node2</title>
<g id="a_edge2_Node000002_Node000003"><a xlink:title=" ">
<path fill="none" stroke="orange" stroke-dasharray="5,2" d="M109.78,-390.68C113.79,-389.3 117.8,-388.06 121.75,-387 151.94,-378.93 186.78,-374.93 214.52,-372.94"/>
<polygon fill="orange" stroke="orange" points="108.84,-387.29 100.67,-394.05 111.27,-393.86 108.84,-387.29"/>
</a>
</g>
<text xml:space="preserve" text-anchor="start" x="134.12" y="-392.5" font-family="Helvetica,sans-Serif" font-size="10.00" fill="grey">&lt; false &gt;</text>
</g>
<!-- Node8 -->
<g id="Node000008" class="node">
<title>Node8</title>
<g id="a_Node000008"><a xlink:href="../../d0/d74/structmstd_1_1utils_1_1function__default__type__traits.html" target="_top" xlink:title=" ">
<polygon fill="white" stroke="#666666" points="448.5,-457 346.25,-457 346.25,-413 448.5,-413 448.5,-457"/>
<text xml:space="preserve" text-anchor="start" x="354.25" y="-443.5" font-family="Helvetica,sans-Serif" font-size="10.00">mstd::utils::function</text>
<text xml:space="preserve" text-anchor="start" x="354.25" y="-431.5" font-family="Helvetica,sans-Serif" font-size="10.00">_default_type_traits</text>
<text xml:space="preserve" text-anchor="middle" x="397.38" y="-419.5" font-family="Helvetica,sans-Serif" font-size="10.00">&lt; true &gt;</text>
</a>
</g>
</g>
<!-- Node3&#45;&gt;Node8 -->
<g id="edge10_Node000008_Node000003" class="edge">
<title>Node3&#45;&gt;Node8</title>
<g id="a_edge10_Node000008_Node000003"><a xlink:title=" ">
<path fill="none" stroke="orange" stroke-dasharray="5,2" d="M114.68,-420.24C180.83,-423.71 284.51,-429.14 345.92,-432.36"/>
<polygon fill="orange" stroke="orange" points="114.87,-416.74 104.7,-419.72 114.51,-423.73 114.87,-416.74"/>
</a>
</g>
<text xml:space="preserve" text-anchor="start" x="136.38" y="-429.21" font-family="Helvetica,sans-Serif" font-size="10.00" fill="grey">&lt; true &gt;</text>
</g>
<!-- Node4&#45;&gt;Node1 -->
<g id="edge3_Node000001_Node000004" class="edge">
<title>Node4&#45;&gt;Node1</title>
<g id="a_edge3_Node000001_Node000004"><a xlink:title=" ">
<path fill="none" stroke="#63b8ff" d="M825.83,-376.84C846.39,-367.63 870.12,-356.99 889.31,-348.39"/>
<polygon fill="#63b8ff" stroke="#63b8ff" points="824.48,-373.61 816.78,-380.9 827.34,-380 824.48,-373.61"/>
</a>
</g>
</g>
<!-- Node5 -->
<g id="Node000005" class="node">
<title>Node5</title>
<g id="a_Node000005"><a xlink:href="../../d1/d4f/structmstd_1_1utils_1_1function__core__traits_3_01_r_07_args_8_8_8_08_00_01_c_01_4.html" target="_top" xlink:title=" ">
<polygon fill="white" stroke="#666666" points="607.75,-496 466.5,-496 466.5,-464 607.75,-464 607.75,-496"/>
<text xml:space="preserve" text-anchor="start" x="474.5" y="-482.5" font-family="Helvetica,sans-Serif" font-size="10.00">mstd::utils::function</text>
<text xml:space="preserve" text-anchor="middle" x="537.12" y="-470.5" font-family="Helvetica,sans-Serif" font-size="10.00">_core_traits&lt; R(Args...), C &gt;</text>
</a>
</g>
</g>
<!-- Node5&#45;&gt;Node4 -->
<g id="edge5_Node000004_Node000005" class="edge">
<title>Node5&#45;&gt;Node4</title>
<g id="a_edge5_Node000004_Node000005"><a xlink:title=" ">
<path fill="none" stroke="#63b8ff" d="M619.07,-473.14C647.38,-468.79 678.86,-461.66 706,-450 726.01,-441.41 745.7,-426.19 759.19,-414.43"/>
<polygon fill="#63b8ff" stroke="#63b8ff" points="618.87,-469.64 609.47,-474.52 619.87,-476.56 618.87,-469.64"/>
</a>
</g>
</g>
<!-- Node6 -->
<g id="Node000006" class="node">
<title>Node6</title>
<g id="a_Node000006"><a xlink:href="../../df/db9/structmstd_1_1utils_1_1function__core__traits.html" target="_top" xlink:title=" ">
<polygon fill="white" stroke="#666666" points="328.25,-544 203.5,-544 203.5,-512 328.25,-512 328.25,-544"/>
<text xml:space="preserve" text-anchor="start" x="211.5" y="-530.5" font-family="Helvetica,sans-Serif" font-size="10.00">mstd::utils::function</text>
<text xml:space="preserve" text-anchor="middle" x="265.88" y="-518.5" font-family="Helvetica,sans-Serif" font-size="10.00">_core_traits&lt; R(Args...)&gt;</text>
</a>
</g>
</g>
<!-- Node6&#45;&gt;Node5 -->
<g id="edge6_Node000005_Node000006" class="edge">
<title>Node6&#45;&gt;Node5</title>
<g id="a_edge6_Node000005_Node000006"><a xlink:title=" ">
<path fill="none" stroke="#63b8ff" d="M339.74,-515.01C379.02,-508.01 427.26,-499.41 466.1,-492.48"/>
<polygon fill="#63b8ff" stroke="#63b8ff" points="339.37,-511.52 330.14,-516.72 340.6,-518.41 339.37,-511.52"/>
</a>
</g>
</g>
<!-- Node7 -->
<g id="Node000007" class="node">
<title>Node7</title>
<g id="a_Node000007"><a xlink:href="../../df/db9/structmstd_1_1utils_1_1function__core__traits.html" target="_top" xlink:title=" ">
<polygon fill="white" stroke="#666666" points="103.75,-504 0,-504 0,-472 103.75,-472 103.75,-504"/>
<text xml:space="preserve" text-anchor="start" x="8" y="-490.5" font-family="Helvetica,sans-Serif" font-size="10.00">mstd::utils::function</text>
<text xml:space="preserve" text-anchor="middle" x="51.88" y="-478.5" font-family="Helvetica,sans-Serif" font-size="10.00">_core_traits&lt; F, C &gt;</text>
</a>
</g>
</g>
<!-- Node7&#45;&gt;Node5 -->
<g id="edge8_Node000005_Node000007" class="edge">
<title>Node7&#45;&gt;Node5</title>
<g id="a_edge8_Node000005_Node000007"><a xlink:title=" ">
<path fill="none" stroke="orange" stroke-dasharray="5,2" d="M115.39,-486.69C142.48,-486.14 174.55,-485.51 203.5,-485 294.16,-483.42 398.72,-481.89 466.04,-480.95"/>
<polygon fill="orange" stroke="orange" points="115.55,-483.18 105.63,-486.89 115.7,-490.18 115.55,-483.18"/>
</a>
</g>
<text xml:space="preserve" text-anchor="start" x="228.75" y="-490.5" font-family="Helvetica,sans-Serif" font-size="10.00" fill="grey">&lt; R(Args...), C &gt;</text>
</g>
<!-- Node7&#45;&gt;Node6 -->
<g id="edge7_Node000006_Node000007" class="edge">
<title>Node7&#45;&gt;Node6</title>
<g id="a_edge7_Node000006_Node000007"><a xlink:title=" ">
<path fill="none" stroke="orange" stroke-dasharray="5,2" d="M115.34,-499.79C143.01,-505.01 175.48,-511.13 203.08,-516.34"/>
<polygon fill="orange" stroke="orange" points="116.16,-496.38 105.68,-497.96 114.86,-503.26 116.16,-496.38"/>
</a>
</g>
<text xml:space="preserve" text-anchor="start" x="124.75" y="-518.26" font-family="Helvetica,sans-Serif" font-size="10.00" fill="grey">&lt; R(Args...)&gt;</text>
</g>
<!-- Node8&#45;&gt;Node4 -->
<g id="edge9_Node000004_Node000008" class="edge">
<title>Node8&#45;&gt;Node4</title>
<g id="a_edge9_Node000004_Node000008"><a xlink:title=" ">
<path fill="none" stroke="#63b8ff" d="M460.12,-432.58C522.4,-429.63 621.2,-423.53 706,-412 712.07,-411.17 718.4,-410.15 724.68,-409.04"/>
<polygon fill="#63b8ff" stroke="#63b8ff" points="460.27,-429.07 450.44,-433.03 460.59,-436.06 460.27,-429.07"/>
</a>
</g>
</g>
<!-- Node9&#45;&gt;Node1 -->
<g id="edge13_Node000001_Node000009" class="edge">
<title>Node9&#45;&gt;Node1</title>
<g id="a_edge13_Node000001_Node000009"><a xlink:title=" ">
<path fill="none" stroke="orange" stroke-dasharray="5,2" d="M601.46,-350.41C675.35,-346.21 796.49,-339.34 867.97,-335.29"/>
<polygon fill="orange" stroke="orange" points="601.31,-346.91 591.53,-350.97 601.71,-353.9 601.31,-346.91"/>
</a>
</g>
<text xml:space="preserve" text-anchor="start" x="727" y="-348.87" font-family="Helvetica,sans-Serif" font-size="10.00" fill="grey">&lt; R(Args...) const, C &gt;</text>
</g>
<!-- Node9&#45;&gt;Node4 -->
<g id="edge11_Node000004_Node000009" class="edge">
<title>Node9&#45;&gt;Node4</title>
<g id="a_edge11_Node000004_Node000009"><a xlink:title=" ">
<path fill="none" stroke="orange" stroke-dasharray="5,2" d="M601.31,-353.27C633.14,-354.22 672.07,-357.39 706,-366 719.83,-369.51 734.32,-375.6 746.54,-381.53"/>
<polygon fill="orange" stroke="orange" points="601.52,-349.77 591.45,-353.05 601.36,-356.77 601.52,-349.77"/>
</a>
</g>
<text xml:space="preserve" text-anchor="start" x="628.75" y="-371.5" font-family="Helvetica,sans-Serif" font-size="10.00" fill="grey">&lt; R(Args...), C &gt;</text>
</g>
<!-- Node11 -->
<g id="Node000011" class="node">
<title>Node11</title>
<g id="a_Node000011"><a xlink:href="../../dc/d55/structmstd_1_1function__traits_3_01_r_07_args_8_8_8_08_01const_01_6_6noexcept_00_01_c_01_4.html" target="_top" xlink:title=" ">
<polygon fill="white" stroke="#666666" points="1393,-504 1219.5,-504 1219.5,-472 1393,-472 1393,-504"/>
<text xml:space="preserve" text-anchor="start" x="1227.5" y="-490.5" font-family="Helvetica,sans-Serif" font-size="10.00">mstd::function_traits</text>
<text xml:space="preserve" text-anchor="middle" x="1306.25" y="-478.5" font-family="Helvetica,sans-Serif" font-size="10.00">&lt; R(Args...) const &amp;&amp;noexcept, C &gt;</text>
</a>
</g>
</g>
<!-- Node10&#45;&gt;Node11 -->
<g id="edge15_Node000010_Node000011" class="edge">
<title>Node10&#45;&gt;Node11</title>
<g id="a_edge15_Node000010_Node000011"><a xlink:title=" ">
<path fill="none" stroke="#63b8ff" d="M1181.09,-488C1193.52,-488 1206.44,-488 1219.06,-488"/>
<polygon fill="#63b8ff" stroke="#63b8ff" points="1181.35,-484.5 1171.35,-488 1181.35,-491.5 1181.35,-484.5"/>
</a>
</g>
</g>
<!-- Node13 -->
<g id="Node000013" class="node">
<title>Node13</title>
<g id="a_Node000013"><a xlink:href="../../dc/d52/structmstd_1_1function__traits_3_01_r_07_c_1_1_5_08_07_args_8_8_8_08_01const_01_6_6_01_4.html" target="_top" xlink:title=" ">
<polygon fill="white" stroke="#666666" points="1378,-554 1234.5,-554 1234.5,-522 1378,-522 1378,-554"/>
<text xml:space="preserve" text-anchor="start" x="1242.5" y="-540.5" font-family="Helvetica,sans-Serif" font-size="10.00">mstd::function_traits</text>
<text xml:space="preserve" text-anchor="middle" x="1306.25" y="-528.5" font-family="Helvetica,sans-Serif" font-size="10.00">&lt; R(C::*)(Args...) const &amp;&amp; &gt;</text>
</a>
</g>
</g>
<!-- Node10&#45;&gt;Node13 -->
<g id="edge17_Node000010_Node000013" class="edge">
<title>Node10&#45;&gt;Node13</title>
<g id="a_edge17_Node000010_Node000013"><a xlink:title=" ">
<path fill="none" stroke="#63b8ff" d="M1180.93,-507.19C1200.04,-511.93 1220.34,-516.96 1238.87,-521.55"/>
<polygon fill="#63b8ff" stroke="#63b8ff" points="1181.86,-503.81 1171.31,-504.81 1180.17,-510.61 1181.86,-503.81"/>
</a>
</g>
</g>
<!-- Node12 -->
<g id="Node000012" class="node">
<title>Node12</title>
<g id="a_Node000012"><a xlink:href="../../d2/d7b/structmstd_1_1function__traits_3_01_r_07_c_1_1_5_08_07_args_8_8_8_08_01const_01_6_6noexcept_01_4.html" target="_top" xlink:title=" ">
<polygon fill="white" stroke="#666666" points="1553.25,-510 1435.25,-510 1435.25,-466 1553.25,-466 1553.25,-510"/>
<text xml:space="preserve" text-anchor="start" x="1443.25" y="-496.5" font-family="Helvetica,sans-Serif" font-size="10.00">mstd::function_traits</text>
<text xml:space="preserve" text-anchor="start" x="1443.25" y="-484.5" font-family="Helvetica,sans-Serif" font-size="10.00">&lt; R(C::*)(Args...) const</text>
<text xml:space="preserve" text-anchor="middle" x="1494.25" y="-472.5" font-family="Helvetica,sans-Serif" font-size="10.00"> &amp;&amp;noexcept &gt;</text>
</a>
</g>
</g>
<!-- Node11&#45;&gt;Node12 -->
<g id="edge16_Node000011_Node000012" class="edge">
<title>Node11&#45;&gt;Node12</title>
<g id="a_edge16_Node000011_Node000012"><a xlink:title=" ">
<path fill="none" stroke="#63b8ff" d="M1404.67,-488C1415.01,-488 1425.28,-488 1434.97,-488"/>
<polygon fill="#63b8ff" stroke="#63b8ff" points="1404.96,-484.5 1394.96,-488 1404.96,-491.5 1404.96,-484.5"/>
</a>
</g>
</g>
<!-- Node15 -->
<g id="Node000015" class="node">
<title>Node15</title>
<g id="a_Node000015"><a xlink:href="../../d1/d23/structmstd_1_1function__traits_3_01_r_07_args_8_8_8_08_01const_01_6noexcept_00_01_c_01_4.html" target="_top" xlink:title=" ">
<polygon fill="white" stroke="#666666" points="1389.62,-404 1222.88,-404 1222.88,-372 1389.62,-372 1389.62,-404"/>
<text xml:space="preserve" text-anchor="start" x="1230.88" y="-390.5" font-family="Helvetica,sans-Serif" font-size="10.00">mstd::function_traits</text>
<text xml:space="preserve" text-anchor="middle" x="1306.25" y="-378.5" font-family="Helvetica,sans-Serif" font-size="10.00">&lt; R(Args...) const &amp;noexcept, C &gt;</text>
</a>
</g>
</g>
<!-- Node14&#45;&gt;Node15 -->
<g id="edge19_Node000014_Node000015" class="edge">
<title>Node14&#45;&gt;Node15</title>
<g id="a_edge19_Node000014_Node000015"><a xlink:title=" ">
<path fill="none" stroke="#63b8ff" d="M1177.72,-388C1192.3,-388 1207.68,-388 1222.52,-388"/>
<polygon fill="#63b8ff" stroke="#63b8ff" points="1177.74,-384.5 1167.74,-388 1177.74,-391.5 1177.74,-384.5"/>
</a>
</g>
</g>
<!-- Node17 -->
<g id="Node000017" class="node">
<title>Node17</title>
<g id="a_Node000017"><a xlink:href="../../df/df4/structmstd_1_1function__traits_3_01_r_07_c_1_1_5_08_07_args_8_8_8_08_01const_01_6_01_4.html" target="_top" xlink:title=" ">
<polygon fill="white" stroke="#666666" points="1374.62,-454 1237.88,-454 1237.88,-422 1374.62,-422 1374.62,-454"/>
<text xml:space="preserve" text-anchor="start" x="1245.88" y="-440.5" font-family="Helvetica,sans-Serif" font-size="10.00">mstd::function_traits</text>
<text xml:space="preserve" text-anchor="middle" x="1306.25" y="-428.5" font-family="Helvetica,sans-Serif" font-size="10.00">&lt; R(C::*)(Args...) const &amp; &gt;</text>
</a>
</g>
</g>
<!-- Node14&#45;&gt;Node17 -->
<g id="edge21_Node000014_Node000017" class="edge">
<title>Node14&#45;&gt;Node17</title>
<g id="a_edge21_Node000014_Node000017"><a xlink:title=" ">
<path fill="none" stroke="#63b8ff" d="M1177.22,-406.27C1197.34,-411.26 1219.02,-416.63 1238.72,-421.51"/>
<polygon fill="#63b8ff" stroke="#63b8ff" points="1178.25,-402.92 1167.7,-403.91 1176.56,-409.71 1178.25,-402.92"/>
</a>
</g>
</g>
<!-- Node16 -->
<g id="Node000016" class="node">
<title>Node16</title>
<g id="a_Node000016"><a xlink:href="../../d4/da4/structmstd_1_1function__traits_3_01_r_07_c_1_1_5_08_07_args_8_8_8_08_01const_01_6noexcept_01_4.html" target="_top" xlink:title=" ">
<polygon fill="white" stroke="#666666" points="1553.25,-410 1435.25,-410 1435.25,-366 1553.25,-366 1553.25,-410"/>
<text xml:space="preserve" text-anchor="start" x="1443.25" y="-396.5" font-family="Helvetica,sans-Serif" font-size="10.00">mstd::function_traits</text>
<text xml:space="preserve" text-anchor="start" x="1443.25" y="-384.5" font-family="Helvetica,sans-Serif" font-size="10.00">&lt; R(C::*)(Args...) const</text>
<text xml:space="preserve" text-anchor="middle" x="1494.25" y="-372.5" font-family="Helvetica,sans-Serif" font-size="10.00"> &amp;noexcept &gt;</text>
</a>
</g>
</g>
<!-- Node15&#45;&gt;Node16 -->
<g id="edge20_Node000015_Node000016" class="edge">
<title>Node15&#45;&gt;Node16</title>
<g id="a_edge20_Node000015_Node000016"><a xlink:title=" ">
<path fill="none" stroke="#63b8ff" d="M1401.31,-388C1412.73,-388 1424.12,-388 1434.8,-388"/>
<polygon fill="#63b8ff" stroke="#63b8ff" points="1401.43,-384.5 1391.43,-388 1401.43,-391.5 1401.43,-384.5"/>
</a>
</g>
</g>
<!-- Node19 -->
<g id="Node000019" class="node">
<title>Node19</title>
<g id="a_Node000019"><a xlink:href="../../d1/d38/structmstd_1_1function__traits_3_01_r_07_c_1_1_5_08_07_args_8_8_8_08_01const_01noexcept_01_4.html" target="_top" xlink:title=" ">
<polygon fill="white" stroke="#666666" points="1365.25,-354 1247.25,-354 1247.25,-310 1365.25,-310 1365.25,-354"/>
<text xml:space="preserve" text-anchor="start" x="1255.25" y="-340.5" font-family="Helvetica,sans-Serif" font-size="10.00">mstd::function_traits</text>
<text xml:space="preserve" text-anchor="start" x="1255.25" y="-328.5" font-family="Helvetica,sans-Serif" font-size="10.00">&lt; R(C::*)(Args...) const</text>
<text xml:space="preserve" text-anchor="middle" x="1306.25" y="-316.5" font-family="Helvetica,sans-Serif" font-size="10.00"> noexcept &gt;</text>
</a>
</g>
</g>
<!-- Node18&#45;&gt;Node19 -->
<g id="edge23_Node000018_Node000019" class="edge">
<title>Node18&#45;&gt;Node19</title>
<g id="a_edge23_Node000018_Node000019"><a xlink:title=" ">
<path fill="none" stroke="#63b8ff" d="M1194.27,-332C1212.1,-332 1230.35,-332 1246.76,-332"/>
<polygon fill="#63b8ff" stroke="#63b8ff" points="1194.46,-328.5 1184.46,-332 1194.46,-335.5 1194.46,-328.5"/>
</a>
</g>
</g>
<!-- Node21 -->
<g id="Node000021" class="node">
<title>Node21</title>
<g id="a_Node000021"><a xlink:href="../../d7/d15/structmstd_1_1function__traits_3_01_r_07_args_8_8_8_08_01const_01volatile_01_6_6_00_01_c_01_4.html" target="_top" xlink:title=" ">
<polygon fill="white" stroke="#666666" points="1370.5,-230 1242,-230 1242,-186 1370.5,-186 1370.5,-230"/>
<text xml:space="preserve" text-anchor="start" x="1250" y="-216.5" font-family="Helvetica,sans-Serif" font-size="10.00">mstd::function_traits</text>
<text xml:space="preserve" text-anchor="start" x="1250" y="-204.5" font-family="Helvetica,sans-Serif" font-size="10.00">&lt; R(Args...) const volatile</text>
<text xml:space="preserve" text-anchor="middle" x="1306.25" y="-192.5" font-family="Helvetica,sans-Serif" font-size="10.00"> &amp;&amp;, C &gt;</text>
</a>
</g>
</g>
<!-- Node20&#45;&gt;Node21 -->
<g id="edge25_Node000020_Node000021" class="edge">
<title>Node20&#45;&gt;Node21</title>
<g id="a_edge25_Node000020_Node000021"><a xlink:title=" ">
<path fill="none" stroke="#63b8ff" d="M1180.84,-238.83C1200.92,-233.86 1222.33,-228.55 1241.61,-223.77"/>
<polygon fill="#63b8ff" stroke="#63b8ff" points="1180.17,-235.39 1171.31,-241.19 1181.86,-242.19 1180.17,-235.39"/>
</a>
</g>
</g>
<!-- Node25 -->
<g id="Node000025" class="node">
<title>Node25</title>
<g id="a_Node000025"><a xlink:href="../../dd/d03/structmstd_1_1function__traits_3_01_r_07_args_8_8_8_08_01const_01volatile_01_6_00_01_c_01_4.html" target="_top" xlink:title=" ">
<polygon fill="white" stroke="#666666" points="1370.5,-168 1242,-168 1242,-124 1370.5,-124 1370.5,-168"/>
<text xml:space="preserve" text-anchor="start" x="1250" y="-154.5" font-family="Helvetica,sans-Serif" font-size="10.00">mstd::function_traits</text>
<text xml:space="preserve" text-anchor="start" x="1250" y="-142.5" font-family="Helvetica,sans-Serif" font-size="10.00">&lt; R(Args...) const volatile</text>
<text xml:space="preserve" text-anchor="middle" x="1306.25" y="-130.5" font-family="Helvetica,sans-Serif" font-size="10.00"> &amp;, C &gt;</text>
</a>
</g>
</g>
<!-- Node20&#45;&gt;Node25 -->
<g id="edge29_Node000020_Node000025" class="edge">
<title>Node20&#45;&gt;Node25</title>
<g id="a_edge29_Node000020_Node000025"><a xlink:title=" ">
<path fill="none" stroke="#63b8ff" d="M1178.29,-235.96C1179.73,-235.02 1181.14,-234.03 1182.5,-233 1206.31,-215.03 1196.06,-195.45 1219.5,-177 1226.22,-171.71 1233.92,-167.28 1241.88,-163.57"/>
<polygon fill="#63b8ff" stroke="#63b8ff" points="1176.57,-232.91 1169.62,-240.91 1180.04,-238.99 1176.57,-232.91"/>
</a>
</g>
</g>
<!-- Node29 -->
<g id="Node000029" class="node">
<title>Node29</title>
<g id="a_Node000029"><a xlink:href="../../d1/d86/structmstd_1_1function__traits_3_01_r_07_args_8_8_8_08_01const_01volatile_01noexcept_00_01_c_01_4.html" target="_top" xlink:title=" ">
<polygon fill="white" stroke="#666666" points="1370.5,-69 1242,-69 1242,-25 1370.5,-25 1370.5,-69"/>
<text xml:space="preserve" text-anchor="start" x="1250" y="-55.5" font-family="Helvetica,sans-Serif" font-size="10.00">mstd::function_traits</text>
<text xml:space="preserve" text-anchor="start" x="1250" y="-43.5" font-family="Helvetica,sans-Serif" font-size="10.00">&lt; R(Args...) const volatile</text>
<text xml:space="preserve" text-anchor="middle" x="1306.25" y="-31.5" font-family="Helvetica,sans-Serif" font-size="10.00"> noexcept, C &gt;</text>
</a>
</g>
</g>
<!-- Node20&#45;&gt;Node29 -->
<g id="edge33_Node000020_Node000029" class="edge">
<title>Node20&#45;&gt;Node29</title>
<g id="a_edge33_Node000020_Node000029"><a xlink:title=" ">
<path fill="none" stroke="#63b8ff" d="M1180.63,-234.79C1181.27,-234.21 1181.89,-233.61 1182.5,-233 1201.91,-213.54 1203.94,-137.65 1219.5,-115 1231.98,-96.84 1250.76,-81.17 1267.56,-69.47"/>
<polygon fill="#63b8ff" stroke="#63b8ff" points="1178.73,-231.84 1172.85,-240.65 1182.94,-237.43 1178.73,-231.84"/>
</a>
</g>
</g>
<!-- Node31 -->
<g id="Node000031" class="node">
<title>Node31</title>
<g id="a_Node000031"><a xlink:href="../../dd/dd4/structmstd_1_1function__traits_3_01_r_07_c_1_1_5_08_07_args_8_8_8_08_01const_01volatile_01_4.html" target="_top" xlink:title=" ">
<polygon fill="white" stroke="#666666" points="1365.25,-292 1247.25,-292 1247.25,-248 1365.25,-248 1365.25,-292"/>
<text xml:space="preserve" text-anchor="start" x="1255.25" y="-278.5" font-family="Helvetica,sans-Serif" font-size="10.00">mstd::function_traits</text>
<text xml:space="preserve" text-anchor="start" x="1255.25" y="-266.5" font-family="Helvetica,sans-Serif" font-size="10.00">&lt; R(C::*)(Args...) const</text>
<text xml:space="preserve" text-anchor="middle" x="1306.25" y="-254.5" font-family="Helvetica,sans-Serif" font-size="10.00"> volatile &gt;</text>
</a>
</g>
</g>
<!-- Node20&#45;&gt;Node31 -->
<g id="edge35_Node000020_Node000031" class="edge">
<title>Node20&#45;&gt;Node31</title>
<g id="a_edge35_Node000020_Node000031"><a xlink:title=" ">
<path fill="none" stroke="#63b8ff" d="M1189.62,-263.12C1208.96,-264.27 1229.03,-265.47 1246.93,-266.53"/>
<polygon fill="#63b8ff" stroke="#63b8ff" points="1190.04,-259.64 1179.85,-262.54 1189.62,-266.63 1190.04,-259.64"/>
</a>
</g>
</g>
<!-- Node22 -->
<g id="Node000022" class="node">
<title>Node22</title>
<g id="a_Node000022"><a xlink:href="../../df/d66/structmstd_1_1function__traits_3_01_r_07_args_8_8_8_08_01const_01volatile_01_6_6noexcept_00_01_c_01_4.html" target="_top" xlink:title=" ">
<polygon fill="white" stroke="#666666" points="1558.5,-230 1430,-230 1430,-186 1558.5,-186 1558.5,-230"/>
<text xml:space="preserve" text-anchor="start" x="1438" y="-216.5" font-family="Helvetica,sans-Serif" font-size="10.00">mstd::function_traits</text>
<text xml:space="preserve" text-anchor="start" x="1438" y="-204.5" font-family="Helvetica,sans-Serif" font-size="10.00">&lt; R(Args...) const volatile</text>
<text xml:space="preserve" text-anchor="middle" x="1494.25" y="-192.5" font-family="Helvetica,sans-Serif" font-size="10.00"> &amp;&amp;noexcept, C &gt;</text>
</a>
</g>
</g>
<!-- Node21&#45;&gt;Node22 -->
<g id="edge26_Node000021_Node000022" class="edge">
<title>Node21&#45;&gt;Node22</title>
<g id="a_edge26_Node000021_Node000022"><a xlink:title=" ">
<path fill="none" stroke="#63b8ff" d="M1382.09,-208C1397.88,-208 1414.4,-208 1429.73,-208"/>
<polygon fill="#63b8ff" stroke="#63b8ff" points="1382.25,-204.5 1372.25,-208 1382.25,-211.5 1382.25,-204.5"/>
</a>
</g>
</g>
<!-- Node24 -->
<g id="Node000024" class="node">
<title>Node24</title>
<g id="a_Node000024"><a xlink:href="../../d5/dd9/structmstd_1_1function__traits_3_01_r_07_c_1_1_5_08_07_args_8_8_8_08_01const_01volatile_01_6_6_01_4.html" target="_top" xlink:title=" ">
<polygon fill="white" stroke="#666666" points="1553.25,-292 1435.25,-292 1435.25,-248 1553.25,-248 1553.25,-292"/>
<text xml:space="preserve" text-anchor="start" x="1443.25" y="-278.5" font-family="Helvetica,sans-Serif" font-size="10.00">mstd::function_traits</text>
<text xml:space="preserve" text-anchor="start" x="1443.25" y="-266.5" font-family="Helvetica,sans-Serif" font-size="10.00">&lt; R(C::*)(Args...) const</text>
<text xml:space="preserve" text-anchor="middle" x="1494.25" y="-254.5" font-family="Helvetica,sans-Serif" font-size="10.00"> volatile &amp;&amp; &gt;</text>
</a>
</g>
</g>
<!-- Node21&#45;&gt;Node24 -->
<g id="edge28_Node000021_Node000024" class="edge">
<title>Node21&#45;&gt;Node24</title>
<g id="a_edge28_Node000021_Node000024"><a xlink:title=" ">
<path fill="none" stroke="#63b8ff" d="M1381.66,-232.8C1399.42,-238.72 1418.13,-244.96 1435.05,-250.6"/>
<polygon fill="#63b8ff" stroke="#63b8ff" points="1382.77,-229.48 1372.18,-229.64 1380.56,-236.12 1382.77,-229.48"/>
</a>
</g>
</g>
<!-- Node23 -->
<g id="Node000023" class="node">
<title>Node23</title>
<g id="a_Node000023"><a xlink:href="../../d9/d7d/structmstd_1_1function__traits_3_01_r_07_c_1_1_5_08_07_args_8_8_8_08_01const_01volatile_01_6_6noexcept_01_4.html" target="_top" xlink:title=" ">
<polygon fill="white" stroke="#666666" points="1713.5,-230 1595.5,-230 1595.5,-186 1713.5,-186 1713.5,-230"/>
<text xml:space="preserve" text-anchor="start" x="1603.5" y="-216.5" font-family="Helvetica,sans-Serif" font-size="10.00">mstd::function_traits</text>
<text xml:space="preserve" text-anchor="start" x="1603.5" y="-204.5" font-family="Helvetica,sans-Serif" font-size="10.00">&lt; R(C::*)(Args...) const</text>
<text xml:space="preserve" text-anchor="middle" x="1654.5" y="-192.5" font-family="Helvetica,sans-Serif" font-size="10.00"> volatile &amp;&amp;noexcept &gt;</text>
</a>
</g>
</g>
<!-- Node22&#45;&gt;Node23 -->
<g id="edge27_Node000022_Node000023" class="edge">
<title>Node22&#45;&gt;Node23</title>
<g id="a_edge27_Node000022_Node000023"><a xlink:title=" ">
<path fill="none" stroke="#63b8ff" d="M1570.1,-208C1578.52,-208 1587,-208 1595.16,-208"/>
<polygon fill="#63b8ff" stroke="#63b8ff" points="1570.22,-204.5 1560.22,-208 1570.22,-211.5 1570.22,-204.5"/>
</a>
</g>
</g>
<!-- Node26 -->
<g id="Node000026" class="node">
<title>Node26</title>
<g id="a_Node000026"><a xlink:href="../../d3/d6e/structmstd_1_1function__traits_3_01_r_07_args_8_8_8_08_01const_01volatile_01_6noexcept_00_01_c_01_4.html" target="_top" xlink:title=" ">
<polygon fill="white" stroke="#666666" points="1558.5,-106 1430,-106 1430,-62 1558.5,-62 1558.5,-106"/>
<text xml:space="preserve" text-anchor="start" x="1438" y="-92.5" font-family="Helvetica,sans-Serif" font-size="10.00">mstd::function_traits</text>
<text xml:space="preserve" text-anchor="start" x="1438" y="-80.5" font-family="Helvetica,sans-Serif" font-size="10.00">&lt; R(Args...) const volatile</text>
<text xml:space="preserve" text-anchor="middle" x="1494.25" y="-68.5" font-family="Helvetica,sans-Serif" font-size="10.00"> &amp;noexcept, C &gt;</text>
</a>
</g>
</g>
<!-- Node25&#45;&gt;Node26 -->
<g id="edge30_Node000025_Node000026" class="edge">
<title>Node25&#45;&gt;Node26</title>
<g id="a_edge30_Node000025_Node000026"><a xlink:title=" ">
<path fill="none" stroke="#63b8ff" d="M1381.63,-121.21C1397.56,-115.9 1414.25,-110.33 1429.73,-105.17"/>
<polygon fill="#63b8ff" stroke="#63b8ff" points="1380.56,-117.88 1372.18,-124.36 1382.77,-124.52 1380.56,-117.88"/>
</a>
</g>
</g>
<!-- Node28 -->
<g id="Node000028" class="node">
<title>Node28</title>
<g id="a_Node000028"><a xlink:href="../../d4/df6/structmstd_1_1function__traits_3_01_r_07_c_1_1_5_08_07_args_8_8_8_08_01const_01volatile_01_6_01_4.html" target="_top" xlink:title=" ">
<polygon fill="white" stroke="#666666" points="1553.25,-168 1435.25,-168 1435.25,-124 1553.25,-124 1553.25,-168"/>
<text xml:space="preserve" text-anchor="start" x="1443.25" y="-154.5" font-family="Helvetica,sans-Serif" font-size="10.00">mstd::function_traits</text>
<text xml:space="preserve" text-anchor="start" x="1443.25" y="-142.5" font-family="Helvetica,sans-Serif" font-size="10.00">&lt; R(C::*)(Args...) const</text>
<text xml:space="preserve" text-anchor="middle" x="1494.25" y="-130.5" font-family="Helvetica,sans-Serif" font-size="10.00"> volatile &amp; &gt;</text>
</a>
</g>
</g>
<!-- Node25&#45;&gt;Node28 -->
<g id="edge32_Node000025_Node000028" class="edge">
<title>Node25&#45;&gt;Node28</title>
<g id="a_edge32_Node000025_Node000028"><a xlink:title=" ">
<path fill="none" stroke="#63b8ff" d="M1382.16,-146C1399.77,-146 1418.29,-146 1435.05,-146"/>
<polygon fill="#63b8ff" stroke="#63b8ff" points="1382.25,-142.5 1372.25,-146 1382.25,-149.5 1382.25,-142.5"/>
</a>
</g>
</g>
<!-- Node27 -->
<g id="Node000027" class="node">
<title>Node27</title>
<g id="a_Node000027"><a xlink:href="../../d5/ded/structmstd_1_1function__traits_3_01_r_07_c_1_1_5_08_07_args_8_8_8_08_01const_01volatile_01_6noexcept_01_4.html" target="_top" xlink:title=" ">
<polygon fill="white" stroke="#666666" points="1713.5,-106 1595.5,-106 1595.5,-62 1713.5,-62 1713.5,-106"/>
<text xml:space="preserve" text-anchor="start" x="1603.5" y="-92.5" font-family="Helvetica,sans-Serif" font-size="10.00">mstd::function_traits</text>
<text xml:space="preserve" text-anchor="start" x="1603.5" y="-80.5" font-family="Helvetica,sans-Serif" font-size="10.00">&lt; R(C::*)(Args...) const</text>
<text xml:space="preserve" text-anchor="middle" x="1654.5" y="-68.5" font-family="Helvetica,sans-Serif" font-size="10.00"> volatile &amp;noexcept &gt;</text>
</a>
</g>
</g>
<!-- Node26&#45;&gt;Node27 -->
<g id="edge31_Node000026_Node000027" class="edge">
<title>Node26&#45;&gt;Node27</title>
<g id="a_edge31_Node000026_Node000027"><a xlink:title=" ">
<path fill="none" stroke="#63b8ff" d="M1570.1,-84C1578.52,-84 1587,-84 1595.16,-84"/>
<polygon fill="#63b8ff" stroke="#63b8ff" points="1570.22,-80.5 1560.22,-84 1570.22,-87.5 1570.22,-80.5"/>
</a>
</g>
</g>
<!-- Node30 -->
<g id="Node000030" class="node">
<title>Node30</title>
<g id="a_Node000030"><a xlink:href="../../db/d12/structmstd_1_1function__traits_3_01_r_07_c_1_1_5_08_07_args_8_8_8_08_01const_01volatile_01noexcept_01_4.html" target="_top" xlink:title=" ">
<polygon fill="white" stroke="#666666" points="1553.25,-44 1435.25,-44 1435.25,0 1553.25,0 1553.25,-44"/>
<text xml:space="preserve" text-anchor="start" x="1443.25" y="-30.5" font-family="Helvetica,sans-Serif" font-size="10.00">mstd::function_traits</text>
<text xml:space="preserve" text-anchor="start" x="1443.25" y="-18.5" font-family="Helvetica,sans-Serif" font-size="10.00">&lt; R(C::*)(Args...) const</text>
<text xml:space="preserve" text-anchor="middle" x="1494.25" y="-6.5" font-family="Helvetica,sans-Serif" font-size="10.00"> volatile noexcept &gt;</text>
</a>
</g>
</g>
<!-- Node29&#45;&gt;Node30 -->
<g id="edge34_Node000029_Node000030" class="edge">
<title>Node29&#45;&gt;Node30</title>
<g id="a_edge34_Node000029_Node000030"><a xlink:title=" ">
<path fill="none" stroke="#63b8ff" d="M1381.91,-36.97C1399.6,-34.59 1418.21,-32.09 1435.05,-29.82"/>
<polygon fill="#63b8ff" stroke="#63b8ff" points="1381.69,-33.46 1372.24,-38.26 1382.62,-40.4 1381.69,-33.46"/>
</a>
</g>
</g>
</g>
</svg>

<g id="navigator" transform="translate(0 0)" fill="#404254">
  <rect fill="#f2f5e9" fill-opacity="0.5" stroke="#606060" stroke-width=".5" x="0" y="0" width="60" height="60"/>
  <use id="zoomplus" xlink:href="#zoomPlus" x="17" y="9" onmousedown="handleZoom(evt,'in')"/>
  <use id="zoomminus" xlink:href="#zoomMin" x="42" y="9" onmousedown="handleZoom(evt,'out')"/>
  <use id="reset" xlink:href="#resetDef" x="30" y="36" onmousedown="handleReset()"/>
   <use id="arrowup" xlink:href="#arrowUp" x="0" y="0" onmousedown="handlePan(0,-1)"/>
  <use id="arrowright" xlink:href="#arrowRight" x="0" y="0" onmousedown="handlePan(1,0)"/>
  <use id="arrowdown" xlink:href="#arrowDown" x="0" y="0" onmousedown="handlePan(0,1)"/>
  <use id="arrowleft" xlink:href="#arrowLeft" x="0" y="0" onmousedown="handlePan(-1,0)"/>
</g>
<svg viewBox="0 0 15 15" width="100%" height="30px" preserveAspectRatio="xMaxYMin meet">
 <g id="arrow_out" transform="scale(0.3 0.3)">
  <a xlink:href="structmstd_1_1function__traits_3_01_r_07_args_8_8_8_08_01const_00_01_c_01_4__inherit__graph_org.svg" target="_base">
   <rect id="button" ry="5" rx="5" y="6" x="6" height="38" width="38"
        fill="#f2f5e9" fill-opacity="0.5" stroke="#606060" stroke-width="1.0"/>
   <path id="arrow"
     d="M 11.500037,31.436501 C 11.940474,20.09759 22.043105,11.32322 32.158766,21.979434 L 37.068811,17.246167 C 37.068811,17.246167 37.088388,32 37.088388,32 L 22.160133,31.978069 C 22.160133,31.978069 26.997745,27.140456 26.997745,27.140456 C 18.528582,18.264221 13.291696,25.230495 11.500037,31.436501 z"
     style="fill:#404040;"/>
  </a>
 </g>
</svg>

<style type='text/css'>
<![CDATA[
[data-mouse-over-selected='false'] { opacity: 0.7; }
[data-mouse-over-selected='true']  { opacity: 1.0; }
]]>
</style>
<script type="application/ecmascript"><![CDATA[
document.addEventListener('DOMContentLoaded', (event) => {
  highlightEdges();
  highlightAdjacentNodes();
});
]]></script>
</svg>
