<?xml version="1.0" encoding="UTF-8" standalone="no"?>
<!DOCTYPE svg PUBLIC "-//W3C//DTD SVG 1.1//EN"
 "http://www.w3.org/Graphics/SVG/1.1/DTD/svg11.dtd">
<!-- Generated by graphviz version 14.1.1 (20251213.1925)
 -->
<!-- Title: mstd::function_traits&lt; F, std::void_t&lt; decltype(&amp;F::operator())&gt; &gt; Pages: 1 -->
<svg width="1214pt" height="448pt"
 viewBox="0.00 0.00 1214.00 448.00" xmlns="http://www.w3.org/2000/svg" xmlns:xlink="http://www.w3.org/1999/xlink">
<g id="graph0" class="graph" transform="scale(1 1) rotate(0) translate(4 444.13)">
<title>mstd::function_traits&lt; F, std::void_t&lt; decltype(&amp;F::operator())&gt; &gt;</title>
<!-- Node1 -->
<g id="Node000001" class="node">
<title>Node1</title>
<g id="a_Node000001"><a xlink:title=" ">
<polygon fill="#999999" stroke="#666666" points="1205.5,-175.13 1077.75,-175.13 1077.75,-131.13 1205.5,-131.13 1205.5,-175.13"/>
<text xml:space="preserve" text-anchor="start" x="1085.75" y="-161.63" font-family="Helvetica,sans-Serif" font-size="10.00">mstd::function_traits</text>
<text xml:space="preserve" text-anchor="start" x="1085.75" y="-149.63" font-family="Helvetica,sans-Serif" font-size="10.00">&lt; F, std::void_t&lt; decltype</text>
<text xml:space="preserve" text-anchor="middle" x="1141.62" y="-137.63" font-family="Helvetica,sans-Serif" font-size="10.00">(&amp;F::operator())&gt; &gt;</text>
</a>
</g>
</g>
<!-- Node2 -->
<g id="Node000002" class="node">
<title>Node2</title>
<g id="a_Node000002"><a xlink:href="../../d0/d74/structmstd_1_1utils_1_1function__default__type__traits.html" target="_top" xlink:title=" ">
<polygon fill="white" stroke="#666666" points="557.25,-156.13 455,-156.13 455,-112.13 557.25,-112.13 557.25,-156.13"/>
<text xml:space="preserve" text-anchor="start" x="463" y="-142.63" font-family="Helvetica,sans-Serif" font-size="10.00">mstd::utils::function</text>
<text xml:space="preserve" text-anchor="start" x="463" y="-130.63" font-family="Helvetica,sans-Serif" font-size="10.00">_default_type_traits</text>
<text xml:space="preserve" text-anchor="middle" x="506.12" y="-118.63" font-family="Helvetica,sans-Serif" font-size="10.00">&lt; false &gt;</text>
</a>
</g>
</g>
<!-- Node2&#45;&gt;Node1 -->
<g id="edge1_Node000001_Node000002" class="edge">
<title>Node2&#45;&gt;Node1</title>
<g id="a_edge1_Node000001_Node000002"><a xlink:title=" ">
<path fill="none" stroke="#63b8ff" d="M569.03,-138.81C571.13,-138.93 573.21,-139.03 575.25,-139.13 757.41,-148.07 972.88,-151.41 1077.42,-152.57"/>
<polygon fill="#63b8ff" stroke="#63b8ff" points="569.41,-135.32 559.21,-138.21 568.98,-142.31 569.41,-135.32"/>
</a>
</g>
</g>
<!-- Node5 -->
<g id="Node000005" class="node">
<title>Node5</title>
<g id="a_Node000005"><a xlink:href="../../d7/dcb/structmstd_1_1function__traits.html" target="_top" xlink:title=" ">
<polygon fill="white" stroke="#666666" points="1040.75,-105.13 907,-105.13 907,-73.13 1040.75,-73.13 1040.75,-105.13"/>
<text xml:space="preserve" text-anchor="start" x="915" y="-91.63" font-family="Helvetica,sans-Serif" font-size="10.00">mstd::function_traits</text>
<text xml:space="preserve" text-anchor="middle" x="973.88" y="-79.63" font-family="Helvetica,sans-Serif" font-size="10.00">&lt; decltype(&amp;F::operator())&gt;</text>
</a>
</g>
</g>
<!-- Node2&#45;&gt;Node5 -->
<g id="edge6_Node000005_Node000002" class="edge">
<title>Node2&#45;&gt;Node5</title>
<g id="a_edge6_Node000005_Node000002"><a xlink:title=" ">
<path fill="none" stroke="#63b8ff" d="M568.78,-128.18C656.5,-119.7 816.66,-104.23 906.76,-95.52"/>
<polygon fill="#63b8ff" stroke="#63b8ff" points="568.53,-124.68 558.92,-129.13 569.21,-131.65 568.53,-124.68"/>
</a>
</g>
</g>
<!-- Node6 -->
<g id="Node000006" class="node">
<title>Node6</title>
<g id="a_Node000006"><a xlink:href="../../d7/dcb/structmstd_1_1function__traits.html" target="_top" xlink:title=" ">
<polygon fill="white" stroke="#666666" points="747.25,-47.13 642,-47.13 642,-15.13 747.25,-15.13 747.25,-47.13"/>
<text xml:space="preserve" text-anchor="start" x="650" y="-33.63" font-family="Helvetica,sans-Serif" font-size="10.00">mstd::function_traits</text>
<text xml:space="preserve" text-anchor="middle" x="694.62" y="-21.63" font-family="Helvetica,sans-Serif" font-size="10.00">&lt; F, C &gt;</text>
</a>
</g>
</g>
<!-- Node2&#45;&gt;Node6 -->
<g id="edge9_Node000006_Node000002" class="edge">
<title>Node2&#45;&gt;Node6</title>
<g id="a_edge9_Node000006_Node000002"><a xlink:title=" ">
<path fill="none" stroke="#63b8ff" d="M557.37,-106.39C591.43,-87.57 635.3,-63.35 663.93,-47.54"/>
<polygon fill="#63b8ff" stroke="#63b8ff" points="555.98,-103.16 548.92,-111.05 559.36,-109.28 555.98,-103.16"/>
</a>
</g>
</g>
<!-- Node3 -->
<g id="Node000003" class="node">
<title>Node3</title>
<g id="a_Node000003"><a xlink:title=" ">
<polygon fill="white" stroke="#666666" points="155.5,-138.13 0,-138.13 0,-106.13 155.5,-106.13 155.5,-138.13"/>
<text xml:space="preserve" text-anchor="start" x="8" y="-124.63" font-family="Helvetica,sans-Serif" font-size="10.00">static _MSTD_CONSTEXPR17</text>
<text xml:space="preserve" text-anchor="middle" x="77.75" y="-112.63" font-family="Helvetica,sans-Serif" font-size="10.00"> const bool</text>
</a>
</g>
</g>
<!-- Node3&#45;&gt;Node1 -->
<g id="edge11_Node000001_Node000003" class="edge">
<title>Node3&#45;&gt;Node1</title>
<g id="a_edge11_Node000001_Node000003"><a xlink:title=" ">
<path fill="none" stroke="#9a32cd" stroke-dasharray="5,2" d="M79.98,-149.93C84,-203.49 101.07,-320.62 173.5,-376.13 226.07,-416.43 255.64,-390.13 321.88,-390.13 321.88,-390.13 321.88,-390.13 974.88,-390.13 1079.06,-390.13 1123.25,-234.43 1136.25,-175.43"/>
<polygon fill="#9a32cd" stroke="#9a32cd" points="83.49,-149.89 79.36,-140.14 76.5,-150.34 83.49,-149.89"/>
</a>
</g>
<text xml:space="preserve" text-anchor="start" x="578.25" y="-427.63" font-family="Helvetica,sans-Serif" font-size="10.00" fill="grey">is_free</text>
<text xml:space="preserve" text-anchor="start" x="578.25" y="-411.63" font-family="Helvetica,sans-Serif" font-size="10.00" fill="grey">is_functor</text>
<text xml:space="preserve" text-anchor="start" x="578.25" y="-395.63" font-family="Helvetica,sans-Serif" font-size="10.00" fill="grey">is_ptr</text>
</g>
<!-- Node3&#45;&gt;Node2 -->
<g id="edge2_Node000002_Node000003" class="edge">
<title>Node3&#45;&gt;Node2</title>
<g id="a_edge2_Node000002_Node000003"><a xlink:title=" ">
<path fill="none" stroke="#9a32cd" stroke-dasharray="5,2" d="M167.41,-124.63C254.34,-127.08 383.82,-130.72 454.53,-132.71"/>
<polygon fill="#9a32cd" stroke="#9a32cd" points="167.57,-121.13 157.48,-124.35 167.37,-128.13 167.57,-121.13"/>
</a>
</g>
<text xml:space="preserve" text-anchor="start" x="285.75" y="-295.79" font-family="Helvetica,sans-Serif" font-size="10.00" fill="grey">is_const</text>
<text xml:space="preserve" text-anchor="start" x="285.75" y="-279.79" font-family="Helvetica,sans-Serif" font-size="10.00" fill="grey">is_free</text>
<text xml:space="preserve" text-anchor="start" x="285.75" y="-263.79" font-family="Helvetica,sans-Serif" font-size="10.00" fill="grey">is_functor</text>
<text xml:space="preserve" text-anchor="start" x="285.75" y="-247.79" font-family="Helvetica,sans-Serif" font-size="10.00" fill="grey">is_member</text>
<text xml:space="preserve" text-anchor="start" x="285.75" y="-231.79" font-family="Helvetica,sans-Serif" font-size="10.00" fill="grey">is_moved</text>
<text xml:space="preserve" text-anchor="start" x="285.75" y="-215.79" font-family="Helvetica,sans-Serif" font-size="10.00" fill="grey">is_noexcept</text>
<text xml:space="preserve" text-anchor="start" x="285.75" y="-199.79" font-family="Helvetica,sans-Serif" font-size="10.00" fill="grey">is_parent_moved</text>
<text xml:space="preserve" text-anchor="start" x="285.75" y="-183.79" font-family="Helvetica,sans-Serif" font-size="10.00" fill="grey">is_parent_ref</text>
<text xml:space="preserve" text-anchor="start" x="285.75" y="-167.79" font-family="Helvetica,sans-Serif" font-size="10.00" fill="grey">is_ptr</text>
<text xml:space="preserve" text-anchor="start" x="285.75" y="-151.79" font-family="Helvetica,sans-Serif" font-size="10.00" fill="grey">is_ref</text>
<text xml:space="preserve" text-anchor="start" x="285.75" y="-135.79" font-family="Helvetica,sans-Serif" font-size="10.00" fill="grey"> &#160;...</text>
</g>
<!-- Node4 -->
<g id="Node000004" class="node">
<title>Node4</title>
<g id="a_Node000004"><a xlink:href="../../d0/d74/structmstd_1_1utils_1_1function__default__type__traits.html" target="_top" xlink:title=" ">
<polygon fill="white" stroke="#666666" points="374,-362.13 271.75,-362.13 271.75,-318.13 374,-318.13 374,-362.13"/>
<text xml:space="preserve" text-anchor="start" x="279.75" y="-348.63" font-family="Helvetica,sans-Serif" font-size="10.00">mstd::utils::function</text>
<text xml:space="preserve" text-anchor="start" x="279.75" y="-336.63" font-family="Helvetica,sans-Serif" font-size="10.00">_default_type_traits</text>
<text xml:space="preserve" text-anchor="middle" x="322.88" y="-324.63" font-family="Helvetica,sans-Serif" font-size="10.00">&lt; IsMember &gt;</text>
</a>
</g>
</g>
<!-- Node3&#45;&gt;Node4 -->
<g id="edge4_Node000004_Node000003" class="edge">
<title>Node3&#45;&gt;Node4</title>
<g id="a_edge4_Node000004_Node000003"><a xlink:title=" ">
<path fill="none" stroke="#9a32cd" stroke-dasharray="5,2" d="M166.68,-141.51C198.64,-152.86 232.18,-170.61 253.75,-198.13 283.22,-235.75 246.44,-263.6 271.75,-304.13 274.93,-309.22 279.11,-313.81 283.71,-317.87"/>
<polygon fill="#9a32cd" stroke="#9a32cd" points="167.94,-138.24 157.35,-138.38 165.72,-144.88 167.94,-138.24"/>
</a>
</g>
<text xml:space="preserve" text-anchor="start" x="176.5" y="-363.63" font-family="Helvetica,sans-Serif" font-size="10.00" fill="grey">is_const</text>
<text xml:space="preserve" text-anchor="start" x="176.5" y="-347.63" font-family="Helvetica,sans-Serif" font-size="10.00" fill="grey">is_free</text>
<text xml:space="preserve" text-anchor="start" x="176.5" y="-331.63" font-family="Helvetica,sans-Serif" font-size="10.00" fill="grey">is_functor</text>
<text xml:space="preserve" text-anchor="start" x="176.5" y="-315.63" font-family="Helvetica,sans-Serif" font-size="10.00" fill="grey">is_member</text>
<text xml:space="preserve" text-anchor="start" x="176.5" y="-299.63" font-family="Helvetica,sans-Serif" font-size="10.00" fill="grey">is_moved</text>
<text xml:space="preserve" text-anchor="start" x="176.5" y="-283.63" font-family="Helvetica,sans-Serif" font-size="10.00" fill="grey">is_noexcept</text>
<text xml:space="preserve" text-anchor="start" x="176.5" y="-267.63" font-family="Helvetica,sans-Serif" font-size="10.00" fill="grey">is_parent_moved</text>
<text xml:space="preserve" text-anchor="start" x="176.5" y="-251.63" font-family="Helvetica,sans-Serif" font-size="10.00" fill="grey">is_parent_ref</text>
<text xml:space="preserve" text-anchor="start" x="176.5" y="-235.63" font-family="Helvetica,sans-Serif" font-size="10.00" fill="grey">is_ptr</text>
<text xml:space="preserve" text-anchor="start" x="176.5" y="-219.63" font-family="Helvetica,sans-Serif" font-size="10.00" fill="grey">is_ref</text>
<text xml:space="preserve" text-anchor="start" x="176.5" y="-203.63" font-family="Helvetica,sans-Serif" font-size="10.00" fill="grey"> &#160;...</text>
</g>
<!-- Node3&#45;&gt;Node5 -->
<g id="edge7_Node000005_Node000003" class="edge">
<title>Node3&#45;&gt;Node5</title>
<g id="a_edge7_Node000005_Node000003"><a xlink:title=" ">
<path fill="none" stroke="#9a32cd" stroke-dasharray="5,2" d="M144.69,-102.75C193.24,-90.18 261.1,-76.13 321.88,-76.13 321.88,-76.13 321.88,-76.13 695.62,-76.13 767.78,-76.13 850.39,-80.58 906.53,-84.28"/>
<polygon fill="#9a32cd" stroke="#9a32cd" points="143.95,-99.33 135.18,-105.27 145.74,-106.1 143.95,-99.33"/>
</a>
</g>
<text xml:space="preserve" text-anchor="start" x="491.5" y="-81.63" font-family="Helvetica,sans-Serif" font-size="10.00" fill="grey">is_free</text>
</g>
<!-- Node3&#45;&gt;Node6 -->
<g id="edge10_Node000006_Node000003" class="edge">
<title>Node3&#45;&gt;Node6</title>
<g id="a_edge10_Node000006_Node000003"><a xlink:title=" ">
<path fill="none" stroke="#9a32cd" stroke-dasharray="5,2" d="M107.1,-99.03C125.02,-85.79 149.29,-70.25 173.5,-62.13 337.32,-7.24 546.22,-17 641.74,-25.5"/>
<polygon fill="#9a32cd" stroke="#9a32cd" points="105.39,-95.93 99.55,-104.77 109.63,-101.5 105.39,-95.93"/>
</a>
</g>
<text xml:space="preserve" text-anchor="start" x="399.88" y="-27.7" font-family="Helvetica,sans-Serif" font-size="10.00" fill="grey">is_free</text>
</g>
<!-- Node4&#45;&gt;Node2 -->
<g id="edge3_Node000002_Node000004" class="edge">
<title>Node4&#45;&gt;Node2</title>
<g id="a_edge3_Node000002_Node000004"><a xlink:title=" ">
<path fill="none" stroke="orange" stroke-dasharray="5,2" d="M366.69,-310.72C369.23,-308.57 371.69,-306.37 374,-304.13 422.91,-256.86 468.73,-190.59 491,-156.44"/>
<polygon fill="orange" stroke="orange" points="364.65,-307.88 359.03,-316.86 369.02,-313.34 364.65,-307.88"/>
</a>
</g>
<text xml:space="preserve" text-anchor="start" x="395" y="-288.76" font-family="Helvetica,sans-Serif" font-size="10.00" fill="grey">&lt; false &gt;</text>
</g>
<!-- Node5&#45;&gt;Node1 -->
<g id="edge5_Node000001_Node000005" class="edge">
<title>Node5&#45;&gt;Node1</title>
<g id="a_edge5_Node000001_Node000005"><a xlink:title=" ">
<path fill="none" stroke="#63b8ff" d="M1028.07,-109.68C1045.42,-116.37 1064.77,-123.85 1082.47,-130.68"/>
<polygon fill="#63b8ff" stroke="#63b8ff" points="1029.56,-106.5 1018.97,-106.16 1027.04,-113.03 1029.56,-106.5"/>
</a>
</g>
</g>
<!-- Node6&#45;&gt;Node1 -->
<g id="edge12_Node000001_Node000006" class="edge">
<title>Node6&#45;&gt;Node1</title>
<g id="a_edge12_Node000001_Node000006"><a xlink:title=" ">
<path fill="none" stroke="orange" stroke-dasharray="5,2" d="M758.88,-14.8C831.14,0.33 950.97,14.45 1040.75,-30.13 1083.99,-51.6 1114.88,-101.44 1130.04,-130.67"/>
<polygon fill="orange" stroke="orange" points="758.21,-11.37 749.18,-16.91 759.69,-18.21 758.21,-11.37"/>
</a>
</g>
<text xml:space="preserve" text-anchor="start" x="918" y="-51.63" font-family="Helvetica,sans-Serif" font-size="10.00" fill="grey">&lt; F, std::void_t&lt; decltype</text>
<text xml:space="preserve" text-anchor="start" x="918" y="-35.63" font-family="Helvetica,sans-Serif" font-size="10.00" fill="grey">  (&amp;F::operator())&gt; &gt;</text>
</g>
<!-- Node6&#45;&gt;Node5 -->
<g id="edge8_Node000005_Node000006" class="edge">
<title>Node6&#45;&gt;Node5</title>
<g id="a_edge8_Node000005_Node000006"><a xlink:title=" ">
<path fill="none" stroke="orange" stroke-dasharray="5,2" d="M758.56,-28.7C796.94,-28.84 846.62,-31.96 889,-44.13 910.6,-50.34 932.92,-62.65 949.1,-72.83"/>
<polygon fill="orange" stroke="orange" points="759.04,-25.2 749.05,-28.73 759.06,-32.2 759.04,-25.2"/>
</a>
</g>
<text xml:space="preserve" text-anchor="start" x="768.25" y="-49.63" font-family="Helvetica,sans-Serif" font-size="10.00" fill="grey">&lt; decltype(&amp;F::operator())&gt;</text>
</g>
</g>
</svg>
