<?xml version="1.0" encoding="UTF-8" standalone="no"?>
<!DOCTYPE svg PUBLIC "-//W3C//DTD SVG 1.1//EN"
 "http://www.w3.org/Graphics/SVG/1.1/DTD/svg11.dtd">
<!-- Generated by graphviz version 14.1.1 (20251213.1925)
 -->
<!-- Title: mstd::are_signed_integrals&lt; Ns &gt; Pages: 1 -->
<svg width="732pt" height="108pt"
 viewBox="0.00 0.00 732.00 108.00" xmlns="http://www.w3.org/2000/svg" xmlns:xlink="http://www.w3.org/1999/xlink">
<g id="graph0" class="graph" transform="scale(1 1) rotate(0) translate(4 104)">
<title>mstd::are_signed_integrals&lt; Ns &gt;</title>
<!-- Node1 -->
<g id="Node000001" class="node">
<title>Node1</title>
<g id="a_Node000001"><a xlink:title=" ">
<polygon fill="#999999" stroke="#666666" points="723.75,-66 590.75,-66 590.75,-34 723.75,-34 723.75,-66"/>
<text xml:space="preserve" text-anchor="start" x="598.75" y="-52.5" font-family="Helvetica,sans-Serif" font-size="10.00">mstd::are_signed_integrals</text>
<text xml:space="preserve" text-anchor="middle" x="657.25" y="-40.5" font-family="Helvetica,sans-Serif" font-size="10.00">&lt; Ns &gt;</text>
</a>
</g>
</g>
<!-- Node2 -->
<g id="Node000002" class="node">
<title>Node2</title>
<g id="a_Node000002"><a xlink:href="../../dd/def/structmstd_1_1all__check.html" target="_top" xlink:title=" ">
<polygon fill="white" stroke="#666666" points="553.75,-72 438,-72 438,-28 553.75,-28 553.75,-72"/>
<text xml:space="preserve" text-anchor="start" x="446" y="-58.5" font-family="Helvetica,sans-Serif" font-size="10.00">mstd::all_check&lt; mstd</text>
<text xml:space="preserve" text-anchor="start" x="446" y="-46.5" font-family="Helvetica,sans-Serif" font-size="10.00">::is_signed_integral,</text>
<text xml:space="preserve" text-anchor="middle" x="495.88" y="-34.5" font-family="Helvetica,sans-Serif" font-size="10.00"> Ns... &gt;</text>
</a>
</g>
</g>
<!-- Node2&#45;&gt;Node1 -->
<g id="edge1_Node000001_Node000002" class="edge">
<title>Node2&#45;&gt;Node1</title>
<g id="a_edge1_Node000001_Node000002"><a xlink:title=" ">
<path fill="none" stroke="#63b8ff" d="M565.48,-50C573.72,-50 582.13,-50 590.34,-50"/>
<polygon fill="#63b8ff" stroke="#63b8ff" points="565.48,-46.5 555.48,-50 565.48,-53.5 565.48,-46.5"/>
</a>
</g>
</g>
<!-- Node3 -->
<g id="Node000003" class="node">
<title>Node3</title>
<g id="a_Node000003"><a xlink:title=" ">
<polygon fill="white" stroke="#666666" points="278.25,-100 147.5,-100 147.5,-56 278.25,-56 278.25,-100"/>
<text xml:space="preserve" text-anchor="start" x="155.5" y="-86.5" font-family="Helvetica,sans-Serif" font-size="10.00">std::bool_constant</text>
<text xml:space="preserve" text-anchor="start" x="155.5" y="-74.5" font-family="Helvetica,sans-Serif" font-size="10.00">&lt;(mstd::is_signed_integral</text>
<text xml:space="preserve" text-anchor="middle" x="212.88" y="-62.5" font-family="Helvetica,sans-Serif" font-size="10.00">&lt; Ts &gt;::value &amp;&amp;...)&gt;</text>
</a>
</g>
</g>
<!-- Node3&#45;&gt;Node2 -->
<g id="edge2_Node000002_Node000003" class="edge">
<title>Node3&#45;&gt;Node2</title>
<g id="a_edge2_Node000002_Node000003"><a xlink:title=" ">
<path fill="none" stroke="#63b8ff" d="M289.86,-74.97C328.87,-72.87 377.09,-69.45 420,-64 425.77,-63.27 431.77,-62.37 437.75,-61.39"/>
<polygon fill="#63b8ff" stroke="#63b8ff" points="289.91,-71.46 280.1,-75.47 290.27,-78.45 289.91,-71.46"/>
</a>
</g>
</g>
<!-- Node4 -->
<g id="Node000004" class="node">
<title>Node4</title>
<g id="a_Node000004"><a xlink:href="../../dd/def/structmstd_1_1all__check.html" target="_top" xlink:title=" ">
<polygon fill="white" stroke="#666666" points="275.62,-38 150.12,-38 150.12,-6 275.62,-6 275.62,-38"/>
<text xml:space="preserve" text-anchor="start" x="158.12" y="-24.5" font-family="Helvetica,sans-Serif" font-size="10.00">mstd::all_check&lt; Check,</text>
<text xml:space="preserve" text-anchor="middle" x="212.88" y="-12.5" font-family="Helvetica,sans-Serif" font-size="10.00"> Ts &gt;</text>
</a>
</g>
</g>
<!-- Node4&#45;&gt;Node2 -->
<g id="edge3_Node000002_Node000004" class="edge">
<title>Node4&#45;&gt;Node2</title>
<g id="a_edge3_Node000002_Node000004"><a xlink:title=" ">
<path fill="none" stroke="orange" stroke-dasharray="5,2" d="M287.49,-18.27C327.03,-17.57 376.46,-18.76 420,-26 425.79,-26.96 431.75,-28.28 437.65,-29.8"/>
<polygon fill="orange" stroke="orange" points="287.52,-14.77 277.6,-18.5 287.68,-21.77 287.52,-14.77"/>
</a>
</g>
<text xml:space="preserve" text-anchor="start" x="299.25" y="-47.5" font-family="Helvetica,sans-Serif" font-size="10.00" fill="grey">&lt; mstd::is_signed_integral,</text>
<text xml:space="preserve" text-anchor="start" x="299.25" y="-31.5" font-family="Helvetica,sans-Serif" font-size="10.00" fill="grey">   Ns... &gt;</text>
</g>
<!-- Node5 -->
<g id="Node000005" class="node">
<title>Node5</title>
<g id="a_Node000005"><a xlink:title=" ">
<polygon fill="white" stroke="#666666" points="110.5,-44 0,-44 0,0 110.5,0 110.5,-44"/>
<text xml:space="preserve" text-anchor="start" x="8" y="-30.5" font-family="Helvetica,sans-Serif" font-size="10.00">std::bool_constant</text>
<text xml:space="preserve" text-anchor="start" x="8" y="-18.5" font-family="Helvetica,sans-Serif" font-size="10.00">&lt;(Check&lt; Ts &gt;::value</text>
<text xml:space="preserve" text-anchor="middle" x="55.25" y="-6.5" font-family="Helvetica,sans-Serif" font-size="10.00"> &amp;&amp;...)&gt;</text>
</a>
</g>
</g>
<!-- Node5&#45;&gt;Node4 -->
<g id="edge4_Node000004_Node000005" class="edge">
<title>Node5&#45;&gt;Node4</title>
<g id="a_edge4_Node000004_Node000005"><a xlink:title=" ">
<path fill="none" stroke="#63b8ff" d="M122.12,-22C131.28,-22 140.67,-22 149.75,-22"/>
<polygon fill="#63b8ff" stroke="#63b8ff" points="122.19,-18.5 112.19,-22 122.19,-25.5 122.19,-18.5"/>
</a>
</g>
</g>
</g>
</svg>
