<?xml version="1.0" encoding="UTF-8" standalone="no"?>
<!DOCTYPE svg PUBLIC "-//W3C//DTD SVG 1.1//EN"
 "http://www.w3.org/Graphics/SVG/1.1/DTD/svg11.dtd">
<!-- Generated by graphviz version 14.1.1 (20251213.1925)
 -->
<!-- Title: mstd::is_iterator&lt; T, std::void_t&lt; typename std::iterator_traits&lt; T &gt;::iterator_category &gt; &gt; Pages: 1 -->
<svg width="268pt" height="239pt"
 viewBox="0.00 0.00 268.00 239.00" xmlns="http://www.w3.org/2000/svg" xmlns:xlink="http://www.w3.org/1999/xlink">

<svg id="main" version="1.1" xmlns="http://www.w3.org/2000/svg" xmlns:xlink="http://www.w3.org/1999/xlink" xml:space="preserve">

<style type="text/css"><![CDATA[
.node, .edge {opacity: 0.7;}
.node.selected, .edge.selected {opacity: 1;}
.edge:hover path { stroke: red; }
.edge:hover polygon { stroke: red; fill: red; }
]]></style>
<script type="application/ecmascript" xlink:href="../../svg.min.js"/>
<svg id="graph" class="graph">
<g id="graph0" class="graph" transform="scale(1 1) rotate(0) translate(4 235)">
<title>mstd::is_iterator&lt; T, std::void_t&lt; typename std::iterator_traits&lt; T &gt;::iterator_category &gt; &gt;</title>
<!-- Node1 -->
<g id="Node000001" class="node">
<title>Node1</title>
<g id="a_Node000001"><a xlink:title=" ">
<polygon fill="#999999" stroke="#666666" points="147.75,-56 20.75,-56 20.75,0 147.75,0 147.75,-56"/>
<text xml:space="preserve" text-anchor="start" x="28.75" y="-42.5" font-family="Helvetica,sans-Serif" font-size="10.00">mstd::is_iterator&lt;</text>
<text xml:space="preserve" text-anchor="start" x="28.75" y="-30.5" font-family="Helvetica,sans-Serif" font-size="10.00"> T, std::void_t&lt; typename</text>
<text xml:space="preserve" text-anchor="start" x="28.75" y="-18.5" font-family="Helvetica,sans-Serif" font-size="10.00"> std::iterator_traits&lt; T</text>
<text xml:space="preserve" text-anchor="middle" x="84.25" y="-6.5" font-family="Helvetica,sans-Serif" font-size="10.00"> &gt;::iterator_category &gt; &gt;</text>
</a>
</g>
</g>
<!-- Node2 -->
<g id="Node000002" class="node">
<title>Node2</title>
<g id="a_Node000002"><a xlink:title=" ">
<polygon fill="white" stroke="#666666" points="80.5,-231 0,-231 0,-211 80.5,-211 80.5,-231"/>
<text xml:space="preserve" text-anchor="middle" x="40.25" y="-217.5" font-family="Helvetica,sans-Serif" font-size="10.00">std::false_type</text>
</a>
</g>
</g>
<!-- Node2&#45;&gt;Node1 -->
<g id="edge1_Node000001_Node000002" class="edge">
<title>Node2&#45;&gt;Node1</title>
<g id="a_edge1_Node000001_Node000002"><a xlink:title=" ">
<path fill="none" stroke="#63b8ff" d="M40.81,-199.68C41.55,-183.83 43.27,-161.33 47.25,-142 53.41,-112.08 64.81,-78.98 73.34,-56.39"/>
<polygon fill="#63b8ff" stroke="#63b8ff" points="37.33,-199.14 40.46,-209.26 44.33,-199.4 37.33,-199.14"/>
</a>
</g>
</g>
<!-- Node4 -->
<g id="Node000004" class="node">
<title>Node4</title>
<g id="a_Node000004"><a xlink:href="../../d2/dee/structmstd_1_1is__iterator.html" target="_top" xlink:title=" ">
<polygon fill="white" stroke="#666666" points="148.5,-174 56,-174 56,-142 148.5,-142 148.5,-174"/>
<text xml:space="preserve" text-anchor="start" x="64" y="-160.5" font-family="Helvetica,sans-Serif" font-size="10.00">mstd::is_iterator&lt;</text>
<text xml:space="preserve" text-anchor="middle" x="102.25" y="-148.5" font-family="Helvetica,sans-Serif" font-size="10.00"> T, class &gt;</text>
</a>
</g>
</g>
<!-- Node2&#45;&gt;Node4 -->
<g id="edge4_Node000004_Node000002" class="edge">
<title>Node2&#45;&gt;Node4</title>
<g id="a_edge4_Node000004_Node000002"><a xlink:title=" ">
<path fill="none" stroke="#63b8ff" d="M57.74,-202.79C66.93,-193.75 78.1,-182.76 86.95,-174.06"/>
<polygon fill="#63b8ff" stroke="#63b8ff" points="55.42,-200.17 50.75,-209.67 60.33,-205.16 55.42,-200.17"/>
</a>
</g>
</g>
<!-- Node3 -->
<g id="Node000003" class="node">
<title>Node3</title>
<g id="a_Node000003"><a xlink:title=" ">
<polygon fill="white" stroke="#666666" points="260.25,-168 184.25,-168 184.25,-148 260.25,-148 260.25,-168"/>
<text xml:space="preserve" text-anchor="middle" x="222.25" y="-154.5" font-family="Helvetica,sans-Serif" font-size="10.00">std::true_type</text>
</a>
</g>
</g>
<!-- Node3&#45;&gt;Node1 -->
<g id="edge2_Node000001_Node000003" class="edge">
<title>Node3&#45;&gt;Node1</title>
<g id="a_edge2_Node000001_Node000003"><a xlink:title=" ">
<path fill="none" stroke="#63b8ff" d="M224.22,-136.07C224.79,-117.68 222.63,-91.25 208.25,-74 193.15,-55.88 170.12,-45.06 148,-38.59"/>
<polygon fill="#63b8ff" stroke="#63b8ff" points="220.73,-135.83 223.58,-146.04 227.71,-136.28 220.73,-135.83"/>
</a>
</g>
</g>
<!-- Node4&#45;&gt;Node1 -->
<g id="edge3_Node000001_Node000004" class="edge">
<title>Node4&#45;&gt;Node1</title>
<g id="a_edge3_Node000001_Node000004"><a xlink:title=" ">
<path fill="none" stroke="orange" stroke-dasharray="5,2" d="M87.68,-131.47C86.7,-129 85.87,-126.49 85.25,-124 79.73,-101.75 79.91,-75.65 81.23,-56.45"/>
<polygon fill="orange" stroke="orange" points="84.48,-132.89 91.91,-140.44 90.81,-129.9 84.48,-132.89"/>
</a>
</g>
<text xml:space="preserve" text-anchor="start" x="88.25" y="-111.5" font-family="Helvetica,sans-Serif" font-size="10.00" fill="grey">&lt; T, std::void_t&lt; typename</text>
<text xml:space="preserve" text-anchor="start" x="88.25" y="-95.5" font-family="Helvetica,sans-Serif" font-size="10.00" fill="grey">   std::iterator_traits&lt; T</text>
<text xml:space="preserve" text-anchor="start" x="88.25" y="-79.5" font-family="Helvetica,sans-Serif" font-size="10.00" fill="grey">   &gt;::iterator_category &gt; &gt;</text>
</g>
</g>
</svg>
</svg>

<style type='text/css'>
<![CDATA[
[data-mouse-over-selected='false'] { opacity: 0.7; }
[data-mouse-over-selected='true']  { opacity: 1.0; }
]]>
</style>
<script type="application/ecmascript"><![CDATA[
document.addEventListener('DOMContentLoaded', (event) => {
  highlightEdges();
  highlightAdjacentNodes();
});
]]></script>
</svg>
