<?xml version="1.0" encoding="UTF-8" standalone="no"?>
<!DOCTYPE svg PUBLIC "-//W3C//DTD SVG 1.1//EN"
 "http://www.w3.org/Graphics/SVG/1.1/DTD/svg11.dtd">
<!-- Generated by graphviz version 14.1.1 (20251213.1925)
 -->
<!-- Title: mstd::is_same_function&lt; Fa, Fb, class &gt; Pages: 1 -->
<!--zoomable 169 -->

<svg id="main" version="1.1" xmlns="http://www.w3.org/2000/svg" xmlns:xlink="http://www.w3.org/1999/xlink" xml:space="preserve" onload="init(evt)">

<style type="text/css"><![CDATA[
.node, .edge {opacity: 0.7;}
.node.selected, .edge.selected {opacity: 1;}
.edge:hover path { stroke: red; }
.edge:hover polygon { stroke: red; fill: red; }
]]></style>

<defs>
  <circle id="rim" cx="0" cy="0" r="7"/>
  <circle id="rim2" cx="0" cy="0" r="3.5"/>
  <g id="zoomPlus">
    <use xlink:href="#rim" fill="#404040"><set attributeName="fill" to="#808080" begin="zoomplus.mouseover" end="zoomplus.mouseout"/></use>
    <path d="M-4,0h8M0,-4v8" fill="none" stroke="white" stroke-width="1.5" pointer-events="none"/>
  </g>
  <g id="zoomMin">
    <use xlink:href="#rim" fill="#404040"><set attributeName="fill" to="#808080" begin="zoomminus.mouseover" end="zoomminus.mouseout"/></use>
    <path d="M-4,0h8" fill="none" stroke="white" stroke-width="1.5" pointer-events="none"/>
  </g>
  <g id="arrowUp" transform="translate(30 24)">
    <use xlink:href="#rim"/>
    <path pointer-events="none" fill="none" stroke="white" stroke-width="1.5" d="M0,-3.0v7 M-2.5,-0.5L0,-3.0L2.5,-0.5"/>
  </g>
  <g id="arrowRight" transform="rotate(90) translate(36 -43)">
    <use xlink:href="#rim"/>
    <path pointer-events="none" fill="none" stroke="white" stroke-width="1.5" d="M0,-3.0v7 M-2.5,-0.5L0,-3.0L2.5,-0.5"/>
  </g>
  <g id="arrowDown" transform="rotate(180) translate(-30 -48)">
    <use xlink:href="#rim"/>
    <path pointer-events="none" fill="none" stroke="white" stroke-width="1.5" d="M0,-3.0v7 M-2.5,-0.5L0,-3.0L2.5,-0.5"/>
  </g>
  <g id="arrowLeft" transform="rotate(270) translate(-36 17)">
    <use xlink:href="#rim"/>
    <path pointer-events="none" fill="none" stroke="white" stroke-width="1.5" d="M0,-3.0v7 M-2.5,-0.5L0,-3.0L2.5,-0.5"/>
  </g>
  <g id="resetDef">
    <use xlink:href="#rim2" fill="#404040"><set attributeName="fill" to="#808080" begin="reset.mouseover" end="reset.mouseout"/></use>
  </g>
</defs>
<script type="application/ecmascript">
var viewWidth = 562;
var viewHeight = 169;
var sectionId = 'dynsection-0';
</script>
<script type="application/ecmascript" xlink:href="../../svg.min.js"/>
<svg id="graph" class="graph">
<g id="viewport">
<title>mstd::is_same_function&lt; Fa, Fb, class &gt;</title>
<!-- Node1 -->
<g id="Node000001" class="node">
<title>Node1</title>
<g id="a_Node000001"><a xlink:title=" ">
<polygon fill="#999999" stroke="#666666" points="237.75,-88 117.5,-88 117.5,-56 237.75,-56 237.75,-88"/>
<text xml:space="preserve" text-anchor="start" x="125.5" y="-74.5" font-family="Helvetica,sans-Serif" font-size="10.00">mstd::is_same_function</text>
<text xml:space="preserve" text-anchor="middle" x="177.62" y="-62.5" font-family="Helvetica,sans-Serif" font-size="10.00">&lt; Fa, Fb, class &gt;</text>
</a>
</g>
</g>
<!-- Node3 -->
<g id="Node000003" class="node">
<title>Node3</title>
<g id="a_Node000003"><a xlink:href="../../d3/d53/structmstd_1_1is__same__function_3_01_f_00_01_f_00_01std_1_1void__t_3_01std_1_1enable__if__t_3_02220cef7459a6438b7a19636b8713fb8.html" target="_top" xlink:title=" ">
<polygon fill="white" stroke="#666666" points="538.75,-145 413.25,-145 413.25,-89 538.75,-89 538.75,-145"/>
<text xml:space="preserve" text-anchor="start" x="421.25" y="-131.5" font-family="Helvetica,sans-Serif" font-size="10.00">mstd::is_same_function</text>
<text xml:space="preserve" text-anchor="start" x="421.25" y="-119.5" font-family="Helvetica,sans-Serif" font-size="10.00">&lt; F, F, std::void_t&lt; std</text>
<text xml:space="preserve" text-anchor="start" x="421.25" y="-107.5" font-family="Helvetica,sans-Serif" font-size="10.00">::enable_if_t&lt; is_function</text>
<text xml:space="preserve" text-anchor="middle" x="476" y="-95.5" font-family="Helvetica,sans-Serif" font-size="10.00">_v&lt; F &gt; &gt; &gt; &gt;</text>
</a>
</g>
</g>
<!-- Node1&#45;&gt;Node3 -->
<g id="edge2_Node000001_Node000003" class="edge">
<title>Node1&#45;&gt;Node3</title>
<g id="a_edge2_Node000001_Node000003"><a xlink:title=" ">
<path fill="none" stroke="orange" stroke-dasharray="5,2" d="M239.82,-91.39C245.18,-92.74 250.54,-93.97 255.75,-95 308.29,-105.37 368.94,-110.98 413.11,-113.93"/>
<polygon fill="orange" stroke="orange" points="240.92,-88.06 230.36,-88.87 239.12,-94.83 240.92,-88.06"/>
</a>
</g>
<text xml:space="preserve" text-anchor="start" x="259.12" y="-148.92" font-family="Helvetica,sans-Serif" font-size="10.00" fill="grey">&lt; F, F, std::void_t</text>
<text xml:space="preserve" text-anchor="start" x="259.12" y="-132.92" font-family="Helvetica,sans-Serif" font-size="10.00" fill="grey">  &lt; std::enable_if_t&lt;</text>
<text xml:space="preserve" text-anchor="start" x="259.12" y="-116.92" font-family="Helvetica,sans-Serif" font-size="10.00" fill="grey">   is_function_v&lt; F &gt; &gt; &gt; &gt;</text>
</g>
<!-- Node4 -->
<g id="Node000004" class="node">
<title>Node4</title>
<g id="a_Node000004"><a xlink:href="../../d2/d80/structmstd_1_1is__same__function_3_01_fa_00_01_fb_00_01std_1_1void__t_3_01as__std__function__t_3d1b96092a7907e920167e1435bd8baf0.html" target="_top" xlink:title=" ">
<polygon fill="white" stroke="#666666" points="553.75,-56 398.25,-56 398.25,0 553.75,0 553.75,-56"/>
<text xml:space="preserve" text-anchor="start" x="406.25" y="-42.5" font-family="Helvetica,sans-Serif" font-size="10.00">mstd::is_same_function</text>
<text xml:space="preserve" text-anchor="start" x="406.25" y="-30.5" font-family="Helvetica,sans-Serif" font-size="10.00">&lt; Fa, Fb, std::void_t</text>
<text xml:space="preserve" text-anchor="start" x="406.25" y="-18.5" font-family="Helvetica,sans-Serif" font-size="10.00">&lt; as_std_function_t&lt; Fa</text>
<text xml:space="preserve" text-anchor="middle" x="476" y="-6.5" font-family="Helvetica,sans-Serif" font-size="10.00"> &gt;, as_std_function_t&lt; Fb &gt; &gt; &gt;</text>
</a>
</g>
</g>
<!-- Node1&#45;&gt;Node4 -->
<g id="edge3_Node000001_Node000004" class="edge">
<title>Node1&#45;&gt;Node4</title>
<g id="a_edge3_Node000001_Node000004"><a xlink:title=" ">
<path fill="none" stroke="orange" stroke-dasharray="5,2" d="M210.55,-49.44C223.87,-41.32 239.92,-33.15 255.75,-29 301.87,-16.9 355.34,-16.4 397.93,-19.05"/>
<polygon fill="orange" stroke="orange" points="208.77,-46.42 202.22,-54.75 212.53,-52.33 208.77,-46.42"/>
</a>
</g>
<text xml:space="preserve" text-anchor="start" x="258.75" y="-82.5" font-family="Helvetica,sans-Serif" font-size="10.00" fill="grey">&lt; Fa, Fb, std::void</text>
<text xml:space="preserve" text-anchor="start" x="258.75" y="-66.5" font-family="Helvetica,sans-Serif" font-size="10.00" fill="grey">  _t&lt; as_std_function</text>
<text xml:space="preserve" text-anchor="start" x="258.75" y="-50.5" font-family="Helvetica,sans-Serif" font-size="10.00" fill="grey">  _t&lt; Fa &gt;, as_std_function</text>
<text xml:space="preserve" text-anchor="start" x="258.75" y="-34.5" font-family="Helvetica,sans-Serif" font-size="10.00" fill="grey">  _t&lt; Fb &gt; &gt; &gt;</text>
</g>
<!-- Node2 -->
<g id="Node000002" class="node">
<title>Node2</title>
<g id="a_Node000002"><a xlink:title=" ">
<polygon fill="white" stroke="#666666" points="80.5,-82 0,-82 0,-62 80.5,-62 80.5,-82"/>
<text xml:space="preserve" text-anchor="middle" x="40.25" y="-68.5" font-family="Helvetica,sans-Serif" font-size="10.00">std::false_type</text>
</a>
</g>
</g>
<!-- Node2&#45;&gt;Node1 -->
<g id="edge1_Node000001_Node000002" class="edge">
<title>Node2&#45;&gt;Node1</title>
<g id="a_edge1_Node000001_Node000002"><a xlink:title=" ">
<path fill="none" stroke="#63b8ff" d="M92.06,-72C100.26,-72 108.8,-72 117.18,-72"/>
<polygon fill="#63b8ff" stroke="#63b8ff" points="92.28,-68.5 82.28,-72 92.28,-75.5 92.28,-68.5"/>
</a>
</g>
</g>
</g>
</svg>

<g id="navigator" transform="translate(0 0)" fill="#404254">
  <rect fill="#f2f5e9" fill-opacity="0.5" stroke="#606060" stroke-width=".5" x="0" y="0" width="60" height="60"/>
  <use id="zoomplus" xlink:href="#zoomPlus" x="17" y="9" onmousedown="handleZoom(evt,'in')"/>
  <use id="zoomminus" xlink:href="#zoomMin" x="42" y="9" onmousedown="handleZoom(evt,'out')"/>
  <use id="reset" xlink:href="#resetDef" x="30" y="36" onmousedown="handleReset()"/>
   <use id="arrowup" xlink:href="#arrowUp" x="0" y="0" onmousedown="handlePan(0,-1)"/>
  <use id="arrowright" xlink:href="#arrowRight" x="0" y="0" onmousedown="handlePan(1,0)"/>
  <use id="arrowdown" xlink:href="#arrowDown" x="0" y="0" onmousedown="handlePan(0,1)"/>
  <use id="arrowleft" xlink:href="#arrowLeft" x="0" y="0" onmousedown="handlePan(-1,0)"/>
</g>
<svg viewBox="0 0 15 15" width="100%" height="30px" preserveAspectRatio="xMaxYMin meet">
 <g id="arrow_out" transform="scale(0.3 0.3)">
  <a xlink:href="structmstd_1_1is__same__function__inherit__graph_org.svg" target="_base">
   <rect id="button" ry="5" rx="5" y="6" x="6" height="38" width="38"
        fill="#f2f5e9" fill-opacity="0.5" stroke="#606060" stroke-width="1.0"/>
   <path id="arrow"
     d="M 11.500037,31.436501 C 11.940474,20.09759 22.043105,11.32322 32.158766,21.979434 L 37.068811,17.246167 C 37.068811,17.246167 37.088388,32 37.088388,32 L 22.160133,31.978069 C 22.160133,31.978069 26.997745,27.140456 26.997745,27.140456 C 18.528582,18.264221 13.291696,25.230495 11.500037,31.436501 z"
     style="fill:#404040;"/>
  </a>
 </g>
</svg>

<style type='text/css'>
<![CDATA[
[data-mouse-over-selected='false'] { opacity: 0.7; }
[data-mouse-over-selected='true']  { opacity: 1.0; }
]]>
</style>
<script type="application/ecmascript"><![CDATA[
document.addEventListener('DOMContentLoaded', (event) => {
  highlightEdges();
  highlightAdjacentNodes();
});
]]></script>
</svg>
