<?xml version="1.0" encoding="UTF-8" standalone="no"?>
<!DOCTYPE svg PUBLIC "-//W3C//DTD SVG 1.1//EN"
 "http://www.w3.org/Graphics/SVG/1.1/DTD/svg11.dtd">
<!-- Generated by graphviz version 14.1.1 (20251213.1925)
 -->
<!-- Title: mstd::base_id_manager&lt; IdT &gt; Pages: 1 -->
<svg width="343pt" height="290pt"
 viewBox="0.00 0.00 343.00 290.00" xmlns="http://www.w3.org/2000/svg" xmlns:xlink="http://www.w3.org/1999/xlink">
<g id="graph0" class="graph" transform="scale(1 1) rotate(0) translate(4 286)">
<title>mstd::base_id_manager&lt; IdT &gt;</title>
<!-- Node1 -->
<g id="Node000001" class="node">
<title>Node1</title>
<g id="a_Node000001"><a xlink:title=" ">
<polygon fill="#999999" stroke="#666666" points="120.25,-157 0,-157 0,-125 120.25,-125 120.25,-157"/>
<text xml:space="preserve" text-anchor="start" x="8" y="-143.5" font-family="Helvetica,sans-Serif" font-size="10.00">mstd::base_id_manager</text>
<text xml:space="preserve" text-anchor="middle" x="60.12" y="-131.5" font-family="Helvetica,sans-Serif" font-size="10.00">&lt; IdT &gt;</text>
</a>
</g>
</g>
<!-- Node2 -->
<g id="Node000002" class="node">
<title>Node2</title>
<g id="a_Node000002"><a xlink:href="../../da/db8/classmstd_1_1base__id__manager.html" target="_top" xlink:title=" ">
<polygon fill="white" stroke="#666666" points="335,-282 214.75,-282 214.75,-250 335,-250 335,-282"/>
<text xml:space="preserve" text-anchor="start" x="222.75" y="-268.5" font-family="Helvetica,sans-Serif" font-size="10.00">mstd::base_id_manager</text>
<text xml:space="preserve" text-anchor="middle" x="274.88" y="-256.5" font-family="Helvetica,sans-Serif" font-size="10.00">&lt; id_type &gt;</text>
</a>
</g>
</g>
<!-- Node1&#45;&gt;Node2 -->
<g id="edge1_Node000001_Node000002" class="edge">
<title>Node1&#45;&gt;Node2</title>
<g id="a_edge1_Node000001_Node000002"><a xlink:title=" ">
<path fill="none" stroke="orange" stroke-dasharray="5,2" d="M80.98,-165.99C95.36,-182.67 116.1,-204.04 138.25,-218 161.49,-232.65 189.8,-243.57 214.53,-251.27"/>
<polygon fill="orange" stroke="orange" points="83.76,-163.85 74.65,-158.44 78.39,-168.35 83.76,-163.85"/>
</a>
</g>
<text xml:space="preserve" text-anchor="start" x="142.75" y="-250.23" font-family="Helvetica,sans-Serif" font-size="10.00" fill="grey">&lt; id_type &gt;</text>
</g>
<!-- Node3 -->
<g id="Node000003" class="node">
<title>Node3</title>
<g id="a_Node000003"><a xlink:href="../../da/db8/classmstd_1_1base__id__manager.html" target="_top" xlink:title=" ">
<polygon fill="white" stroke="#666666" points="335,-232 214.75,-232 214.75,-200 335,-200 335,-232"/>
<text xml:space="preserve" text-anchor="start" x="222.75" y="-218.5" font-family="Helvetica,sans-Serif" font-size="10.00">mstd::base_id_manager</text>
<text xml:space="preserve" text-anchor="middle" x="274.88" y="-206.5" font-family="Helvetica,sans-Serif" font-size="10.00">&lt; size_t &gt;</text>
</a>
</g>
</g>
<!-- Node1&#45;&gt;Node3 -->
<g id="edge2_Node000001_Node000003" class="edge">
<title>Node1&#45;&gt;Node3</title>
<g id="a_edge2_Node000001_Node000003"><a xlink:title=" ">
<path fill="none" stroke="orange" stroke-dasharray="5,2" d="M102.27,-162.37C113.75,-167.88 126.33,-173.51 138.25,-178 162.73,-187.22 190.45,-195.37 214.41,-201.74"/>
<polygon fill="orange" stroke="orange" points="103.98,-159.31 93.46,-158.05 100.9,-165.6 103.98,-159.31"/>
</a>
</g>
<text xml:space="preserve" text-anchor="start" x="145.38" y="-201.44" font-family="Helvetica,sans-Serif" font-size="10.00" fill="grey">&lt; size_t &gt;</text>
</g>
<!-- Node4 -->
<g id="Node000004" class="node">
<title>Node4</title>
<g id="a_Node000004"><a xlink:href="../../da/db8/classmstd_1_1base__id__manager.html" target="_top" xlink:title=" ">
<polygon fill="white" stroke="#666666" points="335,-182 214.75,-182 214.75,-150 335,-150 335,-182"/>
<text xml:space="preserve" text-anchor="start" x="222.75" y="-168.5" font-family="Helvetica,sans-Serif" font-size="10.00">mstd::base_id_manager</text>
<text xml:space="preserve" text-anchor="middle" x="274.88" y="-156.5" font-family="Helvetica,sans-Serif" font-size="10.00">&lt; uint8_t &gt;</text>
</a>
</g>
</g>
<!-- Node1&#45;&gt;Node4 -->
<g id="edge3_Node000001_Node000004" class="edge">
<title>Node1&#45;&gt;Node4</title>
<g id="a_edge3_Node000001_Node000004"><a xlink:title=" ">
<path fill="none" stroke="orange" stroke-dasharray="5,2" d="M131.9,-149.32C158.63,-152.46 188.75,-156 214.34,-159"/>
<polygon fill="orange" stroke="orange" points="132.51,-145.86 122.17,-148.17 131.7,-152.82 132.51,-145.86"/>
</a>
</g>
<text xml:space="preserve" text-anchor="start" x="143.88" y="-161.97" font-family="Helvetica,sans-Serif" font-size="10.00" fill="grey">&lt; uint8_t &gt;</text>
</g>
<!-- Node5 -->
<g id="Node000005" class="node">
<title>Node5</title>
<g id="a_Node000005"><a xlink:href="../../da/db8/classmstd_1_1base__id__manager.html" target="_top" xlink:title=" ">
<polygon fill="white" stroke="#666666" points="335,-132 214.75,-132 214.75,-100 335,-100 335,-132"/>
<text xml:space="preserve" text-anchor="start" x="222.75" y="-118.5" font-family="Helvetica,sans-Serif" font-size="10.00">mstd::base_id_manager</text>
<text xml:space="preserve" text-anchor="middle" x="274.88" y="-106.5" font-family="Helvetica,sans-Serif" font-size="10.00">&lt; uint16_t &gt;</text>
</a>
</g>
</g>
<!-- Node1&#45;&gt;Node5 -->
<g id="edge4_Node000001_Node000005" class="edge">
<title>Node1&#45;&gt;Node5</title>
<g id="a_edge4_Node000001_Node000005"><a xlink:title=" ">
<path fill="none" stroke="orange" stroke-dasharray="5,2" d="M131.66,-129.85C133.88,-129.56 136.08,-129.27 138.25,-129 163.13,-125.88 190.66,-123.11 214.37,-120.94"/>
<polygon fill="orange" stroke="orange" points="131.37,-126.36 121.95,-131.2 132.33,-133.29 131.37,-126.36"/>
</a>
</g>
<text xml:space="preserve" text-anchor="start" x="141.25" y="-134.5" font-family="Helvetica,sans-Serif" font-size="10.00" fill="grey">&lt; uint16_t &gt;</text>
</g>
<!-- Node6 -->
<g id="Node000006" class="node">
<title>Node6</title>
<g id="a_Node000006"><a xlink:href="../../da/db8/classmstd_1_1base__id__manager.html" target="_top" xlink:title=" ">
<polygon fill="white" stroke="#666666" points="335,-82 214.75,-82 214.75,-50 335,-50 335,-82"/>
<text xml:space="preserve" text-anchor="start" x="222.75" y="-68.5" font-family="Helvetica,sans-Serif" font-size="10.00">mstd::base_id_manager</text>
<text xml:space="preserve" text-anchor="middle" x="274.88" y="-56.5" font-family="Helvetica,sans-Serif" font-size="10.00">&lt; uint32_t &gt;</text>
</a>
</g>
</g>
<!-- Node1&#45;&gt;Node6 -->
<g id="edge5_Node000001_Node000006" class="edge">
<title>Node1&#45;&gt;Node6</title>
<g id="a_edge5_Node000001_Node000006"><a xlink:title=" ">
<path fill="none" stroke="orange" stroke-dasharray="5,2" d="M98.88,-119.25C111.17,-112.77 125.04,-106.05 138.25,-101 162.66,-91.66 190.49,-83.99 214.56,-78.24"/>
<polygon fill="orange" stroke="orange" points="97.45,-116.05 90.32,-123.89 100.78,-122.21 97.45,-116.05"/>
</a>
</g>
<text xml:space="preserve" text-anchor="start" x="141.25" y="-106.5" font-family="Helvetica,sans-Serif" font-size="10.00" fill="grey">&lt; uint32_t &gt;</text>
</g>
<!-- Node7 -->
<g id="Node000007" class="node">
<title>Node7</title>
<g id="a_Node000007"><a xlink:href="../../da/db8/classmstd_1_1base__id__manager.html" target="_top" xlink:title=" ">
<polygon fill="white" stroke="#666666" points="335,-32 214.75,-32 214.75,0 335,0 335,-32"/>
<text xml:space="preserve" text-anchor="start" x="222.75" y="-18.5" font-family="Helvetica,sans-Serif" font-size="10.00">mstd::base_id_manager</text>
<text xml:space="preserve" text-anchor="middle" x="274.88" y="-6.5" font-family="Helvetica,sans-Serif" font-size="10.00">&lt; uint64_t &gt;</text>
</a>
</g>
</g>
<!-- Node1&#45;&gt;Node7 -->
<g id="edge6_Node000001_Node000007" class="edge">
<title>Node1&#45;&gt;Node7</title>
<g id="a_edge6_Node000001_Node000007"><a xlink:title=" ">
<path fill="none" stroke="orange" stroke-dasharray="5,2" d="M80.14,-116.04C94.46,-98.75 115.46,-76.36 138.25,-62 161.39,-47.42 189.68,-36.88 214.43,-29.59"/>
<polygon fill="orange" stroke="orange" points="77.79,-113.38 74.24,-123.36 83.24,-117.77 77.79,-113.38"/>
</a>
</g>
<text xml:space="preserve" text-anchor="start" x="141.25" y="-67.5" font-family="Helvetica,sans-Serif" font-size="10.00" fill="grey">&lt; uint64_t &gt;</text>
</g>
</g>
</svg>
