<?xml version="1.0" encoding="UTF-8" standalone="no"?>
<!DOCTYPE svg PUBLIC "-//W3C//DTD SVG 1.1//EN"
 "http://www.w3.org/Graphics/SVG/1.1/DTD/svg11.dtd">
<!-- Generated by graphviz version 14.1.1 (20251213.1925)
 -->
<!-- Title: mstd::vec&lt; N, T &gt; Pages: 1 -->
<svg width="330pt" height="102pt"
 viewBox="0.00 0.00 330.00 102.00" xmlns="http://www.w3.org/2000/svg" xmlns:xlink="http://www.w3.org/1999/xlink">
<g id="graph0" class="graph" transform="scale(1 1) rotate(0) translate(4 98)">
<title>mstd::vec&lt; N, T &gt;</title>
<!-- Node1 -->
<g id="Node000001" class="node">
<title>Node1</title>
<g id="a_Node000001"><a xlink:title=" ">
<polygon fill="#999999" stroke="#666666" points="210.25,-94 114,-94 114,-74 210.25,-74 210.25,-94"/>
<text xml:space="preserve" text-anchor="middle" x="162.12" y="-80.5" font-family="Helvetica,sans-Serif" font-size="10.00">mstd::vec&lt; N, T &gt;</text>
</a>
</g>
</g>
<!-- Node2 -->
<g id="Node000002" class="node">
<title>Node2</title>
<g id="a_Node000002"><a xlink:href="../../d0/dae/classmstd_1_1vec.html" target="_top" xlink:title=" ">
<polygon fill="white" stroke="#666666" points="96.25,-20 0,-20 0,0 96.25,0 96.25,-20"/>
<text xml:space="preserve" text-anchor="middle" x="48.12" y="-6.5" font-family="Helvetica,sans-Serif" font-size="10.00">mstd::vec&lt; R, T &gt;</text>
</a>
</g>
</g>
<!-- Node1&#45;&gt;Node2 -->
<g id="edge1_Node000001_Node000002" class="edge">
<title>Node1&#45;&gt;Node2</title>
<g id="a_edge1_Node000001_Node000002"><a xlink:title=" ">
<path fill="none" stroke="orange" stroke-dasharray="5,2" d="M135.26,-67.89C128.7,-64.09 121.75,-59.97 115.38,-56 96.41,-44.2 75.06,-29.7 61.61,-20.4"/>
<polygon fill="orange" stroke="orange" points="133.36,-70.83 143.77,-72.77 136.84,-64.76 133.36,-70.83"/>
</a>
</g>
<text xml:space="preserve" text-anchor="start" x="118.38" y="-43.5" font-family="Helvetica,sans-Serif" font-size="10.00" fill="grey">&lt; R, T &gt;</text>
</g>
<!-- Node3 -->
<g id="Node000003" class="node">
<title>Node3</title>
<g id="a_Node000003"><a xlink:href="../../d0/dae/classmstd_1_1vec.html" target="_top" xlink:title=" ">
<polygon fill="white" stroke="#666666" points="210.25,-20 114,-20 114,0 210.25,0 210.25,-20"/>
<text xml:space="preserve" text-anchor="middle" x="162.12" y="-6.5" font-family="Helvetica,sans-Serif" font-size="10.00">mstd::vec&lt; C, T &gt;</text>
</a>
</g>
</g>
<!-- Node1&#45;&gt;Node3 -->
<g id="edge2_Node000001_Node000003" class="edge">
<title>Node1&#45;&gt;Node3</title>
<g id="a_edge2_Node000001_Node000003"><a xlink:title=" ">
<path fill="none" stroke="orange" stroke-dasharray="5,2" d="M162.12,-62.18C162.12,-48.29 162.12,-30.71 162.12,-20.19"/>
<polygon fill="orange" stroke="orange" points="158.63,-62.07 162.13,-72.07 165.63,-62.07 158.63,-62.07"/>
</a>
</g>
<text xml:space="preserve" text-anchor="start" x="165.12" y="-43.5" font-family="Helvetica,sans-Serif" font-size="10.00" fill="grey">&lt; C, T &gt;</text>
</g>
<!-- Node4 -->
<g id="Node000004" class="node">
<title>Node4</title>
<g id="a_Node000004"><a xlink:href="../../d0/dae/classmstd_1_1vec.html" target="_top" xlink:title=" ">
<polygon fill="white" stroke="#666666" points="322.12,-20 228.12,-20 228.12,0 322.12,0 322.12,-20"/>
<text xml:space="preserve" text-anchor="middle" x="275.12" y="-6.5" font-family="Helvetica,sans-Serif" font-size="10.00">mstd::vec&lt; 3, T &gt;</text>
</a>
</g>
</g>
<!-- Node1&#45;&gt;Node4 -->
<g id="edge3_Node000001_Node000004" class="edge">
<title>Node1&#45;&gt;Node4</title>
<g id="a_edge3_Node000001_Node000004"><a xlink:title=" ">
<path fill="none" stroke="orange" stroke-dasharray="5,2" d="M189.16,-67.94C195.75,-64.14 202.74,-60 209.12,-56 227.81,-44.29 248.74,-29.77 261.93,-20.44"/>
<polygon fill="orange" stroke="orange" points="187.56,-64.83 180.6,-72.82 191.02,-70.91 187.56,-64.83"/>
</a>
</g>
<text xml:space="preserve" text-anchor="start" x="237.85" y="-43.5" font-family="Helvetica,sans-Serif" font-size="10.00" fill="grey">&lt; 3, T &gt;</text>
</g>
</g>
</svg>
