<?xml version="1.0" encoding="UTF-8" standalone="no"?>
<!DOCTYPE svg PUBLIC "-//W3C//DTD SVG 1.1//EN"
 "http://www.w3.org/Graphics/SVG/1.1/DTD/svg11.dtd">
<!-- Generated by graphviz version 14.1.1 (20251213.1925)
 -->
<!-- Title: mstd::is_callable&lt; F, std::void_t&lt; typename function_traits&lt; F &gt;::std_function_type &gt; &gt; Pages: 1 -->
<svg width="271pt" height="239pt"
 viewBox="0.00 0.00 271.00 239.00" xmlns="http://www.w3.org/2000/svg" xmlns:xlink="http://www.w3.org/1999/xlink">

<svg id="main" version="1.1" xmlns="http://www.w3.org/2000/svg" xmlns:xlink="http://www.w3.org/1999/xlink" xml:space="preserve">

<style type="text/css"><![CDATA[
.node, .edge {opacity: 0.7;}
.node.selected, .edge.selected {opacity: 1;}
.edge:hover path { stroke: red; }
.edge:hover polygon { stroke: red; fill: red; }
]]></style>
<script type="application/ecmascript" xlink:href="../../svg.min.js"/>
<svg id="graph" class="graph">
<g id="graph0" class="graph" transform="scale(1 1) rotate(0) translate(4 235)">
<title>mstd::is_callable&lt; F, std::void_t&lt; typename function_traits&lt; F &gt;::std_function_type &gt; &gt;</title>
<!-- Node1 -->
<g id="Node000001" class="node">
<title>Node1</title>
<g id="a_Node000001"><a xlink:title=" ">
<polygon fill="#999999" stroke="#666666" points="150.12,-56 22.38,-56 22.38,0 150.12,0 150.12,-56"/>
<text xml:space="preserve" text-anchor="start" x="30.38" y="-42.5" font-family="Helvetica,sans-Serif" font-size="10.00">mstd::is_callable&lt;</text>
<text xml:space="preserve" text-anchor="start" x="30.38" y="-30.5" font-family="Helvetica,sans-Serif" font-size="10.00"> F, std::void_t&lt; typename</text>
<text xml:space="preserve" text-anchor="start" x="30.38" y="-18.5" font-family="Helvetica,sans-Serif" font-size="10.00"> function_traits&lt; F &gt;::std</text>
<text xml:space="preserve" text-anchor="middle" x="86.25" y="-6.5" font-family="Helvetica,sans-Serif" font-size="10.00">_function_type &gt; &gt;</text>
</a>
</g>
</g>
<!-- Node2 -->
<g id="Node000002" class="node">
<title>Node2</title>
<g id="a_Node000002"><a xlink:title=" ">
<polygon fill="white" stroke="#666666" points="80.5,-231 0,-231 0,-211 80.5,-211 80.5,-231"/>
<text xml:space="preserve" text-anchor="middle" x="40.25" y="-217.5" font-family="Helvetica,sans-Serif" font-size="10.00">std::false_type</text>
</a>
</g>
</g>
<!-- Node2&#45;&gt;Node1 -->
<g id="edge1_Node000001_Node000002" class="edge">
<title>Node2&#45;&gt;Node1</title>
<g id="a_edge1_Node000001_Node000002"><a xlink:title=" ">
<path fill="none" stroke="#63b8ff" d="M40.73,-199.66C41.42,-183.8 43.12,-161.3 47.25,-142 53.68,-111.97 65.71,-78.89 74.72,-56.33"/>
<polygon fill="#63b8ff" stroke="#63b8ff" points="37.24,-199.14 40.41,-209.25 44.24,-199.38 37.24,-199.14"/>
</a>
</g>
</g>
<!-- Node4 -->
<g id="Node000004" class="node">
<title>Node4</title>
<g id="a_Node000004"><a xlink:href="../../d0/dc6/structmstd_1_1is__callable.html" target="_top" xlink:title=" ">
<polygon fill="white" stroke="#666666" points="152,-174 56.5,-174 56.5,-142 152,-142 152,-174"/>
<text xml:space="preserve" text-anchor="start" x="64.5" y="-160.5" font-family="Helvetica,sans-Serif" font-size="10.00">mstd::is_callable&lt;</text>
<text xml:space="preserve" text-anchor="middle" x="104.25" y="-148.5" font-family="Helvetica,sans-Serif" font-size="10.00"> F, class &gt;</text>
</a>
</g>
</g>
<!-- Node2&#45;&gt;Node4 -->
<g id="edge4_Node000004_Node000002" class="edge">
<title>Node2&#45;&gt;Node4</title>
<g id="a_edge4_Node000004_Node000002"><a xlink:title=" ">
<path fill="none" stroke="#63b8ff" d="M58.3,-202.79C67.79,-193.75 79.32,-182.76 88.45,-174.06"/>
<polygon fill="#63b8ff" stroke="#63b8ff" points="55.89,-200.26 51.07,-209.69 60.72,-205.33 55.89,-200.26"/>
</a>
</g>
</g>
<!-- Node3 -->
<g id="Node000003" class="node">
<title>Node3</title>
<g id="a_Node000003"><a xlink:title=" ">
<polygon fill="white" stroke="#666666" points="263.25,-168 187.25,-168 187.25,-148 263.25,-148 263.25,-168"/>
<text xml:space="preserve" text-anchor="middle" x="225.25" y="-154.5" font-family="Helvetica,sans-Serif" font-size="10.00">std::true_type</text>
</a>
</g>
</g>
<!-- Node3&#45;&gt;Node1 -->
<g id="edge2_Node000001_Node000003" class="edge">
<title>Node3&#45;&gt;Node1</title>
<g id="a_edge2_Node000001_Node000003"><a xlink:title=" ">
<path fill="none" stroke="#63b8ff" d="M227.23,-136.06C227.81,-117.67 225.65,-91.23 211.25,-74 196.02,-55.77 172.8,-44.93 150.5,-38.47"/>
<polygon fill="#63b8ff" stroke="#63b8ff" points="223.74,-135.83 226.59,-146.03 230.72,-136.28 223.74,-135.83"/>
</a>
</g>
</g>
<!-- Node4&#45;&gt;Node1 -->
<g id="edge3_Node000001_Node000004" class="edge">
<title>Node4&#45;&gt;Node1</title>
<g id="a_edge3_Node000001_Node000004"><a xlink:title=" ">
<path fill="none" stroke="orange" stroke-dasharray="5,2" d="M89.9,-131.46C88.94,-128.99 88.11,-126.48 87.5,-124 82.02,-101.74 82.12,-75.64 83.36,-56.44"/>
<polygon fill="orange" stroke="orange" points="86.67,-132.83 94.07,-140.42 93.02,-129.88 86.67,-132.83"/>
</a>
</g>
<text xml:space="preserve" text-anchor="start" x="90.5" y="-111.5" font-family="Helvetica,sans-Serif" font-size="10.00" fill="grey">&lt; F, std::void_t&lt; typename</text>
<text xml:space="preserve" text-anchor="start" x="90.5" y="-95.5" font-family="Helvetica,sans-Serif" font-size="10.00" fill="grey">   function_traits&lt; F &gt;::std</text>
<text xml:space="preserve" text-anchor="start" x="90.5" y="-79.5" font-family="Helvetica,sans-Serif" font-size="10.00" fill="grey">  _function_type &gt; &gt;</text>
</g>
</g>
</svg>
</svg>

<style type='text/css'>
<![CDATA[
[data-mouse-over-selected='false'] { opacity: 0.7; }
[data-mouse-over-selected='true']  { opacity: 1.0; }
]]>
</style>
<script type="application/ecmascript"><![CDATA[
document.addEventListener('DOMContentLoaded', (event) => {
  highlightEdges();
  highlightAdjacentNodes();
});
]]></script>
</svg>
