<?xml version="1.0" encoding="UTF-8" standalone="no"?>
<!DOCTYPE svg PUBLIC "-//W3C//DTD SVG 1.1//EN"
 "http://www.w3.org/Graphics/SVG/1.1/DTD/svg11.dtd">
<!-- Generated by graphviz version 14.1.1 (20251213.1925)
 -->
<!-- Title: mstd::utils::base_function_view&lt; F, Ret, ArgsTuple &gt; Pages: 1 -->
<!--zoomable 130 -->

<svg id="main" version="1.1" xmlns="http://www.w3.org/2000/svg" xmlns:xlink="http://www.w3.org/1999/xlink" xml:space="preserve" onload="init(evt)">

<style type="text/css"><![CDATA[
.node, .edge {opacity: 0.7;}
.node.selected, .edge.selected {opacity: 1;}
.edge:hover path { stroke: red; }
.edge:hover polygon { stroke: red; fill: red; }
]]></style>

<defs>
  <circle id="rim" cx="0" cy="0" r="7"/>
  <circle id="rim2" cx="0" cy="0" r="3.5"/>
  <g id="zoomPlus">
    <use xlink:href="#rim" fill="#404040"><set attributeName="fill" to="#808080" begin="zoomplus.mouseover" end="zoomplus.mouseout"/></use>
    <path d="M-4,0h8M0,-4v8" fill="none" stroke="white" stroke-width="1.5" pointer-events="none"/>
  </g>
  <g id="zoomMin">
    <use xlink:href="#rim" fill="#404040"><set attributeName="fill" to="#808080" begin="zoomminus.mouseover" end="zoomminus.mouseout"/></use>
    <path d="M-4,0h8" fill="none" stroke="white" stroke-width="1.5" pointer-events="none"/>
  </g>
  <g id="arrowUp" transform="translate(30 24)">
    <use xlink:href="#rim"/>
    <path pointer-events="none" fill="none" stroke="white" stroke-width="1.5" d="M0,-3.0v7 M-2.5,-0.5L0,-3.0L2.5,-0.5"/>
  </g>
  <g id="arrowRight" transform="rotate(90) translate(36 -43)">
    <use xlink:href="#rim"/>
    <path pointer-events="none" fill="none" stroke="white" stroke-width="1.5" d="M0,-3.0v7 M-2.5,-0.5L0,-3.0L2.5,-0.5"/>
  </g>
  <g id="arrowDown" transform="rotate(180) translate(-30 -48)">
    <use xlink:href="#rim"/>
    <path pointer-events="none" fill="none" stroke="white" stroke-width="1.5" d="M0,-3.0v7 M-2.5,-0.5L0,-3.0L2.5,-0.5"/>
  </g>
  <g id="arrowLeft" transform="rotate(270) translate(-36 17)">
    <use xlink:href="#rim"/>
    <path pointer-events="none" fill="none" stroke="white" stroke-width="1.5" d="M0,-3.0v7 M-2.5,-0.5L0,-3.0L2.5,-0.5"/>
  </g>
  <g id="resetDef">
    <use xlink:href="#rim2" fill="#404040"><set attributeName="fill" to="#808080" begin="reset.mouseover" end="reset.mouseout"/></use>
  </g>
</defs>
<script type="application/ecmascript">
var viewWidth = 637;
var viewHeight = 130;
var sectionId = 'dynsection-0';
</script>
<script type="application/ecmascript" xlink:href="../../svg.min.js"/>
<svg id="graph" class="graph">
<g id="viewport">
<title>mstd::utils::base_function_view&lt; F, Ret, ArgsTuple &gt;</title>
<!-- Node1 -->
<g id="Node000001" class="node">
<title>Node1</title>
<g id="a_Node000001"><a xlink:title=" ">
<polygon fill="#999999" stroke="#666666" points="136,-66 0,-66 0,-34 136,-34 136,-66"/>
<text xml:space="preserve" text-anchor="start" x="8" y="-52.5" font-family="Helvetica,sans-Serif" font-size="10.00">mstd::utils::base_function</text>
<text xml:space="preserve" text-anchor="middle" x="68" y="-40.5" font-family="Helvetica,sans-Serif" font-size="10.00">_view&lt; F, Ret, ArgsTuple &gt;</text>
</a>
</g>
</g>
<!-- Node2 -->
<g id="Node000002" class="node">
<title>Node2</title>
<g id="a_Node000002"><a xlink:href="../../d0/dec/structmstd_1_1utils_1_1base__function__view.html" target="_top" xlink:title=" ">
<polygon fill="white" stroke="#666666" points="434.75,-106 280.75,-106 280.75,-62 434.75,-62 434.75,-106"/>
<text xml:space="preserve" text-anchor="start" x="288.75" y="-92.5" font-family="Helvetica,sans-Serif" font-size="10.00">mstd::utils::base_function</text>
<text xml:space="preserve" text-anchor="start" x="288.75" y="-80.5" font-family="Helvetica,sans-Serif" font-size="10.00">_view&lt; F, function_return</text>
<text xml:space="preserve" text-anchor="middle" x="357.75" y="-68.5" font-family="Helvetica,sans-Serif" font-size="10.00">_t&lt; F &gt;, function_args_t&lt; F &gt; &gt;</text>
</a>
</g>
</g>
<!-- Node1&#45;&gt;Node2 -->
<g id="edge1_Node000001_Node000002" class="edge">
<title>Node1&#45;&gt;Node2</title>
<g id="a_edge1_Node000001_Node000002"><a xlink:title=" ">
<path fill="none" stroke="orange" stroke-dasharray="5,2" d="M147.85,-59.32C189.11,-64.19 239.41,-70.14 280.32,-74.97"/>
<polygon fill="orange" stroke="orange" points="148.31,-55.85 137.97,-58.15 147.49,-62.8 148.31,-55.85"/>
</a>
</g>
<text xml:space="preserve" text-anchor="start" x="157" y="-109.53" font-family="Helvetica,sans-Serif" font-size="10.00" fill="grey">&lt; F, function_return</text>
<text xml:space="preserve" text-anchor="start" x="157" y="-93.53" font-family="Helvetica,sans-Serif" font-size="10.00" fill="grey">  _t&lt; F &gt;, function_args</text>
<text xml:space="preserve" text-anchor="start" x="157" y="-77.53" font-family="Helvetica,sans-Serif" font-size="10.00" fill="grey">  _t&lt; F &gt; &gt;</text>
</g>
<!-- Node5 -->
<g id="Node000005" class="node">
<title>Node5</title>
<g id="a_Node000005"><a xlink:href="../../dd/d5b/structmstd_1_1utils_1_1base__function__view_3_01_f_00_01_ret_00_01std_1_1tuple_3_01_args_8_8_8_01_4_01_4.html" target="_top" xlink:title=" ">
<polygon fill="white" stroke="#666666" points="422,-44 293.5,-44 293.5,0 422,0 422,-44"/>
<text xml:space="preserve" text-anchor="start" x="301.5" y="-30.5" font-family="Helvetica,sans-Serif" font-size="10.00">mstd::utils::base_function</text>
<text xml:space="preserve" text-anchor="start" x="301.5" y="-18.5" font-family="Helvetica,sans-Serif" font-size="10.00">_view&lt; F, Ret, std::tuple</text>
<text xml:space="preserve" text-anchor="middle" x="357.75" y="-6.5" font-family="Helvetica,sans-Serif" font-size="10.00">&lt; Args... &gt; &gt;</text>
</a>
</g>
</g>
<!-- Node1&#45;&gt;Node5 -->
<g id="edge4_Node000001_Node000005" class="edge">
<title>Node1&#45;&gt;Node5</title>
<g id="a_edge4_Node000001_Node000005"><a xlink:title=" ">
<path fill="none" stroke="orange" stroke-dasharray="5,2" d="M127.54,-30.54C136.32,-28.28 145.34,-26.31 154,-25 200.29,-17.98 253.21,-17.45 293.37,-18.55"/>
<polygon fill="orange" stroke="orange" points="126.77,-27.13 118.05,-33.14 128.62,-33.88 126.77,-27.13"/>
</a>
</g>
<text xml:space="preserve" text-anchor="start" x="167.12" y="-46.5" font-family="Helvetica,sans-Serif" font-size="10.00" fill="grey">&lt; F, Ret, std::tuple</text>
<text xml:space="preserve" text-anchor="start" x="167.12" y="-30.5" font-family="Helvetica,sans-Serif" font-size="10.00" fill="grey">  &lt; Args... &gt; &gt;</text>
</g>
<!-- Node3 -->
<g id="Node000003" class="node">
<title>Node3</title>
<g id="a_Node000003"><a xlink:href="../../d8/d89/classmstd_1_1function__view.html" target="_top" xlink:title=" ">
<polygon fill="white" stroke="#666666" points="628.88,-122 501.12,-122 501.12,-102 628.88,-102 628.88,-122"/>
<text xml:space="preserve" text-anchor="middle" x="565" y="-108.5" font-family="Helvetica,sans-Serif" font-size="10.00">mstd::function_view&lt; F &gt;</text>
</a>
</g>
</g>
<!-- Node2&#45;&gt;Node3 -->
<g id="edge2_Node000002_Node000003" class="edge">
<title>Node2&#45;&gt;Node3</title>
<g id="a_edge2_Node000002_Node000003"><a xlink:title=" ">
<path fill="none" stroke="#63b8ff" d="M446.47,-95.97C464.77,-98.46 483.73,-101.05 500.93,-103.4"/>
<polygon fill="#63b8ff" stroke="#63b8ff" points="447.06,-92.51 436.68,-94.63 446.11,-99.45 447.06,-92.51"/>
</a>
</g>
</g>
<!-- Node4 -->
<g id="Node000004" class="node">
<title>Node4</title>
<g id="a_Node000004"><a xlink:href="../../d0/dec/structmstd_1_1utils_1_1base__function__view.html" target="_top" xlink:title=" ">
<polygon fill="white" stroke="#666666" points="629.25,-84 500.75,-84 500.75,-28 629.25,-28 629.25,-84"/>
<text xml:space="preserve" text-anchor="start" x="508.75" y="-70.5" font-family="Helvetica,sans-Serif" font-size="10.00">mstd::utils::base_function</text>
<text xml:space="preserve" text-anchor="start" x="508.75" y="-58.5" font-family="Helvetica,sans-Serif" font-size="10.00">_view&lt; F, function_return</text>
<text xml:space="preserve" text-anchor="start" x="508.75" y="-46.5" font-family="Helvetica,sans-Serif" font-size="10.00">_t&lt; F &gt;, function_args_t&lt;</text>
<text xml:space="preserve" text-anchor="middle" x="565" y="-34.5" font-family="Helvetica,sans-Serif" font-size="10.00"> F &gt; &gt;&lt; F &gt;</text>
</a>
</g>
</g>
<!-- Node2&#45;&gt;Node4 -->
<g id="edge3_Node000002_Node000004" class="edge">
<title>Node2&#45;&gt;Node4</title>
<g id="a_edge3_Node000002_Node000004"><a xlink:title=" ">
<path fill="none" stroke="orange" stroke-dasharray="5,2" d="M446.35,-72.05C464.46,-69.58 483.21,-67.02 500.27,-64.69"/>
<polygon fill="orange" stroke="orange" points="446.11,-68.55 436.68,-73.37 447.06,-75.49 446.11,-68.55"/>
</a>
</g>
<text xml:space="preserve" text-anchor="start" x="455.75" y="-76.34" font-family="Helvetica,sans-Serif" font-size="10.00" fill="grey">&lt; F &gt;</text>
</g>
</g>
</svg>

<g id="navigator" transform="translate(0 0)" fill="#404254">
  <rect fill="#f2f5e9" fill-opacity="0.5" stroke="#606060" stroke-width=".5" x="0" y="0" width="60" height="60"/>
  <use id="zoomplus" xlink:href="#zoomPlus" x="17" y="9" onmousedown="handleZoom(evt,'in')"/>
  <use id="zoomminus" xlink:href="#zoomMin" x="42" y="9" onmousedown="handleZoom(evt,'out')"/>
  <use id="reset" xlink:href="#resetDef" x="30" y="36" onmousedown="handleReset()"/>
   <use id="arrowup" xlink:href="#arrowUp" x="0" y="0" onmousedown="handlePan(0,-1)"/>
  <use id="arrowright" xlink:href="#arrowRight" x="0" y="0" onmousedown="handlePan(1,0)"/>
  <use id="arrowdown" xlink:href="#arrowDown" x="0" y="0" onmousedown="handlePan(0,1)"/>
  <use id="arrowleft" xlink:href="#arrowLeft" x="0" y="0" onmousedown="handlePan(-1,0)"/>
</g>
<svg viewBox="0 0 15 15" width="100%" height="30px" preserveAspectRatio="xMaxYMin meet">
 <g id="arrow_out" transform="scale(0.3 0.3)">
  <a xlink:href="structmstd_1_1utils_1_1base__function__view__inherit__graph_org.svg" target="_base">
   <rect id="button" ry="5" rx="5" y="6" x="6" height="38" width="38"
        fill="#f2f5e9" fill-opacity="0.5" stroke="#606060" stroke-width="1.0"/>
   <path id="arrow"
     d="M 11.500037,31.436501 C 11.940474,20.09759 22.043105,11.32322 32.158766,21.979434 L 37.068811,17.246167 C 37.068811,17.246167 37.088388,32 37.088388,32 L 22.160133,31.978069 C 22.160133,31.978069 26.997745,27.140456 26.997745,27.140456 C 18.528582,18.264221 13.291696,25.230495 11.500037,31.436501 z"
     style="fill:#404040;"/>
  </a>
 </g>
</svg>

<style type='text/css'>
<![CDATA[
[data-mouse-over-selected='false'] { opacity: 0.7; }
[data-mouse-over-selected='true']  { opacity: 1.0; }
]]>
</style>
<script type="application/ecmascript"><![CDATA[
document.addEventListener('DOMContentLoaded', (event) => {
  highlightEdges();
  highlightAdjacentNodes();
});
]]></script>
</svg>
