<?xml version="1.0" encoding="UTF-8" standalone="no"?>
<!DOCTYPE svg PUBLIC "-//W3C//DTD SVG 1.1//EN"
 "http://www.w3.org/Graphics/SVG/1.1/DTD/svg11.dtd">
<!-- Generated by graphviz version 14.1.1 (20251213.1925)
 -->
<!-- Title: Graphical Class Hierarchy Pages: 1 -->
<svg width="465pt" height="628pt"
 viewBox="0.00 0.00 465.00 628.00" xmlns="http://www.w3.org/2000/svg" xmlns:xlink="http://www.w3.org/1999/xlink">
<g id="graph0" class="graph" transform="scale(1 1) rotate(0) translate(4 624)">
<title>Graphical Class Hierarchy</title>
<!-- Node0 -->
<g id="Node000000" class="node">
<title>Node0</title>
<g id="a_Node000000"><a xlink:title=" ">
<polygon fill="#e0e0e0" stroke="#999999" points="96.25,-284 0,-284 0,-264 96.25,-264 96.25,-284"/>
<text xml:space="preserve" text-anchor="middle" x="48.12" y="-270.5" font-family="Helvetica,sans-Serif" font-size="10.00">std::bool_constant</text>
</a>
</g>
</g>
<!-- Node1 -->
<g id="Node000001" class="node">
<title>Node1</title>
<g id="a_Node000001"><a xlink:href="dd/def/structmstd_1_1all__check.html" target="_top" xlink:title=" ">
<polygon fill="white" stroke="#666666" points="267.12,-620 152.88,-620 152.88,-588 267.12,-588 267.12,-620"/>
<text xml:space="preserve" text-anchor="start" x="160.88" y="-606.5" font-family="Helvetica,sans-Serif" font-size="10.00">mstd::all_check&lt; std</text>
<text xml:space="preserve" text-anchor="middle" x="210" y="-594.5" font-family="Helvetica,sans-Serif" font-size="10.00">::is_arithmetic, Ns... &gt;</text>
</a>
</g>
</g>
<!-- Node0&#45;&gt;Node1 -->
<g id="edge124_Node000000_Node000001" class="edge">
<title>Node0&#45;&gt;Node1</title>
<g id="a_edge124_Node000000_Node000001"><a xlink:title=" ">
<path fill="none" stroke="#63b8ff" d="M48.47,-295.74C48.03,-350.87 54.64,-497.5 132.25,-579 137.95,-584.99 145.1,-589.54 152.73,-593.01"/>
<polygon fill="#63b8ff" stroke="#63b8ff" points="51.97,-295.9 48.65,-285.84 44.97,-295.78 51.97,-295.9"/>
</a>
</g>
</g>
<!-- Node3 -->
<g id="Node000003" class="node">
<title>Node3</title>
<g id="a_Node000003"><a xlink:href="dd/def/structmstd_1_1all__check.html" target="_top" xlink:title=" ">
<polygon fill="white" stroke="#666666" points="263.75,-570 156.25,-570 156.25,-526 263.75,-526 263.75,-570"/>
<text xml:space="preserve" text-anchor="start" x="164.25" y="-556.5" font-family="Helvetica,sans-Serif" font-size="10.00">mstd::all_check&lt; std</text>
<text xml:space="preserve" text-anchor="start" x="164.25" y="-544.5" font-family="Helvetica,sans-Serif" font-size="10.00">::is_floating_point,</text>
<text xml:space="preserve" text-anchor="middle" x="210" y="-532.5" font-family="Helvetica,sans-Serif" font-size="10.00"> Ns... &gt;</text>
</a>
</g>
</g>
<!-- Node0&#45;&gt;Node3 -->
<g id="edge126_Node000000_Node000003" class="edge">
<title>Node0&#45;&gt;Node3</title>
<g id="a_edge126_Node000000_Node000003"><a xlink:title=" ">
<path fill="none" stroke="#63b8ff" d="M50.62,-295.65C54.96,-342.2 71.43,-452.79 132.25,-517 138.87,-523.99 147.28,-529.45 156.1,-533.69"/>
<polygon fill="#63b8ff" stroke="#63b8ff" points="54.12,-295.5 49.82,-285.82 47.14,-296.07 54.12,-295.5"/>
</a>
</g>
</g>
<!-- Node5 -->
<g id="Node000005" class="node">
<title>Node5</title>
<g id="a_Node000005"><a xlink:href="dd/def/structmstd_1_1all__check.html" target="_top" xlink:title=" ">
<polygon fill="white" stroke="#666666" points="263.75,-508 156.25,-508 156.25,-476 263.75,-476 263.75,-508"/>
<text xml:space="preserve" text-anchor="start" x="164.25" y="-494.5" font-family="Helvetica,sans-Serif" font-size="10.00">mstd::all_check&lt; std</text>
<text xml:space="preserve" text-anchor="middle" x="210" y="-482.5" font-family="Helvetica,sans-Serif" font-size="10.00">::is_integral, Ns... &gt;</text>
</a>
</g>
</g>
<!-- Node0&#45;&gt;Node5 -->
<g id="edge128_Node000000_Node000005" class="edge">
<title>Node0&#45;&gt;Node5</title>
<g id="a_edge128_Node000000_Node000005"><a xlink:title=" ">
<path fill="none" stroke="#63b8ff" d="M52.39,-295.18C59.57,-334.66 80.45,-419.75 132.25,-467 138.98,-473.14 147.24,-477.77 155.82,-481.27"/>
<polygon fill="#63b8ff" stroke="#63b8ff" points="55.88,-294.84 50.77,-285.57 48.98,-296.01 55.88,-294.84"/>
</a>
</g>
</g>
<!-- Node7 -->
<g id="Node000007" class="node">
<title>Node7</title>
<g id="a_Node000007"><a xlink:href="dd/def/structmstd_1_1all__check.html" target="_top" xlink:title=" ">
<polygon fill="white" stroke="#666666" points="263.75,-458 156.25,-458 156.25,-426 263.75,-426 263.75,-458"/>
<text xml:space="preserve" text-anchor="start" x="164.25" y="-444.5" font-family="Helvetica,sans-Serif" font-size="10.00">mstd::all_check&lt; std</text>
<text xml:space="preserve" text-anchor="middle" x="210" y="-432.5" font-family="Helvetica,sans-Serif" font-size="10.00">::is_signed, Ns... &gt;</text>
</a>
</g>
</g>
<!-- Node0&#45;&gt;Node7 -->
<g id="edge130_Node000000_Node000007" class="edge">
<title>Node0&#45;&gt;Node7</title>
<g id="a_edge130_Node000000_Node000007"><a xlink:title=" ">
<path fill="none" stroke="#63b8ff" d="M55.94,-295.23C67.01,-326.39 91.83,-384.34 132.25,-417 139.23,-422.64 147.51,-427.02 156.01,-430.42"/>
<polygon fill="#63b8ff" stroke="#63b8ff" points="59.27,-294.14 52.74,-285.79 52.64,-296.39 59.27,-294.14"/>
</a>
</g>
</g>
<!-- Node9 -->
<g id="Node000009" class="node">
<title>Node9</title>
<g id="a_Node000009"><a xlink:href="dd/def/structmstd_1_1all__check.html" target="_top" xlink:title=" ">
<polygon fill="white" stroke="#666666" points="267.88,-408 152.12,-408 152.12,-364 267.88,-364 267.88,-408"/>
<text xml:space="preserve" text-anchor="start" x="160.12" y="-394.5" font-family="Helvetica,sans-Serif" font-size="10.00">mstd::all_check&lt; mstd</text>
<text xml:space="preserve" text-anchor="start" x="160.12" y="-382.5" font-family="Helvetica,sans-Serif" font-size="10.00">::is_signed_integral,</text>
<text xml:space="preserve" text-anchor="middle" x="210" y="-370.5" font-family="Helvetica,sans-Serif" font-size="10.00"> Ns... &gt;</text>
</a>
</g>
</g>
<!-- Node0&#45;&gt;Node9 -->
<g id="edge132_Node000000_Node000009" class="edge">
<title>Node0&#45;&gt;Node9</title>
<g id="a_edge132_Node000000_Node000009"><a xlink:title=" ">
<path fill="none" stroke="#63b8ff" d="M64.51,-292.74C80.05,-310.69 105.52,-337.56 132.25,-355 138.39,-359.01 145.13,-362.64 151.98,-365.91"/>
<polygon fill="#63b8ff" stroke="#63b8ff" points="67.44,-290.79 58.31,-285.42 62.1,-295.31 67.44,-290.79"/>
</a>
</g>
</g>
<!-- Node11 -->
<g id="Node000011" class="node">
<title>Node11</title>
<g id="a_Node000011"><a xlink:href="dd/def/structmstd_1_1all__check.html" target="_top" xlink:title=" ">
<polygon fill="white" stroke="#666666" points="265.25,-346 154.75,-346 154.75,-314 265.25,-314 265.25,-346"/>
<text xml:space="preserve" text-anchor="start" x="162.75" y="-332.5" font-family="Helvetica,sans-Serif" font-size="10.00">mstd::all_check&lt; std</text>
<text xml:space="preserve" text-anchor="middle" x="210" y="-320.5" font-family="Helvetica,sans-Serif" font-size="10.00">::is_unsigned, Ns... &gt;</text>
</a>
</g>
</g>
<!-- Node0&#45;&gt;Node11 -->
<g id="edge134_Node000000_Node000011" class="edge">
<title>Node0&#45;&gt;Node11</title>
<g id="a_edge134_Node000000_Node000011"><a xlink:title=" ">
<path fill="none" stroke="#63b8ff" d="M86.74,-288.41C100.96,-293.75 117.3,-299.78 132.25,-305 140.45,-307.86 149.18,-310.81 157.71,-313.62"/>
<polygon fill="#63b8ff" stroke="#63b8ff" points="88.36,-285.28 77.77,-285.02 85.88,-291.83 88.36,-285.28"/>
</a>
</g>
</g>
<!-- Node13 -->
<g id="Node000013" class="node">
<title>Node13</title>
<g id="a_Node000013"><a xlink:href="dd/def/structmstd_1_1all__check.html" target="_top" xlink:title=" ">
<polygon fill="white" stroke="#666666" points="267.88,-296 152.12,-296 152.12,-252 267.88,-252 267.88,-296"/>
<text xml:space="preserve" text-anchor="start" x="160.12" y="-282.5" font-family="Helvetica,sans-Serif" font-size="10.00">mstd::all_check&lt; mstd</text>
<text xml:space="preserve" text-anchor="start" x="160.12" y="-270.5" font-family="Helvetica,sans-Serif" font-size="10.00">::is_unsigned_integral,</text>
<text xml:space="preserve" text-anchor="middle" x="210" y="-258.5" font-family="Helvetica,sans-Serif" font-size="10.00"> Ns... &gt;</text>
</a>
</g>
</g>
<!-- Node0&#45;&gt;Node13 -->
<g id="edge136_Node000000_Node000013" class="edge">
<title>Node0&#45;&gt;Node13</title>
<g id="a_edge136_Node000000_Node000013"><a xlink:title=" ">
<path fill="none" stroke="#63b8ff" d="M107.9,-274C122.22,-274 137.52,-274 151.76,-274"/>
<polygon fill="#63b8ff" stroke="#63b8ff" points="108.17,-270.5 98.17,-274 108.17,-277.5 108.17,-270.5"/>
</a>
</g>
</g>
<!-- Node15 -->
<g id="Node000015" class="node">
<title>Node15</title>
<g id="a_Node000015"><a xlink:href="dd/def/structmstd_1_1all__check.html" target="_top" xlink:title=" ">
<polygon fill="white" stroke="#666666" points="272.75,-234 147.25,-234 147.25,-202 272.75,-202 272.75,-234"/>
<text xml:space="preserve" text-anchor="start" x="155.25" y="-220.5" font-family="Helvetica,sans-Serif" font-size="10.00">mstd::all_check&lt; Check,</text>
<text xml:space="preserve" text-anchor="middle" x="210" y="-208.5" font-family="Helvetica,sans-Serif" font-size="10.00"> Ts &gt;</text>
</a>
</g>
</g>
<!-- Node0&#45;&gt;Node15 -->
<g id="edge138_Node000000_Node000015" class="edge">
<title>Node0&#45;&gt;Node15</title>
<g id="a_edge138_Node000000_Node000015"><a xlink:title=" ">
<path fill="none" stroke="#63b8ff" d="M86.74,-259.59C100.96,-254.25 117.3,-248.22 132.25,-243 140.45,-240.14 149.18,-237.19 157.71,-234.38"/>
<polygon fill="#63b8ff" stroke="#63b8ff" points="85.88,-256.17 77.77,-262.98 88.36,-262.72 85.88,-256.17"/>
</a>
</g>
</g>
<!-- Node16 -->
<g id="Node000016" class="node">
<title>Node16</title>
<g id="a_Node000016"><a xlink:href="d4/ddb/structmstd_1_1any__check.html" target="_top" xlink:title=" ">
<polygon fill="white" stroke="#666666" points="275.75,-184 144.25,-184 144.25,-152 275.75,-152 275.75,-184"/>
<text xml:space="preserve" text-anchor="start" x="152.25" y="-170.5" font-family="Helvetica,sans-Serif" font-size="10.00">mstd::any_check&lt; Check,</text>
<text xml:space="preserve" text-anchor="middle" x="210" y="-158.5" font-family="Helvetica,sans-Serif" font-size="10.00"> Ts &gt;</text>
</a>
</g>
</g>
<!-- Node0&#45;&gt;Node16 -->
<g id="edge139_Node000000_Node000016" class="edge">
<title>Node0&#45;&gt;Node16</title>
<g id="a_edge139_Node000000_Node000016"><a xlink:title=" ">
<path fill="none" stroke="#63b8ff" d="M64.22,-254.89C79.56,-236.64 104.92,-209.52 132.25,-193 137.53,-189.81 143.26,-186.98 149.13,-184.48"/>
<polygon fill="#63b8ff" stroke="#63b8ff" points="61.54,-252.64 57.92,-262.6 66.96,-257.07 61.54,-252.64"/>
</a>
</g>
</g>
<!-- Node17 -->
<g id="Node000017" class="node">
<title>Node17</title>
<g id="a_Node000017"><a xlink:href="de/d88/structmstd_1_1is__eq.html" target="_top" xlink:title=" ">
<polygon fill="white" stroke="#666666" points="261.88,-134 158.12,-134 158.12,-114 261.88,-114 261.88,-134"/>
<text xml:space="preserve" text-anchor="middle" x="210" y="-120.5" font-family="Helvetica,sans-Serif" font-size="10.00">mstd::is_eq&lt; A, B &gt;</text>
</a>
</g>
</g>
<!-- Node0&#45;&gt;Node17 -->
<g id="edge140_Node000000_Node000017" class="edge">
<title>Node0&#45;&gt;Node17</title>
<g id="a_edge140_Node000000_Node000017"><a xlink:title=" ">
<path fill="none" stroke="#63b8ff" d="M56.66,-252.94C68.23,-223.65 93.25,-171.08 132.25,-143 139.83,-137.55 148.79,-133.65 157.87,-130.87"/>
<polygon fill="#63b8ff" stroke="#63b8ff" points="53.43,-251.58 53.17,-262.17 59.97,-254.05 53.43,-251.58"/>
</a>
</g>
</g>
<!-- Node18 -->
<g id="Node000018" class="node">
<title>Node18</title>
<g id="a_Node000018"><a xlink:href="db/dab/structmstd_1_1is__neq.html" target="_top" xlink:title=" ">
<polygon fill="white" stroke="#666666" points="264.5,-96 155.5,-96 155.5,-76 264.5,-76 264.5,-96"/>
<text xml:space="preserve" text-anchor="middle" x="210" y="-82.5" font-family="Helvetica,sans-Serif" font-size="10.00">mstd::is_neq&lt; A, B &gt;</text>
</a>
</g>
</g>
<!-- Node0&#45;&gt;Node18 -->
<g id="edge141_Node000000_Node000018" class="edge">
<title>Node0&#45;&gt;Node18</title>
<g id="a_edge141_Node000000_Node000018"><a xlink:title=" ">
<path fill="none" stroke="#63b8ff" d="M53.49,-252.64C62.03,-216.52 84.42,-143.53 132.25,-105 138.98,-99.57 147.05,-95.67 155.39,-92.86"/>
<polygon fill="#63b8ff" stroke="#63b8ff" points="50.1,-251.77 51.36,-262.29 56.94,-253.28 50.1,-251.77"/>
</a>
</g>
</g>
<!-- Node19 -->
<g id="Node000019" class="node">
<title>Node19</title>
<g id="a_Node000019"><a xlink:href="d4/d14/structmstd_1_1is__signed__integral.html" target="_top" xlink:title=" ">
<polygon fill="white" stroke="#666666" points="282.5,-58 137.5,-58 137.5,-38 282.5,-38 282.5,-58"/>
<text xml:space="preserve" text-anchor="middle" x="210" y="-44.5" font-family="Helvetica,sans-Serif" font-size="10.00">mstd::is_signed_integral&lt; T &gt;</text>
</a>
</g>
</g>
<!-- Node0&#45;&gt;Node19 -->
<g id="edge142_Node000000_Node000019" class="edge">
<title>Node0&#45;&gt;Node19</title>
<g id="a_edge142_Node000000_Node000019"><a xlink:title=" ">
<path fill="none" stroke="#63b8ff" d="M51.42,-252.09C57.07,-209.7 75.58,-116.29 132.25,-67 136.19,-63.58 140.64,-60.75 145.38,-58.42"/>
<polygon fill="#63b8ff" stroke="#63b8ff" points="47.95,-251.66 50.23,-262 54.9,-252.49 47.95,-251.66"/>
</a>
</g>
</g>
<!-- Node20 -->
<g id="Node000020" class="node">
<title>Node20</title>
<g id="a_Node000020"><a xlink:href="d6/db1/structmstd_1_1is__unsigned__integral.html" target="_top" xlink:title=" ">
<polygon fill="white" stroke="#666666" points="287.75,-20 132.25,-20 132.25,0 287.75,0 287.75,-20"/>
<text xml:space="preserve" text-anchor="middle" x="210" y="-6.5" font-family="Helvetica,sans-Serif" font-size="10.00">mstd::is_unsigned_integral&lt; T &gt;</text>
</a>
</g>
</g>
<!-- Node0&#45;&gt;Node20 -->
<g id="edge143_Node000000_Node000020" class="edge">
<title>Node0&#45;&gt;Node20</title>
<g id="a_edge143_Node000000_Node000020"><a xlink:title=" ">
<path fill="none" stroke="#63b8ff" d="M49.85,-252.13C52.68,-204.25 66.36,-89.55 132.25,-29 135.99,-25.56 140.25,-22.72 144.81,-20.38"/>
<polygon fill="#63b8ff" stroke="#63b8ff" points="46.36,-251.86 49.39,-262.02 53.36,-252.19 46.36,-251.86"/>
</a>
</g>
</g>
<!-- Node2 -->
<g id="Node000002" class="node">
<title>Node2</title>
<g id="a_Node000002"><a xlink:href="d6/dbb/structmstd_1_1are__arithmetic.html" target="_top" xlink:title=" ">
<polygon fill="white" stroke="#666666" points="442.88,-620 337.62,-620 337.62,-588 442.88,-588 442.88,-620"/>
<text xml:space="preserve" text-anchor="start" x="345.62" y="-606.5" font-family="Helvetica,sans-Serif" font-size="10.00">mstd::are_arithmetic</text>
<text xml:space="preserve" text-anchor="middle" x="390.25" y="-594.5" font-family="Helvetica,sans-Serif" font-size="10.00">&lt; Ns &gt;</text>
</a>
</g>
</g>
<!-- Node1&#45;&gt;Node2 -->
<g id="edge125_Node000001_Node000002" class="edge">
<title>Node1&#45;&gt;Node2</title>
<g id="a_edge125_Node000001_Node000002"><a xlink:title=" ">
<path fill="none" stroke="#63b8ff" d="M278.89,-604C298.21,-604 318.94,-604 337.15,-604"/>
<polygon fill="#63b8ff" stroke="#63b8ff" points="278.91,-600.5 268.91,-604 278.91,-607.5 278.91,-600.5"/>
</a>
</g>
</g>
<!-- Node4 -->
<g id="Node000004" class="node">
<title>Node4</title>
<g id="a_Node000004"><a xlink:href="d0/d76/structmstd_1_1are__floating__points.html" target="_top" xlink:title=" ">
<polygon fill="white" stroke="#666666" points="437.25,-564 343.25,-564 343.25,-532 437.25,-532 437.25,-564"/>
<text xml:space="preserve" text-anchor="start" x="351.25" y="-550.5" font-family="Helvetica,sans-Serif" font-size="10.00">mstd::are_floating</text>
<text xml:space="preserve" text-anchor="middle" x="390.25" y="-538.5" font-family="Helvetica,sans-Serif" font-size="10.00">_points&lt; Ns &gt;</text>
</a>
</g>
</g>
<!-- Node3&#45;&gt;Node4 -->
<g id="edge127_Node000003_Node000004" class="edge">
<title>Node3&#45;&gt;Node4</title>
<g id="a_edge127_Node000003_Node000004"><a xlink:title=" ">
<path fill="none" stroke="#63b8ff" d="M275.42,-548C297.71,-548 322.24,-548 342.81,-548"/>
<polygon fill="#63b8ff" stroke="#63b8ff" points="275.51,-544.5 265.51,-548 275.51,-551.5 275.51,-544.5"/>
</a>
</g>
</g>
<!-- Node6 -->
<g id="Node000006" class="node">
<title>Node6</title>
<g id="a_Node000006"><a xlink:href="d7/d43/structmstd_1_1are__integrals.html" target="_top" xlink:title=" ">
<polygon fill="white" stroke="#666666" points="439.88,-508 340.62,-508 340.62,-476 439.88,-476 439.88,-508"/>
<text xml:space="preserve" text-anchor="start" x="348.62" y="-494.5" font-family="Helvetica,sans-Serif" font-size="10.00">mstd::are_integrals</text>
<text xml:space="preserve" text-anchor="middle" x="390.25" y="-482.5" font-family="Helvetica,sans-Serif" font-size="10.00">&lt; Ns &gt;</text>
</a>
</g>
</g>
<!-- Node5&#45;&gt;Node6 -->
<g id="edge129_Node000005_Node000006" class="edge">
<title>Node5&#45;&gt;Node6</title>
<g id="a_edge129_Node000005_Node000006"><a xlink:title=" ">
<path fill="none" stroke="#63b8ff" d="M275.33,-492C296.79,-492 320.33,-492 340.41,-492"/>
<polygon fill="#63b8ff" stroke="#63b8ff" points="275.51,-488.5 265.51,-492 275.51,-495.5 275.51,-488.5"/>
</a>
</g>
</g>
<!-- Node8 -->
<g id="Node000008" class="node">
<title>Node8</title>
<g id="a_Node000008"><a xlink:href="da/d8d/structmstd_1_1are__signed.html" target="_top" xlink:title=" ">
<polygon fill="white" stroke="#666666" points="451.12,-452 329.38,-452 329.38,-432 451.12,-432 451.12,-452"/>
<text xml:space="preserve" text-anchor="middle" x="390.25" y="-438.5" font-family="Helvetica,sans-Serif" font-size="10.00">mstd::are_signed&lt; Ns &gt;</text>
</a>
</g>
</g>
<!-- Node7&#45;&gt;Node8 -->
<g id="edge131_Node000007_Node000008" class="edge">
<title>Node7&#45;&gt;Node8</title>
<g id="a_edge131_Node000007_Node000008"><a xlink:title=" ">
<path fill="none" stroke="#63b8ff" d="M275.27,-442C292.78,-442 311.67,-442 328.95,-442"/>
<polygon fill="#63b8ff" stroke="#63b8ff" points="275.51,-438.5 265.51,-442 275.51,-445.5 275.51,-438.5"/>
</a>
</g>
</g>
<!-- Node10 -->
<g id="Node000010" class="node">
<title>Node10</title>
<g id="a_Node000010"><a xlink:href="d1/d7d/structmstd_1_1are__signed__integrals.html" target="_top" xlink:title=" ">
<polygon fill="white" stroke="#666666" points="456.75,-402 323.75,-402 323.75,-370 456.75,-370 456.75,-402"/>
<text xml:space="preserve" text-anchor="start" x="331.75" y="-388.5" font-family="Helvetica,sans-Serif" font-size="10.00">mstd::are_signed_integrals</text>
<text xml:space="preserve" text-anchor="middle" x="390.25" y="-376.5" font-family="Helvetica,sans-Serif" font-size="10.00">&lt; Ns &gt;</text>
</a>
</g>
</g>
<!-- Node9&#45;&gt;Node10 -->
<g id="edge133_Node000009_Node000010" class="edge">
<title>Node9&#45;&gt;Node10</title>
<g id="a_edge133_Node000009_Node000010"><a xlink:title=" ">
<path fill="none" stroke="#63b8ff" d="M279.27,-386C293.71,-386 308.92,-386 323.27,-386"/>
<polygon fill="#63b8ff" stroke="#63b8ff" points="279.4,-382.5 269.4,-386 279.4,-389.5 279.4,-382.5"/>
</a>
</g>
</g>
<!-- Node12 -->
<g id="Node000012" class="node">
<title>Node12</title>
<g id="a_Node000012"><a xlink:href="dc/d2d/structmstd_1_1are__unsigned.html" target="_top" xlink:title=" ">
<polygon fill="white" stroke="#666666" points="441,-346 339.5,-346 339.5,-314 441,-314 441,-346"/>
<text xml:space="preserve" text-anchor="start" x="347.5" y="-332.5" font-family="Helvetica,sans-Serif" font-size="10.00">mstd::are_unsigned</text>
<text xml:space="preserve" text-anchor="middle" x="390.25" y="-320.5" font-family="Helvetica,sans-Serif" font-size="10.00">&lt; Ns &gt;</text>
</a>
</g>
</g>
<!-- Node11&#45;&gt;Node12 -->
<g id="edge135_Node000011_Node000012" class="edge">
<title>Node11&#45;&gt;Node12</title>
<g id="a_edge135_Node000011_Node000012"><a xlink:title=" ">
<path fill="none" stroke="#63b8ff" d="M276.69,-330C297.3,-330 319.72,-330 339.08,-330"/>
<polygon fill="#63b8ff" stroke="#63b8ff" points="276.96,-326.5 266.96,-330 276.96,-333.5 276.96,-326.5"/>
</a>
</g>
</g>
<!-- Node14 -->
<g id="Node000014" class="node">
<title>Node14</title>
<g id="a_Node000014"><a xlink:href="d5/d54/structmstd_1_1are__unsigned__integrals.html" target="_top" xlink:title=" ">
<polygon fill="white" stroke="#666666" points="441,-290 339.5,-290 339.5,-258 441,-258 441,-290"/>
<text xml:space="preserve" text-anchor="start" x="347.5" y="-276.5" font-family="Helvetica,sans-Serif" font-size="10.00">mstd::are_unsigned</text>
<text xml:space="preserve" text-anchor="middle" x="390.25" y="-264.5" font-family="Helvetica,sans-Serif" font-size="10.00">_integrals&lt; Ns &gt;</text>
</a>
</g>
</g>
<!-- Node13&#45;&gt;Node14 -->
<g id="edge137_Node000013_Node000014" class="edge">
<title>Node13&#45;&gt;Node14</title>
<g id="a_edge137_Node000013_Node000014"><a xlink:title=" ">
<path fill="none" stroke="#63b8ff" d="M279.13,-274C299.11,-274 320.58,-274 339.21,-274"/>
<polygon fill="#63b8ff" stroke="#63b8ff" points="279.4,-270.5 269.4,-274 279.4,-277.5 279.4,-270.5"/>
</a>
</g>
</g>
</g>
</svg>
