<?xml version="1.0" encoding="UTF-8" standalone="no"?>
<!DOCTYPE svg PUBLIC "-//W3C//DTD SVG 1.1//EN"
 "http://www.w3.org/Graphics/SVG/1.1/DTD/svg11.dtd">
<!-- Generated by graphviz version 14.1.1 (20251213.1925)
 -->
<!-- Title: Graphical Class Hierarchy Pages: 1 -->
<svg width="280pt" height="436pt"
 viewBox="0.00 0.00 280.00 436.00" xmlns="http://www.w3.org/2000/svg" xmlns:xlink="http://www.w3.org/1999/xlink">
<g id="graph0" class="graph" transform="scale(1 1) rotate(0) translate(4 432)">
<title>Graphical Class Hierarchy</title>
<!-- Node0 -->
<g id="Node000000" class="node">
<title>Node0</title>
<g id="a_Node000000"><a xlink:title=" ">
<polygon fill="#e0e0e0" stroke="#999999" points="80.5,-200 0,-200 0,-180 80.5,-180 80.5,-200"/>
<text xml:space="preserve" text-anchor="middle" x="40.25" y="-186.5" font-family="Helvetica,sans-Serif" font-size="10.00">std::false_type</text>
</a>
</g>
</g>
<!-- Node1 -->
<g id="Node000001" class="node">
<title>Node1</title>
<g id="a_Node000001"><a xlink:href="dc/d7e/structmstd_1_1is__callable_3_01_f_00_01std_1_1void__t_3_01typename_01function__traits_3_01_f_01_043e941825227a5adf5ab39cb087f501.html" target="_top" xlink:title=" ">
<polygon fill="white" stroke="#666666" points="258.12,-428 130.38,-428 130.38,-372 258.12,-372 258.12,-428"/>
<text xml:space="preserve" text-anchor="start" x="138.38" y="-414.5" font-family="Helvetica,sans-Serif" font-size="10.00">mstd::is_callable&lt;</text>
<text xml:space="preserve" text-anchor="start" x="138.38" y="-402.5" font-family="Helvetica,sans-Serif" font-size="10.00"> F, std::void_t&lt; typename</text>
<text xml:space="preserve" text-anchor="start" x="138.38" y="-390.5" font-family="Helvetica,sans-Serif" font-size="10.00"> function_traits&lt; F &gt;::std</text>
<text xml:space="preserve" text-anchor="middle" x="194.25" y="-378.5" font-family="Helvetica,sans-Serif" font-size="10.00">_function_type &gt; &gt;</text>
</a>
</g>
</g>
<!-- Node0&#45;&gt;Node1 -->
<g id="edge150_Node000000_Node000001" class="edge">
<title>Node0&#45;&gt;Node1</title>
<g id="a_edge150_Node000000_Node000001"><a xlink:title=" ">
<path fill="none" stroke="#63b8ff" d="M48.4,-211.27C62.5,-252.24 94.44,-340.06 116.5,-363 120.5,-367.16 125.06,-370.91 129.92,-374.28"/>
<polygon fill="#63b8ff" stroke="#63b8ff" points="51.72,-210.17 45.19,-201.83 45.1,-212.43 51.72,-210.17"/>
</a>
</g>
</g>
<!-- Node3 -->
<g id="Node000003" class="node">
<title>Node3</title>
<g id="a_Node000003"><a xlink:href="dd/dff/structmstd_1_1is__iterator_3_01_t_00_01std_1_1void__t_3_01typename_01std_1_1iterator__traits_3_06d7d9c467d139e56d8171f3848aae897.html" target="_top" xlink:title=" ">
<polygon fill="white" stroke="#666666" points="257.75,-354 130.75,-354 130.75,-298 257.75,-298 257.75,-354"/>
<text xml:space="preserve" text-anchor="start" x="138.75" y="-340.5" font-family="Helvetica,sans-Serif" font-size="10.00">mstd::is_iterator&lt;</text>
<text xml:space="preserve" text-anchor="start" x="138.75" y="-328.5" font-family="Helvetica,sans-Serif" font-size="10.00"> T, std::void_t&lt; typename</text>
<text xml:space="preserve" text-anchor="start" x="138.75" y="-316.5" font-family="Helvetica,sans-Serif" font-size="10.00"> std::iterator_traits&lt; T</text>
<text xml:space="preserve" text-anchor="middle" x="194.25" y="-304.5" font-family="Helvetica,sans-Serif" font-size="10.00"> &gt;::iterator_category &gt; &gt;</text>
</a>
</g>
</g>
<!-- Node0&#45;&gt;Node3 -->
<g id="edge151_Node000000_Node000003" class="edge">
<title>Node0&#45;&gt;Node3</title>
<g id="a_edge151_Node000000_Node000003"><a xlink:title=" ">
<path fill="none" stroke="#63b8ff" d="M52.53,-210.05C65.6,-231.81 88.9,-266.45 116.5,-289 120.85,-292.56 125.6,-295.87 130.54,-298.94"/>
<polygon fill="#63b8ff" stroke="#63b8ff" points="55.64,-208.43 47.58,-201.55 49.59,-211.96 55.64,-208.43"/>
</a>
</g>
</g>
<!-- Node4 -->
<g id="Node000004" class="node">
<title>Node4</title>
<g id="a_Node000004"><a xlink:href="d3/d53/structmstd_1_1is__same__function_3_01_f_00_01_f_00_01std_1_1void__t_3_01std_1_1enable__if__t_3_02220cef7459a6438b7a19636b8713fb8.html" target="_top" xlink:title=" ">
<polygon fill="white" stroke="#666666" points="257,-280 131.5,-280 131.5,-224 257,-224 257,-280"/>
<text xml:space="preserve" text-anchor="start" x="139.5" y="-266.5" font-family="Helvetica,sans-Serif" font-size="10.00">mstd::is_same_function</text>
<text xml:space="preserve" text-anchor="start" x="139.5" y="-254.5" font-family="Helvetica,sans-Serif" font-size="10.00">&lt; F, F, std::void_t&lt; std</text>
<text xml:space="preserve" text-anchor="start" x="139.5" y="-242.5" font-family="Helvetica,sans-Serif" font-size="10.00">::enable_if_t&lt; is_function</text>
<text xml:space="preserve" text-anchor="middle" x="194.25" y="-230.5" font-family="Helvetica,sans-Serif" font-size="10.00">_v&lt; F &gt; &gt; &gt; &gt;</text>
</a>
</g>
</g>
<!-- Node0&#45;&gt;Node4 -->
<g id="edge152_Node000000_Node000004" class="edge">
<title>Node0&#45;&gt;Node4</title>
<g id="a_edge152_Node000000_Node000004"><a xlink:title=" ">
<path fill="none" stroke="#63b8ff" d="M77.27,-204.69C93.42,-211.28 112.93,-219.24 131.3,-226.73"/>
<polygon fill="#63b8ff" stroke="#63b8ff" points="78.67,-201.49 68.09,-200.95 76.03,-207.97 78.67,-201.49"/>
</a>
</g>
</g>
<!-- Node5 -->
<g id="Node000005" class="node">
<title>Node5</title>
<g id="a_Node000005"><a xlink:href="d2/d80/structmstd_1_1is__same__function_3_01_fa_00_01_fb_00_01std_1_1void__t_3_01as__std__function__t_3d1b96092a7907e920167e1435bd8baf0.html" target="_top" xlink:title=" ">
<polygon fill="white" stroke="#666666" points="272,-56 116.5,-56 116.5,0 272,0 272,-56"/>
<text xml:space="preserve" text-anchor="start" x="124.5" y="-42.5" font-family="Helvetica,sans-Serif" font-size="10.00">mstd::is_same_function</text>
<text xml:space="preserve" text-anchor="start" x="124.5" y="-30.5" font-family="Helvetica,sans-Serif" font-size="10.00">&lt; Fa, Fb, std::void_t</text>
<text xml:space="preserve" text-anchor="start" x="124.5" y="-18.5" font-family="Helvetica,sans-Serif" font-size="10.00">&lt; as_std_function_t&lt; Fa</text>
<text xml:space="preserve" text-anchor="middle" x="194.25" y="-6.5" font-family="Helvetica,sans-Serif" font-size="10.00"> &gt;, as_std_function_t&lt; Fb &gt; &gt; &gt;</text>
</a>
</g>
</g>
<!-- Node0&#45;&gt;Node5 -->
<g id="edge153_Node000000_Node000005" class="edge">
<title>Node0&#45;&gt;Node5</title>
<g id="a_edge153_Node000000_Node000005"><a xlink:title=" ">
<path fill="none" stroke="#63b8ff" d="M49.4,-168.98C60.81,-141.88 83.88,-94.73 116.5,-65 119.89,-61.91 123.58,-59.03 127.46,-56.35"/>
<polygon fill="#63b8ff" stroke="#63b8ff" points="46.18,-167.59 45.67,-178.17 52.67,-170.22 46.18,-167.59"/>
</a>
</g>
</g>
<!-- Node7 -->
<g id="Node000007" class="node">
<title>Node7</title>
<g id="a_Node000007"><a xlink:href="d0/dc6/structmstd_1_1is__callable.html" target="_top" xlink:title=" ">
<polygon fill="white" stroke="#666666" points="242,-206 146.5,-206 146.5,-174 242,-174 242,-206"/>
<text xml:space="preserve" text-anchor="start" x="154.5" y="-192.5" font-family="Helvetica,sans-Serif" font-size="10.00">mstd::is_callable&lt;</text>
<text xml:space="preserve" text-anchor="middle" x="194.25" y="-180.5" font-family="Helvetica,sans-Serif" font-size="10.00"> F, class &gt;</text>
</a>
</g>
</g>
<!-- Node0&#45;&gt;Node7 -->
<g id="edge154_Node000000_Node000007" class="edge">
<title>Node0&#45;&gt;Node7</title>
<g id="a_edge154_Node000000_Node000007"><a xlink:title=" ">
<path fill="none" stroke="#63b8ff" d="M91.93,-190C109.4,-190 128.89,-190 146.07,-190"/>
<polygon fill="#63b8ff" stroke="#63b8ff" points="92.3,-186.5 82.3,-190 92.3,-193.5 92.3,-186.5"/>
</a>
</g>
</g>
<!-- Node8 -->
<g id="Node000008" class="node">
<title>Node8</title>
<g id="a_Node000008"><a xlink:href="d2/dee/structmstd_1_1is__iterator.html" target="_top" xlink:title=" ">
<polygon fill="white" stroke="#666666" points="240.5,-156 148,-156 148,-124 240.5,-124 240.5,-156"/>
<text xml:space="preserve" text-anchor="start" x="156" y="-142.5" font-family="Helvetica,sans-Serif" font-size="10.00">mstd::is_iterator&lt;</text>
<text xml:space="preserve" text-anchor="middle" x="194.25" y="-130.5" font-family="Helvetica,sans-Serif" font-size="10.00"> T, class &gt;</text>
</a>
</g>
</g>
<!-- Node0&#45;&gt;Node8 -->
<g id="edge155_Node000000_Node000008" class="edge">
<title>Node0&#45;&gt;Node8</title>
<g id="a_edge155_Node000000_Node000008"><a xlink:title=" ">
<path fill="none" stroke="#63b8ff" d="M83.27,-175.99C94.09,-172.4 105.73,-168.54 116.5,-165 126.62,-161.67 137.49,-158.12 147.78,-154.76"/>
<polygon fill="#63b8ff" stroke="#63b8ff" points="82.18,-172.67 73.79,-179.14 84.39,-179.31 82.18,-172.67"/>
</a>
</g>
</g>
<!-- Node9 -->
<g id="Node000009" class="node">
<title>Node9</title>
<g id="a_Node000009"><a xlink:href="d6/d67/structmstd_1_1is__same__function.html" target="_top" xlink:title=" ">
<polygon fill="white" stroke="#666666" points="254.38,-106 134.12,-106 134.12,-74 254.38,-74 254.38,-106"/>
<text xml:space="preserve" text-anchor="start" x="142.12" y="-92.5" font-family="Helvetica,sans-Serif" font-size="10.00">mstd::is_same_function</text>
<text xml:space="preserve" text-anchor="middle" x="194.25" y="-80.5" font-family="Helvetica,sans-Serif" font-size="10.00">&lt; Fa, Fb, class &gt;</text>
</a>
</g>
</g>
<!-- Node0&#45;&gt;Node9 -->
<g id="edge156_Node000000_Node000009" class="edge">
<title>Node0&#45;&gt;Node9</title>
<g id="a_edge156_Node000000_Node000009"><a xlink:title=" ">
<path fill="none" stroke="#63b8ff" d="M56.08,-170.77C70.02,-153.9 92.3,-129.81 116.5,-115 121.88,-111.71 127.74,-108.8 133.74,-106.24"/>
<polygon fill="#63b8ff" stroke="#63b8ff" points="53.36,-168.57 49.84,-178.56 58.82,-172.95 53.36,-168.57"/>
</a>
</g>
</g>
<!-- Node6 -->
<g id="Node000006" class="node">
<title>Node6</title>
<g id="a_Node000006"><a xlink:title=" ">
<polygon fill="#e0e0e0" stroke="#999999" points="76.38,-38 4.12,-38 4.12,-18 76.38,-18 76.38,-38"/>
<text xml:space="preserve" text-anchor="middle" x="40.25" y="-24.5" font-family="Helvetica,sans-Serif" font-size="10.00">std::is_same</text>
</a>
</g>
</g>
<!-- Node6&#45;&gt;Node5 -->
<g id="edge157_Node000006_Node000005" class="edge">
<title>Node6&#45;&gt;Node5</title>
<g id="a_edge157_Node000006_Node000005"><a xlink:title=" ">
<path fill="none" stroke="#63b8ff" d="M87.88,-28C96.86,-28 106.49,-28 116.14,-28"/>
<polygon fill="#63b8ff" stroke="#63b8ff" points="88.02,-24.5 78.02,-28 88.02,-31.5 88.02,-24.5"/>
</a>
</g>
</g>
<!-- Node2 -->
<g id="Node000002" class="node">
<title>Node2</title>
<g id="a_Node000002"><a xlink:title=" ">
<polygon fill="#e0e0e0" stroke="#999999" points="78.25,-336 2.25,-336 2.25,-316 78.25,-316 78.25,-336"/>
<text xml:space="preserve" text-anchor="middle" x="40.25" y="-322.5" font-family="Helvetica,sans-Serif" font-size="10.00">std::true_type</text>
</a>
</g>
</g>
<!-- Node2&#45;&gt;Node1 -->
<g id="edge158_Node000002_Node000001" class="edge">
<title>Node2&#45;&gt;Node1</title>
<g id="a_edge158_Node000002_Node000001"><a xlink:title=" ">
<path fill="none" stroke="#63b8ff" d="M72.54,-341.45C86.05,-348.11 102.04,-355.96 116.5,-363 122.22,-365.78 128.18,-368.68 134.15,-371.56"/>
<polygon fill="#63b8ff" stroke="#63b8ff" points="74.19,-338.36 63.67,-337.08 71.09,-344.64 74.19,-338.36"/>
</a>
</g>
</g>
<!-- Node2&#45;&gt;Node3 -->
<g id="edge159_Node000002_Node000003" class="edge">
<title>Node2&#45;&gt;Node3</title>
<g id="a_edge159_Node000002_Node000003"><a xlink:title=" ">
<path fill="none" stroke="#63b8ff" d="M89.88,-326C102.76,-326 116.86,-326 130.39,-326"/>
<polygon fill="#63b8ff" stroke="#63b8ff" points="89.95,-322.5 79.95,-326 89.95,-329.5 89.95,-322.5"/>
</a>
</g>
</g>
<!-- Node2&#45;&gt;Node4 -->
<g id="edge160_Node000002_Node000004" class="edge">
<title>Node2&#45;&gt;Node4</title>
<g id="a_edge160_Node000002_Node000004"><a xlink:title=" ">
<path fill="none" stroke="#63b8ff" d="M72.54,-310.55C86.05,-303.89 102.04,-296.04 116.5,-289 122.22,-286.22 128.18,-283.32 134.15,-280.44"/>
<polygon fill="#63b8ff" stroke="#63b8ff" points="71.09,-307.36 63.67,-314.92 74.19,-313.64 71.09,-307.36"/>
</a>
</g>
</g>
</g>
</svg>
