<?xml version="1.0" encoding="UTF-8" standalone="no"?>
<!DOCTYPE svg PUBLIC "-//W3C//DTD SVG 1.1//EN"
 "http://www.w3.org/Graphics/SVG/1.1/DTD/svg11.dtd">
<!-- Generated by graphviz version 14.1.1 (20251213.1925)
 -->
<!-- Title: mstd::function_traits&lt; R(C::*)(Args...) volatile noexcept &gt; Pages: 1 -->
<!--zoomable 376 -->

<svg id="main" version="1.1" xmlns="http://www.w3.org/2000/svg" xmlns:xlink="http://www.w3.org/1999/xlink" xml:space="preserve" onload="init(evt)">

<style type="text/css"><![CDATA[
.node, .edge {opacity: 0.7;}
.node.selected, .edge.selected {opacity: 1;}
.edge:hover path { stroke: red; }
.edge:hover polygon { stroke: red; fill: red; }
]]></style>

<defs>
  <circle id="rim" cx="0" cy="0" r="7"/>
  <circle id="rim2" cx="0" cy="0" r="3.5"/>
  <g id="zoomPlus">
    <use xlink:href="#rim" fill="#404040"><set attributeName="fill" to="#808080" begin="zoomplus.mouseover" end="zoomplus.mouseout"/></use>
    <path d="M-4,0h8M0,-4v8" fill="none" stroke="white" stroke-width="1.5" pointer-events="none"/>
  </g>
  <g id="zoomMin">
    <use xlink:href="#rim" fill="#404040"><set attributeName="fill" to="#808080" begin="zoomminus.mouseover" end="zoomminus.mouseout"/></use>
    <path d="M-4,0h8" fill="none" stroke="white" stroke-width="1.5" pointer-events="none"/>
  </g>
  <g id="arrowUp" transform="translate(30 24)">
    <use xlink:href="#rim"/>
    <path pointer-events="none" fill="none" stroke="white" stroke-width="1.5" d="M0,-3.0v7 M-2.5,-0.5L0,-3.0L2.5,-0.5"/>
  </g>
  <g id="arrowRight" transform="rotate(90) translate(36 -43)">
    <use xlink:href="#rim"/>
    <path pointer-events="none" fill="none" stroke="white" stroke-width="1.5" d="M0,-3.0v7 M-2.5,-0.5L0,-3.0L2.5,-0.5"/>
  </g>
  <g id="arrowDown" transform="rotate(180) translate(-30 -48)">
    <use xlink:href="#rim"/>
    <path pointer-events="none" fill="none" stroke="white" stroke-width="1.5" d="M0,-3.0v7 M-2.5,-0.5L0,-3.0L2.5,-0.5"/>
  </g>
  <g id="arrowLeft" transform="rotate(270) translate(-36 17)">
    <use xlink:href="#rim"/>
    <path pointer-events="none" fill="none" stroke="white" stroke-width="1.5" d="M0,-3.0v7 M-2.5,-0.5L0,-3.0L2.5,-0.5"/>
  </g>
  <g id="resetDef">
    <use xlink:href="#rim2" fill="#404040"><set attributeName="fill" to="#808080" begin="reset.mouseover" end="reset.mouseout"/></use>
  </g>
</defs>
<script type="application/ecmascript">
var viewWidth = 1402;
var viewHeight = 376;
var sectionId = 'dynsection-0';
</script>
<script type="application/ecmascript" xlink:href="../../svg.min.js"/>
<svg id="graph" class="graph">
<g id="viewport">
<title>mstd::function_traits&lt; R(C::*)(Args...) volatile noexcept &gt;</title>
<!-- Node1 -->
<g id="Node000001" class="node">
<title>Node1</title>
<g id="a_Node000001"><a xlink:title=" ">
<polygon fill="#999999" stroke="#666666" points="1393.5,-106.06 1268.75,-106.06 1268.75,-62.06 1393.5,-62.06 1393.5,-106.06"/>
<text xml:space="preserve" text-anchor="start" x="1276.75" y="-92.56" font-family="Helvetica,sans-Serif" font-size="10.00">mstd::function_traits</text>
<text xml:space="preserve" text-anchor="start" x="1276.75" y="-80.56" font-family="Helvetica,sans-Serif" font-size="10.00">&lt; R(C::*)(Args...) volatile</text>
<text xml:space="preserve" text-anchor="middle" x="1331.12" y="-68.56" font-family="Helvetica,sans-Serif" font-size="10.00"> noexcept &gt;</text>
</a>
</g>
</g>
<!-- Node2 -->
<g id="Node000002" class="node">
<title>Node2</title>
<g id="a_Node000002"><a xlink:href="../../d0/d74/structmstd_1_1utils_1_1function__default__type__traits.html" target="_top" xlink:title=" ">
<polygon fill="white" stroke="#666666" points="317,-233.06 214.75,-233.06 214.75,-189.06 317,-189.06 317,-233.06"/>
<text xml:space="preserve" text-anchor="start" x="222.75" y="-219.56" font-family="Helvetica,sans-Serif" font-size="10.00">mstd::utils::function</text>
<text xml:space="preserve" text-anchor="start" x="222.75" y="-207.56" font-family="Helvetica,sans-Serif" font-size="10.00">_default_type_traits</text>
<text xml:space="preserve" text-anchor="middle" x="265.88" y="-195.56" font-family="Helvetica,sans-Serif" font-size="10.00">&lt; false &gt;</text>
</a>
</g>
</g>
<!-- Node2&#45;&gt;Node1 -->
<g id="edge1_Node000001_Node000002" class="edge">
<title>Node2&#45;&gt;Node1</title>
<g id="a_edge1_Node000001_Node000002"><a xlink:title=" ">
<path fill="none" stroke="#63b8ff" d="M275.25,-177.85C285.89,-142.37 307.69,-86.96 346.25,-55.06 413.95,0.93 448.27,-0.06 536.12,-0.06 536.12,-0.06 536.12,-0.06 1180.12,-0.06 1230.86,-0.06 1280.36,-37.1 1307.89,-61.99"/>
<polygon fill="#63b8ff" stroke="#63b8ff" points="271.97,-176.58 272.59,-187.15 278.7,-178.5 271.97,-176.58"/>
</a>
</g>
</g>
<!-- Node4 -->
<g id="Node000004" class="node">
<title>Node4</title>
<g id="a_Node000004"><a xlink:href="../../d8/dba/structmstd_1_1function__traits_3_01_r_07_args_8_8_8_08_01volatile_01noexcept_00_01_c_01_4.html" target="_top" xlink:title=" ">
<polygon fill="white" stroke="#666666" points="1231.75,-162.06 1126.5,-162.06 1126.5,-118.06 1231.75,-118.06 1231.75,-162.06"/>
<text xml:space="preserve" text-anchor="start" x="1134.5" y="-148.56" font-family="Helvetica,sans-Serif" font-size="10.00">mstd::function_traits</text>
<text xml:space="preserve" text-anchor="start" x="1134.5" y="-136.56" font-family="Helvetica,sans-Serif" font-size="10.00">&lt; R(Args...) volatile</text>
<text xml:space="preserve" text-anchor="middle" x="1179.12" y="-124.56" font-family="Helvetica,sans-Serif" font-size="10.00"> noexcept, C &gt;</text>
</a>
</g>
</g>
<!-- Node2&#45;&gt;Node4 -->
<g id="edge4_Node000004_Node000002" class="edge">
<title>Node2&#45;&gt;Node4</title>
<g id="a_edge4_Node000004_Node000002"><a xlink:title=" ">
<path fill="none" stroke="#63b8ff" d="M292.19,-180.34C336.18,-130.63 432.08,-38.06 536.12,-38.06 536.12,-38.06 536.12,-38.06 1028.5,-38.06 1084.62,-38.06 1135.22,-87.65 1160.72,-117.68"/>
<polygon fill="#63b8ff" stroke="#63b8ff" points="289.74,-177.81 285.82,-187.66 295.03,-182.41 289.74,-177.81"/>
</a>
</g>
</g>
<!-- Node5 -->
<g id="Node000005" class="node">
<title>Node5</title>
<g id="a_Node000005"><a xlink:href="../../d0/d52/structmstd_1_1function__traits_3_01_r_07_args_8_8_8_08_01volatile_00_01_c_01_4.html" target="_top" xlink:title=" ">
<polygon fill="white" stroke="#666666" points="1089.5,-231.06 965.5,-231.06 965.5,-199.06 1089.5,-199.06 1089.5,-231.06"/>
<text xml:space="preserve" text-anchor="start" x="973.5" y="-217.56" font-family="Helvetica,sans-Serif" font-size="10.00">mstd::function_traits</text>
<text xml:space="preserve" text-anchor="middle" x="1027.5" y="-205.56" font-family="Helvetica,sans-Serif" font-size="10.00">&lt; R(Args...) volatile, C &gt;</text>
</a>
</g>
</g>
<!-- Node2&#45;&gt;Node5 -->
<g id="edge6_Node000005_Node000002" class="edge">
<title>Node2&#45;&gt;Node5</title>
<g id="a_edge6_Node000005_Node000002"><a xlink:title=" ">
<path fill="none" stroke="#63b8ff" d="M328.42,-211.39C471.04,-212.14 822.81,-213.99 965.19,-214.74"/>
<polygon fill="#63b8ff" stroke="#63b8ff" points="328.84,-207.89 318.82,-211.34 328.8,-214.89 328.84,-207.89"/>
</a>
</g>
</g>
<!-- Node6 -->
<g id="Node000006" class="node">
<title>Node6</title>
<g id="a_Node000006"><a xlink:href="../../dd/db6/structmstd_1_1function__traits_3_01_r_07_args_8_8_8_08_00_01_c_01_4.html" target="_top" xlink:title=" ">
<polygon fill="white" stroke="#666666" points="833.62,-286.06 728.38,-286.06 728.38,-254.06 833.62,-254.06 833.62,-286.06"/>
<text xml:space="preserve" text-anchor="start" x="736.38" y="-272.56" font-family="Helvetica,sans-Serif" font-size="10.00">mstd::function_traits</text>
<text xml:space="preserve" text-anchor="middle" x="781" y="-260.56" font-family="Helvetica,sans-Serif" font-size="10.00">&lt; R(Args...), C &gt;</text>
</a>
</g>
</g>
<!-- Node2&#45;&gt;Node6 -->
<g id="edge8_Node000006_Node000002" class="edge">
<title>Node2&#45;&gt;Node6</title>
<g id="a_edge8_Node000006_Node000002"><a xlink:title=" ">
<path fill="none" stroke="#63b8ff" d="M328.2,-229.27C334.27,-230.7 340.36,-232 346.25,-233.06 482.75,-257.58 646.42,-265.96 728.18,-268.74"/>
<polygon fill="#63b8ff" stroke="#63b8ff" points="329.38,-225.95 318.83,-226.93 327.69,-232.75 329.38,-225.95"/>
</a>
</g>
</g>
<!-- Node11 -->
<g id="Node000011" class="node">
<title>Node11</title>
<g id="a_Node000011"><a xlink:href="../../d7/dcb/structmstd_1_1function__traits.html" target="_top" xlink:title=" ">
<polygon fill="white" stroke="#666666" points="589.75,-176.06 484.5,-176.06 484.5,-144.06 589.75,-144.06 589.75,-176.06"/>
<text xml:space="preserve" text-anchor="start" x="492.5" y="-162.56" font-family="Helvetica,sans-Serif" font-size="10.00">mstd::function_traits</text>
<text xml:space="preserve" text-anchor="middle" x="537.12" y="-150.56" font-family="Helvetica,sans-Serif" font-size="10.00">&lt; F, C &gt;</text>
</a>
</g>
</g>
<!-- Node2&#45;&gt;Node11 -->
<g id="edge16_Node000011_Node000002" class="edge">
<title>Node2&#45;&gt;Node11</title>
<g id="a_edge16_Node000011_Node000002"><a xlink:title=" ">
<path fill="none" stroke="#63b8ff" d="M328.48,-199.39C375.56,-190.48 439.72,-178.32 484.21,-169.9"/>
<polygon fill="#63b8ff" stroke="#63b8ff" points="327.86,-195.95 318.69,-201.25 329.17,-202.83 327.86,-195.95"/>
</a>
</g>
</g>
<!-- Node3 -->
<g id="Node000003" class="node">
<title>Node3</title>
<g id="a_Node000003"><a xlink:href="../../d0/d74/structmstd_1_1utils_1_1function__default__type__traits.html" target="_top" xlink:title=" ">
<polygon fill="white" stroke="#666666" points="103,-287.06 0.75,-287.06 0.75,-243.06 103,-243.06 103,-287.06"/>
<text xml:space="preserve" text-anchor="start" x="8.75" y="-273.56" font-family="Helvetica,sans-Serif" font-size="10.00">mstd::utils::function</text>
<text xml:space="preserve" text-anchor="start" x="8.75" y="-261.56" font-family="Helvetica,sans-Serif" font-size="10.00">_default_type_traits</text>
<text xml:space="preserve" text-anchor="middle" x="51.88" y="-249.56" font-family="Helvetica,sans-Serif" font-size="10.00">&lt; IsMember &gt;</text>
</a>
</g>
</g>
<!-- Node3&#45;&gt;Node2 -->
<g id="edge2_Node000002_Node000003" class="edge">
<title>Node3&#45;&gt;Node2</title>
<g id="a_edge2_Node000002_Node000003"><a xlink:title=" ">
<path fill="none" stroke="orange" stroke-dasharray="5,2" d="M99.94,-237.69C107.07,-234.36 114.48,-231.34 121.75,-229.06 151.63,-219.71 186.45,-215.2 214.27,-213.03"/>
<polygon fill="orange" stroke="orange" points="98.5,-234.49 91.08,-242.06 101.6,-240.77 98.5,-234.49"/>
</a>
</g>
<text xml:space="preserve" text-anchor="start" x="134.12" y="-234.56" font-family="Helvetica,sans-Serif" font-size="10.00" fill="grey">&lt; false &gt;</text>
</g>
<!-- Node10 -->
<g id="Node000010" class="node">
<title>Node10</title>
<g id="a_Node000010"><a xlink:href="../../d0/d74/structmstd_1_1utils_1_1function__default__type__traits.html" target="_top" xlink:title=" ">
<polygon fill="white" stroke="#666666" points="448.5,-316.06 346.25,-316.06 346.25,-272.06 448.5,-272.06 448.5,-316.06"/>
<text xml:space="preserve" text-anchor="start" x="354.25" y="-302.56" font-family="Helvetica,sans-Serif" font-size="10.00">mstd::utils::function</text>
<text xml:space="preserve" text-anchor="start" x="354.25" y="-290.56" font-family="Helvetica,sans-Serif" font-size="10.00">_default_type_traits</text>
<text xml:space="preserve" text-anchor="middle" x="397.38" y="-278.56" font-family="Helvetica,sans-Serif" font-size="10.00">&lt; true &gt;</text>
</a>
</g>
</g>
<!-- Node3&#45;&gt;Node10 -->
<g id="edge14_Node000010_Node000003" class="edge">
<title>Node3&#45;&gt;Node10</title>
<g id="a_edge14_Node000010_Node000003"><a xlink:title=" ">
<path fill="none" stroke="orange" stroke-dasharray="5,2" d="M114.27,-270.25C180.4,-275.83 284.38,-284.61 345.92,-289.8"/>
<polygon fill="orange" stroke="orange" points="114.96,-266.79 104.7,-269.44 114.37,-273.77 114.96,-266.79"/>
</a>
</g>
<text xml:space="preserve" text-anchor="start" x="136.38" y="-281.37" font-family="Helvetica,sans-Serif" font-size="10.00" fill="grey">&lt; true &gt;</text>
</g>
<!-- Node4&#45;&gt;Node1 -->
<g id="edge3_Node000001_Node000004" class="edge">
<title>Node4&#45;&gt;Node1</title>
<g id="a_edge3_Node000001_Node000004"><a xlink:title=" ">
<path fill="none" stroke="#63b8ff" d="M1242.92,-116.62C1251.87,-113.28 1261.05,-109.85 1269.94,-106.53"/>
<polygon fill="#63b8ff" stroke="#63b8ff" points="1241.73,-113.33 1233.58,-120.1 1244.18,-119.89 1241.73,-113.33"/>
</a>
</g>
</g>
<!-- Node5&#45;&gt;Node4 -->
<g id="edge5_Node000004_Node000005" class="edge">
<title>Node5&#45;&gt;Node4</title>
<g id="a_edge5_Node000004_Node000005"><a xlink:title=" ">
<path fill="none" stroke="#63b8ff" d="M1071.43,-193.54C1090.86,-183.81 1113.81,-172.3 1133.45,-162.46"/>
<polygon fill="#63b8ff" stroke="#63b8ff" points="1070.06,-190.31 1062.69,-197.92 1073.2,-196.57 1070.06,-190.31"/>
</a>
</g>
</g>
<!-- Node6&#45;&gt;Node5 -->
<g id="edge7_Node000005_Node000006" class="edge">
<title>Node6&#45;&gt;Node5</title>
<g id="a_edge7_Node000005_Node000006"><a xlink:title=" ">
<path fill="none" stroke="#63b8ff" d="M844.91,-260.59C875.99,-255.43 913.93,-248.38 947.5,-240.06 957.41,-237.61 967.91,-234.59 977.89,-231.51"/>
<polygon fill="#63b8ff" stroke="#63b8ff" points="844.59,-257.1 835.29,-262.17 845.72,-264.01 844.59,-257.1"/>
</a>
</g>
</g>
<!-- Node7 -->
<g id="Node000007" class="node">
<title>Node7</title>
<g id="a_Node000007"><a xlink:href="../../d1/d4f/structmstd_1_1utils_1_1function__core__traits_3_01_r_07_args_8_8_8_08_00_01_c_01_4.html" target="_top" xlink:title=" ">
<polygon fill="white" stroke="#666666" points="607.75,-355.06 466.5,-355.06 466.5,-323.06 607.75,-323.06 607.75,-355.06"/>
<text xml:space="preserve" text-anchor="start" x="474.5" y="-341.56" font-family="Helvetica,sans-Serif" font-size="10.00">mstd::utils::function</text>
<text xml:space="preserve" text-anchor="middle" x="537.12" y="-329.56" font-family="Helvetica,sans-Serif" font-size="10.00">_core_traits&lt; R(Args...), C &gt;</text>
</a>
</g>
</g>
<!-- Node7&#45;&gt;Node6 -->
<g id="edge9_Node000006_Node000007" class="edge">
<title>Node7&#45;&gt;Node6</title>
<g id="a_edge9_Node000006_Node000007"><a xlink:title=" ">
<path fill="none" stroke="#63b8ff" d="M619.3,-329.72C647.25,-325.15 678.44,-318.53 706,-309.06 722.62,-303.35 740.06,-294.33 753.83,-286.4"/>
<polygon fill="#63b8ff" stroke="#63b8ff" points="618.79,-326.26 609.45,-331.26 619.87,-333.17 618.79,-326.26"/>
</a>
</g>
</g>
<!-- Node8 -->
<g id="Node000008" class="node">
<title>Node8</title>
<g id="a_Node000008"><a xlink:href="../../df/db9/structmstd_1_1utils_1_1function__core__traits.html" target="_top" xlink:title=" ">
<polygon fill="white" stroke="#666666" points="328.25,-332.06 203.5,-332.06 203.5,-300.06 328.25,-300.06 328.25,-332.06"/>
<text xml:space="preserve" text-anchor="start" x="211.5" y="-318.56" font-family="Helvetica,sans-Serif" font-size="10.00">mstd::utils::function</text>
<text xml:space="preserve" text-anchor="middle" x="265.88" y="-306.56" font-family="Helvetica,sans-Serif" font-size="10.00">_core_traits&lt; R(Args...)&gt;</text>
</a>
</g>
</g>
<!-- Node8&#45;&gt;Node7 -->
<g id="edge10_Node000007_Node000008" class="edge">
<title>Node8&#45;&gt;Node7</title>
<g id="a_edge10_Node000007_Node000008"><a xlink:title=" ">
<path fill="none" stroke="#63b8ff" d="M339.99,-322.31C379.22,-325.66 427.34,-329.77 466.1,-333.08"/>
<polygon fill="#63b8ff" stroke="#63b8ff" points="340.42,-318.83 330.15,-321.47 339.82,-325.81 340.42,-318.83"/>
</a>
</g>
</g>
<!-- Node9 -->
<g id="Node000009" class="node">
<title>Node9</title>
<g id="a_Node000009"><a xlink:href="../../df/db9/structmstd_1_1utils_1_1function__core__traits.html" target="_top" xlink:title=" ">
<polygon fill="white" stroke="#666666" points="103.75,-351.06 0,-351.06 0,-319.06 103.75,-319.06 103.75,-351.06"/>
<text xml:space="preserve" text-anchor="start" x="8" y="-337.56" font-family="Helvetica,sans-Serif" font-size="10.00">mstd::utils::function</text>
<text xml:space="preserve" text-anchor="middle" x="51.88" y="-325.56" font-family="Helvetica,sans-Serif" font-size="10.00">_core_traits&lt; F, C &gt;</text>
</a>
</g>
</g>
<!-- Node9&#45;&gt;Node7 -->
<g id="edge12_Node000007_Node000009" class="edge">
<title>Node9&#45;&gt;Node7</title>
<g id="a_edge12_Node000007_Node000009"><a xlink:title=" ">
<path fill="none" stroke="orange" stroke-dasharray="5,2" d="M115.51,-349.3C117.61,-349.58 119.69,-349.84 121.75,-350.06 149.92,-353.09 157.17,-350.51 185.5,-350.06 282.93,-348.53 395.54,-344.62 466.29,-341.9"/>
<polygon fill="orange" stroke="orange" points="116.12,-345.85 105.7,-347.74 115.03,-352.76 116.12,-345.85"/>
</a>
</g>
<text xml:space="preserve" text-anchor="start" x="228.75" y="-355.2" font-family="Helvetica,sans-Serif" font-size="10.00" fill="grey">&lt; R(Args...), C &gt;</text>
</g>
<!-- Node9&#45;&gt;Node8 -->
<g id="edge11_Node000008_Node000009" class="edge">
<title>Node9&#45;&gt;Node8</title>
<g id="a_edge11_Node000008_Node000009"><a xlink:title=" ">
<path fill="none" stroke="orange" stroke-dasharray="5,2" d="M115.34,-329.46C143.01,-326.98 175.48,-324.07 203.08,-321.6"/>
<polygon fill="orange" stroke="orange" points="115.35,-325.95 105.7,-330.33 115.97,-332.92 115.35,-325.95"/>
</a>
</g>
<text xml:space="preserve" text-anchor="start" x="124.75" y="-333.87" font-family="Helvetica,sans-Serif" font-size="10.00" fill="grey">&lt; R(Args...)&gt;</text>
</g>
<!-- Node10&#45;&gt;Node6 -->
<g id="edge13_Node000006_Node000010" class="edge">
<title>Node10&#45;&gt;Node6</title>
<g id="a_edge13_Node000006_Node000010"><a xlink:title=" ">
<path fill="none" stroke="#63b8ff" d="M459.71,-290.21C534.1,-285.53 658.2,-277.72 728.08,-273.33"/>
<polygon fill="#63b8ff" stroke="#63b8ff" points="459.93,-286.68 450.17,-290.8 460.37,-293.67 459.93,-286.68"/>
</a>
</g>
</g>
<!-- Node11&#45;&gt;Node1 -->
<g id="edge19_Node000001_Node000011" class="edge">
<title>Node11&#45;&gt;Node1</title>
<g id="a_edge19_Node000001_Node000011"><a xlink:title=" ">
<path fill="none" stroke="orange" stroke-dasharray="5,2" d="M579.34,-138.65C626.52,-116.18 706.75,-84.06 780,-84.06 780,-84.06 780,-84.06 1180.12,-84.06 1209.16,-84.06 1241.36,-84.06 1268.46,-84.06"/>
<polygon fill="orange" stroke="orange" points="578.05,-135.39 570.59,-142.91 581.11,-141.69 578.05,-135.39"/>
</a>
</g>
<text xml:space="preserve" text-anchor="start" x="981.75" y="-105.56" font-family="Helvetica,sans-Serif" font-size="10.00" fill="grey">&lt; R(C::*)(Args...)</text>
<text xml:space="preserve" text-anchor="start" x="981.75" y="-89.56" font-family="Helvetica,sans-Serif" font-size="10.00" fill="grey">   volatile noexcept &gt;</text>
</g>
<!-- Node11&#45;&gt;Node4 -->
<g id="edge18_Node000004_Node000011" class="edge">
<title>Node11&#45;&gt;Node4</title>
<g id="a_edge18_Node000004_Node000011"><a xlink:title=" ">
<path fill="none" stroke="orange" stroke-dasharray="5,2" d="M601.62,-158.08C728.25,-154.12 1009.96,-145.32 1126.31,-141.68"/>
<polygon fill="orange" stroke="orange" points="601.63,-154.58 591.74,-158.39 601.84,-161.57 601.63,-154.58"/>
</a>
</g>
<text xml:space="preserve" text-anchor="start" x="859" y="-171.62" font-family="Helvetica,sans-Serif" font-size="10.00" fill="grey">&lt; R(Args...) volatile</text>
<text xml:space="preserve" text-anchor="start" x="859" y="-155.62" font-family="Helvetica,sans-Serif" font-size="10.00" fill="grey">   noexcept, C &gt;</text>
</g>
<!-- Node11&#45;&gt;Node5 -->
<g id="edge17_Node000005_Node000011" class="edge">
<title>Node11&#45;&gt;Node5</title>
<g id="a_edge17_Node000005_Node000011"><a xlink:title=" ">
<path fill="none" stroke="orange" stroke-dasharray="5,2" d="M601.29,-167.18C695.63,-177.8 872.19,-197.68 965.34,-208.17"/>
<polygon fill="orange" stroke="orange" points="601.76,-163.71 591.43,-166.07 600.98,-170.66 601.76,-163.71"/>
</a>
</g>
<text xml:space="preserve" text-anchor="start" x="727" y="-198.53" font-family="Helvetica,sans-Serif" font-size="10.00" fill="grey">&lt; R(Args...) volatile, C &gt;</text>
</g>
<!-- Node11&#45;&gt;Node6 -->
<g id="edge15_Node000006_Node000011" class="edge">
<title>Node11&#45;&gt;Node6</title>
<g id="a_edge15_Node000006_Node000011"><a xlink:title=" ">
<path fill="none" stroke="orange" stroke-dasharray="5,2" d="M597.93,-180.3C630.48,-192.03 671.12,-207.87 706,-225.06 723.13,-233.5 741.47,-244.64 755.61,-253.73"/>
<polygon fill="orange" stroke="orange" points="599.24,-177.05 588.64,-176.99 596.89,-183.64 599.24,-177.05"/>
</a>
</g>
<text xml:space="preserve" text-anchor="start" x="628.75" y="-230.56" font-family="Helvetica,sans-Serif" font-size="10.00" fill="grey">&lt; R(Args...), C &gt;</text>
</g>
</g>
</svg>

<g id="navigator" transform="translate(0 0)" fill="#404254">
  <rect fill="#f2f5e9" fill-opacity="0.5" stroke="#606060" stroke-width=".5" x="0" y="0" width="60" height="60"/>
  <use id="zoomplus" xlink:href="#zoomPlus" x="17" y="9" onmousedown="handleZoom(evt,'in')"/>
  <use id="zoomminus" xlink:href="#zoomMin" x="42" y="9" onmousedown="handleZoom(evt,'out')"/>
  <use id="reset" xlink:href="#resetDef" x="30" y="36" onmousedown="handleReset()"/>
   <use id="arrowup" xlink:href="#arrowUp" x="0" y="0" onmousedown="handlePan(0,-1)"/>
  <use id="arrowright" xlink:href="#arrowRight" x="0" y="0" onmousedown="handlePan(1,0)"/>
  <use id="arrowdown" xlink:href="#arrowDown" x="0" y="0" onmousedown="handlePan(0,1)"/>
  <use id="arrowleft" xlink:href="#arrowLeft" x="0" y="0" onmousedown="handlePan(-1,0)"/>
</g>
<svg viewBox="0 0 15 15" width="100%" height="30px" preserveAspectRatio="xMaxYMin meet">
 <g id="arrow_out" transform="scale(0.3 0.3)">
  <a xlink:href="structmstd_1_1function__traits_3_01_r_07_c_1_1_5_08_07_args_8_8_8_08_01volatile_01noexcept_01_4__inherit__graph_org.svg" target="_base">
   <rect id="button" ry="5" rx="5" y="6" x="6" height="38" width="38"
        fill="#f2f5e9" fill-opacity="0.5" stroke="#606060" stroke-width="1.0"/>
   <path id="arrow"
     d="M 11.500037,31.436501 C 11.940474,20.09759 22.043105,11.32322 32.158766,21.979434 L 37.068811,17.246167 C 37.068811,17.246167 37.088388,32 37.088388,32 L 22.160133,31.978069 C 22.160133,31.978069 26.997745,27.140456 26.997745,27.140456 C 18.528582,18.264221 13.291696,25.230495 11.500037,31.436501 z"
     style="fill:#404040;"/>
  </a>
 </g>
</svg>

<style type='text/css'>
<![CDATA[
[data-mouse-over-selected='false'] { opacity: 0.7; }
[data-mouse-over-selected='true']  { opacity: 1.0; }
]]>
</style>
<script type="application/ecmascript"><![CDATA[
document.addEventListener('DOMContentLoaded', (event) => {
  highlightEdges();
  highlightAdjacentNodes();
});
]]></script>
</svg>
