<?xml version="1.0" encoding="UTF-8" standalone="no"?>
<!DOCTYPE svg PUBLIC "-//W3C//DTD SVG 1.1//EN"
 "http://www.w3.org/Graphics/SVG/1.1/DTD/svg11.dtd">
<!-- Generated by graphviz version 14.1.1 (20251213.1925)
 -->
<!-- Title: mstd::function_traits&lt; R(C::*)(Args...) const volatile &amp;&amp;noexcept &gt; Pages: 1 -->
<!--zoomable 782 -->

<svg id="main" version="1.1" xmlns="http://www.w3.org/2000/svg" xmlns:xlink="http://www.w3.org/1999/xlink" xml:space="preserve" onload="init(evt)">

<style type="text/css"><![CDATA[
.node, .edge {opacity: 0.7;}
.node.selected, .edge.selected {opacity: 1;}
.edge:hover path { stroke: red; }
.edge:hover polygon { stroke: red; fill: red; }
]]></style>

<defs>
  <circle id="rim" cx="0" cy="0" r="7"/>
  <circle id="rim2" cx="0" cy="0" r="3.5"/>
  <g id="zoomPlus">
    <use xlink:href="#rim" fill="#404040"><set attributeName="fill" to="#808080" begin="zoomplus.mouseover" end="zoomplus.mouseout"/></use>
    <path d="M-4,0h8M0,-4v8" fill="none" stroke="white" stroke-width="1.5" pointer-events="none"/>
  </g>
  <g id="zoomMin">
    <use xlink:href="#rim" fill="#404040"><set attributeName="fill" to="#808080" begin="zoomminus.mouseover" end="zoomminus.mouseout"/></use>
    <path d="M-4,0h8" fill="none" stroke="white" stroke-width="1.5" pointer-events="none"/>
  </g>
  <g id="arrowUp" transform="translate(30 24)">
    <use xlink:href="#rim"/>
    <path pointer-events="none" fill="none" stroke="white" stroke-width="1.5" d="M0,-3.0v7 M-2.5,-0.5L0,-3.0L2.5,-0.5"/>
  </g>
  <g id="arrowRight" transform="rotate(90) translate(36 -43)">
    <use xlink:href="#rim"/>
    <path pointer-events="none" fill="none" stroke="white" stroke-width="1.5" d="M0,-3.0v7 M-2.5,-0.5L0,-3.0L2.5,-0.5"/>
  </g>
  <g id="arrowDown" transform="rotate(180) translate(-30 -48)">
    <use xlink:href="#rim"/>
    <path pointer-events="none" fill="none" stroke="white" stroke-width="1.5" d="M0,-3.0v7 M-2.5,-0.5L0,-3.0L2.5,-0.5"/>
  </g>
  <g id="arrowLeft" transform="rotate(270) translate(-36 17)">
    <use xlink:href="#rim"/>
    <path pointer-events="none" fill="none" stroke="white" stroke-width="1.5" d="M0,-3.0v7 M-2.5,-0.5L0,-3.0L2.5,-0.5"/>
  </g>
  <g id="resetDef">
    <use xlink:href="#rim2" fill="#404040"><set attributeName="fill" to="#808080" begin="reset.mouseover" end="reset.mouseout"/></use>
  </g>
</defs>
<script type="application/ecmascript">
var viewWidth = 2087;
var viewHeight = 782;
var sectionId = 'dynsection-1';
</script>
<script type="application/ecmascript" xlink:href="../../svg.min.js"/>
<svg id="graph" class="graph">
<g id="viewport">
<title>mstd::function_traits&lt; R(C::*)(Args...) const volatile &amp;&amp;noexcept &gt;</title>
<!-- Node1 -->
<g id="Node000001" class="node">
<title>Node1</title>
<g id="a_Node000001"><a xlink:title=" ">
<polygon fill="#999999" stroke="#666666" points="2079,-179.99 1961,-179.99 1961,-135.99 2079,-135.99 2079,-179.99"/>
<text xml:space="preserve" text-anchor="start" x="1969" y="-166.49" font-family="Helvetica,sans-Serif" font-size="10.00">mstd::function_traits</text>
<text xml:space="preserve" text-anchor="start" x="1969" y="-154.49" font-family="Helvetica,sans-Serif" font-size="10.00">&lt; R(C::*)(Args...) const</text>
<text xml:space="preserve" text-anchor="middle" x="2020" y="-142.49" font-family="Helvetica,sans-Serif" font-size="10.00"> volatile &amp;&amp;noexcept &gt;</text>
</a>
</g>
</g>
<!-- Node2 -->
<g id="Node000002" class="node">
<title>Node2</title>
<g id="a_Node000002"><a xlink:href="../../d0/d74/structmstd_1_1utils_1_1function__default__type__traits.html" target="_top" xlink:title=" ">
<polygon fill="white" stroke="#666666" points="588.75,-227.99 486.5,-227.99 486.5,-183.99 588.75,-183.99 588.75,-227.99"/>
<text xml:space="preserve" text-anchor="start" x="494.5" y="-214.49" font-family="Helvetica,sans-Serif" font-size="10.00">mstd::utils::function</text>
<text xml:space="preserve" text-anchor="start" x="494.5" y="-202.49" font-family="Helvetica,sans-Serif" font-size="10.00">_default_type_traits</text>
<text xml:space="preserve" text-anchor="middle" x="537.62" y="-190.49" font-family="Helvetica,sans-Serif" font-size="10.00">&lt; false &gt;</text>
</a>
</g>
</g>
<!-- Node2&#45;&gt;Node1 -->
<g id="edge1_Node000001_Node000002" class="edge">
<title>Node2&#45;&gt;Node1</title>
<g id="a_edge1_Node000001_Node000002"><a xlink:title=" ">
<path fill="none" stroke="#63b8ff" d="M561.47,-174.86C596.43,-131.18 667.68,-56.99 748.38,-56.99 748.38,-56.99 748.38,-56.99 1860.75,-56.99 1918.77,-56.99 1972.61,-105.82 2000.04,-135.57"/>
<polygon fill="#63b8ff" stroke="#63b8ff" points="558.91,-172.46 555.5,-182.49 564.42,-176.77 558.91,-172.46"/>
</a>
</g>
</g>
<!-- Node5 -->
<g id="Node000005" class="node">
<title>Node5</title>
<g id="a_Node000005"><a xlink:href="../../df/d66/structmstd_1_1function__traits_3_01_r_07_args_8_8_8_08_01const_01volatile_01_6_6noexcept_00_01_c_01_4.html" target="_top" xlink:title=" ">
<polygon fill="white" stroke="#666666" points="1924,-179.99 1795.5,-179.99 1795.5,-135.99 1924,-135.99 1924,-179.99"/>
<text xml:space="preserve" text-anchor="start" x="1803.5" y="-166.49" font-family="Helvetica,sans-Serif" font-size="10.00">mstd::function_traits</text>
<text xml:space="preserve" text-anchor="start" x="1803.5" y="-154.49" font-family="Helvetica,sans-Serif" font-size="10.00">&lt; R(Args...) const volatile</text>
<text xml:space="preserve" text-anchor="middle" x="1859.75" y="-142.49" font-family="Helvetica,sans-Serif" font-size="10.00"> &amp;&amp;noexcept, C &gt;</text>
</a>
</g>
</g>
<!-- Node2&#45;&gt;Node5 -->
<g id="edge6_Node000005_Node000002" class="edge">
<title>Node2&#45;&gt;Node5</title>
<g id="a_edge6_Node000005_Node000002"><a xlink:title=" ">
<path fill="none" stroke="#63b8ff" d="M585.87,-178.2C627.27,-156.49 689.82,-129.99 748.38,-129.99 748.38,-129.99 748.38,-129.99 1695.25,-129.99 1728.51,-129.99 1765.04,-135.69 1795.12,-141.94"/>
<polygon fill="#63b8ff" stroke="#63b8ff" points="584.3,-175.07 577.15,-182.88 587.61,-181.24 584.3,-175.07"/>
</a>
</g>
</g>
<!-- Node6 -->
<g id="Node000006" class="node">
<title>Node6</title>
<g id="a_Node000006"><a xlink:href="../../d7/d15/structmstd_1_1function__traits_3_01_r_07_args_8_8_8_08_01const_01volatile_01_6_6_00_01_c_01_4.html" target="_top" xlink:title=" ">
<polygon fill="white" stroke="#666666" points="1758.5,-472.99 1630,-472.99 1630,-428.99 1758.5,-428.99 1758.5,-472.99"/>
<text xml:space="preserve" text-anchor="start" x="1638" y="-459.49" font-family="Helvetica,sans-Serif" font-size="10.00">mstd::function_traits</text>
<text xml:space="preserve" text-anchor="start" x="1638" y="-447.49" font-family="Helvetica,sans-Serif" font-size="10.00">&lt; R(Args...) const volatile</text>
<text xml:space="preserve" text-anchor="middle" x="1694.25" y="-435.49" font-family="Helvetica,sans-Serif" font-size="10.00"> &amp;&amp;, C &gt;</text>
</a>
</g>
</g>
<!-- Node2&#45;&gt;Node6 -->
<g id="edge8_Node000006_Node000002" class="edge">
<title>Node2&#45;&gt;Node6</title>
<g id="a_edge8_Node000006_Node000002"><a xlink:title=" ">
<path fill="none" stroke="#63b8ff" d="M600.06,-188.87C641.59,-178.79 697.86,-167.99 748.38,-167.99 748.38,-167.99 748.38,-167.99 1362.75,-167.99 1522.89,-167.99 1644.45,-362.07 1681.51,-428.78"/>
<polygon fill="#63b8ff" stroke="#63b8ff" points="599.35,-185.44 590.49,-191.26 601.04,-192.24 599.35,-185.44"/>
</a>
</g>
</g>
<!-- Node7 -->
<g id="Node000007" class="node">
<title>Node7</title>
<g id="a_Node000007"><a xlink:href="../../da/d58/structmstd_1_1function__traits_3_01_r_07_args_8_8_8_08_01const_01volatile_00_01_c_01_4.html" target="_top" xlink:title=" ">
<polygon fill="white" stroke="#666666" points="1593,-466.99 1442,-466.99 1442,-434.99 1593,-434.99 1593,-466.99"/>
<text xml:space="preserve" text-anchor="start" x="1450" y="-453.49" font-family="Helvetica,sans-Serif" font-size="10.00">mstd::function_traits</text>
<text xml:space="preserve" text-anchor="middle" x="1517.5" y="-441.49" font-family="Helvetica,sans-Serif" font-size="10.00">&lt; R(Args...) const volatile, C &gt;</text>
</a>
</g>
</g>
<!-- Node2&#45;&gt;Node7 -->
<g id="edge10_Node000007_Node000002" class="edge">
<title>Node2&#45;&gt;Node7</title>
<g id="a_edge10_Node000007_Node000002"><a xlink:title=" ">
<path fill="none" stroke="#63b8ff" d="M600.62,-199.87C712.95,-191.04 956.09,-182.27 1146.25,-247.99 1286.9,-296.6 1437.3,-395.76 1493.55,-434.74"/>
<polygon fill="#63b8ff" stroke="#63b8ff" points="600.39,-196.38 590.71,-200.69 600.96,-203.36 600.39,-196.38"/>
</a>
</g>
</g>
<!-- Node8 -->
<g id="Node000008" class="node">
<title>Node8</title>
<g id="a_Node000008"><a xlink:href="../../df/d15/structmstd_1_1function__traits_3_01_r_07_args_8_8_8_08_01const_00_01_c_01_4.html" target="_top" xlink:title=" ">
<polygon fill="white" stroke="#666666" points="1281.5,-403.99 1164.25,-403.99 1164.25,-371.99 1281.5,-371.99 1281.5,-403.99"/>
<text xml:space="preserve" text-anchor="start" x="1172.25" y="-390.49" font-family="Helvetica,sans-Serif" font-size="10.00">mstd::function_traits</text>
<text xml:space="preserve" text-anchor="middle" x="1222.88" y="-378.49" font-family="Helvetica,sans-Serif" font-size="10.00">&lt; R(Args...) const, C &gt;</text>
</a>
</g>
</g>
<!-- Node2&#45;&gt;Node8 -->
<g id="edge12_Node000008_Node000002" class="edge">
<title>Node2&#45;&gt;Node8</title>
<g id="a_edge12_Node000008_Node000002"><a xlink:title=" ">
<path fill="none" stroke="#63b8ff" d="M600.39,-214.66C606.34,-215.46 612.28,-216.25 618,-216.99 735.25,-232.1 1044.81,-219.28 1146.25,-279.99 1182,-301.38 1205.14,-346.94 1215.53,-371.49"/>
<polygon fill="#63b8ff" stroke="#63b8ff" points="600.87,-211.2 590.49,-213.32 599.93,-218.13 600.87,-211.2"/>
</a>
</g>
</g>
<!-- Node9 -->
<g id="Node000009" class="node">
<title>Node9</title>
<g id="a_Node000009"><a xlink:href="../../dd/db6/structmstd_1_1function__traits_3_01_r_07_args_8_8_8_08_00_01_c_01_4.html" target="_top" xlink:title=" ">
<polygon fill="white" stroke="#666666" points="1042.5,-403.99 937.25,-403.99 937.25,-371.99 1042.5,-371.99 1042.5,-403.99"/>
<text xml:space="preserve" text-anchor="start" x="945.25" y="-390.49" font-family="Helvetica,sans-Serif" font-size="10.00">mstd::function_traits</text>
<text xml:space="preserve" text-anchor="middle" x="989.88" y="-378.49" font-family="Helvetica,sans-Serif" font-size="10.00">&lt; R(Args...), C &gt;</text>
</a>
</g>
</g>
<!-- Node2&#45;&gt;Node9 -->
<g id="edge14_Node000009_Node000002" class="edge">
<title>Node2&#45;&gt;Node9</title>
<g id="a_edge14_Node000009_Node000002"><a xlink:title=" ">
<path fill="none" stroke="#63b8ff" d="M597.27,-232.99C604.23,-236.07 611.26,-239.13 618,-241.99 735.09,-291.55 875.17,-345.18 944.91,-371.51"/>
<polygon fill="#63b8ff" stroke="#63b8ff" points="599.09,-229.97 588.53,-229.08 596.23,-236.36 599.09,-229.97"/>
</a>
</g>
</g>
<!-- Node14 -->
<g id="Node000014" class="node">
<title>Node14</title>
<g id="a_Node000014"><a xlink:href="../../d7/dcb/structmstd_1_1function__traits.html" target="_top" xlink:title=" ">
<polygon fill="white" stroke="#666666" points="802,-522.99 696.75,-522.99 696.75,-490.99 802,-490.99 802,-522.99"/>
<text xml:space="preserve" text-anchor="start" x="704.75" y="-509.49" font-family="Helvetica,sans-Serif" font-size="10.00">mstd::function_traits</text>
<text xml:space="preserve" text-anchor="middle" x="749.38" y="-497.49" font-family="Helvetica,sans-Serif" font-size="10.00">&lt; F, C &gt;</text>
</a>
</g>
</g>
<!-- Node2&#45;&gt;Node14 -->
<g id="edge23_Node000014_Node000002" class="edge">
<title>Node2&#45;&gt;Node14</title>
<g id="a_edge23_Node000014_Node000002"><a xlink:title=" ">
<path fill="none" stroke="#63b8ff" d="M553.46,-238.46C585.25,-307.55 658.72,-464.31 678.75,-481.99 683.95,-486.58 690.06,-490.34 696.45,-493.42"/>
<polygon fill="#63b8ff" stroke="#63b8ff" points="556.71,-237.16 549.36,-229.53 550.35,-240.08 556.71,-237.16"/>
</a>
</g>
</g>
<!-- Node3 -->
<g id="Node000003" class="node">
<title>Node3</title>
<g id="a_Node000003"><a xlink:title=" ">
<polygon fill="white" stroke="#666666" points="155.5,-407.99 0,-407.99 0,-375.99 155.5,-375.99 155.5,-407.99"/>
<text xml:space="preserve" text-anchor="start" x="8" y="-394.49" font-family="Helvetica,sans-Serif" font-size="10.00">static _MSTD_CONSTEXPR17</text>
<text xml:space="preserve" text-anchor="middle" x="77.75" y="-382.49" font-family="Helvetica,sans-Serif" font-size="10.00"> const bool</text>
</a>
</g>
</g>
<!-- Node3&#45;&gt;Node2 -->
<g id="edge2_Node000002_Node000003" class="edge">
<title>Node3&#45;&gt;Node2</title>
<g id="a_edge2_Node000002_Node000003"><a xlink:title=" ">
<path fill="none" stroke="#9a32cd" stroke-dasharray="5,2" d="M85.4,-364.64C102.88,-299.54 156.92,-135.93 271.75,-70.99 362.5,-19.66 474.95,-133.39 518.35,-183.65"/>
<polygon fill="#9a32cd" stroke="#9a32cd" points="82.06,-363.58 82.93,-374.14 88.83,-365.34 82.06,-363.58"/>
</a>
</g>
<text xml:space="preserve" text-anchor="start" x="286.5" y="-236.49" font-family="Helvetica,sans-Serif" font-size="10.00" fill="grey">is_const</text>
<text xml:space="preserve" text-anchor="start" x="286.5" y="-220.49" font-family="Helvetica,sans-Serif" font-size="10.00" fill="grey">is_free</text>
<text xml:space="preserve" text-anchor="start" x="286.5" y="-204.49" font-family="Helvetica,sans-Serif" font-size="10.00" fill="grey">is_functor</text>
<text xml:space="preserve" text-anchor="start" x="286.5" y="-188.49" font-family="Helvetica,sans-Serif" font-size="10.00" fill="grey">is_member</text>
<text xml:space="preserve" text-anchor="start" x="286.5" y="-172.49" font-family="Helvetica,sans-Serif" font-size="10.00" fill="grey">is_moved</text>
<text xml:space="preserve" text-anchor="start" x="286.5" y="-156.49" font-family="Helvetica,sans-Serif" font-size="10.00" fill="grey">is_noexcept</text>
<text xml:space="preserve" text-anchor="start" x="286.5" y="-140.49" font-family="Helvetica,sans-Serif" font-size="10.00" fill="grey">is_parent_moved</text>
<text xml:space="preserve" text-anchor="start" x="286.5" y="-124.49" font-family="Helvetica,sans-Serif" font-size="10.00" fill="grey">is_parent_ref</text>
<text xml:space="preserve" text-anchor="start" x="286.5" y="-108.49" font-family="Helvetica,sans-Serif" font-size="10.00" fill="grey">is_ptr</text>
<text xml:space="preserve" text-anchor="start" x="286.5" y="-92.49" font-family="Helvetica,sans-Serif" font-size="10.00" fill="grey">is_ref</text>
<text xml:space="preserve" text-anchor="start" x="286.5" y="-76.49" font-family="Helvetica,sans-Serif" font-size="10.00" fill="grey"> &#160;...</text>
</g>
<!-- Node4 -->
<g id="Node000004" class="node">
<title>Node4</title>
<g id="a_Node000004"><a xlink:href="../../d0/d74/structmstd_1_1utils_1_1function__default__type__traits.html" target="_top" xlink:title=" ">
<polygon fill="white" stroke="#666666" points="374.75,-334.99 272.5,-334.99 272.5,-290.99 374.75,-290.99 374.75,-334.99"/>
<text xml:space="preserve" text-anchor="start" x="280.5" y="-321.49" font-family="Helvetica,sans-Serif" font-size="10.00">mstd::utils::function</text>
<text xml:space="preserve" text-anchor="start" x="280.5" y="-309.49" font-family="Helvetica,sans-Serif" font-size="10.00">_default_type_traits</text>
<text xml:space="preserve" text-anchor="middle" x="323.62" y="-297.49" font-family="Helvetica,sans-Serif" font-size="10.00">&lt; IsMember &gt;</text>
</a>
</g>
</g>
<!-- Node3&#45;&gt;Node4 -->
<g id="edge4_Node000004_Node000003" class="edge">
<title>Node3&#45;&gt;Node4</title>
<g id="a_edge4_Node000004_Node000003"><a xlink:title=" ">
<path fill="none" stroke="#9a32cd" stroke-dasharray="5,2" d="M95.26,-366.48C111.87,-343.4 139.8,-310.97 173.5,-296.99 204.64,-284.06 242.44,-288.31 272.19,-295.66"/>
<polygon fill="#9a32cd" stroke="#9a32cd" points="92.55,-364.26 89.72,-374.47 98.3,-368.25 92.55,-364.26"/>
</a>
</g>
<text xml:space="preserve" text-anchor="start" x="176.5" y="-462.49" font-family="Helvetica,sans-Serif" font-size="10.00" fill="grey">is_const</text>
<text xml:space="preserve" text-anchor="start" x="176.5" y="-446.49" font-family="Helvetica,sans-Serif" font-size="10.00" fill="grey">is_free</text>
<text xml:space="preserve" text-anchor="start" x="176.5" y="-430.49" font-family="Helvetica,sans-Serif" font-size="10.00" fill="grey">is_functor</text>
<text xml:space="preserve" text-anchor="start" x="176.5" y="-414.49" font-family="Helvetica,sans-Serif" font-size="10.00" fill="grey">is_member</text>
<text xml:space="preserve" text-anchor="start" x="176.5" y="-398.49" font-family="Helvetica,sans-Serif" font-size="10.00" fill="grey">is_moved</text>
<text xml:space="preserve" text-anchor="start" x="176.5" y="-382.49" font-family="Helvetica,sans-Serif" font-size="10.00" fill="grey">is_noexcept</text>
<text xml:space="preserve" text-anchor="start" x="176.5" y="-366.49" font-family="Helvetica,sans-Serif" font-size="10.00" fill="grey">is_parent_moved</text>
<text xml:space="preserve" text-anchor="start" x="176.5" y="-350.49" font-family="Helvetica,sans-Serif" font-size="10.00" fill="grey">is_parent_ref</text>
<text xml:space="preserve" text-anchor="start" x="176.5" y="-334.49" font-family="Helvetica,sans-Serif" font-size="10.00" fill="grey">is_ptr</text>
<text xml:space="preserve" text-anchor="start" x="176.5" y="-318.49" font-family="Helvetica,sans-Serif" font-size="10.00" fill="grey">is_ref</text>
<text xml:space="preserve" text-anchor="start" x="176.5" y="-302.49" font-family="Helvetica,sans-Serif" font-size="10.00" fill="grey"> &#160;...</text>
</g>
<!-- Node3&#45;&gt;Node5 -->
<g id="edge31_Node000005_Node000003" class="edge">
<title>Node3&#45;&gt;Node5</title>
<g id="a_edge31_Node000005_Node000003"><a xlink:title=" ">
<path fill="none" stroke="#9a32cd" stroke-dasharray="5,2" d="M79.72,-364.45C83.23,-305.13 99.36,-163.78 173.5,-78.99 221.45,-24.15 249.78,-10.99 322.62,-10.99 322.62,-10.99 322.62,-10.99 879.12,-10.99 1196.72,-10.99 1283.52,28.37 1593,-42.99 1677.75,-62.53 1769.32,-108.18 1819.78,-135.72"/>
<polygon fill="#9a32cd" stroke="#9a32cd" points="76.23,-364.14 79.22,-374.3 83.22,-364.49 76.23,-364.14"/>
</a>
</g>
<text xml:space="preserve" text-anchor="start" x="963.62" y="-16.05" font-family="Helvetica,sans-Serif" font-size="10.00" fill="grey">is_noexcept</text>
</g>
<!-- Node3&#45;&gt;Node6 -->
<g id="edge29_Node000006_Node000003" class="edge">
<title>Node3&#45;&gt;Node6</title>
<g id="a_edge29_Node000006_Node000003"><a xlink:title=" ">
<path fill="none" stroke="#9a32cd" stroke-dasharray="5,2" d="M84.08,-419.37C94.27,-465.42 120.37,-559.21 173.5,-618.99 224.04,-675.84 246.56,-702.99 322.62,-702.99 322.62,-702.99 322.62,-702.99 640.38,-702.99 1064.26,-702.99 1239.15,-890.37 1593,-656.99 1657.74,-614.28 1682.02,-517.11 1689.91,-473.23"/>
<polygon fill="#9a32cd" stroke="#9a32cd" points="87.53,-418.76 82.04,-409.7 80.68,-420.21 87.53,-418.76"/>
</a>
</g>
<text xml:space="preserve" text-anchor="start" x="841" y="-733.68" font-family="Helvetica,sans-Serif" font-size="10.00" fill="grey">is_parent_moved</text>
</g>
<!-- Node3&#45;&gt;Node7 -->
<g id="edge27_Node000007_Node000003" class="edge">
<title>Node3&#45;&gt;Node7</title>
<g id="a_edge27_Node000007_Node000003"><a xlink:title=" ">
<path fill="none" stroke="#9a32cd" stroke-dasharray="5,2" d="M86.27,-419.2C98.53,-459.1 126.31,-533.76 173.5,-579.99 245.82,-650.83 292.39,-634.02 393.5,-638.99 590.84,-648.69 1096.18,-663.48 1281.5,-594.99 1367.9,-563.05 1457.24,-497.72 1496.24,-467.28"/>
<polygon fill="#9a32cd" stroke="#9a32cd" points="89.64,-418.28 83.45,-409.68 82.93,-420.26 89.64,-418.28"/>
</a>
</g>
<text xml:space="preserve" text-anchor="start" x="727.62" y="-652.92" font-family="Helvetica,sans-Serif" font-size="10.00" fill="grey">is_volatile</text>
</g>
<!-- Node3&#45;&gt;Node8 -->
<g id="edge25_Node000008_Node000003" class="edge">
<title>Node3&#45;&gt;Node8</title>
<g id="a_edge25_Node000008_Node000003"><a xlink:title=" ">
<path fill="none" stroke="#9a32cd" stroke-dasharray="5,2" d="M93.1,-365.99C108.98,-340.15 137.2,-302 173.5,-284.99 213.06,-266.45 228.07,-282.65 271.75,-281.99 616.59,-276.72 701.52,-318.29 1043.5,-362.99 1083.81,-368.26 1129.18,-374.62 1164.07,-379.61"/>
<polygon fill="#9a32cd" stroke="#9a32cd" points="90.3,-363.86 88.21,-374.25 96.32,-367.43 90.3,-363.86"/>
</a>
</g>
<text xml:space="preserve" text-anchor="start" x="621" y="-309.25" font-family="Helvetica,sans-Serif" font-size="10.00" fill="grey">is_const</text>
</g>
<!-- Node13 -->
<g id="Node000013" class="node">
<title>Node13</title>
<g id="a_Node000013"><a xlink:href="../../d0/d74/structmstd_1_1utils_1_1function__default__type__traits.html" target="_top" xlink:title=" ">
<polygon fill="white" stroke="#666666" points="588.75,-391.99 486.5,-391.99 486.5,-347.99 588.75,-347.99 588.75,-391.99"/>
<text xml:space="preserve" text-anchor="start" x="494.5" y="-378.49" font-family="Helvetica,sans-Serif" font-size="10.00">mstd::utils::function</text>
<text xml:space="preserve" text-anchor="start" x="494.5" y="-366.49" font-family="Helvetica,sans-Serif" font-size="10.00">_default_type_traits</text>
<text xml:space="preserve" text-anchor="middle" x="537.62" y="-354.49" font-family="Helvetica,sans-Serif" font-size="10.00">&lt; true &gt;</text>
</a>
</g>
</g>
<!-- Node3&#45;&gt;Node13 -->
<g id="edge20_Node000013_Node000003" class="edge">
<title>Node3&#45;&gt;Node13</title>
<g id="a_edge20_Node000013_Node000003"><a xlink:title=" ">
<path fill="none" stroke="#9a32cd" stroke-dasharray="5,2" d="M100.52,-416.66C135.67,-453.55 205.8,-514.7 253.75,-474.99 286.84,-447.57 239.18,-408.02 271.75,-379.99 302.75,-353.31 418.4,-358.86 486.2,-364.74"/>
<polygon fill="#9a32cd" stroke="#9a32cd" points="103.17,-414.38 93.8,-409.43 98.05,-419.14 103.17,-414.38"/>
</a>
</g>
<text xml:space="preserve" text-anchor="start" x="286.5" y="-545.49" font-family="Helvetica,sans-Serif" font-size="10.00" fill="grey">is_const</text>
<text xml:space="preserve" text-anchor="start" x="286.5" y="-529.49" font-family="Helvetica,sans-Serif" font-size="10.00" fill="grey">is_free</text>
<text xml:space="preserve" text-anchor="start" x="286.5" y="-513.49" font-family="Helvetica,sans-Serif" font-size="10.00" fill="grey">is_functor</text>
<text xml:space="preserve" text-anchor="start" x="286.5" y="-497.49" font-family="Helvetica,sans-Serif" font-size="10.00" fill="grey">is_member</text>
<text xml:space="preserve" text-anchor="start" x="286.5" y="-481.49" font-family="Helvetica,sans-Serif" font-size="10.00" fill="grey">is_moved</text>
<text xml:space="preserve" text-anchor="start" x="286.5" y="-465.49" font-family="Helvetica,sans-Serif" font-size="10.00" fill="grey">is_noexcept</text>
<text xml:space="preserve" text-anchor="start" x="286.5" y="-449.49" font-family="Helvetica,sans-Serif" font-size="10.00" fill="grey">is_parent_moved</text>
<text xml:space="preserve" text-anchor="start" x="286.5" y="-433.49" font-family="Helvetica,sans-Serif" font-size="10.00" fill="grey">is_parent_ref</text>
<text xml:space="preserve" text-anchor="start" x="286.5" y="-417.49" font-family="Helvetica,sans-Serif" font-size="10.00" fill="grey">is_ptr</text>
<text xml:space="preserve" text-anchor="start" x="286.5" y="-401.49" font-family="Helvetica,sans-Serif" font-size="10.00" fill="grey">is_ref</text>
<text xml:space="preserve" text-anchor="start" x="286.5" y="-385.49" font-family="Helvetica,sans-Serif" font-size="10.00" fill="grey"> &#160;...</text>
</g>
<!-- Node3&#45;&gt;Node14 -->
<g id="edge24_Node000014_Node000003" class="edge">
<title>Node3&#45;&gt;Node14</title>
<g id="a_edge24_Node000014_Node000003"><a xlink:title=" ">
<path fill="none" stroke="#9a32cd" stroke-dasharray="5,2" d="M92.39,-418.36C119.13,-466.79 183.63,-568.55 271.75,-607.99 318.9,-629.09 530.52,-613.15 600,-591.99 649.13,-577.02 699.62,-543.46 727.19,-523.28"/>
<polygon fill="#9a32cd" stroke="#9a32cd" points="95.53,-416.8 87.69,-409.67 89.37,-420.13 95.53,-416.8"/>
</a>
</g>
<text xml:space="preserve" text-anchor="start" x="410.75" y="-622.89" font-family="Helvetica,sans-Serif" font-size="10.00" fill="grey">is_free</text>
</g>
<!-- Node4&#45;&gt;Node2 -->
<g id="edge3_Node000002_Node000004" class="edge">
<title>Node4&#45;&gt;Node2</title>
<g id="a_edge3_Node000002_Node000004"><a xlink:title=" ">
<path fill="none" stroke="orange" stroke-dasharray="5,2" d="M379.15,-285.47C414.26,-267.75 459.32,-245 492.24,-228.39"/>
<polygon fill="orange" stroke="orange" points="377.77,-282.24 370.42,-289.87 380.92,-288.49 377.77,-282.24"/>
</a>
</g>
<text xml:space="preserve" text-anchor="start" x="405.88" y="-280.82" font-family="Helvetica,sans-Serif" font-size="10.00" fill="grey">&lt; false &gt;</text>
</g>
<!-- Node4&#45;&gt;Node13 -->
<g id="edge21_Node000013_Node000004" class="edge">
<title>Node4&#45;&gt;Node13</title>
<g id="a_edge21_Node000013_Node000004"><a xlink:title=" ">
<path fill="none" stroke="orange" stroke-dasharray="5,2" d="M386.33,-322.72C408.86,-326.89 434.41,-332.35 457.25,-338.99 466.77,-341.75 476.74,-345.2 486.28,-348.77"/>
<polygon fill="orange" stroke="orange" points="387.15,-319.31 376.69,-320.98 385.91,-326.2 387.15,-319.31"/>
</a>
</g>
<text xml:space="preserve" text-anchor="start" x="408.12" y="-344.49" font-family="Helvetica,sans-Serif" font-size="10.00" fill="grey">&lt; true &gt;</text>
</g>
<!-- Node5&#45;&gt;Node1 -->
<g id="edge5_Node000001_Node000005" class="edge">
<title>Node5&#45;&gt;Node1</title>
<g id="a_edge5_Node000001_Node000005"><a xlink:title=" ">
<path fill="none" stroke="#63b8ff" d="M1935.6,-157.99C1944.02,-157.99 1952.5,-157.99 1960.66,-157.99"/>
<polygon fill="#63b8ff" stroke="#63b8ff" points="1935.72,-154.49 1925.72,-157.99 1935.72,-161.49 1935.72,-154.49"/>
</a>
</g>
</g>
<!-- Node6&#45;&gt;Node5 -->
<g id="edge7_Node000005_Node000006" class="edge">
<title>Node6&#45;&gt;Node5</title>
<g id="a_edge7_Node000005_Node000006"><a xlink:title=" ">
<path fill="none" stroke="#63b8ff" d="M1713.13,-418.95C1746.53,-359.1 1817.59,-231.74 1846.32,-180.27"/>
<polygon fill="#63b8ff" stroke="#63b8ff" points="1710.09,-417.21 1708.28,-427.64 1716.21,-420.62 1710.09,-417.21"/>
</a>
</g>
</g>
<!-- Node7&#45;&gt;Node6 -->
<g id="edge9_Node000006_Node000007" class="edge">
<title>Node7&#45;&gt;Node6</title>
<g id="a_edge9_Node000006_Node000007"><a xlink:title=" ">
<path fill="none" stroke="#63b8ff" d="M1604.73,-450.99C1613.08,-450.99 1621.45,-450.99 1629.53,-450.99"/>
<polygon fill="#63b8ff" stroke="#63b8ff" points="1604.88,-447.49 1594.88,-450.99 1604.88,-454.49 1604.88,-447.49"/>
</a>
</g>
</g>
<!-- Node8&#45;&gt;Node7 -->
<g id="edge11_Node000007_Node000008" class="edge">
<title>Node8&#45;&gt;Node7</title>
<g id="a_edge11_Node000007_Node000008"><a xlink:title=" ">
<path fill="none" stroke="#63b8ff" d="M1292.75,-402.81C1337.46,-412.44 1395.72,-424.98 1441.58,-434.86"/>
<polygon fill="#63b8ff" stroke="#63b8ff" points="1293.68,-399.44 1283.17,-400.75 1292.21,-406.28 1293.68,-399.44"/>
</a>
</g>
</g>
<!-- Node9&#45;&gt;Node8 -->
<g id="edge13_Node000008_Node000009" class="edge">
<title>Node9&#45;&gt;Node8</title>
<g id="a_edge13_Node000008_Node000009"><a xlink:title=" ">
<path fill="none" stroke="#63b8ff" d="M1054.05,-387.99C1088.42,-387.99 1130.63,-387.99 1164.12,-387.99"/>
<polygon fill="#63b8ff" stroke="#63b8ff" points="1054.23,-384.49 1044.23,-387.99 1054.23,-391.49 1054.23,-384.49"/>
</a>
</g>
</g>
<!-- Node10 -->
<g id="Node000010" class="node">
<title>Node10</title>
<g id="a_Node000010"><a xlink:href="../../d1/d4f/structmstd_1_1utils_1_1function__core__traits_3_01_r_07_args_8_8_8_08_00_01_c_01_4.html" target="_top" xlink:title=" ">
<polygon fill="white" stroke="#666666" points="820,-472.99 678.75,-472.99 678.75,-440.99 820,-440.99 820,-472.99"/>
<text xml:space="preserve" text-anchor="start" x="686.75" y="-459.49" font-family="Helvetica,sans-Serif" font-size="10.00">mstd::utils::function</text>
<text xml:space="preserve" text-anchor="middle" x="749.38" y="-447.49" font-family="Helvetica,sans-Serif" font-size="10.00">_core_traits&lt; R(Args...), C &gt;</text>
</a>
</g>
</g>
<!-- Node10&#45;&gt;Node9 -->
<g id="edge15_Node000009_Node000010" class="edge">
<title>Node10&#45;&gt;Node9</title>
<g id="a_edge15_Node000009_Node000010"><a xlink:title=" ">
<path fill="none" stroke="#63b8ff" d="M784.35,-434.6C800.07,-425.26 819.36,-415.16 838,-408.99 869.88,-398.43 907.27,-393.18 936.84,-390.57"/>
<polygon fill="#63b8ff" stroke="#63b8ff" points="782.57,-431.59 775.87,-439.8 786.23,-437.56 782.57,-431.59"/>
</a>
</g>
</g>
<!-- Node11 -->
<g id="Node000011" class="node">
<title>Node11</title>
<g id="a_Node000011"><a xlink:href="../../df/db9/structmstd_1_1utils_1_1function__core__traits.html" target="_top" xlink:title=" ">
<polygon fill="white" stroke="#666666" points="600,-582.99 475.25,-582.99 475.25,-550.99 600,-550.99 600,-582.99"/>
<text xml:space="preserve" text-anchor="start" x="483.25" y="-569.49" font-family="Helvetica,sans-Serif" font-size="10.00">mstd::utils::function</text>
<text xml:space="preserve" text-anchor="middle" x="537.62" y="-557.49" font-family="Helvetica,sans-Serif" font-size="10.00">_core_traits&lt; R(Args...)&gt;</text>
</a>
</g>
</g>
<!-- Node11&#45;&gt;Node10 -->
<g id="edge16_Node000010_Node000011" class="edge">
<title>Node11&#45;&gt;Node10</title>
<g id="a_edge16_Node000010_Node000011"><a xlink:title=" ">
<path fill="none" stroke="#63b8ff" d="M596.99,-546.12C618.5,-536.62 642.14,-523.9 660.75,-507.99 671.43,-498.85 667.6,-490.55 678.75,-481.99 682.93,-478.78 687.55,-475.96 692.37,-473.48"/>
<polygon fill="#63b8ff" stroke="#63b8ff" points="595.86,-542.8 588.02,-549.93 598.59,-549.24 595.86,-542.8"/>
</a>
</g>
</g>
<!-- Node12 -->
<g id="Node000012" class="node">
<title>Node12</title>
<g id="a_Node000012"><a xlink:href="../../df/db9/structmstd_1_1utils_1_1function__core__traits.html" target="_top" xlink:title=" ">
<polygon fill="white" stroke="#666666" points="375.5,-598.99 271.75,-598.99 271.75,-566.99 375.5,-566.99 375.5,-598.99"/>
<text xml:space="preserve" text-anchor="start" x="279.75" y="-585.49" font-family="Helvetica,sans-Serif" font-size="10.00">mstd::utils::function</text>
<text xml:space="preserve" text-anchor="middle" x="323.62" y="-573.49" font-family="Helvetica,sans-Serif" font-size="10.00">_core_traits&lt; F, C &gt;</text>
</a>
</g>
</g>
<!-- Node12&#45;&gt;Node10 -->
<g id="edge18_Node000010_Node000012" class="edge">
<title>Node12&#45;&gt;Node10</title>
<g id="a_edge18_Node000010_Node000012"><a xlink:title=" ">
<path fill="none" stroke="orange" stroke-dasharray="5,2" d="M374.97,-562.44C410.85,-547.95 456,-530.09 475.25,-523.99 543.32,-502.41 622.75,-483.62 678.35,-471.48"/>
<polygon fill="orange" stroke="orange" points="374.01,-559.05 366.05,-566.05 376.63,-565.54 374.01,-559.05"/>
</a>
</g>
<text xml:space="preserve" text-anchor="start" x="500.5" y="-529.49" font-family="Helvetica,sans-Serif" font-size="10.00" fill="grey">&lt; R(Args...), C &gt;</text>
</g>
<!-- Node12&#45;&gt;Node11 -->
<g id="edge17_Node000011_Node000012" class="edge">
<title>Node12&#45;&gt;Node11</title>
<g id="a_edge17_Node000011_Node000012"><a xlink:title=" ">
<path fill="none" stroke="orange" stroke-dasharray="5,2" d="M387.09,-578.27C414.76,-576.18 447.23,-573.73 474.83,-571.65"/>
<polygon fill="orange" stroke="orange" points="387.16,-574.76 377.45,-579 387.69,-581.74 387.16,-574.76"/>
</a>
</g>
<text xml:space="preserve" text-anchor="start" x="396.5" y="-582.86" font-family="Helvetica,sans-Serif" font-size="10.00" fill="grey">&lt; R(Args...)&gt;</text>
</g>
<!-- Node13&#45;&gt;Node9 -->
<g id="edge19_Node000009_Node000013" class="edge">
<title>Node13&#45;&gt;Node9</title>
<g id="a_edge19_Node000009_Node000013"><a xlink:title=" ">
<path fill="none" stroke="#63b8ff" d="M600.26,-372.45C689.52,-376.02 853.21,-382.56 936.78,-385.9"/>
<polygon fill="#63b8ff" stroke="#63b8ff" points="600.61,-368.96 590.48,-372.06 600.33,-375.96 600.61,-368.96"/>
</a>
</g>
</g>
<!-- Node14&#45;&gt;Node1 -->
<g id="edge33_Node000001_Node000014" class="edge">
<title>Node14&#45;&gt;Node1</title>
<g id="a_edge33_Node000001_Node000014"><a xlink:title=" ">
<path fill="none" stroke="orange" stroke-dasharray="5,2" d="M778.6,-530.29C821.3,-563.11 906.16,-618.99 988.88,-618.99 988.88,-618.99 988.88,-618.99 1860.75,-618.99 1954.68,-618.99 2004.71,-272.31 2016.34,-180.22"/>
<polygon fill="orange" stroke="orange" points="780.87,-527.62 770.84,-524.21 776.55,-533.13 780.87,-527.62"/>
</a>
</g>
<text xml:space="preserve" text-anchor="start" x="1451.5" y="-640.49" font-family="Helvetica,sans-Serif" font-size="10.00" fill="grey">&lt; R(C::*)(Args...)</text>
<text xml:space="preserve" text-anchor="start" x="1451.5" y="-624.49" font-family="Helvetica,sans-Serif" font-size="10.00" fill="grey">   const volatile &amp;&amp;noexcept &gt;</text>
</g>
<!-- Node14&#45;&gt;Node5 -->
<g id="edge32_Node000005_Node000014" class="edge">
<title>Node14&#45;&gt;Node5</title>
<g id="a_edge32_Node000005_Node000014"><a xlink:title=" ">
<path fill="none" stroke="orange" stroke-dasharray="5,2" d="M812.13,-489.13C814.99,-487.01 817.65,-484.64 820,-481.99 843.88,-455.03 814.69,-430.43 838,-402.99 868.52,-367.05 891.25,-377.04 936.25,-362.99 1252.59,-264.21 1644.07,-193.68 1795.15,-168.32"/>
<polygon fill="orange" stroke="orange" points="810.38,-486.1 803.67,-494.3 814.03,-492.07 810.38,-486.1"/>
</a>
</g>
<text xml:space="preserve" text-anchor="start" x="1302.5" y="-287.73" font-family="Helvetica,sans-Serif" font-size="10.00" fill="grey">&lt; R(Args...) const</text>
<text xml:space="preserve" text-anchor="start" x="1302.5" y="-271.73" font-family="Helvetica,sans-Serif" font-size="10.00" fill="grey">   volatile &amp;&amp;noexcept, C &gt;</text>
</g>
<!-- Node14&#45;&gt;Node6 -->
<g id="edge30_Node000006_Node000014" class="edge">
<title>Node14&#45;&gt;Node6</title>
<g id="a_edge30_Node000006_Node000014"><a xlink:title=" ">
<path fill="none" stroke="orange" stroke-dasharray="5,2" d="M809.85,-526.58C857.67,-540.59 926.86,-556.99 988.88,-556.99 988.88,-556.99 988.88,-556.99 1518.5,-556.99 1582.37,-556.99 1642.82,-504.58 1673.08,-473.47"/>
<polygon fill="orange" stroke="orange" points="811.12,-523.31 800.53,-523.79 809.11,-530.01 811.12,-523.31"/>
</a>
</g>
<text xml:space="preserve" text-anchor="start" x="1183.5" y="-578.49" font-family="Helvetica,sans-Serif" font-size="10.00" fill="grey">&lt; R(Args...) const</text>
<text xml:space="preserve" text-anchor="start" x="1183.5" y="-562.49" font-family="Helvetica,sans-Serif" font-size="10.00" fill="grey">   volatile &amp;&amp;, C &gt;</text>
</g>
<!-- Node14&#45;&gt;Node7 -->
<g id="edge28_Node000007_Node000014" class="edge">
<title>Node14&#45;&gt;Node7</title>
<g id="a_edge28_Node000007_Node000014"><a xlink:title=" ">
<path fill="none" stroke="orange" stroke-dasharray="5,2" d="M813.81,-502.35C954.3,-492.08 1291.13,-467.46 1441.64,-456.46"/>
<polygon fill="orange" stroke="orange" points="813.66,-498.85 803.94,-503.07 814.17,-505.83 813.66,-498.85"/>
</a>
</g>
<text xml:space="preserve" text-anchor="start" x="1064.5" y="-505.63" font-family="Helvetica,sans-Serif" font-size="10.00" fill="grey">&lt; R(Args...) const</text>
<text xml:space="preserve" text-anchor="start" x="1064.5" y="-489.63" font-family="Helvetica,sans-Serif" font-size="10.00" fill="grey">   volatile, C &gt;</text>
</g>
<!-- Node14&#45;&gt;Node8 -->
<g id="edge26_Node000008_Node000014" class="edge">
<title>Node14&#45;&gt;Node8</title>
<g id="a_edge26_Node000008_Node000014"><a xlink:title=" ">
<path fill="none" stroke="orange" stroke-dasharray="5,2" d="M813.27,-491.11C905.25,-467.9 1075.14,-425.02 1164.11,-402.57"/>
<polygon fill="orange" stroke="orange" points="812.49,-487.7 803.65,-493.54 814.2,-494.49 812.49,-487.7"/>
</a>
</g>
<text xml:space="preserve" text-anchor="start" x="939.25" y="-464.82" font-family="Helvetica,sans-Serif" font-size="10.00" fill="grey">&lt; R(Args...) const, C &gt;</text>
</g>
<!-- Node14&#45;&gt;Node9 -->
<g id="edge22_Node000009_Node000014" class="edge">
<title>Node14&#45;&gt;Node9</title>
<g id="a_edge22_Node000009_Node000014"><a xlink:title=" ">
<path fill="none" stroke="orange" stroke-dasharray="5,2" d="M811.97,-488.73C814.85,-486.71 817.56,-484.47 820,-481.99 837.44,-464.24 819.87,-446.02 838,-428.99 839.9,-427.2 894.12,-412.72 937.01,-401.47"/>
<polygon fill="orange" stroke="orange" points="810.39,-485.6 803.54,-493.68 813.93,-491.63 810.39,-485.6"/>
</a>
</g>
<text xml:space="preserve" text-anchor="start" x="841" y="-434.49" font-family="Helvetica,sans-Serif" font-size="10.00" fill="grey">&lt; R(Args...), C &gt;</text>
</g>
</g>
</svg>

<g id="navigator" transform="translate(0 0)" fill="#404254">
  <rect fill="#f2f5e9" fill-opacity="0.5" stroke="#606060" stroke-width=".5" x="0" y="0" width="60" height="60"/>
  <use id="zoomplus" xlink:href="#zoomPlus" x="17" y="9" onmousedown="handleZoom(evt,'in')"/>
  <use id="zoomminus" xlink:href="#zoomMin" x="42" y="9" onmousedown="handleZoom(evt,'out')"/>
  <use id="reset" xlink:href="#resetDef" x="30" y="36" onmousedown="handleReset()"/>
   <use id="arrowup" xlink:href="#arrowUp" x="0" y="0" onmousedown="handlePan(0,-1)"/>
  <use id="arrowright" xlink:href="#arrowRight" x="0" y="0" onmousedown="handlePan(1,0)"/>
  <use id="arrowdown" xlink:href="#arrowDown" x="0" y="0" onmousedown="handlePan(0,1)"/>
  <use id="arrowleft" xlink:href="#arrowLeft" x="0" y="0" onmousedown="handlePan(-1,0)"/>
</g>
<svg viewBox="0 0 15 15" width="100%" height="30px" preserveAspectRatio="xMaxYMin meet">
 <g id="arrow_out" transform="scale(0.3 0.3)">
  <a xlink:href="structmstd_1_1function__traits_3_01_r_07_c_1_1_5_08_07_args_8_8_8_08_01const_01volatile_01_6_6noexcept_01_4__coll__graph_org.svg" target="_base">
   <rect id="button" ry="5" rx="5" y="6" x="6" height="38" width="38"
        fill="#f2f5e9" fill-opacity="0.5" stroke="#606060" stroke-width="1.0"/>
   <path id="arrow"
     d="M 11.500037,31.436501 C 11.940474,20.09759 22.043105,11.32322 32.158766,21.979434 L 37.068811,17.246167 C 37.068811,17.246167 37.088388,32 37.088388,32 L 22.160133,31.978069 C 22.160133,31.978069 26.997745,27.140456 26.997745,27.140456 C 18.528582,18.264221 13.291696,25.230495 11.500037,31.436501 z"
     style="fill:#404040;"/>
  </a>
 </g>
</svg>

<style type='text/css'>
<![CDATA[
[data-mouse-over-selected='false'] { opacity: 0.7; }
[data-mouse-over-selected='true']  { opacity: 1.0; }
]]>
</style>
<script type="application/ecmascript"><![CDATA[
document.addEventListener('DOMContentLoaded', (event) => {
  highlightEdges();
  highlightAdjacentNodes();
});
]]></script>
</svg>
