<?xml version="1.0" encoding="UTF-8" standalone="no"?>
<!DOCTYPE svg PUBLIC "-//W3C//DTD SVG 1.1//EN"
 "http://www.w3.org/Graphics/SVG/1.1/DTD/svg11.dtd">
<!-- Generated by graphviz version 14.1.1 (20251213.1925)
 -->
<!-- Title: mstd::function_traits&lt; R(C::*)(Args...) const &amp;noexcept &gt; Pages: 1 -->
<!--zoomable 686 -->

<svg id="main" version="1.1" xmlns="http://www.w3.org/2000/svg" xmlns:xlink="http://www.w3.org/1999/xlink" xml:space="preserve" onload="init(evt)">

<style type="text/css"><![CDATA[
.node, .edge {opacity: 0.7;}
.node.selected, .edge.selected {opacity: 1;}
.edge:hover path { stroke: red; }
.edge:hover polygon { stroke: red; fill: red; }
]]></style>

<defs>
  <circle id="rim" cx="0" cy="0" r="7"/>
  <circle id="rim2" cx="0" cy="0" r="3.5"/>
  <g id="zoomPlus">
    <use xlink:href="#rim" fill="#404040"><set attributeName="fill" to="#808080" begin="zoomplus.mouseover" end="zoomplus.mouseout"/></use>
    <path d="M-4,0h8M0,-4v8" fill="none" stroke="white" stroke-width="1.5" pointer-events="none"/>
  </g>
  <g id="zoomMin">
    <use xlink:href="#rim" fill="#404040"><set attributeName="fill" to="#808080" begin="zoomminus.mouseover" end="zoomminus.mouseout"/></use>
    <path d="M-4,0h8" fill="none" stroke="white" stroke-width="1.5" pointer-events="none"/>
  </g>
  <g id="arrowUp" transform="translate(30 24)">
    <use xlink:href="#rim"/>
    <path pointer-events="none" fill="none" stroke="white" stroke-width="1.5" d="M0,-3.0v7 M-2.5,-0.5L0,-3.0L2.5,-0.5"/>
  </g>
  <g id="arrowRight" transform="rotate(90) translate(36 -43)">
    <use xlink:href="#rim"/>
    <path pointer-events="none" fill="none" stroke="white" stroke-width="1.5" d="M0,-3.0v7 M-2.5,-0.5L0,-3.0L2.5,-0.5"/>
  </g>
  <g id="arrowDown" transform="rotate(180) translate(-30 -48)">
    <use xlink:href="#rim"/>
    <path pointer-events="none" fill="none" stroke="white" stroke-width="1.5" d="M0,-3.0v7 M-2.5,-0.5L0,-3.0L2.5,-0.5"/>
  </g>
  <g id="arrowLeft" transform="rotate(270) translate(-36 17)">
    <use xlink:href="#rim"/>
    <path pointer-events="none" fill="none" stroke="white" stroke-width="1.5" d="M0,-3.0v7 M-2.5,-0.5L0,-3.0L2.5,-0.5"/>
  </g>
  <g id="resetDef">
    <use xlink:href="#rim2" fill="#404040"><set attributeName="fill" to="#808080" begin="reset.mouseover" end="reset.mouseout"/></use>
  </g>
</defs>
<script type="application/ecmascript">
var viewWidth = 1909;
var viewHeight = 686;
var sectionId = 'dynsection-1';
</script>
<script type="application/ecmascript" xlink:href="../../svg.min.js"/>
<svg id="graph" class="graph">
<g id="viewport">
<title>mstd::function_traits&lt; R(C::*)(Args...) const &amp;noexcept &gt;</title>
<!-- Node1 -->
<g id="Node000001" class="node">
<title>Node1</title>
<g id="a_Node000001"><a xlink:title=" ">
<polygon fill="#999999" stroke="#666666" points="1900.75,-511.16 1782.75,-511.16 1782.75,-467.16 1900.75,-467.16 1900.75,-511.16"/>
<text xml:space="preserve" text-anchor="start" x="1790.75" y="-497.66" font-family="Helvetica,sans-Serif" font-size="10.00">mstd::function_traits</text>
<text xml:space="preserve" text-anchor="start" x="1790.75" y="-485.66" font-family="Helvetica,sans-Serif" font-size="10.00">&lt; R(C::*)(Args...) const</text>
<text xml:space="preserve" text-anchor="middle" x="1841.75" y="-473.66" font-family="Helvetica,sans-Serif" font-size="10.00"> &amp;noexcept &gt;</text>
</a>
</g>
</g>
<!-- Node2 -->
<g id="Node000002" class="node">
<title>Node2</title>
<g id="a_Node000002"><a xlink:href="../../d0/d74/structmstd_1_1utils_1_1function__default__type__traits.html" target="_top" xlink:title=" ">
<polygon fill="white" stroke="#666666" points="588.75,-432.16 486.5,-432.16 486.5,-388.16 588.75,-388.16 588.75,-432.16"/>
<text xml:space="preserve" text-anchor="start" x="494.5" y="-418.66" font-family="Helvetica,sans-Serif" font-size="10.00">mstd::utils::function</text>
<text xml:space="preserve" text-anchor="start" x="494.5" y="-406.66" font-family="Helvetica,sans-Serif" font-size="10.00">_default_type_traits</text>
<text xml:space="preserve" text-anchor="middle" x="537.62" y="-394.66" font-family="Helvetica,sans-Serif" font-size="10.00">&lt; false &gt;</text>
</a>
</g>
</g>
<!-- Node2&#45;&gt;Node1 -->
<g id="edge1_Node000001_Node000002" class="edge">
<title>Node2&#45;&gt;Node1</title>
<g id="a_edge1_Node000001_Node000002"><a xlink:title=" ">
<path fill="none" stroke="#63b8ff" d="M563.32,-440.87C577.87,-457.45 597.42,-477.29 618,-491.16 642.21,-507.48 650.65,-508.24 678.75,-516.16 862.5,-567.94 911.97,-584.16 1102.88,-584.16 1102.88,-584.16 1102.88,-584.16 1663.38,-584.16 1724.68,-584.16 1785.29,-539.51 1817.35,-511.43"/>
<polygon fill="#63b8ff" stroke="#63b8ff" points="566.33,-439.02 557.17,-433.7 561.02,-443.57 566.33,-439.02"/>
</a>
</g>
</g>
<!-- Node5 -->
<g id="Node000005" class="node">
<title>Node5</title>
<g id="a_Node000005"><a xlink:href="../../d1/d23/structmstd_1_1function__traits_3_01_r_07_args_8_8_8_08_01const_01_6noexcept_00_01_c_01_4.html" target="_top" xlink:title=" ">
<polygon fill="white" stroke="#666666" points="1745.75,-505.16 1579,-505.16 1579,-473.16 1745.75,-473.16 1745.75,-505.16"/>
<text xml:space="preserve" text-anchor="start" x="1587" y="-491.66" font-family="Helvetica,sans-Serif" font-size="10.00">mstd::function_traits</text>
<text xml:space="preserve" text-anchor="middle" x="1662.38" y="-479.66" font-family="Helvetica,sans-Serif" font-size="10.00">&lt; R(Args...) const &amp;noexcept, C &gt;</text>
</a>
</g>
</g>
<!-- Node2&#45;&gt;Node5 -->
<g id="edge6_Node000005_Node000002" class="edge">
<title>Node2&#45;&gt;Node5</title>
<g id="a_edge6_Node000005_Node000002"><a xlink:title=" ">
<path fill="none" stroke="#63b8ff" d="M575.32,-439.35C615.41,-468.24 682.7,-508.16 748.38,-508.16 748.38,-508.16 748.38,-508.16 1479.5,-508.16 1512.04,-508.16 1547.68,-505.12 1578.72,-501.46"/>
<polygon fill="#63b8ff" stroke="#63b8ff" points="577.57,-436.66 567.44,-433.54 573.41,-442.29 577.57,-436.66"/>
</a>
</g>
</g>
<!-- Node6 -->
<g id="Node000006" class="node">
<title>Node6</title>
<g id="a_Node000006"><a xlink:href="../../d1/d31/structmstd_1_1function__traits_3_01_r_07_args_8_8_8_08_01const_01_6_00_01_c_01_4.html" target="_top" xlink:title=" ">
<polygon fill="white" stroke="#666666" points="1542,-448.16 1415,-448.16 1415,-416.16 1542,-416.16 1542,-448.16"/>
<text xml:space="preserve" text-anchor="start" x="1423" y="-434.66" font-family="Helvetica,sans-Serif" font-size="10.00">mstd::function_traits</text>
<text xml:space="preserve" text-anchor="middle" x="1478.5" y="-422.66" font-family="Helvetica,sans-Serif" font-size="10.00">&lt; R(Args...) const &amp;, C &gt;</text>
</a>
</g>
</g>
<!-- Node2&#45;&gt;Node6 -->
<g id="edge8_Node000006_Node000002" class="edge">
<title>Node2&#45;&gt;Node6</title>
<g id="a_edge8_Node000006_Node000002"><a xlink:title=" ">
<path fill="none" stroke="#63b8ff" d="M600.26,-420.05C641.96,-425.89 698.34,-432.16 748.38,-432.16 748.38,-432.16 748.38,-432.16 1223.88,-432.16 1288.93,-432.16 1363.38,-432.16 1414.7,-432.16"/>
<polygon fill="#63b8ff" stroke="#63b8ff" points="600.8,-416.59 590.4,-418.63 599.8,-423.52 600.8,-416.59"/>
</a>
</g>
</g>
<!-- Node7 -->
<g id="Node000007" class="node">
<title>Node7</title>
<g id="a_Node000007"><a xlink:href="../../df/d15/structmstd_1_1function__traits_3_01_r_07_args_8_8_8_08_01const_00_01_c_01_4.html" target="_top" xlink:title=" ">
<polygon fill="white" stroke="#666666" points="1281.5,-334.16 1164.25,-334.16 1164.25,-302.16 1281.5,-302.16 1281.5,-334.16"/>
<text xml:space="preserve" text-anchor="start" x="1172.25" y="-320.66" font-family="Helvetica,sans-Serif" font-size="10.00">mstd::function_traits</text>
<text xml:space="preserve" text-anchor="middle" x="1222.88" y="-308.66" font-family="Helvetica,sans-Serif" font-size="10.00">&lt; R(Args...) const, C &gt;</text>
</a>
</g>
</g>
<!-- Node2&#45;&gt;Node7 -->
<g id="edge10_Node000007_Node000002" class="edge">
<title>Node2&#45;&gt;Node7</title>
<g id="a_edge10_Node000007_Node000002"><a xlink:title=" ">
<path fill="none" stroke="#63b8ff" d="M600.37,-403.38C710.35,-391.04 947.34,-363.31 1146.25,-332.16 1152.05,-331.25 1158.1,-330.24 1164.13,-329.19"/>
<polygon fill="#63b8ff" stroke="#63b8ff" points="600.23,-399.87 590.68,-404.46 601,-406.83 600.23,-399.87"/>
</a>
</g>
</g>
<!-- Node8 -->
<g id="Node000008" class="node">
<title>Node8</title>
<g id="a_Node000008"><a xlink:href="../../dd/db6/structmstd_1_1function__traits_3_01_r_07_args_8_8_8_08_00_01_c_01_4.html" target="_top" xlink:title=" ">
<polygon fill="white" stroke="#666666" points="1042.5,-287.16 937.25,-287.16 937.25,-255.16 1042.5,-255.16 1042.5,-287.16"/>
<text xml:space="preserve" text-anchor="start" x="945.25" y="-273.66" font-family="Helvetica,sans-Serif" font-size="10.00">mstd::function_traits</text>
<text xml:space="preserve" text-anchor="middle" x="989.88" y="-261.66" font-family="Helvetica,sans-Serif" font-size="10.00">&lt; R(Args...), C &gt;</text>
</a>
</g>
</g>
<!-- Node2&#45;&gt;Node8 -->
<g id="edge12_Node000008_Node000002" class="edge">
<title>Node2&#45;&gt;Node8</title>
<g id="a_edge12_Node000008_Node000002"><a xlink:title=" ">
<path fill="none" stroke="#63b8ff" d="M599.59,-386.59C605.79,-384.35 612.01,-382.17 618,-380.16 730.62,-342.39 864.8,-304.74 936.89,-285.1"/>
<polygon fill="#63b8ff" stroke="#63b8ff" points="598.84,-383.14 590.65,-389.86 601.25,-389.71 598.84,-383.14"/>
</a>
</g>
</g>
<!-- Node13 -->
<g id="Node000013" class="node">
<title>Node13</title>
<g id="a_Node000013"><a xlink:href="../../d7/dcb/structmstd_1_1function__traits.html" target="_top" xlink:title=" ">
<polygon fill="white" stroke="#666666" points="802,-152.16 696.75,-152.16 696.75,-120.16 802,-120.16 802,-152.16"/>
<text xml:space="preserve" text-anchor="start" x="704.75" y="-138.66" font-family="Helvetica,sans-Serif" font-size="10.00">mstd::function_traits</text>
<text xml:space="preserve" text-anchor="middle" x="749.38" y="-126.66" font-family="Helvetica,sans-Serif" font-size="10.00">&lt; F, C &gt;</text>
</a>
</g>
</g>
<!-- Node2&#45;&gt;Node13 -->
<g id="edge21_Node000013_Node000002" class="edge">
<title>Node2&#45;&gt;Node13</title>
<g id="a_edge21_Node000013_Node000002"><a xlink:title=" ">
<path fill="none" stroke="#63b8ff" d="M555.25,-377.74C588.2,-313.93 660.22,-176.82 678.75,-161.16 683.95,-156.77 689.98,-153.12 696.28,-150.1"/>
<polygon fill="#63b8ff" stroke="#63b8ff" points="552.28,-375.85 550.82,-386.34 558.51,-379.05 552.28,-375.85"/>
</a>
</g>
</g>
<!-- Node3 -->
<g id="Node000003" class="node">
<title>Node3</title>
<g id="a_Node000003"><a xlink:title=" ">
<polygon fill="white" stroke="#666666" points="155.5,-367.16 0,-367.16 0,-335.16 155.5,-335.16 155.5,-367.16"/>
<text xml:space="preserve" text-anchor="start" x="8" y="-353.66" font-family="Helvetica,sans-Serif" font-size="10.00">static _MSTD_CONSTEXPR17</text>
<text xml:space="preserve" text-anchor="middle" x="77.75" y="-341.66" font-family="Helvetica,sans-Serif" font-size="10.00"> const bool</text>
</a>
</g>
</g>
<!-- Node3&#45;&gt;Node2 -->
<g id="edge2_Node000002_Node000003" class="edge">
<title>Node3&#45;&gt;Node2</title>
<g id="a_edge2_Node000002_Node000003"><a xlink:title=" ">
<path fill="none" stroke="#9a32cd" stroke-dasharray="5,2" d="M84.1,-378.78C93.78,-420.2 118.53,-497.06 173.5,-530.16 204.06,-548.56 226.17,-552.77 253.75,-530.16 285.3,-504.3 241.71,-467.76 271.75,-440.16 287.19,-425.97 413.54,-416.84 486.01,-412.71"/>
<polygon fill="#9a32cd" stroke="#9a32cd" points="87.54,-378.12 81.99,-369.1 80.71,-379.62 87.54,-378.12"/>
</a>
</g>
<text xml:space="preserve" text-anchor="start" x="286.5" y="-605.66" font-family="Helvetica,sans-Serif" font-size="10.00" fill="grey">is_const</text>
<text xml:space="preserve" text-anchor="start" x="286.5" y="-589.66" font-family="Helvetica,sans-Serif" font-size="10.00" fill="grey">is_free</text>
<text xml:space="preserve" text-anchor="start" x="286.5" y="-573.66" font-family="Helvetica,sans-Serif" font-size="10.00" fill="grey">is_functor</text>
<text xml:space="preserve" text-anchor="start" x="286.5" y="-557.66" font-family="Helvetica,sans-Serif" font-size="10.00" fill="grey">is_member</text>
<text xml:space="preserve" text-anchor="start" x="286.5" y="-541.66" font-family="Helvetica,sans-Serif" font-size="10.00" fill="grey">is_moved</text>
<text xml:space="preserve" text-anchor="start" x="286.5" y="-525.66" font-family="Helvetica,sans-Serif" font-size="10.00" fill="grey">is_noexcept</text>
<text xml:space="preserve" text-anchor="start" x="286.5" y="-509.66" font-family="Helvetica,sans-Serif" font-size="10.00" fill="grey">is_parent_moved</text>
<text xml:space="preserve" text-anchor="start" x="286.5" y="-493.66" font-family="Helvetica,sans-Serif" font-size="10.00" fill="grey">is_parent_ref</text>
<text xml:space="preserve" text-anchor="start" x="286.5" y="-477.66" font-family="Helvetica,sans-Serif" font-size="10.00" fill="grey">is_ptr</text>
<text xml:space="preserve" text-anchor="start" x="286.5" y="-461.66" font-family="Helvetica,sans-Serif" font-size="10.00" fill="grey">is_ref</text>
<text xml:space="preserve" text-anchor="start" x="286.5" y="-445.66" font-family="Helvetica,sans-Serif" font-size="10.00" fill="grey"> &#160;...</text>
</g>
<!-- Node4 -->
<g id="Node000004" class="node">
<title>Node4</title>
<g id="a_Node000004"><a xlink:href="../../d0/d74/structmstd_1_1utils_1_1function__default__type__traits.html" target="_top" xlink:title=" ">
<polygon fill="white" stroke="#666666" points="374.75,-390.16 272.5,-390.16 272.5,-346.16 374.75,-346.16 374.75,-390.16"/>
<text xml:space="preserve" text-anchor="start" x="280.5" y="-376.66" font-family="Helvetica,sans-Serif" font-size="10.00">mstd::utils::function</text>
<text xml:space="preserve" text-anchor="start" x="280.5" y="-364.66" font-family="Helvetica,sans-Serif" font-size="10.00">_default_type_traits</text>
<text xml:space="preserve" text-anchor="middle" x="323.62" y="-352.66" font-family="Helvetica,sans-Serif" font-size="10.00">&lt; IsMember &gt;</text>
</a>
</g>
</g>
<!-- Node3&#45;&gt;Node4 -->
<g id="edge4_Node000004_Node000003" class="edge">
<title>Node3&#45;&gt;Node4</title>
<g id="a_edge4_Node000004_Node000003"><a xlink:title=" ">
<path fill="none" stroke="#9a32cd" stroke-dasharray="5,2" d="M166.97,-347.85C194.81,-347.83 225.64,-348.86 253.75,-352.16 259.72,-352.86 265.93,-353.88 272.07,-355.07"/>
<polygon fill="#9a32cd" stroke="#9a32cd" points="167.14,-344.35 157.16,-347.91 167.18,-351.35 167.14,-344.35"/>
</a>
</g>
<text xml:space="preserve" text-anchor="start" x="176.5" y="-517.66" font-family="Helvetica,sans-Serif" font-size="10.00" fill="grey">is_const</text>
<text xml:space="preserve" text-anchor="start" x="176.5" y="-501.66" font-family="Helvetica,sans-Serif" font-size="10.00" fill="grey">is_free</text>
<text xml:space="preserve" text-anchor="start" x="176.5" y="-485.66" font-family="Helvetica,sans-Serif" font-size="10.00" fill="grey">is_functor</text>
<text xml:space="preserve" text-anchor="start" x="176.5" y="-469.66" font-family="Helvetica,sans-Serif" font-size="10.00" fill="grey">is_member</text>
<text xml:space="preserve" text-anchor="start" x="176.5" y="-453.66" font-family="Helvetica,sans-Serif" font-size="10.00" fill="grey">is_moved</text>
<text xml:space="preserve" text-anchor="start" x="176.5" y="-437.66" font-family="Helvetica,sans-Serif" font-size="10.00" fill="grey">is_noexcept</text>
<text xml:space="preserve" text-anchor="start" x="176.5" y="-421.66" font-family="Helvetica,sans-Serif" font-size="10.00" fill="grey">is_parent_moved</text>
<text xml:space="preserve" text-anchor="start" x="176.5" y="-405.66" font-family="Helvetica,sans-Serif" font-size="10.00" fill="grey">is_parent_ref</text>
<text xml:space="preserve" text-anchor="start" x="176.5" y="-389.66" font-family="Helvetica,sans-Serif" font-size="10.00" fill="grey">is_ptr</text>
<text xml:space="preserve" text-anchor="start" x="176.5" y="-373.66" font-family="Helvetica,sans-Serif" font-size="10.00" fill="grey">is_ref</text>
<text xml:space="preserve" text-anchor="start" x="176.5" y="-357.66" font-family="Helvetica,sans-Serif" font-size="10.00" fill="grey"> &#160;...</text>
</g>
<!-- Node3&#45;&gt;Node5 -->
<g id="edge27_Node000005_Node000003" class="edge">
<title>Node3&#45;&gt;Node5</title>
<g id="a_edge27_Node000005_Node000003"><a xlink:title=" ">
<path fill="none" stroke="#9a32cd" stroke-dasharray="5,2" d="M82.76,-378.93C91.22,-428.3 115.13,-532.18 173.5,-596.16 223.37,-650.82 248.64,-670.16 322.62,-670.16 322.62,-670.16 322.62,-670.16 640.38,-670.16 1015.49,-670.16 1456.4,-550.24 1607.46,-505.62"/>
<polygon fill="#9a32cd" stroke="#9a32cd" points="86.23,-378.41 81.18,-369.1 79.32,-379.53 86.23,-378.41"/>
</a>
</g>
<text xml:space="preserve" text-anchor="start" x="851.88" y="-665.73" font-family="Helvetica,sans-Serif" font-size="10.00" fill="grey">is_noexcept</text>
</g>
<!-- Node3&#45;&gt;Node6 -->
<g id="edge25_Node000006_Node000003" class="edge">
<title>Node3&#45;&gt;Node6</title>
<g id="a_edge25_Node000006_Node000003"><a xlink:title=" ">
<path fill="none" stroke="#9a32cd" stroke-dasharray="5,2" d="M86.36,-378.2C99.02,-419.42 127.63,-498.79 173.5,-552.16 207.78,-592.06 221.43,-602.83 271.75,-618.16 491.33,-685.07 1203.44,-505.34 1416.65,-448.66"/>
<polygon fill="#9a32cd" stroke="#9a32cd" points="89.79,-377.44 83.58,-368.86 83.08,-379.44 89.79,-377.44"/>
</a>
</g>
<text xml:space="preserve" text-anchor="start" x="721.25" y="-612.84" font-family="Helvetica,sans-Serif" font-size="10.00" fill="grey">is_parent_ref</text>
</g>
<!-- Node3&#45;&gt;Node7 -->
<g id="edge23_Node000007_Node000003" class="edge">
<title>Node3&#45;&gt;Node7</title>
<g id="a_edge23_Node000007_Node000003"><a xlink:title=" ">
<path fill="none" stroke="#9a32cd" stroke-dasharray="5,2" d="M167,-333.4C213.16,-325.59 270.72,-318.16 322.62,-318.16 322.62,-318.16 322.62,-318.16 990.88,-318.16 1049.83,-318.16 1117.24,-318.16 1163.97,-318.16"/>
<polygon fill="#9a32cd" stroke="#9a32cd" points="166.57,-329.92 157.31,-335.08 167.76,-336.82 166.57,-329.92"/>
</a>
</g>
<text xml:space="preserve" text-anchor="start" x="621" y="-323.66" font-family="Helvetica,sans-Serif" font-size="10.00" fill="grey">is_const</text>
</g>
<!-- Node12 -->
<g id="Node000012" class="node">
<title>Node12</title>
<g id="a_Node000012"><a xlink:href="../../d0/d74/structmstd_1_1utils_1_1function__default__type__traits.html" target="_top" xlink:title=" ">
<polygon fill="white" stroke="#666666" points="588.75,-282.16 486.5,-282.16 486.5,-238.16 588.75,-238.16 588.75,-282.16"/>
<text xml:space="preserve" text-anchor="start" x="494.5" y="-268.66" font-family="Helvetica,sans-Serif" font-size="10.00">mstd::utils::function</text>
<text xml:space="preserve" text-anchor="start" x="494.5" y="-256.66" font-family="Helvetica,sans-Serif" font-size="10.00">_default_type_traits</text>
<text xml:space="preserve" text-anchor="middle" x="537.62" y="-244.66" font-family="Helvetica,sans-Serif" font-size="10.00">&lt; true &gt;</text>
</a>
</g>
</g>
<!-- Node3&#45;&gt;Node12 -->
<g id="edge18_Node000012_Node000003" class="edge">
<title>Node3&#45;&gt;Node12</title>
<g id="a_edge18_Node000012_Node000003"><a xlink:title=" ">
<path fill="none" stroke="#9a32cd" stroke-dasharray="5,2" d="M91.54,-324.77C117.43,-274.81 181.36,-167.72 271.75,-126.16 313.65,-106.9 332.14,-110.49 375.5,-126.16 437.26,-148.49 492.03,-205.95 518.96,-237.9"/>
<polygon fill="#9a32cd" stroke="#9a32cd" points="88.54,-322.94 87.14,-333.45 94.79,-326.11 88.54,-322.94"/>
</a>
</g>
<text xml:space="preserve" text-anchor="start" x="286.5" y="-291.66" font-family="Helvetica,sans-Serif" font-size="10.00" fill="grey">is_const</text>
<text xml:space="preserve" text-anchor="start" x="286.5" y="-275.66" font-family="Helvetica,sans-Serif" font-size="10.00" fill="grey">is_free</text>
<text xml:space="preserve" text-anchor="start" x="286.5" y="-259.66" font-family="Helvetica,sans-Serif" font-size="10.00" fill="grey">is_functor</text>
<text xml:space="preserve" text-anchor="start" x="286.5" y="-243.66" font-family="Helvetica,sans-Serif" font-size="10.00" fill="grey">is_member</text>
<text xml:space="preserve" text-anchor="start" x="286.5" y="-227.66" font-family="Helvetica,sans-Serif" font-size="10.00" fill="grey">is_moved</text>
<text xml:space="preserve" text-anchor="start" x="286.5" y="-211.66" font-family="Helvetica,sans-Serif" font-size="10.00" fill="grey">is_noexcept</text>
<text xml:space="preserve" text-anchor="start" x="286.5" y="-195.66" font-family="Helvetica,sans-Serif" font-size="10.00" fill="grey">is_parent_moved</text>
<text xml:space="preserve" text-anchor="start" x="286.5" y="-179.66" font-family="Helvetica,sans-Serif" font-size="10.00" fill="grey">is_parent_ref</text>
<text xml:space="preserve" text-anchor="start" x="286.5" y="-163.66" font-family="Helvetica,sans-Serif" font-size="10.00" fill="grey">is_ptr</text>
<text xml:space="preserve" text-anchor="start" x="286.5" y="-147.66" font-family="Helvetica,sans-Serif" font-size="10.00" fill="grey">is_ref</text>
<text xml:space="preserve" text-anchor="start" x="286.5" y="-131.66" font-family="Helvetica,sans-Serif" font-size="10.00" fill="grey"> &#160;...</text>
</g>
<!-- Node3&#45;&gt;Node13 -->
<g id="edge22_Node000013_Node000003" class="edge">
<title>Node3&#45;&gt;Node13</title>
<g id="a_edge22_Node000013_Node000003"><a xlink:title=" ">
<path fill="none" stroke="#9a32cd" stroke-dasharray="5,2" d="M84.33,-323.74C99.79,-256.45 150.29,-85.02 271.75,-35.16 406.71,20.24 458.83,1.66 600,-35.16 655.18,-49.55 707.29,-94.98 732.52,-119.72"/>
<polygon fill="#9a32cd" stroke="#9a32cd" points="80.98,-322.69 82.25,-333.21 87.82,-324.2 80.98,-322.69"/>
</a>
</g>
<text xml:space="preserve" text-anchor="start" x="410.75" y="-7.95" font-family="Helvetica,sans-Serif" font-size="10.00" fill="grey">is_free</text>
</g>
<!-- Node4&#45;&gt;Node2 -->
<g id="edge3_Node000002_Node000004" class="edge">
<title>Node4&#45;&gt;Node2</title>
<g id="a_edge3_Node000002_Node000004"><a xlink:title=" ">
<path fill="none" stroke="orange" stroke-dasharray="5,2" d="M386.08,-380.14C408.49,-384.52 434.02,-389.54 457.25,-394.16 466.63,-396.02 476.62,-398.03 486.25,-399.96"/>
<polygon fill="orange" stroke="orange" points="386.99,-376.75 376.5,-378.27 385.65,-383.62 386.99,-376.75"/>
</a>
</g>
<text xml:space="preserve" text-anchor="start" x="405.88" y="-399.66" font-family="Helvetica,sans-Serif" font-size="10.00" fill="grey">&lt; false &gt;</text>
</g>
<!-- Node4&#45;&gt;Node12 -->
<g id="edge19_Node000012_Node000004" class="edge">
<title>Node4&#45;&gt;Node12</title>
<g id="a_edge19_Node000012_Node000004"><a xlink:title=" ">
<path fill="none" stroke="orange" stroke-dasharray="5,2" d="M378.7,-340.61C414.06,-322.6 459.65,-299.37 492.75,-282.51"/>
<polygon fill="orange" stroke="orange" points="377.22,-337.44 369.9,-345.1 380.4,-343.68 377.22,-337.44"/>
</a>
</g>
<text xml:space="preserve" text-anchor="start" x="408.12" y="-335.64" font-family="Helvetica,sans-Serif" font-size="10.00" fill="grey">&lt; true &gt;</text>
</g>
<!-- Node5&#45;&gt;Node1 -->
<g id="edge5_Node000001_Node000005" class="edge">
<title>Node5&#45;&gt;Node1</title>
<g id="a_edge5_Node000001_Node000005"><a xlink:title=" ">
<path fill="none" stroke="#63b8ff" d="M1757.33,-489.16C1765.88,-489.16 1774.36,-489.16 1782.45,-489.16"/>
<polygon fill="#63b8ff" stroke="#63b8ff" points="1757.6,-485.66 1747.6,-489.16 1757.6,-492.66 1757.6,-485.66"/>
</a>
</g>
</g>
<!-- Node6&#45;&gt;Node5 -->
<g id="edge7_Node000005_Node000006" class="edge">
<title>Node6&#45;&gt;Node5</title>
<g id="a_edge7_Node000005_Node000006"><a xlink:title=" ">
<path fill="none" stroke="#63b8ff" d="M1542.82,-452C1564.39,-458.77 1588.26,-466.25 1608.89,-472.71"/>
<polygon fill="#63b8ff" stroke="#63b8ff" points="1544.14,-448.75 1533.55,-449.1 1542.05,-455.43 1544.14,-448.75"/>
</a>
</g>
</g>
<!-- Node7&#45;&gt;Node6 -->
<g id="edge9_Node000006_Node000007" class="edge">
<title>Node7&#45;&gt;Node6</title>
<g id="a_edge9_Node000006_Node000007"><a xlink:title=" ">
<path fill="none" stroke="#63b8ff" d="M1270.84,-339.27C1319.97,-361.35 1396.05,-395.55 1440.9,-415.71"/>
<polygon fill="#63b8ff" stroke="#63b8ff" points="1272.42,-336.14 1261.86,-335.24 1269.55,-342.53 1272.42,-336.14"/>
</a>
</g>
</g>
<!-- Node8&#45;&gt;Node7 -->
<g id="edge11_Node000007_Node000008" class="edge">
<title>Node8&#45;&gt;Node7</title>
<g id="a_edge11_Node000007_Node000008"><a xlink:title=" ">
<path fill="none" stroke="#63b8ff" d="M1053.6,-283.92C1088.05,-290.93 1130.48,-299.57 1164.12,-306.41"/>
<polygon fill="#63b8ff" stroke="#63b8ff" points="1054.7,-280.57 1044.2,-282.01 1053.3,-287.43 1054.7,-280.57"/>
</a>
</g>
</g>
<!-- Node9 -->
<g id="Node000009" class="node">
<title>Node9</title>
<g id="a_Node000009"><a xlink:href="../../d1/d4f/structmstd_1_1utils_1_1function__core__traits_3_01_r_07_args_8_8_8_08_00_01_c_01_4.html" target="_top" xlink:title=" ">
<polygon fill="white" stroke="#666666" points="820,-202.16 678.75,-202.16 678.75,-170.16 820,-170.16 820,-202.16"/>
<text xml:space="preserve" text-anchor="start" x="686.75" y="-188.66" font-family="Helvetica,sans-Serif" font-size="10.00">mstd::utils::function</text>
<text xml:space="preserve" text-anchor="middle" x="749.38" y="-176.66" font-family="Helvetica,sans-Serif" font-size="10.00">_core_traits&lt; R(Args...), C &gt;</text>
</a>
</g>
</g>
<!-- Node9&#45;&gt;Node8 -->
<g id="edge13_Node000008_Node000009" class="edge">
<title>Node9&#45;&gt;Node8</title>
<g id="a_edge13_Node000008_Node000009"><a xlink:title=" ">
<path fill="none" stroke="#63b8ff" d="M787.24,-207.94C802.57,-216.34 820.77,-225.52 838,-232.16 870.06,-244.53 907.44,-254.22 936.97,-260.85"/>
<polygon fill="#63b8ff" stroke="#63b8ff" points="789.38,-205.12 778.95,-203.3 785.97,-211.23 789.38,-205.12"/>
</a>
</g>
</g>
<!-- Node10 -->
<g id="Node000010" class="node">
<title>Node10</title>
<g id="a_Node000010"><a xlink:href="../../df/db9/structmstd_1_1utils_1_1function__core__traits.html" target="_top" xlink:title=" ">
<polygon fill="white" stroke="#666666" points="600,-76.16 475.25,-76.16 475.25,-44.16 600,-44.16 600,-76.16"/>
<text xml:space="preserve" text-anchor="start" x="483.25" y="-62.66" font-family="Helvetica,sans-Serif" font-size="10.00">mstd::utils::function</text>
<text xml:space="preserve" text-anchor="middle" x="537.62" y="-50.66" font-family="Helvetica,sans-Serif" font-size="10.00">_core_traits&lt; R(Args...)&gt;</text>
</a>
</g>
</g>
<!-- Node10&#45;&gt;Node9 -->
<g id="edge14_Node000009_Node000010" class="edge">
<title>Node10&#45;&gt;Node9</title>
<g id="a_edge14_Node000009_Node000010"><a xlink:title=" ">
<path fill="none" stroke="#63b8ff" d="M611.2,-70.16C629.37,-75.79 647.45,-84.55 660.75,-98.16 681.1,-118.99 658.85,-139.9 678.75,-161.16 681.82,-164.44 685.35,-167.3 689.17,-169.77"/>
<polygon fill="#63b8ff" stroke="#63b8ff" points="612.25,-66.82 601.68,-67.53 610.39,-73.57 612.25,-66.82"/>
</a>
</g>
</g>
<!-- Node11 -->
<g id="Node000011" class="node">
<title>Node11</title>
<g id="a_Node000011"><a xlink:href="../../df/db9/structmstd_1_1utils_1_1function__core__traits.html" target="_top" xlink:title=" ">
<polygon fill="white" stroke="#666666" points="375.5,-76.16 271.75,-76.16 271.75,-44.16 375.5,-44.16 375.5,-76.16"/>
<text xml:space="preserve" text-anchor="start" x="279.75" y="-62.66" font-family="Helvetica,sans-Serif" font-size="10.00">mstd::utils::function</text>
<text xml:space="preserve" text-anchor="middle" x="323.62" y="-50.66" font-family="Helvetica,sans-Serif" font-size="10.00">_core_traits&lt; F, C &gt;</text>
</a>
</g>
</g>
<!-- Node11&#45;&gt;Node9 -->
<g id="edge16_Node000009_Node000011" class="edge">
<title>Node11&#45;&gt;Node9</title>
<g id="a_edge16_Node000009_Node000011"><a xlink:title=" ">
<path fill="none" stroke="orange" stroke-dasharray="5,2" d="M386.65,-80.05C388.96,-80.77 391.25,-81.47 393.5,-82.16 498.01,-114.16 620.47,-149.6 690.78,-169.74"/>
<polygon fill="orange" stroke="orange" points="387.77,-76.73 377.18,-77.09 385.68,-83.41 387.77,-76.73"/>
</a>
</g>
<text xml:space="preserve" text-anchor="start" x="500.5" y="-147.97" font-family="Helvetica,sans-Serif" font-size="10.00" fill="grey">&lt; R(Args...), C &gt;</text>
</g>
<!-- Node11&#45;&gt;Node10 -->
<g id="edge15_Node000010_Node000011" class="edge">
<title>Node11&#45;&gt;Node10</title>
<g id="a_edge15_Node000010_Node000011"><a xlink:title=" ">
<path fill="none" stroke="orange" stroke-dasharray="5,2" d="M387.45,-60.16C415.05,-60.16 447.35,-60.16 474.83,-60.16"/>
<polygon fill="orange" stroke="orange" points="387.46,-56.66 377.46,-60.16 387.46,-63.66 387.46,-56.66"/>
</a>
</g>
<text xml:space="preserve" text-anchor="start" x="396.5" y="-65.66" font-family="Helvetica,sans-Serif" font-size="10.00" fill="grey">&lt; R(Args...)&gt;</text>
</g>
<!-- Node12&#45;&gt;Node8 -->
<g id="edge17_Node000008_Node000012" class="edge">
<title>Node12&#45;&gt;Node8</title>
<g id="a_edge17_Node000008_Node000012"><a xlink:title=" ">
<path fill="none" stroke="#63b8ff" d="M600.26,-261.67C689.52,-263.85 853.21,-267.85 936.78,-269.89"/>
<polygon fill="#63b8ff" stroke="#63b8ff" points="600.56,-258.17 590.48,-261.43 600.39,-265.17 600.56,-258.17"/>
</a>
</g>
</g>
<!-- Node13&#45;&gt;Node1 -->
<g id="edge29_Node000001_Node000013" class="edge">
<title>Node13&#45;&gt;Node1</title>
<g id="a_edge29_Node000001_Node000013"><a xlink:title=" ">
<path fill="none" stroke="orange" stroke-dasharray="5,2" d="M795.52,-115.18C842.69,-95.2 919.37,-68.16 988.88,-68.16 988.88,-68.16 988.88,-68.16 1663.38,-68.16 1750.72,-68.16 1819.06,-379.79 1836.45,-466.82"/>
<polygon fill="orange" stroke="orange" points="794.23,-111.92 786.44,-119.1 797.01,-118.35 794.23,-111.92"/>
</a>
</g>
<text xml:space="preserve" text-anchor="start" x="1302.5" y="-89.66" font-family="Helvetica,sans-Serif" font-size="10.00" fill="grey">&lt; R(C::*)(Args...)</text>
<text xml:space="preserve" text-anchor="start" x="1302.5" y="-73.66" font-family="Helvetica,sans-Serif" font-size="10.00" fill="grey">   const &amp;noexcept &gt;</text>
</g>
<!-- Node13&#45;&gt;Node5 -->
<g id="edge28_Node000005_Node000013" class="edge">
<title>Node13&#45;&gt;Node5</title>
<g id="a_edge28_Node000005_Node000013"><a xlink:title=" ">
<path fill="none" stroke="orange" stroke-dasharray="5,2" d="M813.54,-128.38C861.55,-123.13 929.27,-117.16 988.88,-117.16 988.88,-117.16 988.88,-117.16 1479.5,-117.16 1640.17,-117.16 1658.92,-400.7 1661.09,-472.7"/>
<polygon fill="orange" stroke="orange" points="813.44,-124.87 803.89,-129.45 814.22,-131.82 813.44,-124.87"/>
</a>
</g>
<text xml:space="preserve" text-anchor="start" x="1183.5" y="-138.66" font-family="Helvetica,sans-Serif" font-size="10.00" fill="grey">&lt; R(Args...) const</text>
<text xml:space="preserve" text-anchor="start" x="1183.5" y="-122.66" font-family="Helvetica,sans-Serif" font-size="10.00" fill="grey">   &amp;noexcept, C &gt;</text>
</g>
<!-- Node13&#45;&gt;Node6 -->
<g id="edge26_Node000006_Node000013" class="edge">
<title>Node13&#45;&gt;Node6</title>
<g id="a_edge26_Node000006_Node000013"><a xlink:title=" ">
<path fill="none" stroke="orange" stroke-dasharray="5,2" d="M813.6,-138.47C893.38,-143.08 1033.74,-156.88 1146.25,-198.16 1268.81,-243.12 1294.52,-270.28 1397,-351.16 1422.37,-371.18 1448.07,-398.55 1463.39,-415.79"/>
<polygon fill="orange" stroke="orange" points="813.97,-134.99 803.79,-137.94 813.59,-141.98 813.97,-134.99"/>
</a>
</g>
<text xml:space="preserve" text-anchor="start" x="1064.5" y="-219.66" font-family="Helvetica,sans-Serif" font-size="10.00" fill="grey">&lt; R(Args...) const</text>
<text xml:space="preserve" text-anchor="start" x="1064.5" y="-203.66" font-family="Helvetica,sans-Serif" font-size="10.00" fill="grey">   &amp;, C &gt;</text>
</g>
<!-- Node13&#45;&gt;Node7 -->
<g id="edge24_Node000007_Node000013" class="edge">
<title>Node13&#45;&gt;Node7</title>
<g id="a_edge24_Node000007_Node000013"><a xlink:title=" ">
<path fill="none" stroke="orange" stroke-dasharray="5,2" d="M807.83,-156.17C817.87,-159.57 828.22,-163.01 838,-166.16 928.81,-195.39 954.91,-192.76 1043.5,-228.16 1098.1,-249.98 1158.59,-282.36 1193.24,-301.75"/>
<polygon fill="orange" stroke="orange" points="809.14,-152.92 798.54,-153.01 806.88,-159.54 809.14,-152.92"/>
</a>
</g>
<text xml:space="preserve" text-anchor="start" x="939.25" y="-233.66" font-family="Helvetica,sans-Serif" font-size="10.00" fill="grey">&lt; R(Args...) const, C &gt;</text>
</g>
<!-- Node13&#45;&gt;Node8 -->
<g id="edge20_Node000008_Node000013" class="edge">
<title>Node13&#45;&gt;Node8</title>
<g id="a_edge20_Node000008_Node000013"><a xlink:title=" ">
<path fill="none" stroke="orange" stroke-dasharray="5,2" d="M812.4,-155.72C815.07,-157.39 817.62,-159.2 820,-161.16 832.02,-171.03 825.45,-181.98 838,-191.16 867.59,-212.8 885.61,-193.48 918.25,-210.16 919.76,-210.94 949.71,-236.96 970.11,-254.77"/>
<polygon fill="orange" stroke="orange" points="814.14,-152.68 803.69,-150.97 810.79,-158.83 814.14,-152.68"/>
</a>
</g>
<text xml:space="preserve" text-anchor="start" x="841" y="-215.66" font-family="Helvetica,sans-Serif" font-size="10.00" fill="grey">&lt; R(Args...), C &gt;</text>
</g>
</g>
</svg>

<g id="navigator" transform="translate(0 0)" fill="#404254">
  <rect fill="#f2f5e9" fill-opacity="0.5" stroke="#606060" stroke-width=".5" x="0" y="0" width="60" height="60"/>
  <use id="zoomplus" xlink:href="#zoomPlus" x="17" y="9" onmousedown="handleZoom(evt,'in')"/>
  <use id="zoomminus" xlink:href="#zoomMin" x="42" y="9" onmousedown="handleZoom(evt,'out')"/>
  <use id="reset" xlink:href="#resetDef" x="30" y="36" onmousedown="handleReset()"/>
   <use id="arrowup" xlink:href="#arrowUp" x="0" y="0" onmousedown="handlePan(0,-1)"/>
  <use id="arrowright" xlink:href="#arrowRight" x="0" y="0" onmousedown="handlePan(1,0)"/>
  <use id="arrowdown" xlink:href="#arrowDown" x="0" y="0" onmousedown="handlePan(0,1)"/>
  <use id="arrowleft" xlink:href="#arrowLeft" x="0" y="0" onmousedown="handlePan(-1,0)"/>
</g>
<svg viewBox="0 0 15 15" width="100%" height="30px" preserveAspectRatio="xMaxYMin meet">
 <g id="arrow_out" transform="scale(0.3 0.3)">
  <a xlink:href="structmstd_1_1function__traits_3_01_r_07_c_1_1_5_08_07_args_8_8_8_08_01const_01_6noexcept_01_4__coll__graph_org.svg" target="_base">
   <rect id="button" ry="5" rx="5" y="6" x="6" height="38" width="38"
        fill="#f2f5e9" fill-opacity="0.5" stroke="#606060" stroke-width="1.0"/>
   <path id="arrow"
     d="M 11.500037,31.436501 C 11.940474,20.09759 22.043105,11.32322 32.158766,21.979434 L 37.068811,17.246167 C 37.068811,17.246167 37.088388,32 37.088388,32 L 22.160133,31.978069 C 22.160133,31.978069 26.997745,27.140456 26.997745,27.140456 C 18.528582,18.264221 13.291696,25.230495 11.500037,31.436501 z"
     style="fill:#404040;"/>
  </a>
 </g>
</svg>

<style type='text/css'>
<![CDATA[
[data-mouse-over-selected='false'] { opacity: 0.7; }
[data-mouse-over-selected='true']  { opacity: 1.0; }
]]>
</style>
<script type="application/ecmascript"><![CDATA[
document.addEventListener('DOMContentLoaded', (event) => {
  highlightEdges();
  highlightAdjacentNodes();
});
]]></script>
</svg>
