<?xml version="1.0" encoding="UTF-8" standalone="no"?>
<!DOCTYPE svg PUBLIC "-//W3C//DTD SVG 1.1//EN"
 "http://www.w3.org/Graphics/SVG/1.1/DTD/svg11.dtd">
<!-- Generated by graphviz version 14.1.1 (20251213.1925)
 -->
<!-- Title: mstd::are_floating_points&lt; Ns &gt; Pages: 1 -->
<svg width="634pt" height="108pt"
 viewBox="0.00 0.00 634.00 108.00" xmlns="http://www.w3.org/2000/svg" xmlns:xlink="http://www.w3.org/1999/xlink">
<g id="graph0" class="graph" transform="scale(1 1) rotate(0) translate(4 104)">
<title>mstd::are_floating_points&lt; Ns &gt;</title>
<!-- Node1 -->
<g id="Node000001" class="node">
<title>Node1</title>
<g id="a_Node000001"><a xlink:title=" ">
<polygon fill="#999999" stroke="#666666" points="626.25,-66 532.25,-66 532.25,-34 626.25,-34 626.25,-66"/>
<text xml:space="preserve" text-anchor="start" x="540.25" y="-52.5" font-family="Helvetica,sans-Serif" font-size="10.00">mstd::are_floating</text>
<text xml:space="preserve" text-anchor="middle" x="579.25" y="-40.5" font-family="Helvetica,sans-Serif" font-size="10.00">_points&lt; Ns &gt;</text>
</a>
</g>
</g>
<!-- Node2 -->
<g id="Node000002" class="node">
<title>Node2</title>
<g id="a_Node000002"><a xlink:href="../../dd/def/structmstd_1_1all__check.html" target="_top" xlink:title=" ">
<polygon fill="white" stroke="#666666" points="495.25,-72 387.75,-72 387.75,-28 495.25,-28 495.25,-72"/>
<text xml:space="preserve" text-anchor="start" x="395.75" y="-58.5" font-family="Helvetica,sans-Serif" font-size="10.00">mstd::all_check&lt; std</text>
<text xml:space="preserve" text-anchor="start" x="395.75" y="-46.5" font-family="Helvetica,sans-Serif" font-size="10.00">::is_floating_point,</text>
<text xml:space="preserve" text-anchor="middle" x="441.5" y="-34.5" font-family="Helvetica,sans-Serif" font-size="10.00"> Ns... &gt;</text>
</a>
</g>
</g>
<!-- Node2&#45;&gt;Node1 -->
<g id="edge1_Node000001_Node000002" class="edge">
<title>Node2&#45;&gt;Node1</title>
<g id="a_edge1_Node000001_Node000002"><a xlink:title=" ">
<path fill="none" stroke="#63b8ff" d="M506.82,-50C515.29,-50 523.83,-50 531.92,-50"/>
<polygon fill="#63b8ff" stroke="#63b8ff" points="506.89,-46.5 496.89,-50 506.89,-53.5 506.89,-46.5"/>
</a>
</g>
</g>
<!-- Node3 -->
<g id="Node000003" class="node">
<title>Node3</title>
<g id="a_Node000003"><a xlink:title=" ">
<polygon fill="white" stroke="#666666" points="267.75,-100 152.75,-100 152.75,-56 267.75,-56 267.75,-100"/>
<text xml:space="preserve" text-anchor="start" x="160.75" y="-86.5" font-family="Helvetica,sans-Serif" font-size="10.00">std::bool_constant</text>
<text xml:space="preserve" text-anchor="start" x="160.75" y="-74.5" font-family="Helvetica,sans-Serif" font-size="10.00">&lt;(std::is_floating_point</text>
<text xml:space="preserve" text-anchor="middle" x="210.25" y="-62.5" font-family="Helvetica,sans-Serif" font-size="10.00">&lt; Ts &gt;::value &amp;&amp;...)&gt;</text>
</a>
</g>
</g>
<!-- Node3&#45;&gt;Node2 -->
<g id="edge2_Node000002_Node000003" class="edge">
<title>Node3&#45;&gt;Node2</title>
<g id="a_edge2_Node000002_Node000003"><a xlink:title=" ">
<path fill="none" stroke="#63b8ff" d="M279.23,-73.6C307.33,-71.37 340.19,-68.22 369.75,-64 375.45,-63.19 381.39,-62.21 387.29,-61.16"/>
<polygon fill="#63b8ff" stroke="#63b8ff" points="279.11,-70.1 269.41,-74.36 279.65,-77.08 279.11,-70.1"/>
</a>
</g>
</g>
<!-- Node4 -->
<g id="Node000004" class="node">
<title>Node4</title>
<g id="a_Node000004"><a xlink:href="../../dd/def/structmstd_1_1all__check.html" target="_top" xlink:title=" ">
<polygon fill="white" stroke="#666666" points="273,-38 147.5,-38 147.5,-6 273,-6 273,-38"/>
<text xml:space="preserve" text-anchor="start" x="155.5" y="-24.5" font-family="Helvetica,sans-Serif" font-size="10.00">mstd::all_check&lt; Check,</text>
<text xml:space="preserve" text-anchor="middle" x="210.25" y="-12.5" font-family="Helvetica,sans-Serif" font-size="10.00"> Ts &gt;</text>
</a>
</g>
</g>
<!-- Node4&#45;&gt;Node2 -->
<g id="edge3_Node000002_Node000004" class="edge">
<title>Node4&#45;&gt;Node2</title>
<g id="a_edge3_Node000002_Node000004"><a xlink:title=" ">
<path fill="none" stroke="orange" stroke-dasharray="5,2" d="M284.7,-19.26C311.63,-19.46 342.24,-21.1 369.75,-26 375.5,-27.02 381.41,-28.43 387.25,-30.05"/>
<polygon fill="orange" stroke="orange" points="284.92,-15.76 274.92,-19.26 284.92,-22.76 284.92,-15.76"/>
</a>
</g>
<text xml:space="preserve" text-anchor="start" x="294" y="-47.5" font-family="Helvetica,sans-Serif" font-size="10.00" fill="grey">&lt; std::is_floating</text>
<text xml:space="preserve" text-anchor="start" x="294" y="-31.5" font-family="Helvetica,sans-Serif" font-size="10.00" fill="grey">  _point, Ns... &gt;</text>
</g>
<!-- Node5 -->
<g id="Node000005" class="node">
<title>Node5</title>
<g id="a_Node000005"><a xlink:title=" ">
<polygon fill="white" stroke="#666666" points="110.5,-44 0,-44 0,0 110.5,0 110.5,-44"/>
<text xml:space="preserve" text-anchor="start" x="8" y="-30.5" font-family="Helvetica,sans-Serif" font-size="10.00">std::bool_constant</text>
<text xml:space="preserve" text-anchor="start" x="8" y="-18.5" font-family="Helvetica,sans-Serif" font-size="10.00">&lt;(Check&lt; Ts &gt;::value</text>
<text xml:space="preserve" text-anchor="middle" x="55.25" y="-6.5" font-family="Helvetica,sans-Serif" font-size="10.00"> &amp;&amp;...)&gt;</text>
</a>
</g>
</g>
<!-- Node5&#45;&gt;Node4 -->
<g id="edge4_Node000004_Node000005" class="edge">
<title>Node5&#45;&gt;Node4</title>
<g id="a_edge4_Node000004_Node000005"><a xlink:title=" ">
<path fill="none" stroke="#63b8ff" d="M121.92,-22C130.32,-22 138.89,-22 147.23,-22"/>
<polygon fill="#63b8ff" stroke="#63b8ff" points="122.14,-18.5 112.14,-22 122.14,-25.5 122.14,-18.5"/>
</a>
</g>
</g>
</g>
</svg>
