<?xml version="1.0" encoding="UTF-8" standalone="no"?>
<!DOCTYPE svg PUBLIC "-//W3C//DTD SVG 1.1//EN"
 "http://www.w3.org/Graphics/SVG/1.1/DTD/svg11.dtd">
<!-- Generated by graphviz version 14.1.1 (20251213.1925)
 -->
<!-- Title: mstd::function_traits&lt; R(Args...) const volatile &amp;&amp;, C &gt; Pages: 1 -->
<!--zoomable 376 -->

<svg id="main" version="1.1" xmlns="http://www.w3.org/2000/svg" xmlns:xlink="http://www.w3.org/1999/xlink" xml:space="preserve" onload="init(evt)">

<style type="text/css"><![CDATA[
.node, .edge {opacity: 0.7;}
.node.selected, .edge.selected {opacity: 1;}
.edge:hover path { stroke: red; }
.edge:hover polygon { stroke: red; fill: red; }
]]></style>

<defs>
  <circle id="rim" cx="0" cy="0" r="7"/>
  <circle id="rim2" cx="0" cy="0" r="3.5"/>
  <g id="zoomPlus">
    <use xlink:href="#rim" fill="#404040"><set attributeName="fill" to="#808080" begin="zoomplus.mouseover" end="zoomplus.mouseout"/></use>
    <path d="M-4,0h8M0,-4v8" fill="none" stroke="white" stroke-width="1.5" pointer-events="none"/>
  </g>
  <g id="zoomMin">
    <use xlink:href="#rim" fill="#404040"><set attributeName="fill" to="#808080" begin="zoomminus.mouseover" end="zoomminus.mouseout"/></use>
    <path d="M-4,0h8" fill="none" stroke="white" stroke-width="1.5" pointer-events="none"/>
  </g>
  <g id="arrowUp" transform="translate(30 24)">
    <use xlink:href="#rim"/>
    <path pointer-events="none" fill="none" stroke="white" stroke-width="1.5" d="M0,-3.0v7 M-2.5,-0.5L0,-3.0L2.5,-0.5"/>
  </g>
  <g id="arrowRight" transform="rotate(90) translate(36 -43)">
    <use xlink:href="#rim"/>
    <path pointer-events="none" fill="none" stroke="white" stroke-width="1.5" d="M0,-3.0v7 M-2.5,-0.5L0,-3.0L2.5,-0.5"/>
  </g>
  <g id="arrowDown" transform="rotate(180) translate(-30 -48)">
    <use xlink:href="#rim"/>
    <path pointer-events="none" fill="none" stroke="white" stroke-width="1.5" d="M0,-3.0v7 M-2.5,-0.5L0,-3.0L2.5,-0.5"/>
  </g>
  <g id="arrowLeft" transform="rotate(270) translate(-36 17)">
    <use xlink:href="#rim"/>
    <path pointer-events="none" fill="none" stroke="white" stroke-width="1.5" d="M0,-3.0v7 M-2.5,-0.5L0,-3.0L2.5,-0.5"/>
  </g>
  <g id="resetDef">
    <use xlink:href="#rim2" fill="#404040"><set attributeName="fill" to="#808080" begin="reset.mouseover" end="reset.mouseout"/></use>
  </g>
</defs>
<script type="application/ecmascript">
var viewWidth = 1751;
var viewHeight = 376;
var sectionId = 'dynsection-0';
</script>
<script type="application/ecmascript" xlink:href="../../svg.min.js"/>
<svg id="graph" class="graph">
<g id="viewport">
<title>mstd::function_traits&lt; R(Args...) const volatile &amp;&amp;, C &gt;</title>
<!-- Node1 -->
<g id="Node000001" class="node">
<title>Node1</title>
<g id="a_Node000001"><a xlink:title=" ">
<polygon fill="#999999" stroke="#666666" points="1422.75,-106.06 1294.25,-106.06 1294.25,-62.06 1422.75,-62.06 1422.75,-106.06"/>
<text xml:space="preserve" text-anchor="start" x="1302.25" y="-92.56" font-family="Helvetica,sans-Serif" font-size="10.00">mstd::function_traits</text>
<text xml:space="preserve" text-anchor="start" x="1302.25" y="-80.56" font-family="Helvetica,sans-Serif" font-size="10.00">&lt; R(Args...) const volatile</text>
<text xml:space="preserve" text-anchor="middle" x="1358.5" y="-68.56" font-family="Helvetica,sans-Serif" font-size="10.00"> &amp;&amp;, C &gt;</text>
</a>
</g>
</g>
<!-- Node12 -->
<g id="Node000012" class="node">
<title>Node12</title>
<g id="a_Node000012"><a xlink:href="../../df/d66/structmstd_1_1function__traits_3_01_r_07_args_8_8_8_08_01const_01volatile_01_6_6noexcept_00_01_c_01_4.html" target="_top" xlink:title=" ">
<polygon fill="white" stroke="#666666" points="1588.25,-156.06 1459.75,-156.06 1459.75,-112.06 1588.25,-112.06 1588.25,-156.06"/>
<text xml:space="preserve" text-anchor="start" x="1467.75" y="-142.56" font-family="Helvetica,sans-Serif" font-size="10.00">mstd::function_traits</text>
<text xml:space="preserve" text-anchor="start" x="1467.75" y="-130.56" font-family="Helvetica,sans-Serif" font-size="10.00">&lt; R(Args...) const volatile</text>
<text xml:space="preserve" text-anchor="middle" x="1524" y="-118.56" font-family="Helvetica,sans-Serif" font-size="10.00"> &amp;&amp;noexcept, C &gt;</text>
</a>
</g>
</g>
<!-- Node1&#45;&gt;Node12 -->
<g id="edge20_Node000001_Node000012" class="edge">
<title>Node1&#45;&gt;Node12</title>
<g id="a_edge20_Node000001_Node000012"><a xlink:title=" ">
<path fill="none" stroke="#63b8ff" d="M1433.92,-106.82C1442.46,-109.43 1451.11,-112.08 1459.49,-114.64"/>
<polygon fill="#63b8ff" stroke="#63b8ff" points="1435.22,-103.56 1424.63,-103.98 1433.17,-110.25 1435.22,-103.56"/>
</a>
</g>
</g>
<!-- Node14 -->
<g id="Node000014" class="node">
<title>Node14</title>
<g id="a_Node000014"><a xlink:href="../../d5/dd9/structmstd_1_1function__traits_3_01_r_07_c_1_1_5_08_07_args_8_8_8_08_01const_01volatile_01_6_6_01_4.html" target="_top" xlink:title=" ">
<polygon fill="white" stroke="#666666" points="1583,-94.06 1465,-94.06 1465,-50.06 1583,-50.06 1583,-94.06"/>
<text xml:space="preserve" text-anchor="start" x="1473" y="-80.56" font-family="Helvetica,sans-Serif" font-size="10.00">mstd::function_traits</text>
<text xml:space="preserve" text-anchor="start" x="1473" y="-68.56" font-family="Helvetica,sans-Serif" font-size="10.00">&lt; R(C::*)(Args...) const</text>
<text xml:space="preserve" text-anchor="middle" x="1524" y="-56.56" font-family="Helvetica,sans-Serif" font-size="10.00"> volatile &amp;&amp; &gt;</text>
</a>
</g>
</g>
<!-- Node1&#45;&gt;Node14 -->
<g id="edge22_Node000001_Node000014" class="edge">
<title>Node1&#45;&gt;Node14</title>
<g id="a_edge22_Node000001_Node000014"><a xlink:title=" ">
<path fill="none" stroke="#63b8ff" d="M1434.49,-78.56C1444.58,-77.82 1454.81,-77.07 1464.56,-76.35"/>
<polygon fill="#63b8ff" stroke="#63b8ff" points="1434.41,-75.05 1424.69,-79.28 1434.92,-82.04 1434.41,-75.05"/>
</a>
</g>
</g>
<!-- Node2 -->
<g id="Node000002" class="node">
<title>Node2</title>
<g id="a_Node000002"><a xlink:href="../../d0/d74/structmstd_1_1utils_1_1function__default__type__traits.html" target="_top" xlink:title=" ">
<polygon fill="white" stroke="#666666" points="317,-233.06 214.75,-233.06 214.75,-189.06 317,-189.06 317,-233.06"/>
<text xml:space="preserve" text-anchor="start" x="222.75" y="-219.56" font-family="Helvetica,sans-Serif" font-size="10.00">mstd::utils::function</text>
<text xml:space="preserve" text-anchor="start" x="222.75" y="-207.56" font-family="Helvetica,sans-Serif" font-size="10.00">_default_type_traits</text>
<text xml:space="preserve" text-anchor="middle" x="265.88" y="-195.56" font-family="Helvetica,sans-Serif" font-size="10.00">&lt; false &gt;</text>
</a>
</g>
</g>
<!-- Node2&#45;&gt;Node1 -->
<g id="edge1_Node000001_Node000002" class="edge">
<title>Node2&#45;&gt;Node1</title>
<g id="a_edge1_Node000001_Node000002"><a xlink:title=" ">
<path fill="none" stroke="#63b8ff" d="M275.25,-177.85C285.89,-142.37 307.69,-86.96 346.25,-55.06 413.95,0.93 448.27,-0.06 536.12,-0.06 536.12,-0.06 536.12,-0.06 1182.75,-0.06 1239.81,-0.06 1297.92,-36.89 1330.67,-61.77"/>
<polygon fill="#63b8ff" stroke="#63b8ff" points="271.97,-176.58 272.59,-187.15 278.7,-178.5 271.97,-176.58"/>
</a>
</g>
</g>
<!-- Node4 -->
<g id="Node000004" class="node">
<title>Node4</title>
<g id="a_Node000004"><a xlink:href="../../da/d58/structmstd_1_1function__traits_3_01_r_07_args_8_8_8_08_01const_01volatile_00_01_c_01_4.html" target="_top" xlink:title=" ">
<polygon fill="white" stroke="#666666" points="1257.25,-153.06 1106.25,-153.06 1106.25,-121.06 1257.25,-121.06 1257.25,-153.06"/>
<text xml:space="preserve" text-anchor="start" x="1114.25" y="-139.56" font-family="Helvetica,sans-Serif" font-size="10.00">mstd::function_traits</text>
<text xml:space="preserve" text-anchor="middle" x="1181.75" y="-127.56" font-family="Helvetica,sans-Serif" font-size="10.00">&lt; R(Args...) const volatile, C &gt;</text>
</a>
</g>
</g>
<!-- Node2&#45;&gt;Node4 -->
<g id="edge4_Node000004_Node000002" class="edge">
<title>Node2&#45;&gt;Node4</title>
<g id="a_edge4_Node000004_Node000002"><a xlink:title=" ">
<path fill="none" stroke="#63b8ff" d="M292.19,-180.34C336.18,-130.63 432.08,-38.06 536.12,-38.06 536.12,-38.06 536.12,-38.06 1011.62,-38.06 1076.27,-38.06 1138.12,-92.6 1165.71,-120.71"/>
<polygon fill="#63b8ff" stroke="#63b8ff" points="289.74,-177.81 285.82,-187.66 295.03,-182.41 289.74,-177.81"/>
</a>
</g>
</g>
<!-- Node5 -->
<g id="Node000005" class="node">
<title>Node5</title>
<g id="a_Node000005"><a xlink:href="../../df/d15/structmstd_1_1function__traits_3_01_r_07_args_8_8_8_08_01const_00_01_c_01_4.html" target="_top" xlink:title=" ">
<polygon fill="white" stroke="#666666" points="1069.25,-231.06 952,-231.06 952,-199.06 1069.25,-199.06 1069.25,-231.06"/>
<text xml:space="preserve" text-anchor="start" x="960" y="-217.56" font-family="Helvetica,sans-Serif" font-size="10.00">mstd::function_traits</text>
<text xml:space="preserve" text-anchor="middle" x="1010.62" y="-205.56" font-family="Helvetica,sans-Serif" font-size="10.00">&lt; R(Args...) const, C &gt;</text>
</a>
</g>
</g>
<!-- Node2&#45;&gt;Node5 -->
<g id="edge6_Node000005_Node000002" class="edge">
<title>Node2&#45;&gt;Node5</title>
<g id="a_edge6_Node000005_Node000002"><a xlink:title=" ">
<path fill="none" stroke="#63b8ff" d="M328.76,-211.4C469.91,-212.16 814.05,-214.01 951.51,-214.75"/>
<polygon fill="#63b8ff" stroke="#63b8ff" points="328.88,-207.9 318.86,-211.34 328.84,-214.9 328.88,-207.9"/>
</a>
</g>
</g>
<!-- Node6 -->
<g id="Node000006" class="node">
<title>Node6</title>
<g id="a_Node000006"><a xlink:href="../../dd/db6/structmstd_1_1function__traits_3_01_r_07_args_8_8_8_08_00_01_c_01_4.html" target="_top" xlink:title=" ">
<polygon fill="white" stroke="#666666" points="830.25,-286.06 725,-286.06 725,-254.06 830.25,-254.06 830.25,-286.06"/>
<text xml:space="preserve" text-anchor="start" x="733" y="-272.56" font-family="Helvetica,sans-Serif" font-size="10.00">mstd::function_traits</text>
<text xml:space="preserve" text-anchor="middle" x="777.62" y="-260.56" font-family="Helvetica,sans-Serif" font-size="10.00">&lt; R(Args...), C &gt;</text>
</a>
</g>
</g>
<!-- Node2&#45;&gt;Node6 -->
<g id="edge8_Node000006_Node000002" class="edge">
<title>Node2&#45;&gt;Node6</title>
<g id="a_edge8_Node000006_Node000002"><a xlink:title=" ">
<path fill="none" stroke="#63b8ff" d="M328.2,-229.26C334.27,-230.7 340.36,-232 346.25,-233.06 481.32,-257.37 643.2,-265.83 724.55,-268.68"/>
<polygon fill="#63b8ff" stroke="#63b8ff" points="329.38,-225.95 318.83,-226.92 327.69,-232.74 329.38,-225.95"/>
</a>
</g>
</g>
<!-- Node11 -->
<g id="Node000011" class="node">
<title>Node11</title>
<g id="a_Node000011"><a xlink:href="../../d7/dcb/structmstd_1_1function__traits.html" target="_top" xlink:title=" ">
<polygon fill="white" stroke="#666666" points="589.75,-176.06 484.5,-176.06 484.5,-144.06 589.75,-144.06 589.75,-176.06"/>
<text xml:space="preserve" text-anchor="start" x="492.5" y="-162.56" font-family="Helvetica,sans-Serif" font-size="10.00">mstd::function_traits</text>
<text xml:space="preserve" text-anchor="middle" x="537.12" y="-150.56" font-family="Helvetica,sans-Serif" font-size="10.00">&lt; F, C &gt;</text>
</a>
</g>
</g>
<!-- Node2&#45;&gt;Node11 -->
<g id="edge16_Node000011_Node000002" class="edge">
<title>Node2&#45;&gt;Node11</title>
<g id="a_edge16_Node000011_Node000002"><a xlink:title=" ">
<path fill="none" stroke="#63b8ff" d="M328.48,-199.39C375.56,-190.48 439.72,-178.32 484.21,-169.9"/>
<polygon fill="#63b8ff" stroke="#63b8ff" points="327.86,-195.95 318.69,-201.25 329.17,-202.83 327.86,-195.95"/>
</a>
</g>
</g>
<!-- Node3 -->
<g id="Node000003" class="node">
<title>Node3</title>
<g id="a_Node000003"><a xlink:href="../../d0/d74/structmstd_1_1utils_1_1function__default__type__traits.html" target="_top" xlink:title=" ">
<polygon fill="white" stroke="#666666" points="103,-287.06 0.75,-287.06 0.75,-243.06 103,-243.06 103,-287.06"/>
<text xml:space="preserve" text-anchor="start" x="8.75" y="-273.56" font-family="Helvetica,sans-Serif" font-size="10.00">mstd::utils::function</text>
<text xml:space="preserve" text-anchor="start" x="8.75" y="-261.56" font-family="Helvetica,sans-Serif" font-size="10.00">_default_type_traits</text>
<text xml:space="preserve" text-anchor="middle" x="51.88" y="-249.56" font-family="Helvetica,sans-Serif" font-size="10.00">&lt; IsMember &gt;</text>
</a>
</g>
</g>
<!-- Node3&#45;&gt;Node2 -->
<g id="edge2_Node000002_Node000003" class="edge">
<title>Node3&#45;&gt;Node2</title>
<g id="a_edge2_Node000002_Node000003"><a xlink:title=" ">
<path fill="none" stroke="orange" stroke-dasharray="5,2" d="M99.94,-237.69C107.07,-234.36 114.48,-231.34 121.75,-229.06 151.63,-219.71 186.45,-215.2 214.27,-213.03"/>
<polygon fill="orange" stroke="orange" points="98.5,-234.49 91.08,-242.06 101.6,-240.77 98.5,-234.49"/>
</a>
</g>
<text xml:space="preserve" text-anchor="start" x="134.12" y="-234.56" font-family="Helvetica,sans-Serif" font-size="10.00" fill="grey">&lt; false &gt;</text>
</g>
<!-- Node10 -->
<g id="Node000010" class="node">
<title>Node10</title>
<g id="a_Node000010"><a xlink:href="../../d0/d74/structmstd_1_1utils_1_1function__default__type__traits.html" target="_top" xlink:title=" ">
<polygon fill="white" stroke="#666666" points="448.5,-316.06 346.25,-316.06 346.25,-272.06 448.5,-272.06 448.5,-316.06"/>
<text xml:space="preserve" text-anchor="start" x="354.25" y="-302.56" font-family="Helvetica,sans-Serif" font-size="10.00">mstd::utils::function</text>
<text xml:space="preserve" text-anchor="start" x="354.25" y="-290.56" font-family="Helvetica,sans-Serif" font-size="10.00">_default_type_traits</text>
<text xml:space="preserve" text-anchor="middle" x="397.38" y="-278.56" font-family="Helvetica,sans-Serif" font-size="10.00">&lt; true &gt;</text>
</a>
</g>
</g>
<!-- Node3&#45;&gt;Node10 -->
<g id="edge14_Node000010_Node000003" class="edge">
<title>Node3&#45;&gt;Node10</title>
<g id="a_edge14_Node000010_Node000003"><a xlink:title=" ">
<path fill="none" stroke="orange" stroke-dasharray="5,2" d="M114.27,-270.25C180.4,-275.83 284.38,-284.61 345.92,-289.8"/>
<polygon fill="orange" stroke="orange" points="114.96,-266.79 104.7,-269.44 114.37,-273.77 114.96,-266.79"/>
</a>
</g>
<text xml:space="preserve" text-anchor="start" x="136.38" y="-281.37" font-family="Helvetica,sans-Serif" font-size="10.00" fill="grey">&lt; true &gt;</text>
</g>
<!-- Node4&#45;&gt;Node1 -->
<g id="edge3_Node000001_Node000004" class="edge">
<title>Node4&#45;&gt;Node1</title>
<g id="a_edge3_Node000001_Node000004"><a xlink:title=" ">
<path fill="none" stroke="#63b8ff" d="M1247.88,-117.31C1262.96,-112.73 1279,-107.87 1294.02,-103.32"/>
<polygon fill="#63b8ff" stroke="#63b8ff" points="1247.09,-113.89 1238.53,-120.14 1249.12,-120.59 1247.09,-113.89"/>
</a>
</g>
</g>
<!-- Node5&#45;&gt;Node4 -->
<g id="edge5_Node000004_Node000005" class="edge">
<title>Node5&#45;&gt;Node4</title>
<g id="a_edge5_Node000004_Node000005"><a xlink:title=" ">
<path fill="none" stroke="#63b8ff" d="M1057.27,-194.01C1084.85,-181.29 1119.48,-165.32 1145.05,-153.53"/>
<polygon fill="#63b8ff" stroke="#63b8ff" points="1056.07,-190.71 1048.45,-198.08 1059,-197.07 1056.07,-190.71"/>
</a>
</g>
</g>
<!-- Node6&#45;&gt;Node5 -->
<g id="edge7_Node000005_Node000006" class="edge">
<title>Node6&#45;&gt;Node5</title>
<g id="a_edge7_Node000005_Node000006"><a xlink:title=" ">
<path fill="none" stroke="#63b8ff" d="M841.45,-259.83C869.9,-254.71 903.84,-247.92 934,-240.06 943.5,-237.59 953.55,-234.56 963.11,-231.48"/>
<polygon fill="#63b8ff" stroke="#63b8ff" points="841.16,-256.32 831.93,-261.51 842.38,-263.22 841.16,-256.32"/>
</a>
</g>
</g>
<!-- Node7 -->
<g id="Node000007" class="node">
<title>Node7</title>
<g id="a_Node000007"><a xlink:href="../../d1/d4f/structmstd_1_1utils_1_1function__core__traits_3_01_r_07_args_8_8_8_08_00_01_c_01_4.html" target="_top" xlink:title=" ">
<polygon fill="white" stroke="#666666" points="607.75,-355.06 466.5,-355.06 466.5,-323.06 607.75,-323.06 607.75,-355.06"/>
<text xml:space="preserve" text-anchor="start" x="474.5" y="-341.56" font-family="Helvetica,sans-Serif" font-size="10.00">mstd::utils::function</text>
<text xml:space="preserve" text-anchor="middle" x="537.12" y="-329.56" font-family="Helvetica,sans-Serif" font-size="10.00">_core_traits&lt; R(Args...), C &gt;</text>
</a>
</g>
</g>
<!-- Node7&#45;&gt;Node6 -->
<g id="edge9_Node000006_Node000007" class="edge">
<title>Node7&#45;&gt;Node6</title>
<g id="a_edge9_Node000006_Node000007"><a xlink:title=" ">
<path fill="none" stroke="#63b8ff" d="M619.41,-330.02C647.37,-325.49 678.53,-318.8 706,-309.06 721.97,-303.4 738.63,-294.38 751.75,-286.44"/>
<polygon fill="#63b8ff" stroke="#63b8ff" points="618.9,-326.56 609.55,-331.55 619.97,-333.48 618.9,-326.56"/>
</a>
</g>
</g>
<!-- Node8 -->
<g id="Node000008" class="node">
<title>Node8</title>
<g id="a_Node000008"><a xlink:href="../../df/db9/structmstd_1_1utils_1_1function__core__traits.html" target="_top" xlink:title=" ">
<polygon fill="white" stroke="#666666" points="328.25,-332.06 203.5,-332.06 203.5,-300.06 328.25,-300.06 328.25,-332.06"/>
<text xml:space="preserve" text-anchor="start" x="211.5" y="-318.56" font-family="Helvetica,sans-Serif" font-size="10.00">mstd::utils::function</text>
<text xml:space="preserve" text-anchor="middle" x="265.88" y="-306.56" font-family="Helvetica,sans-Serif" font-size="10.00">_core_traits&lt; R(Args...)&gt;</text>
</a>
</g>
</g>
<!-- Node8&#45;&gt;Node7 -->
<g id="edge10_Node000007_Node000008" class="edge">
<title>Node8&#45;&gt;Node7</title>
<g id="a_edge10_Node000007_Node000008"><a xlink:title=" ">
<path fill="none" stroke="#63b8ff" d="M339.99,-322.31C379.22,-325.66 427.34,-329.77 466.1,-333.08"/>
<polygon fill="#63b8ff" stroke="#63b8ff" points="340.42,-318.83 330.15,-321.47 339.82,-325.81 340.42,-318.83"/>
</a>
</g>
</g>
<!-- Node9 -->
<g id="Node000009" class="node">
<title>Node9</title>
<g id="a_Node000009"><a xlink:href="../../df/db9/structmstd_1_1utils_1_1function__core__traits.html" target="_top" xlink:title=" ">
<polygon fill="white" stroke="#666666" points="103.75,-351.06 0,-351.06 0,-319.06 103.75,-319.06 103.75,-351.06"/>
<text xml:space="preserve" text-anchor="start" x="8" y="-337.56" font-family="Helvetica,sans-Serif" font-size="10.00">mstd::utils::function</text>
<text xml:space="preserve" text-anchor="middle" x="51.88" y="-325.56" font-family="Helvetica,sans-Serif" font-size="10.00">_core_traits&lt; F, C &gt;</text>
</a>
</g>
</g>
<!-- Node9&#45;&gt;Node7 -->
<g id="edge12_Node000007_Node000009" class="edge">
<title>Node9&#45;&gt;Node7</title>
<g id="a_edge12_Node000007_Node000009"><a xlink:title=" ">
<path fill="none" stroke="orange" stroke-dasharray="5,2" d="M115.51,-349.3C117.61,-349.58 119.69,-349.84 121.75,-350.06 149.92,-353.09 157.17,-350.51 185.5,-350.06 282.93,-348.53 395.54,-344.62 466.29,-341.9"/>
<polygon fill="orange" stroke="orange" points="116.12,-345.85 105.7,-347.74 115.03,-352.76 116.12,-345.85"/>
</a>
</g>
<text xml:space="preserve" text-anchor="start" x="228.75" y="-355.2" font-family="Helvetica,sans-Serif" font-size="10.00" fill="grey">&lt; R(Args...), C &gt;</text>
</g>
<!-- Node9&#45;&gt;Node8 -->
<g id="edge11_Node000008_Node000009" class="edge">
<title>Node9&#45;&gt;Node8</title>
<g id="a_edge11_Node000008_Node000009"><a xlink:title=" ">
<path fill="none" stroke="orange" stroke-dasharray="5,2" d="M115.34,-329.46C143.01,-326.98 175.48,-324.07 203.08,-321.6"/>
<polygon fill="orange" stroke="orange" points="115.35,-325.95 105.7,-330.33 115.97,-332.92 115.35,-325.95"/>
</a>
</g>
<text xml:space="preserve" text-anchor="start" x="124.75" y="-333.87" font-family="Helvetica,sans-Serif" font-size="10.00" fill="grey">&lt; R(Args...)&gt;</text>
</g>
<!-- Node10&#45;&gt;Node6 -->
<g id="edge13_Node000006_Node000010" class="edge">
<title>Node10&#45;&gt;Node6</title>
<g id="a_edge13_Node000006_Node000010"><a xlink:title=" ">
<path fill="none" stroke="#63b8ff" d="M460.4,-290.13C534.14,-285.45 655.85,-277.73 724.79,-273.35"/>
<polygon fill="#63b8ff" stroke="#63b8ff" points="460.26,-286.63 450.51,-290.75 460.71,-293.61 460.26,-286.63"/>
</a>
</g>
</g>
<!-- Node11&#45;&gt;Node1 -->
<g id="edge19_Node000001_Node000011" class="edge">
<title>Node11&#45;&gt;Node1</title>
<g id="a_edge19_Node000001_Node000011"><a xlink:title=" ">
<path fill="none" stroke="orange" stroke-dasharray="5,2" d="M579.03,-138.51C625.56,-116.04 704.46,-84.06 776.62,-84.06 776.62,-84.06 776.62,-84.06 1182.75,-84.06 1219.61,-84.06 1260.85,-84.06 1294,-84.06"/>
<polygon fill="orange" stroke="orange" points="577.54,-135.34 570.12,-142.9 580.64,-141.62 577.54,-135.34"/>
</a>
</g>
<text xml:space="preserve" text-anchor="start" x="971.25" y="-105.56" font-family="Helvetica,sans-Serif" font-size="10.00" fill="grey">&lt; R(Args...) const</text>
<text xml:space="preserve" text-anchor="start" x="971.25" y="-89.56" font-family="Helvetica,sans-Serif" font-size="10.00" fill="grey">   volatile &amp;&amp;, C &gt;</text>
</g>
<!-- Node11&#45;&gt;Node4 -->
<g id="edge18_Node000004_Node000011" class="edge">
<title>Node11&#45;&gt;Node4</title>
<g id="a_edge18_Node000004_Node000011"><a xlink:title=" ">
<path fill="none" stroke="orange" stroke-dasharray="5,2" d="M601.63,-157.79C720.99,-153.52 978.28,-144.31 1105.87,-139.74"/>
<polygon fill="orange" stroke="orange" points="601.55,-154.29 591.68,-158.15 601.8,-161.29 601.55,-154.29"/>
</a>
</g>
<text xml:space="preserve" text-anchor="start" x="852.25" y="-170.39" font-family="Helvetica,sans-Serif" font-size="10.00" fill="grey">&lt; R(Args...) const</text>
<text xml:space="preserve" text-anchor="start" x="852.25" y="-154.39" font-family="Helvetica,sans-Serif" font-size="10.00" fill="grey">   volatile, C &gt;</text>
</g>
<!-- Node11&#45;&gt;Node5 -->
<g id="edge17_Node000005_Node000011" class="edge">
<title>Node11&#45;&gt;Node5</title>
<g id="a_edge17_Node000005_Node000011"><a xlink:title=" ">
<path fill="none" stroke="orange" stroke-dasharray="5,2" d="M601.46,-167.38C660.83,-174.24 752.06,-184.81 831.25,-194.06 871.51,-198.77 916.88,-204.11 951.79,-208.23"/>
<polygon fill="orange" stroke="orange" points="601.86,-163.9 591.52,-166.23 601.05,-170.85 601.86,-163.9"/>
</a>
</g>
<text xml:space="preserve" text-anchor="start" x="727" y="-199.56" font-family="Helvetica,sans-Serif" font-size="10.00" fill="grey">&lt; R(Args...) const, C &gt;</text>
</g>
<!-- Node11&#45;&gt;Node6 -->
<g id="edge15_Node000006_Node000011" class="edge">
<title>Node11&#45;&gt;Node6</title>
<g id="a_edge15_Node000006_Node000011"><a xlink:title=" ">
<path fill="none" stroke="orange" stroke-dasharray="5,2" d="M598.78,-180.26C631.26,-191.89 671.55,-207.63 706,-225.06 722.48,-233.4 739.99,-244.54 753.45,-253.65"/>
<polygon fill="orange" stroke="orange" points="600.11,-177.02 589.51,-176.99 597.77,-183.62 600.11,-177.02"/>
</a>
</g>
<text xml:space="preserve" text-anchor="start" x="628.75" y="-230.56" font-family="Helvetica,sans-Serif" font-size="10.00" fill="grey">&lt; R(Args...), C &gt;</text>
</g>
<!-- Node13 -->
<g id="Node000013" class="node">
<title>Node13</title>
<g id="a_Node000013"><a xlink:href="../../d9/d7d/structmstd_1_1function__traits_3_01_r_07_c_1_1_5_08_07_args_8_8_8_08_01const_01volatile_01_6_6noexcept_01_4.html" target="_top" xlink:title=" ">
<polygon fill="white" stroke="#666666" points="1743.25,-156.06 1625.25,-156.06 1625.25,-112.06 1743.25,-112.06 1743.25,-156.06"/>
<text xml:space="preserve" text-anchor="start" x="1633.25" y="-142.56" font-family="Helvetica,sans-Serif" font-size="10.00">mstd::function_traits</text>
<text xml:space="preserve" text-anchor="start" x="1633.25" y="-130.56" font-family="Helvetica,sans-Serif" font-size="10.00">&lt; R(C::*)(Args...) const</text>
<text xml:space="preserve" text-anchor="middle" x="1684.25" y="-118.56" font-family="Helvetica,sans-Serif" font-size="10.00"> volatile &amp;&amp;noexcept &gt;</text>
</a>
</g>
</g>
<!-- Node12&#45;&gt;Node13 -->
<g id="edge21_Node000012_Node000013" class="edge">
<title>Node12&#45;&gt;Node13</title>
<g id="a_edge21_Node000012_Node000013"><a xlink:title=" ">
<path fill="none" stroke="#63b8ff" d="M1599.85,-134.06C1608.27,-134.06 1616.75,-134.06 1624.91,-134.06"/>
<polygon fill="#63b8ff" stroke="#63b8ff" points="1599.97,-130.56 1589.97,-134.06 1599.97,-137.56 1599.97,-130.56"/>
</a>
</g>
</g>
</g>
</svg>

<g id="navigator" transform="translate(0 0)" fill="#404254">
  <rect fill="#f2f5e9" fill-opacity="0.5" stroke="#606060" stroke-width=".5" x="0" y="0" width="60" height="60"/>
  <use id="zoomplus" xlink:href="#zoomPlus" x="17" y="9" onmousedown="handleZoom(evt,'in')"/>
  <use id="zoomminus" xlink:href="#zoomMin" x="42" y="9" onmousedown="handleZoom(evt,'out')"/>
  <use id="reset" xlink:href="#resetDef" x="30" y="36" onmousedown="handleReset()"/>
   <use id="arrowup" xlink:href="#arrowUp" x="0" y="0" onmousedown="handlePan(0,-1)"/>
  <use id="arrowright" xlink:href="#arrowRight" x="0" y="0" onmousedown="handlePan(1,0)"/>
  <use id="arrowdown" xlink:href="#arrowDown" x="0" y="0" onmousedown="handlePan(0,1)"/>
  <use id="arrowleft" xlink:href="#arrowLeft" x="0" y="0" onmousedown="handlePan(-1,0)"/>
</g>
<svg viewBox="0 0 15 15" width="100%" height="30px" preserveAspectRatio="xMaxYMin meet">
 <g id="arrow_out" transform="scale(0.3 0.3)">
  <a xlink:href="structmstd_1_1function__traits_3_01_r_07_args_8_8_8_08_01const_01volatile_01_6_6_00_01_c_01_4__inherit__graph_org.svg" target="_base">
   <rect id="button" ry="5" rx="5" y="6" x="6" height="38" width="38"
        fill="#f2f5e9" fill-opacity="0.5" stroke="#606060" stroke-width="1.0"/>
   <path id="arrow"
     d="M 11.500037,31.436501 C 11.940474,20.09759 22.043105,11.32322 32.158766,21.979434 L 37.068811,17.246167 C 37.068811,17.246167 37.088388,32 37.088388,32 L 22.160133,31.978069 C 22.160133,31.978069 26.997745,27.140456 26.997745,27.140456 C 18.528582,18.264221 13.291696,25.230495 11.500037,31.436501 z"
     style="fill:#404040;"/>
  </a>
 </g>
</svg>

<style type='text/css'>
<![CDATA[
[data-mouse-over-selected='false'] { opacity: 0.7; }
[data-mouse-over-selected='true']  { opacity: 1.0; }
]]>
</style>
<script type="application/ecmascript"><![CDATA[
document.addEventListener('DOMContentLoaded', (event) => {
  highlightEdges();
  highlightAdjacentNodes();
});
]]></script>
</svg>
