<?xml version="1.0" encoding="UTF-8" standalone="no"?>
<!DOCTYPE svg PUBLIC "-//W3C//DTD SVG 1.1//EN"
 "http://www.w3.org/Graphics/SVG/1.1/DTD/svg11.dtd">
<!-- Generated by graphviz version 14.1.1 (20251213.1925)
 -->
<!-- Title: mstd::function_traits&lt; R(&amp;&amp;)(Args...)&gt; Pages: 1 -->
<svg width="1139pt" height="323pt"
 viewBox="0.00 0.00 1139.00 323.00" xmlns="http://www.w3.org/2000/svg" xmlns:xlink="http://www.w3.org/1999/xlink">
<g id="graph0" class="graph" transform="scale(1 1) rotate(0) translate(4 318.56)">
<title>mstd::function_traits&lt; R(&amp;&amp;)(Args...)&gt;</title>
<!-- Node1 -->
<g id="Node000001" class="node">
<title>Node1</title>
<g id="a_Node000001"><a xlink:title=" ">
<polygon fill="#999999" stroke="#666666" points="1130.5,-202.56 1025.25,-202.56 1025.25,-170.56 1130.5,-170.56 1130.5,-202.56"/>
<text xml:space="preserve" text-anchor="start" x="1033.25" y="-189.06" font-family="Helvetica,sans-Serif" font-size="10.00">mstd::function_traits</text>
<text xml:space="preserve" text-anchor="middle" x="1077.88" y="-177.06" font-family="Helvetica,sans-Serif" font-size="10.00">&lt; R(&amp;&amp;)(Args...)&gt;</text>
</a>
</g>
</g>
<!-- Node2 -->
<g id="Node000002" class="node">
<title>Node2</title>
<g id="a_Node000002"><a xlink:href="../../d0/d74/structmstd_1_1utils_1_1function__default__type__traits.html" target="_top" xlink:title=" ">
<polygon fill="white" stroke="#666666" points="558,-174.56 455.75,-174.56 455.75,-130.56 558,-130.56 558,-174.56"/>
<text xml:space="preserve" text-anchor="start" x="463.75" y="-161.06" font-family="Helvetica,sans-Serif" font-size="10.00">mstd::utils::function</text>
<text xml:space="preserve" text-anchor="start" x="463.75" y="-149.06" font-family="Helvetica,sans-Serif" font-size="10.00">_default_type_traits</text>
<text xml:space="preserve" text-anchor="middle" x="506.88" y="-137.06" font-family="Helvetica,sans-Serif" font-size="10.00">&lt; false &gt;</text>
</a>
</g>
</g>
<!-- Node2&#45;&gt;Node1 -->
<g id="edge1_Node000001_Node000002" class="edge">
<title>Node2&#45;&gt;Node1</title>
<g id="a_edge1_Node000001_Node000002"><a xlink:title=" ">
<path fill="none" stroke="#63b8ff" d="M569.26,-174.06C571.77,-174.62 574.28,-175.13 576.75,-175.56 738.25,-203.64 933.48,-196.29 1024.9,-190.49"/>
<polygon fill="#63b8ff" stroke="#63b8ff" points="570.23,-170.7 559.68,-171.65 568.52,-177.49 570.23,-170.7"/>
</a>
</g>
</g>
<!-- Node5 -->
<g id="Node000005" class="node">
<title>Node5</title>
<g id="a_Node000005"><a xlink:href="../../d0/dfd/structmstd_1_1function__traits_3_01_r_07_args_8_8_8_08_4.html" target="_top" xlink:title=" ">
<polygon fill="white" stroke="#666666" points="988.25,-168.56 883,-168.56 883,-136.56 988.25,-136.56 988.25,-168.56"/>
<text xml:space="preserve" text-anchor="start" x="891" y="-155.06" font-family="Helvetica,sans-Serif" font-size="10.00">mstd::function_traits</text>
<text xml:space="preserve" text-anchor="middle" x="935.62" y="-143.06" font-family="Helvetica,sans-Serif" font-size="10.00">&lt; R(Args...)&gt;</text>
</a>
</g>
</g>
<!-- Node2&#45;&gt;Node5 -->
<g id="edge6_Node000005_Node000002" class="edge">
<title>Node2&#45;&gt;Node5</title>
<g id="a_edge6_Node000005_Node000002"><a xlink:title=" ">
<path fill="none" stroke="#63b8ff" d="M569.53,-147.64C653.85,-145.09 803.66,-145.2 882.61,-147.95"/>
<polygon fill="#63b8ff" stroke="#63b8ff" points="569.48,-144.14 559.6,-147.97 569.71,-151.14 569.48,-144.14"/>
</a>
</g>
</g>
<!-- Node2&#45;&gt;Node5 -->
<g id="edge9_Node000005_Node000002" class="edge">
<title>Node2&#45;&gt;Node5</title>
<g id="a_edge9_Node000005_Node000002"><a xlink:title=" ">
<path fill="none" stroke="#63b8ff" d="M569.53,-157.47C653.85,-160.02 803.66,-159.91 882.61,-157.16"/>
<polygon fill="#63b8ff" stroke="#63b8ff" points="569.71,-153.98 559.6,-157.15 569.48,-160.97 569.71,-153.98"/>
</a>
</g>
</g>
<!-- Node8 -->
<g id="Node000008" class="node">
<title>Node8</title>
<g id="a_Node000008"><a xlink:href="../../d7/dcb/structmstd_1_1function__traits.html" target="_top" xlink:title=" ">
<polygon fill="white" stroke="#666666" points="773.5,-65.56 668.25,-65.56 668.25,-33.56 773.5,-33.56 773.5,-65.56"/>
<text xml:space="preserve" text-anchor="start" x="676.25" y="-52.06" font-family="Helvetica,sans-Serif" font-size="10.00">mstd::function_traits</text>
<text xml:space="preserve" text-anchor="middle" x="720.88" y="-40.06" font-family="Helvetica,sans-Serif" font-size="10.00">&lt; F, C &gt;</text>
</a>
</g>
</g>
<!-- Node2&#45;&gt;Node8 -->
<g id="edge11_Node000008_Node000002" class="edge">
<title>Node2&#45;&gt;Node8</title>
<g id="a_edge11_Node000008_Node000002"><a xlink:title=" ">
<path fill="none" stroke="#63b8ff" d="M569.42,-134.66C598.35,-125.38 628.98,-114.04 640.5,-104.56 652.5,-94.67 646.69,-84.68 658.5,-74.56 662.26,-71.34 666.48,-68.49 670.91,-65.99"/>
<polygon fill="#63b8ff" stroke="#63b8ff" points="568.4,-131.31 559.91,-137.65 570.5,-137.99 568.4,-131.31"/>
</a>
</g>
</g>
<!-- Node3 -->
<g id="Node000003" class="node">
<title>Node3</title>
<g id="a_Node000003"><a xlink:title=" ">
<polygon fill="white" stroke="#666666" points="155.5,-81.56 0,-81.56 0,-49.56 155.5,-49.56 155.5,-81.56"/>
<text xml:space="preserve" text-anchor="start" x="8" y="-68.06" font-family="Helvetica,sans-Serif" font-size="10.00">static _MSTD_CONSTEXPR17</text>
<text xml:space="preserve" text-anchor="middle" x="77.75" y="-56.06" font-family="Helvetica,sans-Serif" font-size="10.00"> const bool</text>
</a>
</g>
</g>
<!-- Node3&#45;&gt;Node1 -->
<g id="edge13_Node000001_Node000003" class="edge">
<title>Node3&#45;&gt;Node1</title>
<g id="a_edge13_Node000001_Node000003"><a xlink:title=" ">
<path fill="none" stroke="#9a32cd" stroke-dasharray="5,2" d="M81.89,-92.97C88.9,-140.39 110.55,-236.99 173.5,-282.56 227.15,-321.4 255.64,-296.56 321.88,-296.56 321.88,-296.56 321.88,-296.56 936.62,-296.56 996.66,-296.56 1046.25,-233.39 1066.74,-202.79"/>
<polygon fill="#9a32cd" stroke="#9a32cd" points="85.38,-92.71 80.57,-83.27 78.45,-93.65 85.38,-92.71"/>
</a>
</g>
<text xml:space="preserve" text-anchor="start" x="587.62" y="-302.06" font-family="Helvetica,sans-Serif" font-size="10.00" fill="grey">is_moved</text>
</g>
<!-- Node3&#45;&gt;Node2 -->
<g id="edge2_Node000002_Node000003" class="edge">
<title>Node3&#45;&gt;Node2</title>
<g id="a_edge2_Node000002_Node000003"><a xlink:title=" ">
<path fill="none" stroke="#9a32cd" stroke-dasharray="5,2" d="M134.63,-45.75C195.56,-27.41 294.93,-7.18 374,-37.56 419.24,-54.93 418.3,-78.9 455,-110.56 462.46,-116.99 470.65,-123.84 478.23,-130.1"/>
<polygon fill="#9a32cd" stroke="#9a32cd" points="133.67,-42.38 125.16,-48.69 135.75,-49.06 133.67,-42.38"/>
</a>
</g>
<text xml:space="preserve" text-anchor="start" x="285.75" y="-203.06" font-family="Helvetica,sans-Serif" font-size="10.00" fill="grey">is_const</text>
<text xml:space="preserve" text-anchor="start" x="285.75" y="-187.06" font-family="Helvetica,sans-Serif" font-size="10.00" fill="grey">is_free</text>
<text xml:space="preserve" text-anchor="start" x="285.75" y="-171.06" font-family="Helvetica,sans-Serif" font-size="10.00" fill="grey">is_functor</text>
<text xml:space="preserve" text-anchor="start" x="285.75" y="-155.06" font-family="Helvetica,sans-Serif" font-size="10.00" fill="grey">is_member</text>
<text xml:space="preserve" text-anchor="start" x="285.75" y="-139.06" font-family="Helvetica,sans-Serif" font-size="10.00" fill="grey">is_moved</text>
<text xml:space="preserve" text-anchor="start" x="285.75" y="-123.06" font-family="Helvetica,sans-Serif" font-size="10.00" fill="grey">is_noexcept</text>
<text xml:space="preserve" text-anchor="start" x="285.75" y="-107.06" font-family="Helvetica,sans-Serif" font-size="10.00" fill="grey">is_parent_moved</text>
<text xml:space="preserve" text-anchor="start" x="285.75" y="-91.06" font-family="Helvetica,sans-Serif" font-size="10.00" fill="grey">is_parent_ref</text>
<text xml:space="preserve" text-anchor="start" x="285.75" y="-75.06" font-family="Helvetica,sans-Serif" font-size="10.00" fill="grey">is_ptr</text>
<text xml:space="preserve" text-anchor="start" x="285.75" y="-59.06" font-family="Helvetica,sans-Serif" font-size="10.00" fill="grey">is_ref</text>
<text xml:space="preserve" text-anchor="start" x="285.75" y="-43.06" font-family="Helvetica,sans-Serif" font-size="10.00" fill="grey"> &#160;...</text>
</g>
<!-- Node4 -->
<g id="Node000004" class="node">
<title>Node4</title>
<g id="a_Node000004"><a xlink:href="../../d0/d74/structmstd_1_1utils_1_1function__default__type__traits.html" target="_top" xlink:title=" ">
<polygon fill="white" stroke="#666666" points="374,-268.56 271.75,-268.56 271.75,-224.56 374,-224.56 374,-268.56"/>
<text xml:space="preserve" text-anchor="start" x="279.75" y="-255.06" font-family="Helvetica,sans-Serif" font-size="10.00">mstd::utils::function</text>
<text xml:space="preserve" text-anchor="start" x="279.75" y="-243.06" font-family="Helvetica,sans-Serif" font-size="10.00">_default_type_traits</text>
<text xml:space="preserve" text-anchor="middle" x="322.88" y="-231.06" font-family="Helvetica,sans-Serif" font-size="10.00">&lt; IsMember &gt;</text>
</a>
</g>
</g>
<!-- Node3&#45;&gt;Node4 -->
<g id="edge4_Node000004_Node000003" class="edge">
<title>Node3&#45;&gt;Node4</title>
<g id="a_edge4_Node000004_Node000003"><a xlink:title=" ">
<path fill="none" stroke="#9a32cd" stroke-dasharray="5,2" d="M166.79,-65.63C198.25,-70.21 231.41,-81.04 253.75,-104.56 286.67,-139.2 246.44,-170.02 271.75,-210.56 274.93,-215.65 279.11,-220.23 283.71,-224.29"/>
<polygon fill="#9a32cd" stroke="#9a32cd" points="167.62,-62.2 157.26,-64.45 166.75,-69.15 167.62,-62.2"/>
</a>
</g>
<text xml:space="preserve" text-anchor="start" x="176.5" y="-270.06" font-family="Helvetica,sans-Serif" font-size="10.00" fill="grey">is_const</text>
<text xml:space="preserve" text-anchor="start" x="176.5" y="-254.06" font-family="Helvetica,sans-Serif" font-size="10.00" fill="grey">is_free</text>
<text xml:space="preserve" text-anchor="start" x="176.5" y="-238.06" font-family="Helvetica,sans-Serif" font-size="10.00" fill="grey">is_functor</text>
<text xml:space="preserve" text-anchor="start" x="176.5" y="-222.06" font-family="Helvetica,sans-Serif" font-size="10.00" fill="grey">is_member</text>
<text xml:space="preserve" text-anchor="start" x="176.5" y="-206.06" font-family="Helvetica,sans-Serif" font-size="10.00" fill="grey">is_moved</text>
<text xml:space="preserve" text-anchor="start" x="176.5" y="-190.06" font-family="Helvetica,sans-Serif" font-size="10.00" fill="grey">is_noexcept</text>
<text xml:space="preserve" text-anchor="start" x="176.5" y="-174.06" font-family="Helvetica,sans-Serif" font-size="10.00" fill="grey">is_parent_moved</text>
<text xml:space="preserve" text-anchor="start" x="176.5" y="-158.06" font-family="Helvetica,sans-Serif" font-size="10.00" fill="grey">is_parent_ref</text>
<text xml:space="preserve" text-anchor="start" x="176.5" y="-142.06" font-family="Helvetica,sans-Serif" font-size="10.00" fill="grey">is_ptr</text>
<text xml:space="preserve" text-anchor="start" x="176.5" y="-126.06" font-family="Helvetica,sans-Serif" font-size="10.00" fill="grey">is_ref</text>
<text xml:space="preserve" text-anchor="start" x="176.5" y="-110.06" font-family="Helvetica,sans-Serif" font-size="10.00" fill="grey"> &#160;...</text>
</g>
<!-- Node3&#45;&gt;Node8 -->
<g id="edge12_Node000008_Node000003" class="edge">
<title>Node3&#45;&gt;Node8</title>
<g id="a_edge12_Node000008_Node000003"><a xlink:title=" ">
<path fill="none" stroke="#9a32cd" stroke-dasharray="5,2" d="M114.18,-43.83C131.42,-34.46 152.84,-24.53 173.5,-19.56 350.84,23.12 569.5,-15.09 667.75,-36.87"/>
<polygon fill="#9a32cd" stroke="#9a32cd" points="112.87,-40.55 105.87,-48.5 116.3,-46.65 112.87,-40.55"/>
</a>
</g>
<text xml:space="preserve" text-anchor="start" x="399.88" y="-8.45" font-family="Helvetica,sans-Serif" font-size="10.00" fill="grey">is_free</text>
</g>
<!-- Node4&#45;&gt;Node2 -->
<g id="edge3_Node000002_Node000004" class="edge">
<title>Node4&#45;&gt;Node2</title>
<g id="a_edge3_Node000002_Node000004"><a xlink:title=" ">
<path fill="none" stroke="orange" stroke-dasharray="5,2" d="M377.11,-219.06C404.25,-205.05 436.82,-188.22 462.42,-175"/>
<polygon fill="orange" stroke="orange" points="375.63,-215.89 368.35,-223.59 378.84,-222.11 375.63,-215.89"/>
</a>
</g>
<text xml:space="preserve" text-anchor="start" x="395" y="-216.24" font-family="Helvetica,sans-Serif" font-size="10.00" fill="grey">&lt; false &gt;</text>
</g>
<!-- Node5&#45;&gt;Node1 -->
<g id="edge5_Node000001_Node000005" class="edge">
<title>Node5&#45;&gt;Node1</title>
<g id="a_edge5_Node000001_Node000005"><a xlink:title=" ">
<path fill="none" stroke="#63b8ff" d="M999.46,-167.79C1007.93,-169.84 1016.54,-171.93 1024.79,-173.93"/>
<polygon fill="#63b8ff" stroke="#63b8ff" points="1000.46,-164.43 989.92,-165.48 998.82,-171.23 1000.46,-164.43"/>
</a>
</g>
</g>
<!-- Node6 -->
<g id="Node000006" class="node">
<title>Node6</title>
<g id="a_Node000006"><a xlink:href="../../df/db9/structmstd_1_1utils_1_1function__core__traits.html" target="_top" xlink:title=" ">
<polygon fill="white" stroke="#666666" points="783.25,-115.56 658.5,-115.56 658.5,-83.56 783.25,-83.56 783.25,-115.56"/>
<text xml:space="preserve" text-anchor="start" x="666.5" y="-102.06" font-family="Helvetica,sans-Serif" font-size="10.00">mstd::utils::function</text>
<text xml:space="preserve" text-anchor="middle" x="720.88" y="-90.06" font-family="Helvetica,sans-Serif" font-size="10.00">_core_traits&lt; R(Args...)&gt;</text>
</a>
</g>
</g>
<!-- Node6&#45;&gt;Node5 -->
<g id="edge7_Node000005_Node000006" class="edge">
<title>Node6&#45;&gt;Node5</title>
<g id="a_edge7_Node000005_Node000006"><a xlink:title=" ">
<path fill="none" stroke="#63b8ff" d="M794.9,-115.61C817.44,-120.77 842.3,-126.68 865,-132.56 870.72,-134.04 876.69,-135.65 882.62,-137.29"/>
<polygon fill="#63b8ff" stroke="#63b8ff" points="795.7,-112.2 785.17,-113.39 794.14,-119.02 795.7,-112.2"/>
</a>
</g>
</g>
<!-- Node7 -->
<g id="Node000007" class="node">
<title>Node7</title>
<g id="a_Node000007"><a xlink:href="../../df/db9/structmstd_1_1utils_1_1function__core__traits.html" target="_top" xlink:title=" ">
<polygon fill="white" stroke="#666666" points="558.75,-101.56 455,-101.56 455,-69.56 558.75,-69.56 558.75,-101.56"/>
<text xml:space="preserve" text-anchor="start" x="463" y="-88.06" font-family="Helvetica,sans-Serif" font-size="10.00">mstd::utils::function</text>
<text xml:space="preserve" text-anchor="middle" x="506.88" y="-76.06" font-family="Helvetica,sans-Serif" font-size="10.00">_core_traits&lt; F, C &gt;</text>
</a>
</g>
</g>
<!-- Node7&#45;&gt;Node6 -->
<g id="edge8_Node000006_Node000007" class="edge">
<title>Node7&#45;&gt;Node6</title>
<g id="a_edge8_Node000006_Node000007"><a xlink:title=" ">
<path fill="none" stroke="orange" stroke-dasharray="5,2" d="M570.34,-89.68C598.01,-91.51 630.48,-93.65 658.08,-95.48"/>
<polygon fill="orange" stroke="orange" points="570.91,-86.21 560.7,-89.05 570.45,-93.2 570.91,-86.21"/>
</a>
</g>
<text xml:space="preserve" text-anchor="start" x="579.75" y="-99.72" font-family="Helvetica,sans-Serif" font-size="10.00" fill="grey">&lt; R(Args...)&gt;</text>
</g>
<!-- Node8&#45;&gt;Node1 -->
<g id="edge14_Node000001_Node000008" class="edge">
<title>Node8&#45;&gt;Node1</title>
<g id="a_edge14_Node000001_Node000008"><a xlink:title=" ">
<path fill="none" stroke="orange" stroke-dasharray="5,2" d="M785.08,-53.11C841.64,-58.68 925.14,-72.96 988.25,-109.56 1017.17,-126.32 1045.41,-153.21 1061.97,-170.37"/>
<polygon fill="orange" stroke="orange" points="785.57,-49.64 775.29,-52.22 784.93,-56.61 785.57,-49.64"/>
</a>
</g>
<text xml:space="preserve" text-anchor="start" x="897" y="-115.06" font-family="Helvetica,sans-Serif" font-size="10.00" fill="grey">&lt; R(&amp;&amp;)(Args...)&gt;</text>
</g>
<!-- Node8&#45;&gt;Node5 -->
<g id="edge10_Node000005_Node000008" class="edge">
<title>Node8&#45;&gt;Node5</title>
<g id="a_edge10_Node000005_Node000008"><a xlink:title=" ">
<path fill="none" stroke="orange" stroke-dasharray="5,2" d="M784.58,-64.2C810.39,-71.61 840.03,-81.96 865,-95.56 885.03,-106.46 904.86,-123.47 918.2,-136.07"/>
<polygon fill="orange" stroke="orange" points="785.81,-60.91 775.24,-61.61 783.94,-67.65 785.81,-60.91"/>
</a>
</g>
<text xml:space="preserve" text-anchor="start" x="804.25" y="-101.06" font-family="Helvetica,sans-Serif" font-size="10.00" fill="grey">&lt; R(Args...)&gt;</text>
</g>
</g>
</svg>
