<?xml version="1.0" encoding="UTF-8" standalone="no"?>
<!DOCTYPE svg PUBLIC "-//W3C//DTD SVG 1.1//EN"
 "http://www.w3.org/Graphics/SVG/1.1/DTD/svg11.dtd">
<!-- Generated by graphviz version 14.1.1 (20251213.1925)
 -->
<!-- Title: mstd::function_traits&lt; R(Args...) &amp;&amp;noexcept, C &gt; Pages: 1 -->
<svg width="1550pt" height="642pt"
 viewBox="0.00 0.00 1550.00 642.00" xmlns="http://www.w3.org/2000/svg" xmlns:xlink="http://www.w3.org/1999/xlink">
<g id="graph0" class="graph" transform="scale(1 1) rotate(0) translate(4 638)">
<title>mstd::function_traits&lt; R(Args...) &amp;&amp;noexcept, C &gt;</title>
<!-- Node1 -->
<g id="Node000001" class="node">
<title>Node1</title>
<g id="a_Node000001"><a xlink:title=" ">
<polygon fill="#999999" stroke="#666666" points="1541.75,-282 1395.25,-282 1395.25,-250 1541.75,-250 1541.75,-282"/>
<text xml:space="preserve" text-anchor="start" x="1403.25" y="-268.5" font-family="Helvetica,sans-Serif" font-size="10.00">mstd::function_traits</text>
<text xml:space="preserve" text-anchor="middle" x="1468.5" y="-256.5" font-family="Helvetica,sans-Serif" font-size="10.00">&lt; R(Args...) &amp;&amp;noexcept, C &gt;</text>
</a>
</g>
</g>
<!-- Node2 -->
<g id="Node000002" class="node">
<title>Node2</title>
<g id="a_Node000002"><a xlink:href="../../d0/d74/structmstd_1_1utils_1_1function__default__type__traits.html" target="_top" xlink:title=" ">
<polygon fill="white" stroke="#666666" points="588.75,-301 486.5,-301 486.5,-257 588.75,-257 588.75,-301"/>
<text xml:space="preserve" text-anchor="start" x="494.5" y="-287.5" font-family="Helvetica,sans-Serif" font-size="10.00">mstd::utils::function</text>
<text xml:space="preserve" text-anchor="start" x="494.5" y="-275.5" font-family="Helvetica,sans-Serif" font-size="10.00">_default_type_traits</text>
<text xml:space="preserve" text-anchor="middle" x="537.62" y="-263.5" font-family="Helvetica,sans-Serif" font-size="10.00">&lt; false &gt;</text>
</a>
</g>
</g>
<!-- Node2&#45;&gt;Node1 -->
<g id="edge1_Node000001_Node000002" class="edge">
<title>Node2&#45;&gt;Node1</title>
<g id="a_edge1_Node000001_Node000002"><a xlink:title=" ">
<path fill="none" stroke="#63b8ff" d="M600.46,-286.4C650.41,-291.73 722.57,-298 785.88,-298 785.88,-298 785.88,-298 1305.88,-298 1341.77,-298 1381.32,-290.31 1412.31,-282.47"/>
<polygon fill="#63b8ff" stroke="#63b8ff" points="601.03,-282.94 590.71,-285.33 600.27,-289.9 601.03,-282.94"/>
</a>
</g>
</g>
<!-- Node5 -->
<g id="Node000005" class="node">
<title>Node5</title>
<g id="a_Node000005"><a xlink:href="../../d2/d1d/structmstd_1_1function__traits_3_01_r_07_args_8_8_8_08_01_6_6_00_01_c_01_4.html" target="_top" xlink:title=" ">
<polygon fill="white" stroke="#666666" points="1358.25,-187 1251.5,-187 1251.5,-155 1358.25,-155 1358.25,-187"/>
<text xml:space="preserve" text-anchor="start" x="1259.5" y="-173.5" font-family="Helvetica,sans-Serif" font-size="10.00">mstd::function_traits</text>
<text xml:space="preserve" text-anchor="middle" x="1304.88" y="-161.5" font-family="Helvetica,sans-Serif" font-size="10.00">&lt; R(Args...) &amp;&amp;, C &gt;</text>
</a>
</g>
</g>
<!-- Node2&#45;&gt;Node5 -->
<g id="edge6_Node000005_Node000002" class="edge">
<title>Node2&#45;&gt;Node5</title>
<g id="a_edge6_Node000005_Node000002"><a xlink:title=" ">
<path fill="none" stroke="#63b8ff" d="M600.18,-271.97C721.64,-257.82 1000.56,-223.89 1233.5,-185 1239.28,-184.04 1245.3,-182.95 1251.29,-181.83"/>
<polygon fill="#63b8ff" stroke="#63b8ff" points="599.96,-268.47 590.43,-273.1 600.77,-275.43 599.96,-268.47"/>
</a>
</g>
</g>
<!-- Node6 -->
<g id="Node000006" class="node">
<title>Node6</title>
<g id="a_Node000006"><a xlink:href="../../dd/db6/structmstd_1_1function__traits_3_01_r_07_args_8_8_8_08_00_01_c_01_4.html" target="_top" xlink:title=" ">
<polygon fill="white" stroke="#666666" points="1079,-187 973.75,-187 973.75,-155 1079,-155 1079,-187"/>
<text xml:space="preserve" text-anchor="start" x="981.75" y="-173.5" font-family="Helvetica,sans-Serif" font-size="10.00">mstd::function_traits</text>
<text xml:space="preserve" text-anchor="middle" x="1026.38" y="-161.5" font-family="Helvetica,sans-Serif" font-size="10.00">&lt; R(Args...), C &gt;</text>
</a>
</g>
</g>
<!-- Node2&#45;&gt;Node6 -->
<g id="edge8_Node000006_Node000002" class="edge">
<title>Node2&#45;&gt;Node6</title>
<g id="a_edge8_Node000006_Node000002"><a xlink:title=" ">
<path fill="none" stroke="#63b8ff" d="M597.94,-252.62C604.63,-250.16 611.41,-247.89 618,-246 764.27,-204.07 807.1,-222.52 955.75,-190 961.5,-188.74 967.49,-187.3 973.43,-185.8"/>
<polygon fill="#63b8ff" stroke="#63b8ff" points="597.03,-249.22 588.95,-256.07 599.54,-255.76 597.03,-249.22"/>
</a>
</g>
</g>
<!-- Node11 -->
<g id="Node000011" class="node">
<title>Node11</title>
<g id="a_Node000011"><a xlink:href="../../d7/dcb/structmstd_1_1function__traits.html" target="_top" xlink:title=" ">
<polygon fill="white" stroke="#666666" points="839.5,-104 734.25,-104 734.25,-72 839.5,-72 839.5,-104"/>
<text xml:space="preserve" text-anchor="start" x="742.25" y="-90.5" font-family="Helvetica,sans-Serif" font-size="10.00">mstd::function_traits</text>
<text xml:space="preserve" text-anchor="middle" x="786.88" y="-78.5" font-family="Helvetica,sans-Serif" font-size="10.00">&lt; F, C &gt;</text>
</a>
</g>
</g>
<!-- Node2&#45;&gt;Node11 -->
<g id="edge17_Node000011_Node000002" class="edge">
<title>Node2&#45;&gt;Node11</title>
<g id="a_edge17_Node000011_Node000002"><a xlink:title=" ">
<path fill="none" stroke="#63b8ff" d="M571.44,-249.26C580.71,-240.81 590.78,-231.57 600,-223 652.11,-174.58 655.66,-150.26 716.25,-113 721.72,-109.64 727.71,-106.63 733.81,-103.98"/>
<polygon fill="#63b8ff" stroke="#63b8ff" points="569.36,-246.42 564.33,-255.74 574.08,-251.59 569.36,-246.42"/>
</a>
</g>
</g>
<!-- Node3 -->
<g id="Node000003" class="node">
<title>Node3</title>
<g id="a_Node000003"><a xlink:title=" ">
<polygon fill="white" stroke="#666666" points="155.5,-191 0,-191 0,-159 155.5,-159 155.5,-191"/>
<text xml:space="preserve" text-anchor="start" x="8" y="-177.5" font-family="Helvetica,sans-Serif" font-size="10.00">static _MSTD_CONSTEXPR17</text>
<text xml:space="preserve" text-anchor="middle" x="77.75" y="-165.5" font-family="Helvetica,sans-Serif" font-size="10.00"> const bool</text>
</a>
</g>
</g>
<!-- Node3&#45;&gt;Node1 -->
<g id="edge21_Node000001_Node000003" class="edge">
<title>Node3&#45;&gt;Node1</title>
<g id="a_edge21_Node000001_Node000003"><a xlink:title=" ">
<path fill="none" stroke="#9a32cd" stroke-dasharray="5,2" d="M80.82,-202.92C89.65,-299.86 132.99,-616 322.62,-616 322.62,-616 322.62,-616 1305.88,-616 1454.79,-616 1466.94,-351.61 1467.57,-282.41"/>
<polygon fill="#9a32cd" stroke="#9a32cd" points="84.31,-202.66 79.97,-192.99 77.33,-203.25 84.31,-202.66"/>
</a>
</g>
<text xml:space="preserve" text-anchor="start" x="760.62" y="-621.5" font-family="Helvetica,sans-Serif" font-size="10.00" fill="grey">is_noexcept</text>
</g>
<!-- Node3&#45;&gt;Node2 -->
<g id="edge2_Node000002_Node000003" class="edge">
<title>Node3&#45;&gt;Node2</title>
<g id="a_edge2_Node000002_Node000003"><a xlink:title=" ">
<path fill="none" stroke="#9a32cd" stroke-dasharray="5,2" d="M81.16,-202.5C87.09,-251.36 107.15,-352.26 173.5,-396 203.28,-415.63 218.13,-397.9 253.75,-396 346.54,-391.06 378.52,-397.37 457.25,-348 478.44,-334.71 499.69,-315.88 514.85,-301.25"/>
<polygon fill="#9a32cd" stroke="#9a32cd" points="84.66,-202.34 80.1,-192.78 77.7,-203.1 84.66,-202.34"/>
</a>
</g>
<text xml:space="preserve" text-anchor="start" x="286.5" y="-560.52" font-family="Helvetica,sans-Serif" font-size="10.00" fill="grey">is_const</text>
<text xml:space="preserve" text-anchor="start" x="286.5" y="-544.52" font-family="Helvetica,sans-Serif" font-size="10.00" fill="grey">is_free</text>
<text xml:space="preserve" text-anchor="start" x="286.5" y="-528.52" font-family="Helvetica,sans-Serif" font-size="10.00" fill="grey">is_functor</text>
<text xml:space="preserve" text-anchor="start" x="286.5" y="-512.52" font-family="Helvetica,sans-Serif" font-size="10.00" fill="grey">is_member</text>
<text xml:space="preserve" text-anchor="start" x="286.5" y="-496.52" font-family="Helvetica,sans-Serif" font-size="10.00" fill="grey">is_moved</text>
<text xml:space="preserve" text-anchor="start" x="286.5" y="-480.52" font-family="Helvetica,sans-Serif" font-size="10.00" fill="grey">is_noexcept</text>
<text xml:space="preserve" text-anchor="start" x="286.5" y="-464.52" font-family="Helvetica,sans-Serif" font-size="10.00" fill="grey">is_parent_moved</text>
<text xml:space="preserve" text-anchor="start" x="286.5" y="-448.52" font-family="Helvetica,sans-Serif" font-size="10.00" fill="grey">is_parent_ref</text>
<text xml:space="preserve" text-anchor="start" x="286.5" y="-432.52" font-family="Helvetica,sans-Serif" font-size="10.00" fill="grey">is_ptr</text>
<text xml:space="preserve" text-anchor="start" x="286.5" y="-416.52" font-family="Helvetica,sans-Serif" font-size="10.00" fill="grey">is_ref</text>
<text xml:space="preserve" text-anchor="start" x="286.5" y="-400.52" font-family="Helvetica,sans-Serif" font-size="10.00" fill="grey"> &#160;...</text>
</g>
<!-- Node4 -->
<g id="Node000004" class="node">
<title>Node4</title>
<g id="a_Node000004"><a xlink:href="../../d0/d74/structmstd_1_1utils_1_1function__default__type__traits.html" target="_top" xlink:title=" ">
<polygon fill="white" stroke="#666666" points="374.75,-374 272.5,-374 272.5,-330 374.75,-330 374.75,-374"/>
<text xml:space="preserve" text-anchor="start" x="280.5" y="-360.5" font-family="Helvetica,sans-Serif" font-size="10.00">mstd::utils::function</text>
<text xml:space="preserve" text-anchor="start" x="280.5" y="-348.5" font-family="Helvetica,sans-Serif" font-size="10.00">_default_type_traits</text>
<text xml:space="preserve" text-anchor="middle" x="323.62" y="-336.5" font-family="Helvetica,sans-Serif" font-size="10.00">&lt; IsMember &gt;</text>
</a>
</g>
</g>
<!-- Node3&#45;&gt;Node4 -->
<g id="edge4_Node000004_Node000003" class="edge">
<title>Node3&#45;&gt;Node4</title>
<g id="a_edge4_Node000004_Node000003"><a xlink:title=" ">
<path fill="none" stroke="#9a32cd" stroke-dasharray="5,2" d="M166.78,-177.4C198.23,-182.74 231.39,-194.27 253.75,-218 284.12,-250.23 247.92,-278.68 271.75,-316 275.01,-321.11 279.28,-325.7 283.96,-329.77"/>
<polygon fill="#9a32cd" stroke="#9a32cd" points="167.65,-173.99 157.24,-175.98 166.62,-180.91 167.65,-173.99"/>
</a>
</g>
<text xml:space="preserve" text-anchor="start" x="176.5" y="-383.5" font-family="Helvetica,sans-Serif" font-size="10.00" fill="grey">is_const</text>
<text xml:space="preserve" text-anchor="start" x="176.5" y="-367.5" font-family="Helvetica,sans-Serif" font-size="10.00" fill="grey">is_free</text>
<text xml:space="preserve" text-anchor="start" x="176.5" y="-351.5" font-family="Helvetica,sans-Serif" font-size="10.00" fill="grey">is_functor</text>
<text xml:space="preserve" text-anchor="start" x="176.5" y="-335.5" font-family="Helvetica,sans-Serif" font-size="10.00" fill="grey">is_member</text>
<text xml:space="preserve" text-anchor="start" x="176.5" y="-319.5" font-family="Helvetica,sans-Serif" font-size="10.00" fill="grey">is_moved</text>
<text xml:space="preserve" text-anchor="start" x="176.5" y="-303.5" font-family="Helvetica,sans-Serif" font-size="10.00" fill="grey">is_noexcept</text>
<text xml:space="preserve" text-anchor="start" x="176.5" y="-287.5" font-family="Helvetica,sans-Serif" font-size="10.00" fill="grey">is_parent_moved</text>
<text xml:space="preserve" text-anchor="start" x="176.5" y="-271.5" font-family="Helvetica,sans-Serif" font-size="10.00" fill="grey">is_parent_ref</text>
<text xml:space="preserve" text-anchor="start" x="176.5" y="-255.5" font-family="Helvetica,sans-Serif" font-size="10.00" fill="grey">is_ptr</text>
<text xml:space="preserve" text-anchor="start" x="176.5" y="-239.5" font-family="Helvetica,sans-Serif" font-size="10.00" fill="grey">is_ref</text>
<text xml:space="preserve" text-anchor="start" x="176.5" y="-223.5" font-family="Helvetica,sans-Serif" font-size="10.00" fill="grey"> &#160;...</text>
</g>
<!-- Node3&#45;&gt;Node5 -->
<g id="edge19_Node000005_Node000003" class="edge">
<title>Node3&#45;&gt;Node5</title>
<g id="a_edge19_Node000005_Node000003"><a xlink:title=" ">
<path fill="none" stroke="#9a32cd" stroke-dasharray="5,2" d="M94.43,-149.25C111.2,-123.59 139.97,-84.56 173.5,-60 231.14,-17.79 251.18,0 322.62,0 322.62,0 322.62,0 916.62,0 992.49,0 1165.86,-92.65 1233.5,-127 1249.56,-135.16 1266.71,-145.84 1280.07,-154.63"/>
<polygon fill="#9a32cd" stroke="#9a32cd" points="91.64,-147.11 89.22,-157.43 97.55,-150.88 91.64,-147.11"/>
</a>
</g>
<text xml:space="preserve" text-anchor="start" x="621" y="-5.5" font-family="Helvetica,sans-Serif" font-size="10.00" fill="grey">is_parent_moved</text>
</g>
<!-- Node10 -->
<g id="Node000010" class="node">
<title>Node10</title>
<g id="a_Node000010"><a xlink:href="../../d0/d74/structmstd_1_1utils_1_1function__default__type__traits.html" target="_top" xlink:title=" ">
<polygon fill="white" stroke="#666666" points="588.75,-214 486.5,-214 486.5,-170 588.75,-170 588.75,-214"/>
<text xml:space="preserve" text-anchor="start" x="494.5" y="-200.5" font-family="Helvetica,sans-Serif" font-size="10.00">mstd::utils::function</text>
<text xml:space="preserve" text-anchor="start" x="494.5" y="-188.5" font-family="Helvetica,sans-Serif" font-size="10.00">_default_type_traits</text>
<text xml:space="preserve" text-anchor="middle" x="537.62" y="-176.5" font-family="Helvetica,sans-Serif" font-size="10.00">&lt; true &gt;</text>
</a>
</g>
</g>
<!-- Node3&#45;&gt;Node10 -->
<g id="edge14_Node000010_Node000003" class="edge">
<title>Node3&#45;&gt;Node10</title>
<g id="a_edge14_Node000010_Node000003"><a xlink:title=" ">
<path fill="none" stroke="#9a32cd" stroke-dasharray="5,2" d="M154.4,-156.23C214.49,-143.87 300.59,-131.86 375.5,-143 413.53,-148.65 455,-161.43 486.35,-172.52"/>
<polygon fill="#9a32cd" stroke="#9a32cd" points="154.03,-152.73 144.97,-158.22 155.47,-159.58 154.03,-152.73"/>
</a>
</g>
<text xml:space="preserve" text-anchor="start" x="286.5" y="-308.5" font-family="Helvetica,sans-Serif" font-size="10.00" fill="grey">is_const</text>
<text xml:space="preserve" text-anchor="start" x="286.5" y="-292.5" font-family="Helvetica,sans-Serif" font-size="10.00" fill="grey">is_free</text>
<text xml:space="preserve" text-anchor="start" x="286.5" y="-276.5" font-family="Helvetica,sans-Serif" font-size="10.00" fill="grey">is_functor</text>
<text xml:space="preserve" text-anchor="start" x="286.5" y="-260.5" font-family="Helvetica,sans-Serif" font-size="10.00" fill="grey">is_member</text>
<text xml:space="preserve" text-anchor="start" x="286.5" y="-244.5" font-family="Helvetica,sans-Serif" font-size="10.00" fill="grey">is_moved</text>
<text xml:space="preserve" text-anchor="start" x="286.5" y="-228.5" font-family="Helvetica,sans-Serif" font-size="10.00" fill="grey">is_noexcept</text>
<text xml:space="preserve" text-anchor="start" x="286.5" y="-212.5" font-family="Helvetica,sans-Serif" font-size="10.00" fill="grey">is_parent_moved</text>
<text xml:space="preserve" text-anchor="start" x="286.5" y="-196.5" font-family="Helvetica,sans-Serif" font-size="10.00" fill="grey">is_parent_ref</text>
<text xml:space="preserve" text-anchor="start" x="286.5" y="-180.5" font-family="Helvetica,sans-Serif" font-size="10.00" fill="grey">is_ptr</text>
<text xml:space="preserve" text-anchor="start" x="286.5" y="-164.5" font-family="Helvetica,sans-Serif" font-size="10.00" fill="grey">is_ref</text>
<text xml:space="preserve" text-anchor="start" x="286.5" y="-148.5" font-family="Helvetica,sans-Serif" font-size="10.00" fill="grey"> &#160;...</text>
</g>
<!-- Node3&#45;&gt;Node11 -->
<g id="edge18_Node000011_Node000003" class="edge">
<title>Node3&#45;&gt;Node11</title>
<g id="a_edge18_Node000011_Node000003"><a xlink:title=" ">
<path fill="none" stroke="#9a32cd" stroke-dasharray="5,2" d="M106.09,-151.43C141.52,-122.59 206.51,-75.36 271.75,-57 435.51,-10.91 639.82,-50.44 733.96,-73.79"/>
<polygon fill="#9a32cd" stroke="#9a32cd" points="103.96,-148.64 98.49,-157.72 108.43,-154.04 103.96,-148.64"/>
</a>
</g>
<text xml:space="preserve" text-anchor="start" x="410.75" y="-42.77" font-family="Helvetica,sans-Serif" font-size="10.00" fill="grey">is_free</text>
</g>
<!-- Node4&#45;&gt;Node2 -->
<g id="edge3_Node000002_Node000004" class="edge">
<title>Node4&#45;&gt;Node2</title>
<g id="a_edge3_Node000002_Node000004"><a xlink:title=" ">
<path fill="none" stroke="orange" stroke-dasharray="5,2" d="M385.66,-330.98C417.5,-320.02 455.99,-306.77 486.14,-296.39"/>
<polygon fill="orange" stroke="orange" points="384.88,-327.55 376.57,-334.11 387.16,-334.17 384.88,-327.55"/>
</a>
</g>
<text xml:space="preserve" text-anchor="start" x="405.88" y="-331.8" font-family="Helvetica,sans-Serif" font-size="10.00" fill="grey">&lt; false &gt;</text>
</g>
<!-- Node4&#45;&gt;Node10 -->
<g id="edge15_Node000010_Node000004" class="edge">
<title>Node4&#45;&gt;Node10</title>
<g id="a_edge15_Node000010_Node000004"><a xlink:title=" ">
<path fill="none" stroke="orange" stroke-dasharray="5,2" d="M369.27,-322.22C371.46,-320.21 373.55,-318.13 375.5,-316 386.25,-304.24 382.52,-296.54 393.5,-285 421.58,-255.48 460.79,-230.84 491.06,-214.35"/>
<polygon fill="orange" stroke="orange" points="367.01,-319.55 361.62,-328.66 371.52,-324.9 367.01,-319.55"/>
</a>
</g>
<text xml:space="preserve" text-anchor="start" x="408.12" y="-290.5" font-family="Helvetica,sans-Serif" font-size="10.00" fill="grey">&lt; true &gt;</text>
</g>
<!-- Node5&#45;&gt;Node1 -->
<g id="edge5_Node000001_Node000005" class="edge">
<title>Node5&#45;&gt;Node1</title>
<g id="a_edge5_Node000001_Node000005"><a xlink:title=" ">
<path fill="none" stroke="#63b8ff" d="M1343.55,-193.15C1372.91,-210.4 1412.99,-233.96 1439.54,-249.56"/>
<polygon fill="#63b8ff" stroke="#63b8ff" points="1345.36,-190.15 1334.96,-188.1 1341.81,-196.18 1345.36,-190.15"/>
</a>
</g>
</g>
<!-- Node6&#45;&gt;Node5 -->
<g id="edge7_Node000005_Node000006" class="edge">
<title>Node6&#45;&gt;Node5</title>
<g id="a_edge7_Node000005_Node000006"><a xlink:title=" ">
<path fill="none" stroke="#63b8ff" d="M1090.7,-171C1139.25,-171 1205.47,-171 1251.16,-171"/>
<polygon fill="#63b8ff" stroke="#63b8ff" points="1090.9,-167.5 1080.9,-171 1090.9,-174.5 1090.9,-167.5"/>
</a>
</g>
</g>
<!-- Node7 -->
<g id="Node000007" class="node">
<title>Node7</title>
<g id="a_Node000007"><a xlink:href="../../d1/d4f/structmstd_1_1utils_1_1function__core__traits_3_01_r_07_args_8_8_8_08_00_01_c_01_4.html" target="_top" xlink:title=" ">
<polygon fill="white" stroke="#666666" points="857.5,-154 716.25,-154 716.25,-122 857.5,-122 857.5,-154"/>
<text xml:space="preserve" text-anchor="start" x="724.25" y="-140.5" font-family="Helvetica,sans-Serif" font-size="10.00">mstd::utils::function</text>
<text xml:space="preserve" text-anchor="middle" x="786.88" y="-128.5" font-family="Helvetica,sans-Serif" font-size="10.00">_core_traits&lt; R(Args...), C &gt;</text>
</a>
</g>
</g>
<!-- Node7&#45;&gt;Node6 -->
<g id="edge9_Node000006_Node000007" class="edge">
<title>Node7&#45;&gt;Node6</title>
<g id="a_edge9_Node000006_Node000007"><a xlink:title=" ">
<path fill="none" stroke="#63b8ff" d="M868.91,-149.26C903.57,-154.08 943,-159.55 973.61,-163.81"/>
<polygon fill="#63b8ff" stroke="#63b8ff" points="869.73,-145.84 859.35,-147.93 868.77,-152.77 869.73,-145.84"/>
</a>
</g>
</g>
<!-- Node8 -->
<g id="Node000008" class="node">
<title>Node8</title>
<g id="a_Node000008"><a xlink:href="../../df/db9/structmstd_1_1utils_1_1function__core__traits.html" target="_top" xlink:title=" ">
<polygon fill="white" stroke="#666666" points="600,-152 475.25,-152 475.25,-120 600,-120 600,-152"/>
<text xml:space="preserve" text-anchor="start" x="483.25" y="-138.5" font-family="Helvetica,sans-Serif" font-size="10.00">mstd::utils::function</text>
<text xml:space="preserve" text-anchor="middle" x="537.62" y="-126.5" font-family="Helvetica,sans-Serif" font-size="10.00">_core_traits&lt; R(Args...)&gt;</text>
</a>
</g>
</g>
<!-- Node8&#45;&gt;Node7 -->
<g id="edge10_Node000007_Node000008" class="edge">
<title>Node8&#45;&gt;Node7</title>
<g id="a_edge10_Node000007_Node000008"><a xlink:title=" ">
<path fill="none" stroke="#63b8ff" d="M611.79,-136.59C644.8,-136.86 683.6,-137.17 716.19,-137.44"/>
<polygon fill="#63b8ff" stroke="#63b8ff" points="611.92,-133.09 601.89,-136.51 611.86,-140.09 611.92,-133.09"/>
</a>
</g>
</g>
<!-- Node9 -->
<g id="Node000009" class="node">
<title>Node9</title>
<g id="a_Node000009"><a xlink:href="../../df/db9/structmstd_1_1utils_1_1function__core__traits.html" target="_top" xlink:title=" ">
<polygon fill="white" stroke="#666666" points="375.5,-98 271.75,-98 271.75,-66 375.5,-66 375.5,-98"/>
<text xml:space="preserve" text-anchor="start" x="279.75" y="-84.5" font-family="Helvetica,sans-Serif" font-size="10.00">mstd::utils::function</text>
<text xml:space="preserve" text-anchor="middle" x="323.62" y="-72.5" font-family="Helvetica,sans-Serif" font-size="10.00">_core_traits&lt; F, C &gt;</text>
</a>
</g>
</g>
<!-- Node9&#45;&gt;Node7 -->
<g id="edge12_Node000007_Node000009" class="edge">
<title>Node9&#45;&gt;Node7</title>
<g id="a_edge12_Node000007_Node000009"><a xlink:title=" ">
<path fill="none" stroke="orange" stroke-dasharray="5,2" d="M387.41,-80.99C443.43,-80.93 527.56,-82.89 600,-93 644.56,-99.22 694.02,-111.46 730.71,-121.61"/>
<polygon fill="orange" stroke="orange" points="387.4,-77.49 377.41,-81.03 387.43,-84.49 387.4,-77.49"/>
</a>
</g>
<text xml:space="preserve" text-anchor="start" x="500.5" y="-98.5" font-family="Helvetica,sans-Serif" font-size="10.00" fill="grey">&lt; R(Args...), C &gt;</text>
</g>
<!-- Node9&#45;&gt;Node8 -->
<g id="edge11_Node000008_Node000009" class="edge">
<title>Node9&#45;&gt;Node8</title>
<g id="a_edge11_Node000008_Node000009"><a xlink:title=" ">
<path fill="none" stroke="orange" stroke-dasharray="5,2" d="M387.09,-97.91C414.76,-104.96 447.23,-113.23 474.83,-120.26"/>
<polygon fill="orange" stroke="orange" points="387.97,-94.52 377.41,-95.45 386.24,-101.31 387.97,-94.52"/>
</a>
</g>
<text xml:space="preserve" text-anchor="start" x="396.5" y="-120.92" font-family="Helvetica,sans-Serif" font-size="10.00" fill="grey">&lt; R(Args...)&gt;</text>
</g>
<!-- Node10&#45;&gt;Node6 -->
<g id="edge13_Node000006_Node000010" class="edge">
<title>Node10&#45;&gt;Node6</title>
<g id="a_edge13_Node000006_Node000010"><a xlink:title=" ">
<path fill="none" stroke="#63b8ff" d="M600.24,-189.34C697.08,-185.16 883.17,-177.14 973.56,-173.24"/>
<polygon fill="#63b8ff" stroke="#63b8ff" points="600.23,-185.84 590.39,-189.77 600.54,-192.83 600.23,-185.84"/>
</a>
</g>
</g>
<!-- Node11&#45;&gt;Node1 -->
<g id="edge22_Node000001_Node000011" class="edge">
<title>Node11&#45;&gt;Node1</title>
<g id="a_edge22_Node000001_Node000011"><a xlink:title=" ">
<path fill="none" stroke="orange" stroke-dasharray="5,2" d="M851.01,-77.41C962.72,-62.14 1198.48,-45.77 1358.25,-146 1402.4,-173.7 1439.79,-224.03 1457.14,-249.82"/>
<polygon fill="orange" stroke="orange" points="850.86,-73.9 841.45,-78.77 851.84,-80.83 850.86,-73.9"/>
</a>
</g>
<text xml:space="preserve" text-anchor="start" x="1100" y="-98.01" font-family="Helvetica,sans-Serif" font-size="10.00" fill="grey">&lt; R(Args...) &amp;&amp;noexcept, C &gt;</text>
</g>
<!-- Node11&#45;&gt;Node5 -->
<g id="edge20_Node000005_Node000011" class="edge">
<title>Node11&#45;&gt;Node5</title>
<g id="a_edge20_Node000005_Node000011"><a xlink:title=" ">
<path fill="none" stroke="orange" stroke-dasharray="5,2" d="M851.04,-94.3C882.55,-97.66 921.22,-102.11 955.75,-107 1061.01,-121.91 1182.99,-145.9 1251.02,-159.88"/>
<polygon fill="orange" stroke="orange" points="851.59,-90.84 841.28,-93.27 850.86,-97.8 851.59,-90.84"/>
</a>
</g>
<text xml:space="preserve" text-anchor="start" x="981" y="-132.28" font-family="Helvetica,sans-Serif" font-size="10.00" fill="grey">&lt; R(Args...) &amp;&amp;, C &gt;</text>
</g>
<!-- Node11&#45;&gt;Node6 -->
<g id="edge16_Node000006_Node000011" class="edge">
<title>Node11&#45;&gt;Node6</title>
<g id="a_edge16_Node000006_Node000011"><a xlink:title=" ">
<path fill="none" stroke="orange" stroke-dasharray="5,2" d="M850.88,-98.67C883.01,-105.28 922.26,-115.19 955.75,-129 972.06,-135.73 989.05,-145.9 1002.15,-154.55"/>
<polygon fill="orange" stroke="orange" points="851.81,-95.29 841.32,-96.77 850.45,-102.15 851.81,-95.29"/>
</a>
</g>
<text xml:space="preserve" text-anchor="start" x="878.5" y="-134.5" font-family="Helvetica,sans-Serif" font-size="10.00" fill="grey">&lt; R(Args...), C &gt;</text>
</g>
</g>
</svg>
