<?xml version="1.0" encoding="UTF-8" standalone="no"?>
<!DOCTYPE svg PUBLIC "-//W3C//DTD SVG 1.1//EN"
 "http://www.w3.org/Graphics/SVG/1.1/DTD/svg11.dtd">
<!-- Generated by graphviz version 14.1.1 (20251213.1925)
 -->
<!-- Title: mstd::function_traits&lt; R(C::*)(Args...)&gt; Pages: 1 -->
<svg width="980pt" height="236pt"
 viewBox="0.00 0.00 980.00 236.00" xmlns="http://www.w3.org/2000/svg" xmlns:xlink="http://www.w3.org/1999/xlink">
<g id="graph0" class="graph" transform="scale(1 1) rotate(0) translate(4 232)">
<title>mstd::function_traits&lt; R(C::*)(Args...)&gt;</title>
<!-- Node1 -->
<g id="Node000001" class="node">
<title>Node1</title>
<g id="a_Node000001"><a xlink:title=" ">
<polygon fill="#999999" stroke="#666666" points="971.5,-32 866.25,-32 866.25,0 971.5,0 971.5,-32"/>
<text xml:space="preserve" text-anchor="start" x="874.25" y="-18.5" font-family="Helvetica,sans-Serif" font-size="10.00">mstd::function_traits</text>
<text xml:space="preserve" text-anchor="middle" x="918.88" y="-6.5" font-family="Helvetica,sans-Serif" font-size="10.00">&lt; R(C::*)(Args...)&gt;</text>
</a>
</g>
</g>
<!-- Node2 -->
<g id="Node000002" class="node">
<title>Node2</title>
<g id="a_Node000002"><a xlink:href="../../d0/d74/structmstd_1_1utils_1_1function__default__type__traits.html" target="_top" xlink:title=" ">
<polygon fill="white" stroke="#666666" points="317,-77 214.75,-77 214.75,-33 317,-33 317,-77"/>
<text xml:space="preserve" text-anchor="start" x="222.75" y="-63.5" font-family="Helvetica,sans-Serif" font-size="10.00">mstd::utils::function</text>
<text xml:space="preserve" text-anchor="start" x="222.75" y="-51.5" font-family="Helvetica,sans-Serif" font-size="10.00">_default_type_traits</text>
<text xml:space="preserve" text-anchor="middle" x="265.88" y="-39.5" font-family="Helvetica,sans-Serif" font-size="10.00">&lt; false &gt;</text>
</a>
</g>
</g>
<!-- Node2&#45;&gt;Node1 -->
<g id="edge1_Node000001_Node000002" class="edge">
<title>Node2&#45;&gt;Node1</title>
<g id="a_edge1_Node000001_Node000002"><a xlink:title=" ">
<path fill="none" stroke="#63b8ff" d="M328.25,-38.64C367.47,-29.05 419.59,-17.88 466.5,-13 610.5,1.98 781.74,-6.22 865.91,-11.95"/>
<polygon fill="#63b8ff" stroke="#63b8ff" points="327.62,-35.19 318.75,-41 329.3,-41.99 327.62,-35.19"/>
</a>
</g>
</g>
<!-- Node4 -->
<g id="Node000004" class="node">
<title>Node4</title>
<g id="a_Node000004"><a xlink:href="../../dd/db6/structmstd_1_1function__traits_3_01_r_07_args_8_8_8_08_00_01_c_01_4.html" target="_top" xlink:title=" ">
<polygon fill="white" stroke="#666666" points="829.25,-98 724,-98 724,-66 829.25,-66 829.25,-98"/>
<text xml:space="preserve" text-anchor="start" x="732" y="-84.5" font-family="Helvetica,sans-Serif" font-size="10.00">mstd::function_traits</text>
<text xml:space="preserve" text-anchor="middle" x="776.62" y="-72.5" font-family="Helvetica,sans-Serif" font-size="10.00">&lt; R(Args...), C &gt;</text>
</a>
</g>
</g>
<!-- Node2&#45;&gt;Node4 -->
<g id="edge4_Node000004_Node000002" class="edge">
<title>Node2&#45;&gt;Node4</title>
<g id="a_edge4_Node000004_Node000002"><a xlink:title=" ">
<path fill="none" stroke="#63b8ff" d="M328.64,-59.83C334.59,-60.25 340.53,-60.64 346.25,-61 482.38,-69.47 642.96,-76.55 723.72,-79.91"/>
<polygon fill="#63b8ff" stroke="#63b8ff" points="328.98,-56.35 318.76,-59.12 328.48,-63.33 328.98,-56.35"/>
</a>
</g>
</g>
<!-- Node9 -->
<g id="Node000009" class="node">
<title>Node9</title>
<g id="a_Node000009"><a xlink:href="../../d7/dcb/structmstd_1_1function__traits.html" target="_top" xlink:title=" ">
<polygon fill="white" stroke="#666666" points="589.75,-54 484.5,-54 484.5,-22 589.75,-22 589.75,-54"/>
<text xml:space="preserve" text-anchor="start" x="492.5" y="-40.5" font-family="Helvetica,sans-Serif" font-size="10.00">mstd::function_traits</text>
<text xml:space="preserve" text-anchor="middle" x="537.12" y="-28.5" font-family="Helvetica,sans-Serif" font-size="10.00">&lt; F, C &gt;</text>
</a>
</g>
</g>
<!-- Node2&#45;&gt;Node9 -->
<g id="edge12_Node000009_Node000002" class="edge">
<title>Node2&#45;&gt;Node9</title>
<g id="a_edge12_Node000009_Node000002"><a xlink:title=" ">
<path fill="none" stroke="#63b8ff" d="M328.48,-51.11C375.56,-48.14 439.72,-44.09 484.21,-41.28"/>
<polygon fill="#63b8ff" stroke="#63b8ff" points="328.47,-47.6 318.71,-51.73 328.91,-54.59 328.47,-47.6"/>
</a>
</g>
</g>
<!-- Node3 -->
<g id="Node000003" class="node">
<title>Node3</title>
<g id="a_Node000003"><a xlink:href="../../d0/d74/structmstd_1_1utils_1_1function__default__type__traits.html" target="_top" xlink:title=" ">
<polygon fill="white" stroke="#666666" points="103,-123 0.75,-123 0.75,-79 103,-79 103,-123"/>
<text xml:space="preserve" text-anchor="start" x="8.75" y="-109.5" font-family="Helvetica,sans-Serif" font-size="10.00">mstd::utils::function</text>
<text xml:space="preserve" text-anchor="start" x="8.75" y="-97.5" font-family="Helvetica,sans-Serif" font-size="10.00">_default_type_traits</text>
<text xml:space="preserve" text-anchor="middle" x="51.88" y="-85.5" font-family="Helvetica,sans-Serif" font-size="10.00">&lt; IsMember &gt;</text>
</a>
</g>
</g>
<!-- Node3&#45;&gt;Node2 -->
<g id="edge2_Node000002_Node000003" class="edge">
<title>Node3&#45;&gt;Node2</title>
<g id="a_edge2_Node000002_Node000003"><a xlink:title=" ">
<path fill="none" stroke="orange" stroke-dasharray="5,2" d="M109.78,-74.68C113.79,-73.3 117.8,-72.06 121.75,-71 151.94,-62.93 186.78,-58.93 214.52,-56.94"/>
<polygon fill="orange" stroke="orange" points="108.84,-71.29 100.67,-78.05 111.27,-77.86 108.84,-71.29"/>
</a>
</g>
<text xml:space="preserve" text-anchor="start" x="134.12" y="-76.5" font-family="Helvetica,sans-Serif" font-size="10.00" fill="grey">&lt; false &gt;</text>
</g>
<!-- Node8 -->
<g id="Node000008" class="node">
<title>Node8</title>
<g id="a_Node000008"><a xlink:href="../../d0/d74/structmstd_1_1utils_1_1function__default__type__traits.html" target="_top" xlink:title=" ">
<polygon fill="white" stroke="#666666" points="448.5,-141 346.25,-141 346.25,-97 448.5,-97 448.5,-141"/>
<text xml:space="preserve" text-anchor="start" x="354.25" y="-127.5" font-family="Helvetica,sans-Serif" font-size="10.00">mstd::utils::function</text>
<text xml:space="preserve" text-anchor="start" x="354.25" y="-115.5" font-family="Helvetica,sans-Serif" font-size="10.00">_default_type_traits</text>
<text xml:space="preserve" text-anchor="middle" x="397.38" y="-103.5" font-family="Helvetica,sans-Serif" font-size="10.00">&lt; true &gt;</text>
</a>
</g>
</g>
<!-- Node3&#45;&gt;Node8 -->
<g id="edge10_Node000008_Node000003" class="edge">
<title>Node3&#45;&gt;Node8</title>
<g id="a_edge10_Node000008_Node000003"><a xlink:title=" ">
<path fill="none" stroke="orange" stroke-dasharray="5,2" d="M114.68,-104.24C180.83,-107.71 284.51,-113.14 345.92,-116.36"/>
<polygon fill="orange" stroke="orange" points="114.87,-100.74 104.7,-103.72 114.51,-107.73 114.87,-100.74"/>
</a>
</g>
<text xml:space="preserve" text-anchor="start" x="136.38" y="-113.21" font-family="Helvetica,sans-Serif" font-size="10.00" fill="grey">&lt; true &gt;</text>
</g>
<!-- Node4&#45;&gt;Node1 -->
<g id="edge3_Node000001_Node000004" class="edge">
<title>Node4&#45;&gt;Node1</title>
<g id="a_edge3_Node000001_Node000004"><a xlink:title=" ">
<path fill="none" stroke="#63b8ff" d="M822.89,-60.7C842.49,-51.47 865.07,-40.85 883.29,-32.27"/>
<polygon fill="#63b8ff" stroke="#63b8ff" points="821.58,-57.45 814.02,-64.87 824.56,-63.78 821.58,-57.45"/>
</a>
</g>
</g>
<!-- Node5 -->
<g id="Node000005" class="node">
<title>Node5</title>
<g id="a_Node000005"><a xlink:href="../../d1/d4f/structmstd_1_1utils_1_1function__core__traits_3_01_r_07_args_8_8_8_08_00_01_c_01_4.html" target="_top" xlink:title=" ">
<polygon fill="white" stroke="#666666" points="607.75,-180 466.5,-180 466.5,-148 607.75,-148 607.75,-180"/>
<text xml:space="preserve" text-anchor="start" x="474.5" y="-166.5" font-family="Helvetica,sans-Serif" font-size="10.00">mstd::utils::function</text>
<text xml:space="preserve" text-anchor="middle" x="537.12" y="-154.5" font-family="Helvetica,sans-Serif" font-size="10.00">_core_traits&lt; R(Args...), C &gt;</text>
</a>
</g>
</g>
<!-- Node5&#45;&gt;Node4 -->
<g id="edge5_Node000004_Node000005" class="edge">
<title>Node5&#45;&gt;Node4</title>
<g id="a_edge5_Node000004_Node000005"><a xlink:title=" ">
<path fill="none" stroke="#63b8ff" d="M619.11,-157.25C647.43,-152.9 678.9,-145.75 706,-134 725.79,-125.42 745.2,-110.2 758.47,-98.43"/>
<polygon fill="#63b8ff" stroke="#63b8ff" points="618.92,-153.74 609.52,-158.62 619.91,-160.67 618.92,-153.74"/>
</a>
</g>
</g>
<!-- Node6 -->
<g id="Node000006" class="node">
<title>Node6</title>
<g id="a_Node000006"><a xlink:href="../../df/db9/structmstd_1_1utils_1_1function__core__traits.html" target="_top" xlink:title=" ">
<polygon fill="white" stroke="#666666" points="328.25,-228 203.5,-228 203.5,-196 328.25,-196 328.25,-228"/>
<text xml:space="preserve" text-anchor="start" x="211.5" y="-214.5" font-family="Helvetica,sans-Serif" font-size="10.00">mstd::utils::function</text>
<text xml:space="preserve" text-anchor="middle" x="265.88" y="-202.5" font-family="Helvetica,sans-Serif" font-size="10.00">_core_traits&lt; R(Args...)&gt;</text>
</a>
</g>
</g>
<!-- Node6&#45;&gt;Node5 -->
<g id="edge6_Node000005_Node000006" class="edge">
<title>Node6&#45;&gt;Node5</title>
<g id="a_edge6_Node000005_Node000006"><a xlink:title=" ">
<path fill="none" stroke="#63b8ff" d="M339.74,-199.01C379.02,-192.01 427.26,-183.41 466.1,-176.48"/>
<polygon fill="#63b8ff" stroke="#63b8ff" points="339.37,-195.52 330.14,-200.72 340.6,-202.41 339.37,-195.52"/>
</a>
</g>
</g>
<!-- Node7 -->
<g id="Node000007" class="node">
<title>Node7</title>
<g id="a_Node000007"><a xlink:href="../../df/db9/structmstd_1_1utils_1_1function__core__traits.html" target="_top" xlink:title=" ">
<polygon fill="white" stroke="#666666" points="103.75,-188 0,-188 0,-156 103.75,-156 103.75,-188"/>
<text xml:space="preserve" text-anchor="start" x="8" y="-174.5" font-family="Helvetica,sans-Serif" font-size="10.00">mstd::utils::function</text>
<text xml:space="preserve" text-anchor="middle" x="51.88" y="-162.5" font-family="Helvetica,sans-Serif" font-size="10.00">_core_traits&lt; F, C &gt;</text>
</a>
</g>
</g>
<!-- Node7&#45;&gt;Node5 -->
<g id="edge8_Node000005_Node000007" class="edge">
<title>Node7&#45;&gt;Node5</title>
<g id="a_edge8_Node000005_Node000007"><a xlink:title=" ">
<path fill="none" stroke="orange" stroke-dasharray="5,2" d="M115.39,-170.69C142.48,-170.14 174.55,-169.51 203.5,-169 294.16,-167.42 398.72,-165.89 466.04,-164.95"/>
<polygon fill="orange" stroke="orange" points="115.55,-167.18 105.63,-170.89 115.7,-174.18 115.55,-167.18"/>
</a>
</g>
<text xml:space="preserve" text-anchor="start" x="228.75" y="-174.5" font-family="Helvetica,sans-Serif" font-size="10.00" fill="grey">&lt; R(Args...), C &gt;</text>
</g>
<!-- Node7&#45;&gt;Node6 -->
<g id="edge7_Node000006_Node000007" class="edge">
<title>Node7&#45;&gt;Node6</title>
<g id="a_edge7_Node000006_Node000007"><a xlink:title=" ">
<path fill="none" stroke="orange" stroke-dasharray="5,2" d="M115.34,-183.79C143.01,-189.01 175.48,-195.13 203.08,-200.34"/>
<polygon fill="orange" stroke="orange" points="116.16,-180.38 105.68,-181.96 114.86,-187.26 116.16,-180.38"/>
</a>
</g>
<text xml:space="preserve" text-anchor="start" x="124.75" y="-202.26" font-family="Helvetica,sans-Serif" font-size="10.00" fill="grey">&lt; R(Args...)&gt;</text>
</g>
<!-- Node8&#45;&gt;Node4 -->
<g id="edge9_Node000004_Node000008" class="edge">
<title>Node8&#45;&gt;Node4</title>
<g id="a_edge9_Node000004_Node000008"><a xlink:title=" ">
<path fill="none" stroke="#63b8ff" d="M460.12,-116.63C522.41,-113.72 621.21,-107.65 706,-96 711.74,-95.21 717.72,-94.24 723.66,-93.18"/>
<polygon fill="#63b8ff" stroke="#63b8ff" points="460.27,-113.12 450.44,-117.07 460.59,-120.11 460.27,-113.12"/>
</a>
</g>
</g>
<!-- Node9&#45;&gt;Node1 -->
<g id="edge13_Node000001_Node000009" class="edge">
<title>Node9&#45;&gt;Node1</title>
<g id="a_edge13_Node000001_Node000009"><a xlink:title=" ">
<path fill="none" stroke="orange" stroke-dasharray="5,2" d="M601.61,-34.32C675.78,-30.03 797.06,-23 865.89,-19.01"/>
<polygon fill="orange" stroke="orange" points="601.42,-30.83 591.64,-34.9 601.83,-37.82 601.42,-30.83"/>
</a>
</g>
<text xml:space="preserve" text-anchor="start" x="736.12" y="-32.68" font-family="Helvetica,sans-Serif" font-size="10.00" fill="grey">&lt; R(C::*)(Args...)&gt;</text>
</g>
<!-- Node9&#45;&gt;Node4 -->
<g id="edge11_Node000004_Node000009" class="edge">
<title>Node9&#45;&gt;Node4</title>
<g id="a_edge11_Node000004_Node000009"><a xlink:title=" ">
<path fill="none" stroke="orange" stroke-dasharray="5,2" d="M601.33,-37.19C633.16,-38.12 672.1,-41.3 706,-50 719.66,-53.5 733.94,-59.59 745.99,-65.52"/>
<polygon fill="orange" stroke="orange" points="601.54,-33.69 591.46,-36.98 601.38,-40.69 601.54,-33.69"/>
</a>
</g>
<text xml:space="preserve" text-anchor="start" x="628.75" y="-55.5" font-family="Helvetica,sans-Serif" font-size="10.00" fill="grey">&lt; R(Args...), C &gt;</text>
</g>
</g>
</svg>
