<?xml version="1.0" encoding="UTF-8" standalone="no"?>
<!DOCTYPE svg PUBLIC "-//W3C//DTD SVG 1.1//EN"
 "http://www.w3.org/Graphics/SVG/1.1/DTD/svg11.dtd">
<!-- Generated by graphviz version 14.1.1 (20251213.1925)
 -->
<!-- Title: mstd::function_traits&lt; R(Args...) const volatile noexcept, C &gt; Pages: 1 -->
<svg width="1643pt" height="688pt"
 viewBox="0.00 0.00 1643.00 688.00" xmlns="http://www.w3.org/2000/svg" xmlns:xlink="http://www.w3.org/1999/xlink">
<g id="graph0" class="graph" transform="scale(1 1) rotate(0) translate(4 684)">
<title>mstd::function_traits&lt; R(Args...) const volatile noexcept, C &gt;</title>
<!-- Node1 -->
<g id="Node000001" class="node">
<title>Node1</title>
<g id="a_Node000001"><a xlink:title=" ">
<polygon fill="#999999" stroke="#666666" points="1635,-339 1506.5,-339 1506.5,-295 1635,-295 1635,-339"/>
<text xml:space="preserve" text-anchor="start" x="1514.5" y="-325.5" font-family="Helvetica,sans-Serif" font-size="10.00">mstd::function_traits</text>
<text xml:space="preserve" text-anchor="start" x="1514.5" y="-313.5" font-family="Helvetica,sans-Serif" font-size="10.00">&lt; R(Args...) const volatile</text>
<text xml:space="preserve" text-anchor="middle" x="1570.75" y="-301.5" font-family="Helvetica,sans-Serif" font-size="10.00"> noexcept, C &gt;</text>
</a>
</g>
</g>
<!-- Node2 -->
<g id="Node000002" class="node">
<title>Node2</title>
<g id="a_Node000002"><a xlink:href="../../d0/d74/structmstd_1_1utils_1_1function__default__type__traits.html" target="_top" xlink:title=" ">
<polygon fill="white" stroke="#666666" points="588.75,-252 486.5,-252 486.5,-208 588.75,-208 588.75,-252"/>
<text xml:space="preserve" text-anchor="start" x="494.5" y="-238.5" font-family="Helvetica,sans-Serif" font-size="10.00">mstd::utils::function</text>
<text xml:space="preserve" text-anchor="start" x="494.5" y="-226.5" font-family="Helvetica,sans-Serif" font-size="10.00">_default_type_traits</text>
<text xml:space="preserve" text-anchor="middle" x="537.62" y="-214.5" font-family="Helvetica,sans-Serif" font-size="10.00">&lt; false &gt;</text>
</a>
</g>
</g>
<!-- Node2&#45;&gt;Node1 -->
<g id="edge1_Node000001_Node000002" class="edge">
<title>Node2&#45;&gt;Node1</title>
<g id="a_edge1_Node000001_Node000002"><a xlink:title=" ">
<path fill="none" stroke="#63b8ff" d="M587.4,-257.82C668.17,-301.19 835.99,-380 988.88,-380 988.88,-380 988.88,-380 1395,-380 1444.34,-380 1497.12,-357.5 1531.61,-339.39"/>
<polygon fill="#63b8ff" stroke="#63b8ff" points="589.31,-254.87 578.85,-253.18 585.97,-261.02 589.31,-254.87"/>
</a>
</g>
</g>
<!-- Node5 -->
<g id="Node000005" class="node">
<title>Node5</title>
<g id="a_Node000005"><a xlink:href="../../da/d58/structmstd_1_1function__traits_3_01_r_07_args_8_8_8_08_01const_01volatile_00_01_c_01_4.html" target="_top" xlink:title=" ">
<polygon fill="white" stroke="#666666" points="1469.5,-158 1318.5,-158 1318.5,-126 1469.5,-126 1469.5,-158"/>
<text xml:space="preserve" text-anchor="start" x="1326.5" y="-144.5" font-family="Helvetica,sans-Serif" font-size="10.00">mstd::function_traits</text>
<text xml:space="preserve" text-anchor="middle" x="1394" y="-132.5" font-family="Helvetica,sans-Serif" font-size="10.00">&lt; R(Args...) const volatile, C &gt;</text>
</a>
</g>
</g>
<!-- Node2&#45;&gt;Node5 -->
<g id="edge6_Node000005_Node000002" class="edge">
<title>Node2&#45;&gt;Node5</title>
<g id="a_edge6_Node000005_Node000002"><a xlink:title=" ">
<path fill="none" stroke="#63b8ff" d="M591.23,-202.59C616.96,-190.37 648.77,-176.96 678.75,-169 888.5,-113.33 947.54,-128.37 1164.25,-117 1216.29,-114.27 1229.71,-111.26 1281.5,-117 1297.67,-118.79 1314.92,-122 1330.9,-125.53"/>
<polygon fill="#63b8ff" stroke="#63b8ff" points="589.8,-199.39 582.33,-206.9 592.85,-205.69 589.8,-199.39"/>
</a>
</g>
</g>
<!-- Node6 -->
<g id="Node000006" class="node">
<title>Node6</title>
<g id="a_Node000006"><a xlink:href="../../df/d15/structmstd_1_1function__traits_3_01_r_07_args_8_8_8_08_01const_00_01_c_01_4.html" target="_top" xlink:title=" ">
<polygon fill="white" stroke="#666666" points="1281.5,-158 1164.25,-158 1164.25,-126 1281.5,-126 1281.5,-158"/>
<text xml:space="preserve" text-anchor="start" x="1172.25" y="-144.5" font-family="Helvetica,sans-Serif" font-size="10.00">mstd::function_traits</text>
<text xml:space="preserve" text-anchor="middle" x="1222.88" y="-132.5" font-family="Helvetica,sans-Serif" font-size="10.00">&lt; R(Args...) const, C &gt;</text>
</a>
</g>
</g>
<!-- Node2&#45;&gt;Node6 -->
<g id="edge8_Node000006_Node000002" class="edge">
<title>Node2&#45;&gt;Node6</title>
<g id="a_edge8_Node000006_Node000002"><a xlink:title=" ">
<path fill="none" stroke="#63b8ff" d="M600.15,-215.4C697.4,-193.34 892.95,-153.11 1061.5,-144 1095.42,-142.17 1133.43,-141.63 1163.94,-141.56"/>
<polygon fill="#63b8ff" stroke="#63b8ff" points="599.51,-211.96 590.54,-217.6 601.07,-218.78 599.51,-211.96"/>
</a>
</g>
</g>
<!-- Node7 -->
<g id="Node000007" class="node">
<title>Node7</title>
<g id="a_Node000007"><a xlink:href="../../dd/db6/structmstd_1_1function__traits_3_01_r_07_args_8_8_8_08_00_01_c_01_4.html" target="_top" xlink:title=" ">
<polygon fill="white" stroke="#666666" points="1042.5,-321 937.25,-321 937.25,-289 1042.5,-289 1042.5,-321"/>
<text xml:space="preserve" text-anchor="start" x="945.25" y="-307.5" font-family="Helvetica,sans-Serif" font-size="10.00">mstd::function_traits</text>
<text xml:space="preserve" text-anchor="middle" x="989.88" y="-295.5" font-family="Helvetica,sans-Serif" font-size="10.00">&lt; R(Args...), C &gt;</text>
</a>
</g>
</g>
<!-- Node2&#45;&gt;Node7 -->
<g id="edge10_Node000007_Node000002" class="edge">
<title>Node2&#45;&gt;Node7</title>
<g id="a_edge10_Node000007_Node000002"><a xlink:title=" ">
<path fill="none" stroke="#63b8ff" d="M600.47,-242.88C624.85,-247.94 653.11,-253.77 678.75,-259 749.49,-273.43 766.57,-280.54 838,-291 870.8,-295.8 907.86,-299.27 937.04,-301.55"/>
<polygon fill="#63b8ff" stroke="#63b8ff" points="601.19,-239.45 590.68,-240.85 599.76,-246.31 601.19,-239.45"/>
</a>
</g>
</g>
<!-- Node12 -->
<g id="Node000012" class="node">
<title>Node12</title>
<g id="a_Node000012"><a xlink:href="../../d7/dcb/structmstd_1_1function__traits.html" target="_top" xlink:title=" ">
<polygon fill="white" stroke="#666666" points="802,-250 696.75,-250 696.75,-218 802,-218 802,-250"/>
<text xml:space="preserve" text-anchor="start" x="704.75" y="-236.5" font-family="Helvetica,sans-Serif" font-size="10.00">mstd::function_traits</text>
<text xml:space="preserve" text-anchor="middle" x="749.38" y="-224.5" font-family="Helvetica,sans-Serif" font-size="10.00">&lt; F, C &gt;</text>
</a>
</g>
</g>
<!-- Node2&#45;&gt;Node12 -->
<g id="edge19_Node000012_Node000002" class="edge">
<title>Node2&#45;&gt;Node12</title>
<g id="a_edge19_Node000012_Node000002"><a xlink:title=" ">
<path fill="none" stroke="#63b8ff" d="M600.52,-231.18C631.04,-231.76 667.44,-232.46 696.48,-233.01"/>
<polygon fill="#63b8ff" stroke="#63b8ff" points="600.71,-227.68 590.65,-230.99 600.58,-234.68 600.71,-227.68"/>
</a>
</g>
</g>
<!-- Node3 -->
<g id="Node000003" class="node">
<title>Node3</title>
<g id="a_Node000003"><a xlink:title=" ">
<polygon fill="white" stroke="#666666" points="155.5,-196 0,-196 0,-164 155.5,-164 155.5,-196"/>
<text xml:space="preserve" text-anchor="start" x="8" y="-182.5" font-family="Helvetica,sans-Serif" font-size="10.00">static _MSTD_CONSTEXPR17</text>
<text xml:space="preserve" text-anchor="middle" x="77.75" y="-170.5" font-family="Helvetica,sans-Serif" font-size="10.00"> const bool</text>
</a>
</g>
</g>
<!-- Node3&#45;&gt;Node1 -->
<g id="edge25_Node000001_Node000003" class="edge">
<title>Node3&#45;&gt;Node1</title>
<g id="a_edge25_Node000001_Node000003"><a xlink:title=" ">
<path fill="none" stroke="#9a32cd" stroke-dasharray="5,2" d="M79.72,-207.81C84.89,-310.45 117.59,-662 322.62,-662 322.62,-662 322.62,-662 1395,-662 1540.19,-662 1564.78,-415.82 1568.92,-339.37"/>
<polygon fill="#9a32cd" stroke="#9a32cd" points="83.21,-207.66 79.27,-197.83 76.22,-207.97 83.21,-207.66"/>
</a>
</g>
<text xml:space="preserve" text-anchor="start" x="851.88" y="-667.5" font-family="Helvetica,sans-Serif" font-size="10.00" fill="grey">is_noexcept</text>
</g>
<!-- Node3&#45;&gt;Node2 -->
<g id="edge2_Node000002_Node000003" class="edge">
<title>Node3&#45;&gt;Node2</title>
<g id="a_edge2_Node000002_Node000003"><a xlink:title=" ">
<path fill="none" stroke="#9a32cd" stroke-dasharray="5,2" d="M114.41,-158.04C170.69,-126.29 283.22,-74.6 375.5,-106 434.65,-126.12 489.03,-177.7 516.96,-207.61"/>
<polygon fill="#9a32cd" stroke="#9a32cd" points="112.8,-154.93 105.88,-162.96 116.29,-161 112.8,-154.93"/>
</a>
</g>
<text xml:space="preserve" text-anchor="start" x="286.5" y="-271.5" font-family="Helvetica,sans-Serif" font-size="10.00" fill="grey">is_const</text>
<text xml:space="preserve" text-anchor="start" x="286.5" y="-255.5" font-family="Helvetica,sans-Serif" font-size="10.00" fill="grey">is_free</text>
<text xml:space="preserve" text-anchor="start" x="286.5" y="-239.5" font-family="Helvetica,sans-Serif" font-size="10.00" fill="grey">is_functor</text>
<text xml:space="preserve" text-anchor="start" x="286.5" y="-223.5" font-family="Helvetica,sans-Serif" font-size="10.00" fill="grey">is_member</text>
<text xml:space="preserve" text-anchor="start" x="286.5" y="-207.5" font-family="Helvetica,sans-Serif" font-size="10.00" fill="grey">is_moved</text>
<text xml:space="preserve" text-anchor="start" x="286.5" y="-191.5" font-family="Helvetica,sans-Serif" font-size="10.00" fill="grey">is_noexcept</text>
<text xml:space="preserve" text-anchor="start" x="286.5" y="-175.5" font-family="Helvetica,sans-Serif" font-size="10.00" fill="grey">is_parent_moved</text>
<text xml:space="preserve" text-anchor="start" x="286.5" y="-159.5" font-family="Helvetica,sans-Serif" font-size="10.00" fill="grey">is_parent_ref</text>
<text xml:space="preserve" text-anchor="start" x="286.5" y="-143.5" font-family="Helvetica,sans-Serif" font-size="10.00" fill="grey">is_ptr</text>
<text xml:space="preserve" text-anchor="start" x="286.5" y="-127.5" font-family="Helvetica,sans-Serif" font-size="10.00" fill="grey">is_ref</text>
<text xml:space="preserve" text-anchor="start" x="286.5" y="-111.5" font-family="Helvetica,sans-Serif" font-size="10.00" fill="grey"> &#160;...</text>
</g>
<!-- Node4 -->
<g id="Node000004" class="node">
<title>Node4</title>
<g id="a_Node000004"><a xlink:href="../../d0/d74/structmstd_1_1utils_1_1function__default__type__traits.html" target="_top" xlink:title=" ">
<polygon fill="white" stroke="#666666" points="374.75,-370 272.5,-370 272.5,-326 374.75,-326 374.75,-370"/>
<text xml:space="preserve" text-anchor="start" x="280.5" y="-356.5" font-family="Helvetica,sans-Serif" font-size="10.00">mstd::utils::function</text>
<text xml:space="preserve" text-anchor="start" x="280.5" y="-344.5" font-family="Helvetica,sans-Serif" font-size="10.00">_default_type_traits</text>
<text xml:space="preserve" text-anchor="middle" x="323.62" y="-332.5" font-family="Helvetica,sans-Serif" font-size="10.00">&lt; IsMember &gt;</text>
</a>
</g>
</g>
<!-- Node3&#45;&gt;Node4 -->
<g id="edge4_Node000004_Node000003" class="edge">
<title>Node3&#45;&gt;Node4</title>
<g id="a_edge4_Node000004_Node000003"><a xlink:title=" ">
<path fill="none" stroke="#9a32cd" stroke-dasharray="5,2" d="M166.91,-192.68C207.04,-199.25 247.11,-207.29 253.75,-214 284.9,-245.47 247.92,-274.68 271.75,-312 275.01,-317.11 279.28,-321.7 283.96,-325.77"/>
<polygon fill="#9a32cd" stroke="#9a32cd" points="167.55,-189.23 157.12,-191.1 166.43,-196.14 167.55,-189.23"/>
</a>
</g>
<text xml:space="preserve" text-anchor="start" x="176.5" y="-379.5" font-family="Helvetica,sans-Serif" font-size="10.00" fill="grey">is_const</text>
<text xml:space="preserve" text-anchor="start" x="176.5" y="-363.5" font-family="Helvetica,sans-Serif" font-size="10.00" fill="grey">is_free</text>
<text xml:space="preserve" text-anchor="start" x="176.5" y="-347.5" font-family="Helvetica,sans-Serif" font-size="10.00" fill="grey">is_functor</text>
<text xml:space="preserve" text-anchor="start" x="176.5" y="-331.5" font-family="Helvetica,sans-Serif" font-size="10.00" fill="grey">is_member</text>
<text xml:space="preserve" text-anchor="start" x="176.5" y="-315.5" font-family="Helvetica,sans-Serif" font-size="10.00" fill="grey">is_moved</text>
<text xml:space="preserve" text-anchor="start" x="176.5" y="-299.5" font-family="Helvetica,sans-Serif" font-size="10.00" fill="grey">is_noexcept</text>
<text xml:space="preserve" text-anchor="start" x="176.5" y="-283.5" font-family="Helvetica,sans-Serif" font-size="10.00" fill="grey">is_parent_moved</text>
<text xml:space="preserve" text-anchor="start" x="176.5" y="-267.5" font-family="Helvetica,sans-Serif" font-size="10.00" fill="grey">is_parent_ref</text>
<text xml:space="preserve" text-anchor="start" x="176.5" y="-251.5" font-family="Helvetica,sans-Serif" font-size="10.00" fill="grey">is_ptr</text>
<text xml:space="preserve" text-anchor="start" x="176.5" y="-235.5" font-family="Helvetica,sans-Serif" font-size="10.00" fill="grey">is_ref</text>
<text xml:space="preserve" text-anchor="start" x="176.5" y="-219.5" font-family="Helvetica,sans-Serif" font-size="10.00" fill="grey"> &#160;...</text>
</g>
<!-- Node3&#45;&gt;Node5 -->
<g id="edge23_Node000005_Node000003" class="edge">
<title>Node3&#45;&gt;Node5</title>
<g id="a_edge23_Node000005_Node000003"><a xlink:title=" ">
<path fill="none" stroke="#9a32cd" stroke-dasharray="5,2" d="M92.83,-153.75C108.96,-125.95 137.82,-82.5 173.5,-56 230.34,-13.79 251.83,0 322.62,0 322.62,0 322.62,0 1223.88,0 1301.32,0 1361.85,-88.41 1383.94,-125.71"/>
<polygon fill="#9a32cd" stroke="#9a32cd" points="89.9,-151.83 88.03,-162.25 96,-155.27 89.9,-151.83"/>
</a>
</g>
<text xml:space="preserve" text-anchor="start" x="727.62" y="-5.5" font-family="Helvetica,sans-Serif" font-size="10.00" fill="grey">is_volatile</text>
</g>
<!-- Node3&#45;&gt;Node6 -->
<g id="edge21_Node000006_Node000003" class="edge">
<title>Node3&#45;&gt;Node6</title>
<g id="a_edge21_Node000006_Node000003"><a xlink:title=" ">
<path fill="none" stroke="#9a32cd" stroke-dasharray="5,2" d="M103.11,-155.63C144.43,-116.99 232.61,-46 322.62,-46 322.62,-46 322.62,-46 879.12,-46 995.92,-46 1127.08,-98.33 1187.73,-125.71"/>
<polygon fill="#9a32cd" stroke="#9a32cd" points="100.7,-153.09 95.88,-162.52 105.53,-158.15 100.7,-153.09"/>
</a>
</g>
<text xml:space="preserve" text-anchor="start" x="621" y="-51.5" font-family="Helvetica,sans-Serif" font-size="10.00" fill="grey">is_const</text>
</g>
<!-- Node11 -->
<g id="Node000011" class="node">
<title>Node11</title>
<g id="a_Node000011"><a xlink:href="../../d0/d74/structmstd_1_1utils_1_1function__default__type__traits.html" target="_top" xlink:title=" ">
<polygon fill="white" stroke="#666666" points="588.75,-370 486.5,-370 486.5,-326 588.75,-326 588.75,-370"/>
<text xml:space="preserve" text-anchor="start" x="494.5" y="-356.5" font-family="Helvetica,sans-Serif" font-size="10.00">mstd::utils::function</text>
<text xml:space="preserve" text-anchor="start" x="494.5" y="-344.5" font-family="Helvetica,sans-Serif" font-size="10.00">_default_type_traits</text>
<text xml:space="preserve" text-anchor="middle" x="537.62" y="-332.5" font-family="Helvetica,sans-Serif" font-size="10.00">&lt; true &gt;</text>
</a>
</g>
</g>
<!-- Node3&#45;&gt;Node11 -->
<g id="edge16_Node000011_Node000003" class="edge">
<title>Node3&#45;&gt;Node11</title>
<g id="a_edge16_Node000011_Node000003"><a xlink:title=" ">
<path fill="none" stroke="#9a32cd" stroke-dasharray="5,2" d="M81.68,-207.41C88.38,-254.7 109.55,-350.54 173.5,-392 226.57,-426.41 395.14,-381.95 457.25,-370 466.66,-368.19 476.58,-365.82 486.1,-363.31"/>
<polygon fill="#9a32cd" stroke="#9a32cd" points="85.18,-207.2 80.43,-197.73 78.24,-208.1 85.18,-207.2"/>
</a>
</g>
<text xml:space="preserve" text-anchor="start" x="286.5" y="-568.41" font-family="Helvetica,sans-Serif" font-size="10.00" fill="grey">is_const</text>
<text xml:space="preserve" text-anchor="start" x="286.5" y="-552.41" font-family="Helvetica,sans-Serif" font-size="10.00" fill="grey">is_free</text>
<text xml:space="preserve" text-anchor="start" x="286.5" y="-536.41" font-family="Helvetica,sans-Serif" font-size="10.00" fill="grey">is_functor</text>
<text xml:space="preserve" text-anchor="start" x="286.5" y="-520.41" font-family="Helvetica,sans-Serif" font-size="10.00" fill="grey">is_member</text>
<text xml:space="preserve" text-anchor="start" x="286.5" y="-504.41" font-family="Helvetica,sans-Serif" font-size="10.00" fill="grey">is_moved</text>
<text xml:space="preserve" text-anchor="start" x="286.5" y="-488.41" font-family="Helvetica,sans-Serif" font-size="10.00" fill="grey">is_noexcept</text>
<text xml:space="preserve" text-anchor="start" x="286.5" y="-472.41" font-family="Helvetica,sans-Serif" font-size="10.00" fill="grey">is_parent_moved</text>
<text xml:space="preserve" text-anchor="start" x="286.5" y="-456.41" font-family="Helvetica,sans-Serif" font-size="10.00" fill="grey">is_parent_ref</text>
<text xml:space="preserve" text-anchor="start" x="286.5" y="-440.41" font-family="Helvetica,sans-Serif" font-size="10.00" fill="grey">is_ptr</text>
<text xml:space="preserve" text-anchor="start" x="286.5" y="-424.41" font-family="Helvetica,sans-Serif" font-size="10.00" fill="grey">is_ref</text>
<text xml:space="preserve" text-anchor="start" x="286.5" y="-408.41" font-family="Helvetica,sans-Serif" font-size="10.00" fill="grey"> &#160;...</text>
</g>
<!-- Node3&#45;&gt;Node12 -->
<g id="edge20_Node000012_Node000003" class="edge">
<title>Node3&#45;&gt;Node12</title>
<g id="a_edge20_Node000012_Node000003"><a xlink:title=" ">
<path fill="none" stroke="#9a32cd" stroke-dasharray="5,2" d="M166.94,-166.68C197.74,-166.88 230.42,-173.26 253.75,-194 284.24,-221.1 240.2,-258.14 271.75,-284 335.53,-336.29 586.37,-277.6 696.29,-248.47"/>
<polygon fill="#9a32cd" stroke="#9a32cd" points="167.14,-163.17 157.21,-166.84 167.26,-170.17 167.14,-163.17"/>
</a>
</g>
<text xml:space="preserve" text-anchor="start" x="410.75" y="-309.45" font-family="Helvetica,sans-Serif" font-size="10.00" fill="grey">is_free</text>
</g>
<!-- Node4&#45;&gt;Node2 -->
<g id="edge3_Node000002_Node000004" class="edge">
<title>Node4&#45;&gt;Node2</title>
<g id="a_edge3_Node000002_Node000004"><a xlink:title=" ">
<path fill="none" stroke="orange" stroke-dasharray="5,2" d="M345.33,-316.27C360.82,-293.49 381.36,-265.53 393.5,-258 421.14,-240.85 457.1,-233.86 486.05,-231.15"/>
<polygon fill="orange" stroke="orange" points="342.55,-314.13 339.88,-324.39 348.36,-318.04 342.55,-314.13"/>
</a>
</g>
<text xml:space="preserve" text-anchor="start" x="405.88" y="-263.5" font-family="Helvetica,sans-Serif" font-size="10.00" fill="grey">&lt; false &gt;</text>
</g>
<!-- Node4&#45;&gt;Node11 -->
<g id="edge17_Node000011_Node000004" class="edge">
<title>Node4&#45;&gt;Node11</title>
<g id="a_edge17_Node000011_Node000004"><a xlink:title=" ">
<path fill="none" stroke="orange" stroke-dasharray="5,2" d="M386.49,-348C418.17,-348 456.25,-348 486.14,-348"/>
<polygon fill="orange" stroke="orange" points="386.65,-344.5 376.65,-348 386.65,-351.5 386.65,-344.5"/>
</a>
</g>
<text xml:space="preserve" text-anchor="start" x="408.12" y="-353.5" font-family="Helvetica,sans-Serif" font-size="10.00" fill="grey">&lt; true &gt;</text>
</g>
<!-- Node5&#45;&gt;Node1 -->
<g id="edge5_Node000001_Node000005" class="edge">
<title>Node5&#45;&gt;Node1</title>
<g id="a_edge5_Node000001_Node000005"><a xlink:title=" ">
<path fill="none" stroke="#63b8ff" d="M1419.48,-166.51C1453.53,-200.62 1514.7,-261.88 1547.52,-294.73"/>
<polygon fill="#63b8ff" stroke="#63b8ff" points="1422.05,-164.14 1412.51,-159.53 1417.1,-169.08 1422.05,-164.14"/>
</a>
</g>
</g>
<!-- Node6&#45;&gt;Node5 -->
<g id="edge7_Node000005_Node000006" class="edge">
<title>Node6&#45;&gt;Node5</title>
<g id="a_edge7_Node000005_Node000006"><a xlink:title=" ">
<path fill="none" stroke="#63b8ff" d="M1292.83,-142C1301.19,-142 1309.75,-142 1318.19,-142"/>
<polygon fill="#63b8ff" stroke="#63b8ff" points="1293.12,-138.5 1283.12,-142 1293.12,-145.5 1293.12,-138.5"/>
</a>
</g>
</g>
<!-- Node7&#45;&gt;Node6 -->
<g id="edge9_Node000006_Node000007" class="edge">
<title>Node7&#45;&gt;Node6</title>
<g id="a_edge9_Node000006_Node000007"><a xlink:title=" ">
<path fill="none" stroke="#63b8ff" d="M1053.76,-290.68C1083.85,-281.65 1119.14,-267.69 1146.25,-247 1178.22,-222.6 1202.45,-180.99 1214.14,-158.16"/>
<polygon fill="#63b8ff" stroke="#63b8ff" points="1053.03,-287.25 1044.39,-293.37 1054.96,-293.98 1053.03,-287.25"/>
</a>
</g>
</g>
<!-- Node8 -->
<g id="Node000008" class="node">
<title>Node8</title>
<g id="a_Node000008"><a xlink:href="../../d1/d4f/structmstd_1_1utils_1_1function__core__traits_3_01_r_07_args_8_8_8_08_00_01_c_01_4.html" target="_top" xlink:title=" ">
<polygon fill="white" stroke="#666666" points="820,-580 678.75,-580 678.75,-548 820,-548 820,-580"/>
<text xml:space="preserve" text-anchor="start" x="686.75" y="-566.5" font-family="Helvetica,sans-Serif" font-size="10.00">mstd::utils::function</text>
<text xml:space="preserve" text-anchor="middle" x="749.38" y="-554.5" font-family="Helvetica,sans-Serif" font-size="10.00">_core_traits&lt; R(Args...), C &gt;</text>
</a>
</g>
</g>
<!-- Node8&#45;&gt;Node7 -->
<g id="edge11_Node000007_Node000008" class="edge">
<title>Node8&#45;&gt;Node7</title>
<g id="a_edge11_Node000007_Node000008"><a xlink:title=" ">
<path fill="none" stroke="#63b8ff" d="M773.01,-539.41C821.34,-486.94 933.48,-365.16 973.96,-321.2"/>
<polygon fill="#63b8ff" stroke="#63b8ff" points="770.52,-536.96 766.32,-546.68 775.67,-541.7 770.52,-536.96"/>
</a>
</g>
</g>
<!-- Node9 -->
<g id="Node000009" class="node">
<title>Node9</title>
<g id="a_Node000009"><a xlink:href="../../df/db9/structmstd_1_1utils_1_1function__core__traits.html" target="_top" xlink:title=" ">
<polygon fill="white" stroke="#666666" points="600,-580 475.25,-580 475.25,-548 600,-548 600,-580"/>
<text xml:space="preserve" text-anchor="start" x="483.25" y="-566.5" font-family="Helvetica,sans-Serif" font-size="10.00">mstd::utils::function</text>
<text xml:space="preserve" text-anchor="middle" x="537.62" y="-554.5" font-family="Helvetica,sans-Serif" font-size="10.00">_core_traits&lt; R(Args...)&gt;</text>
</a>
</g>
</g>
<!-- Node9&#45;&gt;Node8 -->
<g id="edge12_Node000008_Node000009" class="edge">
<title>Node9&#45;&gt;Node8</title>
<g id="a_edge12_Node000008_Node000009"><a xlink:title=" ">
<path fill="none" stroke="#63b8ff" d="M611.87,-564C633.52,-564 657.14,-564 678.56,-564"/>
<polygon fill="#63b8ff" stroke="#63b8ff" points="611.94,-560.5 601.94,-564 611.94,-567.5 611.94,-560.5"/>
</a>
</g>
</g>
<!-- Node10 -->
<g id="Node000010" class="node">
<title>Node10</title>
<g id="a_Node000010"><a xlink:href="../../df/db9/structmstd_1_1utils_1_1function__core__traits.html" target="_top" xlink:title=" ">
<polygon fill="white" stroke="#666666" points="375.5,-634 271.75,-634 271.75,-602 375.5,-602 375.5,-634"/>
<text xml:space="preserve" text-anchor="start" x="279.75" y="-620.5" font-family="Helvetica,sans-Serif" font-size="10.00">mstd::utils::function</text>
<text xml:space="preserve" text-anchor="middle" x="323.62" y="-608.5" font-family="Helvetica,sans-Serif" font-size="10.00">_core_traits&lt; F, C &gt;</text>
</a>
</g>
</g>
<!-- Node10&#45;&gt;Node8 -->
<g id="edge14_Node000008_Node000010" class="edge">
<title>Node10&#45;&gt;Node8</title>
<g id="a_edge14_Node000008_Node000010"><a xlink:title=" ">
<path fill="none" stroke="orange" stroke-dasharray="5,2" d="M387.14,-612.53C443.04,-607.37 527.15,-598.96 600,-589 625.62,-585.5 653.62,-580.96 678.32,-576.72"/>
<polygon fill="orange" stroke="orange" points="387.15,-609.01 377.51,-613.41 387.78,-615.99 387.15,-609.01"/>
</a>
</g>
<text xml:space="preserve" text-anchor="start" x="500.5" y="-609" font-family="Helvetica,sans-Serif" font-size="10.00" fill="grey">&lt; R(Args...), C &gt;</text>
</g>
<!-- Node10&#45;&gt;Node9 -->
<g id="edge13_Node000009_Node000010" class="edge">
<title>Node10&#45;&gt;Node9</title>
<g id="a_edge13_Node000009_Node000010"><a xlink:title=" ">
<path fill="none" stroke="orange" stroke-dasharray="5,2" d="M362.78,-596.47C372.55,-591.72 383.2,-587.17 393.5,-584 419.64,-575.95 449.46,-571.13 475.1,-568.25"/>
<polygon fill="orange" stroke="orange" points="361.28,-593.31 353.95,-600.96 364.45,-599.56 361.28,-593.31"/>
</a>
</g>
<text xml:space="preserve" text-anchor="start" x="396.5" y="-589.5" font-family="Helvetica,sans-Serif" font-size="10.00" fill="grey">&lt; R(Args...)&gt;</text>
</g>
<!-- Node11&#45;&gt;Node7 -->
<g id="edge15_Node000007_Node000011" class="edge">
<title>Node11&#45;&gt;Node7</title>
<g id="a_edge15_Node000007_Node000011"><a xlink:title=" ">
<path fill="none" stroke="#63b8ff" d="M600.23,-344.15C675.44,-339.13 806.44,-329.4 918.25,-316 924.29,-315.28 930.6,-314.43 936.86,-313.53"/>
<polygon fill="#63b8ff" stroke="#63b8ff" points="600.35,-340.63 590.6,-344.78 600.81,-347.61 600.35,-340.63"/>
</a>
</g>
</g>
<!-- Node12&#45;&gt;Node1 -->
<g id="edge26_Node000001_Node000012" class="edge">
<title>Node12&#45;&gt;Node1</title>
<g id="a_edge26_Node000001_Node000012"><a xlink:title=" ">
<path fill="none" stroke="orange" stroke-dasharray="5,2" d="M813.7,-240.41C966.37,-255.88 1353.39,-295.08 1506.25,-310.57"/>
<polygon fill="orange" stroke="orange" points="814.06,-236.93 803.76,-239.41 813.35,-243.9 814.06,-236.93"/>
</a>
</g>
<text xml:space="preserve" text-anchor="start" x="1170.38" y="-309.28" font-family="Helvetica,sans-Serif" font-size="10.00" fill="grey">&lt; R(Args...) const</text>
<text xml:space="preserve" text-anchor="start" x="1170.38" y="-293.28" font-family="Helvetica,sans-Serif" font-size="10.00" fill="grey">   volatile noexcept, C &gt;</text>
</g>
<!-- Node12&#45;&gt;Node5 -->
<g id="edge24_Node000005_Node000012" class="edge">
<title>Node12&#45;&gt;Node5</title>
<g id="a_edge24_Node000005_Node000012"><a xlink:title=" ">
<path fill="none" stroke="orange" stroke-dasharray="5,2" d="M813.66,-228.07C913.52,-218.24 1113.57,-196.7 1281.5,-167 1295.37,-164.55 1310.12,-161.53 1324.2,-158.45"/>
<polygon fill="orange" stroke="orange" points="813.39,-224.58 803.78,-229.03 814.08,-231.54 813.39,-224.58"/>
</a>
</g>
<text xml:space="preserve" text-anchor="start" x="1064.5" y="-221.25" font-family="Helvetica,sans-Serif" font-size="10.00" fill="grey">&lt; R(Args...) const</text>
<text xml:space="preserve" text-anchor="start" x="1064.5" y="-205.25" font-family="Helvetica,sans-Serif" font-size="10.00" fill="grey">   volatile, C &gt;</text>
</g>
<!-- Node12&#45;&gt;Node6 -->
<g id="edge22_Node000006_Node000012" class="edge">
<title>Node12&#45;&gt;Node6</title>
<g id="a_edge22_Node000006_Node000012"><a xlink:title=" ">
<path fill="none" stroke="orange" stroke-dasharray="5,2" d="M798.57,-213.42C811.24,-208.53 825,-203.68 838,-200 951.01,-168.03 1088.03,-152.71 1164.01,-146.19"/>
<polygon fill="orange" stroke="orange" points="797.65,-210.02 789.64,-216.95 800.22,-216.53 797.65,-210.02"/>
</a>
</g>
<text xml:space="preserve" text-anchor="start" x="939.25" y="-181.43" font-family="Helvetica,sans-Serif" font-size="10.00" fill="grey">&lt; R(Args...) const, C &gt;</text>
</g>
<!-- Node12&#45;&gt;Node7 -->
<g id="edge18_Node000007_Node000012" class="edge">
<title>Node12&#45;&gt;Node7</title>
<g id="a_edge18_Node000007_Node000012"><a xlink:title=" ">
<path fill="none" stroke="orange" stroke-dasharray="5,2" d="M813.13,-245.51C845.03,-252.13 884.16,-261.44 918.25,-273 931,-277.32 944.56,-283.15 956.36,-288.65"/>
<polygon fill="orange" stroke="orange" points="814.15,-242.15 803.65,-243.59 812.75,-249.01 814.15,-242.15"/>
</a>
</g>
<text xml:space="preserve" text-anchor="start" x="841" y="-278.5" font-family="Helvetica,sans-Serif" font-size="10.00" fill="grey">&lt; R(Args...), C &gt;</text>
</g>
</g>
</svg>
