<?xml version="1.0" encoding="UTF-8" standalone="no"?>
<!DOCTYPE svg PUBLIC "-//W3C//DTD SVG 1.1//EN"
 "http://www.w3.org/Graphics/SVG/1.1/DTD/svg11.dtd">
<!-- Generated by graphviz version 14.1.1 (20251213.1925)
 -->
<!-- Title: mstd::function_traits&lt; R(C::*)(Args...) const volatile &amp;noexcept &gt; Pages: 1 -->
<svg width="2080pt" height="781pt"
 viewBox="0.00 0.00 2080.00 781.00" xmlns="http://www.w3.org/2000/svg" xmlns:xlink="http://www.w3.org/1999/xlink">
<g id="graph0" class="graph" transform="scale(1 1) rotate(0) translate(4 777.37)">
<title>mstd::function_traits&lt; R(C::*)(Args...) const volatile &amp;noexcept &gt;</title>
<!-- Node1 -->
<g id="Node000001" class="node">
<title>Node1</title>
<g id="a_Node000001"><a xlink:title=" ">
<polygon fill="#999999" stroke="#666666" points="2072.25,-179.74 1954.25,-179.74 1954.25,-135.74 2072.25,-135.74 2072.25,-179.74"/>
<text xml:space="preserve" text-anchor="start" x="1962.25" y="-166.24" font-family="Helvetica,sans-Serif" font-size="10.00">mstd::function_traits</text>
<text xml:space="preserve" text-anchor="start" x="1962.25" y="-154.24" font-family="Helvetica,sans-Serif" font-size="10.00">&lt; R(C::*)(Args...) const</text>
<text xml:space="preserve" text-anchor="middle" x="2013.25" y="-142.24" font-family="Helvetica,sans-Serif" font-size="10.00"> volatile &amp;noexcept &gt;</text>
</a>
</g>
</g>
<!-- Node2 -->
<g id="Node000002" class="node">
<title>Node2</title>
<g id="a_Node000002"><a xlink:href="../../d0/d74/structmstd_1_1utils_1_1function__default__type__traits.html" target="_top" xlink:title=" ">
<polygon fill="white" stroke="#666666" points="588.75,-227.74 486.5,-227.74 486.5,-183.74 588.75,-183.74 588.75,-227.74"/>
<text xml:space="preserve" text-anchor="start" x="494.5" y="-214.24" font-family="Helvetica,sans-Serif" font-size="10.00">mstd::utils::function</text>
<text xml:space="preserve" text-anchor="start" x="494.5" y="-202.24" font-family="Helvetica,sans-Serif" font-size="10.00">_default_type_traits</text>
<text xml:space="preserve" text-anchor="middle" x="537.62" y="-190.24" font-family="Helvetica,sans-Serif" font-size="10.00">&lt; false &gt;</text>
</a>
</g>
</g>
<!-- Node2&#45;&gt;Node1 -->
<g id="edge1_Node000001_Node000002" class="edge">
<title>Node2&#45;&gt;Node1</title>
<g id="a_edge1_Node000001_Node000002"><a xlink:title=" ">
<path fill="none" stroke="#63b8ff" d="M561.47,-174.61C596.43,-130.94 667.68,-56.74 748.38,-56.74 748.38,-56.74 748.38,-56.74 1854,-56.74 1912.02,-56.74 1965.86,-105.57 1993.29,-135.33"/>
<polygon fill="#63b8ff" stroke="#63b8ff" points="558.91,-172.21 555.5,-182.24 564.42,-176.52 558.91,-172.21"/>
</a>
</g>
</g>
<!-- Node5 -->
<g id="Node000005" class="node">
<title>Node5</title>
<g id="a_Node000005"><a xlink:href="../../d3/d6e/structmstd_1_1function__traits_3_01_r_07_args_8_8_8_08_01const_01volatile_01_6noexcept_00_01_c_01_4.html" target="_top" xlink:title=" ">
<polygon fill="white" stroke="#666666" points="1917.25,-179.74 1788.75,-179.74 1788.75,-135.74 1917.25,-135.74 1917.25,-179.74"/>
<text xml:space="preserve" text-anchor="start" x="1796.75" y="-166.24" font-family="Helvetica,sans-Serif" font-size="10.00">mstd::function_traits</text>
<text xml:space="preserve" text-anchor="start" x="1796.75" y="-154.24" font-family="Helvetica,sans-Serif" font-size="10.00">&lt; R(Args...) const volatile</text>
<text xml:space="preserve" text-anchor="middle" x="1853" y="-142.24" font-family="Helvetica,sans-Serif" font-size="10.00"> &amp;noexcept, C &gt;</text>
</a>
</g>
</g>
<!-- Node2&#45;&gt;Node5 -->
<g id="edge6_Node000005_Node000002" class="edge">
<title>Node2&#45;&gt;Node5</title>
<g id="a_edge6_Node000005_Node000002"><a xlink:title=" ">
<path fill="none" stroke="#63b8ff" d="M585.87,-177.95C627.27,-156.25 689.82,-129.74 748.38,-129.74 748.38,-129.74 748.38,-129.74 1688.5,-129.74 1721.76,-129.74 1758.29,-135.44 1788.37,-141.7"/>
<polygon fill="#63b8ff" stroke="#63b8ff" points="584.3,-174.82 577.15,-182.63 587.61,-180.99 584.3,-174.82"/>
</a>
</g>
</g>
<!-- Node6 -->
<g id="Node000006" class="node">
<title>Node6</title>
<g id="a_Node000006"><a xlink:href="../../dd/d03/structmstd_1_1function__traits_3_01_r_07_args_8_8_8_08_01const_01volatile_01_6_00_01_c_01_4.html" target="_top" xlink:title=" ">
<polygon fill="white" stroke="#666666" points="1751.75,-472.74 1623.25,-472.74 1623.25,-428.74 1751.75,-428.74 1751.75,-472.74"/>
<text xml:space="preserve" text-anchor="start" x="1631.25" y="-459.24" font-family="Helvetica,sans-Serif" font-size="10.00">mstd::function_traits</text>
<text xml:space="preserve" text-anchor="start" x="1631.25" y="-447.24" font-family="Helvetica,sans-Serif" font-size="10.00">&lt; R(Args...) const volatile</text>
<text xml:space="preserve" text-anchor="middle" x="1687.5" y="-435.24" font-family="Helvetica,sans-Serif" font-size="10.00"> &amp;, C &gt;</text>
</a>
</g>
</g>
<!-- Node2&#45;&gt;Node6 -->
<g id="edge8_Node000006_Node000002" class="edge">
<title>Node2&#45;&gt;Node6</title>
<g id="a_edge8_Node000006_Node000002"><a xlink:title=" ">
<path fill="none" stroke="#63b8ff" d="M600.06,-188.63C641.59,-178.54 697.86,-167.74 748.38,-167.74 748.38,-167.74 748.38,-167.74 1359.38,-167.74 1518.58,-167.74 1638.44,-361.82 1674.94,-428.53"/>
<polygon fill="#63b8ff" stroke="#63b8ff" points="599.35,-185.2 590.49,-191.01 601.04,-191.99 599.35,-185.2"/>
</a>
</g>
</g>
<!-- Node7 -->
<g id="Node000007" class="node">
<title>Node7</title>
<g id="a_Node000007"><a xlink:href="../../da/d58/structmstd_1_1function__traits_3_01_r_07_args_8_8_8_08_01const_01volatile_00_01_c_01_4.html" target="_top" xlink:title=" ">
<polygon fill="white" stroke="#666666" points="1586.25,-466.74 1435.25,-466.74 1435.25,-434.74 1586.25,-434.74 1586.25,-466.74"/>
<text xml:space="preserve" text-anchor="start" x="1443.25" y="-453.24" font-family="Helvetica,sans-Serif" font-size="10.00">mstd::function_traits</text>
<text xml:space="preserve" text-anchor="middle" x="1510.75" y="-441.24" font-family="Helvetica,sans-Serif" font-size="10.00">&lt; R(Args...) const volatile, C &gt;</text>
</a>
</g>
</g>
<!-- Node2&#45;&gt;Node7 -->
<g id="edge10_Node000007_Node000002" class="edge">
<title>Node2&#45;&gt;Node7</title>
<g id="a_edge10_Node000007_Node000002"><a xlink:title=" ">
<path fill="none" stroke="#63b8ff" d="M600.68,-199.48C713.08,-190.41 956.35,-181.28 1146.25,-247.74 1284.75,-296.21 1432.16,-395.46 1487.27,-434.47"/>
<polygon fill="#63b8ff" stroke="#63b8ff" points="600.42,-195.99 590.75,-200.31 601.01,-202.97 600.42,-195.99"/>
</a>
</g>
</g>
<!-- Node8 -->
<g id="Node000008" class="node">
<title>Node8</title>
<g id="a_Node000008"><a xlink:href="../../df/d15/structmstd_1_1function__traits_3_01_r_07_args_8_8_8_08_01const_00_01_c_01_4.html" target="_top" xlink:title=" ">
<polygon fill="white" stroke="#666666" points="1281.5,-403.74 1164.25,-403.74 1164.25,-371.74 1281.5,-371.74 1281.5,-403.74"/>
<text xml:space="preserve" text-anchor="start" x="1172.25" y="-390.24" font-family="Helvetica,sans-Serif" font-size="10.00">mstd::function_traits</text>
<text xml:space="preserve" text-anchor="middle" x="1222.88" y="-378.24" font-family="Helvetica,sans-Serif" font-size="10.00">&lt; R(Args...) const, C &gt;</text>
</a>
</g>
</g>
<!-- Node2&#45;&gt;Node8 -->
<g id="edge12_Node000008_Node000002" class="edge">
<title>Node2&#45;&gt;Node8</title>
<g id="a_edge12_Node000008_Node000002"><a xlink:title=" ">
<path fill="none" stroke="#63b8ff" d="M600.39,-214.42C606.34,-215.22 612.28,-216 618,-216.74 735.25,-231.86 1044.81,-219.03 1146.25,-279.74 1182,-301.13 1205.14,-346.7 1215.53,-371.25"/>
<polygon fill="#63b8ff" stroke="#63b8ff" points="600.87,-210.95 590.49,-213.07 599.93,-217.89 600.87,-210.95"/>
</a>
</g>
</g>
<!-- Node9 -->
<g id="Node000009" class="node">
<title>Node9</title>
<g id="a_Node000009"><a xlink:href="../../dd/db6/structmstd_1_1function__traits_3_01_r_07_args_8_8_8_08_00_01_c_01_4.html" target="_top" xlink:title=" ">
<polygon fill="white" stroke="#666666" points="1042.5,-403.74 937.25,-403.74 937.25,-371.74 1042.5,-371.74 1042.5,-403.74"/>
<text xml:space="preserve" text-anchor="start" x="945.25" y="-390.24" font-family="Helvetica,sans-Serif" font-size="10.00">mstd::function_traits</text>
<text xml:space="preserve" text-anchor="middle" x="989.88" y="-378.24" font-family="Helvetica,sans-Serif" font-size="10.00">&lt; R(Args...), C &gt;</text>
</a>
</g>
</g>
<!-- Node2&#45;&gt;Node9 -->
<g id="edge14_Node000009_Node000002" class="edge">
<title>Node2&#45;&gt;Node9</title>
<g id="a_edge14_Node000009_Node000002"><a xlink:title=" ">
<path fill="none" stroke="#63b8ff" d="M597.27,-232.74C604.23,-235.83 611.26,-238.89 618,-241.74 735.09,-291.3 875.17,-344.94 944.91,-371.26"/>
<polygon fill="#63b8ff" stroke="#63b8ff" points="599.09,-229.72 588.53,-228.84 596.23,-236.11 599.09,-229.72"/>
</a>
</g>
</g>
<!-- Node14 -->
<g id="Node000014" class="node">
<title>Node14</title>
<g id="a_Node000014"><a xlink:href="../../d7/dcb/structmstd_1_1function__traits.html" target="_top" xlink:title=" ">
<polygon fill="white" stroke="#666666" points="802,-522.74 696.75,-522.74 696.75,-490.74 802,-490.74 802,-522.74"/>
<text xml:space="preserve" text-anchor="start" x="704.75" y="-509.24" font-family="Helvetica,sans-Serif" font-size="10.00">mstd::function_traits</text>
<text xml:space="preserve" text-anchor="middle" x="749.38" y="-497.24" font-family="Helvetica,sans-Serif" font-size="10.00">&lt; F, C &gt;</text>
</a>
</g>
</g>
<!-- Node2&#45;&gt;Node14 -->
<g id="edge23_Node000014_Node000002" class="edge">
<title>Node2&#45;&gt;Node14</title>
<g id="a_edge23_Node000014_Node000002"><a xlink:title=" ">
<path fill="none" stroke="#63b8ff" d="M553.46,-238.21C585.25,-307.31 658.72,-464.07 678.75,-481.74 683.95,-486.33 690.06,-490.09 696.45,-493.18"/>
<polygon fill="#63b8ff" stroke="#63b8ff" points="556.71,-236.91 549.36,-229.28 550.35,-239.83 556.71,-236.91"/>
</a>
</g>
</g>
<!-- Node3 -->
<g id="Node000003" class="node">
<title>Node3</title>
<g id="a_Node000003"><a xlink:title=" ">
<polygon fill="white" stroke="#666666" points="155.5,-407.74 0,-407.74 0,-375.74 155.5,-375.74 155.5,-407.74"/>
<text xml:space="preserve" text-anchor="start" x="8" y="-394.24" font-family="Helvetica,sans-Serif" font-size="10.00">static _MSTD_CONSTEXPR17</text>
<text xml:space="preserve" text-anchor="middle" x="77.75" y="-382.24" font-family="Helvetica,sans-Serif" font-size="10.00"> const bool</text>
</a>
</g>
</g>
<!-- Node3&#45;&gt;Node2 -->
<g id="edge2_Node000002_Node000003" class="edge">
<title>Node3&#45;&gt;Node2</title>
<g id="a_edge2_Node000002_Node000003"><a xlink:title=" ">
<path fill="none" stroke="#9a32cd" stroke-dasharray="5,2" d="M85.4,-364.4C102.88,-299.29 156.92,-135.69 271.75,-70.74 362.5,-19.41 474.95,-133.14 518.35,-183.4"/>
<polygon fill="#9a32cd" stroke="#9a32cd" points="82.06,-363.34 82.93,-373.9 88.83,-365.09 82.06,-363.34"/>
</a>
</g>
<text xml:space="preserve" text-anchor="start" x="286.5" y="-236.24" font-family="Helvetica,sans-Serif" font-size="10.00" fill="grey">is_const</text>
<text xml:space="preserve" text-anchor="start" x="286.5" y="-220.24" font-family="Helvetica,sans-Serif" font-size="10.00" fill="grey">is_free</text>
<text xml:space="preserve" text-anchor="start" x="286.5" y="-204.24" font-family="Helvetica,sans-Serif" font-size="10.00" fill="grey">is_functor</text>
<text xml:space="preserve" text-anchor="start" x="286.5" y="-188.24" font-family="Helvetica,sans-Serif" font-size="10.00" fill="grey">is_member</text>
<text xml:space="preserve" text-anchor="start" x="286.5" y="-172.24" font-family="Helvetica,sans-Serif" font-size="10.00" fill="grey">is_moved</text>
<text xml:space="preserve" text-anchor="start" x="286.5" y="-156.24" font-family="Helvetica,sans-Serif" font-size="10.00" fill="grey">is_noexcept</text>
<text xml:space="preserve" text-anchor="start" x="286.5" y="-140.24" font-family="Helvetica,sans-Serif" font-size="10.00" fill="grey">is_parent_moved</text>
<text xml:space="preserve" text-anchor="start" x="286.5" y="-124.24" font-family="Helvetica,sans-Serif" font-size="10.00" fill="grey">is_parent_ref</text>
<text xml:space="preserve" text-anchor="start" x="286.5" y="-108.24" font-family="Helvetica,sans-Serif" font-size="10.00" fill="grey">is_ptr</text>
<text xml:space="preserve" text-anchor="start" x="286.5" y="-92.24" font-family="Helvetica,sans-Serif" font-size="10.00" fill="grey">is_ref</text>
<text xml:space="preserve" text-anchor="start" x="286.5" y="-76.24" font-family="Helvetica,sans-Serif" font-size="10.00" fill="grey"> &#160;...</text>
</g>
<!-- Node4 -->
<g id="Node000004" class="node">
<title>Node4</title>
<g id="a_Node000004"><a xlink:href="../../d0/d74/structmstd_1_1utils_1_1function__default__type__traits.html" target="_top" xlink:title=" ">
<polygon fill="white" stroke="#666666" points="374.75,-334.74 272.5,-334.74 272.5,-290.74 374.75,-290.74 374.75,-334.74"/>
<text xml:space="preserve" text-anchor="start" x="280.5" y="-321.24" font-family="Helvetica,sans-Serif" font-size="10.00">mstd::utils::function</text>
<text xml:space="preserve" text-anchor="start" x="280.5" y="-309.24" font-family="Helvetica,sans-Serif" font-size="10.00">_default_type_traits</text>
<text xml:space="preserve" text-anchor="middle" x="323.62" y="-297.24" font-family="Helvetica,sans-Serif" font-size="10.00">&lt; IsMember &gt;</text>
</a>
</g>
</g>
<!-- Node3&#45;&gt;Node4 -->
<g id="edge4_Node000004_Node000003" class="edge">
<title>Node3&#45;&gt;Node4</title>
<g id="a_edge4_Node000004_Node000003"><a xlink:title=" ">
<path fill="none" stroke="#9a32cd" stroke-dasharray="5,2" d="M95.26,-366.23C111.87,-343.16 139.8,-310.72 173.5,-296.74 204.64,-283.82 242.44,-288.06 272.19,-295.41"/>
<polygon fill="#9a32cd" stroke="#9a32cd" points="92.55,-364.01 89.72,-374.22 98.3,-368 92.55,-364.01"/>
</a>
</g>
<text xml:space="preserve" text-anchor="start" x="176.5" y="-462.24" font-family="Helvetica,sans-Serif" font-size="10.00" fill="grey">is_const</text>
<text xml:space="preserve" text-anchor="start" x="176.5" y="-446.24" font-family="Helvetica,sans-Serif" font-size="10.00" fill="grey">is_free</text>
<text xml:space="preserve" text-anchor="start" x="176.5" y="-430.24" font-family="Helvetica,sans-Serif" font-size="10.00" fill="grey">is_functor</text>
<text xml:space="preserve" text-anchor="start" x="176.5" y="-414.24" font-family="Helvetica,sans-Serif" font-size="10.00" fill="grey">is_member</text>
<text xml:space="preserve" text-anchor="start" x="176.5" y="-398.24" font-family="Helvetica,sans-Serif" font-size="10.00" fill="grey">is_moved</text>
<text xml:space="preserve" text-anchor="start" x="176.5" y="-382.24" font-family="Helvetica,sans-Serif" font-size="10.00" fill="grey">is_noexcept</text>
<text xml:space="preserve" text-anchor="start" x="176.5" y="-366.24" font-family="Helvetica,sans-Serif" font-size="10.00" fill="grey">is_parent_moved</text>
<text xml:space="preserve" text-anchor="start" x="176.5" y="-350.24" font-family="Helvetica,sans-Serif" font-size="10.00" fill="grey">is_parent_ref</text>
<text xml:space="preserve" text-anchor="start" x="176.5" y="-334.24" font-family="Helvetica,sans-Serif" font-size="10.00" fill="grey">is_ptr</text>
<text xml:space="preserve" text-anchor="start" x="176.5" y="-318.24" font-family="Helvetica,sans-Serif" font-size="10.00" fill="grey">is_ref</text>
<text xml:space="preserve" text-anchor="start" x="176.5" y="-302.24" font-family="Helvetica,sans-Serif" font-size="10.00" fill="grey"> &#160;...</text>
</g>
<!-- Node3&#45;&gt;Node5 -->
<g id="edge31_Node000005_Node000003" class="edge">
<title>Node3&#45;&gt;Node5</title>
<g id="a_edge31_Node000005_Node000003"><a xlink:title=" ">
<path fill="none" stroke="#9a32cd" stroke-dasharray="5,2" d="M79.72,-364.2C83.23,-304.88 99.36,-163.54 173.5,-78.74 221.45,-23.9 249.78,-10.74 322.62,-10.74 322.62,-10.74 322.62,-10.74 879.12,-10.74 1193.72,-10.74 1279.71,28.01 1586.25,-42.74 1670.75,-62.24 1762.03,-107.68 1812.59,-135.24"/>
<polygon fill="#9a32cd" stroke="#9a32cd" points="76.23,-363.89 79.22,-374.06 83.22,-364.24 76.23,-363.89"/>
</a>
</g>
<text xml:space="preserve" text-anchor="start" x="963.62" y="-15.78" font-family="Helvetica,sans-Serif" font-size="10.00" fill="grey">is_noexcept</text>
</g>
<!-- Node3&#45;&gt;Node6 -->
<g id="edge29_Node000006_Node000003" class="edge">
<title>Node3&#45;&gt;Node6</title>
<g id="a_edge29_Node000006_Node000003"><a xlink:title=" ">
<path fill="none" stroke="#9a32cd" stroke-dasharray="5,2" d="M84.08,-419.12C94.27,-465.17 120.37,-558.97 173.5,-618.74 224.04,-675.6 246.56,-702.74 322.62,-702.74 322.62,-702.74 322.62,-702.74 640.38,-702.74 1061.26,-702.74 1234.94,-888.54 1586.25,-656.74 1650.99,-614.03 1675.27,-516.86 1683.16,-472.98"/>
<polygon fill="#9a32cd" stroke="#9a32cd" points="87.53,-418.51 82.04,-409.45 80.68,-419.96 87.53,-418.51"/>
</a>
</g>
<text xml:space="preserve" text-anchor="start" x="850" y="-733.21" font-family="Helvetica,sans-Serif" font-size="10.00" fill="grey">is_parent_ref</text>
</g>
<!-- Node3&#45;&gt;Node7 -->
<g id="edge27_Node000007_Node000003" class="edge">
<title>Node3&#45;&gt;Node7</title>
<g id="a_edge27_Node000007_Node000003"><a xlink:title=" ">
<path fill="none" stroke="#9a32cd" stroke-dasharray="5,2" d="M86.27,-418.95C98.53,-458.86 126.31,-533.52 173.5,-579.74 245.82,-650.58 292.39,-633.77 393.5,-638.74 590.84,-648.44 1096.63,-664.45 1281.5,-594.74 1365.89,-562.92 1452.43,-497.53 1490.16,-467.05"/>
<polygon fill="#9a32cd" stroke="#9a32cd" points="89.64,-418.03 83.45,-409.43 82.93,-420.01 89.64,-418.03"/>
</a>
</g>
<text xml:space="preserve" text-anchor="start" x="727.62" y="-653.02" font-family="Helvetica,sans-Serif" font-size="10.00" fill="grey">is_volatile</text>
</g>
<!-- Node3&#45;&gt;Node8 -->
<g id="edge25_Node000008_Node000003" class="edge">
<title>Node3&#45;&gt;Node8</title>
<g id="a_edge25_Node000008_Node000003"><a xlink:title=" ">
<path fill="none" stroke="#9a32cd" stroke-dasharray="5,2" d="M93.1,-365.74C108.98,-339.91 137.2,-301.75 173.5,-284.74 213.06,-266.2 228.07,-282.41 271.75,-281.74 616.59,-276.48 701.52,-318.05 1043.5,-362.74 1083.81,-368.01 1129.18,-374.37 1164.07,-379.36"/>
<polygon fill="#9a32cd" stroke="#9a32cd" points="90.3,-363.61 88.21,-374 96.32,-367.18 90.3,-363.61"/>
</a>
</g>
<text xml:space="preserve" text-anchor="start" x="621" y="-309.01" font-family="Helvetica,sans-Serif" font-size="10.00" fill="grey">is_const</text>
</g>
<!-- Node13 -->
<g id="Node000013" class="node">
<title>Node13</title>
<g id="a_Node000013"><a xlink:href="../../d0/d74/structmstd_1_1utils_1_1function__default__type__traits.html" target="_top" xlink:title=" ">
<polygon fill="white" stroke="#666666" points="588.75,-391.74 486.5,-391.74 486.5,-347.74 588.75,-347.74 588.75,-391.74"/>
<text xml:space="preserve" text-anchor="start" x="494.5" y="-378.24" font-family="Helvetica,sans-Serif" font-size="10.00">mstd::utils::function</text>
<text xml:space="preserve" text-anchor="start" x="494.5" y="-366.24" font-family="Helvetica,sans-Serif" font-size="10.00">_default_type_traits</text>
<text xml:space="preserve" text-anchor="middle" x="537.62" y="-354.24" font-family="Helvetica,sans-Serif" font-size="10.00">&lt; true &gt;</text>
</a>
</g>
</g>
<!-- Node3&#45;&gt;Node13 -->
<g id="edge20_Node000013_Node000003" class="edge">
<title>Node3&#45;&gt;Node13</title>
<g id="a_edge20_Node000013_Node000003"><a xlink:title=" ">
<path fill="none" stroke="#9a32cd" stroke-dasharray="5,2" d="M100.52,-416.42C135.67,-453.3 205.8,-514.46 253.75,-474.74 286.84,-447.33 239.18,-407.77 271.75,-379.74 302.75,-353.06 418.4,-358.61 486.2,-364.49"/>
<polygon fill="#9a32cd" stroke="#9a32cd" points="103.17,-414.13 93.8,-409.19 98.05,-418.89 103.17,-414.13"/>
</a>
</g>
<text xml:space="preserve" text-anchor="start" x="286.5" y="-545.24" font-family="Helvetica,sans-Serif" font-size="10.00" fill="grey">is_const</text>
<text xml:space="preserve" text-anchor="start" x="286.5" y="-529.24" font-family="Helvetica,sans-Serif" font-size="10.00" fill="grey">is_free</text>
<text xml:space="preserve" text-anchor="start" x="286.5" y="-513.24" font-family="Helvetica,sans-Serif" font-size="10.00" fill="grey">is_functor</text>
<text xml:space="preserve" text-anchor="start" x="286.5" y="-497.24" font-family="Helvetica,sans-Serif" font-size="10.00" fill="grey">is_member</text>
<text xml:space="preserve" text-anchor="start" x="286.5" y="-481.24" font-family="Helvetica,sans-Serif" font-size="10.00" fill="grey">is_moved</text>
<text xml:space="preserve" text-anchor="start" x="286.5" y="-465.24" font-family="Helvetica,sans-Serif" font-size="10.00" fill="grey">is_noexcept</text>
<text xml:space="preserve" text-anchor="start" x="286.5" y="-449.24" font-family="Helvetica,sans-Serif" font-size="10.00" fill="grey">is_parent_moved</text>
<text xml:space="preserve" text-anchor="start" x="286.5" y="-433.24" font-family="Helvetica,sans-Serif" font-size="10.00" fill="grey">is_parent_ref</text>
<text xml:space="preserve" text-anchor="start" x="286.5" y="-417.24" font-family="Helvetica,sans-Serif" font-size="10.00" fill="grey">is_ptr</text>
<text xml:space="preserve" text-anchor="start" x="286.5" y="-401.24" font-family="Helvetica,sans-Serif" font-size="10.00" fill="grey">is_ref</text>
<text xml:space="preserve" text-anchor="start" x="286.5" y="-385.24" font-family="Helvetica,sans-Serif" font-size="10.00" fill="grey"> &#160;...</text>
</g>
<!-- Node3&#45;&gt;Node14 -->
<g id="edge24_Node000014_Node000003" class="edge">
<title>Node3&#45;&gt;Node14</title>
<g id="a_edge24_Node000014_Node000003"><a xlink:title=" ">
<path fill="none" stroke="#9a32cd" stroke-dasharray="5,2" d="M92.39,-418.11C119.13,-466.54 183.63,-568.3 271.75,-607.74 318.9,-628.84 530.52,-612.9 600,-591.74 649.13,-576.77 699.62,-543.22 727.19,-523.03"/>
<polygon fill="#9a32cd" stroke="#9a32cd" points="95.53,-416.55 87.69,-409.42 89.37,-419.88 95.53,-416.55"/>
</a>
</g>
<text xml:space="preserve" text-anchor="start" x="410.75" y="-622.64" font-family="Helvetica,sans-Serif" font-size="10.00" fill="grey">is_free</text>
</g>
<!-- Node4&#45;&gt;Node2 -->
<g id="edge3_Node000002_Node000004" class="edge">
<title>Node4&#45;&gt;Node2</title>
<g id="a_edge3_Node000002_Node000004"><a xlink:title=" ">
<path fill="none" stroke="orange" stroke-dasharray="5,2" d="M379.15,-285.22C414.26,-267.5 459.32,-244.76 492.24,-228.14"/>
<polygon fill="orange" stroke="orange" points="377.77,-282 370.42,-289.63 380.92,-288.25 377.77,-282"/>
</a>
</g>
<text xml:space="preserve" text-anchor="start" x="405.88" y="-280.58" font-family="Helvetica,sans-Serif" font-size="10.00" fill="grey">&lt; false &gt;</text>
</g>
<!-- Node4&#45;&gt;Node13 -->
<g id="edge21_Node000013_Node000004" class="edge">
<title>Node4&#45;&gt;Node13</title>
<g id="a_edge21_Node000013_Node000004"><a xlink:title=" ">
<path fill="none" stroke="orange" stroke-dasharray="5,2" d="M386.33,-322.47C408.86,-326.64 434.41,-332.1 457.25,-338.74 466.77,-341.51 476.74,-344.95 486.28,-348.52"/>
<polygon fill="orange" stroke="orange" points="387.15,-319.06 376.69,-320.73 385.91,-325.95 387.15,-319.06"/>
</a>
</g>
<text xml:space="preserve" text-anchor="start" x="408.12" y="-344.24" font-family="Helvetica,sans-Serif" font-size="10.00" fill="grey">&lt; true &gt;</text>
</g>
<!-- Node5&#45;&gt;Node1 -->
<g id="edge5_Node000001_Node000005" class="edge">
<title>Node5&#45;&gt;Node1</title>
<g id="a_edge5_Node000001_Node000005"><a xlink:title=" ">
<path fill="none" stroke="#63b8ff" d="M1928.85,-157.74C1937.27,-157.74 1945.75,-157.74 1953.91,-157.74"/>
<polygon fill="#63b8ff" stroke="#63b8ff" points="1928.97,-154.24 1918.97,-157.74 1928.97,-161.24 1928.97,-154.24"/>
</a>
</g>
</g>
<!-- Node6&#45;&gt;Node5 -->
<g id="edge7_Node000005_Node000006" class="edge">
<title>Node6&#45;&gt;Node5</title>
<g id="a_edge7_Node000005_Node000006"><a xlink:title=" ">
<path fill="none" stroke="#63b8ff" d="M1706.38,-418.7C1739.78,-358.85 1810.84,-231.49 1839.57,-180.02"/>
<polygon fill="#63b8ff" stroke="#63b8ff" points="1703.34,-416.96 1701.53,-427.4 1709.46,-420.37 1703.34,-416.96"/>
</a>
</g>
</g>
<!-- Node7&#45;&gt;Node6 -->
<g id="edge9_Node000006_Node000007" class="edge">
<title>Node7&#45;&gt;Node6</title>
<g id="a_edge9_Node000006_Node000007"><a xlink:title=" ">
<path fill="none" stroke="#63b8ff" d="M1597.98,-450.74C1606.33,-450.74 1614.7,-450.74 1622.78,-450.74"/>
<polygon fill="#63b8ff" stroke="#63b8ff" points="1598.13,-447.24 1588.13,-450.74 1598.13,-454.24 1598.13,-447.24"/>
</a>
</g>
</g>
<!-- Node8&#45;&gt;Node7 -->
<g id="edge11_Node000007_Node000008" class="edge">
<title>Node8&#45;&gt;Node7</title>
<g id="a_edge11_Node000007_Node000008"><a xlink:title=" ">
<path fill="none" stroke="#63b8ff" d="M1292.93,-402.96C1335.91,-412.43 1391.16,-424.61 1435.14,-434.3"/>
<polygon fill="#63b8ff" stroke="#63b8ff" points="1293.72,-399.55 1283.2,-400.82 1292.22,-406.39 1293.72,-399.55"/>
</a>
</g>
</g>
<!-- Node9&#45;&gt;Node8 -->
<g id="edge13_Node000008_Node000009" class="edge">
<title>Node9&#45;&gt;Node8</title>
<g id="a_edge13_Node000008_Node000009"><a xlink:title=" ">
<path fill="none" stroke="#63b8ff" d="M1054.05,-387.74C1088.42,-387.74 1130.63,-387.74 1164.12,-387.74"/>
<polygon fill="#63b8ff" stroke="#63b8ff" points="1054.23,-384.24 1044.23,-387.74 1054.23,-391.24 1054.23,-384.24"/>
</a>
</g>
</g>
<!-- Node10 -->
<g id="Node000010" class="node">
<title>Node10</title>
<g id="a_Node000010"><a xlink:href="../../d1/d4f/structmstd_1_1utils_1_1function__core__traits_3_01_r_07_args_8_8_8_08_00_01_c_01_4.html" target="_top" xlink:title=" ">
<polygon fill="white" stroke="#666666" points="820,-472.74 678.75,-472.74 678.75,-440.74 820,-440.74 820,-472.74"/>
<text xml:space="preserve" text-anchor="start" x="686.75" y="-459.24" font-family="Helvetica,sans-Serif" font-size="10.00">mstd::utils::function</text>
<text xml:space="preserve" text-anchor="middle" x="749.38" y="-447.24" font-family="Helvetica,sans-Serif" font-size="10.00">_core_traits&lt; R(Args...), C &gt;</text>
</a>
</g>
</g>
<!-- Node10&#45;&gt;Node9 -->
<g id="edge15_Node000009_Node000010" class="edge">
<title>Node10&#45;&gt;Node9</title>
<g id="a_edge15_Node000009_Node000010"><a xlink:title=" ">
<path fill="none" stroke="#63b8ff" d="M784.35,-434.36C800.07,-425.01 819.36,-414.91 838,-408.74 869.88,-398.18 907.27,-392.93 936.84,-390.32"/>
<polygon fill="#63b8ff" stroke="#63b8ff" points="782.57,-431.34 775.87,-439.55 786.23,-437.31 782.57,-431.34"/>
</a>
</g>
</g>
<!-- Node11 -->
<g id="Node000011" class="node">
<title>Node11</title>
<g id="a_Node000011"><a xlink:href="../../df/db9/structmstd_1_1utils_1_1function__core__traits.html" target="_top" xlink:title=" ">
<polygon fill="white" stroke="#666666" points="600,-582.74 475.25,-582.74 475.25,-550.74 600,-550.74 600,-582.74"/>
<text xml:space="preserve" text-anchor="start" x="483.25" y="-569.24" font-family="Helvetica,sans-Serif" font-size="10.00">mstd::utils::function</text>
<text xml:space="preserve" text-anchor="middle" x="537.62" y="-557.24" font-family="Helvetica,sans-Serif" font-size="10.00">_core_traits&lt; R(Args...)&gt;</text>
</a>
</g>
</g>
<!-- Node11&#45;&gt;Node10 -->
<g id="edge16_Node000010_Node000011" class="edge">
<title>Node11&#45;&gt;Node10</title>
<g id="a_edge16_Node000010_Node000011"><a xlink:title=" ">
<path fill="none" stroke="#63b8ff" d="M596.99,-545.87C618.5,-536.38 642.14,-523.66 660.75,-507.74 671.43,-498.6 667.6,-490.3 678.75,-481.74 682.93,-478.53 687.55,-475.71 692.37,-473.23"/>
<polygon fill="#63b8ff" stroke="#63b8ff" points="595.86,-542.55 588.02,-549.68 598.59,-548.99 595.86,-542.55"/>
</a>
</g>
</g>
<!-- Node12 -->
<g id="Node000012" class="node">
<title>Node12</title>
<g id="a_Node000012"><a xlink:href="../../df/db9/structmstd_1_1utils_1_1function__core__traits.html" target="_top" xlink:title=" ">
<polygon fill="white" stroke="#666666" points="375.5,-598.74 271.75,-598.74 271.75,-566.74 375.5,-566.74 375.5,-598.74"/>
<text xml:space="preserve" text-anchor="start" x="279.75" y="-585.24" font-family="Helvetica,sans-Serif" font-size="10.00">mstd::utils::function</text>
<text xml:space="preserve" text-anchor="middle" x="323.62" y="-573.24" font-family="Helvetica,sans-Serif" font-size="10.00">_core_traits&lt; F, C &gt;</text>
</a>
</g>
</g>
<!-- Node12&#45;&gt;Node10 -->
<g id="edge18_Node000010_Node000012" class="edge">
<title>Node12&#45;&gt;Node10</title>
<g id="a_edge18_Node000010_Node000012"><a xlink:title=" ">
<path fill="none" stroke="orange" stroke-dasharray="5,2" d="M374.97,-562.19C410.85,-547.71 456,-529.84 475.25,-523.74 543.32,-502.17 622.75,-483.37 678.35,-471.23"/>
<polygon fill="orange" stroke="orange" points="374.01,-558.81 366.05,-565.8 376.63,-565.29 374.01,-558.81"/>
</a>
</g>
<text xml:space="preserve" text-anchor="start" x="500.5" y="-529.24" font-family="Helvetica,sans-Serif" font-size="10.00" fill="grey">&lt; R(Args...), C &gt;</text>
</g>
<!-- Node12&#45;&gt;Node11 -->
<g id="edge17_Node000011_Node000012" class="edge">
<title>Node12&#45;&gt;Node11</title>
<g id="a_edge17_Node000011_Node000012"><a xlink:title=" ">
<path fill="none" stroke="orange" stroke-dasharray="5,2" d="M387.09,-578.03C414.76,-575.94 447.23,-573.49 474.83,-571.4"/>
<polygon fill="orange" stroke="orange" points="387.16,-574.51 377.45,-578.75 387.69,-581.49 387.16,-574.51"/>
</a>
</g>
<text xml:space="preserve" text-anchor="start" x="396.5" y="-582.61" font-family="Helvetica,sans-Serif" font-size="10.00" fill="grey">&lt; R(Args...)&gt;</text>
</g>
<!-- Node13&#45;&gt;Node9 -->
<g id="edge19_Node000009_Node000013" class="edge">
<title>Node13&#45;&gt;Node9</title>
<g id="a_edge19_Node000009_Node000013"><a xlink:title=" ">
<path fill="none" stroke="#63b8ff" d="M600.26,-372.2C689.52,-375.77 853.21,-382.32 936.78,-385.66"/>
<polygon fill="#63b8ff" stroke="#63b8ff" points="600.61,-368.72 590.48,-371.81 600.33,-375.71 600.61,-368.72"/>
</a>
</g>
</g>
<!-- Node14&#45;&gt;Node1 -->
<g id="edge33_Node000001_Node000014" class="edge">
<title>Node14&#45;&gt;Node1</title>
<g id="a_edge33_Node000001_Node000014"><a xlink:title=" ">
<path fill="none" stroke="orange" stroke-dasharray="5,2" d="M778.6,-530.04C821.3,-562.86 906.16,-618.74 988.88,-618.74 988.88,-618.74 988.88,-618.74 1854,-618.74 1947.93,-618.74 1997.96,-272.06 2009.59,-179.98"/>
<polygon fill="orange" stroke="orange" points="780.87,-527.38 770.84,-523.96 776.55,-532.89 780.87,-527.38"/>
</a>
</g>
<text xml:space="preserve" text-anchor="start" x="1448.12" y="-640.24" font-family="Helvetica,sans-Serif" font-size="10.00" fill="grey">&lt; R(C::*)(Args...)</text>
<text xml:space="preserve" text-anchor="start" x="1448.12" y="-624.24" font-family="Helvetica,sans-Serif" font-size="10.00" fill="grey">   const volatile &amp;noexcept &gt;</text>
</g>
<!-- Node14&#45;&gt;Node5 -->
<g id="edge32_Node000005_Node000014" class="edge">
<title>Node14&#45;&gt;Node5</title>
<g id="a_edge32_Node000005_Node000014"><a xlink:title=" ">
<path fill="none" stroke="orange" stroke-dasharray="5,2" d="M812.13,-488.89C814.99,-486.77 817.65,-484.39 820,-481.74 843.88,-454.79 814.69,-430.19 838,-402.74 868.52,-366.81 891.26,-376.83 936.25,-362.74 1249.92,-264.53 1637.95,-193.79 1788.32,-168.23"/>
<polygon fill="orange" stroke="orange" points="810.38,-485.85 803.67,-494.05 814.03,-491.83 810.38,-485.85"/>
</a>
</g>
<text xml:space="preserve" text-anchor="start" x="1302.5" y="-287.04" font-family="Helvetica,sans-Serif" font-size="10.00" fill="grey">&lt; R(Args...) const</text>
<text xml:space="preserve" text-anchor="start" x="1302.5" y="-271.04" font-family="Helvetica,sans-Serif" font-size="10.00" fill="grey">   volatile &amp;noexcept, C &gt;</text>
</g>
<!-- Node14&#45;&gt;Node6 -->
<g id="edge30_Node000006_Node000014" class="edge">
<title>Node14&#45;&gt;Node6</title>
<g id="a_edge30_Node000006_Node000014"><a xlink:title=" ">
<path fill="none" stroke="orange" stroke-dasharray="5,2" d="M809.85,-526.33C857.67,-540.35 926.86,-556.74 988.88,-556.74 988.88,-556.74 988.88,-556.74 1511.75,-556.74 1575.62,-556.74 1636.07,-504.34 1666.33,-473.22"/>
<polygon fill="orange" stroke="orange" points="811.12,-523.06 800.53,-523.55 809.11,-529.77 811.12,-523.06"/>
</a>
</g>
<text xml:space="preserve" text-anchor="start" x="1183.5" y="-578.24" font-family="Helvetica,sans-Serif" font-size="10.00" fill="grey">&lt; R(Args...) const</text>
<text xml:space="preserve" text-anchor="start" x="1183.5" y="-562.24" font-family="Helvetica,sans-Serif" font-size="10.00" fill="grey">   volatile &amp;, C &gt;</text>
</g>
<!-- Node14&#45;&gt;Node7 -->
<g id="edge28_Node000007_Node000014" class="edge">
<title>Node14&#45;&gt;Node7</title>
<g id="a_edge28_Node000007_Node000014"><a xlink:title=" ">
<path fill="none" stroke="orange" stroke-dasharray="5,2" d="M813.55,-502.08C952.82,-491.81 1285.72,-467.26 1435.04,-456.25"/>
<polygon fill="orange" stroke="orange" points="813.5,-498.58 803.78,-502.8 814.01,-505.56 813.5,-498.58"/>
</a>
</g>
<text xml:space="preserve" text-anchor="start" x="1064.5" y="-504.75" font-family="Helvetica,sans-Serif" font-size="10.00" fill="grey">&lt; R(Args...) const</text>
<text xml:space="preserve" text-anchor="start" x="1064.5" y="-488.75" font-family="Helvetica,sans-Serif" font-size="10.00" fill="grey">   volatile, C &gt;</text>
</g>
<!-- Node14&#45;&gt;Node8 -->
<g id="edge26_Node000008_Node000014" class="edge">
<title>Node14&#45;&gt;Node8</title>
<g id="a_edge26_Node000008_Node000014"><a xlink:title=" ">
<path fill="none" stroke="orange" stroke-dasharray="5,2" d="M813.27,-490.87C905.25,-467.65 1075.14,-424.77 1164.11,-402.32"/>
<polygon fill="orange" stroke="orange" points="812.49,-487.45 803.65,-493.29 814.2,-494.24 812.49,-487.45"/>
</a>
</g>
<text xml:space="preserve" text-anchor="start" x="939.25" y="-464.57" font-family="Helvetica,sans-Serif" font-size="10.00" fill="grey">&lt; R(Args...) const, C &gt;</text>
</g>
<!-- Node14&#45;&gt;Node9 -->
<g id="edge22_Node000009_Node000014" class="edge">
<title>Node14&#45;&gt;Node9</title>
<g id="a_edge22_Node000009_Node000014"><a xlink:title=" ">
<path fill="none" stroke="orange" stroke-dasharray="5,2" d="M811.97,-488.48C814.85,-486.46 817.56,-484.22 820,-481.74 837.44,-464 819.87,-445.78 838,-428.74 839.9,-426.95 894.12,-412.48 937.01,-401.23"/>
<polygon fill="orange" stroke="orange" points="810.39,-485.35 803.54,-493.43 813.93,-491.38 810.39,-485.35"/>
</a>
</g>
<text xml:space="preserve" text-anchor="start" x="841" y="-434.24" font-family="Helvetica,sans-Serif" font-size="10.00" fill="grey">&lt; R(Args...), C &gt;</text>
</g>
</g>
</svg>
