<?xml version="1.0" encoding="UTF-8" standalone="no"?>
<!DOCTYPE svg PUBLIC "-//W3C//DTD SVG 1.1//EN"
 "http://www.w3.org/Graphics/SVG/1.1/DTD/svg11.dtd">
<!-- Generated by graphviz version 14.1.1 (20251213.1925)
 -->
<!-- Title: mstd::function_traits&lt; R(Args...) const volatile &amp;&amp;noexcept, C &gt; Pages: 1 -->
<svg width="1932pt" height="737pt"
 viewBox="0.00 0.00 1932.00 737.00" xmlns="http://www.w3.org/2000/svg" xmlns:xlink="http://www.w3.org/1999/xlink">
<g id="graph0" class="graph" transform="scale(1 1) rotate(0) translate(4 733)">
<title>mstd::function_traits&lt; R(Args...) const volatile &amp;&amp;noexcept, C &gt;</title>
<!-- Node1 -->
<g id="Node000001" class="node">
<title>Node1</title>
<g id="a_Node000001"><a xlink:title=" ">
<polygon fill="#999999" stroke="#666666" points="1924,-644 1795.5,-644 1795.5,-600 1924,-600 1924,-644"/>
<text xml:space="preserve" text-anchor="start" x="1803.5" y="-630.5" font-family="Helvetica,sans-Serif" font-size="10.00">mstd::function_traits</text>
<text xml:space="preserve" text-anchor="start" x="1803.5" y="-618.5" font-family="Helvetica,sans-Serif" font-size="10.00">&lt; R(Args...) const volatile</text>
<text xml:space="preserve" text-anchor="middle" x="1859.75" y="-606.5" font-family="Helvetica,sans-Serif" font-size="10.00"> &amp;&amp;noexcept, C &gt;</text>
</a>
</g>
</g>
<!-- Node2 -->
<g id="Node000002" class="node">
<title>Node2</title>
<g id="a_Node000002"><a xlink:href="../../d0/d74/structmstd_1_1utils_1_1function__default__type__traits.html" target="_top" xlink:title=" ">
<polygon fill="white" stroke="#666666" points="588.75,-449 486.5,-449 486.5,-405 588.75,-405 588.75,-449"/>
<text xml:space="preserve" text-anchor="start" x="494.5" y="-435.5" font-family="Helvetica,sans-Serif" font-size="10.00">mstd::utils::function</text>
<text xml:space="preserve" text-anchor="start" x="494.5" y="-423.5" font-family="Helvetica,sans-Serif" font-size="10.00">_default_type_traits</text>
<text xml:space="preserve" text-anchor="middle" x="537.62" y="-411.5" font-family="Helvetica,sans-Serif" font-size="10.00">&lt; false &gt;</text>
</a>
</g>
</g>
<!-- Node2&#45;&gt;Node1 -->
<g id="edge1_Node000001_Node000002" class="edge">
<title>Node2&#45;&gt;Node1</title>
<g id="a_edge1_Node000001_Node000002"><a xlink:title=" ">
<path fill="none" stroke="#63b8ff" d="M549.94,-459.94C574.72,-525.27 640.34,-665 748.38,-665 748.38,-665 748.38,-665 1695.25,-665 1731.79,-665 1771.46,-654.83 1802.57,-644.38"/>
<polygon fill="#63b8ff" stroke="#63b8ff" points="553.32,-458.98 546.58,-450.81 546.75,-461.4 553.32,-458.98"/>
</a>
</g>
</g>
<!-- Node5 -->
<g id="Node000005" class="node">
<title>Node5</title>
<g id="a_Node000005"><a xlink:href="../../d7/d15/structmstd_1_1function__traits_3_01_r_07_args_8_8_8_08_01const_01volatile_01_6_6_00_01_c_01_4.html" target="_top" xlink:title=" ">
<polygon fill="white" stroke="#666666" points="1758.5,-526 1630,-526 1630,-482 1758.5,-482 1758.5,-526"/>
<text xml:space="preserve" text-anchor="start" x="1638" y="-512.5" font-family="Helvetica,sans-Serif" font-size="10.00">mstd::function_traits</text>
<text xml:space="preserve" text-anchor="start" x="1638" y="-500.5" font-family="Helvetica,sans-Serif" font-size="10.00">&lt; R(Args...) const volatile</text>
<text xml:space="preserve" text-anchor="middle" x="1694.25" y="-488.5" font-family="Helvetica,sans-Serif" font-size="10.00"> &amp;&amp;, C &gt;</text>
</a>
</g>
</g>
<!-- Node2&#45;&gt;Node5 -->
<g id="edge6_Node000005_Node000002" class="edge">
<title>Node2&#45;&gt;Node5</title>
<g id="a_edge6_Node000005_Node000002"><a xlink:title=" ">
<path fill="none" stroke="#63b8ff" d="M555.3,-459.04C585.8,-512.71 656.03,-615 748.38,-615 748.38,-615 748.38,-615 1223.88,-615 1313.04,-615 1336.76,-619.4 1424,-601 1503.25,-584.29 1590.73,-549.53 1643.84,-526.49"/>
<polygon fill="#63b8ff" stroke="#63b8ff" points="558.54,-457.68 550.63,-450.63 552.42,-461.07 558.54,-457.68"/>
</a>
</g>
</g>
<!-- Node6 -->
<g id="Node000006" class="node">
<title>Node6</title>
<g id="a_Node000006"><a xlink:href="../../da/d58/structmstd_1_1function__traits_3_01_r_07_args_8_8_8_08_01const_01volatile_00_01_c_01_4.html" target="_top" xlink:title=" ">
<polygon fill="white" stroke="#666666" points="1593,-402 1442,-402 1442,-370 1593,-370 1593,-402"/>
<text xml:space="preserve" text-anchor="start" x="1450" y="-388.5" font-family="Helvetica,sans-Serif" font-size="10.00">mstd::function_traits</text>
<text xml:space="preserve" text-anchor="middle" x="1517.5" y="-376.5" font-family="Helvetica,sans-Serif" font-size="10.00">&lt; R(Args...) const volatile, C &gt;</text>
</a>
</g>
</g>
<!-- Node2&#45;&gt;Node6 -->
<g id="edge8_Node000006_Node000002" class="edge">
<title>Node2&#45;&gt;Node6</title>
<g id="a_edge8_Node000006_Node000002"><a xlink:title=" ">
<path fill="none" stroke="#63b8ff" d="M600.1,-419.15C678.12,-409.62 816.91,-394.04 936.25,-388 1117.6,-378.81 1331.24,-381.57 1441.79,-384.01"/>
<polygon fill="#63b8ff" stroke="#63b8ff" points="600.04,-415.64 590.54,-420.33 600.89,-422.58 600.04,-415.64"/>
</a>
</g>
</g>
<!-- Node7 -->
<g id="Node000007" class="node">
<title>Node7</title>
<g id="a_Node000007"><a xlink:href="../../df/d15/structmstd_1_1function__traits_3_01_r_07_args_8_8_8_08_01const_00_01_c_01_4.html" target="_top" xlink:title=" ">
<polygon fill="white" stroke="#666666" points="1281.5,-352 1164.25,-352 1164.25,-320 1281.5,-320 1281.5,-352"/>
<text xml:space="preserve" text-anchor="start" x="1172.25" y="-338.5" font-family="Helvetica,sans-Serif" font-size="10.00">mstd::function_traits</text>
<text xml:space="preserve" text-anchor="middle" x="1222.88" y="-326.5" font-family="Helvetica,sans-Serif" font-size="10.00">&lt; R(Args...) const, C &gt;</text>
</a>
</g>
</g>
<!-- Node2&#45;&gt;Node7 -->
<g id="edge10_Node000007_Node000002" class="edge">
<title>Node2&#45;&gt;Node7</title>
<g id="a_edge10_Node000007_Node000002"><a xlink:title=" ">
<path fill="none" stroke="#63b8ff" d="M565.11,-396.83C579.27,-382.93 597.9,-367.8 618,-360 716.3,-321.83 1032.51,-328.8 1163.84,-333.56"/>
<polygon fill="#63b8ff" stroke="#63b8ff" points="562.86,-394.14 558.37,-403.74 567.86,-399.03 562.86,-394.14"/>
</a>
</g>
</g>
<!-- Node8 -->
<g id="Node000008" class="node">
<title>Node8</title>
<g id="a_Node000008"><a xlink:href="../../dd/db6/structmstd_1_1function__traits_3_01_r_07_args_8_8_8_08_00_01_c_01_4.html" target="_top" xlink:title=" ">
<polygon fill="white" stroke="#666666" points="1042.5,-286 937.25,-286 937.25,-254 1042.5,-254 1042.5,-286"/>
<text xml:space="preserve" text-anchor="start" x="945.25" y="-272.5" font-family="Helvetica,sans-Serif" font-size="10.00">mstd::function_traits</text>
<text xml:space="preserve" text-anchor="middle" x="989.88" y="-260.5" font-family="Helvetica,sans-Serif" font-size="10.00">&lt; R(Args...), C &gt;</text>
</a>
</g>
</g>
<!-- Node2&#45;&gt;Node8 -->
<g id="edge12_Node000008_Node000002" class="edge">
<title>Node2&#45;&gt;Node8</title>
<g id="a_edge12_Node000008_Node000002"><a xlink:title=" ">
<path fill="none" stroke="#63b8ff" d="M554.21,-394.6C567.62,-370.45 589.34,-338.85 618,-322 718.89,-262.7 861.26,-261.08 936.9,-265.35"/>
<polygon fill="#63b8ff" stroke="#63b8ff" points="551.12,-392.95 549.52,-403.43 557.3,-396.24 551.12,-392.95"/>
</a>
</g>
</g>
<!-- Node13 -->
<g id="Node000013" class="node">
<title>Node13</title>
<g id="a_Node000013"><a xlink:href="../../d7/dcb/structmstd_1_1function__traits.html" target="_top" xlink:title=" ">
<polygon fill="white" stroke="#666666" points="802,-482 696.75,-482 696.75,-450 802,-450 802,-482"/>
<text xml:space="preserve" text-anchor="start" x="704.75" y="-468.5" font-family="Helvetica,sans-Serif" font-size="10.00">mstd::function_traits</text>
<text xml:space="preserve" text-anchor="middle" x="749.38" y="-456.5" font-family="Helvetica,sans-Serif" font-size="10.00">&lt; F, C &gt;</text>
</a>
</g>
</g>
<!-- Node2&#45;&gt;Node13 -->
<g id="edge21_Node000013_Node000002" class="edge">
<title>Node2&#45;&gt;Node13</title>
<g id="a_edge21_Node000013_Node000002"><a xlink:title=" ">
<path fill="none" stroke="#63b8ff" d="M600.11,-438.43C630.72,-444.12 667.31,-450.93 696.48,-456.35"/>
<polygon fill="#63b8ff" stroke="#63b8ff" points="601.09,-435.05 590.62,-436.67 599.81,-441.94 601.09,-435.05"/>
</a>
</g>
</g>
<!-- Node3 -->
<g id="Node000003" class="node">
<title>Node3</title>
<g id="a_Node000003"><a xlink:title=" ">
<polygon fill="white" stroke="#666666" points="155.5,-237 0,-237 0,-205 155.5,-205 155.5,-237"/>
<text xml:space="preserve" text-anchor="start" x="8" y="-223.5" font-family="Helvetica,sans-Serif" font-size="10.00">static _MSTD_CONSTEXPR17</text>
<text xml:space="preserve" text-anchor="middle" x="77.75" y="-211.5" font-family="Helvetica,sans-Serif" font-size="10.00"> const bool</text>
</a>
</g>
</g>
<!-- Node3&#45;&gt;Node1 -->
<g id="edge29_Node000001_Node000003" class="edge">
<title>Node3&#45;&gt;Node1</title>
<g id="a_edge29_Node000001_Node000003"><a xlink:title=" ">
<path fill="none" stroke="#9a32cd" stroke-dasharray="5,2" d="M79.51,-248.62C83.97,-352.1 114.43,-711 322.62,-711 322.62,-711 322.62,-711 1695.25,-711 1750.84,-711 1805.54,-670.82 1835.45,-644.46"/>
<polygon fill="#9a32cd" stroke="#9a32cd" points="83.02,-248.68 79.15,-238.82 76.02,-248.94 83.02,-248.68"/>
</a>
</g>
<text xml:space="preserve" text-anchor="start" x="963.62" y="-716.5" font-family="Helvetica,sans-Serif" font-size="10.00" fill="grey">is_noexcept</text>
</g>
<!-- Node3&#45;&gt;Node2 -->
<g id="edge2_Node000002_Node000003" class="edge">
<title>Node3&#45;&gt;Node2</title>
<g id="a_edge2_Node000002_Node000003"><a xlink:title=" ">
<path fill="none" stroke="#9a32cd" stroke-dasharray="5,2" d="M81.16,-248.5C87.09,-297.36 107.15,-398.26 173.5,-442 223.48,-474.95 398.87,-450.81 486.3,-436.11"/>
<polygon fill="#9a32cd" stroke="#9a32cd" points="84.66,-248.34 80.1,-238.78 77.7,-249.1 84.66,-248.34"/>
</a>
</g>
<text xml:space="preserve" text-anchor="start" x="286.5" y="-623.95" font-family="Helvetica,sans-Serif" font-size="10.00" fill="grey">is_const</text>
<text xml:space="preserve" text-anchor="start" x="286.5" y="-607.95" font-family="Helvetica,sans-Serif" font-size="10.00" fill="grey">is_free</text>
<text xml:space="preserve" text-anchor="start" x="286.5" y="-591.95" font-family="Helvetica,sans-Serif" font-size="10.00" fill="grey">is_functor</text>
<text xml:space="preserve" text-anchor="start" x="286.5" y="-575.95" font-family="Helvetica,sans-Serif" font-size="10.00" fill="grey">is_member</text>
<text xml:space="preserve" text-anchor="start" x="286.5" y="-559.95" font-family="Helvetica,sans-Serif" font-size="10.00" fill="grey">is_moved</text>
<text xml:space="preserve" text-anchor="start" x="286.5" y="-543.95" font-family="Helvetica,sans-Serif" font-size="10.00" fill="grey">is_noexcept</text>
<text xml:space="preserve" text-anchor="start" x="286.5" y="-527.95" font-family="Helvetica,sans-Serif" font-size="10.00" fill="grey">is_parent_moved</text>
<text xml:space="preserve" text-anchor="start" x="286.5" y="-511.95" font-family="Helvetica,sans-Serif" font-size="10.00" fill="grey">is_parent_ref</text>
<text xml:space="preserve" text-anchor="start" x="286.5" y="-495.95" font-family="Helvetica,sans-Serif" font-size="10.00" fill="grey">is_ptr</text>
<text xml:space="preserve" text-anchor="start" x="286.5" y="-479.95" font-family="Helvetica,sans-Serif" font-size="10.00" fill="grey">is_ref</text>
<text xml:space="preserve" text-anchor="start" x="286.5" y="-463.95" font-family="Helvetica,sans-Serif" font-size="10.00" fill="grey"> &#160;...</text>
</g>
<!-- Node4 -->
<g id="Node000004" class="node">
<title>Node4</title>
<g id="a_Node000004"><a xlink:href="../../d0/d74/structmstd_1_1utils_1_1function__default__type__traits.html" target="_top" xlink:title=" ">
<polygon fill="white" stroke="#666666" points="374.75,-420 272.5,-420 272.5,-376 374.75,-376 374.75,-420"/>
<text xml:space="preserve" text-anchor="start" x="280.5" y="-406.5" font-family="Helvetica,sans-Serif" font-size="10.00">mstd::utils::function</text>
<text xml:space="preserve" text-anchor="start" x="280.5" y="-394.5" font-family="Helvetica,sans-Serif" font-size="10.00">_default_type_traits</text>
<text xml:space="preserve" text-anchor="middle" x="323.62" y="-382.5" font-family="Helvetica,sans-Serif" font-size="10.00">&lt; IsMember &gt;</text>
</a>
</g>
</g>
<!-- Node3&#45;&gt;Node4 -->
<g id="edge4_Node000004_Node000003" class="edge">
<title>Node3&#45;&gt;Node4</title>
<g id="a_edge4_Node000004_Node000003"><a xlink:title=" ">
<path fill="none" stroke="#9a32cd" stroke-dasharray="5,2" d="M166.78,-223.4C198.23,-228.74 231.39,-240.27 253.75,-264 284.12,-296.23 247.92,-324.68 271.75,-362 275.01,-367.11 279.28,-371.7 283.96,-375.77"/>
<polygon fill="#9a32cd" stroke="#9a32cd" points="167.65,-219.99 157.24,-221.98 166.62,-226.91 167.65,-219.99"/>
</a>
</g>
<text xml:space="preserve" text-anchor="start" x="176.5" y="-429.5" font-family="Helvetica,sans-Serif" font-size="10.00" fill="grey">is_const</text>
<text xml:space="preserve" text-anchor="start" x="176.5" y="-413.5" font-family="Helvetica,sans-Serif" font-size="10.00" fill="grey">is_free</text>
<text xml:space="preserve" text-anchor="start" x="176.5" y="-397.5" font-family="Helvetica,sans-Serif" font-size="10.00" fill="grey">is_functor</text>
<text xml:space="preserve" text-anchor="start" x="176.5" y="-381.5" font-family="Helvetica,sans-Serif" font-size="10.00" fill="grey">is_member</text>
<text xml:space="preserve" text-anchor="start" x="176.5" y="-365.5" font-family="Helvetica,sans-Serif" font-size="10.00" fill="grey">is_moved</text>
<text xml:space="preserve" text-anchor="start" x="176.5" y="-349.5" font-family="Helvetica,sans-Serif" font-size="10.00" fill="grey">is_noexcept</text>
<text xml:space="preserve" text-anchor="start" x="176.5" y="-333.5" font-family="Helvetica,sans-Serif" font-size="10.00" fill="grey">is_parent_moved</text>
<text xml:space="preserve" text-anchor="start" x="176.5" y="-317.5" font-family="Helvetica,sans-Serif" font-size="10.00" fill="grey">is_parent_ref</text>
<text xml:space="preserve" text-anchor="start" x="176.5" y="-301.5" font-family="Helvetica,sans-Serif" font-size="10.00" fill="grey">is_ptr</text>
<text xml:space="preserve" text-anchor="start" x="176.5" y="-285.5" font-family="Helvetica,sans-Serif" font-size="10.00" fill="grey">is_ref</text>
<text xml:space="preserve" text-anchor="start" x="176.5" y="-269.5" font-family="Helvetica,sans-Serif" font-size="10.00" fill="grey"> &#160;...</text>
</g>
<!-- Node3&#45;&gt;Node5 -->
<g id="edge27_Node000005_Node000003" class="edge">
<title>Node3&#45;&gt;Node5</title>
<g id="a_edge27_Node000005_Node000003"><a xlink:title=" ">
<path fill="none" stroke="#9a32cd" stroke-dasharray="5,2" d="M86.98,-194.25C99.71,-157.2 127.6,-90.48 173.5,-52 227.29,-6.91 252.43,0 322.62,0 322.62,0 322.62,0 1518.5,0 1621.99,0 1677.97,-384.15 1690.52,-481.69"/>
<polygon fill="#9a32cd" stroke="#9a32cd" points="83.81,-192.71 83.99,-203.3 90.45,-194.9 83.81,-192.71"/>
</a>
</g>
<text xml:space="preserve" text-anchor="start" x="841" y="-5.5" font-family="Helvetica,sans-Serif" font-size="10.00" fill="grey">is_parent_moved</text>
</g>
<!-- Node3&#45;&gt;Node6 -->
<g id="edge25_Node000006_Node000003" class="edge">
<title>Node3&#45;&gt;Node6</title>
<g id="a_edge25_Node000006_Node000003"><a xlink:title=" ">
<path fill="none" stroke="#9a32cd" stroke-dasharray="5,2" d="M94.35,-194.98C111.06,-169.06 139.77,-129.66 173.5,-105 231.04,-62.93 251.35,-46 322.62,-46 322.62,-46 322.62,-46 1223.88,-46 1396.77,-46 1489.86,-301.68 1511.54,-369.6"/>
<polygon fill="#9a32cd" stroke="#9a32cd" points="91.51,-192.92 89.15,-203.25 97.44,-196.64 91.51,-192.92"/>
</a>
</g>
<text xml:space="preserve" text-anchor="start" x="727.62" y="-51.5" font-family="Helvetica,sans-Serif" font-size="10.00" fill="grey">is_volatile</text>
</g>
<!-- Node3&#45;&gt;Node7 -->
<g id="edge23_Node000007_Node000003" class="edge">
<title>Node3&#45;&gt;Node7</title>
<g id="a_edge23_Node000007_Node000003"><a xlink:title=" ">
<path fill="none" stroke="#9a32cd" stroke-dasharray="5,2" d="M106.09,-197.43C141.52,-168.59 206.51,-121.36 271.75,-103 316.14,-90.51 329.41,-101.63 375.5,-103 619.69,-110.27 689.88,-103.22 918.25,-190 1021.19,-229.12 1049.01,-235.31 1146.25,-287 1164.62,-296.77 1184.32,-309.61 1199,-319.7"/>
<polygon fill="#9a32cd" stroke="#9a32cd" points="103.96,-194.64 98.49,-203.72 108.43,-200.04 103.96,-194.64"/>
</a>
</g>
<text xml:space="preserve" text-anchor="start" x="621" y="-123.07" font-family="Helvetica,sans-Serif" font-size="10.00" fill="grey">is_const</text>
</g>
<!-- Node12 -->
<g id="Node000012" class="node">
<title>Node12</title>
<g id="a_Node000012"><a xlink:href="../../d0/d74/structmstd_1_1utils_1_1function__default__type__traits.html" target="_top" xlink:title=" ">
<polygon fill="white" stroke="#666666" points="588.75,-260 486.5,-260 486.5,-216 588.75,-216 588.75,-260"/>
<text xml:space="preserve" text-anchor="start" x="494.5" y="-246.5" font-family="Helvetica,sans-Serif" font-size="10.00">mstd::utils::function</text>
<text xml:space="preserve" text-anchor="start" x="494.5" y="-234.5" font-family="Helvetica,sans-Serif" font-size="10.00">_default_type_traits</text>
<text xml:space="preserve" text-anchor="middle" x="537.62" y="-222.5" font-family="Helvetica,sans-Serif" font-size="10.00">&lt; true &gt;</text>
</a>
</g>
</g>
<!-- Node3&#45;&gt;Node12 -->
<g id="edge18_Node000012_Node000003" class="edge">
<title>Node3&#45;&gt;Node12</title>
<g id="a_edge18_Node000012_Node000003"><a xlink:title=" ">
<path fill="none" stroke="#9a32cd" stroke-dasharray="5,2" d="M154.4,-202.23C214.49,-189.87 300.59,-177.86 375.5,-189 413.53,-194.65 455,-207.43 486.35,-218.52"/>
<polygon fill="#9a32cd" stroke="#9a32cd" points="154.03,-198.73 144.97,-204.22 155.47,-205.58 154.03,-198.73"/>
</a>
</g>
<text xml:space="preserve" text-anchor="start" x="286.5" y="-354.5" font-family="Helvetica,sans-Serif" font-size="10.00" fill="grey">is_const</text>
<text xml:space="preserve" text-anchor="start" x="286.5" y="-338.5" font-family="Helvetica,sans-Serif" font-size="10.00" fill="grey">is_free</text>
<text xml:space="preserve" text-anchor="start" x="286.5" y="-322.5" font-family="Helvetica,sans-Serif" font-size="10.00" fill="grey">is_functor</text>
<text xml:space="preserve" text-anchor="start" x="286.5" y="-306.5" font-family="Helvetica,sans-Serif" font-size="10.00" fill="grey">is_member</text>
<text xml:space="preserve" text-anchor="start" x="286.5" y="-290.5" font-family="Helvetica,sans-Serif" font-size="10.00" fill="grey">is_moved</text>
<text xml:space="preserve" text-anchor="start" x="286.5" y="-274.5" font-family="Helvetica,sans-Serif" font-size="10.00" fill="grey">is_noexcept</text>
<text xml:space="preserve" text-anchor="start" x="286.5" y="-258.5" font-family="Helvetica,sans-Serif" font-size="10.00" fill="grey">is_parent_moved</text>
<text xml:space="preserve" text-anchor="start" x="286.5" y="-242.5" font-family="Helvetica,sans-Serif" font-size="10.00" fill="grey">is_parent_ref</text>
<text xml:space="preserve" text-anchor="start" x="286.5" y="-226.5" font-family="Helvetica,sans-Serif" font-size="10.00" fill="grey">is_ptr</text>
<text xml:space="preserve" text-anchor="start" x="286.5" y="-210.5" font-family="Helvetica,sans-Serif" font-size="10.00" fill="grey">is_ref</text>
<text xml:space="preserve" text-anchor="start" x="286.5" y="-194.5" font-family="Helvetica,sans-Serif" font-size="10.00" fill="grey"> &#160;...</text>
</g>
<!-- Node3&#45;&gt;Node13 -->
<g id="edge22_Node000013_Node000003" class="edge">
<title>Node3&#45;&gt;Node13</title>
<g id="a_edge22_Node000013_Node000003"><a xlink:title=" ">
<path fill="none" stroke="#9a32cd" stroke-dasharray="5,2" d="M81.18,-248.73C89.83,-327.93 126.86,-554.95 271.75,-640 437.74,-737.44 667.6,-541.79 731.37,-482.38"/>
<polygon fill="#9a32cd" stroke="#9a32cd" points="84.67,-248.43 80.18,-238.84 77.71,-249.14 84.67,-248.43"/>
</a>
</g>
<text xml:space="preserve" text-anchor="start" x="410.75" y="-671.24" font-family="Helvetica,sans-Serif" font-size="10.00" fill="grey">is_free</text>
</g>
<!-- Node4&#45;&gt;Node2 -->
<g id="edge3_Node000002_Node000004" class="edge">
<title>Node4&#45;&gt;Node2</title>
<g id="a_edge3_Node000002_Node000004"><a xlink:title=" ">
<path fill="none" stroke="orange" stroke-dasharray="5,2" d="M386.49,-406.46C418.17,-410.8 456.25,-416.01 486.14,-420.09"/>
<polygon fill="orange" stroke="orange" points="387.02,-403 376.63,-405.11 386.07,-409.94 387.02,-403"/>
</a>
</g>
<text xml:space="preserve" text-anchor="start" x="405.88" y="-421.45" font-family="Helvetica,sans-Serif" font-size="10.00" fill="grey">&lt; false &gt;</text>
</g>
<!-- Node4&#45;&gt;Node12 -->
<g id="edge19_Node000012_Node000004" class="edge">
<title>Node4&#45;&gt;Node12</title>
<g id="a_edge19_Node000012_Node000004"><a xlink:title=" ">
<path fill="none" stroke="orange" stroke-dasharray="5,2" d="M365.94,-368.98C369.18,-366.63 372.4,-364.29 375.5,-362 422.64,-327.2 476.4,-285.39 508.36,-260.3"/>
<polygon fill="orange" stroke="orange" points="364.11,-365.98 358.02,-374.65 368.19,-371.67 364.11,-365.98"/>
</a>
</g>
<text xml:space="preserve" text-anchor="start" x="408.12" y="-350.99" font-family="Helvetica,sans-Serif" font-size="10.00" fill="grey">&lt; true &gt;</text>
</g>
<!-- Node5&#45;&gt;Node1 -->
<g id="edge5_Node000001_Node000005" class="edge">
<title>Node5&#45;&gt;Node1</title>
<g id="a_edge5_Node000001_Node000005"><a xlink:title=" ">
<path fill="none" stroke="#63b8ff" d="M1735.66,-533.16C1764.11,-553.7 1801.62,-580.77 1827.73,-599.61"/>
<polygon fill="#63b8ff" stroke="#63b8ff" points="1737.77,-530.37 1727.62,-527.36 1733.68,-536.05 1737.77,-530.37"/>
</a>
</g>
</g>
<!-- Node6&#45;&gt;Node5 -->
<g id="edge7_Node000005_Node000006" class="edge">
<title>Node6&#45;&gt;Node5</title>
<g id="a_edge7_Node000005_Node000006"><a xlink:title=" ">
<path fill="none" stroke="#63b8ff" d="M1551.95,-408.58C1583.08,-429.61 1629.21,-460.76 1660.21,-481.69"/>
<polygon fill="#63b8ff" stroke="#63b8ff" points="1554.3,-405.95 1544.05,-403.25 1550.38,-411.75 1554.3,-405.95"/>
</a>
</g>
</g>
<!-- Node7&#45;&gt;Node6 -->
<g id="edge9_Node000006_Node000007" class="edge">
<title>Node7&#45;&gt;Node6</title>
<g id="a_edge9_Node000006_Node000007"><a xlink:title=" ">
<path fill="none" stroke="#63b8ff" d="M1293.03,-347.82C1337.7,-355.45 1395.82,-365.38 1441.58,-373.2"/>
<polygon fill="#63b8ff" stroke="#63b8ff" points="1293.63,-344.37 1283.18,-346.13 1292.45,-351.27 1293.63,-344.37"/>
</a>
</g>
</g>
<!-- Node8&#45;&gt;Node7 -->
<g id="edge11_Node000007_Node000008" class="edge">
<title>Node8&#45;&gt;Node7</title>
<g id="a_edge11_Node000007_Node000008"><a xlink:title=" ">
<path fill="none" stroke="#63b8ff" d="M1053.64,-287.93C1088.23,-297.81 1130.85,-309.99 1164.53,-319.62"/>
<polygon fill="#63b8ff" stroke="#63b8ff" points="1054.75,-284.61 1044.17,-285.23 1052.82,-291.34 1054.75,-284.61"/>
</a>
</g>
</g>
<!-- Node9 -->
<g id="Node000009" class="node">
<title>Node9</title>
<g id="a_Node000009"><a xlink:href="../../d1/d4f/structmstd_1_1utils_1_1function__core__traits_3_01_r_07_args_8_8_8_08_00_01_c_01_4.html" target="_top" xlink:title=" ">
<polygon fill="white" stroke="#666666" points="820,-198 678.75,-198 678.75,-166 820,-166 820,-198"/>
<text xml:space="preserve" text-anchor="start" x="686.75" y="-184.5" font-family="Helvetica,sans-Serif" font-size="10.00">mstd::utils::function</text>
<text xml:space="preserve" text-anchor="middle" x="749.38" y="-172.5" font-family="Helvetica,sans-Serif" font-size="10.00">_core_traits&lt; R(Args...), C &gt;</text>
</a>
</g>
</g>
<!-- Node9&#45;&gt;Node8 -->
<g id="edge13_Node000008_Node000009" class="edge">
<title>Node9&#45;&gt;Node8</title>
<g id="a_edge13_Node000008_Node000009"><a xlink:title=" ">
<path fill="none" stroke="#63b8ff" d="M831.34,-192.22C859.66,-197.64 891.13,-205.79 918.25,-218 937.97,-226.87 957.54,-241.9 971.06,-253.53"/>
<polygon fill="#63b8ff" stroke="#63b8ff" points="832.2,-188.82 821.74,-190.48 830.95,-195.71 832.2,-188.82"/>
</a>
</g>
</g>
<!-- Node10 -->
<g id="Node000010" class="node">
<title>Node10</title>
<g id="a_Node000010"><a xlink:href="../../df/db9/structmstd_1_1utils_1_1function__core__traits.html" target="_top" xlink:title=" ">
<polygon fill="white" stroke="#666666" points="600,-198 475.25,-198 475.25,-166 600,-166 600,-198"/>
<text xml:space="preserve" text-anchor="start" x="483.25" y="-184.5" font-family="Helvetica,sans-Serif" font-size="10.00">mstd::utils::function</text>
<text xml:space="preserve" text-anchor="middle" x="537.62" y="-172.5" font-family="Helvetica,sans-Serif" font-size="10.00">_core_traits&lt; R(Args...)&gt;</text>
</a>
</g>
</g>
<!-- Node10&#45;&gt;Node9 -->
<g id="edge14_Node000009_Node000010" class="edge">
<title>Node10&#45;&gt;Node9</title>
<g id="a_edge14_Node000009_Node000010"><a xlink:title=" ">
<path fill="none" stroke="#63b8ff" d="M611.87,-182C633.52,-182 657.14,-182 678.56,-182"/>
<polygon fill="#63b8ff" stroke="#63b8ff" points="611.94,-178.5 601.94,-182 611.94,-185.5 611.94,-178.5"/>
</a>
</g>
</g>
<!-- Node11 -->
<g id="Node000011" class="node">
<title>Node11</title>
<g id="a_Node000011"><a xlink:href="../../df/db9/structmstd_1_1utils_1_1function__core__traits.html" target="_top" xlink:title=" ">
<polygon fill="white" stroke="#666666" points="375.5,-144 271.75,-144 271.75,-112 375.5,-112 375.5,-144"/>
<text xml:space="preserve" text-anchor="start" x="279.75" y="-130.5" font-family="Helvetica,sans-Serif" font-size="10.00">mstd::utils::function</text>
<text xml:space="preserve" text-anchor="middle" x="323.62" y="-118.5" font-family="Helvetica,sans-Serif" font-size="10.00">_core_traits&lt; F, C &gt;</text>
</a>
</g>
</g>
<!-- Node11&#45;&gt;Node9 -->
<g id="edge16_Node000009_Node000011" class="edge">
<title>Node11&#45;&gt;Node9</title>
<g id="a_edge16_Node000009_Node000011"><a xlink:title=" ">
<path fill="none" stroke="orange" stroke-dasharray="5,2" d="M386.92,-126.22C443.02,-125.62 527.54,-127.23 600,-139 634.94,-144.68 673.3,-155.93 702.26,-165.5"/>
<polygon fill="orange" stroke="orange" points="387.21,-122.71 377.26,-126.35 387.31,-129.71 387.21,-122.71"/>
</a>
</g>
<text xml:space="preserve" text-anchor="start" x="500.5" y="-144.5" font-family="Helvetica,sans-Serif" font-size="10.00" fill="grey">&lt; R(Args...), C &gt;</text>
</g>
<!-- Node11&#45;&gt;Node10 -->
<g id="edge15_Node000010_Node000011" class="edge">
<title>Node11&#45;&gt;Node10</title>
<g id="a_edge15_Node000010_Node000011"><a xlink:title=" ">
<path fill="none" stroke="orange" stroke-dasharray="5,2" d="M387.09,-143.91C414.76,-150.96 447.23,-159.23 474.83,-166.26"/>
<polygon fill="orange" stroke="orange" points="387.97,-140.52 377.41,-141.45 386.24,-147.31 387.97,-140.52"/>
</a>
</g>
<text xml:space="preserve" text-anchor="start" x="396.5" y="-166.92" font-family="Helvetica,sans-Serif" font-size="10.00" fill="grey">&lt; R(Args...)&gt;</text>
</g>
<!-- Node12&#45;&gt;Node8 -->
<g id="edge17_Node000008_Node000012" class="edge">
<title>Node12&#45;&gt;Node8</title>
<g id="a_edge17_Node000008_Node000012"><a xlink:title=" ">
<path fill="none" stroke="#63b8ff" d="M600.33,-238.12C675.64,-238.91 806.74,-242.38 918.25,-256 924.33,-256.74 930.67,-257.71 936.95,-258.8"/>
<polygon fill="#63b8ff" stroke="#63b8ff" points="600.72,-234.63 590.69,-238.03 600.66,-241.62 600.72,-234.63"/>
</a>
</g>
</g>
<!-- Node13&#45;&gt;Node1 -->
<g id="edge30_Node000001_Node000013" class="edge">
<title>Node13&#45;&gt;Node1</title>
<g id="a_edge30_Node000001_Node000013"><a xlink:title=" ">
<path fill="none" stroke="orange" stroke-dasharray="5,2" d="M788.94,-487.36C803.85,-494.72 821.32,-502.3 838,-507 1189.86,-606.24 1632.75,-620.29 1795.25,-621.94"/>
<polygon fill="orange" stroke="orange" points="790.91,-484.43 780.41,-483.02 787.73,-490.67 790.91,-484.43"/>
</a>
</g>
<text xml:space="preserve" text-anchor="start" x="1302.5" y="-625.73" font-family="Helvetica,sans-Serif" font-size="10.00" fill="grey">&lt; R(Args...) const</text>
<text xml:space="preserve" text-anchor="start" x="1302.5" y="-609.73" font-family="Helvetica,sans-Serif" font-size="10.00" fill="grey">   volatile &amp;&amp;noexcept, C &gt;</text>
</g>
<!-- Node13&#45;&gt;Node5 -->
<g id="edge28_Node000005_Node000013" class="edge">
<title>Node13&#45;&gt;Node5</title>
<g id="a_edge28_Node000005_Node000013"><a xlink:title=" ">
<path fill="none" stroke="orange" stroke-dasharray="5,2" d="M813.22,-481.57C861.06,-492.06 928.71,-504 988.88,-504 988.88,-504 988.88,-504 1518.5,-504 1555.36,-504 1596.6,-504 1629.75,-504"/>
<polygon fill="orange" stroke="orange" points="814.11,-478.18 803.58,-479.41 812.58,-485.01 814.11,-478.18"/>
</a>
</g>
<text xml:space="preserve" text-anchor="start" x="1183.5" y="-525.5" font-family="Helvetica,sans-Serif" font-size="10.00" fill="grey">&lt; R(Args...) const</text>
<text xml:space="preserve" text-anchor="start" x="1183.5" y="-509.5" font-family="Helvetica,sans-Serif" font-size="10.00" fill="grey">   volatile &amp;&amp;, C &gt;</text>
</g>
<!-- Node13&#45;&gt;Node6 -->
<g id="edge26_Node000006_Node000013" class="edge">
<title>Node13&#45;&gt;Node6</title>
<g id="a_edge26_Node000006_Node000013"><a xlink:title=" ">
<path fill="none" stroke="orange" stroke-dasharray="5,2" d="M813.91,-460.9C933.53,-451.04 1200.28,-427.87 1424,-400 1429.72,-399.29 1435.64,-398.5 1441.58,-397.68"/>
<polygon fill="orange" stroke="orange" points="813.64,-457.41 803.96,-461.71 814.22,-464.38 813.64,-457.41"/>
</a>
</g>
<text xml:space="preserve" text-anchor="start" x="1064.5" y="-460.17" font-family="Helvetica,sans-Serif" font-size="10.00" fill="grey">&lt; R(Args...) const</text>
<text xml:space="preserve" text-anchor="start" x="1064.5" y="-444.17" font-family="Helvetica,sans-Serif" font-size="10.00" fill="grey">   volatile, C &gt;</text>
</g>
<!-- Node13&#45;&gt;Node7 -->
<g id="edge24_Node000007_Node000013" class="edge">
<title>Node13&#45;&gt;Node7</title>
<g id="a_edge24_Node000007_Node000013"><a xlink:title=" ">
<path fill="none" stroke="orange" stroke-dasharray="5,2" d="M813.27,-448.66C905.25,-423.3 1075.14,-376.46 1164.11,-351.93"/>
<polygon fill="orange" stroke="orange" points="812.35,-445.28 803.64,-451.31 814.21,-452.03 812.35,-445.28"/>
</a>
</g>
<text xml:space="preserve" text-anchor="start" x="939.25" y="-419.42" font-family="Helvetica,sans-Serif" font-size="10.00" fill="grey">&lt; R(Args...) const, C &gt;</text>
</g>
<!-- Node13&#45;&gt;Node8 -->
<g id="edge20_Node000008_Node000013" class="edge">
<title>Node13&#45;&gt;Node8</title>
<g id="a_edge20_Node000008_Node000013"><a xlink:title=" ">
<path fill="none" stroke="orange" stroke-dasharray="5,2" d="M776.62,-441.85C793.83,-426.21 816.96,-405.56 838,-388 882.93,-350.5 937.39,-308.79 967.05,-286.38"/>
<polygon fill="orange" stroke="orange" points="774.35,-439.18 769.32,-448.51 779.07,-444.35 774.35,-439.18"/>
</a>
</g>
<text xml:space="preserve" text-anchor="start" x="841" y="-393.5" font-family="Helvetica,sans-Serif" font-size="10.00" fill="grey">&lt; R(Args...), C &gt;</text>
</g>
</g>
</svg>
