<?xml version="1.0" encoding="UTF-8" standalone="no"?>
<!DOCTYPE svg PUBLIC "-//W3C//DTD SVG 1.1//EN"
 "http://www.w3.org/Graphics/SVG/1.1/DTD/svg11.dtd">
<!-- Generated by graphviz version 14.1.1 (20251213.1925)
 -->
<!-- Title: mstd::utils::function_core_traits&lt; R(Args...), void &gt; Pages: 1 -->
<svg width="197pt" height="138pt"
 viewBox="0.00 0.00 197.00 138.00" xmlns="http://www.w3.org/2000/svg" xmlns:xlink="http://www.w3.org/1999/xlink">
<g id="graph0" class="graph" transform="scale(1 1) rotate(0) translate(4 134)">
<title>mstd::utils::function_core_traits&lt; R(Args...), void &gt;</title>
<!-- Node1 -->
<g id="Node000001" class="node">
<title>Node1</title>
<g id="a_Node000001"><a xlink:title=" ">
<polygon fill="#999999" stroke="#666666" points="125.5,-44 6.75,-44 6.75,0 125.5,0 125.5,-44"/>
<text xml:space="preserve" text-anchor="start" x="14.75" y="-30.5" font-family="Helvetica,sans-Serif" font-size="10.00">mstd::utils::function</text>
<text xml:space="preserve" text-anchor="start" x="14.75" y="-18.5" font-family="Helvetica,sans-Serif" font-size="10.00">_core_traits&lt; R(Args...)</text>
<text xml:space="preserve" text-anchor="middle" x="66.12" y="-6.5" font-family="Helvetica,sans-Serif" font-size="10.00">, void &gt;</text>
</a>
</g>
</g>
<!-- Node2 -->
<g id="Node000002" class="node">
<title>Node2</title>
<g id="a_Node000002"><a xlink:title=" ">
<polygon fill="white" stroke="#666666" points="42.25,-124 0,-124 0,-104 42.25,-104 42.25,-124"/>
<text xml:space="preserve" text-anchor="middle" x="21.12" y="-110.5" font-family="Helvetica,sans-Serif" font-size="10.00">size_t</text>
</a>
</g>
</g>
<!-- Node2&#45;&gt;Node1 -->
<g id="edge1_Node000001_Node000002" class="edge">
<title>Node2&#45;&gt;Node1</title>
<g id="a_edge1_Node000001_Node000002"><a xlink:title=" ">
<path fill="none" stroke="#9a32cd" stroke-dasharray="5,2" d="M28.1,-92.93C31.67,-83.38 36.32,-71.9 41.38,-62 44.36,-56.14 47.98,-50.04 51.51,-44.44"/>
<polygon fill="#9a32cd" stroke="#9a32cd" points="24.81,-91.73 24.72,-102.32 31.4,-94.1 24.81,-91.73"/>
</a>
</g>
<text xml:space="preserve" text-anchor="start" x="44.38" y="-67.5" font-family="Helvetica,sans-Serif" font-size="10.00" fill="grey">args_num</text>
</g>
<!-- Node3 -->
<g id="Node000003" class="node">
<title>Node3</title>
<g id="a_Node000003"><a xlink:href="../../df/db9/structmstd_1_1utils_1_1function__core__traits.html" target="_top" xlink:title=" ">
<polygon fill="white" stroke="#666666" points="164,-130 60.25,-130 60.25,-98 164,-98 164,-130"/>
<text xml:space="preserve" text-anchor="start" x="68.25" y="-116.5" font-family="Helvetica,sans-Serif" font-size="10.00">mstd::utils::function</text>
<text xml:space="preserve" text-anchor="middle" x="112.12" y="-104.5" font-family="Helvetica,sans-Serif" font-size="10.00">_core_traits&lt; F, C &gt;</text>
</a>
</g>
</g>
<!-- Node3&#45;&gt;Node1 -->
<g id="edge2_Node000001_Node000003" class="edge">
<title>Node3&#45;&gt;Node1</title>
<g id="a_edge2_Node000001_Node000003"><a xlink:title=" ">
<path fill="none" stroke="orange" stroke-dasharray="5,2" d="M101.81,-87.11C98.34,-78.96 94.28,-70 90.12,-62 87.04,-56.07 83.4,-49.84 79.9,-44.13"/>
<polygon fill="orange" stroke="orange" points="98.5,-88.26 105.56,-96.16 104.97,-85.58 98.5,-88.26"/>
</a>
</g>
<text xml:space="preserve" text-anchor="start" x="101.68" y="-67.5" font-family="Helvetica,sans-Serif" font-size="10.00" fill="grey">&lt; R(Args...), void &gt;</text>
</g>
</g>
</svg>
