<?xml version="1.0" encoding="UTF-8" standalone="no"?>
<!DOCTYPE svg PUBLIC "-//W3C//DTD SVG 1.1//EN"
 "http://www.w3.org/Graphics/SVG/1.1/DTD/svg11.dtd">
<!-- Generated by graphviz version 14.1.1 (20251213.1925)
 -->
<!-- Title: mstd::function_traits&lt; R(C::*)(Args...) &amp;&amp;noexcept &gt; Pages: 1 -->
<!--zoomable 373 -->

<svg id="main" version="1.1" xmlns="http://www.w3.org/2000/svg" xmlns:xlink="http://www.w3.org/1999/xlink" xml:space="preserve" onload="init(evt)">

<style type="text/css"><![CDATA[
.node, .edge {opacity: 0.7;}
.node.selected, .edge.selected {opacity: 1;}
.edge:hover path { stroke: red; }
.edge:hover polygon { stroke: red; fill: red; }
]]></style>

<defs>
  <circle id="rim" cx="0" cy="0" r="7"/>
  <circle id="rim2" cx="0" cy="0" r="3.5"/>
  <g id="zoomPlus">
    <use xlink:href="#rim" fill="#404040"><set attributeName="fill" to="#808080" begin="zoomplus.mouseover" end="zoomplus.mouseout"/></use>
    <path d="M-4,0h8M0,-4v8" fill="none" stroke="white" stroke-width="1.5" pointer-events="none"/>
  </g>
  <g id="zoomMin">
    <use xlink:href="#rim" fill="#404040"><set attributeName="fill" to="#808080" begin="zoomminus.mouseover" end="zoomminus.mouseout"/></use>
    <path d="M-4,0h8" fill="none" stroke="white" stroke-width="1.5" pointer-events="none"/>
  </g>
  <g id="arrowUp" transform="translate(30 24)">
    <use xlink:href="#rim"/>
    <path pointer-events="none" fill="none" stroke="white" stroke-width="1.5" d="M0,-3.0v7 M-2.5,-0.5L0,-3.0L2.5,-0.5"/>
  </g>
  <g id="arrowRight" transform="rotate(90) translate(36 -43)">
    <use xlink:href="#rim"/>
    <path pointer-events="none" fill="none" stroke="white" stroke-width="1.5" d="M0,-3.0v7 M-2.5,-0.5L0,-3.0L2.5,-0.5"/>
  </g>
  <g id="arrowDown" transform="rotate(180) translate(-30 -48)">
    <use xlink:href="#rim"/>
    <path pointer-events="none" fill="none" stroke="white" stroke-width="1.5" d="M0,-3.0v7 M-2.5,-0.5L0,-3.0L2.5,-0.5"/>
  </g>
  <g id="arrowLeft" transform="rotate(270) translate(-36 17)">
    <use xlink:href="#rim"/>
    <path pointer-events="none" fill="none" stroke="white" stroke-width="1.5" d="M0,-3.0v7 M-2.5,-0.5L0,-3.0L2.5,-0.5"/>
  </g>
  <g id="resetDef">
    <use xlink:href="#rim2" fill="#404040"><set attributeName="fill" to="#808080" begin="reset.mouseover" end="reset.mouseout"/></use>
  </g>
</defs>
<script type="application/ecmascript">
var viewWidth = 1493;
var viewHeight = 373;
var sectionId = 'dynsection-0';
</script>
<script type="application/ecmascript" xlink:href="../../svg.min.js"/>
<svg id="graph" class="graph">
<g id="viewport">
<title>mstd::function_traits&lt; R(C::*)(Args...) &amp;&amp;noexcept &gt;</title>
<!-- Node1 -->
<g id="Node000001" class="node">
<title>Node1</title>
<g id="a_Node000001"><a xlink:title=" ">
<polygon fill="#999999" stroke="#666666" points="1485.25,-100.05 1329,-100.05 1329,-68.05 1485.25,-68.05 1485.25,-100.05"/>
<text xml:space="preserve" text-anchor="start" x="1337" y="-86.55" font-family="Helvetica,sans-Serif" font-size="10.00">mstd::function_traits</text>
<text xml:space="preserve" text-anchor="middle" x="1407.12" y="-74.55" font-family="Helvetica,sans-Serif" font-size="10.00">&lt; R(C::*)(Args...) &amp;&amp;noexcept &gt;</text>
</a>
</g>
</g>
<!-- Node2 -->
<g id="Node000002" class="node">
<title>Node2</title>
<g id="a_Node000002"><a xlink:href="../../d0/d74/structmstd_1_1utils_1_1function__default__type__traits.html" target="_top" xlink:title=" ">
<polygon fill="white" stroke="#666666" points="317,-230.05 214.75,-230.05 214.75,-186.05 317,-186.05 317,-230.05"/>
<text xml:space="preserve" text-anchor="start" x="222.75" y="-216.55" font-family="Helvetica,sans-Serif" font-size="10.00">mstd::utils::function</text>
<text xml:space="preserve" text-anchor="start" x="222.75" y="-204.55" font-family="Helvetica,sans-Serif" font-size="10.00">_default_type_traits</text>
<text xml:space="preserve" text-anchor="middle" x="265.88" y="-192.55" font-family="Helvetica,sans-Serif" font-size="10.00">&lt; false &gt;</text>
</a>
</g>
</g>
<!-- Node2&#45;&gt;Node1 -->
<g id="edge1_Node000001_Node000002" class="edge">
<title>Node2&#45;&gt;Node1</title>
<g id="a_edge1_Node000001_Node000002"><a xlink:title=" ">
<path fill="none" stroke="#63b8ff" d="M275.66,-174.72C286.53,-139.89 308.42,-86.08 346.25,-55.05 414.17,0.68 448.27,-0.05 536.12,-0.05 536.12,-0.05 536.12,-0.05 1219.75,-0.05 1284.88,-0.05 1352.4,-43.2 1385.42,-67.65"/>
<polygon fill="#63b8ff" stroke="#63b8ff" points="272.31,-173.71 272.81,-184.29 279.02,-175.7 272.31,-173.71"/>
</a>
</g>
</g>
<!-- Node4 -->
<g id="Node000004" class="node">
<title>Node4</title>
<g id="a_Node000004"><a xlink:href="../../db/d8b/structmstd_1_1function__traits_3_01_r_07_args_8_8_8_08_01_6_6noexcept_00_01_c_01_4.html" target="_top" xlink:title=" ">
<polygon fill="white" stroke="#666666" points="1292,-153.05 1145.5,-153.05 1145.5,-121.05 1292,-121.05 1292,-153.05"/>
<text xml:space="preserve" text-anchor="start" x="1153.5" y="-139.55" font-family="Helvetica,sans-Serif" font-size="10.00">mstd::function_traits</text>
<text xml:space="preserve" text-anchor="middle" x="1218.75" y="-127.55" font-family="Helvetica,sans-Serif" font-size="10.00">&lt; R(Args...) &amp;&amp;noexcept, C &gt;</text>
</a>
</g>
</g>
<!-- Node2&#45;&gt;Node4 -->
<g id="edge4_Node000004_Node000002" class="edge">
<title>Node2&#45;&gt;Node4</title>
<g id="a_edge4_Node000004_Node000002"><a xlink:title=" ">
<path fill="none" stroke="#63b8ff" d="M292.63,-177.48C336.95,-128.55 432.87,-38.05 536.12,-38.05 536.12,-38.05 536.12,-38.05 1056.12,-38.05 1118.65,-38.05 1177.39,-92.58 1203.53,-120.7"/>
<polygon fill="#63b8ff" stroke="#63b8ff" points="290.26,-174.89 286.22,-184.69 295.49,-179.54 290.26,-174.89"/>
</a>
</g>
</g>
<!-- Node5 -->
<g id="Node000005" class="node">
<title>Node5</title>
<g id="a_Node000005"><a xlink:href="../../d2/d1d/structmstd_1_1function__traits_3_01_r_07_args_8_8_8_08_01_6_6_00_01_c_01_4.html" target="_top" xlink:title=" ">
<polygon fill="white" stroke="#666666" points="1108.5,-228.05 1001.75,-228.05 1001.75,-196.05 1108.5,-196.05 1108.5,-228.05"/>
<text xml:space="preserve" text-anchor="start" x="1009.75" y="-214.55" font-family="Helvetica,sans-Serif" font-size="10.00">mstd::function_traits</text>
<text xml:space="preserve" text-anchor="middle" x="1055.12" y="-202.55" font-family="Helvetica,sans-Serif" font-size="10.00">&lt; R(Args...) &amp;&amp;, C &gt;</text>
</a>
</g>
</g>
<!-- Node2&#45;&gt;Node5 -->
<g id="edge6_Node000005_Node000002" class="edge">
<title>Node2&#45;&gt;Node5</title>
<g id="a_edge6_Node000005_Node000002"><a xlink:title=" ">
<path fill="none" stroke="#63b8ff" d="M328.57,-208.36C478.65,-209.12 860.81,-211.06 1001.28,-211.78"/>
<polygon fill="#63b8ff" stroke="#63b8ff" points="328.85,-204.86 318.83,-208.31 328.81,-211.86 328.85,-204.86"/>
</a>
</g>
</g>
<!-- Node6 -->
<g id="Node000006" class="node">
<title>Node6</title>
<g id="a_Node000006"><a xlink:href="../../dd/db6/structmstd_1_1function__traits_3_01_r_07_args_8_8_8_08_00_01_c_01_4.html" target="_top" xlink:title=" ">
<polygon fill="white" stroke="#666666" points="829.25,-283.05 724,-283.05 724,-251.05 829.25,-251.05 829.25,-283.05"/>
<text xml:space="preserve" text-anchor="start" x="732" y="-269.55" font-family="Helvetica,sans-Serif" font-size="10.00">mstd::function_traits</text>
<text xml:space="preserve" text-anchor="middle" x="776.62" y="-257.55" font-family="Helvetica,sans-Serif" font-size="10.00">&lt; R(Args...), C &gt;</text>
</a>
</g>
</g>
<!-- Node2&#45;&gt;Node6 -->
<g id="edge8_Node000006_Node000002" class="edge">
<title>Node2&#45;&gt;Node6</title>
<g id="a_edge8_Node000006_Node000002"><a xlink:title=" ">
<path fill="none" stroke="#63b8ff" d="M328.2,-226.24C334.27,-227.68 340.36,-228.98 346.25,-230.05 481,-254.31 642.51,-262.79 723.67,-265.66"/>
<polygon fill="#63b8ff" stroke="#63b8ff" points="329.39,-222.93 318.83,-223.9 327.69,-229.72 329.39,-222.93"/>
</a>
</g>
</g>
<!-- Node11 -->
<g id="Node000011" class="node">
<title>Node11</title>
<g id="a_Node000011"><a xlink:href="../../d7/dcb/structmstd_1_1function__traits.html" target="_top" xlink:title=" ">
<polygon fill="white" stroke="#666666" points="589.75,-173.05 484.5,-173.05 484.5,-141.05 589.75,-141.05 589.75,-173.05"/>
<text xml:space="preserve" text-anchor="start" x="492.5" y="-159.55" font-family="Helvetica,sans-Serif" font-size="10.00">mstd::function_traits</text>
<text xml:space="preserve" text-anchor="middle" x="537.12" y="-147.55" font-family="Helvetica,sans-Serif" font-size="10.00">&lt; F, C &gt;</text>
</a>
</g>
</g>
<!-- Node2&#45;&gt;Node11 -->
<g id="edge16_Node000011_Node000002" class="edge">
<title>Node2&#45;&gt;Node11</title>
<g id="a_edge16_Node000011_Node000002"><a xlink:title=" ">
<path fill="none" stroke="#63b8ff" d="M328.48,-196.38C375.56,-187.46 439.72,-175.31 484.21,-166.88"/>
<polygon fill="#63b8ff" stroke="#63b8ff" points="327.86,-192.93 318.69,-198.23 329.17,-199.81 327.86,-192.93"/>
</a>
</g>
</g>
<!-- Node3 -->
<g id="Node000003" class="node">
<title>Node3</title>
<g id="a_Node000003"><a xlink:href="../../d0/d74/structmstd_1_1utils_1_1function__default__type__traits.html" target="_top" xlink:title=" ">
<polygon fill="white" stroke="#666666" points="103,-284.05 0.75,-284.05 0.75,-240.05 103,-240.05 103,-284.05"/>
<text xml:space="preserve" text-anchor="start" x="8.75" y="-270.55" font-family="Helvetica,sans-Serif" font-size="10.00">mstd::utils::function</text>
<text xml:space="preserve" text-anchor="start" x="8.75" y="-258.55" font-family="Helvetica,sans-Serif" font-size="10.00">_default_type_traits</text>
<text xml:space="preserve" text-anchor="middle" x="51.88" y="-246.55" font-family="Helvetica,sans-Serif" font-size="10.00">&lt; IsMember &gt;</text>
</a>
</g>
</g>
<!-- Node3&#45;&gt;Node2 -->
<g id="edge2_Node000002_Node000003" class="edge">
<title>Node3&#45;&gt;Node2</title>
<g id="a_edge2_Node000002_Node000003"><a xlink:title=" ">
<path fill="none" stroke="orange" stroke-dasharray="5,2" d="M99.94,-234.67C107.07,-231.34 114.48,-228.32 121.75,-226.05 151.63,-216.69 186.45,-212.18 214.27,-210.02"/>
<polygon fill="orange" stroke="orange" points="98.5,-231.48 91.08,-239.04 101.6,-237.75 98.5,-231.48"/>
</a>
</g>
<text xml:space="preserve" text-anchor="start" x="134.12" y="-231.55" font-family="Helvetica,sans-Serif" font-size="10.00" fill="grey">&lt; false &gt;</text>
</g>
<!-- Node10 -->
<g id="Node000010" class="node">
<title>Node10</title>
<g id="a_Node000010"><a xlink:href="../../d0/d74/structmstd_1_1utils_1_1function__default__type__traits.html" target="_top" xlink:title=" ">
<polygon fill="white" stroke="#666666" points="448.5,-313.05 346.25,-313.05 346.25,-269.05 448.5,-269.05 448.5,-313.05"/>
<text xml:space="preserve" text-anchor="start" x="354.25" y="-299.55" font-family="Helvetica,sans-Serif" font-size="10.00">mstd::utils::function</text>
<text xml:space="preserve" text-anchor="start" x="354.25" y="-287.55" font-family="Helvetica,sans-Serif" font-size="10.00">_default_type_traits</text>
<text xml:space="preserve" text-anchor="middle" x="397.38" y="-275.55" font-family="Helvetica,sans-Serif" font-size="10.00">&lt; true &gt;</text>
</a>
</g>
</g>
<!-- Node3&#45;&gt;Node10 -->
<g id="edge14_Node000010_Node000003" class="edge">
<title>Node3&#45;&gt;Node10</title>
<g id="a_edge14_Node000010_Node000003"><a xlink:title=" ">
<path fill="none" stroke="orange" stroke-dasharray="5,2" d="M114.27,-267.23C180.4,-272.81 284.38,-281.59 345.92,-286.79"/>
<polygon fill="orange" stroke="orange" points="114.96,-263.77 104.7,-266.42 114.37,-270.75 114.96,-263.77"/>
</a>
</g>
<text xml:space="preserve" text-anchor="start" x="136.38" y="-278.35" font-family="Helvetica,sans-Serif" font-size="10.00" fill="grey">&lt; true &gt;</text>
</g>
<!-- Node4&#45;&gt;Node1 -->
<g id="edge3_Node000001_Node000004" class="edge">
<title>Node4&#45;&gt;Node1</title>
<g id="a_edge3_Node000001_Node000004"><a xlink:title=" ">
<path fill="none" stroke="#63b8ff" d="M1288.7,-117.44C1308.27,-111.87 1329.37,-105.87 1348.21,-100.51"/>
<polygon fill="#63b8ff" stroke="#63b8ff" points="1287.82,-114.05 1279.15,-120.15 1289.73,-120.78 1287.82,-114.05"/>
</a>
</g>
</g>
<!-- Node5&#45;&gt;Node4 -->
<g id="edge5_Node000004_Node000005" class="edge">
<title>Node5&#45;&gt;Node4</title>
<g id="a_edge5_Node000004_Node000005"><a xlink:title=" ">
<path fill="none" stroke="#63b8ff" d="M1101.79,-190.86C1127.33,-179 1158.7,-164.45 1182.36,-153.47"/>
<polygon fill="#63b8ff" stroke="#63b8ff" points="1100.56,-187.57 1092.97,-194.95 1103.51,-193.91 1100.56,-187.57"/>
</a>
</g>
</g>
<!-- Node6&#45;&gt;Node5 -->
<g id="edge7_Node000005_Node000006" class="edge">
<title>Node6&#45;&gt;Node5</title>
<g id="a_edge7_Node000005_Node000006"><a xlink:title=" ">
<path fill="none" stroke="#63b8ff" d="M840.64,-261.13C881.78,-256.47 936.43,-248.77 983.75,-237.05 993.06,-234.74 1002.87,-231.67 1012.11,-228.49"/>
<polygon fill="#63b8ff" stroke="#63b8ff" points="840.48,-257.62 830.92,-262.2 841.25,-264.58 840.48,-257.62"/>
</a>
</g>
</g>
<!-- Node7 -->
<g id="Node000007" class="node">
<title>Node7</title>
<g id="a_Node000007"><a xlink:href="../../d1/d4f/structmstd_1_1utils_1_1function__core__traits_3_01_r_07_args_8_8_8_08_00_01_c_01_4.html" target="_top" xlink:title=" ">
<polygon fill="white" stroke="#666666" points="607.75,-352.05 466.5,-352.05 466.5,-320.05 607.75,-320.05 607.75,-352.05"/>
<text xml:space="preserve" text-anchor="start" x="474.5" y="-338.55" font-family="Helvetica,sans-Serif" font-size="10.00">mstd::utils::function</text>
<text xml:space="preserve" text-anchor="middle" x="537.12" y="-326.55" font-family="Helvetica,sans-Serif" font-size="10.00">_core_traits&lt; R(Args...), C &gt;</text>
</a>
</g>
</g>
<!-- Node7&#45;&gt;Node6 -->
<g id="edge9_Node000006_Node000007" class="edge">
<title>Node7&#45;&gt;Node6</title>
<g id="a_edge9_Node000006_Node000007"><a xlink:title=" ">
<path fill="none" stroke="#63b8ff" d="M619.44,-327.1C647.4,-322.57 678.56,-315.87 706,-306.05 721.78,-300.4 738.2,-291.37 751.13,-283.43"/>
<polygon fill="#63b8ff" stroke="#63b8ff" points="618.93,-323.64 609.58,-328.62 620,-330.56 618.93,-323.64"/>
</a>
</g>
</g>
<!-- Node8 -->
<g id="Node000008" class="node">
<title>Node8</title>
<g id="a_Node000008"><a xlink:href="../../df/db9/structmstd_1_1utils_1_1function__core__traits.html" target="_top" xlink:title=" ">
<polygon fill="white" stroke="#666666" points="328.25,-329.05 203.5,-329.05 203.5,-297.05 328.25,-297.05 328.25,-329.05"/>
<text xml:space="preserve" text-anchor="start" x="211.5" y="-315.55" font-family="Helvetica,sans-Serif" font-size="10.00">mstd::utils::function</text>
<text xml:space="preserve" text-anchor="middle" x="265.88" y="-303.55" font-family="Helvetica,sans-Serif" font-size="10.00">_core_traits&lt; R(Args...)&gt;</text>
</a>
</g>
</g>
<!-- Node8&#45;&gt;Node7 -->
<g id="edge10_Node000007_Node000008" class="edge">
<title>Node8&#45;&gt;Node7</title>
<g id="a_edge10_Node000007_Node000008"><a xlink:title=" ">
<path fill="none" stroke="#63b8ff" d="M339.99,-319.29C379.22,-322.64 427.34,-326.75 466.1,-330.06"/>
<polygon fill="#63b8ff" stroke="#63b8ff" points="340.42,-315.81 330.15,-318.45 339.82,-322.79 340.42,-315.81"/>
</a>
</g>
</g>
<!-- Node9 -->
<g id="Node000009" class="node">
<title>Node9</title>
<g id="a_Node000009"><a xlink:href="../../df/db9/structmstd_1_1utils_1_1function__core__traits.html" target="_top" xlink:title=" ">
<polygon fill="white" stroke="#666666" points="103.75,-348.05 0,-348.05 0,-316.05 103.75,-316.05 103.75,-348.05"/>
<text xml:space="preserve" text-anchor="start" x="8" y="-334.55" font-family="Helvetica,sans-Serif" font-size="10.00">mstd::utils::function</text>
<text xml:space="preserve" text-anchor="middle" x="51.88" y="-322.55" font-family="Helvetica,sans-Serif" font-size="10.00">_core_traits&lt; F, C &gt;</text>
</a>
</g>
</g>
<!-- Node9&#45;&gt;Node7 -->
<g id="edge12_Node000007_Node000009" class="edge">
<title>Node9&#45;&gt;Node7</title>
<g id="a_edge12_Node000007_Node000009"><a xlink:title=" ">
<path fill="none" stroke="orange" stroke-dasharray="5,2" d="M115.51,-346.28C117.61,-346.57 119.69,-346.82 121.75,-347.05 149.92,-350.08 157.17,-347.49 185.5,-347.05 282.93,-345.52 395.54,-341.6 466.29,-338.88"/>
<polygon fill="orange" stroke="orange" points="116.12,-342.83 105.7,-344.72 115.03,-349.75 116.12,-342.83"/>
</a>
</g>
<text xml:space="preserve" text-anchor="start" x="228.75" y="-352.18" font-family="Helvetica,sans-Serif" font-size="10.00" fill="grey">&lt; R(Args...), C &gt;</text>
</g>
<!-- Node9&#45;&gt;Node8 -->
<g id="edge11_Node000008_Node000009" class="edge">
<title>Node9&#45;&gt;Node8</title>
<g id="a_edge11_Node000008_Node000009"><a xlink:title=" ">
<path fill="none" stroke="orange" stroke-dasharray="5,2" d="M115.34,-326.45C143.01,-323.97 175.48,-321.06 203.08,-318.58"/>
<polygon fill="orange" stroke="orange" points="115.35,-322.93 105.7,-327.31 115.97,-329.9 115.35,-322.93"/>
</a>
</g>
<text xml:space="preserve" text-anchor="start" x="124.75" y="-330.86" font-family="Helvetica,sans-Serif" font-size="10.00" fill="grey">&lt; R(Args...)&gt;</text>
</g>
<!-- Node10&#45;&gt;Node6 -->
<g id="edge13_Node000006_Node000010" class="edge">
<title>Node10&#45;&gt;Node6</title>
<g id="a_edge13_Node000006_Node000010"><a xlink:title=" ">
<path fill="none" stroke="#63b8ff" d="M460.22,-287.11C533.65,-282.44 654.81,-274.73 723.62,-270.35"/>
<polygon fill="#63b8ff" stroke="#63b8ff" points="460.13,-283.61 450.37,-287.74 460.57,-290.6 460.13,-283.61"/>
</a>
</g>
</g>
<!-- Node11&#45;&gt;Node1 -->
<g id="edge19_Node000001_Node000011" class="edge">
<title>Node11&#45;&gt;Node1</title>
<g id="a_edge19_Node000001_Node000011"><a xlink:title=" ">
<path fill="none" stroke="orange" stroke-dasharray="5,2" d="M580.12,-135.8C626.67,-114.25 704.59,-84.05 775.62,-84.05 775.62,-84.05 775.62,-84.05 1219.75,-84.05 1255.5,-84.05 1295.12,-84.05 1328.6,-84.05"/>
<polygon fill="orange" stroke="orange" points="578.74,-132.58 571.19,-140.02 581.73,-138.91 578.74,-132.58"/>
</a>
</g>
<text xml:space="preserve" text-anchor="start" x="1017.62" y="-105.55" font-family="Helvetica,sans-Serif" font-size="10.00" fill="grey">&lt; R(C::*)(Args...)</text>
<text xml:space="preserve" text-anchor="start" x="1017.62" y="-89.55" font-family="Helvetica,sans-Serif" font-size="10.00" fill="grey">   &amp;&amp;noexcept &gt;</text>
</g>
<!-- Node11&#45;&gt;Node4 -->
<g id="edge18_Node000004_Node000011" class="edge">
<title>Node11&#45;&gt;Node4</title>
<g id="a_edge18_Node000004_Node000011"><a xlink:title=" ">
<path fill="none" stroke="orange" stroke-dasharray="5,2" d="M601.43,-155.18C727.98,-151.46 1011.48,-143.12 1145.25,-139.18"/>
<polygon fill="orange" stroke="orange" points="601.45,-151.68 591.56,-155.47 601.66,-158.68 601.45,-151.68"/>
</a>
</g>
<text xml:space="preserve" text-anchor="start" x="850.25" y="-153.41" font-family="Helvetica,sans-Serif" font-size="10.00" fill="grey">&lt; R(Args...) &amp;&amp;noexcept, C &gt;</text>
</g>
<!-- Node11&#45;&gt;Node5 -->
<g id="edge17_Node000005_Node000011" class="edge">
<title>Node11&#45;&gt;Node5</title>
<g id="a_edge17_Node000005_Node000011"><a xlink:title=" ">
<path fill="none" stroke="orange" stroke-dasharray="5,2" d="M601.41,-163.79C704.32,-174.76 906.02,-196.26 1001.55,-206.44"/>
<polygon fill="orange" stroke="orange" points="601.78,-160.31 591.47,-162.73 601.04,-167.27 601.78,-160.31"/>
</a>
</g>
<text xml:space="preserve" text-anchor="start" x="731.25" y="-192.79" font-family="Helvetica,sans-Serif" font-size="10.00" fill="grey">&lt; R(Args...) &amp;&amp;, C &gt;</text>
</g>
<!-- Node11&#45;&gt;Node6 -->
<g id="edge15_Node000006_Node000011" class="edge">
<title>Node11&#45;&gt;Node6</title>
<g id="a_edge15_Node000006_Node000011"><a xlink:title=" ">
<path fill="none" stroke="orange" stroke-dasharray="5,2" d="M599.18,-177.28C631.61,-188.87 671.73,-204.57 706,-222.05 722.28,-230.35 739.55,-241.49 752.81,-250.61"/>
<polygon fill="orange" stroke="orange" points="600.52,-174.04 589.93,-174.02 598.19,-180.65 600.52,-174.04"/>
</a>
</g>
<text xml:space="preserve" text-anchor="start" x="628.75" y="-227.55" font-family="Helvetica,sans-Serif" font-size="10.00" fill="grey">&lt; R(Args...), C &gt;</text>
</g>
</g>
</svg>

<g id="navigator" transform="translate(0 0)" fill="#404254">
  <rect fill="#f2f5e9" fill-opacity="0.5" stroke="#606060" stroke-width=".5" x="0" y="0" width="60" height="60"/>
  <use id="zoomplus" xlink:href="#zoomPlus" x="17" y="9" onmousedown="handleZoom(evt,'in')"/>
  <use id="zoomminus" xlink:href="#zoomMin" x="42" y="9" onmousedown="handleZoom(evt,'out')"/>
  <use id="reset" xlink:href="#resetDef" x="30" y="36" onmousedown="handleReset()"/>
   <use id="arrowup" xlink:href="#arrowUp" x="0" y="0" onmousedown="handlePan(0,-1)"/>
  <use id="arrowright" xlink:href="#arrowRight" x="0" y="0" onmousedown="handlePan(1,0)"/>
  <use id="arrowdown" xlink:href="#arrowDown" x="0" y="0" onmousedown="handlePan(0,1)"/>
  <use id="arrowleft" xlink:href="#arrowLeft" x="0" y="0" onmousedown="handlePan(-1,0)"/>
</g>
<svg viewBox="0 0 15 15" width="100%" height="30px" preserveAspectRatio="xMaxYMin meet">
 <g id="arrow_out" transform="scale(0.3 0.3)">
  <a xlink:href="structmstd_1_1function__traits_3_01_r_07_c_1_1_5_08_07_args_8_8_8_08_01_6_6noexcept_01_4__inherit__graph_org.svg" target="_base">
   <rect id="button" ry="5" rx="5" y="6" x="6" height="38" width="38"
        fill="#f2f5e9" fill-opacity="0.5" stroke="#606060" stroke-width="1.0"/>
   <path id="arrow"
     d="M 11.500037,31.436501 C 11.940474,20.09759 22.043105,11.32322 32.158766,21.979434 L 37.068811,17.246167 C 37.068811,17.246167 37.088388,32 37.088388,32 L 22.160133,31.978069 C 22.160133,31.978069 26.997745,27.140456 26.997745,27.140456 C 18.528582,18.264221 13.291696,25.230495 11.500037,31.436501 z"
     style="fill:#404040;"/>
  </a>
 </g>
</svg>

<style type='text/css'>
<![CDATA[
[data-mouse-over-selected='false'] { opacity: 0.7; }
[data-mouse-over-selected='true']  { opacity: 1.0; }
]]>
</style>
<script type="application/ecmascript"><![CDATA[
document.addEventListener('DOMContentLoaded', (event) => {
  highlightEdges();
  highlightAdjacentNodes();
});
]]></script>
</svg>
