<?xml version="1.0" encoding="UTF-8" standalone="no"?>
<!DOCTYPE svg PUBLIC "-//W3C//DTD SVG 1.1//EN"
 "http://www.w3.org/Graphics/SVG/1.1/DTD/svg11.dtd">
<!-- Generated by graphviz version 14.1.1 (20251213.1925)
 -->
<!-- Title: mstd::function_traits&lt; R(C::*)(Args...) &amp; &gt; Pages: 1 -->
<svg width="1457pt" height="638pt"
 viewBox="0.00 0.00 1457.00 638.00" xmlns="http://www.w3.org/2000/svg" xmlns:xlink="http://www.w3.org/1999/xlink">
<g id="graph0" class="graph" transform="scale(1 1) rotate(0) translate(4 633.98)">
<title>mstd::function_traits&lt; R(C::*)(Args...) &amp; &gt;</title>
<!-- Node1 -->
<g id="Node000001" class="node">
<title>Node1</title>
<g id="a_Node000001"><a xlink:title=" ">
<polygon fill="#999999" stroke="#666666" points="1448.75,-443 1339,-443 1339,-411 1448.75,-411 1448.75,-443"/>
<text xml:space="preserve" text-anchor="start" x="1347" y="-429.5" font-family="Helvetica,sans-Serif" font-size="10.00">mstd::function_traits</text>
<text xml:space="preserve" text-anchor="middle" x="1393.88" y="-417.5" font-family="Helvetica,sans-Serif" font-size="10.00">&lt; R(C::*)(Args...) &amp; &gt;</text>
</a>
</g>
</g>
<!-- Node2 -->
<g id="Node000002" class="node">
<title>Node2</title>
<g id="a_Node000002"><a xlink:href="../../d0/d74/structmstd_1_1utils_1_1function__default__type__traits.html" target="_top" xlink:title=" ">
<polygon fill="white" stroke="#666666" points="588.75,-338 486.5,-338 486.5,-294 588.75,-294 588.75,-338"/>
<text xml:space="preserve" text-anchor="start" x="494.5" y="-324.5" font-family="Helvetica,sans-Serif" font-size="10.00">mstd::utils::function</text>
<text xml:space="preserve" text-anchor="start" x="494.5" y="-312.5" font-family="Helvetica,sans-Serif" font-size="10.00">_default_type_traits</text>
<text xml:space="preserve" text-anchor="middle" x="537.62" y="-300.5" font-family="Helvetica,sans-Serif" font-size="10.00">&lt; false &gt;</text>
</a>
</g>
</g>
<!-- Node2&#45;&gt;Node1 -->
<g id="edge1_Node000001_Node000002" class="edge">
<title>Node2&#45;&gt;Node1</title>
<g id="a_edge1_Node000001_Node000002"><a xlink:title=" ">
<path fill="none" stroke="#63b8ff" d="M563.98,-346.85C602.91,-390.49 681.94,-465 767.88,-465 767.88,-465 767.88,-465 1250.38,-465 1286.09,-465 1325.2,-453.72 1353.39,-443.45"/>
<polygon fill="#63b8ff" stroke="#63b8ff" points="566.73,-344.68 557.52,-339.45 561.46,-349.28 566.73,-344.68"/>
</a>
</g>
</g>
<!-- Node5 -->
<g id="Node000005" class="node">
<title>Node5</title>
<g id="a_Node000005"><a xlink:href="../../d8/d00/structmstd_1_1function__traits_3_01_r_07_args_8_8_8_08_01_6_00_01_c_01_4.html" target="_top" xlink:title=" ">
<polygon fill="white" stroke="#666666" points="1302,-334 1196.75,-334 1196.75,-302 1302,-302 1302,-334"/>
<text xml:space="preserve" text-anchor="start" x="1204.75" y="-320.5" font-family="Helvetica,sans-Serif" font-size="10.00">mstd::function_traits</text>
<text xml:space="preserve" text-anchor="middle" x="1249.38" y="-308.5" font-family="Helvetica,sans-Serif" font-size="10.00">&lt; R(Args...) &amp;, C &gt;</text>
</a>
</g>
</g>
<!-- Node2&#45;&gt;Node5 -->
<g id="edge6_Node000005_Node000002" class="edge">
<title>Node2&#45;&gt;Node5</title>
<g id="a_edge6_Node000005_Node000002"><a xlink:title=" ">
<path fill="none" stroke="#63b8ff" d="M600.53,-308.86C698.38,-298.57 894.75,-281.96 1061,-293 1107.01,-296.06 1158.96,-303.29 1196.46,-309.19"/>
<polygon fill="#63b8ff" stroke="#63b8ff" points="600.17,-305.38 590.6,-309.92 600.91,-312.34 600.17,-305.38"/>
</a>
</g>
</g>
<!-- Node6 -->
<g id="Node000006" class="node">
<title>Node6</title>
<g id="a_Node000006"><a xlink:href="../../dd/db6/structmstd_1_1function__traits_3_01_r_07_args_8_8_8_08_00_01_c_01_4.html" target="_top" xlink:title=" ">
<polygon fill="white" stroke="#666666" points="1061,-334 955.75,-334 955.75,-302 1061,-302 1061,-334"/>
<text xml:space="preserve" text-anchor="start" x="963.75" y="-320.5" font-family="Helvetica,sans-Serif" font-size="10.00">mstd::function_traits</text>
<text xml:space="preserve" text-anchor="middle" x="1008.38" y="-308.5" font-family="Helvetica,sans-Serif" font-size="10.00">&lt; R(Args...), C &gt;</text>
</a>
</g>
</g>
<!-- Node2&#45;&gt;Node6 -->
<g id="edge8_Node000006_Node000002" class="edge">
<title>Node2&#45;&gt;Node6</title>
<g id="a_edge8_Node000006_Node000002"><a xlink:title=" ">
<path fill="none" stroke="#63b8ff" d="M600.75,-316.27C694.06,-316.66 868.68,-317.41 955.55,-317.78"/>
<polygon fill="#63b8ff" stroke="#63b8ff" points="600.76,-312.77 590.75,-316.22 600.73,-319.77 600.76,-312.77"/>
</a>
</g>
</g>
<!-- Node11 -->
<g id="Node000011" class="node">
<title>Node11</title>
<g id="a_Node000011"><a xlink:href="../../d7/dcb/structmstd_1_1function__traits.html" target="_top" xlink:title=" ">
<polygon fill="white" stroke="#666666" points="821.5,-393 716.25,-393 716.25,-361 821.5,-361 821.5,-393"/>
<text xml:space="preserve" text-anchor="start" x="724.25" y="-379.5" font-family="Helvetica,sans-Serif" font-size="10.00">mstd::function_traits</text>
<text xml:space="preserve" text-anchor="middle" x="768.88" y="-367.5" font-family="Helvetica,sans-Serif" font-size="10.00">&lt; F, C &gt;</text>
</a>
</g>
</g>
<!-- Node2&#45;&gt;Node11 -->
<g id="edge17_Node000011_Node000002" class="edge">
<title>Node2&#45;&gt;Node11</title>
<g id="a_edge17_Node000011_Node000002"><a xlink:title=" ">
<path fill="none" stroke="#63b8ff" d="M600.12,-332.36C636.26,-341.98 681.45,-354 715.82,-363.15"/>
<polygon fill="#63b8ff" stroke="#63b8ff" points="601.25,-329.04 590.68,-329.85 599.45,-335.81 601.25,-329.04"/>
</a>
</g>
</g>
<!-- Node3 -->
<g id="Node000003" class="node">
<title>Node3</title>
<g id="a_Node000003"><a xlink:title=" ">
<polygon fill="white" stroke="#666666" points="155.5,-145 0,-145 0,-113 155.5,-113 155.5,-145"/>
<text xml:space="preserve" text-anchor="start" x="8" y="-131.5" font-family="Helvetica,sans-Serif" font-size="10.00">static _MSTD_CONSTEXPR17</text>
<text xml:space="preserve" text-anchor="middle" x="77.75" y="-119.5" font-family="Helvetica,sans-Serif" font-size="10.00"> const bool</text>
</a>
</g>
</g>
<!-- Node3&#45;&gt;Node2 -->
<g id="edge2_Node000002_Node000003" class="edge">
<title>Node3&#45;&gt;Node2</title>
<g id="a_edge2_Node000002_Node000003"><a xlink:title=" ">
<path fill="none" stroke="#9a32cd" stroke-dasharray="5,2" d="M84.19,-156.47C93.99,-197.69 118.9,-274.3 173.5,-308 224.34,-339.38 398.89,-328.69 486.14,-321.01"/>
<polygon fill="#9a32cd" stroke="#9a32cd" points="87.64,-155.85 82.05,-146.85 80.81,-157.37 87.64,-155.85"/>
</a>
</g>
<text xml:space="preserve" text-anchor="start" x="286.5" y="-494.66" font-family="Helvetica,sans-Serif" font-size="10.00" fill="grey">is_const</text>
<text xml:space="preserve" text-anchor="start" x="286.5" y="-478.66" font-family="Helvetica,sans-Serif" font-size="10.00" fill="grey">is_free</text>
<text xml:space="preserve" text-anchor="start" x="286.5" y="-462.66" font-family="Helvetica,sans-Serif" font-size="10.00" fill="grey">is_functor</text>
<text xml:space="preserve" text-anchor="start" x="286.5" y="-446.66" font-family="Helvetica,sans-Serif" font-size="10.00" fill="grey">is_member</text>
<text xml:space="preserve" text-anchor="start" x="286.5" y="-430.66" font-family="Helvetica,sans-Serif" font-size="10.00" fill="grey">is_moved</text>
<text xml:space="preserve" text-anchor="start" x="286.5" y="-414.66" font-family="Helvetica,sans-Serif" font-size="10.00" fill="grey">is_noexcept</text>
<text xml:space="preserve" text-anchor="start" x="286.5" y="-398.66" font-family="Helvetica,sans-Serif" font-size="10.00" fill="grey">is_parent_moved</text>
<text xml:space="preserve" text-anchor="start" x="286.5" y="-382.66" font-family="Helvetica,sans-Serif" font-size="10.00" fill="grey">is_parent_ref</text>
<text xml:space="preserve" text-anchor="start" x="286.5" y="-366.66" font-family="Helvetica,sans-Serif" font-size="10.00" fill="grey">is_ptr</text>
<text xml:space="preserve" text-anchor="start" x="286.5" y="-350.66" font-family="Helvetica,sans-Serif" font-size="10.00" fill="grey">is_ref</text>
<text xml:space="preserve" text-anchor="start" x="286.5" y="-334.66" font-family="Helvetica,sans-Serif" font-size="10.00" fill="grey"> &#160;...</text>
</g>
<!-- Node4 -->
<g id="Node000004" class="node">
<title>Node4</title>
<g id="a_Node000004"><a xlink:href="../../d0/d74/structmstd_1_1utils_1_1function__default__type__traits.html" target="_top" xlink:title=" ">
<polygon fill="white" stroke="#666666" points="374.75,-286 272.5,-286 272.5,-242 374.75,-242 374.75,-286"/>
<text xml:space="preserve" text-anchor="start" x="280.5" y="-272.5" font-family="Helvetica,sans-Serif" font-size="10.00">mstd::utils::function</text>
<text xml:space="preserve" text-anchor="start" x="280.5" y="-260.5" font-family="Helvetica,sans-Serif" font-size="10.00">_default_type_traits</text>
<text xml:space="preserve" text-anchor="middle" x="323.62" y="-248.5" font-family="Helvetica,sans-Serif" font-size="10.00">&lt; IsMember &gt;</text>
</a>
</g>
</g>
<!-- Node3&#45;&gt;Node4 -->
<g id="edge4_Node000004_Node000003" class="edge">
<title>Node3&#45;&gt;Node4</title>
<g id="a_edge4_Node000004_Node000003"><a xlink:title=" ">
<path fill="none" stroke="#9a32cd" stroke-dasharray="5,2" d="M145.24,-110.55C181.27,-104.78 224.31,-105.33 253.75,-130 287.69,-158.44 247.92,-190.68 271.75,-228 275.01,-233.11 279.28,-237.7 283.96,-241.77"/>
<polygon fill="#9a32cd" stroke="#9a32cd" points="145.02,-107.03 135.8,-112.25 146.26,-113.92 145.02,-107.03"/>
</a>
</g>
<text xml:space="preserve" text-anchor="start" x="176.5" y="-295.5" font-family="Helvetica,sans-Serif" font-size="10.00" fill="grey">is_const</text>
<text xml:space="preserve" text-anchor="start" x="176.5" y="-279.5" font-family="Helvetica,sans-Serif" font-size="10.00" fill="grey">is_free</text>
<text xml:space="preserve" text-anchor="start" x="176.5" y="-263.5" font-family="Helvetica,sans-Serif" font-size="10.00" fill="grey">is_functor</text>
<text xml:space="preserve" text-anchor="start" x="176.5" y="-247.5" font-family="Helvetica,sans-Serif" font-size="10.00" fill="grey">is_member</text>
<text xml:space="preserve" text-anchor="start" x="176.5" y="-231.5" font-family="Helvetica,sans-Serif" font-size="10.00" fill="grey">is_moved</text>
<text xml:space="preserve" text-anchor="start" x="176.5" y="-215.5" font-family="Helvetica,sans-Serif" font-size="10.00" fill="grey">is_noexcept</text>
<text xml:space="preserve" text-anchor="start" x="176.5" y="-199.5" font-family="Helvetica,sans-Serif" font-size="10.00" fill="grey">is_parent_moved</text>
<text xml:space="preserve" text-anchor="start" x="176.5" y="-183.5" font-family="Helvetica,sans-Serif" font-size="10.00" fill="grey">is_parent_ref</text>
<text xml:space="preserve" text-anchor="start" x="176.5" y="-167.5" font-family="Helvetica,sans-Serif" font-size="10.00" fill="grey">is_ptr</text>
<text xml:space="preserve" text-anchor="start" x="176.5" y="-151.5" font-family="Helvetica,sans-Serif" font-size="10.00" fill="grey">is_ref</text>
<text xml:space="preserve" text-anchor="start" x="176.5" y="-135.5" font-family="Helvetica,sans-Serif" font-size="10.00" fill="grey"> &#160;...</text>
</g>
<!-- Node3&#45;&gt;Node5 -->
<g id="edge19_Node000005_Node000003" class="edge">
<title>Node3&#45;&gt;Node5</title>
<g id="a_edge19_Node000005_Node000003"><a xlink:title=" ">
<path fill="none" stroke="#9a32cd" stroke-dasharray="5,2" d="M99.99,-104.32C117.82,-85.05 144.9,-58.96 173.5,-43 233.74,-9.39 253.65,0 322.62,0 322.62,0 322.62,0 1009.38,0 1162,0 1229.23,-236.99 1244.75,-301.79"/>
<polygon fill="#9a32cd" stroke="#9a32cd" points="97.6,-101.75 93.49,-111.51 102.8,-106.44 97.6,-101.75"/>
</a>
</g>
<text xml:space="preserve" text-anchor="start" x="621" y="-5.5" font-family="Helvetica,sans-Serif" font-size="10.00" fill="grey">is_parent_ref</text>
</g>
<!-- Node10 -->
<g id="Node000010" class="node">
<title>Node10</title>
<g id="a_Node000010"><a xlink:href="../../d0/d74/structmstd_1_1utils_1_1function__default__type__traits.html" target="_top" xlink:title=" ">
<polygon fill="white" stroke="#666666" points="588.75,-270 486.5,-270 486.5,-226 588.75,-226 588.75,-270"/>
<text xml:space="preserve" text-anchor="start" x="494.5" y="-256.5" font-family="Helvetica,sans-Serif" font-size="10.00">mstd::utils::function</text>
<text xml:space="preserve" text-anchor="start" x="494.5" y="-244.5" font-family="Helvetica,sans-Serif" font-size="10.00">_default_type_traits</text>
<text xml:space="preserve" text-anchor="middle" x="537.62" y="-232.5" font-family="Helvetica,sans-Serif" font-size="10.00">&lt; true &gt;</text>
</a>
</g>
</g>
<!-- Node3&#45;&gt;Node10 -->
<g id="edge14_Node000010_Node000003" class="edge">
<title>Node3&#45;&gt;Node10</title>
<g id="a_edge14_Node000010_Node000003"><a xlink:title=" ">
<path fill="none" stroke="#9a32cd" stroke-dasharray="5,2" d="M111.97,-106.74C168.36,-71.97 285.44,-12.87 375.5,-55 452,-90.79 504.91,-182.74 526.18,-225.51"/>
<polygon fill="#9a32cd" stroke="#9a32cd" points="110.36,-103.62 103.77,-111.91 114.1,-109.54 110.36,-103.62"/>
</a>
</g>
<text xml:space="preserve" text-anchor="start" x="286.5" y="-220.5" font-family="Helvetica,sans-Serif" font-size="10.00" fill="grey">is_const</text>
<text xml:space="preserve" text-anchor="start" x="286.5" y="-204.5" font-family="Helvetica,sans-Serif" font-size="10.00" fill="grey">is_free</text>
<text xml:space="preserve" text-anchor="start" x="286.5" y="-188.5" font-family="Helvetica,sans-Serif" font-size="10.00" fill="grey">is_functor</text>
<text xml:space="preserve" text-anchor="start" x="286.5" y="-172.5" font-family="Helvetica,sans-Serif" font-size="10.00" fill="grey">is_member</text>
<text xml:space="preserve" text-anchor="start" x="286.5" y="-156.5" font-family="Helvetica,sans-Serif" font-size="10.00" fill="grey">is_moved</text>
<text xml:space="preserve" text-anchor="start" x="286.5" y="-140.5" font-family="Helvetica,sans-Serif" font-size="10.00" fill="grey">is_noexcept</text>
<text xml:space="preserve" text-anchor="start" x="286.5" y="-124.5" font-family="Helvetica,sans-Serif" font-size="10.00" fill="grey">is_parent_moved</text>
<text xml:space="preserve" text-anchor="start" x="286.5" y="-108.5" font-family="Helvetica,sans-Serif" font-size="10.00" fill="grey">is_parent_ref</text>
<text xml:space="preserve" text-anchor="start" x="286.5" y="-92.5" font-family="Helvetica,sans-Serif" font-size="10.00" fill="grey">is_ptr</text>
<text xml:space="preserve" text-anchor="start" x="286.5" y="-76.5" font-family="Helvetica,sans-Serif" font-size="10.00" fill="grey">is_ref</text>
<text xml:space="preserve" text-anchor="start" x="286.5" y="-60.5" font-family="Helvetica,sans-Serif" font-size="10.00" fill="grey"> &#160;...</text>
</g>
<!-- Node3&#45;&gt;Node11 -->
<g id="edge18_Node000011_Node000003" class="edge">
<title>Node3&#45;&gt;Node11</title>
<g id="a_edge18_Node000011_Node000003"><a xlink:title=" ">
<path fill="none" stroke="#9a32cd" stroke-dasharray="5,2" d="M82.64,-156.52C94.73,-230.31 139.19,-432.33 271.75,-511 437.09,-609.12 675.63,-447.09 746.97,-393.37"/>
<polygon fill="#9a32cd" stroke="#9a32cd" points="86.14,-156.27 81.14,-146.92 79.23,-157.34 86.14,-156.27"/>
</a>
</g>
<text xml:space="preserve" text-anchor="start" x="410.75" y="-547.41" font-family="Helvetica,sans-Serif" font-size="10.00" fill="grey">is_free</text>
</g>
<!-- Node4&#45;&gt;Node2 -->
<g id="edge3_Node000002_Node000004" class="edge">
<title>Node4&#45;&gt;Node2</title>
<g id="a_edge3_Node000002_Node000004"><a xlink:title=" ">
<path fill="none" stroke="orange" stroke-dasharray="5,2" d="M386.14,-274.43C408.65,-278.67 434.23,-284 457.25,-290 466.65,-292.45 476.57,-295.4 486.09,-298.42"/>
<polygon fill="orange" stroke="orange" points="386.98,-271.03 376.51,-272.65 385.71,-277.91 386.98,-271.03"/>
</a>
</g>
<text xml:space="preserve" text-anchor="start" x="405.88" y="-295.5" font-family="Helvetica,sans-Serif" font-size="10.00" fill="grey">&lt; false &gt;</text>
</g>
<!-- Node4&#45;&gt;Node10 -->
<g id="edge15_Node000010_Node000004" class="edge">
<title>Node4&#45;&gt;Node10</title>
<g id="a_edge15_Node000010_Node000004"><a xlink:title=" ">
<path fill="none" stroke="orange" stroke-dasharray="5,2" d="M386.42,-249.9C388.81,-249.56 391.17,-249.26 393.5,-249 424.12,-245.6 458.66,-245.25 486.13,-245.81"/>
<polygon fill="orange" stroke="orange" points="386,-246.43 376.7,-251.49 387.13,-253.33 386,-246.43"/>
</a>
</g>
<text xml:space="preserve" text-anchor="start" x="408.12" y="-254.5" font-family="Helvetica,sans-Serif" font-size="10.00" fill="grey">&lt; true &gt;</text>
</g>
<!-- Node5&#45;&gt;Node1 -->
<g id="edge5_Node000001_Node000005" class="edge">
<title>Node5&#45;&gt;Node1</title>
<g id="a_edge5_Node000001_Node000005"><a xlink:title=" ">
<path fill="none" stroke="#63b8ff" d="M1280.8,-341.27C1308.04,-362.11 1347.3,-392.14 1371.4,-410.57"/>
<polygon fill="#63b8ff" stroke="#63b8ff" points="1282.98,-338.53 1272.91,-335.24 1278.73,-344.09 1282.98,-338.53"/>
</a>
</g>
</g>
<!-- Node6&#45;&gt;Node5 -->
<g id="edge7_Node000005_Node000006" class="edge">
<title>Node6&#45;&gt;Node5</title>
<g id="a_edge7_Node000005_Node000006"><a xlink:title=" ">
<path fill="none" stroke="#63b8ff" d="M1072.38,-318C1111.12,-318 1160.15,-318 1196.62,-318"/>
<polygon fill="#63b8ff" stroke="#63b8ff" points="1072.75,-314.5 1062.75,-318 1072.75,-321.5 1072.75,-314.5"/>
</a>
</g>
</g>
<!-- Node7 -->
<g id="Node000007" class="node">
<title>Node7</title>
<g id="a_Node000007"><a xlink:href="../../d1/d4f/structmstd_1_1utils_1_1function__core__traits_3_01_r_07_args_8_8_8_08_00_01_c_01_4.html" target="_top" xlink:title=" ">
<polygon fill="white" stroke="#666666" points="839.5,-588 698.25,-588 698.25,-556 839.5,-556 839.5,-588"/>
<text xml:space="preserve" text-anchor="start" x="706.25" y="-574.5" font-family="Helvetica,sans-Serif" font-size="10.00">mstd::utils::function</text>
<text xml:space="preserve" text-anchor="middle" x="768.88" y="-562.5" font-family="Helvetica,sans-Serif" font-size="10.00">_core_traits&lt; R(Args...), C &gt;</text>
</a>
</g>
</g>
<!-- Node7&#45;&gt;Node6 -->
<g id="edge9_Node000006_Node000007" class="edge">
<title>Node7&#45;&gt;Node6</title>
<g id="a_edge9_Node000006_Node000007"><a xlink:title=" ">
<path fill="none" stroke="#63b8ff" d="M788.47,-546.51C820.1,-504.1 887.58,-417.52 955.75,-355 963.8,-347.62 973.34,-340.42 982.02,-334.35"/>
<polygon fill="#63b8ff" stroke="#63b8ff" points="785.79,-544.25 782.65,-554.37 791.42,-548.42 785.79,-544.25"/>
</a>
</g>
</g>
<!-- Node8 -->
<g id="Node000008" class="node">
<title>Node8</title>
<g id="a_Node000008"><a xlink:href="../../df/db9/structmstd_1_1utils_1_1function__core__traits.html" target="_top" xlink:title=" ">
<polygon fill="white" stroke="#666666" points="600,-588 475.25,-588 475.25,-556 600,-556 600,-588"/>
<text xml:space="preserve" text-anchor="start" x="483.25" y="-574.5" font-family="Helvetica,sans-Serif" font-size="10.00">mstd::utils::function</text>
<text xml:space="preserve" text-anchor="middle" x="537.62" y="-562.5" font-family="Helvetica,sans-Serif" font-size="10.00">_core_traits&lt; R(Args...)&gt;</text>
</a>
</g>
</g>
<!-- Node8&#45;&gt;Node7 -->
<g id="edge10_Node000007_Node000008" class="edge">
<title>Node8&#45;&gt;Node7</title>
<g id="a_edge10_Node000007_Node000008"><a xlink:title=" ">
<path fill="none" stroke="#63b8ff" d="M611.55,-572C639.19,-572 670.57,-572 697.93,-572"/>
<polygon fill="#63b8ff" stroke="#63b8ff" points="611.87,-568.5 601.87,-572 611.87,-575.5 611.87,-568.5"/>
</a>
</g>
</g>
<!-- Node9 -->
<g id="Node000009" class="node">
<title>Node9</title>
<g id="a_Node000009"><a xlink:href="../../df/db9/structmstd_1_1utils_1_1function__core__traits.html" target="_top" xlink:title=" ">
<polygon fill="white" stroke="#666666" points="375.5,-618 271.75,-618 271.75,-586 375.5,-586 375.5,-618"/>
<text xml:space="preserve" text-anchor="start" x="279.75" y="-604.5" font-family="Helvetica,sans-Serif" font-size="10.00">mstd::utils::function</text>
<text xml:space="preserve" text-anchor="middle" x="323.62" y="-592.5" font-family="Helvetica,sans-Serif" font-size="10.00">_core_traits&lt; F, C &gt;</text>
</a>
</g>
</g>
<!-- Node9&#45;&gt;Node7 -->
<g id="edge12_Node000007_Node000009" class="edge">
<title>Node9&#45;&gt;Node7</title>
<g id="a_edge12_Node000007_Node000009"><a xlink:title=" ">
<path fill="none" stroke="orange" stroke-dasharray="5,2" d="M386.92,-609.56C389.14,-609.73 391.34,-609.87 393.5,-610 521.18,-617.39 553.75,-604.77 680.25,-586 686.04,-585.14 692.04,-584.23 698.07,-583.3"/>
<polygon fill="orange" stroke="orange" points="387.49,-606.1 377.23,-608.73 386.89,-613.07 387.49,-606.1"/>
</a>
</g>
<text xml:space="preserve" text-anchor="start" x="500.5" y="-617.48" font-family="Helvetica,sans-Serif" font-size="10.00" fill="grey">&lt; R(Args...), C &gt;</text>
</g>
<!-- Node9&#45;&gt;Node8 -->
<g id="edge11_Node000008_Node000009" class="edge">
<title>Node9&#45;&gt;Node8</title>
<g id="a_edge11_Node000008_Node000009"><a xlink:title=" ">
<path fill="none" stroke="orange" stroke-dasharray="5,2" d="M386.94,-592.94C389.16,-592.62 391.35,-592.31 393.5,-592 420.2,-588.2 449.72,-584.06 474.97,-580.54"/>
<polygon fill="orange" stroke="orange" points="386.67,-589.44 377.27,-594.33 387.67,-596.37 386.67,-589.44"/>
</a>
</g>
<text xml:space="preserve" text-anchor="start" x="396.5" y="-597.5" font-family="Helvetica,sans-Serif" font-size="10.00" fill="grey">&lt; R(Args...)&gt;</text>
</g>
<!-- Node10&#45;&gt;Node6 -->
<g id="edge13_Node000006_Node000010" class="edge">
<title>Node10&#45;&gt;Node6</title>
<g id="a_edge13_Node000006_Node000010"><a xlink:title=" ">
<path fill="none" stroke="#63b8ff" d="M600.46,-257.23C693.7,-271.16 868.59,-297.28 955.55,-310.26"/>
<polygon fill="#63b8ff" stroke="#63b8ff" points="601.14,-253.8 590.73,-255.78 600.11,-260.72 601.14,-253.8"/>
</a>
</g>
</g>
<!-- Node11&#45;&gt;Node1 -->
<g id="edge21_Node000001_Node000011" class="edge">
<title>Node11&#45;&gt;Node1</title>
<g id="a_edge21_Node000001_Node000011"><a xlink:title=" ">
<path fill="none" stroke="orange" stroke-dasharray="5,2" d="M833.33,-382.09C956.04,-391.94 1223.88,-413.44 1338.77,-422.66"/>
<polygon fill="orange" stroke="orange" points="833.68,-378.61 823.43,-381.3 833.12,-385.59 833.68,-378.61"/>
</a>
</g>
<text xml:space="preserve" text-anchor="start" x="1082" y="-415.31" font-family="Helvetica,sans-Serif" font-size="10.00" fill="grey">&lt; R(C::*)(Args...) &amp; &gt;</text>
</g>
<!-- Node11&#45;&gt;Node5 -->
<g id="edge20_Node000005_Node000011" class="edge">
<title>Node11&#45;&gt;Node5</title>
<g id="a_edge20_Node000005_Node000011"><a xlink:title=" ">
<path fill="none" stroke="orange" stroke-dasharray="5,2" d="M833,-372.41C864.5,-369.94 903.17,-366.66 937.75,-363 1045.14,-351.62 1072.19,-349.54 1178.75,-332 1184.47,-331.06 1190.43,-329.99 1196.36,-328.88"/>
<polygon fill="orange" stroke="orange" points="832.94,-368.9 823.24,-373.16 833.48,-375.88 832.94,-368.9"/>
</a>
</g>
<text xml:space="preserve" text-anchor="start" x="966.38" y="-366.34" font-family="Helvetica,sans-Serif" font-size="10.00" fill="grey">&lt; R(Args...) &amp;, C &gt;</text>
</g>
<!-- Node11&#45;&gt;Node6 -->
<g id="edge16_Node000006_Node000011" class="edge">
<title>Node11&#45;&gt;Node6</title>
<g id="a_edge16_Node000006_Node000011"><a xlink:title=" ">
<path fill="none" stroke="orange" stroke-dasharray="5,2" d="M821.03,-356.65C832.88,-352.4 845.53,-348.24 857.5,-345 889.66,-336.3 926.47,-329.62 955.56,-325.09"/>
<polygon fill="orange" stroke="orange" points="820.02,-353.29 811.84,-360.02 822.43,-359.86 820.02,-353.29"/>
</a>
</g>
<text xml:space="preserve" text-anchor="start" x="860.5" y="-350.5" font-family="Helvetica,sans-Serif" font-size="10.00" fill="grey">&lt; R(Args...), C &gt;</text>
</g>
</g>
</svg>
