<?xml version="1.0" encoding="UTF-8" standalone="no"?>
<!DOCTYPE svg PUBLIC "-//W3C//DTD SVG 1.1//EN"
 "http://www.w3.org/Graphics/SVG/1.1/DTD/svg11.dtd">
<!-- Generated by graphviz version 14.1.1 (20251213.1925)
 -->
<!-- Title: mstd::ordered_map&lt; Key, T &gt; Pages: 1 -->
<svg width="261pt" height="286pt"
 viewBox="0.00 0.00 261.00 286.00" xmlns="http://www.w3.org/2000/svg" xmlns:xlink="http://www.w3.org/1999/xlink">
<g id="graph0" class="graph" transform="scale(1 1) rotate(0) translate(4 282)">
<title>mstd::ordered_map&lt; Key, T &gt;</title>
<!-- Node1 -->
<g id="Node000001" class="node">
<title>Node1</title>
<g id="a_Node000001"><a xlink:title=" ">
<polygon fill="#999999" stroke="#666666" points="158.38,-32 52.38,-32 52.38,0 158.38,0 158.38,-32"/>
<text xml:space="preserve" text-anchor="start" x="60.38" y="-18.5" font-family="Helvetica,sans-Serif" font-size="10.00">mstd::ordered_map&lt;</text>
<text xml:space="preserve" text-anchor="middle" x="105.38" y="-6.5" font-family="Helvetica,sans-Serif" font-size="10.00"> Key, T &gt;</text>
</a>
</g>
</g>
<!-- Node2 -->
<g id="Node000002" class="node">
<title>Node2</title>
<g id="a_Node000002"><a xlink:title=" ">
<polygon fill="white" stroke="#666666" points="94.75,-118 0,-118 0,-86 94.75,-86 94.75,-118"/>
<text xml:space="preserve" text-anchor="start" x="8" y="-104.5" font-family="Helvetica,sans-Serif" font-size="10.00">std::vector&lt; value</text>
<text xml:space="preserve" text-anchor="middle" x="47.38" y="-92.5" font-family="Helvetica,sans-Serif" font-size="10.00">_type &gt;</text>
</a>
</g>
</g>
<!-- Node2&#45;&gt;Node1 -->
<g id="edge1_Node000001_Node000002" class="edge">
<title>Node2&#45;&gt;Node1</title>
<g id="a_edge1_Node000001_Node000002"><a xlink:title=" ">
<path fill="none" stroke="#9a32cd" stroke-dasharray="5,2" d="M46.98,-74.11C47.92,-65.86 50.1,-57.09 54.62,-50 59.09,-43 65.63,-37.18 72.54,-32.47"/>
<polygon fill="#9a32cd" stroke="#9a32cd" points="43.48,-73.89 46.43,-84.07 50.47,-74.27 43.48,-73.89"/>
</a>
</g>
<text xml:space="preserve" text-anchor="start" x="57.62" y="-55.5" font-family="Helvetica,sans-Serif" font-size="10.00" fill="grey">_orderedElements</text>
</g>
<!-- Node3 -->
<g id="Node000003" class="node">
<title>Node3</title>
<g id="a_Node000003"><a xlink:title=" ">
<polygon fill="white" stroke="#666666" points="90.25,-198 4.5,-198 4.5,-178 90.25,-178 90.25,-198"/>
<text xml:space="preserve" text-anchor="middle" x="47.38" y="-184.5" font-family="Helvetica,sans-Serif" font-size="10.00">std::vector&lt; T &gt;</text>
</a>
</g>
</g>
<!-- Node3&#45;&gt;Node2 -->
<g id="edge2_Node000002_Node000003" class="edge">
<title>Node3&#45;&gt;Node2</title>
<g id="a_edge2_Node000002_Node000003"><a xlink:title=" ">
<path fill="none" stroke="orange" stroke-dasharray="5,2" d="M47.38,-166.61C47.38,-151.72 47.38,-131.86 47.38,-118.32"/>
<polygon fill="orange" stroke="orange" points="43.88,-166.18 47.38,-176.18 50.88,-166.18 43.88,-166.18"/>
</a>
</g>
<text xml:space="preserve" text-anchor="start" x="50.38" y="-141.5" font-family="Helvetica,sans-Serif" font-size="10.00" fill="grey">&lt; value_type &gt;</text>
</g>
<!-- Node4 -->
<g id="Node000004" class="node">
<title>Node4</title>
<g id="a_Node000004"><a xlink:title=" ">
<polygon fill="white" stroke="#666666" points="96.78,-278 67.97,-278 67.97,-258 96.78,-258 96.78,-278"/>
<text xml:space="preserve" text-anchor="middle" x="82.38" y="-264.5" font-family="Helvetica,sans-Serif" font-size="10.00">T</text>
</a>
</g>
</g>
<!-- Node4&#45;&gt;Node3 -->
<g id="edge3_Node000003_Node000004" class="edge">
<title>Node4&#45;&gt;Node3</title>
<g id="a_edge3_Node000003_Node000004"><a xlink:title=" ">
<path fill="none" stroke="#9a32cd" stroke-dasharray="5,2" d="M58.6,-252.49C54.59,-248.92 50.98,-244.74 48.62,-240 42.02,-226.67 43.54,-208.87 45.37,-198.21"/>
<polygon fill="#9a32cd" stroke="#9a32cd" points="56.35,-255.17 66.45,-258.38 60.56,-249.58 56.35,-255.17"/>
</a>
</g>
<text xml:space="preserve" text-anchor="start" x="51.62" y="-227.5" font-family="Helvetica,sans-Serif" font-size="10.00" fill="grey">elements</text>
</g>
<!-- Node6 -->
<g id="Node000006" class="node">
<title>Node6</title>
<g id="a_Node000006"><a xlink:title=" ">
<polygon fill="white" stroke="#666666" points="215.5,-204 113.25,-204 113.25,-172 215.5,-172 215.5,-204"/>
<text xml:space="preserve" text-anchor="start" x="121.25" y="-190.5" font-family="Helvetica,sans-Serif" font-size="10.00">std::unordered_map</text>
<text xml:space="preserve" text-anchor="middle" x="164.38" y="-178.5" font-family="Helvetica,sans-Serif" font-size="10.00">&lt; K, T &gt;</text>
</a>
</g>
</g>
<!-- Node4&#45;&gt;Node6 -->
<g id="edge7_Node000006_Node000004" class="edge">
<title>Node4&#45;&gt;Node6</title>
<g id="a_edge7_Node000006_Node000004"><a xlink:title=" ">
<path fill="none" stroke="#9a32cd" stroke-dasharray="5,2" d="M97.57,-249.23C105.12,-240.71 114.55,-230.53 123.62,-222 130.12,-215.89 137.62,-209.62 144.39,-204.21"/>
<polygon fill="#9a32cd" stroke="#9a32cd" points="95.14,-246.68 91.21,-256.52 100.42,-251.28 95.14,-246.68"/>
</a>
</g>
<text xml:space="preserve" text-anchor="start" x="126.62" y="-227.5" font-family="Helvetica,sans-Serif" font-size="10.00" fill="grey">elements</text>
</g>
<!-- Node5 -->
<g id="Node000005" class="node">
<title>Node5</title>
<g id="a_Node000005"><a xlink:title=" ">
<polygon fill="white" stroke="#666666" points="215.5,-118 113.25,-118 113.25,-86 215.5,-86 215.5,-118"/>
<text xml:space="preserve" text-anchor="start" x="121.25" y="-104.5" font-family="Helvetica,sans-Serif" font-size="10.00">std::unordered_map</text>
<text xml:space="preserve" text-anchor="middle" x="164.38" y="-92.5" font-family="Helvetica,sans-Serif" font-size="10.00">&lt; Key, size_type &gt;</text>
</a>
</g>
</g>
<!-- Node5&#45;&gt;Node1 -->
<g id="edge4_Node000001_Node000005" class="edge">
<title>Node5&#45;&gt;Node1</title>
<g id="a_edge4_Node000001_Node000005"><a xlink:title=" ">
<path fill="none" stroke="#9a32cd" stroke-dasharray="5,2" d="M153.8,-75.1C149.84,-66.74 144.93,-57.66 139.38,-50 134.83,-43.74 129.04,-37.63 123.53,-32.4"/>
<polygon fill="#9a32cd" stroke="#9a32cd" points="150.55,-76.41 157.82,-84.12 156.94,-73.56 150.55,-76.41"/>
</a>
</g>
<text xml:space="preserve" text-anchor="start" x="152.9" y="-55.5" font-family="Helvetica,sans-Serif" font-size="10.00" fill="grey">_elementsMap</text>
</g>
<!-- Node6&#45;&gt;Node5 -->
<g id="edge5_Node000005_Node000006" class="edge">
<title>Node6&#45;&gt;Node5</title>
<g id="a_edge5_Node000005_Node000006"><a xlink:title=" ">
<path fill="none" stroke="orange" stroke-dasharray="5,2" d="M164.38,-160.27C164.38,-146.42 164.38,-130.01 164.38,-118.31"/>
<polygon fill="orange" stroke="orange" points="160.88,-160.08 164.38,-170.08 167.88,-160.08 160.88,-160.08"/>
</a>
</g>
<text xml:space="preserve" text-anchor="start" x="167.38" y="-141.5" font-family="Helvetica,sans-Serif" font-size="10.00" fill="grey">&lt; Key, size_type &gt;</text>
</g>
<!-- Node7 -->
<g id="Node000007" class="node">
<title>Node7</title>
<g id="a_Node000007"><a xlink:title=" ">
<polygon fill="white" stroke="#666666" points="199.78,-278 170.97,-278 170.97,-258 199.78,-258 199.78,-278"/>
<text xml:space="preserve" text-anchor="middle" x="185.38" y="-264.5" font-family="Helvetica,sans-Serif" font-size="10.00">K</text>
</a>
</g>
</g>
<!-- Node7&#45;&gt;Node6 -->
<g id="edge6_Node000006_Node000007" class="edge">
<title>Node7&#45;&gt;Node6</title>
<g id="a_edge6_Node000006_Node000007"><a xlink:title=" ">
<path fill="none" stroke="#9a32cd" stroke-dasharray="5,2" d="M179.97,-246.91C176.4,-233.67 171.8,-216.59 168.53,-204.42"/>
<polygon fill="#9a32cd" stroke="#9a32cd" points="176.51,-247.54 182.49,-256.28 183.27,-245.72 176.51,-247.54"/>
</a>
</g>
<text xml:space="preserve" text-anchor="start" x="180.98" y="-227.5" font-family="Helvetica,sans-Serif" font-size="10.00" fill="grey">keys</text>
</g>
</g>
</svg>
