<?xml version="1.0" encoding="UTF-8" standalone="no"?>
<!DOCTYPE svg PUBLIC "-//W3C//DTD SVG 1.1//EN"
 "http://www.w3.org/Graphics/SVG/1.1/DTD/svg11.dtd">
<!-- Generated by graphviz version 14.1.1 (20251213.1925)
 -->
<!-- Title: mstd::base_id_manager&lt; IdT &gt; Pages: 1 -->
<svg width="365pt" height="274pt"
 viewBox="0.00 0.00 365.00 274.00" xmlns="http://www.w3.org/2000/svg" xmlns:xlink="http://www.w3.org/1999/xlink">
<g id="graph0" class="graph" transform="scale(1 1) rotate(0) translate(4 270)">
<title>mstd::base_id_manager&lt; IdT &gt;</title>
<!-- Node1 -->
<g id="Node000001" class="node">
<title>Node1</title>
<g id="a_Node000001"><a xlink:title=" ">
<polygon fill="#999999" stroke="#666666" points="248.88,-32 128.62,-32 128.62,0 248.88,0 248.88,-32"/>
<text xml:space="preserve" text-anchor="start" x="136.62" y="-18.5" font-family="Helvetica,sans-Serif" font-size="10.00">mstd::base_id_manager</text>
<text xml:space="preserve" text-anchor="middle" x="188.75" y="-6.5" font-family="Helvetica,sans-Serif" font-size="10.00">&lt; IdT &gt;</text>
</a>
</g>
</g>
<!-- Node2 -->
<g id="Node000002" class="node">
<title>Node2</title>
<g id="a_Node000002"><a xlink:title=" ">
<polygon fill="white" stroke="#666666" points="155.5,-118 0,-118 0,-86 155.5,-86 155.5,-118"/>
<text xml:space="preserve" text-anchor="start" x="8" y="-104.5" font-family="Helvetica,sans-Serif" font-size="10.00">static _MSTD_CONSTEXPR17</text>
<text xml:space="preserve" text-anchor="middle" x="77.75" y="-92.5" font-family="Helvetica,sans-Serif" font-size="10.00"> id_type</text>
</a>
</g>
</g>
<!-- Node2&#45;&gt;Node1 -->
<g id="edge1_Node000001_Node000002" class="edge">
<title>Node2&#45;&gt;Node1</title>
<g id="a_edge1_Node000001_Node000002"><a xlink:title=" ">
<path fill="none" stroke="#9a32cd" stroke-dasharray="5,2" d="M105.55,-78.37C116.76,-69.4 129.89,-59.07 142,-50 149.95,-44.04 158.82,-37.71 166.69,-32.19"/>
<polygon fill="#9a32cd" stroke="#9a32cd" points="103.42,-75.59 97.83,-84.59 107.81,-81.05 103.42,-75.59"/>
</a>
</g>
<text xml:space="preserve" text-anchor="start" x="145" y="-55.5" font-family="Helvetica,sans-Serif" font-size="10.00" fill="grey">max_ids</text>
</g>
<!-- Node3 -->
<g id="Node000003" class="node">
<title>Node3</title>
<g id="a_Node000003"><a xlink:title=" ">
<polygon fill="white" stroke="#666666" points="203.88,-112 173.62,-112 173.62,-92 203.88,-92 203.88,-112"/>
<text xml:space="preserve" text-anchor="middle" x="188.75" y="-98.5" font-family="Helvetica,sans-Serif" font-size="10.00">IdT</text>
</a>
</g>
</g>
<!-- Node3&#45;&gt;Node1 -->
<g id="edge2_Node000001_Node000003" class="edge">
<title>Node3&#45;&gt;Node1</title>
<g id="a_edge2_Node000001_Node000003"><a xlink:title=" ">
<path fill="none" stroke="#9a32cd" stroke-dasharray="5,2" d="M188.75,-80.61C188.75,-65.72 188.75,-45.86 188.75,-32.32"/>
<polygon fill="#9a32cd" stroke="#9a32cd" points="185.25,-80.18 188.75,-90.18 192.25,-80.18 185.25,-80.18"/>
</a>
</g>
<text xml:space="preserve" text-anchor="start" x="191.75" y="-55.5" font-family="Helvetica,sans-Serif" font-size="10.00" fill="grey">_nextId</text>
</g>
<!-- Node4 -->
<g id="Node000004" class="node">
<title>Node4</title>
<g id="a_Node000004"><a xlink:title=" ">
<polygon fill="white" stroke="#666666" points="320,-112 221.5,-112 221.5,-92 320,-92 320,-112"/>
<text xml:space="preserve" text-anchor="middle" x="270.75" y="-98.5" font-family="Helvetica,sans-Serif" font-size="10.00">std::set&lt; id_type &gt;</text>
</a>
</g>
</g>
<!-- Node4&#45;&gt;Node1 -->
<g id="edge3_Node000001_Node000004" class="edge">
<title>Node4&#45;&gt;Node1</title>
<g id="a_edge3_Node000001_Node000004"><a xlink:title=" ">
<path fill="none" stroke="#9a32cd" stroke-dasharray="5,2" d="M258.03,-82.66C250.62,-72.54 240.77,-60.03 230.75,-50 224.46,-43.7 216.98,-37.49 210.09,-32.18"/>
<polygon fill="#9a32cd" stroke="#9a32cd" points="255.02,-84.46 263.68,-90.57 260.72,-80.4 255.02,-84.46"/>
</a>
</g>
<text xml:space="preserve" text-anchor="start" x="249.15" y="-55.5" font-family="Helvetica,sans-Serif" font-size="10.00" fill="grey">_removedIds</text>
</g>
<!-- Node5 -->
<g id="Node000005" class="node">
<title>Node5</title>
<g id="a_Node000005"><a xlink:title=" ">
<polygon fill="white" stroke="#666666" points="262.5,-192 215,-192 215,-172 262.5,-172 262.5,-192"/>
<text xml:space="preserve" text-anchor="middle" x="238.75" y="-178.5" font-family="Helvetica,sans-Serif" font-size="10.00">id_type</text>
</a>
</g>
</g>
<!-- Node5&#45;&gt;Node4 -->
<g id="edge4_Node000004_Node000005" class="edge">
<title>Node5&#45;&gt;Node4</title>
<g id="a_edge4_Node000004_Node000005"><a xlink:title=" ">
<path fill="none" stroke="#9a32cd" stroke-dasharray="5,2" d="M244.75,-160.8C247.27,-152.96 250.4,-143.96 253.75,-136 257.2,-127.8 261.87,-118.85 265.44,-112.35"/>
<polygon fill="#9a32cd" stroke="#9a32cd" points="241.49,-159.5 241.89,-170.09 248.18,-161.57 241.49,-159.5"/>
</a>
</g>
<text xml:space="preserve" text-anchor="start" x="256.75" y="-141.5" font-family="Helvetica,sans-Serif" font-size="10.00" fill="grey">keys</text>
</g>
<!-- Node6 -->
<g id="Node000006" class="node">
<title>Node6</title>
<g id="a_Node000006"><a xlink:title=" ">
<polygon fill="white" stroke="#666666" points="354.62,-192 280.88,-192 280.88,-172 354.62,-172 354.62,-192"/>
<text xml:space="preserve" text-anchor="middle" x="317.75" y="-178.5" font-family="Helvetica,sans-Serif" font-size="10.00">std::set&lt; K &gt;</text>
</a>
</g>
</g>
<!-- Node6&#45;&gt;Node4 -->
<g id="edge5_Node000004_Node000006" class="edge">
<title>Node6&#45;&gt;Node4</title>
<g id="a_edge5_Node000004_Node000006"><a xlink:title=" ">
<path fill="none" stroke="orange" stroke-dasharray="5,2" d="M306.28,-161.97C296.77,-146.19 283.66,-124.43 276.32,-112.24"/>
<polygon fill="orange" stroke="orange" points="303.23,-163.69 311.39,-170.45 309.23,-160.08 303.23,-163.69"/>
</a>
</g>
<text xml:space="preserve" text-anchor="start" x="304.21" y="-141.5" font-family="Helvetica,sans-Serif" font-size="10.00" fill="grey">&lt; id_type &gt;</text>
</g>
<!-- Node7 -->
<g id="Node000007" class="node">
<title>Node7</title>
<g id="a_Node000007"><a xlink:title=" ">
<polygon fill="white" stroke="#666666" points="332.15,-266 303.35,-266 303.35,-246 332.15,-246 332.15,-266"/>
<text xml:space="preserve" text-anchor="middle" x="317.75" y="-252.5" font-family="Helvetica,sans-Serif" font-size="10.00">K</text>
</a>
</g>
</g>
<!-- Node7&#45;&gt;Node6 -->
<g id="edge6_Node000006_Node000007" class="edge">
<title>Node7&#45;&gt;Node6</title>
<g id="a_edge6_Node000006_Node000007"><a xlink:title=" ">
<path fill="none" stroke="#9a32cd" stroke-dasharray="5,2" d="M317.75,-234.18C317.75,-220.29 317.75,-202.71 317.75,-192.19"/>
<polygon fill="#9a32cd" stroke="#9a32cd" points="314.25,-234.07 317.75,-244.07 321.25,-234.07 314.25,-234.07"/>
</a>
</g>
<text xml:space="preserve" text-anchor="start" x="320.75" y="-215.5" font-family="Helvetica,sans-Serif" font-size="10.00" fill="grey">keys</text>
</g>
</g>
</svg>
