<?xml version="1.0" encoding="UTF-8" standalone="no"?>
<!DOCTYPE svg PUBLIC "-//W3C//DTD SVG 1.1//EN"
 "http://www.w3.org/Graphics/SVG/1.1/DTD/svg11.dtd">
<!-- Generated by graphviz version 14.1.1 (20251213.1925)
 -->
<!-- Title: mstd::mat&lt; C, R, T &gt;::const_mat_column Pages: 1 -->
<svg width="384pt" height="232pt"
 viewBox="0.00 0.00 384.00 232.00" xmlns="http://www.w3.org/2000/svg" xmlns:xlink="http://www.w3.org/1999/xlink">

<svg id="main" version="1.1" xmlns="http://www.w3.org/2000/svg" xmlns:xlink="http://www.w3.org/1999/xlink" xml:space="preserve">

<style type="text/css"><![CDATA[
.node, .edge {opacity: 0.7;}
.node.selected, .edge.selected {opacity: 1;}
.edge:hover path { stroke: red; }
.edge:hover polygon { stroke: red; fill: red; }
]]></style>
<script type="application/ecmascript" xlink:href="../../svg.min.js"/>
<svg id="graph" class="graph">
<g id="graph0" class="graph" transform="scale(1 1) rotate(0) translate(4 228)">
<title>mstd::mat&lt; C, R, T &gt;::const_mat_column</title>
<!-- Node1 -->
<g id="Node000001" class="node">
<title>Node1</title>
<g id="a_Node000001"><a xlink:title=" ">
<polygon fill="#999999" stroke="#666666" points="291.5,-32 178,-32 178,0 291.5,0 291.5,-32"/>
<text xml:space="preserve" text-anchor="start" x="186" y="-18.5" font-family="Helvetica,sans-Serif" font-size="10.00">mstd::mat&lt; C, R, T</text>
<text xml:space="preserve" text-anchor="middle" x="234.75" y="-6.5" font-family="Helvetica,sans-Serif" font-size="10.00"> &gt;::const_mat_column</text>
</a>
</g>
</g>
<!-- Node2 -->
<g id="Node000002" class="node">
<title>Node2</title>
<g id="a_Node000002"><a xlink:href="../../d3/df9/classmstd_1_1mat.html" target="_top" xlink:title=" ">
<polygon fill="white" stroke="#666666" points="243,-106 132.5,-106 132.5,-86 243,-86 243,-106"/>
<text xml:space="preserve" text-anchor="middle" x="187.75" y="-92.5" font-family="Helvetica,sans-Serif" font-size="10.00">mstd::mat&lt; C, R, T &gt;</text>
</a>
</g>
</g>
<!-- Node2&#45;&gt;Node1 -->
<g id="edge1_Node000001_Node000002" class="edge">
<title>Node2&#45;&gt;Node1</title>
<g id="a_edge1_Node000001_Node000002"><a xlink:title=" ">
<path fill="none" stroke="#9a32cd" stroke-dasharray="5,2" d="M199.13,-76.12C207.2,-62.72 217.9,-44.96 225.46,-32.42"/>
<polygon fill="#9a32cd" stroke="#9a32cd" points="196.27,-74.08 194.11,-84.45 202.27,-77.69 196.27,-74.08"/>
</a>
</g>
<text xml:space="preserve" text-anchor="start" x="217.06" y="-55.5" font-family="Helvetica,sans-Serif" font-size="10.00" fill="grey">_parent</text>
</g>
<!-- Node3 -->
<g id="Node000003" class="node">
<title>Node3</title>
<g id="a_Node000003"><a xlink:title=" ">
<polygon fill="white" stroke="#666666" points="155.5,-224 0,-224 0,-192 155.5,-192 155.5,-224"/>
<text xml:space="preserve" text-anchor="start" x="8" y="-210.5" font-family="Helvetica,sans-Serif" font-size="10.00">static _MSTD_CONSTEXPR17</text>
<text xml:space="preserve" text-anchor="middle" x="77.75" y="-198.5" font-family="Helvetica,sans-Serif" font-size="10.00"> const size_t</text>
</a>
</g>
</g>
<!-- Node3&#45;&gt;Node2 -->
<g id="edge2_Node000002_Node000003" class="edge">
<title>Node3&#45;&gt;Node2</title>
<g id="a_edge2_Node000002_Node000003"><a xlink:title=" ">
<path fill="none" stroke="#9a32cd" stroke-dasharray="5,2" d="M92.9,-182.12C104.52,-164.43 121.79,-140.91 141,-124 148.88,-117.06 158.81,-111.03 167.5,-106.44"/>
<polygon fill="#9a32cd" stroke="#9a32cd" points="89.98,-180.18 87.55,-190.49 95.88,-183.95 89.98,-180.18"/>
</a>
</g>
<text xml:space="preserve" text-anchor="start" x="144" y="-161.5" font-family="Helvetica,sans-Serif" font-size="10.00" fill="grey">columns</text>
<text xml:space="preserve" text-anchor="start" x="144" y="-145.5" font-family="Helvetica,sans-Serif" font-size="10.00" fill="grey">rows</text>
<text xml:space="preserve" text-anchor="start" x="144" y="-129.5" font-family="Helvetica,sans-Serif" font-size="10.00" fill="grey">size</text>
</g>
<!-- Node4 -->
<g id="Node000004" class="node">
<title>Node4</title>
<g id="a_Node000004"><a xlink:title=" ">
<polygon fill="white" stroke="#666666" points="202.15,-218 173.35,-218 173.35,-198 202.15,-198 202.15,-218"/>
<text xml:space="preserve" text-anchor="middle" x="187.75" y="-204.5" font-family="Helvetica,sans-Serif" font-size="10.00">T</text>
</a>
</g>
</g>
<!-- Node4&#45;&gt;Node2 -->
<g id="edge3_Node000002_Node000004" class="edge">
<title>Node4&#45;&gt;Node2</title>
<g id="a_edge3_Node000002_Node000004"><a xlink:title=" ">
<path fill="none" stroke="#9a32cd" stroke-dasharray="5,2" d="M187.75,-186.31C187.75,-162.36 187.75,-123.95 187.75,-106.35"/>
<polygon fill="#9a32cd" stroke="#9a32cd" points="184.25,-186.11 187.75,-196.11 191.25,-186.11 184.25,-186.11"/>
</a>
</g>
<text xml:space="preserve" text-anchor="start" x="190.75" y="-153.5" font-family="Helvetica,sans-Serif" font-size="10.00" fill="grey">R</text>
<text xml:space="preserve" text-anchor="start" x="190.75" y="-137.5" font-family="Helvetica,sans-Serif" font-size="10.00" fill="grey">_values</text>
</g>
<!-- Node5 -->
<g id="Node000005" class="node">
<title>Node5</title>
<g id="a_Node000005"><a xlink:title=" ">
<polygon fill="white" stroke="#666666" points="375.5,-224 220,-224 220,-192 375.5,-192 375.5,-224"/>
<text xml:space="preserve" text-anchor="start" x="228" y="-210.5" font-family="Helvetica,sans-Serif" font-size="10.00">static _MSTD_CONSTEXPR20</text>
<text xml:space="preserve" text-anchor="middle" x="297.75" y="-198.5" font-family="Helvetica,sans-Serif" font-size="10.00"> mat&lt; C, R, T &gt;</text>
</a>
</g>
</g>
<!-- Node5&#45;&gt;Node2 -->
<g id="edge4_Node000002_Node000005" class="edge">
<title>Node5&#45;&gt;Node2</title>
<g id="a_edge4_Node000002_Node000005"><a xlink:title=" ">
<path fill="none" stroke="#9a32cd" stroke-dasharray="5,2" d="M281.72,-182.5C269.42,-164.89 251.29,-141.3 231.75,-124 224.1,-117.23 214.54,-111.13 206.28,-106.45"/>
<polygon fill="#9a32cd" stroke="#9a32cd" points="278.54,-184.05 287.07,-190.34 284.33,-180.1 278.54,-184.05"/>
</a>
</g>
<text xml:space="preserve" text-anchor="start" x="278" y="-145.5" font-family="Helvetica,sans-Serif" font-size="10.00" fill="grey">R</text>
</g>
<!-- Node6 -->
<g id="Node000006" class="node">
<title>Node6</title>
<g id="a_Node000006"><a xlink:title=" ">
<polygon fill="white" stroke="#666666" points="302.88,-106 260.62,-106 260.62,-86 302.88,-86 302.88,-106"/>
<text xml:space="preserve" text-anchor="middle" x="281.75" y="-92.5" font-family="Helvetica,sans-Serif" font-size="10.00">size_t</text>
</a>
</g>
</g>
<!-- Node6&#45;&gt;Node1 -->
<g id="edge5_Node000001_Node000006" class="edge">
<title>Node6&#45;&gt;Node1</title>
<g id="a_edge5_Node000001_Node000006"><a xlink:title=" ">
<path fill="none" stroke="#9a32cd" stroke-dasharray="5,2" d="M271.46,-75.67C267.07,-67.65 261.8,-58.29 256.75,-50 253.17,-44.12 249.02,-37.8 245.31,-32.28"/>
<polygon fill="#9a32cd" stroke="#9a32cd" points="268.25,-77.09 276.08,-84.23 274.41,-73.77 268.25,-77.09"/>
</a>
</g>
<text xml:space="preserve" text-anchor="start" x="269.72" y="-55.5" font-family="Helvetica,sans-Serif" font-size="10.00" fill="grey">_column</text>
</g>
</g>
</svg>
</svg>

<style type='text/css'>
<![CDATA[
[data-mouse-over-selected='false'] { opacity: 0.7; }
[data-mouse-over-selected='true']  { opacity: 1.0; }
]]>
</style>
<script type="application/ecmascript"><![CDATA[
document.addEventListener('DOMContentLoaded', (event) => {
  highlightEdges();
  highlightAdjacentNodes();
});
]]></script>
</svg>
