<?xml version="1.0" encoding="UTF-8" standalone="no"?>
<!DOCTYPE svg PUBLIC "-//W3C//DTD SVG 1.1//EN"
 "http://www.w3.org/Graphics/SVG/1.1/DTD/svg11.dtd">
<!-- Generated by graphviz version 14.1.1 (20251213.1925)
 -->
<!-- Title: mstd::function_traits&lt; R(Args...) &amp;noexcept, C &gt; Pages: 1 -->
<svg width="1472pt" height="328pt"
 viewBox="0.00 0.00 1472.00 328.00" xmlns="http://www.w3.org/2000/svg" xmlns:xlink="http://www.w3.org/1999/xlink">
<g id="graph0" class="graph" transform="scale(1 1) rotate(0) translate(4 324)">
<title>mstd::function_traits&lt; R(Args...) &amp;noexcept, C &gt;</title>
<!-- Node1 -->
<g id="Node000001" class="node">
<title>Node1</title>
<g id="a_Node000001"><a xlink:title=" ">
<polygon fill="#999999" stroke="#666666" points="1277,-80 1137.25,-80 1137.25,-48 1277,-48 1277,-80"/>
<text xml:space="preserve" text-anchor="start" x="1145.25" y="-66.5" font-family="Helvetica,sans-Serif" font-size="10.00">mstd::function_traits</text>
<text xml:space="preserve" text-anchor="middle" x="1207.12" y="-54.5" font-family="Helvetica,sans-Serif" font-size="10.00">&lt; R(Args...) &amp;noexcept, C &gt;</text>
</a>
</g>
</g>
<!-- Node11 -->
<g id="Node000011" class="node">
<title>Node11</title>
<g id="a_Node000011"><a xlink:href="../../d5/dee/structmstd_1_1function__traits_3_01_r_07_c_1_1_5_08_07_args_8_8_8_08_01_6noexcept_01_4.html" target="_top" xlink:title=" ">
<polygon fill="white" stroke="#666666" points="1463.5,-80 1314,-80 1314,-48 1463.5,-48 1463.5,-80"/>
<text xml:space="preserve" text-anchor="start" x="1322" y="-66.5" font-family="Helvetica,sans-Serif" font-size="10.00">mstd::function_traits</text>
<text xml:space="preserve" text-anchor="middle" x="1388.75" y="-54.5" font-family="Helvetica,sans-Serif" font-size="10.00">&lt; R(C::*)(Args...) &amp;noexcept &gt;</text>
</a>
</g>
</g>
<!-- Node1&#45;&gt;Node11 -->
<g id="edge17_Node000001_Node000011" class="edge">
<title>Node1&#45;&gt;Node11</title>
<g id="a_edge17_Node000001_Node000011"><a xlink:title=" ">
<path fill="none" stroke="#63b8ff" d="M1288.56,-64C1296.87,-64 1305.29,-64 1313.53,-64"/>
<polygon fill="#63b8ff" stroke="#63b8ff" points="1288.83,-60.5 1278.83,-64 1288.83,-67.5 1288.83,-60.5"/>
</a>
</g>
</g>
<!-- Node2 -->
<g id="Node000002" class="node">
<title>Node2</title>
<g id="a_Node000002"><a xlink:href="../../d0/d74/structmstd_1_1utils_1_1function__default__type__traits.html" target="_top" xlink:title=" ">
<polygon fill="white" stroke="#666666" points="317,-137 214.75,-137 214.75,-93 317,-93 317,-137"/>
<text xml:space="preserve" text-anchor="start" x="222.75" y="-123.5" font-family="Helvetica,sans-Serif" font-size="10.00">mstd::utils::function</text>
<text xml:space="preserve" text-anchor="start" x="222.75" y="-111.5" font-family="Helvetica,sans-Serif" font-size="10.00">_default_type_traits</text>
<text xml:space="preserve" text-anchor="middle" x="265.88" y="-99.5" font-family="Helvetica,sans-Serif" font-size="10.00">&lt; false &gt;</text>
</a>
</g>
</g>
<!-- Node2&#45;&gt;Node1 -->
<g id="edge1_Node000001_Node000002" class="edge">
<title>Node2&#45;&gt;Node1</title>
<g id="a_edge1_Node000001_Node000002"><a xlink:title=" ">
<path fill="none" stroke="#63b8ff" d="M306.24,-86.21C356.79,-52.15 448.5,0 536.12,0 536.12,0 536.12,0 1048.62,0 1099.1,0 1152.41,-28.56 1182.26,-47.52"/>
<polygon fill="#63b8ff" stroke="#63b8ff" points="304.5,-83.16 298.23,-91.7 308.46,-88.93 304.5,-83.16"/>
</a>
</g>
</g>
<!-- Node4 -->
<g id="Node000004" class="node">
<title>Node4</title>
<g id="a_Node000004"><a xlink:href="../../d8/d00/structmstd_1_1function__traits_3_01_r_07_args_8_8_8_08_01_6_00_01_c_01_4.html" target="_top" xlink:title=" ">
<polygon fill="white" stroke="#666666" points="1100.25,-131 995,-131 995,-99 1100.25,-99 1100.25,-131"/>
<text xml:space="preserve" text-anchor="start" x="1003" y="-117.5" font-family="Helvetica,sans-Serif" font-size="10.00">mstd::function_traits</text>
<text xml:space="preserve" text-anchor="middle" x="1047.62" y="-105.5" font-family="Helvetica,sans-Serif" font-size="10.00">&lt; R(Args...) &amp;, C &gt;</text>
</a>
</g>
</g>
<!-- Node2&#45;&gt;Node4 -->
<g id="edge4_Node000004_Node000002" class="edge">
<title>Node2&#45;&gt;Node4</title>
<g id="a_edge4_Node000004_Node000002"><a xlink:title=" ">
<path fill="none" stroke="#63b8ff" d="M328.43,-105.28C367.8,-99.56 420.02,-92.9 466.5,-90 661.19,-77.86 893,-98.35 994.59,-109.09"/>
<polygon fill="#63b8ff" stroke="#63b8ff" points="328.05,-101.8 318.67,-106.72 329.07,-108.72 328.05,-101.8"/>
</a>
</g>
</g>
<!-- Node5 -->
<g id="Node000005" class="node">
<title>Node5</title>
<g id="a_Node000005"><a xlink:href="../../dd/db6/structmstd_1_1function__traits_3_01_r_07_args_8_8_8_08_00_01_c_01_4.html" target="_top" xlink:title=" ">
<polygon fill="white" stroke="#666666" points="829.25,-197 724,-197 724,-165 829.25,-165 829.25,-197"/>
<text xml:space="preserve" text-anchor="start" x="732" y="-183.5" font-family="Helvetica,sans-Serif" font-size="10.00">mstd::function_traits</text>
<text xml:space="preserve" text-anchor="middle" x="776.62" y="-171.5" font-family="Helvetica,sans-Serif" font-size="10.00">&lt; R(Args...), C &gt;</text>
</a>
</g>
</g>
<!-- Node2&#45;&gt;Node5 -->
<g id="edge6_Node000005_Node000002" class="edge">
<title>Node2&#45;&gt;Node5</title>
<g id="a_edge6_Node000005_Node000002"><a xlink:title=" ">
<path fill="none" stroke="#63b8ff" d="M328.15,-126.06C334.26,-127.08 340.37,-128.08 346.25,-129 470.11,-148.34 501.2,-152.72 625.75,-167 658.2,-170.72 694.7,-174.15 723.55,-176.68"/>
<polygon fill="#63b8ff" stroke="#63b8ff" points="329.15,-122.68 318.71,-124.44 327.97,-129.58 329.15,-122.68"/>
</a>
</g>
</g>
<!-- Node10 -->
<g id="Node000010" class="node">
<title>Node10</title>
<g id="a_Node000010"><a xlink:href="../../d7/dcb/structmstd_1_1function__traits.html" target="_top" xlink:title=" ">
<polygon fill="white" stroke="#666666" points="589.75,-131 484.5,-131 484.5,-99 589.75,-99 589.75,-131"/>
<text xml:space="preserve" text-anchor="start" x="492.5" y="-117.5" font-family="Helvetica,sans-Serif" font-size="10.00">mstd::function_traits</text>
<text xml:space="preserve" text-anchor="middle" x="537.12" y="-105.5" font-family="Helvetica,sans-Serif" font-size="10.00">&lt; F, C &gt;</text>
</a>
</g>
</g>
<!-- Node2&#45;&gt;Node10 -->
<g id="edge14_Node000010_Node000002" class="edge">
<title>Node2&#45;&gt;Node10</title>
<g id="a_edge14_Node000010_Node000002"><a xlink:title=" ">
<path fill="none" stroke="#63b8ff" d="M328.48,-115C375.56,-115 439.72,-115 484.21,-115"/>
<polygon fill="#63b8ff" stroke="#63b8ff" points="328.72,-111.5 318.72,-115 328.72,-118.5 328.72,-111.5"/>
</a>
</g>
</g>
<!-- Node3 -->
<g id="Node000003" class="node">
<title>Node3</title>
<g id="a_Node000003"><a xlink:href="../../d0/d74/structmstd_1_1utils_1_1function__default__type__traits.html" target="_top" xlink:title=" ">
<polygon fill="white" stroke="#666666" points="103,-215 0.75,-215 0.75,-171 103,-171 103,-215"/>
<text xml:space="preserve" text-anchor="start" x="8.75" y="-201.5" font-family="Helvetica,sans-Serif" font-size="10.00">mstd::utils::function</text>
<text xml:space="preserve" text-anchor="start" x="8.75" y="-189.5" font-family="Helvetica,sans-Serif" font-size="10.00">_default_type_traits</text>
<text xml:space="preserve" text-anchor="middle" x="51.88" y="-177.5" font-family="Helvetica,sans-Serif" font-size="10.00">&lt; IsMember &gt;</text>
</a>
</g>
</g>
<!-- Node3&#45;&gt;Node2 -->
<g id="edge2_Node000002_Node000003" class="edge">
<title>Node3&#45;&gt;Node2</title>
<g id="a_edge2_Node000002_Node000003"><a xlink:title=" ">
<path fill="none" stroke="orange" stroke-dasharray="5,2" d="M107.61,-165.92C112.36,-163.83 117.12,-161.83 121.75,-160 151.92,-148.1 186.59,-137.13 214.26,-129"/>
<polygon fill="orange" stroke="orange" points="106.34,-162.65 98.67,-169.96 109.23,-169.03 106.34,-162.65"/>
</a>
</g>
<text xml:space="preserve" text-anchor="start" x="134.12" y="-165.5" font-family="Helvetica,sans-Serif" font-size="10.00" fill="grey">&lt; false &gt;</text>
</g>
<!-- Node9 -->
<g id="Node000009" class="node">
<title>Node9</title>
<g id="a_Node000009"><a xlink:href="../../d0/d74/structmstd_1_1utils_1_1function__default__type__traits.html" target="_top" xlink:title=" ">
<polygon fill="white" stroke="#666666" points="448.5,-233 346.25,-233 346.25,-189 448.5,-189 448.5,-233"/>
<text xml:space="preserve" text-anchor="start" x="354.25" y="-219.5" font-family="Helvetica,sans-Serif" font-size="10.00">mstd::utils::function</text>
<text xml:space="preserve" text-anchor="start" x="354.25" y="-207.5" font-family="Helvetica,sans-Serif" font-size="10.00">_default_type_traits</text>
<text xml:space="preserve" text-anchor="middle" x="397.38" y="-195.5" font-family="Helvetica,sans-Serif" font-size="10.00">&lt; true &gt;</text>
</a>
</g>
</g>
<!-- Node3&#45;&gt;Node9 -->
<g id="edge12_Node000009_Node000003" class="edge">
<title>Node3&#45;&gt;Node9</title>
<g id="a_edge12_Node000009_Node000003"><a xlink:title=" ">
<path fill="none" stroke="orange" stroke-dasharray="5,2" d="M114.68,-196.24C180.83,-199.71 284.51,-205.14 345.92,-208.36"/>
<polygon fill="orange" stroke="orange" points="114.87,-192.74 104.7,-195.72 114.51,-199.73 114.87,-192.74"/>
</a>
</g>
<text xml:space="preserve" text-anchor="start" x="136.38" y="-205.21" font-family="Helvetica,sans-Serif" font-size="10.00" fill="grey">&lt; true &gt;</text>
</g>
<!-- Node4&#45;&gt;Node1 -->
<g id="edge3_Node000001_Node000004" class="edge">
<title>Node4&#45;&gt;Node1</title>
<g id="a_edge3_Node000001_Node000004"><a xlink:title=" ">
<path fill="none" stroke="#63b8ff" d="M1110.03,-95.12C1125,-90.27 1140.84,-85.14 1155.25,-80.47"/>
<polygon fill="#63b8ff" stroke="#63b8ff" points="1109.2,-91.71 1100.77,-98.12 1111.36,-98.37 1109.2,-91.71"/>
</a>
</g>
</g>
<!-- Node5&#45;&gt;Node4 -->
<g id="edge5_Node000004_Node000005" class="edge">
<title>Node5&#45;&gt;Node4</title>
<g id="a_edge5_Node000004_Node000005"><a xlink:title=" ">
<path fill="none" stroke="#63b8ff" d="M840.53,-168C879.91,-159.56 931.62,-147.95 977,-136 982.74,-134.49 988.72,-132.83 994.65,-131.12"/>
<polygon fill="#63b8ff" stroke="#63b8ff" points="840.04,-164.52 830.99,-170.03 841.5,-171.37 840.04,-164.52"/>
</a>
</g>
</g>
<!-- Node6 -->
<g id="Node000006" class="node">
<title>Node6</title>
<g id="a_Node000006"><a xlink:href="../../d1/d4f/structmstd_1_1utils_1_1function__core__traits_3_01_r_07_args_8_8_8_08_00_01_c_01_4.html" target="_top" xlink:title=" ">
<polygon fill="white" stroke="#666666" points="607.75,-272 466.5,-272 466.5,-240 607.75,-240 607.75,-272"/>
<text xml:space="preserve" text-anchor="start" x="474.5" y="-258.5" font-family="Helvetica,sans-Serif" font-size="10.00">mstd::utils::function</text>
<text xml:space="preserve" text-anchor="middle" x="537.12" y="-246.5" font-family="Helvetica,sans-Serif" font-size="10.00">_core_traits&lt; R(Args...), C &gt;</text>
</a>
</g>
</g>
<!-- Node6&#45;&gt;Node5 -->
<g id="edge7_Node000005_Node000006" class="edge">
<title>Node6&#45;&gt;Node5</title>
<g id="a_edge7_Node000005_Node000006"><a xlink:title=" ">
<path fill="none" stroke="#63b8ff" d="M619.06,-248.16C647.25,-243.71 678.64,-236.78 706,-226 723.81,-218.98 741.91,-207.11 755.19,-197.32"/>
<polygon fill="#63b8ff" stroke="#63b8ff" points="618.9,-244.64 609.52,-249.57 619.93,-251.56 618.9,-244.64"/>
</a>
</g>
</g>
<!-- Node7 -->
<g id="Node000007" class="node">
<title>Node7</title>
<g id="a_Node000007"><a xlink:href="../../df/db9/structmstd_1_1utils_1_1function__core__traits.html" target="_top" xlink:title=" ">
<polygon fill="white" stroke="#666666" points="328.25,-320 203.5,-320 203.5,-288 328.25,-288 328.25,-320"/>
<text xml:space="preserve" text-anchor="start" x="211.5" y="-306.5" font-family="Helvetica,sans-Serif" font-size="10.00">mstd::utils::function</text>
<text xml:space="preserve" text-anchor="middle" x="265.88" y="-294.5" font-family="Helvetica,sans-Serif" font-size="10.00">_core_traits&lt; R(Args...)&gt;</text>
</a>
</g>
</g>
<!-- Node7&#45;&gt;Node6 -->
<g id="edge8_Node000006_Node000007" class="edge">
<title>Node7&#45;&gt;Node6</title>
<g id="a_edge8_Node000006_Node000007"><a xlink:title=" ">
<path fill="none" stroke="#63b8ff" d="M339.74,-291.01C379.02,-284.01 427.26,-275.41 466.1,-268.48"/>
<polygon fill="#63b8ff" stroke="#63b8ff" points="339.37,-287.52 330.14,-292.72 340.6,-294.41 339.37,-287.52"/>
</a>
</g>
</g>
<!-- Node8 -->
<g id="Node000008" class="node">
<title>Node8</title>
<g id="a_Node000008"><a xlink:href="../../df/db9/structmstd_1_1utils_1_1function__core__traits.html" target="_top" xlink:title=" ">
<polygon fill="white" stroke="#666666" points="103.75,-280 0,-280 0,-248 103.75,-248 103.75,-280"/>
<text xml:space="preserve" text-anchor="start" x="8" y="-266.5" font-family="Helvetica,sans-Serif" font-size="10.00">mstd::utils::function</text>
<text xml:space="preserve" text-anchor="middle" x="51.88" y="-254.5" font-family="Helvetica,sans-Serif" font-size="10.00">_core_traits&lt; F, C &gt;</text>
</a>
</g>
</g>
<!-- Node8&#45;&gt;Node6 -->
<g id="edge10_Node000006_Node000008" class="edge">
<title>Node8&#45;&gt;Node6</title>
<g id="a_edge10_Node000006_Node000008"><a xlink:title=" ">
<path fill="none" stroke="orange" stroke-dasharray="5,2" d="M115.39,-262.69C142.48,-262.14 174.55,-261.51 203.5,-261 294.16,-259.42 398.72,-257.89 466.04,-256.95"/>
<polygon fill="orange" stroke="orange" points="115.55,-259.18 105.63,-262.89 115.7,-266.18 115.55,-259.18"/>
</a>
</g>
<text xml:space="preserve" text-anchor="start" x="228.75" y="-266.5" font-family="Helvetica,sans-Serif" font-size="10.00" fill="grey">&lt; R(Args...), C &gt;</text>
</g>
<!-- Node8&#45;&gt;Node7 -->
<g id="edge9_Node000007_Node000008" class="edge">
<title>Node8&#45;&gt;Node7</title>
<g id="a_edge9_Node000007_Node000008"><a xlink:title=" ">
<path fill="none" stroke="orange" stroke-dasharray="5,2" d="M115.34,-275.79C143.01,-281.01 175.48,-287.13 203.08,-292.34"/>
<polygon fill="orange" stroke="orange" points="116.16,-272.38 105.68,-273.96 114.86,-279.26 116.16,-272.38"/>
</a>
</g>
<text xml:space="preserve" text-anchor="start" x="124.75" y="-294.26" font-family="Helvetica,sans-Serif" font-size="10.00" fill="grey">&lt; R(Args...)&gt;</text>
</g>
<!-- Node9&#45;&gt;Node5 -->
<g id="edge11_Node000005_Node000009" class="edge">
<title>Node9&#45;&gt;Node5</title>
<g id="a_edge11_Node000005_Node000009"><a xlink:title=" ">
<path fill="none" stroke="#63b8ff" d="M460.12,-210.44C522.4,-209.25 621.21,-205.67 706,-195 711.75,-194.28 717.73,-193.35 723.68,-192.31"/>
<polygon fill="#63b8ff" stroke="#63b8ff" points="460.38,-206.94 450.44,-210.61 460.5,-213.93 460.38,-206.94"/>
</a>
</g>
</g>
<!-- Node10&#45;&gt;Node1 -->
<g id="edge16_Node000001_Node000010" class="edge">
<title>Node10&#45;&gt;Node1</title>
<g id="a_edge16_Node000001_Node000010"><a xlink:title=" ">
<path fill="none" stroke="orange" stroke-dasharray="5,2" d="M601.28,-110.18C726.77,-100.6 1006.63,-79.23 1136.92,-69.28"/>
<polygon fill="orange" stroke="orange" points="601.2,-106.67 591.5,-110.93 601.73,-113.65 601.2,-106.67"/>
</a>
</g>
<text xml:space="preserve" text-anchor="start" x="850.25" y="-96.76" font-family="Helvetica,sans-Serif" font-size="10.00" fill="grey">&lt; R(Args...) &amp;noexcept, C &gt;</text>
</g>
<!-- Node10&#45;&gt;Node4 -->
<g id="edge15_Node000004_Node000010" class="edge">
<title>Node10&#45;&gt;Node4</title>
<g id="a_edge15_Node000004_Node000010"><a xlink:title=" ">
<path fill="none" stroke="orange" stroke-dasharray="5,2" d="M601.47,-115C703.12,-115 900.77,-115 994.67,-115"/>
<polygon fill="orange" stroke="orange" points="601.67,-111.5 591.67,-115 601.67,-118.5 601.67,-111.5"/>
</a>
</g>
<text xml:space="preserve" text-anchor="start" x="734.62" y="-120.5" font-family="Helvetica,sans-Serif" font-size="10.00" fill="grey">&lt; R(Args...) &amp;, C &gt;</text>
</g>
<!-- Node10&#45;&gt;Node5 -->
<g id="edge13_Node000005_Node000010" class="edge">
<title>Node10&#45;&gt;Node5</title>
<g id="a_edge13_Node000005_Node000010"><a xlink:title=" ">
<path fill="none" stroke="orange" stroke-dasharray="5,2" d="M600.95,-124.18C632.86,-129.73 671.99,-137.9 706,-149 718.77,-153.17 732.31,-159.03 744.01,-164.6"/>
<polygon fill="orange" stroke="orange" points="601.92,-120.79 591.47,-122.58 600.75,-127.69 601.92,-120.79"/>
</a>
</g>
<text xml:space="preserve" text-anchor="start" x="628.75" y="-154.5" font-family="Helvetica,sans-Serif" font-size="10.00" fill="grey">&lt; R(Args...), C &gt;</text>
</g>
</g>
</svg>
