<?xml version="1.0" encoding="UTF-8" standalone="no"?>
<!DOCTYPE svg PUBLIC "-//W3C//DTD SVG 1.1//EN"
 "http://www.w3.org/Graphics/SVG/1.1/DTD/svg11.dtd">
<!-- Generated by graphviz version 14.1.1 (20251213.1925)
 -->
<!-- Title: mstd::function_traits&lt; R(Args...) const &amp;, C &gt; Pages: 1 -->
<svg width="1600pt" height="328pt"
 viewBox="0.00 0.00 1600.00 328.00" xmlns="http://www.w3.org/2000/svg" xmlns:xlink="http://www.w3.org/1999/xlink">
<g id="graph0" class="graph" transform="scale(1 1) rotate(0) translate(4 324)">
<title>mstd::function_traits&lt; R(Args...) const &amp;, C &gt;</title>
<!-- Node1 -->
<g id="Node000001" class="node">
<title>Node1</title>
<g id="a_Node000001"><a xlink:title=" ">
<polygon fill="#999999" stroke="#666666" points="1233.25,-64 1106.25,-64 1106.25,-32 1233.25,-32 1233.25,-64"/>
<text xml:space="preserve" text-anchor="start" x="1114.25" y="-50.5" font-family="Helvetica,sans-Serif" font-size="10.00">mstd::function_traits</text>
<text xml:space="preserve" text-anchor="middle" x="1169.75" y="-38.5" font-family="Helvetica,sans-Serif" font-size="10.00">&lt; R(Args...) const &amp;, C &gt;</text>
</a>
</g>
</g>
<!-- Node11 -->
<g id="Node000011" class="node">
<title>Node11</title>
<g id="a_Node000011"><a xlink:href="../../d1/d23/structmstd_1_1function__traits_3_01_r_07_args_8_8_8_08_01const_01_6noexcept_00_01_c_01_4.html" target="_top" xlink:title=" ">
<polygon fill="white" stroke="#666666" points="1437,-102 1270.25,-102 1270.25,-70 1437,-70 1437,-102"/>
<text xml:space="preserve" text-anchor="start" x="1278.25" y="-88.5" font-family="Helvetica,sans-Serif" font-size="10.00">mstd::function_traits</text>
<text xml:space="preserve" text-anchor="middle" x="1353.62" y="-76.5" font-family="Helvetica,sans-Serif" font-size="10.00">&lt; R(Args...) const &amp;noexcept, C &gt;</text>
</a>
</g>
</g>
<!-- Node1&#45;&gt;Node11 -->
<g id="edge17_Node000001_Node000011" class="edge">
<title>Node1&#45;&gt;Node11</title>
<g id="a_edge17_Node000001_Node000011"><a xlink:title=" ">
<path fill="none" stroke="#63b8ff" d="M1244.68,-63.45C1254.26,-65.45 1264.09,-67.5 1273.73,-69.52"/>
<polygon fill="#63b8ff" stroke="#63b8ff" points="1245.58,-60.06 1235.08,-61.44 1244.15,-66.91 1245.58,-60.06"/>
</a>
</g>
</g>
<!-- Node13 -->
<g id="Node000013" class="node">
<title>Node13</title>
<g id="a_Node000013"><a xlink:href="../../df/df4/structmstd_1_1function__traits_3_01_r_07_c_1_1_5_08_07_args_8_8_8_08_01const_01_6_01_4.html" target="_top" xlink:title=" ">
<polygon fill="white" stroke="#666666" points="1422,-52 1285.25,-52 1285.25,-20 1422,-20 1422,-52"/>
<text xml:space="preserve" text-anchor="start" x="1293.25" y="-38.5" font-family="Helvetica,sans-Serif" font-size="10.00">mstd::function_traits</text>
<text xml:space="preserve" text-anchor="middle" x="1353.62" y="-26.5" font-family="Helvetica,sans-Serif" font-size="10.00">&lt; R(C::*)(Args...) const &amp; &gt;</text>
</a>
</g>
</g>
<!-- Node1&#45;&gt;Node13 -->
<g id="edge19_Node000001_Node000013" class="edge">
<title>Node1&#45;&gt;Node13</title>
<g id="a_edge19_Node000001_Node000013"><a xlink:title=" ">
<path fill="none" stroke="#63b8ff" d="M1245.01,-43.1C1258.18,-42.23 1271.83,-41.33 1284.81,-40.47"/>
<polygon fill="#63b8ff" stroke="#63b8ff" points="1244.85,-39.6 1235.11,-43.75 1245.31,-46.59 1244.85,-39.6"/>
</a>
</g>
</g>
<!-- Node2 -->
<g id="Node000002" class="node">
<title>Node2</title>
<g id="a_Node000002"><a xlink:href="../../d0/d74/structmstd_1_1utils_1_1function__default__type__traits.html" target="_top" xlink:title=" ">
<polygon fill="white" stroke="#666666" points="317,-137 214.75,-137 214.75,-93 317,-93 317,-137"/>
<text xml:space="preserve" text-anchor="start" x="222.75" y="-123.5" font-family="Helvetica,sans-Serif" font-size="10.00">mstd::utils::function</text>
<text xml:space="preserve" text-anchor="start" x="222.75" y="-111.5" font-family="Helvetica,sans-Serif" font-size="10.00">_default_type_traits</text>
<text xml:space="preserve" text-anchor="middle" x="265.88" y="-99.5" font-family="Helvetica,sans-Serif" font-size="10.00">&lt; false &gt;</text>
</a>
</g>
</g>
<!-- Node2&#45;&gt;Node1 -->
<g id="edge1_Node000001_Node000002" class="edge">
<title>Node2&#45;&gt;Node1</title>
<g id="a_edge1_Node000001_Node000002"><a xlink:title=" ">
<path fill="none" stroke="#63b8ff" d="M306.24,-86.21C356.79,-52.15 448.5,0 536.12,0 536.12,0 536.12,0 1011.62,0 1055.98,0 1104.42,-17.71 1135.62,-31.62"/>
<polygon fill="#63b8ff" stroke="#63b8ff" points="304.5,-83.16 298.23,-91.7 308.46,-88.93 304.5,-83.16"/>
</a>
</g>
</g>
<!-- Node4 -->
<g id="Node000004" class="node">
<title>Node4</title>
<g id="a_Node000004"><a xlink:href="../../df/d15/structmstd_1_1function__traits_3_01_r_07_args_8_8_8_08_01const_00_01_c_01_4.html" target="_top" xlink:title=" ">
<polygon fill="white" stroke="#666666" points="1069.25,-125 952,-125 952,-93 1069.25,-93 1069.25,-125"/>
<text xml:space="preserve" text-anchor="start" x="960" y="-111.5" font-family="Helvetica,sans-Serif" font-size="10.00">mstd::function_traits</text>
<text xml:space="preserve" text-anchor="middle" x="1010.62" y="-99.5" font-family="Helvetica,sans-Serif" font-size="10.00">&lt; R(Args...) const, C &gt;</text>
</a>
</g>
</g>
<!-- Node2&#45;&gt;Node4 -->
<g id="edge4_Node000004_Node000002" class="edge">
<title>Node2&#45;&gt;Node4</title>
<g id="a_edge4_Node000004_Node000002"><a xlink:title=" ">
<path fill="none" stroke="#63b8ff" d="M328.43,-105.28C367.8,-99.56 420.02,-92.9 466.5,-90 643.06,-78.99 852.34,-94.3 951.7,-103.28"/>
<polygon fill="#63b8ff" stroke="#63b8ff" points="328.05,-101.8 318.67,-106.72 329.07,-108.72 328.05,-101.8"/>
</a>
</g>
</g>
<!-- Node5 -->
<g id="Node000005" class="node">
<title>Node5</title>
<g id="a_Node000005"><a xlink:href="../../dd/db6/structmstd_1_1function__traits_3_01_r_07_args_8_8_8_08_00_01_c_01_4.html" target="_top" xlink:title=" ">
<polygon fill="white" stroke="#666666" points="830.25,-197 725,-197 725,-165 830.25,-165 830.25,-197"/>
<text xml:space="preserve" text-anchor="start" x="733" y="-183.5" font-family="Helvetica,sans-Serif" font-size="10.00">mstd::function_traits</text>
<text xml:space="preserve" text-anchor="middle" x="777.62" y="-171.5" font-family="Helvetica,sans-Serif" font-size="10.00">&lt; R(Args...), C &gt;</text>
</a>
</g>
</g>
<!-- Node2&#45;&gt;Node5 -->
<g id="edge6_Node000005_Node000002" class="edge">
<title>Node2&#45;&gt;Node5</title>
<g id="a_edge6_Node000005_Node000002"><a xlink:title=" ">
<path fill="none" stroke="#63b8ff" d="M328.15,-126.06C334.26,-127.08 340.37,-128.08 346.25,-129 470.11,-148.34 501.2,-152.76 625.75,-167 658.55,-170.75 695.45,-174.19 724.55,-176.72"/>
<polygon fill="#63b8ff" stroke="#63b8ff" points="329.15,-122.68 318.71,-124.44 327.97,-129.58 329.15,-122.68"/>
</a>
</g>
</g>
<!-- Node10 -->
<g id="Node000010" class="node">
<title>Node10</title>
<g id="a_Node000010"><a xlink:href="../../d7/dcb/structmstd_1_1function__traits.html" target="_top" xlink:title=" ">
<polygon fill="white" stroke="#666666" points="589.75,-131 484.5,-131 484.5,-99 589.75,-99 589.75,-131"/>
<text xml:space="preserve" text-anchor="start" x="492.5" y="-117.5" font-family="Helvetica,sans-Serif" font-size="10.00">mstd::function_traits</text>
<text xml:space="preserve" text-anchor="middle" x="537.12" y="-105.5" font-family="Helvetica,sans-Serif" font-size="10.00">&lt; F, C &gt;</text>
</a>
</g>
</g>
<!-- Node2&#45;&gt;Node10 -->
<g id="edge14_Node000010_Node000002" class="edge">
<title>Node2&#45;&gt;Node10</title>
<g id="a_edge14_Node000010_Node000002"><a xlink:title=" ">
<path fill="none" stroke="#63b8ff" d="M328.48,-115C375.56,-115 439.72,-115 484.21,-115"/>
<polygon fill="#63b8ff" stroke="#63b8ff" points="328.72,-111.5 318.72,-115 328.72,-118.5 328.72,-111.5"/>
</a>
</g>
</g>
<!-- Node3 -->
<g id="Node000003" class="node">
<title>Node3</title>
<g id="a_Node000003"><a xlink:href="../../d0/d74/structmstd_1_1utils_1_1function__default__type__traits.html" target="_top" xlink:title=" ">
<polygon fill="white" stroke="#666666" points="103,-215 0.75,-215 0.75,-171 103,-171 103,-215"/>
<text xml:space="preserve" text-anchor="start" x="8.75" y="-201.5" font-family="Helvetica,sans-Serif" font-size="10.00">mstd::utils::function</text>
<text xml:space="preserve" text-anchor="start" x="8.75" y="-189.5" font-family="Helvetica,sans-Serif" font-size="10.00">_default_type_traits</text>
<text xml:space="preserve" text-anchor="middle" x="51.88" y="-177.5" font-family="Helvetica,sans-Serif" font-size="10.00">&lt; IsMember &gt;</text>
</a>
</g>
</g>
<!-- Node3&#45;&gt;Node2 -->
<g id="edge2_Node000002_Node000003" class="edge">
<title>Node3&#45;&gt;Node2</title>
<g id="a_edge2_Node000002_Node000003"><a xlink:title=" ">
<path fill="none" stroke="orange" stroke-dasharray="5,2" d="M107.61,-165.92C112.36,-163.83 117.12,-161.83 121.75,-160 151.92,-148.1 186.59,-137.13 214.26,-129"/>
<polygon fill="orange" stroke="orange" points="106.34,-162.65 98.67,-169.96 109.23,-169.03 106.34,-162.65"/>
</a>
</g>
<text xml:space="preserve" text-anchor="start" x="134.12" y="-165.5" font-family="Helvetica,sans-Serif" font-size="10.00" fill="grey">&lt; false &gt;</text>
</g>
<!-- Node9 -->
<g id="Node000009" class="node">
<title>Node9</title>
<g id="a_Node000009"><a xlink:href="../../d0/d74/structmstd_1_1utils_1_1function__default__type__traits.html" target="_top" xlink:title=" ">
<polygon fill="white" stroke="#666666" points="448.5,-233 346.25,-233 346.25,-189 448.5,-189 448.5,-233"/>
<text xml:space="preserve" text-anchor="start" x="354.25" y="-219.5" font-family="Helvetica,sans-Serif" font-size="10.00">mstd::utils::function</text>
<text xml:space="preserve" text-anchor="start" x="354.25" y="-207.5" font-family="Helvetica,sans-Serif" font-size="10.00">_default_type_traits</text>
<text xml:space="preserve" text-anchor="middle" x="397.38" y="-195.5" font-family="Helvetica,sans-Serif" font-size="10.00">&lt; true &gt;</text>
</a>
</g>
</g>
<!-- Node3&#45;&gt;Node9 -->
<g id="edge12_Node000009_Node000003" class="edge">
<title>Node3&#45;&gt;Node9</title>
<g id="a_edge12_Node000009_Node000003"><a xlink:title=" ">
<path fill="none" stroke="orange" stroke-dasharray="5,2" d="M114.68,-196.24C180.83,-199.71 284.51,-205.14 345.92,-208.36"/>
<polygon fill="orange" stroke="orange" points="114.87,-192.74 104.7,-195.72 114.51,-199.73 114.87,-192.74"/>
</a>
</g>
<text xml:space="preserve" text-anchor="start" x="136.38" y="-205.21" font-family="Helvetica,sans-Serif" font-size="10.00" fill="grey">&lt; true &gt;</text>
</g>
<!-- Node4&#45;&gt;Node1 -->
<g id="edge3_Node000001_Node000004" class="edge">
<title>Node4&#45;&gt;Node1</title>
<g id="a_edge3_Node000001_Node000004"><a xlink:title=" ">
<path fill="none" stroke="#63b8ff" d="M1064.31,-88.55C1084.46,-80.72 1107.17,-71.91 1126.25,-64.5"/>
<polygon fill="#63b8ff" stroke="#63b8ff" points="1063.2,-85.22 1055.14,-92.11 1065.73,-91.75 1063.2,-85.22"/>
</a>
</g>
</g>
<!-- Node5&#45;&gt;Node4 -->
<g id="edge5_Node000004_Node000005" class="edge">
<title>Node5&#45;&gt;Node4</title>
<g id="a_edge5_Node000004_Node000005"><a xlink:title=" ">
<path fill="none" stroke="#63b8ff" d="M841.64,-163.69C869.99,-155.66 903.8,-145.75 934,-136 944.08,-132.74 954.84,-129.04 964.99,-125.44"/>
<polygon fill="#63b8ff" stroke="#63b8ff" points="840.79,-160.3 832.11,-166.38 842.69,-167.03 840.79,-160.3"/>
</a>
</g>
</g>
<!-- Node6 -->
<g id="Node000006" class="node">
<title>Node6</title>
<g id="a_Node000006"><a xlink:href="../../d1/d4f/structmstd_1_1utils_1_1function__core__traits_3_01_r_07_args_8_8_8_08_00_01_c_01_4.html" target="_top" xlink:title=" ">
<polygon fill="white" stroke="#666666" points="607.75,-272 466.5,-272 466.5,-240 607.75,-240 607.75,-272"/>
<text xml:space="preserve" text-anchor="start" x="474.5" y="-258.5" font-family="Helvetica,sans-Serif" font-size="10.00">mstd::utils::function</text>
<text xml:space="preserve" text-anchor="middle" x="537.12" y="-246.5" font-family="Helvetica,sans-Serif" font-size="10.00">_core_traits&lt; R(Args...), C &gt;</text>
</a>
</g>
</g>
<!-- Node6&#45;&gt;Node5 -->
<g id="edge7_Node000005_Node000006" class="edge">
<title>Node6&#45;&gt;Node5</title>
<g id="a_edge7_Node000005_Node000006"><a xlink:title=" ">
<path fill="none" stroke="#63b8ff" d="M619.02,-248.06C647.2,-243.6 678.61,-236.69 706,-226 724.01,-218.97 742.37,-207.1 755.86,-197.31"/>
<polygon fill="#63b8ff" stroke="#63b8ff" points="618.86,-244.54 609.48,-249.48 619.89,-251.46 618.86,-244.54"/>
</a>
</g>
</g>
<!-- Node7 -->
<g id="Node000007" class="node">
<title>Node7</title>
<g id="a_Node000007"><a xlink:href="../../df/db9/structmstd_1_1utils_1_1function__core__traits.html" target="_top" xlink:title=" ">
<polygon fill="white" stroke="#666666" points="328.25,-320 203.5,-320 203.5,-288 328.25,-288 328.25,-320"/>
<text xml:space="preserve" text-anchor="start" x="211.5" y="-306.5" font-family="Helvetica,sans-Serif" font-size="10.00">mstd::utils::function</text>
<text xml:space="preserve" text-anchor="middle" x="265.88" y="-294.5" font-family="Helvetica,sans-Serif" font-size="10.00">_core_traits&lt; R(Args...)&gt;</text>
</a>
</g>
</g>
<!-- Node7&#45;&gt;Node6 -->
<g id="edge8_Node000006_Node000007" class="edge">
<title>Node7&#45;&gt;Node6</title>
<g id="a_edge8_Node000006_Node000007"><a xlink:title=" ">
<path fill="none" stroke="#63b8ff" d="M339.74,-291.01C379.02,-284.01 427.26,-275.41 466.1,-268.48"/>
<polygon fill="#63b8ff" stroke="#63b8ff" points="339.37,-287.52 330.14,-292.72 340.6,-294.41 339.37,-287.52"/>
</a>
</g>
</g>
<!-- Node8 -->
<g id="Node000008" class="node">
<title>Node8</title>
<g id="a_Node000008"><a xlink:href="../../df/db9/structmstd_1_1utils_1_1function__core__traits.html" target="_top" xlink:title=" ">
<polygon fill="white" stroke="#666666" points="103.75,-280 0,-280 0,-248 103.75,-248 103.75,-280"/>
<text xml:space="preserve" text-anchor="start" x="8" y="-266.5" font-family="Helvetica,sans-Serif" font-size="10.00">mstd::utils::function</text>
<text xml:space="preserve" text-anchor="middle" x="51.88" y="-254.5" font-family="Helvetica,sans-Serif" font-size="10.00">_core_traits&lt; F, C &gt;</text>
</a>
</g>
</g>
<!-- Node8&#45;&gt;Node6 -->
<g id="edge10_Node000006_Node000008" class="edge">
<title>Node8&#45;&gt;Node6</title>
<g id="a_edge10_Node000006_Node000008"><a xlink:title=" ">
<path fill="none" stroke="orange" stroke-dasharray="5,2" d="M115.39,-262.69C142.48,-262.14 174.55,-261.51 203.5,-261 294.16,-259.42 398.72,-257.89 466.04,-256.95"/>
<polygon fill="orange" stroke="orange" points="115.55,-259.18 105.63,-262.89 115.7,-266.18 115.55,-259.18"/>
</a>
</g>
<text xml:space="preserve" text-anchor="start" x="228.75" y="-266.5" font-family="Helvetica,sans-Serif" font-size="10.00" fill="grey">&lt; R(Args...), C &gt;</text>
</g>
<!-- Node8&#45;&gt;Node7 -->
<g id="edge9_Node000007_Node000008" class="edge">
<title>Node8&#45;&gt;Node7</title>
<g id="a_edge9_Node000007_Node000008"><a xlink:title=" ">
<path fill="none" stroke="orange" stroke-dasharray="5,2" d="M115.34,-275.79C143.01,-281.01 175.48,-287.13 203.08,-292.34"/>
<polygon fill="orange" stroke="orange" points="116.16,-272.38 105.68,-273.96 114.86,-279.26 116.16,-272.38"/>
</a>
</g>
<text xml:space="preserve" text-anchor="start" x="124.75" y="-294.26" font-family="Helvetica,sans-Serif" font-size="10.00" fill="grey">&lt; R(Args...)&gt;</text>
</g>
<!-- Node9&#45;&gt;Node5 -->
<g id="edge11_Node000005_Node000009" class="edge">
<title>Node9&#45;&gt;Node5</title>
<g id="a_edge11_Node000005_Node000009"><a xlink:title=" ">
<path fill="none" stroke="#63b8ff" d="M460.12,-210.39C522.39,-209.17 621.19,-205.56 706,-195 712.08,-194.24 718.42,-193.26 724.69,-192.17"/>
<polygon fill="#63b8ff" stroke="#63b8ff" points="460.37,-206.89 450.44,-210.57 460.5,-213.89 460.37,-206.89"/>
</a>
</g>
</g>
<!-- Node10&#45;&gt;Node1 -->
<g id="edge16_Node000001_Node000010" class="edge">
<title>Node10&#45;&gt;Node1</title>
<g id="a_edge16_Node000001_Node000010"><a xlink:title=" ">
<path fill="none" stroke="orange" stroke-dasharray="5,2" d="M601.31,-105.09C664.07,-95.52 763.11,-81.18 849.25,-72 938.16,-62.53 1041.39,-55.49 1105.9,-51.56"/>
<polygon fill="orange" stroke="orange" points="600.88,-101.62 591.52,-106.59 601.94,-108.53 600.88,-101.62"/>
</a>
</g>
<text xml:space="preserve" text-anchor="start" x="852.25" y="-93.5" font-family="Helvetica,sans-Serif" font-size="10.00" fill="grey">&lt; R(Args...) const</text>
<text xml:space="preserve" text-anchor="start" x="852.25" y="-77.5" font-family="Helvetica,sans-Serif" font-size="10.00" fill="grey">   &amp;, C &gt;</text>
</g>
<!-- Node10&#45;&gt;Node4 -->
<g id="edge15_Node000004_Node000010" class="edge">
<title>Node10&#45;&gt;Node4</title>
<g id="a_edge15_Node000004_Node000010"><a xlink:title=" ">
<path fill="none" stroke="orange" stroke-dasharray="5,2" d="M601.3,-114.2C693.34,-113.02 862.98,-110.87 951.86,-109.74"/>
<polygon fill="orange" stroke="orange" points="601.4,-110.69 591.45,-114.32 601.49,-117.69 601.4,-110.69"/>
</a>
</g>
<text xml:space="preserve" text-anchor="start" x="727" y="-118.1" font-family="Helvetica,sans-Serif" font-size="10.00" fill="grey">&lt; R(Args...) const, C &gt;</text>
</g>
<!-- Node10&#45;&gt;Node5 -->
<g id="edge13_Node000005_Node000010" class="edge">
<title>Node10&#45;&gt;Node5</title>
<g id="a_edge13_Node000005_Node000010"><a xlink:title=" ">
<path fill="none" stroke="orange" stroke-dasharray="5,2" d="M600.92,-124.26C632.83,-129.83 671.96,-138 706,-149 718.94,-153.18 732.66,-159.04 744.53,-164.61"/>
<polygon fill="orange" stroke="orange" points="601.89,-120.87 591.45,-122.65 600.72,-127.77 601.89,-120.87"/>
</a>
</g>
<text xml:space="preserve" text-anchor="start" x="628.75" y="-154.5" font-family="Helvetica,sans-Serif" font-size="10.00" fill="grey">&lt; R(Args...), C &gt;</text>
</g>
<!-- Node12 -->
<g id="Node000012" class="node">
<title>Node12</title>
<g id="a_Node000012"><a xlink:href="../../d4/da4/structmstd_1_1function__traits_3_01_r_07_c_1_1_5_08_07_args_8_8_8_08_01const_01_6noexcept_01_4.html" target="_top" xlink:title=" ">
<polygon fill="white" stroke="#666666" points="1592,-108 1474,-108 1474,-64 1592,-64 1592,-108"/>
<text xml:space="preserve" text-anchor="start" x="1482" y="-94.5" font-family="Helvetica,sans-Serif" font-size="10.00">mstd::function_traits</text>
<text xml:space="preserve" text-anchor="start" x="1482" y="-82.5" font-family="Helvetica,sans-Serif" font-size="10.00">&lt; R(C::*)(Args...) const</text>
<text xml:space="preserve" text-anchor="middle" x="1533" y="-70.5" font-family="Helvetica,sans-Serif" font-size="10.00"> &amp;noexcept &gt;</text>
</a>
</g>
</g>
<!-- Node11&#45;&gt;Node12 -->
<g id="edge18_Node000011_Node000012" class="edge">
<title>Node11&#45;&gt;Node12</title>
<g id="a_edge18_Node000011_Node000012"><a xlink:title=" ">
<path fill="none" stroke="#63b8ff" d="M1448.58,-86C1457.13,-86 1465.61,-86 1473.7,-86"/>
<polygon fill="#63b8ff" stroke="#63b8ff" points="1448.85,-82.5 1438.85,-86 1448.85,-89.5 1448.85,-82.5"/>
</a>
</g>
</g>
</g>
</svg>
