<?xml version="1.0" encoding="UTF-8" standalone="no"?>
<!DOCTYPE svg PUBLIC "-//W3C//DTD SVG 1.1//EN"
 "http://www.w3.org/Graphics/SVG/1.1/DTD/svg11.dtd">
<!-- Generated by graphviz version 14.1.1 (20251213.1925)
 -->
<!-- Title: mstd::quat&lt; T &gt; Pages: 1 -->
<svg width="159pt" height="250pt"
 viewBox="0.00 0.00 159.00 250.00" xmlns="http://www.w3.org/2000/svg" xmlns:xlink="http://www.w3.org/1999/xlink">
<g id="graph0" class="graph" transform="scale(1 1) rotate(0) translate(4 246)">
<title>mstd::quat&lt; T &gt;</title>
<!-- Node1 -->
<g id="Node000001" class="node">
<title>Node1</title>
<g id="a_Node000001"><a xlink:title=" ">
<polygon fill="#999999" stroke="#666666" points="85.75,-20 0,-20 0,0 85.75,0 85.75,-20"/>
<text xml:space="preserve" text-anchor="middle" x="42.88" y="-6.5" font-family="Helvetica,sans-Serif" font-size="10.00">mstd::quat&lt; T &gt;</text>
</a>
</g>
</g>
<!-- Node2 -->
<g id="Node000002" class="node">
<title>Node2</title>
<g id="a_Node000002"><a xlink:title=" ">
<polygon fill="white" stroke="#666666" points="58.27,-242 29.48,-242 29.48,-222 58.27,-222 58.27,-242"/>
<text xml:space="preserve" text-anchor="middle" x="43.88" y="-228.5" font-family="Helvetica,sans-Serif" font-size="10.00">T</text>
</a>
</g>
</g>
<!-- Node2&#45;&gt;Node1 -->
<g id="edge1_Node000001_Node000002" class="edge">
<title>Node2&#45;&gt;Node1</title>
<g id="a_edge1_Node000001_Node000002"><a xlink:title=" ">
<path fill="none" stroke="#9a32cd" stroke-dasharray="5,2" d="M43.78,-210.3C43.57,-163.96 43.07,-53.37 42.92,-20.42"/>
<polygon fill="#9a32cd" stroke="#9a32cd" points="40.28,-210.05 43.83,-220.03 47.28,-210.02 40.28,-210.05"/>
</a>
</g>
<text xml:space="preserve" text-anchor="start" x="46.41" y="-117.5" font-family="Helvetica,sans-Serif" font-size="10.00" fill="grey">s</text>
</g>
<!-- Node4 -->
<g id="Node000004" class="node">
<title>Node4</title>
<g id="a_Node000004"><a xlink:href="../../d0/dae/classmstd_1_1vec.html" target="_top" xlink:title=" ">
<polygon fill="white" stroke="#666666" points="151,-168 54.75,-168 54.75,-148 151,-148 151,-168"/>
<text xml:space="preserve" text-anchor="middle" x="102.88" y="-154.5" font-family="Helvetica,sans-Serif" font-size="10.00">mstd::vec&lt; N, T &gt;</text>
</a>
</g>
</g>
<!-- Node2&#45;&gt;Node4 -->
<g id="edge5_Node000004_Node000002" class="edge">
<title>Node2&#45;&gt;Node4</title>
<g id="a_edge5_Node000004_Node000002"><a xlink:title=" ">
<path fill="none" stroke="#9a32cd" stroke-dasharray="5,2" d="M51.71,-211.31C55.59,-202.98 60.81,-193.49 67.12,-186 72.84,-179.22 80.55,-173.13 87.35,-168.45"/>
<polygon fill="#9a32cd" stroke="#9a32cd" points="48.59,-209.7 47.86,-220.27 55.02,-212.46 48.59,-209.7"/>
</a>
</g>
<text xml:space="preserve" text-anchor="start" x="70.12" y="-191.5" font-family="Helvetica,sans-Serif" font-size="10.00" fill="grey">_values</text>
</g>
<!-- Node3 -->
<g id="Node000003" class="node">
<title>Node3</title>
<g id="a_Node000003"><a xlink:href="../../d0/dae/classmstd_1_1vec.html" target="_top" xlink:title=" ">
<polygon fill="white" stroke="#666666" points="148.88,-94 54.87,-94 54.87,-74 148.88,-74 148.88,-94"/>
<text xml:space="preserve" text-anchor="middle" x="101.88" y="-80.5" font-family="Helvetica,sans-Serif" font-size="10.00">mstd::vec&lt; 3, T &gt;</text>
</a>
</g>
</g>
<!-- Node3&#45;&gt;Node1 -->
<g id="edge2_Node000001_Node000003" class="edge">
<title>Node3&#45;&gt;Node1</title>
<g id="a_edge2_Node000001_Node000003"><a xlink:title=" ">
<path fill="none" stroke="#9a32cd" stroke-dasharray="5,2" d="M86.87,-64.68C75.22,-50.47 59.55,-31.36 50.4,-20.19"/>
<polygon fill="#9a32cd" stroke="#9a32cd" points="84.16,-66.9 93.2,-72.42 89.57,-62.46 84.16,-66.9"/>
</a>
</g>
<text xml:space="preserve" text-anchor="start" x="82.39" y="-43.5" font-family="Helvetica,sans-Serif" font-size="10.00" fill="grey">v</text>
</g>
<!-- Node4&#45;&gt;Node3 -->
<g id="edge3_Node000003_Node000004" class="edge">
<title>Node4&#45;&gt;Node3</title>
<g id="a_edge3_Node000003_Node000004"><a xlink:title=" ">
<path fill="none" stroke="orange" stroke-dasharray="5,2" d="M102.59,-136.18C102.39,-122.29 102.15,-104.71 102,-94.19"/>
<polygon fill="orange" stroke="orange" points="99.08,-136.12 102.72,-146.07 106.08,-136.03 99.08,-136.12"/>
</a>
</g>
<text xml:space="preserve" text-anchor="start" x="105.49" y="-117.5" font-family="Helvetica,sans-Serif" font-size="10.00" fill="grey">&lt; 3, T &gt;</text>
</g>
<!-- Node5 -->
<g id="Node000005" class="node">
<title>Node5</title>
<g id="a_Node000005"><a xlink:title=" ">
<polygon fill="white" stroke="#666666" points="144,-242 101.75,-242 101.75,-222 144,-222 144,-242"/>
<text xml:space="preserve" text-anchor="middle" x="122.88" y="-228.5" font-family="Helvetica,sans-Serif" font-size="10.00">size_t</text>
</a>
</g>
</g>
<!-- Node5&#45;&gt;Node4 -->
<g id="edge4_Node000004_Node000005" class="edge">
<title>Node5&#45;&gt;Node4</title>
<g id="a_edge4_Node000004_Node000005"><a xlink:title=" ">
<path fill="none" stroke="#9a32cd" stroke-dasharray="5,2" d="M117.21,-210.6C113.33,-196.65 108.38,-178.82 105.43,-168.19"/>
<polygon fill="#9a32cd" stroke="#9a32cd" points="113.81,-211.43 119.86,-220.13 120.55,-209.56 113.81,-211.43"/>
</a>
</g>
<text xml:space="preserve" text-anchor="start" x="118.25" y="-191.5" font-family="Helvetica,sans-Serif" font-size="10.00" fill="grey">size</text>
</g>
</g>
</svg>
