<?xml version="1.0" encoding="UTF-8" standalone="no"?>
<!DOCTYPE svg PUBLIC "-//W3C//DTD SVG 1.1//EN"
 "http://www.w3.org/Graphics/SVG/1.1/DTD/svg11.dtd">
<!-- Generated by graphviz version 14.1.1 (20251213.1925)
 -->
<!-- Title: mstd::stable_vector&lt; T &gt; Pages: 1 -->
<svg width="214pt" height="266pt"
 viewBox="0.00 0.00 214.00 266.00" xmlns="http://www.w3.org/2000/svg" xmlns:xlink="http://www.w3.org/1999/xlink">

<svg id="main" version="1.1" xmlns="http://www.w3.org/2000/svg" xmlns:xlink="http://www.w3.org/1999/xlink" xml:space="preserve">

<style type="text/css"><![CDATA[
.node, .edge {opacity: 0.7;}
.node.selected, .edge.selected {opacity: 1;}
.edge:hover path { stroke: red; }
.edge:hover polygon { stroke: red; fill: red; }
]]></style>
<script type="application/ecmascript" xlink:href="../../svg.min.js"/>
<svg id="graph" class="graph">
<g id="graph0" class="graph" transform="scale(1 1) rotate(0) translate(4 262)">
<title>mstd::stable_vector&lt; T &gt;</title>
<!-- Node1 -->
<g id="Node000001" class="node">
<title>Node1</title>
<g id="a_Node000001"><a xlink:title=" ">
<polygon fill="#999999" stroke="#666666" points="197,-20 71.5,-20 71.5,0 197,0 197,-20"/>
<text xml:space="preserve" text-anchor="middle" x="134.25" y="-6.5" font-family="Helvetica,sans-Serif" font-size="10.00">mstd::stable_vector&lt; T &gt;</text>
</a>
</g>
</g>
<!-- Node2 -->
<g id="Node000002" class="node">
<title>Node2</title>
<g id="a_Node000002"><a xlink:title=" ">
<polygon fill="white" stroke="#666666" points="122.5,-110 0,-110 0,-90 122.5,-90 122.5,-110"/>
<text xml:space="preserve" text-anchor="middle" x="61.25" y="-96.5" font-family="Helvetica,sans-Serif" font-size="10.00">std::vector&lt; size_type &gt;</text>
</a>
</g>
</g>
<!-- Node2&#45;&gt;Node1 -->
<g id="edge1_Node000001_Node000002" class="edge">
<title>Node2&#45;&gt;Node1</title>
<g id="a_edge1_Node000001_Node000002"><a xlink:title=" ">
<path fill="none" stroke="#9a32cd" stroke-dasharray="5,2" d="M67.08,-78.82C71.55,-66.01 78.76,-49.71 89.25,-38 95.81,-30.67 104.85,-24.72 113.1,-20.29"/>
<polygon fill="#9a32cd" stroke="#9a32cd" points="63.75,-77.73 64.07,-88.32 70.43,-79.85 63.75,-77.73"/>
</a>
</g>
<text xml:space="preserve" text-anchor="start" x="92.25" y="-59.5" font-family="Helvetica,sans-Serif" font-size="10.00" fill="grey">_dataIndex</text>
<text xml:space="preserve" text-anchor="start" x="92.25" y="-43.5" font-family="Helvetica,sans-Serif" font-size="10.00" fill="grey">_id</text>
</g>
<!-- Node3 -->
<g id="Node000003" class="node">
<title>Node3</title>
<g id="a_Node000003"><a xlink:title=" ">
<polygon fill="white" stroke="#666666" points="104.12,-184 18.38,-184 18.38,-164 104.12,-164 104.12,-184"/>
<text xml:space="preserve" text-anchor="middle" x="61.25" y="-170.5" font-family="Helvetica,sans-Serif" font-size="10.00">std::vector&lt; T &gt;</text>
</a>
</g>
</g>
<!-- Node3&#45;&gt;Node2 -->
<g id="edge2_Node000002_Node000003" class="edge">
<title>Node3&#45;&gt;Node2</title>
<g id="a_edge2_Node000002_Node000003"><a xlink:title=" ">
<path fill="none" stroke="orange" stroke-dasharray="5,2" d="M61.25,-152.18C61.25,-138.29 61.25,-120.71 61.25,-110.19"/>
<polygon fill="orange" stroke="orange" points="57.75,-152.07 61.25,-162.07 64.75,-152.07 57.75,-152.07"/>
</a>
</g>
<text xml:space="preserve" text-anchor="start" x="64.25" y="-133.5" font-family="Helvetica,sans-Serif" font-size="10.00" fill="grey">&lt; size_type &gt;</text>
</g>
<!-- Node4 -->
<g id="Node000004" class="node">
<title>Node4</title>
<g id="a_Node000004"><a xlink:title=" ">
<polygon fill="white" stroke="#666666" points="75.65,-258 46.85,-258 46.85,-238 75.65,-238 75.65,-258"/>
<text xml:space="preserve" text-anchor="middle" x="61.25" y="-244.5" font-family="Helvetica,sans-Serif" font-size="10.00">T</text>
</a>
</g>
</g>
<!-- Node4&#45;&gt;Node3 -->
<g id="edge3_Node000003_Node000004" class="edge">
<title>Node4&#45;&gt;Node3</title>
<g id="a_edge3_Node000003_Node000004"><a xlink:title=" ">
<path fill="none" stroke="#9a32cd" stroke-dasharray="5,2" d="M61.25,-226.18C61.25,-212.29 61.25,-194.71 61.25,-184.19"/>
<polygon fill="#9a32cd" stroke="#9a32cd" points="57.75,-226.07 61.25,-236.07 64.75,-226.07 57.75,-226.07"/>
</a>
</g>
<text xml:space="preserve" text-anchor="start" x="64.25" y="-207.5" font-family="Helvetica,sans-Serif" font-size="10.00" fill="grey">elements</text>
</g>
<!-- Node5 -->
<g id="Node000005" class="node">
<title>Node5</title>
<g id="a_Node000005"><a xlink:title=" ">
<polygon fill="white" stroke="#666666" points="206.38,-110 140.12,-110 140.12,-90 206.38,-90 206.38,-110"/>
<text xml:space="preserve" text-anchor="middle" x="173.25" y="-96.5" font-family="Helvetica,sans-Serif" font-size="10.00">vector&lt; T &gt;</text>
</a>
</g>
</g>
<!-- Node5&#45;&gt;Node1 -->
<g id="edge4_Node000001_Node000005" class="edge">
<title>Node5&#45;&gt;Node1</title>
<g id="a_edge4_Node000001_Node000005"><a xlink:title=" ">
<path fill="none" stroke="#9a32cd" stroke-dasharray="5,2" d="M164.45,-79.14C156.31,-60.77 144.56,-34.27 138.39,-20.35"/>
<polygon fill="#9a32cd" stroke="#9a32cd" points="161.21,-80.47 168.46,-88.2 167.61,-77.64 161.21,-80.47"/>
</a>
</g>
<text xml:space="preserve" text-anchor="start" x="163.64" y="-51.5" font-family="Helvetica,sans-Serif" font-size="10.00" fill="grey">_data</text>
</g>
</g>
</svg>
</svg>

<style type='text/css'>
<![CDATA[
[data-mouse-over-selected='false'] { opacity: 0.7; }
[data-mouse-over-selected='true']  { opacity: 1.0; }
]]>
</style>
<script type="application/ecmascript"><![CDATA[
document.addEventListener('DOMContentLoaded', (event) => {
  highlightEdges();
  highlightAdjacentNodes();
});
]]></script>
</svg>
