<?xml version="1.0" encoding="UTF-8" standalone="no"?>
<!DOCTYPE svg PUBLIC "-//W3C//DTD SVG 1.1//EN"
 "http://www.w3.org/Graphics/SVG/1.1/DTD/svg11.dtd">
<!-- Generated by graphviz version 14.1.1 (20251213.1925)
 -->
<!-- Title: mstd::mat&lt; C, R, T &gt; Pages: 1 -->
<svg width="384pt" height="146pt"
 viewBox="0.00 0.00 384.00 146.00" xmlns="http://www.w3.org/2000/svg" xmlns:xlink="http://www.w3.org/1999/xlink">
<g id="graph0" class="graph" transform="scale(1 1) rotate(0) translate(4 142)">
<title>mstd::mat&lt; C, R, T &gt;</title>
<!-- Node1 -->
<g id="Node000001" class="node">
<title>Node1</title>
<g id="a_Node000001"><a xlink:title=" ">
<polygon fill="#999999" stroke="#666666" points="243,-20 132.5,-20 132.5,0 243,0 243,-20"/>
<text xml:space="preserve" text-anchor="middle" x="187.75" y="-6.5" font-family="Helvetica,sans-Serif" font-size="10.00">mstd::mat&lt; C, R, T &gt;</text>
</a>
</g>
</g>
<!-- Node2 -->
<g id="Node000002" class="node">
<title>Node2</title>
<g id="a_Node000002"><a xlink:title=" ">
<polygon fill="white" stroke="#666666" points="155.5,-138 0,-138 0,-106 155.5,-106 155.5,-138"/>
<text xml:space="preserve" text-anchor="start" x="8" y="-124.5" font-family="Helvetica,sans-Serif" font-size="10.00">static _MSTD_CONSTEXPR17</text>
<text xml:space="preserve" text-anchor="middle" x="77.75" y="-112.5" font-family="Helvetica,sans-Serif" font-size="10.00"> const size_t</text>
</a>
</g>
</g>
<!-- Node2&#45;&gt;Node1 -->
<g id="edge1_Node000001_Node000002" class="edge">
<title>Node2&#45;&gt;Node1</title>
<g id="a_edge1_Node000001_Node000002"><a xlink:title=" ">
<path fill="none" stroke="#9a32cd" stroke-dasharray="5,2" d="M92.9,-96.12C104.52,-78.43 121.79,-54.91 141,-38 148.88,-31.06 158.81,-25.03 167.5,-20.44"/>
<polygon fill="#9a32cd" stroke="#9a32cd" points="89.98,-94.18 87.55,-104.49 95.88,-97.95 89.98,-94.18"/>
</a>
</g>
<text xml:space="preserve" text-anchor="start" x="144" y="-75.5" font-family="Helvetica,sans-Serif" font-size="10.00" fill="grey">columns</text>
<text xml:space="preserve" text-anchor="start" x="144" y="-59.5" font-family="Helvetica,sans-Serif" font-size="10.00" fill="grey">rows</text>
<text xml:space="preserve" text-anchor="start" x="144" y="-43.5" font-family="Helvetica,sans-Serif" font-size="10.00" fill="grey">size</text>
</g>
<!-- Node3 -->
<g id="Node000003" class="node">
<title>Node3</title>
<g id="a_Node000003"><a xlink:title=" ">
<polygon fill="white" stroke="#666666" points="202.15,-132 173.35,-132 173.35,-112 202.15,-112 202.15,-132"/>
<text xml:space="preserve" text-anchor="middle" x="187.75" y="-118.5" font-family="Helvetica,sans-Serif" font-size="10.00">T</text>
</a>
</g>
</g>
<!-- Node3&#45;&gt;Node1 -->
<g id="edge2_Node000001_Node000003" class="edge">
<title>Node3&#45;&gt;Node1</title>
<g id="a_edge2_Node000001_Node000003"><a xlink:title=" ">
<path fill="none" stroke="#9a32cd" stroke-dasharray="5,2" d="M187.75,-100.31C187.75,-76.36 187.75,-37.95 187.75,-20.35"/>
<polygon fill="#9a32cd" stroke="#9a32cd" points="184.25,-100.11 187.75,-110.11 191.25,-100.11 184.25,-100.11"/>
</a>
</g>
<text xml:space="preserve" text-anchor="start" x="190.75" y="-67.5" font-family="Helvetica,sans-Serif" font-size="10.00" fill="grey">R</text>
<text xml:space="preserve" text-anchor="start" x="190.75" y="-51.5" font-family="Helvetica,sans-Serif" font-size="10.00" fill="grey">_values</text>
</g>
<!-- Node4 -->
<g id="Node000004" class="node">
<title>Node4</title>
<g id="a_Node000004"><a xlink:title=" ">
<polygon fill="white" stroke="#666666" points="375.5,-138 220,-138 220,-106 375.5,-106 375.5,-138"/>
<text xml:space="preserve" text-anchor="start" x="228" y="-124.5" font-family="Helvetica,sans-Serif" font-size="10.00">static _MSTD_CONSTEXPR20</text>
<text xml:space="preserve" text-anchor="middle" x="297.75" y="-112.5" font-family="Helvetica,sans-Serif" font-size="10.00"> mat&lt; C, R, T &gt;</text>
</a>
</g>
</g>
<!-- Node4&#45;&gt;Node1 -->
<g id="edge3_Node000001_Node000004" class="edge">
<title>Node4&#45;&gt;Node1</title>
<g id="a_edge3_Node000001_Node000004"><a xlink:title=" ">
<path fill="none" stroke="#9a32cd" stroke-dasharray="5,2" d="M281.72,-96.5C269.42,-78.89 251.29,-55.3 231.75,-38 224.1,-31.23 214.54,-25.13 206.28,-20.45"/>
<polygon fill="#9a32cd" stroke="#9a32cd" points="278.54,-98.05 287.07,-104.34 284.33,-94.1 278.54,-98.05"/>
</a>
</g>
<text xml:space="preserve" text-anchor="start" x="278" y="-59.5" font-family="Helvetica,sans-Serif" font-size="10.00" fill="grey">R</text>
</g>
</g>
</svg>
