<?xml version="1.0" encoding="UTF-8" standalone="no"?>
<!DOCTYPE svg PUBLIC "-//W3C//DTD SVG 1.1//EN"
 "http://www.w3.org/Graphics/SVG/1.1/DTD/svg11.dtd">
<!-- Generated by graphviz version 14.1.1 (20251213.1925)
 -->
<!-- Title: mstd::function_traits&lt; R(C::*)(Args...) noexcept &gt; Pages: 1 -->
<svg width="1513pt" height="638pt"
 viewBox="0.00 0.00 1513.00 638.00" xmlns="http://www.w3.org/2000/svg" xmlns:xlink="http://www.w3.org/1999/xlink">
<g id="graph0" class="graph" transform="scale(1 1) rotate(0) translate(4 633.89)">
<title>mstd::function_traits&lt; R(C::*)(Args...) noexcept &gt;</title>
<!-- Node1 -->
<g id="Node000001" class="node">
<title>Node1</title>
<g id="a_Node000001"><a xlink:title=" ">
<polygon fill="#999999" stroke="#666666" points="1504.75,-448 1362,-448 1362,-416 1504.75,-416 1504.75,-448"/>
<text xml:space="preserve" text-anchor="start" x="1370" y="-434.5" font-family="Helvetica,sans-Serif" font-size="10.00">mstd::function_traits</text>
<text xml:space="preserve" text-anchor="middle" x="1433.38" y="-422.5" font-family="Helvetica,sans-Serif" font-size="10.00">&lt; R(C::*)(Args...) noexcept &gt;</text>
</a>
</g>
</g>
<!-- Node2 -->
<g id="Node000002" class="node">
<title>Node2</title>
<g id="a_Node000002"><a xlink:href="../../d0/d74/structmstd_1_1utils_1_1function__default__type__traits.html" target="_top" xlink:title=" ">
<polygon fill="white" stroke="#666666" points="588.75,-341 486.5,-341 486.5,-297 588.75,-297 588.75,-341"/>
<text xml:space="preserve" text-anchor="start" x="494.5" y="-327.5" font-family="Helvetica,sans-Serif" font-size="10.00">mstd::utils::function</text>
<text xml:space="preserve" text-anchor="start" x="494.5" y="-315.5" font-family="Helvetica,sans-Serif" font-size="10.00">_default_type_traits</text>
<text xml:space="preserve" text-anchor="middle" x="537.62" y="-303.5" font-family="Helvetica,sans-Serif" font-size="10.00">&lt; false &gt;</text>
</a>
</g>
</g>
<!-- Node2&#45;&gt;Node1 -->
<g id="edge1_Node000001_Node000002" class="edge">
<title>Node2&#45;&gt;Node1</title>
<g id="a_edge1_Node000001_Node000002"><a xlink:title=" ">
<path fill="none" stroke="#63b8ff" d="M560.92,-350.07C597.55,-397.11 675.32,-481 764.12,-481 764.12,-481 764.12,-481 1259.5,-481 1308.32,-481 1362.06,-462.69 1396.45,-448.45"/>
<polygon fill="#63b8ff" stroke="#63b8ff" points="563.92,-348.22 555.07,-342.39 558.35,-352.46 563.92,-348.22"/>
</a>
</g>
</g>
<!-- Node5 -->
<g id="Node000005" class="node">
<title>Node5</title>
<g id="a_Node000005"><a xlink:href="../../d8/d93/structmstd_1_1function__traits_3_01_r_07_args_8_8_8_08_01noexcept_00_01_c_01_4.html" target="_top" xlink:title=" ">
<polygon fill="white" stroke="#666666" points="1325,-339 1192,-339 1192,-307 1325,-307 1325,-339"/>
<text xml:space="preserve" text-anchor="start" x="1200" y="-325.5" font-family="Helvetica,sans-Serif" font-size="10.00">mstd::function_traits</text>
<text xml:space="preserve" text-anchor="middle" x="1258.5" y="-313.5" font-family="Helvetica,sans-Serif" font-size="10.00">&lt; R(Args...) noexcept, C &gt;</text>
</a>
</g>
</g>
<!-- Node2&#45;&gt;Node5 -->
<g id="edge6_Node000005_Node000002" class="edge">
<title>Node2&#45;&gt;Node5</title>
<g id="a_edge6_Node000005_Node000002"><a xlink:title=" ">
<path fill="none" stroke="#63b8ff" d="M600.33,-312.29C700.17,-302.41 903.28,-286.29 1075,-298 1113.93,-300.65 1157.2,-306.46 1191.83,-311.8"/>
<polygon fill="#63b8ff" stroke="#63b8ff" points="600.07,-308.8 590.47,-313.29 600.77,-315.77 600.07,-308.8"/>
</a>
</g>
</g>
<!-- Node6 -->
<g id="Node000006" class="node">
<title>Node6</title>
<g id="a_Node000006"><a xlink:href="../../dd/db6/structmstd_1_1function__traits_3_01_r_07_args_8_8_8_08_00_01_c_01_4.html" target="_top" xlink:title=" ">
<polygon fill="white" stroke="#666666" points="1066.12,-339 960.88,-339 960.88,-307 1066.12,-307 1066.12,-339"/>
<text xml:space="preserve" text-anchor="start" x="968.88" y="-325.5" font-family="Helvetica,sans-Serif" font-size="10.00">mstd::function_traits</text>
<text xml:space="preserve" text-anchor="middle" x="1013.5" y="-313.5" font-family="Helvetica,sans-Serif" font-size="10.00">&lt; R(Args...), C &gt;</text>
</a>
</g>
</g>
<!-- Node2&#45;&gt;Node6 -->
<g id="edge8_Node000006_Node000002" class="edge">
<title>Node2&#45;&gt;Node6</title>
<g id="a_edge8_Node000006_Node000002"><a xlink:title=" ">
<path fill="none" stroke="#63b8ff" d="M600.23,-319.52C694.42,-320.32 872.58,-321.82 960.6,-322.56"/>
<polygon fill="#63b8ff" stroke="#63b8ff" points="600.43,-316.02 590.4,-319.44 600.37,-323.02 600.43,-316.02"/>
</a>
</g>
</g>
<!-- Node11 -->
<g id="Node000011" class="node">
<title>Node11</title>
<g id="a_Node000011"><a xlink:href="../../d7/dcb/structmstd_1_1function__traits.html" target="_top" xlink:title=" ">
<polygon fill="white" stroke="#666666" points="817.75,-398 712.5,-398 712.5,-366 817.75,-366 817.75,-398"/>
<text xml:space="preserve" text-anchor="start" x="720.5" y="-384.5" font-family="Helvetica,sans-Serif" font-size="10.00">mstd::function_traits</text>
<text xml:space="preserve" text-anchor="middle" x="765.12" y="-372.5" font-family="Helvetica,sans-Serif" font-size="10.00">&lt; F, C &gt;</text>
</a>
</g>
</g>
<!-- Node2&#45;&gt;Node11 -->
<g id="edge17_Node000011_Node000002" class="edge">
<title>Node2&#45;&gt;Node11</title>
<g id="a_edge17_Node000011_Node000002"><a xlink:title=" ">
<path fill="none" stroke="#63b8ff" d="M600.3,-336.23C635.37,-346.03 678.79,-358.16 712.12,-367.47"/>
<polygon fill="#63b8ff" stroke="#63b8ff" points="601.26,-332.87 590.69,-333.55 599.38,-339.61 601.26,-332.87"/>
</a>
</g>
</g>
<!-- Node3 -->
<g id="Node000003" class="node">
<title>Node3</title>
<g id="a_Node000003"><a xlink:title=" ">
<polygon fill="white" stroke="#666666" points="155.5,-145 0,-145 0,-113 155.5,-113 155.5,-145"/>
<text xml:space="preserve" text-anchor="start" x="8" y="-131.5" font-family="Helvetica,sans-Serif" font-size="10.00">static _MSTD_CONSTEXPR17</text>
<text xml:space="preserve" text-anchor="middle" x="77.75" y="-119.5" font-family="Helvetica,sans-Serif" font-size="10.00"> const bool</text>
</a>
</g>
</g>
<!-- Node3&#45;&gt;Node2 -->
<g id="edge2_Node000002_Node000003" class="edge">
<title>Node3&#45;&gt;Node2</title>
<g id="a_edge2_Node000002_Node000003"><a xlink:title=" ">
<path fill="none" stroke="#9a32cd" stroke-dasharray="5,2" d="M84.23,-156.41C94.08,-197.56 119.04,-274.07 173.5,-308 224.22,-339.6 398.83,-330.44 486.11,-323.56"/>
<polygon fill="#9a32cd" stroke="#9a32cd" points="87.68,-155.8 82.07,-146.81 80.85,-157.34 87.68,-155.8"/>
</a>
</g>
<text xml:space="preserve" text-anchor="start" x="286.5" y="-495.81" font-family="Helvetica,sans-Serif" font-size="10.00" fill="grey">is_const</text>
<text xml:space="preserve" text-anchor="start" x="286.5" y="-479.81" font-family="Helvetica,sans-Serif" font-size="10.00" fill="grey">is_free</text>
<text xml:space="preserve" text-anchor="start" x="286.5" y="-463.81" font-family="Helvetica,sans-Serif" font-size="10.00" fill="grey">is_functor</text>
<text xml:space="preserve" text-anchor="start" x="286.5" y="-447.81" font-family="Helvetica,sans-Serif" font-size="10.00" fill="grey">is_member</text>
<text xml:space="preserve" text-anchor="start" x="286.5" y="-431.81" font-family="Helvetica,sans-Serif" font-size="10.00" fill="grey">is_moved</text>
<text xml:space="preserve" text-anchor="start" x="286.5" y="-415.81" font-family="Helvetica,sans-Serif" font-size="10.00" fill="grey">is_noexcept</text>
<text xml:space="preserve" text-anchor="start" x="286.5" y="-399.81" font-family="Helvetica,sans-Serif" font-size="10.00" fill="grey">is_parent_moved</text>
<text xml:space="preserve" text-anchor="start" x="286.5" y="-383.81" font-family="Helvetica,sans-Serif" font-size="10.00" fill="grey">is_parent_ref</text>
<text xml:space="preserve" text-anchor="start" x="286.5" y="-367.81" font-family="Helvetica,sans-Serif" font-size="10.00" fill="grey">is_ptr</text>
<text xml:space="preserve" text-anchor="start" x="286.5" y="-351.81" font-family="Helvetica,sans-Serif" font-size="10.00" fill="grey">is_ref</text>
<text xml:space="preserve" text-anchor="start" x="286.5" y="-335.81" font-family="Helvetica,sans-Serif" font-size="10.00" fill="grey"> &#160;...</text>
</g>
<!-- Node4 -->
<g id="Node000004" class="node">
<title>Node4</title>
<g id="a_Node000004"><a xlink:href="../../d0/d74/structmstd_1_1utils_1_1function__default__type__traits.html" target="_top" xlink:title=" ">
<polygon fill="white" stroke="#666666" points="374.75,-286 272.5,-286 272.5,-242 374.75,-242 374.75,-286"/>
<text xml:space="preserve" text-anchor="start" x="280.5" y="-272.5" font-family="Helvetica,sans-Serif" font-size="10.00">mstd::utils::function</text>
<text xml:space="preserve" text-anchor="start" x="280.5" y="-260.5" font-family="Helvetica,sans-Serif" font-size="10.00">_default_type_traits</text>
<text xml:space="preserve" text-anchor="middle" x="323.62" y="-248.5" font-family="Helvetica,sans-Serif" font-size="10.00">&lt; IsMember &gt;</text>
</a>
</g>
</g>
<!-- Node3&#45;&gt;Node4 -->
<g id="edge4_Node000004_Node000003" class="edge">
<title>Node3&#45;&gt;Node4</title>
<g id="a_edge4_Node000004_Node000003"><a xlink:title=" ">
<path fill="none" stroke="#9a32cd" stroke-dasharray="5,2" d="M145.24,-110.55C181.27,-104.78 224.31,-105.33 253.75,-130 287.69,-158.44 247.92,-190.68 271.75,-228 275.01,-233.11 279.28,-237.7 283.96,-241.77"/>
<polygon fill="#9a32cd" stroke="#9a32cd" points="145.02,-107.03 135.8,-112.25 146.26,-113.92 145.02,-107.03"/>
</a>
</g>
<text xml:space="preserve" text-anchor="start" x="176.5" y="-295.5" font-family="Helvetica,sans-Serif" font-size="10.00" fill="grey">is_const</text>
<text xml:space="preserve" text-anchor="start" x="176.5" y="-279.5" font-family="Helvetica,sans-Serif" font-size="10.00" fill="grey">is_free</text>
<text xml:space="preserve" text-anchor="start" x="176.5" y="-263.5" font-family="Helvetica,sans-Serif" font-size="10.00" fill="grey">is_functor</text>
<text xml:space="preserve" text-anchor="start" x="176.5" y="-247.5" font-family="Helvetica,sans-Serif" font-size="10.00" fill="grey">is_member</text>
<text xml:space="preserve" text-anchor="start" x="176.5" y="-231.5" font-family="Helvetica,sans-Serif" font-size="10.00" fill="grey">is_moved</text>
<text xml:space="preserve" text-anchor="start" x="176.5" y="-215.5" font-family="Helvetica,sans-Serif" font-size="10.00" fill="grey">is_noexcept</text>
<text xml:space="preserve" text-anchor="start" x="176.5" y="-199.5" font-family="Helvetica,sans-Serif" font-size="10.00" fill="grey">is_parent_moved</text>
<text xml:space="preserve" text-anchor="start" x="176.5" y="-183.5" font-family="Helvetica,sans-Serif" font-size="10.00" fill="grey">is_parent_ref</text>
<text xml:space="preserve" text-anchor="start" x="176.5" y="-167.5" font-family="Helvetica,sans-Serif" font-size="10.00" fill="grey">is_ptr</text>
<text xml:space="preserve" text-anchor="start" x="176.5" y="-151.5" font-family="Helvetica,sans-Serif" font-size="10.00" fill="grey">is_ref</text>
<text xml:space="preserve" text-anchor="start" x="176.5" y="-135.5" font-family="Helvetica,sans-Serif" font-size="10.00" fill="grey"> &#160;...</text>
</g>
<!-- Node3&#45;&gt;Node5 -->
<g id="edge19_Node000005_Node000003" class="edge">
<title>Node3&#45;&gt;Node5</title>
<g id="a_edge19_Node000005_Node000003"><a xlink:title=" ">
<path fill="none" stroke="#9a32cd" stroke-dasharray="5,2" d="M99.99,-104.32C117.82,-85.05 144.9,-58.96 173.5,-43 233.74,-9.39 253.65,0 322.62,0 322.62,0 322.62,0 1014.5,0 1169.58,0 1238,-240.72 1253.81,-306.54"/>
<polygon fill="#9a32cd" stroke="#9a32cd" points="97.6,-101.75 93.49,-111.51 102.8,-106.44 97.6,-101.75"/>
</a>
</g>
<text xml:space="preserve" text-anchor="start" x="621" y="-5.5" font-family="Helvetica,sans-Serif" font-size="10.00" fill="grey">is_noexcept</text>
</g>
<!-- Node10 -->
<g id="Node000010" class="node">
<title>Node10</title>
<g id="a_Node000010"><a xlink:href="../../d0/d74/structmstd_1_1utils_1_1function__default__type__traits.html" target="_top" xlink:title=" ">
<polygon fill="white" stroke="#666666" points="588.75,-270 486.5,-270 486.5,-226 588.75,-226 588.75,-270"/>
<text xml:space="preserve" text-anchor="start" x="494.5" y="-256.5" font-family="Helvetica,sans-Serif" font-size="10.00">mstd::utils::function</text>
<text xml:space="preserve" text-anchor="start" x="494.5" y="-244.5" font-family="Helvetica,sans-Serif" font-size="10.00">_default_type_traits</text>
<text xml:space="preserve" text-anchor="middle" x="537.62" y="-232.5" font-family="Helvetica,sans-Serif" font-size="10.00">&lt; true &gt;</text>
</a>
</g>
</g>
<!-- Node3&#45;&gt;Node10 -->
<g id="edge14_Node000010_Node000003" class="edge">
<title>Node3&#45;&gt;Node10</title>
<g id="a_edge14_Node000010_Node000003"><a xlink:title=" ">
<path fill="none" stroke="#9a32cd" stroke-dasharray="5,2" d="M111.97,-106.74C168.36,-71.97 285.44,-12.87 375.5,-55 452,-90.79 504.91,-182.74 526.18,-225.51"/>
<polygon fill="#9a32cd" stroke="#9a32cd" points="110.36,-103.62 103.77,-111.91 114.1,-109.54 110.36,-103.62"/>
</a>
</g>
<text xml:space="preserve" text-anchor="start" x="286.5" y="-220.5" font-family="Helvetica,sans-Serif" font-size="10.00" fill="grey">is_const</text>
<text xml:space="preserve" text-anchor="start" x="286.5" y="-204.5" font-family="Helvetica,sans-Serif" font-size="10.00" fill="grey">is_free</text>
<text xml:space="preserve" text-anchor="start" x="286.5" y="-188.5" font-family="Helvetica,sans-Serif" font-size="10.00" fill="grey">is_functor</text>
<text xml:space="preserve" text-anchor="start" x="286.5" y="-172.5" font-family="Helvetica,sans-Serif" font-size="10.00" fill="grey">is_member</text>
<text xml:space="preserve" text-anchor="start" x="286.5" y="-156.5" font-family="Helvetica,sans-Serif" font-size="10.00" fill="grey">is_moved</text>
<text xml:space="preserve" text-anchor="start" x="286.5" y="-140.5" font-family="Helvetica,sans-Serif" font-size="10.00" fill="grey">is_noexcept</text>
<text xml:space="preserve" text-anchor="start" x="286.5" y="-124.5" font-family="Helvetica,sans-Serif" font-size="10.00" fill="grey">is_parent_moved</text>
<text xml:space="preserve" text-anchor="start" x="286.5" y="-108.5" font-family="Helvetica,sans-Serif" font-size="10.00" fill="grey">is_parent_ref</text>
<text xml:space="preserve" text-anchor="start" x="286.5" y="-92.5" font-family="Helvetica,sans-Serif" font-size="10.00" fill="grey">is_ptr</text>
<text xml:space="preserve" text-anchor="start" x="286.5" y="-76.5" font-family="Helvetica,sans-Serif" font-size="10.00" fill="grey">is_ref</text>
<text xml:space="preserve" text-anchor="start" x="286.5" y="-60.5" font-family="Helvetica,sans-Serif" font-size="10.00" fill="grey"> &#160;...</text>
</g>
<!-- Node3&#45;&gt;Node11 -->
<g id="edge18_Node000011_Node000003" class="edge">
<title>Node3&#45;&gt;Node11</title>
<g id="a_edge18_Node000011_Node000003"><a xlink:title=" ">
<path fill="none" stroke="#9a32cd" stroke-dasharray="5,2" d="M82.61,-156.59C94.63,-230.59 138.91,-433.17 271.75,-512 435.22,-609.01 671.4,-451.38 742.86,-398.4"/>
<polygon fill="#9a32cd" stroke="#9a32cd" points="86.11,-156.32 81.12,-146.97 79.19,-157.39 86.11,-156.32"/>
</a>
</g>
<text xml:space="preserve" text-anchor="start" x="410.75" y="-548.33" font-family="Helvetica,sans-Serif" font-size="10.00" fill="grey">is_free</text>
</g>
<!-- Node4&#45;&gt;Node2 -->
<g id="edge3_Node000002_Node000004" class="edge">
<title>Node4&#45;&gt;Node2</title>
<g id="a_edge3_Node000002_Node000004"><a xlink:title=" ">
<path fill="none" stroke="orange" stroke-dasharray="5,2" d="M386.25,-274.01C408.78,-278.21 434.34,-283.61 457.25,-290 466.72,-292.64 476.67,-295.88 486.2,-299.24"/>
<polygon fill="orange" stroke="orange" points="387.08,-270.6 376.62,-272.25 385.83,-277.49 387.08,-270.6"/>
</a>
</g>
<text xml:space="preserve" text-anchor="start" x="405.88" y="-295.5" font-family="Helvetica,sans-Serif" font-size="10.00" fill="grey">&lt; false &gt;</text>
</g>
<!-- Node4&#45;&gt;Node10 -->
<g id="edge15_Node000010_Node000004" class="edge">
<title>Node4&#45;&gt;Node10</title>
<g id="a_edge15_Node000010_Node000004"><a xlink:title=" ">
<path fill="none" stroke="orange" stroke-dasharray="5,2" d="M386.42,-249.9C388.81,-249.56 391.17,-249.26 393.5,-249 424.12,-245.6 458.66,-245.25 486.13,-245.81"/>
<polygon fill="orange" stroke="orange" points="386,-246.43 376.7,-251.49 387.13,-253.33 386,-246.43"/>
</a>
</g>
<text xml:space="preserve" text-anchor="start" x="408.12" y="-254.5" font-family="Helvetica,sans-Serif" font-size="10.00" fill="grey">&lt; true &gt;</text>
</g>
<!-- Node5&#45;&gt;Node1 -->
<g id="edge5_Node000001_Node000005" class="edge">
<title>Node5&#45;&gt;Node1</title>
<g id="a_edge5_Node000001_Node000005"><a xlink:title=" ">
<path fill="none" stroke="#63b8ff" d="M1295.12,-345.46C1328.21,-366.32 1376.71,-396.9 1406.32,-415.57"/>
<polygon fill="#63b8ff" stroke="#63b8ff" points="1296.99,-342.5 1286.66,-340.13 1293.25,-348.42 1296.99,-342.5"/>
</a>
</g>
</g>
<!-- Node6&#45;&gt;Node5 -->
<g id="edge7_Node000005_Node000006" class="edge">
<title>Node6&#45;&gt;Node5</title>
<g id="a_edge7_Node000005_Node000006"><a xlink:title=" ">
<path fill="none" stroke="#63b8ff" d="M1077.42,-323C1112.55,-323 1156.28,-323 1191.85,-323"/>
<polygon fill="#63b8ff" stroke="#63b8ff" points="1077.85,-319.5 1067.85,-323 1077.85,-326.5 1077.85,-319.5"/>
</a>
</g>
</g>
<!-- Node7 -->
<g id="Node000007" class="node">
<title>Node7</title>
<g id="a_Node000007"><a xlink:href="../../d1/d4f/structmstd_1_1utils_1_1function__core__traits_3_01_r_07_args_8_8_8_08_00_01_c_01_4.html" target="_top" xlink:title=" ">
<polygon fill="white" stroke="#666666" points="835.75,-588 694.5,-588 694.5,-556 835.75,-556 835.75,-588"/>
<text xml:space="preserve" text-anchor="start" x="702.5" y="-574.5" font-family="Helvetica,sans-Serif" font-size="10.00">mstd::utils::function</text>
<text xml:space="preserve" text-anchor="middle" x="765.12" y="-562.5" font-family="Helvetica,sans-Serif" font-size="10.00">_core_traits&lt; R(Args...), C &gt;</text>
</a>
</g>
</g>
<!-- Node7&#45;&gt;Node6 -->
<g id="edge9_Node000006_Node000007" class="edge">
<title>Node7&#45;&gt;Node6</title>
<g id="a_edge9_Node000006_Node000007"><a xlink:title=" ">
<path fill="none" stroke="#63b8ff" d="M784.36,-546.59C815.45,-504.42 882.18,-418.8 952,-360 961.04,-352.39 971.81,-345.28 981.74,-339.37"/>
<polygon fill="#63b8ff" stroke="#63b8ff" points="781.73,-544.26 778.65,-554.4 787.38,-548.4 781.73,-544.26"/>
</a>
</g>
</g>
<!-- Node8 -->
<g id="Node000008" class="node">
<title>Node8</title>
<g id="a_Node000008"><a xlink:href="../../df/db9/structmstd_1_1utils_1_1function__core__traits.html" target="_top" xlink:title=" ">
<polygon fill="white" stroke="#666666" points="600,-588 475.25,-588 475.25,-556 600,-556 600,-588"/>
<text xml:space="preserve" text-anchor="start" x="483.25" y="-574.5" font-family="Helvetica,sans-Serif" font-size="10.00">mstd::utils::function</text>
<text xml:space="preserve" text-anchor="middle" x="537.62" y="-562.5" font-family="Helvetica,sans-Serif" font-size="10.00">_core_traits&lt; R(Args...)&gt;</text>
</a>
</g>
</g>
<!-- Node8&#45;&gt;Node7 -->
<g id="edge10_Node000007_Node000008" class="edge">
<title>Node8&#45;&gt;Node7</title>
<g id="a_edge10_Node000007_Node000008"><a xlink:title=" ">
<path fill="none" stroke="#63b8ff" d="M611.75,-572C638.23,-572 668.04,-572 694.22,-572"/>
<polygon fill="#63b8ff" stroke="#63b8ff" points="611.76,-568.5 601.76,-572 611.76,-575.5 611.76,-568.5"/>
</a>
</g>
</g>
<!-- Node9 -->
<g id="Node000009" class="node">
<title>Node9</title>
<g id="a_Node000009"><a xlink:href="../../df/db9/structmstd_1_1utils_1_1function__core__traits.html" target="_top" xlink:title=" ">
<polygon fill="white" stroke="#666666" points="375.5,-618 271.75,-618 271.75,-586 375.5,-586 375.5,-618"/>
<text xml:space="preserve" text-anchor="start" x="279.75" y="-604.5" font-family="Helvetica,sans-Serif" font-size="10.00">mstd::utils::function</text>
<text xml:space="preserve" text-anchor="middle" x="323.62" y="-592.5" font-family="Helvetica,sans-Serif" font-size="10.00">_core_traits&lt; F, C &gt;</text>
</a>
</g>
</g>
<!-- Node9&#45;&gt;Node7 -->
<g id="edge12_Node000007_Node000009" class="edge">
<title>Node9&#45;&gt;Node7</title>
<g id="a_edge12_Node000007_Node000009"><a xlink:title=" ">
<path fill="none" stroke="orange" stroke-dasharray="5,2" d="M386.92,-609.56C389.14,-609.73 391.34,-609.87 393.5,-610 519.52,-617.29 551.7,-604.94 676.5,-586 682.29,-585.12 688.29,-584.2 694.31,-583.26"/>
<polygon fill="orange" stroke="orange" points="387.49,-606.1 377.23,-608.73 386.89,-613.07 387.49,-606.1"/>
</a>
</g>
<text xml:space="preserve" text-anchor="start" x="500.5" y="-617.39" font-family="Helvetica,sans-Serif" font-size="10.00" fill="grey">&lt; R(Args...), C &gt;</text>
</g>
<!-- Node9&#45;&gt;Node8 -->
<g id="edge11_Node000008_Node000009" class="edge">
<title>Node9&#45;&gt;Node8</title>
<g id="a_edge11_Node000008_Node000009"><a xlink:title=" ">
<path fill="none" stroke="orange" stroke-dasharray="5,2" d="M386.94,-592.94C389.16,-592.62 391.35,-592.31 393.5,-592 420.2,-588.2 449.72,-584.06 474.97,-580.54"/>
<polygon fill="orange" stroke="orange" points="386.67,-589.44 377.27,-594.33 387.67,-596.37 386.67,-589.44"/>
</a>
</g>
<text xml:space="preserve" text-anchor="start" x="396.5" y="-597.5" font-family="Helvetica,sans-Serif" font-size="10.00" fill="grey">&lt; R(Args...)&gt;</text>
</g>
<!-- Node10&#45;&gt;Node6 -->
<g id="edge13_Node000006_Node000010" class="edge">
<title>Node10&#45;&gt;Node6</title>
<g id="a_edge13_Node000006_Node000010"><a xlink:title=" ">
<path fill="none" stroke="#63b8ff" d="M600.23,-257.75C694.42,-272.66 872.58,-300.85 960.6,-314.79"/>
<polygon fill="#63b8ff" stroke="#63b8ff" points="600.81,-254.3 590.38,-256.19 599.71,-261.21 600.81,-254.3"/>
</a>
</g>
</g>
<!-- Node11&#45;&gt;Node1 -->
<g id="edge21_Node000001_Node000011" class="edge">
<title>Node11&#45;&gt;Node1</title>
<g id="a_edge21_Node000001_Node000011"><a xlink:title=" ">
<path fill="none" stroke="orange" stroke-dasharray="5,2" d="M829.35,-386.75C954.08,-396.11 1231.01,-416.89 1361.61,-426.69"/>
<polygon fill="orange" stroke="orange" points="829.87,-383.27 819.64,-386.02 829.35,-390.25 829.87,-383.27"/>
</a>
</g>
<text xml:space="preserve" text-anchor="start" x="1096" y="-434.08" font-family="Helvetica,sans-Serif" font-size="10.00" fill="grey">&lt; R(C::*)(Args...)</text>
<text xml:space="preserve" text-anchor="start" x="1096" y="-418.08" font-family="Helvetica,sans-Serif" font-size="10.00" fill="grey">   noexcept &gt;</text>
</g>
<!-- Node11&#45;&gt;Node5 -->
<g id="edge20_Node000005_Node000011" class="edge">
<title>Node11&#45;&gt;Node5</title>
<g id="a_edge20_Node000005_Node000011"><a xlink:title=" ">
<path fill="none" stroke="orange" stroke-dasharray="5,2" d="M829.25,-377.42C860.75,-374.95 899.42,-371.67 934,-368 1040.95,-356.64 1067.61,-352.78 1174,-337 1179.82,-336.14 1185.85,-335.2 1191.9,-334.24"/>
<polygon fill="orange" stroke="orange" points="829.2,-373.91 819.49,-378.17 829.73,-380.89 829.2,-373.91"/>
</a>
</g>
<text xml:space="preserve" text-anchor="start" x="955" y="-371.32" font-family="Helvetica,sans-Serif" font-size="10.00" fill="grey">&lt; R(Args...) noexcept, C &gt;</text>
</g>
<!-- Node11&#45;&gt;Node6 -->
<g id="edge16_Node000006_Node000011" class="edge">
<title>Node11&#45;&gt;Node6</title>
<g id="a_edge16_Node000006_Node000011"><a xlink:title=" ">
<path fill="none" stroke="orange" stroke-dasharray="5,2" d="M816.91,-361.69C828.86,-357.4 841.65,-353.21 853.75,-350 888.88,-340.68 929.27,-333.86 960.51,-329.41"/>
<polygon fill="orange" stroke="orange" points="815.8,-358.36 807.63,-365.1 818.22,-364.93 815.8,-358.36"/>
</a>
</g>
<text xml:space="preserve" text-anchor="start" x="856.75" y="-355.5" font-family="Helvetica,sans-Serif" font-size="10.00" fill="grey">&lt; R(Args...), C &gt;</text>
</g>
</g>
</svg>
