<?xml version="1.0" encoding="UTF-8" standalone="no"?>
<!DOCTYPE svg PUBLIC "-//W3C//DTD SVG 1.1//EN"
 "http://www.w3.org/Graphics/SVG/1.1/DTD/svg11.dtd">
<!-- Generated by graphviz version 14.1.1 (20251213.1925)
 -->
<!-- Title: mstd::all_check&lt; Check, Ts &gt; Pages: 1 -->
<!--zoomable 401 -->

<svg id="main" version="1.1" xmlns="http://www.w3.org/2000/svg" xmlns:xlink="http://www.w3.org/1999/xlink" xml:space="preserve" onload="init(evt)">

<style type="text/css"><![CDATA[
.node, .edge {opacity: 0.7;}
.node.selected, .edge.selected {opacity: 1;}
.edge:hover path { stroke: red; }
.edge:hover polygon { stroke: red; fill: red; }
]]></style>

<defs>
  <circle id="rim" cx="0" cy="0" r="7"/>
  <circle id="rim2" cx="0" cy="0" r="3.5"/>
  <g id="zoomPlus">
    <use xlink:href="#rim" fill="#404040"><set attributeName="fill" to="#808080" begin="zoomplus.mouseover" end="zoomplus.mouseout"/></use>
    <path d="M-4,0h8M0,-4v8" fill="none" stroke="white" stroke-width="1.5" pointer-events="none"/>
  </g>
  <g id="zoomMin">
    <use xlink:href="#rim" fill="#404040"><set attributeName="fill" to="#808080" begin="zoomminus.mouseover" end="zoomminus.mouseout"/></use>
    <path d="M-4,0h8" fill="none" stroke="white" stroke-width="1.5" pointer-events="none"/>
  </g>
  <g id="arrowUp" transform="translate(30 24)">
    <use xlink:href="#rim"/>
    <path pointer-events="none" fill="none" stroke="white" stroke-width="1.5" d="M0,-3.0v7 M-2.5,-0.5L0,-3.0L2.5,-0.5"/>
  </g>
  <g id="arrowRight" transform="rotate(90) translate(36 -43)">
    <use xlink:href="#rim"/>
    <path pointer-events="none" fill="none" stroke="white" stroke-width="1.5" d="M0,-3.0v7 M-2.5,-0.5L0,-3.0L2.5,-0.5"/>
  </g>
  <g id="arrowDown" transform="rotate(180) translate(-30 -48)">
    <use xlink:href="#rim"/>
    <path pointer-events="none" fill="none" stroke="white" stroke-width="1.5" d="M0,-3.0v7 M-2.5,-0.5L0,-3.0L2.5,-0.5"/>
  </g>
  <g id="arrowLeft" transform="rotate(270) translate(-36 17)">
    <use xlink:href="#rim"/>
    <path pointer-events="none" fill="none" stroke="white" stroke-width="1.5" d="M0,-3.0v7 M-2.5,-0.5L0,-3.0L2.5,-0.5"/>
  </g>
  <g id="resetDef">
    <use xlink:href="#rim2" fill="#404040"><set attributeName="fill" to="#808080" begin="reset.mouseover" end="reset.mouseout"/></use>
  </g>
</defs>
<script type="application/ecmascript">
var viewWidth = 727;
var viewHeight = 401;
var sectionId = 'dynsection-0';
</script>
<script type="application/ecmascript" xlink:href="../../svg.min.js"/>
<svg id="graph" class="graph">
<g id="viewport">
<title>mstd::all_check&lt; Check, Ts &gt;</title>
<!-- Node1 -->
<g id="Node000001" class="node">
<title>Node1</title>
<g id="a_Node000001"><a xlink:title=" ">
<polygon fill="#999999" stroke="#666666" points="273,-209 147.5,-209 147.5,-177 273,-177 273,-209"/>
<text xml:space="preserve" text-anchor="start" x="155.5" y="-195.5" font-family="Helvetica,sans-Serif" font-size="10.00">mstd::all_check&lt; Check,</text>
<text xml:space="preserve" text-anchor="middle" x="210.25" y="-183.5" font-family="Helvetica,sans-Serif" font-size="10.00"> Ts &gt;</text>
</a>
</g>
</g>
<!-- Node3 -->
<g id="Node000003" class="node">
<title>Node3</title>
<g id="a_Node000003"><a xlink:href="../../dd/def/structmstd_1_1all__check.html" target="_top" xlink:title=" ">
<polygon fill="white" stroke="#666666" points="547.75,-368 433.5,-368 433.5,-336 547.75,-336 547.75,-368"/>
<text xml:space="preserve" text-anchor="start" x="441.5" y="-354.5" font-family="Helvetica,sans-Serif" font-size="10.00">mstd::all_check&lt; std</text>
<text xml:space="preserve" text-anchor="middle" x="490.62" y="-342.5" font-family="Helvetica,sans-Serif" font-size="10.00">::is_arithmetic, Ns... &gt;</text>
</a>
</g>
</g>
<!-- Node1&#45;&gt;Node3 -->
<g id="edge2_Node000001_Node000003" class="edge">
<title>Node1&#45;&gt;Node3</title>
<g id="a_edge2_Node000001_Node000003"><a xlink:title=" ">
<path fill="none" stroke="orange" stroke-dasharray="5,2" d="M218.99,-220.07C229.62,-251.88 252,-303.57 291,-329 333.02,-356.4 390.88,-360.2 433.32,-358.3"/>
<polygon fill="orange" stroke="orange" points="222.4,-219.25 216.05,-210.77 215.73,-221.36 222.4,-219.25"/>
</a>
</g>
<text xml:space="preserve" text-anchor="start" x="309.38" y="-380.21" font-family="Helvetica,sans-Serif" font-size="10.00" fill="grey">&lt; std::is_arithmetic,</text>
<text xml:space="preserve" text-anchor="start" x="309.38" y="-364.21" font-family="Helvetica,sans-Serif" font-size="10.00" fill="grey">   Ns... &gt;</text>
</g>
<!-- Node5 -->
<g id="Node000005" class="node">
<title>Node5</title>
<g id="a_Node000005"><a xlink:href="../../dd/def/structmstd_1_1all__check.html" target="_top" xlink:title=" ">
<polygon fill="white" stroke="#666666" points="544.38,-318 436.88,-318 436.88,-274 544.38,-274 544.38,-318"/>
<text xml:space="preserve" text-anchor="start" x="444.88" y="-304.5" font-family="Helvetica,sans-Serif" font-size="10.00">mstd::all_check&lt; std</text>
<text xml:space="preserve" text-anchor="start" x="444.88" y="-292.5" font-family="Helvetica,sans-Serif" font-size="10.00">::is_floating_point,</text>
<text xml:space="preserve" text-anchor="middle" x="490.62" y="-280.5" font-family="Helvetica,sans-Serif" font-size="10.00"> Ns... &gt;</text>
</a>
</g>
</g>
<!-- Node1&#45;&gt;Node5 -->
<g id="edge4_Node000001_Node000005" class="edge">
<title>Node1&#45;&gt;Node5</title>
<g id="a_edge4_Node000001_Node000005"><a xlink:title=" ">
<path fill="none" stroke="orange" stroke-dasharray="5,2" d="M229.9,-218.07C244.47,-235.68 266.34,-258.12 291,-270 315.91,-282 386.5,-289.12 436.41,-292.8"/>
<polygon fill="orange" stroke="orange" points="232.88,-216.2 223.91,-210.57 227.41,-220.57 232.88,-216.2"/>
</a>
</g>
<text xml:space="preserve" text-anchor="start" x="316.5" y="-312.22" font-family="Helvetica,sans-Serif" font-size="10.00" fill="grey">&lt; std::is_floating</text>
<text xml:space="preserve" text-anchor="start" x="316.5" y="-296.22" font-family="Helvetica,sans-Serif" font-size="10.00" fill="grey">  _point, Ns... &gt;</text>
</g>
<!-- Node7 -->
<g id="Node000007" class="node">
<title>Node7</title>
<g id="a_Node000007"><a xlink:href="../../dd/def/structmstd_1_1all__check.html" target="_top" xlink:title=" ">
<polygon fill="white" stroke="#666666" points="544.38,-256 436.88,-256 436.88,-224 544.38,-224 544.38,-256"/>
<text xml:space="preserve" text-anchor="start" x="444.88" y="-242.5" font-family="Helvetica,sans-Serif" font-size="10.00">mstd::all_check&lt; std</text>
<text xml:space="preserve" text-anchor="middle" x="490.62" y="-230.5" font-family="Helvetica,sans-Serif" font-size="10.00">::is_integral, Ns... &gt;</text>
</a>
</g>
</g>
<!-- Node1&#45;&gt;Node7 -->
<g id="edge6_Node000001_Node000007" class="edge">
<title>Node1&#45;&gt;Node7</title>
<g id="a_edge6_Node000001_Node000007"><a xlink:title=" ">
<path fill="none" stroke="orange" stroke-dasharray="5,2" d="M281.37,-211.99C284.62,-212.71 287.84,-213.38 291,-214 339.97,-223.61 396.45,-230.62 436.64,-234.92"/>
<polygon fill="orange" stroke="orange" points="282.29,-208.61 271.76,-209.78 280.72,-215.43 282.29,-208.61"/>
</a>
</g>
<text xml:space="preserve" text-anchor="start" x="315" y="-253.84" font-family="Helvetica,sans-Serif" font-size="10.00" fill="grey">&lt; std::is_integral,</text>
<text xml:space="preserve" text-anchor="start" x="315" y="-237.84" font-family="Helvetica,sans-Serif" font-size="10.00" fill="grey">   Ns... &gt;</text>
</g>
<!-- Node9 -->
<g id="Node000009" class="node">
<title>Node9</title>
<g id="a_Node000009"><a xlink:href="../../dd/def/structmstd_1_1all__check.html" target="_top" xlink:title=" ">
<polygon fill="white" stroke="#666666" points="544.38,-206 436.88,-206 436.88,-174 544.38,-174 544.38,-206"/>
<text xml:space="preserve" text-anchor="start" x="444.88" y="-192.5" font-family="Helvetica,sans-Serif" font-size="10.00">mstd::all_check&lt; std</text>
<text xml:space="preserve" text-anchor="middle" x="490.62" y="-180.5" font-family="Helvetica,sans-Serif" font-size="10.00">::is_signed, Ns... &gt;</text>
</a>
</g>
</g>
<!-- Node1&#45;&gt;Node9 -->
<g id="edge8_Node000001_Node000009" class="edge">
<title>Node1&#45;&gt;Node9</title>
<g id="a_edge8_Node000001_Node000009"><a xlink:title=" ">
<path fill="none" stroke="orange" stroke-dasharray="5,2" d="M284.89,-192.21C332.6,-191.69 393.62,-191.03 436.59,-190.57"/>
<polygon fill="orange" stroke="orange" points="284.85,-188.71 274.89,-192.31 284.93,-195.71 284.85,-188.71"/>
</a>
</g>
<text xml:space="preserve" text-anchor="start" x="299.62" y="-197.61" font-family="Helvetica,sans-Serif" font-size="10.00" fill="grey">&lt; std::is_signed, Ns... &gt;</text>
</g>
<!-- Node11 -->
<g id="Node000011" class="node">
<title>Node11</title>
<g id="a_Node000011"><a xlink:href="../../dd/def/structmstd_1_1all__check.html" target="_top" xlink:title=" ">
<polygon fill="white" stroke="#666666" points="548.5,-156 432.75,-156 432.75,-112 548.5,-112 548.5,-156"/>
<text xml:space="preserve" text-anchor="start" x="440.75" y="-142.5" font-family="Helvetica,sans-Serif" font-size="10.00">mstd::all_check&lt; mstd</text>
<text xml:space="preserve" text-anchor="start" x="440.75" y="-130.5" font-family="Helvetica,sans-Serif" font-size="10.00">::is_signed_integral,</text>
<text xml:space="preserve" text-anchor="middle" x="490.62" y="-118.5" font-family="Helvetica,sans-Serif" font-size="10.00"> Ns... &gt;</text>
</a>
</g>
</g>
<!-- Node1&#45;&gt;Node11 -->
<g id="edge10_Node000001_Node000011" class="edge">
<title>Node1&#45;&gt;Node11</title>
<g id="a_edge10_Node000001_Node000011"><a xlink:title=" ">
<path fill="none" stroke="orange" stroke-dasharray="5,2" d="M247.96,-171.03C261.11,-164.13 276.32,-157.22 291,-153 337.44,-139.64 392.25,-135.2 432.51,-133.92"/>
<polygon fill="orange" stroke="orange" points="246.35,-167.92 239.24,-175.78 249.69,-174.07 246.35,-167.92"/>
</a>
</g>
<text xml:space="preserve" text-anchor="start" x="294" y="-174.5" font-family="Helvetica,sans-Serif" font-size="10.00" fill="grey">&lt; mstd::is_signed_integral,</text>
<text xml:space="preserve" text-anchor="start" x="294" y="-158.5" font-family="Helvetica,sans-Serif" font-size="10.00" fill="grey">   Ns... &gt;</text>
</g>
<!-- Node13 -->
<g id="Node000013" class="node">
<title>Node13</title>
<g id="a_Node000013"><a xlink:href="../../dd/def/structmstd_1_1all__check.html" target="_top" xlink:title=" ">
<polygon fill="white" stroke="#666666" points="545.88,-94 435.38,-94 435.38,-62 545.88,-62 545.88,-94"/>
<text xml:space="preserve" text-anchor="start" x="443.38" y="-80.5" font-family="Helvetica,sans-Serif" font-size="10.00">mstd::all_check&lt; std</text>
<text xml:space="preserve" text-anchor="middle" x="490.62" y="-68.5" font-family="Helvetica,sans-Serif" font-size="10.00">::is_unsigned, Ns... &gt;</text>
</a>
</g>
</g>
<!-- Node1&#45;&gt;Node13 -->
<g id="edge12_Node000001_Node000013" class="edge">
<title>Node1&#45;&gt;Node13</title>
<g id="a_edge12_Node000001_Node000013"><a xlink:title=" ">
<path fill="none" stroke="orange" stroke-dasharray="5,2" d="M225,-167.01C238.53,-144.32 261.43,-112.64 291,-97 335.4,-73.52 393.23,-70.54 435.02,-72.37"/>
<polygon fill="orange" stroke="orange" points="222.13,-164.98 220.21,-175.4 228.21,-168.46 222.13,-164.98"/>
</a>
</g>
<text xml:space="preserve" text-anchor="start" x="311.25" y="-118.5" font-family="Helvetica,sans-Serif" font-size="10.00" fill="grey">&lt; std::is_unsigned,</text>
<text xml:space="preserve" text-anchor="start" x="311.25" y="-102.5" font-family="Helvetica,sans-Serif" font-size="10.00" fill="grey">   Ns... &gt;</text>
</g>
<!-- Node15 -->
<g id="Node000015" class="node">
<title>Node15</title>
<g id="a_Node000015"><a xlink:href="../../dd/def/structmstd_1_1all__check.html" target="_top" xlink:title=" ">
<polygon fill="white" stroke="#666666" points="548.5,-44 432.75,-44 432.75,0 548.5,0 548.5,-44"/>
<text xml:space="preserve" text-anchor="start" x="440.75" y="-30.5" font-family="Helvetica,sans-Serif" font-size="10.00">mstd::all_check&lt; mstd</text>
<text xml:space="preserve" text-anchor="start" x="440.75" y="-18.5" font-family="Helvetica,sans-Serif" font-size="10.00">::is_unsigned_integral,</text>
<text xml:space="preserve" text-anchor="middle" x="490.62" y="-6.5" font-family="Helvetica,sans-Serif" font-size="10.00"> Ns... &gt;</text>
</a>
</g>
</g>
<!-- Node1&#45;&gt;Node15 -->
<g id="edge14_Node000001_Node000015" class="edge">
<title>Node1&#45;&gt;Node15</title>
<g id="a_edge14_Node000001_Node000015"><a xlink:title=" ">
<path fill="none" stroke="orange" stroke-dasharray="5,2" d="M216.27,-165.71C224.64,-128.81 245.29,-64.15 291,-34 332.53,-6.61 390.18,-6.24 432.68,-11.15"/>
<polygon fill="orange" stroke="orange" points="212.91,-164.65 214.27,-175.16 219.76,-166.1 212.91,-164.65"/>
</a>
</g>
<text xml:space="preserve" text-anchor="start" x="308.62" y="-55.5" font-family="Helvetica,sans-Serif" font-size="10.00" fill="grey">&lt; mstd::is_unsigned</text>
<text xml:space="preserve" text-anchor="start" x="308.62" y="-39.5" font-family="Helvetica,sans-Serif" font-size="10.00" fill="grey">  _integral, Ns... &gt;</text>
</g>
<!-- Node2 -->
<g id="Node000002" class="node">
<title>Node2</title>
<g id="a_Node000002"><a xlink:title=" ">
<polygon fill="white" stroke="#666666" points="110.5,-215 0,-215 0,-171 110.5,-171 110.5,-215"/>
<text xml:space="preserve" text-anchor="start" x="8" y="-201.5" font-family="Helvetica,sans-Serif" font-size="10.00">std::bool_constant</text>
<text xml:space="preserve" text-anchor="start" x="8" y="-189.5" font-family="Helvetica,sans-Serif" font-size="10.00">&lt;(Check&lt; Ts &gt;::value</text>
<text xml:space="preserve" text-anchor="middle" x="55.25" y="-177.5" font-family="Helvetica,sans-Serif" font-size="10.00"> &amp;&amp;...)&gt;</text>
</a>
</g>
</g>
<!-- Node2&#45;&gt;Node1 -->
<g id="edge1_Node000001_Node000002" class="edge">
<title>Node2&#45;&gt;Node1</title>
<g id="a_edge1_Node000001_Node000002"><a xlink:title=" ">
<path fill="none" stroke="#63b8ff" d="M121.92,-193C130.32,-193 138.89,-193 147.23,-193"/>
<polygon fill="#63b8ff" stroke="#63b8ff" points="122.14,-189.5 112.14,-193 122.14,-196.5 122.14,-189.5"/>
</a>
</g>
</g>
<!-- Node4 -->
<g id="Node000004" class="node">
<title>Node4</title>
<g id="a_Node000004"><a xlink:href="../../d6/dbb/structmstd_1_1are__arithmetic.html" target="_top" xlink:title=" ">
<polygon fill="white" stroke="#666666" points="704.62,-368 599.38,-368 599.38,-336 704.62,-336 704.62,-368"/>
<text xml:space="preserve" text-anchor="start" x="607.38" y="-354.5" font-family="Helvetica,sans-Serif" font-size="10.00">mstd::are_arithmetic</text>
<text xml:space="preserve" text-anchor="middle" x="652" y="-342.5" font-family="Helvetica,sans-Serif" font-size="10.00">&lt; Ns &gt;</text>
</a>
</g>
</g>
<!-- Node3&#45;&gt;Node4 -->
<g id="edge3_Node000003_Node000004" class="edge">
<title>Node3&#45;&gt;Node4</title>
<g id="a_edge3_Node000003_Node000004"><a xlink:title=" ">
<path fill="none" stroke="#63b8ff" d="M558.94,-352C572.35,-352 586.24,-352 599.05,-352"/>
<polygon fill="#63b8ff" stroke="#63b8ff" points="559.33,-348.5 549.33,-352 559.33,-355.5 559.33,-348.5"/>
</a>
</g>
</g>
<!-- Node6 -->
<g id="Node000006" class="node">
<title>Node6</title>
<g id="a_Node000006"><a xlink:href="../../d0/d76/structmstd_1_1are__floating__points.html" target="_top" xlink:title=" ">
<polygon fill="white" stroke="#666666" points="699,-312 605,-312 605,-280 699,-280 699,-312"/>
<text xml:space="preserve" text-anchor="start" x="613" y="-298.5" font-family="Helvetica,sans-Serif" font-size="10.00">mstd::are_floating</text>
<text xml:space="preserve" text-anchor="middle" x="652" y="-286.5" font-family="Helvetica,sans-Serif" font-size="10.00">_points&lt; Ns &gt;</text>
</a>
</g>
</g>
<!-- Node5&#45;&gt;Node6 -->
<g id="edge5_Node000005_Node000006" class="edge">
<title>Node5&#45;&gt;Node6</title>
<g id="a_edge5_Node000005_Node000006"><a xlink:title=" ">
<path fill="none" stroke="#63b8ff" d="M555.81,-296C572.12,-296 589.34,-296 604.58,-296"/>
<polygon fill="#63b8ff" stroke="#63b8ff" points="556.21,-292.5 546.21,-296 556.21,-299.5 556.21,-292.5"/>
</a>
</g>
</g>
<!-- Node8 -->
<g id="Node000008" class="node">
<title>Node8</title>
<g id="a_Node000008"><a xlink:href="../../d7/d43/structmstd_1_1are__integrals.html" target="_top" xlink:title=" ">
<polygon fill="white" stroke="#666666" points="701.62,-256 602.38,-256 602.38,-224 701.62,-224 701.62,-256"/>
<text xml:space="preserve" text-anchor="start" x="610.38" y="-242.5" font-family="Helvetica,sans-Serif" font-size="10.00">mstd::are_integrals</text>
<text xml:space="preserve" text-anchor="middle" x="652" y="-230.5" font-family="Helvetica,sans-Serif" font-size="10.00">&lt; Ns &gt;</text>
</a>
</g>
</g>
<!-- Node7&#45;&gt;Node8 -->
<g id="edge7_Node000007_Node000008" class="edge">
<title>Node7&#45;&gt;Node8</title>
<g id="a_edge7_Node000007_Node000008"><a xlink:title=" ">
<path fill="none" stroke="#63b8ff" d="M556.18,-240C571.44,-240 587.48,-240 601.93,-240"/>
<polygon fill="#63b8ff" stroke="#63b8ff" points="556.21,-236.5 546.21,-240 556.21,-243.5 556.21,-236.5"/>
</a>
</g>
</g>
<!-- Node10 -->
<g id="Node000010" class="node">
<title>Node10</title>
<g id="a_Node000010"><a xlink:href="../../da/d8d/structmstd_1_1are__signed.html" target="_top" xlink:title=" ">
<polygon fill="white" stroke="#666666" points="712.88,-200 591.12,-200 591.12,-180 712.88,-180 712.88,-200"/>
<text xml:space="preserve" text-anchor="middle" x="652" y="-186.5" font-family="Helvetica,sans-Serif" font-size="10.00">mstd::are_signed&lt; Ns &gt;</text>
</a>
</g>
</g>
<!-- Node9&#45;&gt;Node10 -->
<g id="edge9_Node000009_Node000010" class="edge">
<title>Node9&#45;&gt;Node10</title>
<g id="a_edge9_Node000009_Node000010"><a xlink:title=" ">
<path fill="none" stroke="#63b8ff" d="M555.99,-190C567.46,-190 579.38,-190 590.73,-190"/>
<polygon fill="#63b8ff" stroke="#63b8ff" points="556.21,-186.5 546.21,-190 556.21,-193.5 556.21,-186.5"/>
</a>
</g>
</g>
<!-- Node12 -->
<g id="Node000012" class="node">
<title>Node12</title>
<g id="a_Node000012"><a xlink:href="../../d1/d7d/structmstd_1_1are__signed__integrals.html" target="_top" xlink:title=" ">
<polygon fill="white" stroke="#666666" points="718.5,-150 585.5,-150 585.5,-118 718.5,-118 718.5,-150"/>
<text xml:space="preserve" text-anchor="start" x="593.5" y="-136.5" font-family="Helvetica,sans-Serif" font-size="10.00">mstd::are_signed_integrals</text>
<text xml:space="preserve" text-anchor="middle" x="652" y="-124.5" font-family="Helvetica,sans-Serif" font-size="10.00">&lt; Ns &gt;</text>
</a>
</g>
</g>
<!-- Node11&#45;&gt;Node12 -->
<g id="edge11_Node000011_Node000012" class="edge">
<title>Node11&#45;&gt;Node12</title>
<g id="a_edge11_Node000011_Node000012"><a xlink:title=" ">
<path fill="none" stroke="#63b8ff" d="M560.23,-134C568.47,-134 576.88,-134 585.09,-134"/>
<polygon fill="#63b8ff" stroke="#63b8ff" points="560.23,-130.5 550.23,-134 560.23,-137.5 560.23,-130.5"/>
</a>
</g>
</g>
<!-- Node14 -->
<g id="Node000014" class="node">
<title>Node14</title>
<g id="a_Node000014"><a xlink:href="../../dc/d2d/structmstd_1_1are__unsigned.html" target="_top" xlink:title=" ">
<polygon fill="white" stroke="#666666" points="702.75,-94 601.25,-94 601.25,-62 702.75,-62 702.75,-94"/>
<text xml:space="preserve" text-anchor="start" x="609.25" y="-80.5" font-family="Helvetica,sans-Serif" font-size="10.00">mstd::are_unsigned</text>
<text xml:space="preserve" text-anchor="middle" x="652" y="-68.5" font-family="Helvetica,sans-Serif" font-size="10.00">&lt; Ns &gt;</text>
</a>
</g>
</g>
<!-- Node13&#45;&gt;Node14 -->
<g id="edge13_Node000013_Node000014" class="edge">
<title>Node13&#45;&gt;Node14</title>
<g id="a_edge13_Node000013_Node000014"><a xlink:title=" ">
<path fill="none" stroke="#63b8ff" d="M557.48,-78C571.98,-78 587.1,-78 600.86,-78"/>
<polygon fill="#63b8ff" stroke="#63b8ff" points="557.54,-74.5 547.54,-78 557.54,-81.5 557.54,-74.5"/>
</a>
</g>
</g>
<!-- Node16 -->
<g id="Node000016" class="node">
<title>Node16</title>
<g id="a_Node000016"><a xlink:href="../../d5/d54/structmstd_1_1are__unsigned__integrals.html" target="_top" xlink:title=" ">
<polygon fill="white" stroke="#666666" points="702.75,-38 601.25,-38 601.25,-6 702.75,-6 702.75,-38"/>
<text xml:space="preserve" text-anchor="start" x="609.25" y="-24.5" font-family="Helvetica,sans-Serif" font-size="10.00">mstd::are_unsigned</text>
<text xml:space="preserve" text-anchor="middle" x="652" y="-12.5" font-family="Helvetica,sans-Serif" font-size="10.00">_integrals&lt; Ns &gt;</text>
</a>
</g>
</g>
<!-- Node15&#45;&gt;Node16 -->
<g id="edge15_Node000015_Node000016" class="edge">
<title>Node15&#45;&gt;Node16</title>
<g id="a_edge15_Node000015_Node000016"><a xlink:title=" ">
<path fill="none" stroke="#63b8ff" d="M560.09,-22C573.8,-22 587.96,-22 600.91,-22"/>
<polygon fill="#63b8ff" stroke="#63b8ff" points="560.23,-18.5 550.23,-22 560.23,-25.5 560.23,-18.5"/>
</a>
</g>
</g>
</g>
</svg>

<g id="navigator" transform="translate(0 0)" fill="#404254">
  <rect fill="#f2f5e9" fill-opacity="0.5" stroke="#606060" stroke-width=".5" x="0" y="0" width="60" height="60"/>
  <use id="zoomplus" xlink:href="#zoomPlus" x="17" y="9" onmousedown="handleZoom(evt,'in')"/>
  <use id="zoomminus" xlink:href="#zoomMin" x="42" y="9" onmousedown="handleZoom(evt,'out')"/>
  <use id="reset" xlink:href="#resetDef" x="30" y="36" onmousedown="handleReset()"/>
   <use id="arrowup" xlink:href="#arrowUp" x="0" y="0" onmousedown="handlePan(0,-1)"/>
  <use id="arrowright" xlink:href="#arrowRight" x="0" y="0" onmousedown="handlePan(1,0)"/>
  <use id="arrowdown" xlink:href="#arrowDown" x="0" y="0" onmousedown="handlePan(0,1)"/>
  <use id="arrowleft" xlink:href="#arrowLeft" x="0" y="0" onmousedown="handlePan(-1,0)"/>
</g>
<svg viewBox="0 0 15 15" width="100%" height="30px" preserveAspectRatio="xMaxYMin meet">
 <g id="arrow_out" transform="scale(0.3 0.3)">
  <a xlink:href="structmstd_1_1all__check__inherit__graph_org.svg" target="_base">
   <rect id="button" ry="5" rx="5" y="6" x="6" height="38" width="38"
        fill="#f2f5e9" fill-opacity="0.5" stroke="#606060" stroke-width="1.0"/>
   <path id="arrow"
     d="M 11.500037,31.436501 C 11.940474,20.09759 22.043105,11.32322 32.158766,21.979434 L 37.068811,17.246167 C 37.068811,17.246167 37.088388,32 37.088388,32 L 22.160133,31.978069 C 22.160133,31.978069 26.997745,27.140456 26.997745,27.140456 C 18.528582,18.264221 13.291696,25.230495 11.500037,31.436501 z"
     style="fill:#404040;"/>
  </a>
 </g>
</svg>

<style type='text/css'>
<![CDATA[
[data-mouse-over-selected='false'] { opacity: 0.7; }
[data-mouse-over-selected='true']  { opacity: 1.0; }
]]>
</style>
<script type="application/ecmascript"><![CDATA[
document.addEventListener('DOMContentLoaded', (event) => {
  highlightEdges();
  highlightAdjacentNodes();
});
]]></script>
</svg>
