<?xml version="1.0" encoding="UTF-8" standalone="no"?>
<!DOCTYPE svg PUBLIC "-//W3C//DTD SVG 1.1//EN"
 "http://www.w3.org/Graphics/SVG/1.1/DTD/svg11.dtd">
<!-- Generated by graphviz version 14.1.1 (20251213.1925)
 -->
<!-- Title: mstd::function_traits&lt; R(C::*)(Args...) const &amp; &gt; Pages: 1 -->
<svg width="1415pt" height="376pt"
 viewBox="0.00 0.00 1415.00 376.00" xmlns="http://www.w3.org/2000/svg" xmlns:xlink="http://www.w3.org/1999/xlink">
<g id="graph0" class="graph" transform="scale(1 1) rotate(0) translate(4 371.7)">
<title>mstd::function_traits&lt; R(C::*)(Args...) const &amp; &gt;</title>
<!-- Node1 -->
<g id="Node000001" class="node">
<title>Node1</title>
<g id="a_Node000001"><a xlink:title=" ">
<polygon fill="#999999" stroke="#666666" points="1407,-100.06 1270.25,-100.06 1270.25,-68.06 1407,-68.06 1407,-100.06"/>
<text xml:space="preserve" text-anchor="start" x="1278.25" y="-86.56" font-family="Helvetica,sans-Serif" font-size="10.00">mstd::function_traits</text>
<text xml:space="preserve" text-anchor="middle" x="1338.62" y="-74.56" font-family="Helvetica,sans-Serif" font-size="10.00">&lt; R(C::*)(Args...) const &amp; &gt;</text>
</a>
</g>
</g>
<!-- Node2 -->
<g id="Node000002" class="node">
<title>Node2</title>
<g id="a_Node000002"><a xlink:href="../../d0/d74/structmstd_1_1utils_1_1function__default__type__traits.html" target="_top" xlink:title=" ">
<polygon fill="white" stroke="#666666" points="317,-233.06 214.75,-233.06 214.75,-189.06 317,-189.06 317,-233.06"/>
<text xml:space="preserve" text-anchor="start" x="222.75" y="-219.56" font-family="Helvetica,sans-Serif" font-size="10.00">mstd::utils::function</text>
<text xml:space="preserve" text-anchor="start" x="222.75" y="-207.56" font-family="Helvetica,sans-Serif" font-size="10.00">_default_type_traits</text>
<text xml:space="preserve" text-anchor="middle" x="265.88" y="-195.56" font-family="Helvetica,sans-Serif" font-size="10.00">&lt; false &gt;</text>
</a>
</g>
</g>
<!-- Node2&#45;&gt;Node1 -->
<g id="edge1_Node000001_Node000002" class="edge">
<title>Node2&#45;&gt;Node1</title>
<g id="a_edge1_Node000001_Node000002"><a xlink:title=" ">
<path fill="none" stroke="#63b8ff" d="M275.25,-177.85C285.89,-142.37 307.69,-86.96 346.25,-55.06 413.95,0.93 448.27,-0.06 536.12,-0.06 536.12,-0.06 536.12,-0.06 1170.75,-0.06 1230.43,-0.06 1290.53,-43.46 1319.61,-67.87"/>
<polygon fill="#63b8ff" stroke="#63b8ff" points="271.97,-176.58 272.59,-187.15 278.7,-178.5 271.97,-176.58"/>
</a>
</g>
</g>
<!-- Node4 -->
<g id="Node000004" class="node">
<title>Node4</title>
<g id="a_Node000004"><a xlink:href="../../d1/d31/structmstd_1_1function__traits_3_01_r_07_args_8_8_8_08_01const_01_6_00_01_c_01_4.html" target="_top" xlink:title=" ">
<polygon fill="white" stroke="#666666" points="1233.25,-153.06 1106.25,-153.06 1106.25,-121.06 1233.25,-121.06 1233.25,-153.06"/>
<text xml:space="preserve" text-anchor="start" x="1114.25" y="-139.56" font-family="Helvetica,sans-Serif" font-size="10.00">mstd::function_traits</text>
<text xml:space="preserve" text-anchor="middle" x="1169.75" y="-127.56" font-family="Helvetica,sans-Serif" font-size="10.00">&lt; R(Args...) const &amp;, C &gt;</text>
</a>
</g>
</g>
<!-- Node2&#45;&gt;Node4 -->
<g id="edge4_Node000004_Node000002" class="edge">
<title>Node2&#45;&gt;Node4</title>
<g id="a_edge4_Node000004_Node000002"><a xlink:title=" ">
<path fill="none" stroke="#63b8ff" d="M292.19,-180.34C336.18,-130.63 432.08,-38.06 536.12,-38.06 536.12,-38.06 536.12,-38.06 1011.62,-38.06 1072.88,-38.06 1129.76,-92.6 1155.02,-120.71"/>
<polygon fill="#63b8ff" stroke="#63b8ff" points="289.74,-177.81 285.82,-187.66 295.03,-182.41 289.74,-177.81"/>
</a>
</g>
</g>
<!-- Node5 -->
<g id="Node000005" class="node">
<title>Node5</title>
<g id="a_Node000005"><a xlink:href="../../df/d15/structmstd_1_1function__traits_3_01_r_07_args_8_8_8_08_01const_00_01_c_01_4.html" target="_top" xlink:title=" ">
<polygon fill="white" stroke="#666666" points="1069.25,-231.06 952,-231.06 952,-199.06 1069.25,-199.06 1069.25,-231.06"/>
<text xml:space="preserve" text-anchor="start" x="960" y="-217.56" font-family="Helvetica,sans-Serif" font-size="10.00">mstd::function_traits</text>
<text xml:space="preserve" text-anchor="middle" x="1010.62" y="-205.56" font-family="Helvetica,sans-Serif" font-size="10.00">&lt; R(Args...) const, C &gt;</text>
</a>
</g>
</g>
<!-- Node2&#45;&gt;Node5 -->
<g id="edge6_Node000005_Node000002" class="edge">
<title>Node2&#45;&gt;Node5</title>
<g id="a_edge6_Node000005_Node000002"><a xlink:title=" ">
<path fill="none" stroke="#63b8ff" d="M328.76,-211.4C469.91,-212.16 814.05,-214.01 951.51,-214.75"/>
<polygon fill="#63b8ff" stroke="#63b8ff" points="328.88,-207.9 318.86,-211.34 328.84,-214.9 328.88,-207.9"/>
</a>
</g>
</g>
<!-- Node6 -->
<g id="Node000006" class="node">
<title>Node6</title>
<g id="a_Node000006"><a xlink:href="../../dd/db6/structmstd_1_1function__traits_3_01_r_07_args_8_8_8_08_00_01_c_01_4.html" target="_top" xlink:title=" ">
<polygon fill="white" stroke="#666666" points="830.25,-286.06 725,-286.06 725,-254.06 830.25,-254.06 830.25,-286.06"/>
<text xml:space="preserve" text-anchor="start" x="733" y="-272.56" font-family="Helvetica,sans-Serif" font-size="10.00">mstd::function_traits</text>
<text xml:space="preserve" text-anchor="middle" x="777.62" y="-260.56" font-family="Helvetica,sans-Serif" font-size="10.00">&lt; R(Args...), C &gt;</text>
</a>
</g>
</g>
<!-- Node2&#45;&gt;Node6 -->
<g id="edge8_Node000006_Node000002" class="edge">
<title>Node2&#45;&gt;Node6</title>
<g id="a_edge8_Node000006_Node000002"><a xlink:title=" ">
<path fill="none" stroke="#63b8ff" d="M328.2,-229.26C334.27,-230.7 340.36,-232 346.25,-233.06 481.32,-257.37 643.2,-265.83 724.55,-268.68"/>
<polygon fill="#63b8ff" stroke="#63b8ff" points="329.38,-225.95 318.83,-226.92 327.69,-232.74 329.38,-225.95"/>
</a>
</g>
</g>
<!-- Node11 -->
<g id="Node000011" class="node">
<title>Node11</title>
<g id="a_Node000011"><a xlink:href="../../d7/dcb/structmstd_1_1function__traits.html" target="_top" xlink:title=" ">
<polygon fill="white" stroke="#666666" points="589.75,-176.06 484.5,-176.06 484.5,-144.06 589.75,-144.06 589.75,-176.06"/>
<text xml:space="preserve" text-anchor="start" x="492.5" y="-162.56" font-family="Helvetica,sans-Serif" font-size="10.00">mstd::function_traits</text>
<text xml:space="preserve" text-anchor="middle" x="537.12" y="-150.56" font-family="Helvetica,sans-Serif" font-size="10.00">&lt; F, C &gt;</text>
</a>
</g>
</g>
<!-- Node2&#45;&gt;Node11 -->
<g id="edge16_Node000011_Node000002" class="edge">
<title>Node2&#45;&gt;Node11</title>
<g id="a_edge16_Node000011_Node000002"><a xlink:title=" ">
<path fill="none" stroke="#63b8ff" d="M328.48,-199.39C375.56,-190.48 439.72,-178.32 484.21,-169.9"/>
<polygon fill="#63b8ff" stroke="#63b8ff" points="327.86,-195.95 318.69,-201.25 329.17,-202.83 327.86,-195.95"/>
</a>
</g>
</g>
<!-- Node3 -->
<g id="Node000003" class="node">
<title>Node3</title>
<g id="a_Node000003"><a xlink:href="../../d0/d74/structmstd_1_1utils_1_1function__default__type__traits.html" target="_top" xlink:title=" ">
<polygon fill="white" stroke="#666666" points="103,-287.06 0.75,-287.06 0.75,-243.06 103,-243.06 103,-287.06"/>
<text xml:space="preserve" text-anchor="start" x="8.75" y="-273.56" font-family="Helvetica,sans-Serif" font-size="10.00">mstd::utils::function</text>
<text xml:space="preserve" text-anchor="start" x="8.75" y="-261.56" font-family="Helvetica,sans-Serif" font-size="10.00">_default_type_traits</text>
<text xml:space="preserve" text-anchor="middle" x="51.88" y="-249.56" font-family="Helvetica,sans-Serif" font-size="10.00">&lt; IsMember &gt;</text>
</a>
</g>
</g>
<!-- Node3&#45;&gt;Node2 -->
<g id="edge2_Node000002_Node000003" class="edge">
<title>Node3&#45;&gt;Node2</title>
<g id="a_edge2_Node000002_Node000003"><a xlink:title=" ">
<path fill="none" stroke="orange" stroke-dasharray="5,2" d="M99.94,-237.69C107.07,-234.36 114.48,-231.34 121.75,-229.06 151.63,-219.71 186.45,-215.2 214.27,-213.03"/>
<polygon fill="orange" stroke="orange" points="98.5,-234.49 91.08,-242.06 101.6,-240.77 98.5,-234.49"/>
</a>
</g>
<text xml:space="preserve" text-anchor="start" x="134.12" y="-234.56" font-family="Helvetica,sans-Serif" font-size="10.00" fill="grey">&lt; false &gt;</text>
</g>
<!-- Node10 -->
<g id="Node000010" class="node">
<title>Node10</title>
<g id="a_Node000010"><a xlink:href="../../d0/d74/structmstd_1_1utils_1_1function__default__type__traits.html" target="_top" xlink:title=" ">
<polygon fill="white" stroke="#666666" points="448.5,-316.06 346.25,-316.06 346.25,-272.06 448.5,-272.06 448.5,-316.06"/>
<text xml:space="preserve" text-anchor="start" x="354.25" y="-302.56" font-family="Helvetica,sans-Serif" font-size="10.00">mstd::utils::function</text>
<text xml:space="preserve" text-anchor="start" x="354.25" y="-290.56" font-family="Helvetica,sans-Serif" font-size="10.00">_default_type_traits</text>
<text xml:space="preserve" text-anchor="middle" x="397.38" y="-278.56" font-family="Helvetica,sans-Serif" font-size="10.00">&lt; true &gt;</text>
</a>
</g>
</g>
<!-- Node3&#45;&gt;Node10 -->
<g id="edge14_Node000010_Node000003" class="edge">
<title>Node3&#45;&gt;Node10</title>
<g id="a_edge14_Node000010_Node000003"><a xlink:title=" ">
<path fill="none" stroke="orange" stroke-dasharray="5,2" d="M114.27,-270.25C180.4,-275.83 284.38,-284.61 345.92,-289.8"/>
<polygon fill="orange" stroke="orange" points="114.96,-266.79 104.7,-269.44 114.37,-273.77 114.96,-266.79"/>
</a>
</g>
<text xml:space="preserve" text-anchor="start" x="136.38" y="-281.37" font-family="Helvetica,sans-Serif" font-size="10.00" fill="grey">&lt; true &gt;</text>
</g>
<!-- Node4&#45;&gt;Node1 -->
<g id="edge3_Node000001_Node000004" class="edge">
<title>Node4&#45;&gt;Node1</title>
<g id="a_edge3_Node000001_Node000004"><a xlink:title=" ">
<path fill="none" stroke="#63b8ff" d="M1233.22,-117.22C1250.53,-111.72 1269.14,-105.81 1285.77,-100.53"/>
<polygon fill="#63b8ff" stroke="#63b8ff" points="1232.55,-113.76 1224.08,-120.13 1234.67,-120.43 1232.55,-113.76"/>
</a>
</g>
</g>
<!-- Node5&#45;&gt;Node4 -->
<g id="edge5_Node000004_Node000005" class="edge">
<title>Node5&#45;&gt;Node4</title>
<g id="a_edge5_Node000004_Node000005"><a xlink:title=" ">
<path fill="none" stroke="#63b8ff" d="M1054.71,-193.67C1080.22,-181.01 1112.04,-165.21 1135.58,-153.53"/>
<polygon fill="#63b8ff" stroke="#63b8ff" points="1053.32,-190.46 1045.92,-198.04 1056.43,-196.73 1053.32,-190.46"/>
</a>
</g>
</g>
<!-- Node6&#45;&gt;Node5 -->
<g id="edge7_Node000005_Node000006" class="edge">
<title>Node6&#45;&gt;Node5</title>
<g id="a_edge7_Node000005_Node000006"><a xlink:title=" ">
<path fill="none" stroke="#63b8ff" d="M841.45,-259.83C869.9,-254.71 903.84,-247.92 934,-240.06 943.5,-237.59 953.55,-234.56 963.11,-231.48"/>
<polygon fill="#63b8ff" stroke="#63b8ff" points="841.16,-256.32 831.93,-261.51 842.38,-263.22 841.16,-256.32"/>
</a>
</g>
</g>
<!-- Node7 -->
<g id="Node000007" class="node">
<title>Node7</title>
<g id="a_Node000007"><a xlink:href="../../d1/d4f/structmstd_1_1utils_1_1function__core__traits_3_01_r_07_args_8_8_8_08_00_01_c_01_4.html" target="_top" xlink:title=" ">
<polygon fill="white" stroke="#666666" points="607.75,-355.06 466.5,-355.06 466.5,-323.06 607.75,-323.06 607.75,-355.06"/>
<text xml:space="preserve" text-anchor="start" x="474.5" y="-341.56" font-family="Helvetica,sans-Serif" font-size="10.00">mstd::utils::function</text>
<text xml:space="preserve" text-anchor="middle" x="537.12" y="-329.56" font-family="Helvetica,sans-Serif" font-size="10.00">_core_traits&lt; R(Args...), C &gt;</text>
</a>
</g>
</g>
<!-- Node7&#45;&gt;Node6 -->
<g id="edge9_Node000006_Node000007" class="edge">
<title>Node7&#45;&gt;Node6</title>
<g id="a_edge9_Node000006_Node000007"><a xlink:title=" ">
<path fill="none" stroke="#63b8ff" d="M619.41,-330.02C647.37,-325.49 678.53,-318.8 706,-309.06 721.97,-303.4 738.63,-294.38 751.75,-286.44"/>
<polygon fill="#63b8ff" stroke="#63b8ff" points="618.9,-326.56 609.55,-331.55 619.97,-333.48 618.9,-326.56"/>
</a>
</g>
</g>
<!-- Node8 -->
<g id="Node000008" class="node">
<title>Node8</title>
<g id="a_Node000008"><a xlink:href="../../df/db9/structmstd_1_1utils_1_1function__core__traits.html" target="_top" xlink:title=" ">
<polygon fill="white" stroke="#666666" points="328.25,-332.06 203.5,-332.06 203.5,-300.06 328.25,-300.06 328.25,-332.06"/>
<text xml:space="preserve" text-anchor="start" x="211.5" y="-318.56" font-family="Helvetica,sans-Serif" font-size="10.00">mstd::utils::function</text>
<text xml:space="preserve" text-anchor="middle" x="265.88" y="-306.56" font-family="Helvetica,sans-Serif" font-size="10.00">_core_traits&lt; R(Args...)&gt;</text>
</a>
</g>
</g>
<!-- Node8&#45;&gt;Node7 -->
<g id="edge10_Node000007_Node000008" class="edge">
<title>Node8&#45;&gt;Node7</title>
<g id="a_edge10_Node000007_Node000008"><a xlink:title=" ">
<path fill="none" stroke="#63b8ff" d="M339.99,-322.31C379.22,-325.66 427.34,-329.77 466.1,-333.08"/>
<polygon fill="#63b8ff" stroke="#63b8ff" points="340.42,-318.83 330.15,-321.47 339.82,-325.81 340.42,-318.83"/>
</a>
</g>
</g>
<!-- Node9 -->
<g id="Node000009" class="node">
<title>Node9</title>
<g id="a_Node000009"><a xlink:href="../../df/db9/structmstd_1_1utils_1_1function__core__traits.html" target="_top" xlink:title=" ">
<polygon fill="white" stroke="#666666" points="103.75,-351.06 0,-351.06 0,-319.06 103.75,-319.06 103.75,-351.06"/>
<text xml:space="preserve" text-anchor="start" x="8" y="-337.56" font-family="Helvetica,sans-Serif" font-size="10.00">mstd::utils::function</text>
<text xml:space="preserve" text-anchor="middle" x="51.88" y="-325.56" font-family="Helvetica,sans-Serif" font-size="10.00">_core_traits&lt; F, C &gt;</text>
</a>
</g>
</g>
<!-- Node9&#45;&gt;Node7 -->
<g id="edge12_Node000007_Node000009" class="edge">
<title>Node9&#45;&gt;Node7</title>
<g id="a_edge12_Node000007_Node000009"><a xlink:title=" ">
<path fill="none" stroke="orange" stroke-dasharray="5,2" d="M115.51,-349.3C117.61,-349.58 119.69,-349.84 121.75,-350.06 149.92,-353.09 157.17,-350.51 185.5,-350.06 282.93,-348.53 395.54,-344.62 466.29,-341.9"/>
<polygon fill="orange" stroke="orange" points="116.12,-345.85 105.7,-347.74 115.03,-352.76 116.12,-345.85"/>
</a>
</g>
<text xml:space="preserve" text-anchor="start" x="228.75" y="-355.2" font-family="Helvetica,sans-Serif" font-size="10.00" fill="grey">&lt; R(Args...), C &gt;</text>
</g>
<!-- Node9&#45;&gt;Node8 -->
<g id="edge11_Node000008_Node000009" class="edge">
<title>Node9&#45;&gt;Node8</title>
<g id="a_edge11_Node000008_Node000009"><a xlink:title=" ">
<path fill="none" stroke="orange" stroke-dasharray="5,2" d="M115.34,-329.46C143.01,-326.98 175.48,-324.07 203.08,-321.6"/>
<polygon fill="orange" stroke="orange" points="115.35,-325.95 105.7,-330.33 115.97,-332.92 115.35,-325.95"/>
</a>
</g>
<text xml:space="preserve" text-anchor="start" x="124.75" y="-333.87" font-family="Helvetica,sans-Serif" font-size="10.00" fill="grey">&lt; R(Args...)&gt;</text>
</g>
<!-- Node10&#45;&gt;Node6 -->
<g id="edge13_Node000006_Node000010" class="edge">
<title>Node10&#45;&gt;Node6</title>
<g id="a_edge13_Node000006_Node000010"><a xlink:title=" ">
<path fill="none" stroke="#63b8ff" d="M460.4,-290.13C534.14,-285.45 655.85,-277.73 724.79,-273.35"/>
<polygon fill="#63b8ff" stroke="#63b8ff" points="460.26,-286.63 450.51,-290.75 460.71,-293.61 460.26,-286.63"/>
</a>
</g>
</g>
<!-- Node11&#45;&gt;Node1 -->
<g id="edge19_Node000001_Node000011" class="edge">
<title>Node11&#45;&gt;Node1</title>
<g id="a_edge19_Node000001_Node000011"><a xlink:title=" ">
<path fill="none" stroke="orange" stroke-dasharray="5,2" d="M579.03,-138.51C625.56,-116.04 704.46,-84.06 776.62,-84.06 776.62,-84.06 776.62,-84.06 1170.75,-84.06 1203.34,-84.06 1239.52,-84.06 1269.83,-84.06"/>
<polygon fill="orange" stroke="orange" points="577.54,-135.34 570.12,-142.9 580.64,-141.62 577.54,-135.34"/>
</a>
</g>
<text xml:space="preserve" text-anchor="start" x="973.12" y="-105.56" font-family="Helvetica,sans-Serif" font-size="10.00" fill="grey">&lt; R(C::*)(Args...)</text>
<text xml:space="preserve" text-anchor="start" x="973.12" y="-89.56" font-family="Helvetica,sans-Serif" font-size="10.00" fill="grey">   const &amp; &gt;</text>
</g>
<!-- Node11&#45;&gt;Node4 -->
<g id="edge18_Node000004_Node000011" class="edge">
<title>Node11&#45;&gt;Node4</title>
<g id="a_edge18_Node000004_Node000011"><a xlink:title=" ">
<path fill="none" stroke="orange" stroke-dasharray="5,2" d="M601.25,-157.76C722.17,-153.35 985.16,-143.76 1105.88,-139.36"/>
<polygon fill="orange" stroke="orange" points="601.38,-154.25 591.51,-158.12 601.63,-161.25 601.38,-154.25"/>
</a>
</g>
<text xml:space="preserve" text-anchor="start" x="852.25" y="-170.19" font-family="Helvetica,sans-Serif" font-size="10.00" fill="grey">&lt; R(Args...) const</text>
<text xml:space="preserve" text-anchor="start" x="852.25" y="-154.19" font-family="Helvetica,sans-Serif" font-size="10.00" fill="grey">   &amp;, C &gt;</text>
</g>
<!-- Node11&#45;&gt;Node5 -->
<g id="edge17_Node000005_Node000011" class="edge">
<title>Node11&#45;&gt;Node5</title>
<g id="a_edge17_Node000005_Node000011"><a xlink:title=" ">
<path fill="none" stroke="orange" stroke-dasharray="5,2" d="M601.46,-167.38C660.83,-174.24 752.06,-184.81 831.25,-194.06 871.51,-198.77 916.88,-204.11 951.79,-208.23"/>
<polygon fill="orange" stroke="orange" points="601.86,-163.9 591.52,-166.23 601.05,-170.85 601.86,-163.9"/>
</a>
</g>
<text xml:space="preserve" text-anchor="start" x="727" y="-199.56" font-family="Helvetica,sans-Serif" font-size="10.00" fill="grey">&lt; R(Args...) const, C &gt;</text>
</g>
<!-- Node11&#45;&gt;Node6 -->
<g id="edge15_Node000006_Node000011" class="edge">
<title>Node11&#45;&gt;Node6</title>
<g id="a_edge15_Node000006_Node000011"><a xlink:title=" ">
<path fill="none" stroke="orange" stroke-dasharray="5,2" d="M598.78,-180.26C631.26,-191.89 671.55,-207.63 706,-225.06 722.48,-233.4 739.99,-244.54 753.45,-253.65"/>
<polygon fill="orange" stroke="orange" points="600.11,-177.02 589.51,-176.99 597.77,-183.62 600.11,-177.02"/>
</a>
</g>
<text xml:space="preserve" text-anchor="start" x="628.75" y="-230.56" font-family="Helvetica,sans-Serif" font-size="10.00" fill="grey">&lt; R(Args...), C &gt;</text>
</g>
</g>
</svg>
