<?xml version="1.0" encoding="UTF-8" standalone="no"?>
<!DOCTYPE svg PUBLIC "-//W3C//DTD SVG 1.1//EN"
 "http://www.w3.org/Graphics/SVG/1.1/DTD/svg11.dtd">
<!-- Generated by graphviz version 14.1.1 (20251213.1925)
 -->
<!-- Title: mstd::function_traits&lt; R(Args...) noexcept, C &gt; Pages: 1 -->
<svg width="1253pt" height="639pt"
 viewBox="0.00 0.00 1253.00 639.00" xmlns="http://www.w3.org/2000/svg" xmlns:xlink="http://www.w3.org/1999/xlink">
<g id="graph0" class="graph" transform="scale(1 1) rotate(0) translate(4 635)">
<title>mstd::function_traits&lt; R(Args...) noexcept, C &gt;</title>
<!-- Node1 -->
<g id="Node000001" class="node">
<title>Node1</title>
<g id="a_Node000001"><a xlink:title=" ">
<polygon fill="#999999" stroke="#666666" points="1245,-434 1112,-434 1112,-402 1245,-402 1245,-434"/>
<text xml:space="preserve" text-anchor="start" x="1120" y="-420.5" font-family="Helvetica,sans-Serif" font-size="10.00">mstd::function_traits</text>
<text xml:space="preserve" text-anchor="middle" x="1178.5" y="-408.5" font-family="Helvetica,sans-Serif" font-size="10.00">&lt; R(Args...) noexcept, C &gt;</text>
</a>
</g>
</g>
<!-- Node2 -->
<g id="Node000002" class="node">
<title>Node2</title>
<g id="a_Node000002"><a xlink:href="../../d0/d74/structmstd_1_1utils_1_1function__default__type__traits.html" target="_top" xlink:title=" ">
<polygon fill="white" stroke="#666666" points="588.75,-391 486.5,-391 486.5,-347 588.75,-347 588.75,-391"/>
<text xml:space="preserve" text-anchor="start" x="494.5" y="-377.5" font-family="Helvetica,sans-Serif" font-size="10.00">mstd::utils::function</text>
<text xml:space="preserve" text-anchor="start" x="494.5" y="-365.5" font-family="Helvetica,sans-Serif" font-size="10.00">_default_type_traits</text>
<text xml:space="preserve" text-anchor="middle" x="537.62" y="-353.5" font-family="Helvetica,sans-Serif" font-size="10.00">&lt; false &gt;</text>
</a>
</g>
</g>
<!-- Node2&#45;&gt;Node1 -->
<g id="edge1_Node000001_Node000002" class="edge">
<title>Node2&#45;&gt;Node1</title>
<g id="a_edge1_Node000001_Node000002"><a xlink:title=" ">
<path fill="none" stroke="#63b8ff" d="M599.95,-352.46C701.57,-328.04 909.99,-290.66 1075,-344 1110.09,-355.34 1143.26,-383.67 1161.93,-401.8"/>
<polygon fill="#63b8ff" stroke="#63b8ff" points="599.34,-349.01 590.45,-354.79 601,-355.81 599.34,-349.01"/>
</a>
</g>
</g>
<!-- Node5 -->
<g id="Node000005" class="node">
<title>Node5</title>
<g id="a_Node000005"><a xlink:href="../../dd/db6/structmstd_1_1function__traits_3_01_r_07_args_8_8_8_08_00_01_c_01_4.html" target="_top" xlink:title=" ">
<polygon fill="white" stroke="#666666" points="1066.12,-385 960.88,-385 960.88,-353 1066.12,-353 1066.12,-385"/>
<text xml:space="preserve" text-anchor="start" x="968.88" y="-371.5" font-family="Helvetica,sans-Serif" font-size="10.00">mstd::function_traits</text>
<text xml:space="preserve" text-anchor="middle" x="1013.5" y="-359.5" font-family="Helvetica,sans-Serif" font-size="10.00">&lt; R(Args...), C &gt;</text>
</a>
</g>
</g>
<!-- Node2&#45;&gt;Node5 -->
<g id="edge6_Node000005_Node000002" class="edge">
<title>Node2&#45;&gt;Node5</title>
<g id="a_edge6_Node000005_Node000002"><a xlink:title=" ">
<path fill="none" stroke="#63b8ff" d="M600.23,-369C694.42,-369 872.58,-369 960.6,-369"/>
<polygon fill="#63b8ff" stroke="#63b8ff" points="600.4,-365.5 590.4,-369 600.4,-372.5 600.4,-365.5"/>
</a>
</g>
</g>
<!-- Node10 -->
<g id="Node000010" class="node">
<title>Node10</title>
<g id="a_Node000010"><a xlink:href="../../d7/dcb/structmstd_1_1function__traits.html" target="_top" xlink:title=" ">
<polygon fill="white" stroke="#666666" points="817.75,-440 712.5,-440 712.5,-408 817.75,-408 817.75,-440"/>
<text xml:space="preserve" text-anchor="start" x="720.5" y="-426.5" font-family="Helvetica,sans-Serif" font-size="10.00">mstd::function_traits</text>
<text xml:space="preserve" text-anchor="middle" x="765.12" y="-414.5" font-family="Helvetica,sans-Serif" font-size="10.00">&lt; F, C &gt;</text>
</a>
</g>
</g>
<!-- Node2&#45;&gt;Node10 -->
<g id="edge15_Node000010_Node000002" class="edge">
<title>Node2&#45;&gt;Node10</title>
<g id="a_edge15_Node000010_Node000002"><a xlink:title=" ">
<path fill="none" stroke="#63b8ff" d="M600.3,-384.04C635.37,-392.6 678.79,-403.19 712.12,-411.32"/>
<polygon fill="#63b8ff" stroke="#63b8ff" points="601.25,-380.67 590.7,-381.7 599.59,-387.47 601.25,-380.67"/>
</a>
</g>
</g>
<!-- Node3 -->
<g id="Node000003" class="node">
<title>Node3</title>
<g id="a_Node000003"><a xlink:title=" ">
<polygon fill="white" stroke="#666666" points="155.5,-385 0,-385 0,-353 155.5,-353 155.5,-385"/>
<text xml:space="preserve" text-anchor="start" x="8" y="-371.5" font-family="Helvetica,sans-Serif" font-size="10.00">static _MSTD_CONSTEXPR17</text>
<text xml:space="preserve" text-anchor="middle" x="77.75" y="-359.5" font-family="Helvetica,sans-Serif" font-size="10.00"> const bool</text>
</a>
</g>
</g>
<!-- Node3&#45;&gt;Node1 -->
<g id="edge17_Node000001_Node000003" class="edge">
<title>Node3&#45;&gt;Node1</title>
<g id="a_edge17_Node000001_Node000003"><a xlink:title=" ">
<path fill="none" stroke="#9a32cd" stroke-dasharray="5,2" d="M90.02,-395.77C118.7,-459.13 200.87,-613 322.62,-613 322.62,-613 322.62,-613 1014.5,-613 1107.38,-613 1157.72,-481.16 1172.69,-434.29"/>
<polygon fill="#9a32cd" stroke="#9a32cd" points="93.29,-394.51 86.05,-386.77 86.89,-397.33 93.29,-394.51"/>
</a>
</g>
<text xml:space="preserve" text-anchor="start" x="621" y="-618.5" font-family="Helvetica,sans-Serif" font-size="10.00" fill="grey">is_noexcept</text>
</g>
<!-- Node3&#45;&gt;Node2 -->
<g id="edge2_Node000002_Node000003" class="edge">
<title>Node3&#45;&gt;Node2</title>
<g id="a_edge2_Node000002_Node000003"><a xlink:title=" ">
<path fill="none" stroke="#9a32cd" stroke-dasharray="5,2" d="M167.2,-369C262.04,-369 409.31,-369 486.13,-369"/>
<polygon fill="#9a32cd" stroke="#9a32cd" points="167.42,-365.5 157.42,-369 167.42,-372.5 167.42,-365.5"/>
</a>
</g>
<text xml:space="preserve" text-anchor="start" x="286.5" y="-534.5" font-family="Helvetica,sans-Serif" font-size="10.00" fill="grey">is_const</text>
<text xml:space="preserve" text-anchor="start" x="286.5" y="-518.5" font-family="Helvetica,sans-Serif" font-size="10.00" fill="grey">is_free</text>
<text xml:space="preserve" text-anchor="start" x="286.5" y="-502.5" font-family="Helvetica,sans-Serif" font-size="10.00" fill="grey">is_functor</text>
<text xml:space="preserve" text-anchor="start" x="286.5" y="-486.5" font-family="Helvetica,sans-Serif" font-size="10.00" fill="grey">is_member</text>
<text xml:space="preserve" text-anchor="start" x="286.5" y="-470.5" font-family="Helvetica,sans-Serif" font-size="10.00" fill="grey">is_moved</text>
<text xml:space="preserve" text-anchor="start" x="286.5" y="-454.5" font-family="Helvetica,sans-Serif" font-size="10.00" fill="grey">is_noexcept</text>
<text xml:space="preserve" text-anchor="start" x="286.5" y="-438.5" font-family="Helvetica,sans-Serif" font-size="10.00" fill="grey">is_parent_moved</text>
<text xml:space="preserve" text-anchor="start" x="286.5" y="-422.5" font-family="Helvetica,sans-Serif" font-size="10.00" fill="grey">is_parent_ref</text>
<text xml:space="preserve" text-anchor="start" x="286.5" y="-406.5" font-family="Helvetica,sans-Serif" font-size="10.00" fill="grey">is_ptr</text>
<text xml:space="preserve" text-anchor="start" x="286.5" y="-390.5" font-family="Helvetica,sans-Serif" font-size="10.00" fill="grey">is_ref</text>
<text xml:space="preserve" text-anchor="start" x="286.5" y="-374.5" font-family="Helvetica,sans-Serif" font-size="10.00" fill="grey"> &#160;...</text>
</g>
<!-- Node4 -->
<g id="Node000004" class="node">
<title>Node4</title>
<g id="a_Node000004"><a xlink:href="../../d0/d74/structmstd_1_1utils_1_1function__default__type__traits.html" target="_top" xlink:title=" ">
<polygon fill="white" stroke="#666666" points="374.75,-333 272.5,-333 272.5,-289 374.75,-289 374.75,-333"/>
<text xml:space="preserve" text-anchor="start" x="280.5" y="-319.5" font-family="Helvetica,sans-Serif" font-size="10.00">mstd::utils::function</text>
<text xml:space="preserve" text-anchor="start" x="280.5" y="-307.5" font-family="Helvetica,sans-Serif" font-size="10.00">_default_type_traits</text>
<text xml:space="preserve" text-anchor="middle" x="323.62" y="-295.5" font-family="Helvetica,sans-Serif" font-size="10.00">&lt; IsMember &gt;</text>
</a>
</g>
</g>
<!-- Node3&#45;&gt;Node4 -->
<g id="edge4_Node000004_Node000003" class="edge">
<title>Node3&#45;&gt;Node4</title>
<g id="a_edge4_Node000004_Node000003"><a xlink:title=" ">
<path fill="none" stroke="#9a32cd" stroke-dasharray="5,2" d="M83.08,-341.33C91.6,-297.5 115.07,-213.32 173.5,-177 203.79,-158.17 226.35,-154.17 253.75,-177 287.77,-205.34 247.92,-237.68 271.75,-275 275.01,-280.11 279.28,-284.7 283.96,-288.77"/>
<polygon fill="#9a32cd" stroke="#9a32cd" points="79.66,-340.6 81.33,-351.07 86.55,-341.85 79.66,-340.6"/>
</a>
</g>
<text xml:space="preserve" text-anchor="start" x="176.5" y="-342.5" font-family="Helvetica,sans-Serif" font-size="10.00" fill="grey">is_const</text>
<text xml:space="preserve" text-anchor="start" x="176.5" y="-326.5" font-family="Helvetica,sans-Serif" font-size="10.00" fill="grey">is_free</text>
<text xml:space="preserve" text-anchor="start" x="176.5" y="-310.5" font-family="Helvetica,sans-Serif" font-size="10.00" fill="grey">is_functor</text>
<text xml:space="preserve" text-anchor="start" x="176.5" y="-294.5" font-family="Helvetica,sans-Serif" font-size="10.00" fill="grey">is_member</text>
<text xml:space="preserve" text-anchor="start" x="176.5" y="-278.5" font-family="Helvetica,sans-Serif" font-size="10.00" fill="grey">is_moved</text>
<text xml:space="preserve" text-anchor="start" x="176.5" y="-262.5" font-family="Helvetica,sans-Serif" font-size="10.00" fill="grey">is_noexcept</text>
<text xml:space="preserve" text-anchor="start" x="176.5" y="-246.5" font-family="Helvetica,sans-Serif" font-size="10.00" fill="grey">is_parent_moved</text>
<text xml:space="preserve" text-anchor="start" x="176.5" y="-230.5" font-family="Helvetica,sans-Serif" font-size="10.00" fill="grey">is_parent_ref</text>
<text xml:space="preserve" text-anchor="start" x="176.5" y="-214.5" font-family="Helvetica,sans-Serif" font-size="10.00" fill="grey">is_ptr</text>
<text xml:space="preserve" text-anchor="start" x="176.5" y="-198.5" font-family="Helvetica,sans-Serif" font-size="10.00" fill="grey">is_ref</text>
<text xml:space="preserve" text-anchor="start" x="176.5" y="-182.5" font-family="Helvetica,sans-Serif" font-size="10.00" fill="grey"> &#160;...</text>
</g>
<!-- Node9 -->
<g id="Node000009" class="node">
<title>Node9</title>
<g id="a_Node000009"><a xlink:href="../../d0/d74/structmstd_1_1utils_1_1function__default__type__traits.html" target="_top" xlink:title=" ">
<polygon fill="white" stroke="#666666" points="588.75,-315 486.5,-315 486.5,-271 588.75,-271 588.75,-315"/>
<text xml:space="preserve" text-anchor="start" x="494.5" y="-301.5" font-family="Helvetica,sans-Serif" font-size="10.00">mstd::utils::function</text>
<text xml:space="preserve" text-anchor="start" x="494.5" y="-289.5" font-family="Helvetica,sans-Serif" font-size="10.00">_default_type_traits</text>
<text xml:space="preserve" text-anchor="middle" x="537.62" y="-277.5" font-family="Helvetica,sans-Serif" font-size="10.00">&lt; true &gt;</text>
</a>
</g>
</g>
<!-- Node3&#45;&gt;Node9 -->
<g id="edge12_Node000009_Node000003" class="edge">
<title>Node3&#45;&gt;Node9</title>
<g id="a_edge12_Node000009_Node000003"><a xlink:title=" ">
<path fill="none" stroke="#9a32cd" stroke-dasharray="5,2" d="M85.03,-341.57C96.22,-297.92 123.29,-211.95 173.5,-157 207.26,-120.06 223.33,-114.63 271.75,-102 316.37,-90.36 333.68,-82.57 375.5,-102 451.63,-137.38 504.73,-228.4 526.12,-270.73"/>
<polygon fill="#9a32cd" stroke="#9a32cd" points="81.64,-340.69 82.65,-351.24 88.44,-342.36 81.64,-340.69"/>
</a>
</g>
<text xml:space="preserve" text-anchor="start" x="286.5" y="-267.5" font-family="Helvetica,sans-Serif" font-size="10.00" fill="grey">is_const</text>
<text xml:space="preserve" text-anchor="start" x="286.5" y="-251.5" font-family="Helvetica,sans-Serif" font-size="10.00" fill="grey">is_free</text>
<text xml:space="preserve" text-anchor="start" x="286.5" y="-235.5" font-family="Helvetica,sans-Serif" font-size="10.00" fill="grey">is_functor</text>
<text xml:space="preserve" text-anchor="start" x="286.5" y="-219.5" font-family="Helvetica,sans-Serif" font-size="10.00" fill="grey">is_member</text>
<text xml:space="preserve" text-anchor="start" x="286.5" y="-203.5" font-family="Helvetica,sans-Serif" font-size="10.00" fill="grey">is_moved</text>
<text xml:space="preserve" text-anchor="start" x="286.5" y="-187.5" font-family="Helvetica,sans-Serif" font-size="10.00" fill="grey">is_noexcept</text>
<text xml:space="preserve" text-anchor="start" x="286.5" y="-171.5" font-family="Helvetica,sans-Serif" font-size="10.00" fill="grey">is_parent_moved</text>
<text xml:space="preserve" text-anchor="start" x="286.5" y="-155.5" font-family="Helvetica,sans-Serif" font-size="10.00" fill="grey">is_parent_ref</text>
<text xml:space="preserve" text-anchor="start" x="286.5" y="-139.5" font-family="Helvetica,sans-Serif" font-size="10.00" fill="grey">is_ptr</text>
<text xml:space="preserve" text-anchor="start" x="286.5" y="-123.5" font-family="Helvetica,sans-Serif" font-size="10.00" fill="grey">is_ref</text>
<text xml:space="preserve" text-anchor="start" x="286.5" y="-107.5" font-family="Helvetica,sans-Serif" font-size="10.00" fill="grey"> &#160;...</text>
</g>
<!-- Node3&#45;&gt;Node10 -->
<g id="edge16_Node000010_Node000003" class="edge">
<title>Node3&#45;&gt;Node10</title>
<g id="a_edge16_Node000010_Node000003"><a xlink:title=" ">
<path fill="none" stroke="#9a32cd" stroke-dasharray="5,2" d="M95.81,-394.6C125.61,-436.75 191.7,-519.21 271.75,-551 445.28,-619.91 668.15,-488.27 740.39,-440.43"/>
<polygon fill="#9a32cd" stroke="#9a32cd" points="98.79,-392.76 90.21,-386.54 93.03,-396.75 98.79,-392.76"/>
</a>
</g>
<text xml:space="preserve" text-anchor="start" x="410.75" y="-575.61" font-family="Helvetica,sans-Serif" font-size="10.00" fill="grey">is_free</text>
</g>
<!-- Node4&#45;&gt;Node2 -->
<g id="edge3_Node000002_Node000004" class="edge">
<title>Node4&#45;&gt;Node2</title>
<g id="a_edge3_Node000002_Node000004"><a xlink:title=" ">
<path fill="none" stroke="orange" stroke-dasharray="5,2" d="M386.37,-320.59C408.91,-324.75 434.45,-330.23 457.25,-337 466.79,-339.83 476.78,-343.37 486.32,-347.06"/>
<polygon fill="orange" stroke="orange" points="387.19,-317.18 376.73,-318.87 385.95,-324.07 387.19,-317.18"/>
</a>
</g>
<text xml:space="preserve" text-anchor="start" x="405.88" y="-342.5" font-family="Helvetica,sans-Serif" font-size="10.00" fill="grey">&lt; false &gt;</text>
</g>
<!-- Node4&#45;&gt;Node9 -->
<g id="edge13_Node000009_Node000004" class="edge">
<title>Node4&#45;&gt;Node9</title>
<g id="a_edge13_Node000009_Node000004"><a xlink:title=" ">
<path fill="none" stroke="orange" stroke-dasharray="5,2" d="M386.43,-296.95C388.81,-296.59 391.17,-296.28 393.5,-296 424.11,-292.38 458.64,-291.56 486.12,-291.68"/>
<polygon fill="orange" stroke="orange" points="385.99,-293.47 376.71,-298.57 387.15,-300.37 385.99,-293.47"/>
</a>
</g>
<text xml:space="preserve" text-anchor="start" x="408.12" y="-301.5" font-family="Helvetica,sans-Serif" font-size="10.00" fill="grey">&lt; true &gt;</text>
</g>
<!-- Node5&#45;&gt;Node1 -->
<g id="edge5_Node000001_Node000005" class="edge">
<title>Node5&#45;&gt;Node1</title>
<g id="a_edge5_Node000001_Node000005"><a xlink:title=" ">
<path fill="none" stroke="#63b8ff" d="M1077.28,-387.87C1092.32,-392.39 1108.25,-397.18 1122.88,-401.58"/>
<polygon fill="#63b8ff" stroke="#63b8ff" points="1078.56,-384.6 1067.97,-385.07 1076.54,-391.31 1078.56,-384.6"/>
</a>
</g>
</g>
<!-- Node6 -->
<g id="Node000006" class="node">
<title>Node6</title>
<g id="a_Node000006"><a xlink:href="../../d1/d4f/structmstd_1_1utils_1_1function__core__traits_3_01_r_07_args_8_8_8_08_00_01_c_01_4.html" target="_top" xlink:title=" ">
<polygon fill="white" stroke="#666666" points="835.75,-84 694.5,-84 694.5,-52 835.75,-52 835.75,-84"/>
<text xml:space="preserve" text-anchor="start" x="702.5" y="-70.5" font-family="Helvetica,sans-Serif" font-size="10.00">mstd::utils::function</text>
<text xml:space="preserve" text-anchor="middle" x="765.12" y="-58.5" font-family="Helvetica,sans-Serif" font-size="10.00">_core_traits&lt; R(Args...), C &gt;</text>
</a>
</g>
</g>
<!-- Node6&#45;&gt;Node5 -->
<g id="edge7_Node000005_Node000006" class="edge">
<title>Node6&#45;&gt;Node5</title>
<g id="a_edge7_Node000005_Node000006"><a xlink:title=" ">
<path fill="none" stroke="#63b8ff" d="M786.57,-92.98C835.54,-152.81 958.49,-303.02 999.19,-352.74"/>
<polygon fill="#63b8ff" stroke="#63b8ff" points="789.37,-90.88 780.33,-85.35 783.96,-95.31 789.37,-90.88"/>
</a>
</g>
</g>
<!-- Node7 -->
<g id="Node000007" class="node">
<title>Node7</title>
<g id="a_Node000007"><a xlink:href="../../df/db9/structmstd_1_1utils_1_1function__core__traits.html" target="_top" xlink:title=" ">
<polygon fill="white" stroke="#666666" points="600,-32 475.25,-32 475.25,0 600,0 600,-32"/>
<text xml:space="preserve" text-anchor="start" x="483.25" y="-18.5" font-family="Helvetica,sans-Serif" font-size="10.00">mstd::utils::function</text>
<text xml:space="preserve" text-anchor="middle" x="537.62" y="-6.5" font-family="Helvetica,sans-Serif" font-size="10.00">_core_traits&lt; R(Args...)&gt;</text>
</a>
</g>
</g>
<!-- Node7&#45;&gt;Node6 -->
<g id="edge8_Node000006_Node000007" class="edge">
<title>Node7&#45;&gt;Node6</title>
<g id="a_edge8_Node000006_Node000007"><a xlink:title=" ">
<path fill="none" stroke="#63b8ff" d="M611.4,-32.78C637.96,-38.91 667.92,-45.81 694.22,-51.88"/>
<polygon fill="#63b8ff" stroke="#63b8ff" points="612.25,-29.39 601.72,-30.55 610.68,-36.21 612.25,-29.39"/>
</a>
</g>
</g>
<!-- Node8 -->
<g id="Node000008" class="node">
<title>Node8</title>
<g id="a_Node000008"><a xlink:href="../../df/db9/structmstd_1_1utils_1_1function__core__traits.html" target="_top" xlink:title=" ">
<polygon fill="white" stroke="#666666" points="375.5,-50 271.75,-50 271.75,-18 375.5,-18 375.5,-50"/>
<text xml:space="preserve" text-anchor="start" x="279.75" y="-36.5" font-family="Helvetica,sans-Serif" font-size="10.00">mstd::utils::function</text>
<text xml:space="preserve" text-anchor="middle" x="323.62" y="-24.5" font-family="Helvetica,sans-Serif" font-size="10.00">_core_traits&lt; F, C &gt;</text>
</a>
</g>
</g>
<!-- Node8&#45;&gt;Node6 -->
<g id="edge10_Node000006_Node000008" class="edge">
<title>Node8&#45;&gt;Node6</title>
<g id="a_edge10_Node000006_Node000008"><a xlink:title=" ">
<path fill="none" stroke="orange" stroke-dasharray="5,2" d="M387.27,-49.05C389.36,-49.4 391.45,-49.71 393.5,-50 497.5,-64.49 619.32,-67.82 694.1,-68.33"/>
<polygon fill="orange" stroke="orange" points="387.92,-45.61 377.45,-47.26 386.66,-52.5 387.92,-45.61"/>
</a>
</g>
<text xml:space="preserve" text-anchor="start" x="500.5" y="-71.86" font-family="Helvetica,sans-Serif" font-size="10.00" fill="grey">&lt; R(Args...), C &gt;</text>
</g>
<!-- Node8&#45;&gt;Node7 -->
<g id="edge9_Node000007_Node000008" class="edge">
<title>Node8&#45;&gt;Node7</title>
<g id="a_edge9_Node000007_Node000008"><a xlink:title=" ">
<path fill="none" stroke="orange" stroke-dasharray="5,2" d="M387.09,-28.7C414.76,-26.35 447.23,-23.59 474.83,-21.25"/>
<polygon fill="orange" stroke="orange" points="387.12,-25.18 377.45,-29.51 387.71,-32.16 387.12,-25.18"/>
</a>
</g>
<text xml:space="preserve" text-anchor="start" x="396.5" y="-33.16" font-family="Helvetica,sans-Serif" font-size="10.00" fill="grey">&lt; R(Args...)&gt;</text>
</g>
<!-- Node9&#45;&gt;Node5 -->
<g id="edge11_Node000005_Node000009" class="edge">
<title>Node9&#45;&gt;Node5</title>
<g id="a_edge11_Node000005_Node000009"><a xlink:title=" ">
<path fill="none" stroke="#63b8ff" d="M600.23,-302.88C694.42,-317.99 872.58,-346.56 960.6,-360.68"/>
<polygon fill="#63b8ff" stroke="#63b8ff" points="600.81,-299.43 590.38,-301.3 599.7,-306.34 600.81,-299.43"/>
</a>
</g>
</g>
<!-- Node10&#45;&gt;Node1 -->
<g id="edge18_Node000001_Node000010" class="edge">
<title>Node10&#45;&gt;Node1</title>
<g id="a_edge18_Node000001_Node000010"><a xlink:title=" ">
<path fill="none" stroke="orange" stroke-dasharray="5,2" d="M829.59,-423.07C906.08,-421.96 1033.99,-420.09 1111.57,-418.96"/>
<polygon fill="orange" stroke="orange" points="829.69,-419.57 819.74,-423.22 829.79,-426.57 829.69,-419.57"/>
</a>
</g>
<text xml:space="preserve" text-anchor="start" x="955" y="-426.79" font-family="Helvetica,sans-Serif" font-size="10.00" fill="grey">&lt; R(Args...) noexcept, C &gt;</text>
</g>
<!-- Node10&#45;&gt;Node5 -->
<g id="edge14_Node000005_Node000010" class="edge">
<title>Node10&#45;&gt;Node5</title>
<g id="a_edge14_Node000005_Node000010"><a xlink:title=" ">
<path fill="none" stroke="orange" stroke-dasharray="5,2" d="M829.14,-408.7C837.41,-406.75 845.78,-404.81 853.75,-403 889.35,-394.92 929.55,-386.32 960.6,-379.79"/>
<polygon fill="orange" stroke="orange" points="828.37,-405.29 819.44,-411.01 829.98,-412.1 828.37,-405.29"/>
</a>
</g>
<text xml:space="preserve" text-anchor="start" x="856.75" y="-408.5" font-family="Helvetica,sans-Serif" font-size="10.00" fill="grey">&lt; R(Args...), C &gt;</text>
</g>
</g>
</svg>
