<?xml version="1.0" encoding="UTF-8" standalone="no"?>
<!DOCTYPE svg PUBLIC "-//W3C//DTD SVG 1.1//EN"
 "http://www.w3.org/Graphics/SVG/1.1/DTD/svg11.dtd">
<!-- Generated by graphviz version 14.1.1 (20251213.1925)
 -->
<!-- Title: mstd::function_traits&lt; R(Args...)&gt; Pages: 1 -->
<svg width="1083pt" height="240pt"
 viewBox="0.00 0.00 1083.00 240.00" xmlns="http://www.w3.org/2000/svg" xmlns:xlink="http://www.w3.org/1999/xlink">
<g id="graph0" class="graph" transform="scale(1 1) rotate(0) translate(4 236)">
<title>mstd::function_traits&lt; R(Args...)&gt;</title>
<!-- Node1 -->
<g id="Node000001" class="node">
<title>Node1</title>
<g id="a_Node000001"><a xlink:title=" ">
<polygon fill="#999999" stroke="#666666" points="716.5,-132 611.25,-132 611.25,-100 716.5,-100 716.5,-132"/>
<text xml:space="preserve" text-anchor="start" x="619.25" y="-118.5" font-family="Helvetica,sans-Serif" font-size="10.00">mstd::function_traits</text>
<text xml:space="preserve" text-anchor="middle" x="663.88" y="-106.5" font-family="Helvetica,sans-Serif" font-size="10.00">&lt; R(Args...)&gt;</text>
</a>
</g>
</g>
<!-- Node7 -->
<g id="Node000007" class="node">
<title>Node7</title>
<g id="a_Node000007"><a xlink:href="../../da/d4d/structmstd_1_1function__traits_3_01_r_07_6_6_08_07_args_8_8_8_08_4.html" target="_top" xlink:title=" ">
<polygon fill="white" stroke="#666666" points="879,-232 773.75,-232 773.75,-200 879,-200 879,-232"/>
<text xml:space="preserve" text-anchor="start" x="781.75" y="-218.5" font-family="Helvetica,sans-Serif" font-size="10.00">mstd::function_traits</text>
<text xml:space="preserve" text-anchor="middle" x="826.38" y="-206.5" font-family="Helvetica,sans-Serif" font-size="10.00">&lt; R(&amp;&amp;)(Args...)&gt;</text>
</a>
</g>
</g>
<!-- Node1&#45;&gt;Node7 -->
<g id="edge8_Node000001_Node000007" class="edge">
<title>Node1&#45;&gt;Node7</title>
<g id="a_edge8_Node000001_Node000007"><a xlink:title=" ">
<path fill="none" stroke="#63b8ff" d="M688.62,-140.34C705.49,-156.51 729.35,-177.22 753.5,-191 759.7,-194.54 766.48,-197.69 773.32,-200.47"/>
<polygon fill="#63b8ff" stroke="#63b8ff" points="691.15,-137.92 681.56,-133.42 686.25,-142.92 691.15,-137.92"/>
</a>
</g>
</g>
<!-- Node8 -->
<g id="Node000008" class="node">
<title>Node8</title>
<g id="a_Node000008"><a xlink:href="../../da/d89/structmstd_1_1function__traits_3_01_r_07_6_08_07_args_8_8_8_08_4.html" target="_top" xlink:title=" ">
<polygon fill="white" stroke="#666666" points="879,-182 773.75,-182 773.75,-150 879,-150 879,-182"/>
<text xml:space="preserve" text-anchor="start" x="781.75" y="-168.5" font-family="Helvetica,sans-Serif" font-size="10.00">mstd::function_traits</text>
<text xml:space="preserve" text-anchor="middle" x="826.38" y="-156.5" font-family="Helvetica,sans-Serif" font-size="10.00">&lt; R(&amp;)(Args...)&gt;</text>
</a>
</g>
</g>
<!-- Node1&#45;&gt;Node8 -->
<g id="edge9_Node000001_Node000008" class="edge">
<title>Node1&#45;&gt;Node8</title>
<g id="a_edge9_Node000001_Node000008"><a xlink:title=" ">
<path fill="none" stroke="#63b8ff" d="M727.77,-135.59C742.83,-140.28 758.74,-145.24 773.25,-149.76"/>
<polygon fill="#63b8ff" stroke="#63b8ff" points="729.02,-132.32 718.43,-132.68 726.94,-139 729.02,-132.32"/>
</a>
</g>
</g>
<!-- Node9 -->
<g id="Node000009" class="node">
<title>Node9</title>
<g id="a_Node000009"><a xlink:href="../../d8/d93/structmstd_1_1function__traits_3_01_r_07_5_08_07_args_8_8_8_08_4.html" target="_top" xlink:title=" ">
<polygon fill="white" stroke="#666666" points="879,-132 773.75,-132 773.75,-100 879,-100 879,-132"/>
<text xml:space="preserve" text-anchor="start" x="781.75" y="-118.5" font-family="Helvetica,sans-Serif" font-size="10.00">mstd::function_traits</text>
<text xml:space="preserve" text-anchor="middle" x="826.38" y="-106.5" font-family="Helvetica,sans-Serif" font-size="10.00">&lt; R(*)(Args...)&gt;</text>
</a>
</g>
</g>
<!-- Node1&#45;&gt;Node9 -->
<g id="edge10_Node000001_Node000009" class="edge">
<title>Node1&#45;&gt;Node9</title>
<g id="a_edge10_Node000001_Node000009"><a xlink:title=" ">
<path fill="none" stroke="#63b8ff" d="M728.21,-116C743.13,-116 758.88,-116 773.25,-116"/>
<polygon fill="#63b8ff" stroke="#63b8ff" points="728.5,-112.5 718.5,-116 728.5,-119.5 728.5,-112.5"/>
</a>
</g>
</g>
<!-- Node10 -->
<g id="Node000010" class="node">
<title>Node10</title>
<g id="a_Node000010"><a xlink:href="../../df/d39/structmstd_1_1function__traits_3_01_r_07_args_8_8_8_08_01noexcept_01_4.html" target="_top" xlink:title=" ">
<polygon fill="white" stroke="#666666" points="886.12,-82 766.62,-82 766.62,-50 886.12,-50 886.12,-82"/>
<text xml:space="preserve" text-anchor="start" x="774.62" y="-68.5" font-family="Helvetica,sans-Serif" font-size="10.00">mstd::function_traits</text>
<text xml:space="preserve" text-anchor="middle" x="826.38" y="-56.5" font-family="Helvetica,sans-Serif" font-size="10.00">&lt; R(Args...) noexcept &gt;</text>
</a>
</g>
</g>
<!-- Node1&#45;&gt;Node10 -->
<g id="edge11_Node000001_Node000010" class="edge">
<title>Node1&#45;&gt;Node10</title>
<g id="a_edge11_Node000001_Node000010"><a xlink:title=" ">
<path fill="none" stroke="#63b8ff" d="M727.6,-96.46C742.42,-91.84 758.09,-86.96 772.43,-82.49"/>
<polygon fill="#63b8ff" stroke="#63b8ff" points="726.94,-93 718.43,-99.32 729.02,-99.68 726.94,-93"/>
</a>
</g>
</g>
<!-- Node14 -->
<g id="Node000014" class="node">
<title>Node14</title>
<g id="a_Node000014"><a xlink:href="../../d8/d49/structmstd_1_1function__traits_3_01std_1_1function_3_01_r_07_args_8_8_8_08_4_01_4.html" target="_top" xlink:title=" ">
<polygon fill="white" stroke="#666666" points="899.25,-32 753.5,-32 753.5,0 899.25,0 899.25,-32"/>
<text xml:space="preserve" text-anchor="start" x="761.5" y="-18.5" font-family="Helvetica,sans-Serif" font-size="10.00">mstd::function_traits</text>
<text xml:space="preserve" text-anchor="middle" x="826.38" y="-6.5" font-family="Helvetica,sans-Serif" font-size="10.00">&lt; std::function&lt; R(Args...)&gt; &gt;</text>
</a>
</g>
</g>
<!-- Node1&#45;&gt;Node14 -->
<g id="edge15_Node000001_Node000014" class="edge">
<title>Node1&#45;&gt;Node14</title>
<g id="a_edge15_Node000001_Node000014"><a xlink:title=" ">
<path fill="none" stroke="#63b8ff" d="M688.62,-91.66C705.49,-75.49 729.35,-54.78 753.5,-41 759.01,-37.86 764.98,-35.01 771.04,-32.47"/>
<polygon fill="#63b8ff" stroke="#63b8ff" points="686.25,-89.08 681.56,-98.58 691.15,-94.08 686.25,-89.08"/>
</a>
</g>
</g>
<!-- Node2 -->
<g id="Node000002" class="node">
<title>Node2</title>
<g id="a_Node000002"><a xlink:href="../../d0/d74/structmstd_1_1utils_1_1function__default__type__traits.html" target="_top" xlink:title=" ">
<polygon fill="white" stroke="#666666" points="286.25,-164 184,-164 184,-120 286.25,-120 286.25,-164"/>
<text xml:space="preserve" text-anchor="start" x="192" y="-150.5" font-family="Helvetica,sans-Serif" font-size="10.00">mstd::utils::function</text>
<text xml:space="preserve" text-anchor="start" x="192" y="-138.5" font-family="Helvetica,sans-Serif" font-size="10.00">_default_type_traits</text>
<text xml:space="preserve" text-anchor="middle" x="235.12" y="-126.5" font-family="Helvetica,sans-Serif" font-size="10.00">&lt; false &gt;</text>
</a>
</g>
</g>
<!-- Node2&#45;&gt;Node1 -->
<g id="edge1_Node000001_Node000002" class="edge">
<title>Node2&#45;&gt;Node1</title>
<g id="a_edge1_Node000001_Node000002"><a xlink:title=" ">
<path fill="none" stroke="#63b8ff" d="M297.78,-133.33C382.1,-125.64 531.91,-116.62 610.86,-114.57"/>
<polygon fill="#63b8ff" stroke="#63b8ff" points="297.47,-129.84 287.84,-134.26 298.12,-136.81 297.47,-129.84"/>
</a>
</g>
</g>
<!-- Node2&#45;&gt;Node1 -->
<g id="edge5_Node000001_Node000002" class="edge">
<title>Node2&#45;&gt;Node1</title>
<g id="a_edge5_Node000001_Node000002"><a xlink:title=" ">
<path fill="none" stroke="#63b8ff" d="M297.78,-143.16C382.1,-140.57 531.91,-131.34 610.86,-123.77"/>
<polygon fill="#63b8ff" stroke="#63b8ff" points="297.74,-139.66 287.85,-143.44 297.94,-146.66 297.74,-139.66"/>
</a>
</g>
</g>
<!-- Node6 -->
<g id="Node000006" class="node">
<title>Node6</title>
<g id="a_Node000006"><a xlink:href="../../d7/dcb/structmstd_1_1function__traits.html" target="_top" xlink:title=" ">
<polygon fill="white" stroke="#666666" points="501.75,-105 396.5,-105 396.5,-73 501.75,-73 501.75,-105"/>
<text xml:space="preserve" text-anchor="start" x="404.5" y="-91.5" font-family="Helvetica,sans-Serif" font-size="10.00">mstd::function_traits</text>
<text xml:space="preserve" text-anchor="middle" x="449.12" y="-79.5" font-family="Helvetica,sans-Serif" font-size="10.00">&lt; F, C &gt;</text>
</a>
</g>
</g>
<!-- Node2&#45;&gt;Node6 -->
<g id="edge7_Node000006_Node000002" class="edge">
<title>Node2&#45;&gt;Node6</title>
<g id="a_edge7_Node000006_Node000002"><a xlink:title=" ">
<path fill="none" stroke="#63b8ff" d="M297.63,-121.07C300.12,-120.35 302.58,-119.66 305,-119 334.9,-110.9 368.8,-103.71 396.11,-98.4"/>
<polygon fill="#63b8ff" stroke="#63b8ff" points="296.71,-117.69 288.15,-123.93 298.73,-124.39 296.71,-117.69"/>
</a>
</g>
</g>
<!-- Node3 -->
<g id="Node000003" class="node">
<title>Node3</title>
<g id="a_Node000003"><a xlink:href="../../d0/d74/structmstd_1_1utils_1_1function__default__type__traits.html" target="_top" xlink:title=" ">
<polygon fill="white" stroke="#666666" points="102.25,-164 0,-164 0,-120 102.25,-120 102.25,-164"/>
<text xml:space="preserve" text-anchor="start" x="8" y="-150.5" font-family="Helvetica,sans-Serif" font-size="10.00">mstd::utils::function</text>
<text xml:space="preserve" text-anchor="start" x="8" y="-138.5" font-family="Helvetica,sans-Serif" font-size="10.00">_default_type_traits</text>
<text xml:space="preserve" text-anchor="middle" x="51.12" y="-126.5" font-family="Helvetica,sans-Serif" font-size="10.00">&lt; IsMember &gt;</text>
</a>
</g>
</g>
<!-- Node3&#45;&gt;Node2 -->
<g id="edge2_Node000002_Node000003" class="edge">
<title>Node3&#45;&gt;Node2</title>
<g id="a_edge2_Node000002_Node000003"><a xlink:title=" ">
<path fill="none" stroke="orange" stroke-dasharray="5,2" d="M113.64,-142C136.46,-142 162.05,-142 183.76,-142"/>
<polygon fill="orange" stroke="orange" points="113.85,-138.5 103.85,-142 113.85,-145.5 113.85,-138.5"/>
</a>
</g>
<text xml:space="preserve" text-anchor="start" x="123.25" y="-147.5" font-family="Helvetica,sans-Serif" font-size="10.00" fill="grey">&lt; false &gt;</text>
</g>
<!-- Node4 -->
<g id="Node000004" class="node">
<title>Node4</title>
<g id="a_Node000004"><a xlink:href="../../df/db9/structmstd_1_1utils_1_1function__core__traits.html" target="_top" xlink:title=" ">
<polygon fill="white" stroke="#666666" points="511.5,-55 386.75,-55 386.75,-23 511.5,-23 511.5,-55"/>
<text xml:space="preserve" text-anchor="start" x="394.75" y="-41.5" font-family="Helvetica,sans-Serif" font-size="10.00">mstd::utils::function</text>
<text xml:space="preserve" text-anchor="middle" x="449.12" y="-29.5" font-family="Helvetica,sans-Serif" font-size="10.00">_core_traits&lt; R(Args...)&gt;</text>
</a>
</g>
</g>
<!-- Node4&#45;&gt;Node1 -->
<g id="edge3_Node000001_Node000004" class="edge">
<title>Node4&#45;&gt;Node1</title>
<g id="a_edge3_Node000001_Node000004"><a xlink:title=" ">
<path fill="none" stroke="#63b8ff" d="M507.43,-59.2C533.63,-68.49 565.05,-79.71 593.25,-90 601.61,-93.05 610.53,-96.35 619.09,-99.53"/>
<polygon fill="#63b8ff" stroke="#63b8ff" points="508.94,-56.02 498.35,-55.98 506.61,-62.62 508.94,-56.02"/>
</a>
</g>
</g>
<!-- Node5 -->
<g id="Node000005" class="node">
<title>Node5</title>
<g id="a_Node000005"><a xlink:href="../../df/db9/structmstd_1_1utils_1_1function__core__traits.html" target="_top" xlink:title=" ">
<polygon fill="white" stroke="#666666" points="287,-55 183.25,-55 183.25,-23 287,-23 287,-55"/>
<text xml:space="preserve" text-anchor="start" x="191.25" y="-41.5" font-family="Helvetica,sans-Serif" font-size="10.00">mstd::utils::function</text>
<text xml:space="preserve" text-anchor="middle" x="235.12" y="-29.5" font-family="Helvetica,sans-Serif" font-size="10.00">_core_traits&lt; F, C &gt;</text>
</a>
</g>
</g>
<!-- Node5&#45;&gt;Node4 -->
<g id="edge4_Node000004_Node000005" class="edge">
<title>Node5&#45;&gt;Node4</title>
<g id="a_edge4_Node000004_Node000005"><a xlink:title=" ">
<path fill="none" stroke="orange" stroke-dasharray="5,2" d="M298.95,-39C326.55,-39 358.85,-39 386.33,-39"/>
<polygon fill="orange" stroke="orange" points="298.96,-35.5 288.96,-39 298.96,-42.5 298.96,-35.5"/>
</a>
</g>
<text xml:space="preserve" text-anchor="start" x="308" y="-44.5" font-family="Helvetica,sans-Serif" font-size="10.00" fill="grey">&lt; R(Args...)&gt;</text>
</g>
<!-- Node6&#45;&gt;Node1 -->
<g id="edge6_Node000001_Node000006" class="edge">
<title>Node6&#45;&gt;Node1</title>
<g id="a_edge6_Node000001_Node000006"><a xlink:title=" ">
<path fill="none" stroke="orange" stroke-dasharray="5,2" d="M513.17,-92.53C538.19,-94.39 567.16,-97.11 593.25,-101 599,-101.86 604.98,-102.9 610.92,-104.04"/>
<polygon fill="orange" stroke="orange" points="513.72,-89.06 503.49,-91.84 513.22,-96.04 513.72,-89.06"/>
</a>
</g>
<text xml:space="preserve" text-anchor="start" x="532.5" y="-106.5" font-family="Helvetica,sans-Serif" font-size="10.00" fill="grey">&lt; R(Args...)&gt;</text>
</g>
<!-- Node11 -->
<g id="Node000011" class="node">
<title>Node11</title>
<g id="a_Node000011"><a xlink:href="../../d9/d51/structmstd_1_1function__traits_3_01_r_07_6_6_08_07_args_8_8_8_08_01noexcept_01_4.html" target="_top" xlink:title=" ">
<polygon fill="white" stroke="#666666" points="1075.25,-132 936.25,-132 936.25,-100 1075.25,-100 1075.25,-132"/>
<text xml:space="preserve" text-anchor="start" x="944.25" y="-118.5" font-family="Helvetica,sans-Serif" font-size="10.00">mstd::function_traits</text>
<text xml:space="preserve" text-anchor="middle" x="1005.75" y="-106.5" font-family="Helvetica,sans-Serif" font-size="10.00">&lt; R(&amp;&amp;)(Args...) noexcept &gt;</text>
</a>
</g>
</g>
<!-- Node10&#45;&gt;Node11 -->
<g id="edge12_Node000010_Node000011" class="edge">
<title>Node10&#45;&gt;Node11</title>
<g id="a_edge12_Node000010_Node000011"><a xlink:title=" ">
<path fill="none" stroke="#63b8ff" d="M896.16,-85.39C912.7,-90.05 930.21,-94.99 946.24,-99.51"/>
<polygon fill="#63b8ff" stroke="#63b8ff" points="897.49,-82.13 886.91,-82.78 895.59,-88.86 897.49,-82.13"/>
</a>
</g>
</g>
<!-- Node12 -->
<g id="Node000012" class="node">
<title>Node12</title>
<g id="a_Node000012"><a xlink:href="../../df/d6a/structmstd_1_1function__traits_3_01_r_07_6_08_07_args_8_8_8_08_01noexcept_01_4.html" target="_top" xlink:title=" ">
<polygon fill="white" stroke="#666666" points="1071.88,-82 939.62,-82 939.62,-50 1071.88,-50 1071.88,-82"/>
<text xml:space="preserve" text-anchor="start" x="947.62" y="-68.5" font-family="Helvetica,sans-Serif" font-size="10.00">mstd::function_traits</text>
<text xml:space="preserve" text-anchor="middle" x="1005.75" y="-56.5" font-family="Helvetica,sans-Serif" font-size="10.00">&lt; R(&amp;)(Args...) noexcept &gt;</text>
</a>
</g>
</g>
<!-- Node10&#45;&gt;Node12 -->
<g id="edge13_Node000010_Node000012" class="edge">
<title>Node10&#45;&gt;Node12</title>
<g id="a_edge13_Node000010_Node000012"><a xlink:title=" ">
<path fill="none" stroke="#63b8ff" d="M897.75,-66C911.43,-66 925.71,-66 939.22,-66"/>
<polygon fill="#63b8ff" stroke="#63b8ff" points="897.95,-62.5 887.95,-66 897.95,-69.5 897.95,-62.5"/>
</a>
</g>
</g>
<!-- Node13 -->
<g id="Node000013" class="node">
<title>Node13</title>
<g id="a_Node000013"><a xlink:href="../../d1/dae/structmstd_1_1function__traits_3_01_r_07_5_08_07_args_8_8_8_08_01noexcept_01_4.html" target="_top" xlink:title=" ">
<polygon fill="white" stroke="#666666" points="1070.38,-32 941.12,-32 941.12,0 1070.38,0 1070.38,-32"/>
<text xml:space="preserve" text-anchor="start" x="949.12" y="-18.5" font-family="Helvetica,sans-Serif" font-size="10.00">mstd::function_traits</text>
<text xml:space="preserve" text-anchor="middle" x="1005.75" y="-6.5" font-family="Helvetica,sans-Serif" font-size="10.00">&lt; R(*)(Args...) noexcept &gt;</text>
</a>
</g>
</g>
<!-- Node10&#45;&gt;Node13 -->
<g id="edge14_Node000010_Node000013" class="edge">
<title>Node10&#45;&gt;Node13</title>
<g id="a_edge14_Node000010_Node000013"><a xlink:title=" ">
<path fill="none" stroke="#63b8ff" d="M896.16,-46.61C912.7,-41.95 930.21,-37.01 946.24,-32.49"/>
<polygon fill="#63b8ff" stroke="#63b8ff" points="895.59,-43.14 886.91,-49.22 897.49,-49.87 895.59,-43.14"/>
</a>
</g>
</g>
</g>
</svg>
