<?xml version="1.0" encoding="UTF-8" standalone="no"?>
<!DOCTYPE svg PUBLIC "-//W3C//DTD SVG 1.1//EN"
 "http://www.w3.org/Graphics/SVG/1.1/DTD/svg11.dtd">
<!-- Generated by graphviz version 14.1.1 (20251213.1925)
 -->
<!-- Title: mstd::function_traits&lt; R(C::*)(Args...) volatile &amp;&amp;noexcept &gt; Pages: 1 -->
<svg width="883pt" height="134pt"
 viewBox="0.00 0.00 883.00 134.00" xmlns="http://www.w3.org/2000/svg" xmlns:xlink="http://www.w3.org/1999/xlink">
<g id="graph0" class="graph" transform="scale(1 1) rotate(0) translate(4 129.58)">
<title>mstd::function_traits&lt; R(C::*)(Args...) volatile &amp;&amp;noexcept &gt;</title>
<!-- Node1 -->
<g id="Node000001" class="node">
<title>Node1</title>
<g id="a_Node000001"><a xlink:title=" ">
<polygon fill="#999999" stroke="#666666" points="874.75,-101.77 750,-101.77 750,-57.77 874.75,-57.77 874.75,-101.77"/>
<text xml:space="preserve" text-anchor="start" x="758" y="-88.27" font-family="Helvetica,sans-Serif" font-size="10.00">mstd::function_traits</text>
<text xml:space="preserve" text-anchor="start" x="758" y="-76.27" font-family="Helvetica,sans-Serif" font-size="10.00">&lt; R(C::*)(Args...) volatile</text>
<text xml:space="preserve" text-anchor="middle" x="812.38" y="-64.27" font-family="Helvetica,sans-Serif" font-size="10.00"> &amp;&amp;noexcept &gt;</text>
</a>
</g>
</g>
<!-- Node2 -->
<g id="Node000002" class="node">
<title>Node2</title>
<g id="a_Node000002"><a xlink:href="../../d0/d74/structmstd_1_1utils_1_1function__default__type__traits.html" target="_top" xlink:title=" ">
<polygon fill="white" stroke="#666666" points="285.5,-111.77 183.25,-111.77 183.25,-67.77 285.5,-67.77 285.5,-111.77"/>
<text xml:space="preserve" text-anchor="start" x="191.25" y="-98.27" font-family="Helvetica,sans-Serif" font-size="10.00">mstd::utils::function</text>
<text xml:space="preserve" text-anchor="start" x="191.25" y="-86.27" font-family="Helvetica,sans-Serif" font-size="10.00">_default_type_traits</text>
<text xml:space="preserve" text-anchor="middle" x="234.38" y="-74.27" font-family="Helvetica,sans-Serif" font-size="10.00">&lt; false &gt;</text>
</a>
</g>
</g>
<!-- Node2&#45;&gt;Node1 -->
<g id="edge1_Node000001_Node000002" class="edge">
<title>Node2&#45;&gt;Node1</title>
<g id="a_edge1_Node000001_Node000002"><a xlink:title=" ">
<path fill="none" stroke="#63b8ff" d="M297.24,-101.06C299.35,-101.32 301.44,-101.55 303.5,-101.77 484.58,-120.48 533.07,-138.45 713,-110.77 725.21,-108.89 737.99,-105.77 750.14,-102.22"/>
<polygon fill="#63b8ff" stroke="#63b8ff" points="297.74,-97.59 287.36,-99.69 296.78,-104.53 297.74,-97.59"/>
</a>
</g>
</g>
<!-- Node4 -->
<g id="Node000004" class="node">
<title>Node4</title>
<g id="a_Node000004"><a xlink:href="../../d7/dcb/structmstd_1_1function__traits.html" target="_top" xlink:title=" ">
<polygon fill="white" stroke="#666666" points="713,-101.77 588.25,-101.77 588.25,-57.77 713,-57.77 713,-101.77"/>
<text xml:space="preserve" text-anchor="start" x="596.25" y="-88.27" font-family="Helvetica,sans-Serif" font-size="10.00">mstd::function_traits</text>
<text xml:space="preserve" text-anchor="start" x="596.25" y="-76.27" font-family="Helvetica,sans-Serif" font-size="10.00">&lt; R(C::*)(Args...) volatile</text>
<text xml:space="preserve" text-anchor="middle" x="650.62" y="-64.27" font-family="Helvetica,sans-Serif" font-size="10.00"> &amp;&amp;noexcept, C &gt;</text>
</a>
</g>
</g>
<!-- Node2&#45;&gt;Node4 -->
<g id="edge4_Node000004_Node000002" class="edge">
<title>Node2&#45;&gt;Node4</title>
<g id="a_edge4_Node000004_Node000002"><a xlink:title=" ">
<path fill="none" stroke="#63b8ff" d="M296.88,-88.28C375.11,-86.39 509.44,-83.15 587.82,-81.26"/>
<polygon fill="#63b8ff" stroke="#63b8ff" points="297.18,-84.77 287.27,-88.51 297.35,-91.77 297.18,-84.77"/>
</a>
</g>
</g>
<!-- Node5 -->
<g id="Node000005" class="node">
<title>Node5</title>
<g id="a_Node000005"><a xlink:href="../../d7/dcb/structmstd_1_1function__traits.html" target="_top" xlink:title=" ">
<polygon fill="white" stroke="#666666" points="427.75,-56.77 322.5,-56.77 322.5,-24.77 427.75,-24.77 427.75,-56.77"/>
<text xml:space="preserve" text-anchor="start" x="330.5" y="-43.27" font-family="Helvetica,sans-Serif" font-size="10.00">mstd::function_traits</text>
<text xml:space="preserve" text-anchor="middle" x="375.12" y="-31.27" font-family="Helvetica,sans-Serif" font-size="10.00">&lt; F, C &gt;</text>
</a>
</g>
</g>
<!-- Node2&#45;&gt;Node5 -->
<g id="edge6_Node000005_Node000002" class="edge">
<title>Node2&#45;&gt;Node5</title>
<g id="a_edge6_Node000005_Node000002"><a xlink:title=" ">
<path fill="none" stroke="#63b8ff" d="M296.58,-68.15C306.99,-64.48 317.65,-60.71 327.6,-57.2"/>
<polygon fill="#63b8ff" stroke="#63b8ff" points="295.55,-64.8 287.29,-71.43 297.88,-71.4 295.55,-64.8"/>
</a>
</g>
</g>
<!-- Node3 -->
<g id="Node000003" class="node">
<title>Node3</title>
<g id="a_Node000003"><a xlink:href="../../d0/d74/structmstd_1_1utils_1_1function__default__type__traits.html" target="_top" xlink:title=" ">
<polygon fill="white" stroke="#666666" points="102.25,-111.77 0,-111.77 0,-67.77 102.25,-67.77 102.25,-111.77"/>
<text xml:space="preserve" text-anchor="start" x="8" y="-98.27" font-family="Helvetica,sans-Serif" font-size="10.00">mstd::utils::function</text>
<text xml:space="preserve" text-anchor="start" x="8" y="-86.27" font-family="Helvetica,sans-Serif" font-size="10.00">_default_type_traits</text>
<text xml:space="preserve" text-anchor="middle" x="51.12" y="-74.27" font-family="Helvetica,sans-Serif" font-size="10.00">&lt; IsMember &gt;</text>
</a>
</g>
</g>
<!-- Node3&#45;&gt;Node2 -->
<g id="edge2_Node000002_Node000003" class="edge">
<title>Node3&#45;&gt;Node2</title>
<g id="a_edge2_Node000002_Node000003"><a xlink:title=" ">
<path fill="none" stroke="orange" stroke-dasharray="5,2" d="M114.07,-89.77C136.49,-89.77 161.52,-89.77 182.84,-89.77"/>
<polygon fill="orange" stroke="orange" points="114.13,-86.27 104.13,-89.77 114.13,-93.27 114.13,-86.27"/>
</a>
</g>
<text xml:space="preserve" text-anchor="start" x="123.25" y="-95.27" font-family="Helvetica,sans-Serif" font-size="10.00" fill="grey">&lt; false &gt;</text>
</g>
<!-- Node4&#45;&gt;Node1 -->
<g id="edge3_Node000001_Node000004" class="edge">
<title>Node4&#45;&gt;Node1</title>
<g id="a_edge3_Node000001_Node000004"><a xlink:title=" ">
<path fill="none" stroke="#63b8ff" d="M724.63,-79.77C732.95,-79.77 741.36,-79.77 749.51,-79.77"/>
<polygon fill="#63b8ff" stroke="#63b8ff" points="724.9,-76.27 714.9,-79.77 724.9,-83.27 724.9,-76.27"/>
</a>
</g>
</g>
<!-- Node5&#45;&gt;Node1 -->
<g id="edge7_Node000001_Node000005" class="edge">
<title>Node5&#45;&gt;Node1</title>
<g id="a_edge7_Node000001_Node000005"><a xlink:title=" ">
<path fill="none" stroke="orange" stroke-dasharray="5,2" d="M439.24,-22.49C508.05,-5.62 620.67,12.98 713,-14.77 740.84,-23.13 768.06,-42.22 786.79,-57.55"/>
<polygon fill="orange" stroke="orange" points="438.47,-19.07 429.63,-24.91 440.19,-25.86 438.47,-19.07"/>
</a>
</g>
<text xml:space="preserve" text-anchor="start" x="598.12" y="-36.27" font-family="Helvetica,sans-Serif" font-size="10.00" fill="grey">&lt; R(C::*)(Args...)</text>
<text xml:space="preserve" text-anchor="start" x="598.12" y="-20.27" font-family="Helvetica,sans-Serif" font-size="10.00" fill="grey">   volatile &amp;&amp;noexcept &gt;</text>
</g>
<!-- Node5&#45;&gt;Node4 -->
<g id="edge5_Node000004_Node000005" class="edge">
<title>Node5&#45;&gt;Node4</title>
<g id="a_edge5_Node000004_Node000005"><a xlink:title=" ">
<path fill="none" stroke="orange" stroke-dasharray="5,2" d="M438.94,-34.18C477.35,-31.85 527.2,-31.88 570.25,-41.77 584.4,-45.02 598.97,-51.09 611.71,-57.44"/>
<polygon fill="orange" stroke="orange" points="439.17,-30.66 429.43,-34.83 439.65,-37.64 439.17,-30.66"/>
</a>
</g>
<text xml:space="preserve" text-anchor="start" x="448.75" y="-63.27" font-family="Helvetica,sans-Serif" font-size="10.00" fill="grey">&lt; R(C::*)(Args...)</text>
<text xml:space="preserve" text-anchor="start" x="448.75" y="-47.27" font-family="Helvetica,sans-Serif" font-size="10.00" fill="grey">   volatile &amp;&amp;noexcept, C &gt;</text>
</g>
</g>
</svg>
