<?xml version="1.0" encoding="UTF-8" standalone="no"?>
<!DOCTYPE svg PUBLIC "-//W3C//DTD SVG 1.1//EN"
 "http://www.w3.org/Graphics/SVG/1.1/DTD/svg11.dtd">
<!-- Generated by graphviz version 14.1.1 (20251213.1925)
 -->
<!-- Title: mstd::function_traits&lt; R(Args...) volatile &amp;&amp;, C &gt; Pages: 1 -->
<svg width="1427pt" height="328pt"
 viewBox="0.00 0.00 1427.00 328.00" xmlns="http://www.w3.org/2000/svg" xmlns:xlink="http://www.w3.org/1999/xlink">
<g id="graph0" class="graph" transform="scale(1 1) rotate(0) translate(4 324)">
<title>mstd::function_traits&lt; R(Args...) volatile &amp;&amp;, C &gt;</title>
<!-- Node1 -->
<g id="Node000001" class="node">
<title>Node1</title>
<g id="a_Node000001"><a xlink:title=" ">
<polygon fill="#999999" stroke="#666666" points="1231.75,-70 1126.5,-70 1126.5,-26 1231.75,-26 1231.75,-70"/>
<text xml:space="preserve" text-anchor="start" x="1134.5" y="-56.5" font-family="Helvetica,sans-Serif" font-size="10.00">mstd::function_traits</text>
<text xml:space="preserve" text-anchor="start" x="1134.5" y="-44.5" font-family="Helvetica,sans-Serif" font-size="10.00">&lt; R(Args...) volatile</text>
<text xml:space="preserve" text-anchor="middle" x="1179.12" y="-32.5" font-family="Helvetica,sans-Serif" font-size="10.00"> &amp;&amp;, C &gt;</text>
</a>
</g>
</g>
<!-- Node11 -->
<g id="Node000011" class="node">
<title>Node11</title>
<g id="a_Node000011"><a xlink:href="../../dc/d98/structmstd_1_1function__traits_3_01_r_07_args_8_8_8_08_01volatile_01_6_6noexcept_00_01_c_01_4.html" target="_top" xlink:title=" ">
<polygon fill="white" stroke="#666666" points="1396.5,-98 1291.25,-98 1291.25,-54 1396.5,-54 1396.5,-98"/>
<text xml:space="preserve" text-anchor="start" x="1299.25" y="-84.5" font-family="Helvetica,sans-Serif" font-size="10.00">mstd::function_traits</text>
<text xml:space="preserve" text-anchor="start" x="1299.25" y="-72.5" font-family="Helvetica,sans-Serif" font-size="10.00">&lt; R(Args...) volatile</text>
<text xml:space="preserve" text-anchor="middle" x="1343.88" y="-60.5" font-family="Helvetica,sans-Serif" font-size="10.00"> &amp;&amp;noexcept, C &gt;</text>
</a>
</g>
</g>
<!-- Node1&#45;&gt;Node11 -->
<g id="edge17_Node000001_Node000011" class="edge">
<title>Node1&#45;&gt;Node11</title>
<g id="a_edge17_Node000001_Node000011"><a xlink:title=" ">
<path fill="none" stroke="#63b8ff" d="M1243.32,-58.87C1259.05,-61.58 1275.74,-64.45 1290.87,-67.05"/>
<polygon fill="#63b8ff" stroke="#63b8ff" points="1244.01,-55.44 1233.56,-57.19 1242.82,-62.34 1244.01,-55.44"/>
</a>
</g>
</g>
<!-- Node12 -->
<g id="Node000012" class="node">
<title>Node12</title>
<g id="a_Node000012"><a xlink:href="../../d4/d21/structmstd_1_1function__traits_3_01_r_07_c_1_1_5_08_07_args_8_8_8_08_01volatile_01_6_6_01_4.html" target="_top" xlink:title=" ">
<polygon fill="white" stroke="#666666" points="1419,-36 1268.75,-36 1268.75,-4 1419,-4 1419,-36"/>
<text xml:space="preserve" text-anchor="start" x="1276.75" y="-22.5" font-family="Helvetica,sans-Serif" font-size="10.00">mstd::function_traits</text>
<text xml:space="preserve" text-anchor="middle" x="1343.88" y="-10.5" font-family="Helvetica,sans-Serif" font-size="10.00">&lt; R(C::*)(Args...) volatile &amp;&amp; &gt;</text>
</a>
</g>
</g>
<!-- Node1&#45;&gt;Node12 -->
<g id="edge18_Node000001_Node000012" class="edge">
<title>Node1&#45;&gt;Node12</title>
<g id="a_edge18_Node000001_Node000012"><a xlink:title=" ">
<path fill="none" stroke="#63b8ff" d="M1243.4,-37.11C1251.56,-35.71 1259.97,-34.26 1268.29,-32.83"/>
<polygon fill="#63b8ff" stroke="#63b8ff" points="1242.82,-33.66 1233.56,-38.81 1244.01,-40.56 1242.82,-33.66"/>
</a>
</g>
</g>
<!-- Node2 -->
<g id="Node000002" class="node">
<title>Node2</title>
<g id="a_Node000002"><a xlink:href="../../d0/d74/structmstd_1_1utils_1_1function__default__type__traits.html" target="_top" xlink:title=" ">
<polygon fill="white" stroke="#666666" points="317,-137 214.75,-137 214.75,-93 317,-93 317,-137"/>
<text xml:space="preserve" text-anchor="start" x="222.75" y="-123.5" font-family="Helvetica,sans-Serif" font-size="10.00">mstd::utils::function</text>
<text xml:space="preserve" text-anchor="start" x="222.75" y="-111.5" font-family="Helvetica,sans-Serif" font-size="10.00">_default_type_traits</text>
<text xml:space="preserve" text-anchor="middle" x="265.88" y="-99.5" font-family="Helvetica,sans-Serif" font-size="10.00">&lt; false &gt;</text>
</a>
</g>
</g>
<!-- Node2&#45;&gt;Node1 -->
<g id="edge1_Node000001_Node000002" class="edge">
<title>Node2&#45;&gt;Node1</title>
<g id="a_edge1_Node000001_Node000002"><a xlink:title=" ">
<path fill="none" stroke="#63b8ff" d="M306.24,-86.21C356.79,-52.15 448.5,0 536.12,0 536.12,0 536.12,0 1028.5,0 1064.92,0 1104.04,-13.05 1133.15,-25.55"/>
<polygon fill="#63b8ff" stroke="#63b8ff" points="304.5,-83.16 298.23,-91.7 308.46,-88.93 304.5,-83.16"/>
</a>
</g>
</g>
<!-- Node4 -->
<g id="Node000004" class="node">
<title>Node4</title>
<g id="a_Node000004"><a xlink:href="../../d0/d52/structmstd_1_1function__traits_3_01_r_07_args_8_8_8_08_01volatile_00_01_c_01_4.html" target="_top" xlink:title=" ">
<polygon fill="white" stroke="#666666" points="1089.5,-125 965.5,-125 965.5,-93 1089.5,-93 1089.5,-125"/>
<text xml:space="preserve" text-anchor="start" x="973.5" y="-111.5" font-family="Helvetica,sans-Serif" font-size="10.00">mstd::function_traits</text>
<text xml:space="preserve" text-anchor="middle" x="1027.5" y="-99.5" font-family="Helvetica,sans-Serif" font-size="10.00">&lt; R(Args...) volatile, C &gt;</text>
</a>
</g>
</g>
<!-- Node2&#45;&gt;Node4 -->
<g id="edge4_Node000004_Node000002" class="edge">
<title>Node2&#45;&gt;Node4</title>
<g id="a_edge4_Node000004_Node000002"><a xlink:title=" ">
<path fill="none" stroke="#63b8ff" d="M328.43,-105.28C367.8,-99.56 420.02,-92.9 466.5,-90 647.57,-78.71 862.03,-93.95 965.13,-103.06"/>
<polygon fill="#63b8ff" stroke="#63b8ff" points="328.05,-101.8 318.67,-106.72 329.07,-108.72 328.05,-101.8"/>
</a>
</g>
</g>
<!-- Node5 -->
<g id="Node000005" class="node">
<title>Node5</title>
<g id="a_Node000005"><a xlink:href="../../dd/db6/structmstd_1_1function__traits_3_01_r_07_args_8_8_8_08_00_01_c_01_4.html" target="_top" xlink:title=" ">
<polygon fill="white" stroke="#666666" points="833.62,-197 728.38,-197 728.38,-165 833.62,-165 833.62,-197"/>
<text xml:space="preserve" text-anchor="start" x="736.38" y="-183.5" font-family="Helvetica,sans-Serif" font-size="10.00">mstd::function_traits</text>
<text xml:space="preserve" text-anchor="middle" x="781" y="-171.5" font-family="Helvetica,sans-Serif" font-size="10.00">&lt; R(Args...), C &gt;</text>
</a>
</g>
</g>
<!-- Node2&#45;&gt;Node5 -->
<g id="edge6_Node000005_Node000002" class="edge">
<title>Node2&#45;&gt;Node5</title>
<g id="a_edge6_Node000005_Node000002"><a xlink:title=" ">
<path fill="none" stroke="#63b8ff" d="M328.15,-126.06C334.26,-127.08 340.37,-128.08 346.25,-129 470.11,-148.34 501.18,-152.89 625.75,-167 659.82,-170.86 698.21,-174.35 728.17,-176.88"/>
<polygon fill="#63b8ff" stroke="#63b8ff" points="329.15,-122.68 318.71,-124.44 327.97,-129.58 329.15,-122.68"/>
</a>
</g>
</g>
<!-- Node10 -->
<g id="Node000010" class="node">
<title>Node10</title>
<g id="a_Node000010"><a xlink:href="../../d7/dcb/structmstd_1_1function__traits.html" target="_top" xlink:title=" ">
<polygon fill="white" stroke="#666666" points="589.75,-131 484.5,-131 484.5,-99 589.75,-99 589.75,-131"/>
<text xml:space="preserve" text-anchor="start" x="492.5" y="-117.5" font-family="Helvetica,sans-Serif" font-size="10.00">mstd::function_traits</text>
<text xml:space="preserve" text-anchor="middle" x="537.12" y="-105.5" font-family="Helvetica,sans-Serif" font-size="10.00">&lt; F, C &gt;</text>
</a>
</g>
</g>
<!-- Node2&#45;&gt;Node10 -->
<g id="edge14_Node000010_Node000002" class="edge">
<title>Node2&#45;&gt;Node10</title>
<g id="a_edge14_Node000010_Node000002"><a xlink:title=" ">
<path fill="none" stroke="#63b8ff" d="M328.48,-115C375.56,-115 439.72,-115 484.21,-115"/>
<polygon fill="#63b8ff" stroke="#63b8ff" points="328.72,-111.5 318.72,-115 328.72,-118.5 328.72,-111.5"/>
</a>
</g>
</g>
<!-- Node3 -->
<g id="Node000003" class="node">
<title>Node3</title>
<g id="a_Node000003"><a xlink:href="../../d0/d74/structmstd_1_1utils_1_1function__default__type__traits.html" target="_top" xlink:title=" ">
<polygon fill="white" stroke="#666666" points="103,-215 0.75,-215 0.75,-171 103,-171 103,-215"/>
<text xml:space="preserve" text-anchor="start" x="8.75" y="-201.5" font-family="Helvetica,sans-Serif" font-size="10.00">mstd::utils::function</text>
<text xml:space="preserve" text-anchor="start" x="8.75" y="-189.5" font-family="Helvetica,sans-Serif" font-size="10.00">_default_type_traits</text>
<text xml:space="preserve" text-anchor="middle" x="51.88" y="-177.5" font-family="Helvetica,sans-Serif" font-size="10.00">&lt; IsMember &gt;</text>
</a>
</g>
</g>
<!-- Node3&#45;&gt;Node2 -->
<g id="edge2_Node000002_Node000003" class="edge">
<title>Node3&#45;&gt;Node2</title>
<g id="a_edge2_Node000002_Node000003"><a xlink:title=" ">
<path fill="none" stroke="orange" stroke-dasharray="5,2" d="M107.61,-165.92C112.36,-163.83 117.12,-161.83 121.75,-160 151.92,-148.1 186.59,-137.13 214.26,-129"/>
<polygon fill="orange" stroke="orange" points="106.34,-162.65 98.67,-169.96 109.23,-169.03 106.34,-162.65"/>
</a>
</g>
<text xml:space="preserve" text-anchor="start" x="134.12" y="-165.5" font-family="Helvetica,sans-Serif" font-size="10.00" fill="grey">&lt; false &gt;</text>
</g>
<!-- Node9 -->
<g id="Node000009" class="node">
<title>Node9</title>
<g id="a_Node000009"><a xlink:href="../../d0/d74/structmstd_1_1utils_1_1function__default__type__traits.html" target="_top" xlink:title=" ">
<polygon fill="white" stroke="#666666" points="448.5,-233 346.25,-233 346.25,-189 448.5,-189 448.5,-233"/>
<text xml:space="preserve" text-anchor="start" x="354.25" y="-219.5" font-family="Helvetica,sans-Serif" font-size="10.00">mstd::utils::function</text>
<text xml:space="preserve" text-anchor="start" x="354.25" y="-207.5" font-family="Helvetica,sans-Serif" font-size="10.00">_default_type_traits</text>
<text xml:space="preserve" text-anchor="middle" x="397.38" y="-195.5" font-family="Helvetica,sans-Serif" font-size="10.00">&lt; true &gt;</text>
</a>
</g>
</g>
<!-- Node3&#45;&gt;Node9 -->
<g id="edge12_Node000009_Node000003" class="edge">
<title>Node3&#45;&gt;Node9</title>
<g id="a_edge12_Node000009_Node000003"><a xlink:title=" ">
<path fill="none" stroke="orange" stroke-dasharray="5,2" d="M114.68,-196.24C180.83,-199.71 284.51,-205.14 345.92,-208.36"/>
<polygon fill="orange" stroke="orange" points="114.87,-192.74 104.7,-195.72 114.51,-199.73 114.87,-192.74"/>
</a>
</g>
<text xml:space="preserve" text-anchor="start" x="136.38" y="-205.21" font-family="Helvetica,sans-Serif" font-size="10.00" fill="grey">&lt; true &gt;</text>
</g>
<!-- Node4&#45;&gt;Node1 -->
<g id="edge3_Node000001_Node000004" class="edge">
<title>Node4&#45;&gt;Node1</title>
<g id="a_edge3_Node000001_Node000004"><a xlink:title=" ">
<path fill="none" stroke="#63b8ff" d="M1078.84,-88.48C1094.05,-82.28 1110.76,-75.46 1126.08,-69.22"/>
<polygon fill="#63b8ff" stroke="#63b8ff" points="1077.94,-85.07 1070,-92.08 1080.58,-91.55 1077.94,-85.07"/>
</a>
</g>
</g>
<!-- Node5&#45;&gt;Node4 -->
<g id="edge5_Node000004_Node000005" class="edge">
<title>Node5&#45;&gt;Node4</title>
<g id="a_edge5_Node000004_Node000005"><a xlink:title=" ">
<path fill="none" stroke="#63b8ff" d="M845.14,-164.85C876.11,-156.66 913.9,-146.3 947.5,-136 958.03,-132.77 969.27,-129.08 979.87,-125.49"/>
<polygon fill="#63b8ff" stroke="#63b8ff" points="844.3,-161.45 835.52,-167.37 846.08,-168.22 844.3,-161.45"/>
</a>
</g>
</g>
<!-- Node6 -->
<g id="Node000006" class="node">
<title>Node6</title>
<g id="a_Node000006"><a xlink:href="../../d1/d4f/structmstd_1_1utils_1_1function__core__traits_3_01_r_07_args_8_8_8_08_00_01_c_01_4.html" target="_top" xlink:title=" ">
<polygon fill="white" stroke="#666666" points="607.75,-272 466.5,-272 466.5,-240 607.75,-240 607.75,-272"/>
<text xml:space="preserve" text-anchor="start" x="474.5" y="-258.5" font-family="Helvetica,sans-Serif" font-size="10.00">mstd::utils::function</text>
<text xml:space="preserve" text-anchor="middle" x="537.12" y="-246.5" font-family="Helvetica,sans-Serif" font-size="10.00">_core_traits&lt; R(Args...), C &gt;</text>
</a>
</g>
</g>
<!-- Node6&#45;&gt;Node5 -->
<g id="edge7_Node000005_Node000006" class="edge">
<title>Node6&#45;&gt;Node5</title>
<g id="a_edge7_Node000005_Node000006"><a xlink:title=" ">
<path fill="none" stroke="#63b8ff" d="M618.9,-247.73C647.07,-243.25 678.5,-236.4 706,-226 724.7,-218.93 743.95,-207.06 758.12,-197.28"/>
<polygon fill="#63b8ff" stroke="#63b8ff" points="618.73,-244.22 609.36,-249.17 619.77,-251.14 618.73,-244.22"/>
</a>
</g>
</g>
<!-- Node7 -->
<g id="Node000007" class="node">
<title>Node7</title>
<g id="a_Node000007"><a xlink:href="../../df/db9/structmstd_1_1utils_1_1function__core__traits.html" target="_top" xlink:title=" ">
<polygon fill="white" stroke="#666666" points="328.25,-320 203.5,-320 203.5,-288 328.25,-288 328.25,-320"/>
<text xml:space="preserve" text-anchor="start" x="211.5" y="-306.5" font-family="Helvetica,sans-Serif" font-size="10.00">mstd::utils::function</text>
<text xml:space="preserve" text-anchor="middle" x="265.88" y="-294.5" font-family="Helvetica,sans-Serif" font-size="10.00">_core_traits&lt; R(Args...)&gt;</text>
</a>
</g>
</g>
<!-- Node7&#45;&gt;Node6 -->
<g id="edge8_Node000006_Node000007" class="edge">
<title>Node7&#45;&gt;Node6</title>
<g id="a_edge8_Node000006_Node000007"><a xlink:title=" ">
<path fill="none" stroke="#63b8ff" d="M339.74,-291.01C379.02,-284.01 427.26,-275.41 466.1,-268.48"/>
<polygon fill="#63b8ff" stroke="#63b8ff" points="339.37,-287.52 330.14,-292.72 340.6,-294.41 339.37,-287.52"/>
</a>
</g>
</g>
<!-- Node8 -->
<g id="Node000008" class="node">
<title>Node8</title>
<g id="a_Node000008"><a xlink:href="../../df/db9/structmstd_1_1utils_1_1function__core__traits.html" target="_top" xlink:title=" ">
<polygon fill="white" stroke="#666666" points="103.75,-280 0,-280 0,-248 103.75,-248 103.75,-280"/>
<text xml:space="preserve" text-anchor="start" x="8" y="-266.5" font-family="Helvetica,sans-Serif" font-size="10.00">mstd::utils::function</text>
<text xml:space="preserve" text-anchor="middle" x="51.88" y="-254.5" font-family="Helvetica,sans-Serif" font-size="10.00">_core_traits&lt; F, C &gt;</text>
</a>
</g>
</g>
<!-- Node8&#45;&gt;Node6 -->
<g id="edge10_Node000006_Node000008" class="edge">
<title>Node8&#45;&gt;Node6</title>
<g id="a_edge10_Node000006_Node000008"><a xlink:title=" ">
<path fill="none" stroke="orange" stroke-dasharray="5,2" d="M115.39,-262.69C142.48,-262.14 174.55,-261.51 203.5,-261 294.16,-259.42 398.72,-257.89 466.04,-256.95"/>
<polygon fill="orange" stroke="orange" points="115.55,-259.18 105.63,-262.89 115.7,-266.18 115.55,-259.18"/>
</a>
</g>
<text xml:space="preserve" text-anchor="start" x="228.75" y="-266.5" font-family="Helvetica,sans-Serif" font-size="10.00" fill="grey">&lt; R(Args...), C &gt;</text>
</g>
<!-- Node8&#45;&gt;Node7 -->
<g id="edge9_Node000007_Node000008" class="edge">
<title>Node8&#45;&gt;Node7</title>
<g id="a_edge9_Node000007_Node000008"><a xlink:title=" ">
<path fill="none" stroke="orange" stroke-dasharray="5,2" d="M115.34,-275.79C143.01,-281.01 175.48,-287.13 203.08,-292.34"/>
<polygon fill="orange" stroke="orange" points="116.16,-272.38 105.68,-273.96 114.86,-279.26 116.16,-272.38"/>
</a>
</g>
<text xml:space="preserve" text-anchor="start" x="124.75" y="-294.26" font-family="Helvetica,sans-Serif" font-size="10.00" fill="grey">&lt; R(Args...)&gt;</text>
</g>
<!-- Node9&#45;&gt;Node5 -->
<g id="edge11_Node000005_Node000009" class="edge">
<title>Node9&#45;&gt;Node5</title>
<g id="a_edge11_Node000005_Node000009"><a xlink:title=" ">
<path fill="none" stroke="#63b8ff" d="M460.1,-210.24C522.36,-208.89 621.15,-205.19 706,-195 713.14,-194.14 720.63,-193.01 727.98,-191.75"/>
<polygon fill="#63b8ff" stroke="#63b8ff" points="460.35,-206.73 450.42,-210.43 460.49,-213.73 460.35,-206.73"/>
</a>
</g>
</g>
<!-- Node10&#45;&gt;Node1 -->
<g id="edge16_Node000001_Node000010" class="edge">
<title>Node10&#45;&gt;Node1</title>
<g id="a_edge16_Node000001_Node000010"><a xlink:title=" ">
<path fill="none" stroke="orange" stroke-dasharray="5,2" d="M601.15,-105.34C665.19,-95.79 767.31,-81.29 856,-72 951.09,-62.03 1062.41,-54.7 1126.15,-50.91"/>
<polygon fill="orange" stroke="orange" points="600.91,-101.83 591.54,-106.78 601.95,-108.76 600.91,-101.83"/>
</a>
</g>
<text xml:space="preserve" text-anchor="start" x="859" y="-93.5" font-family="Helvetica,sans-Serif" font-size="10.00" fill="grey">&lt; R(Args...) volatile</text>
<text xml:space="preserve" text-anchor="start" x="859" y="-77.5" font-family="Helvetica,sans-Serif" font-size="10.00" fill="grey">   &amp;&amp;, C &gt;</text>
</g>
<!-- Node10&#45;&gt;Node4 -->
<g id="edge15_Node000004_Node000010" class="edge">
<title>Node10&#45;&gt;Node4</title>
<g id="a_edge15_Node000004_Node000010"><a xlink:title=" ">
<path fill="none" stroke="orange" stroke-dasharray="5,2" d="M601.29,-114.22C695.63,-113.06 872.19,-110.9 965.34,-109.75"/>
<polygon fill="orange" stroke="orange" points="601.4,-110.72 591.44,-114.34 601.48,-117.72 601.4,-110.72"/>
</a>
</g>
<text xml:space="preserve" text-anchor="start" x="727" y="-118.19" font-family="Helvetica,sans-Serif" font-size="10.00" fill="grey">&lt; R(Args...) volatile, C &gt;</text>
</g>
<!-- Node10&#45;&gt;Node5 -->
<g id="edge13_Node000005_Node000010" class="edge">
<title>Node10&#45;&gt;Node5</title>
<g id="a_edge13_Node000005_Node000010"><a xlink:title=" ">
<path fill="none" stroke="orange" stroke-dasharray="5,2" d="M600.84,-124.5C632.73,-130.14 671.86,-138.29 706,-149 719.36,-153.19 733.57,-158.99 745.93,-164.5"/>
<polygon fill="orange" stroke="orange" points="601.83,-121.12 591.38,-122.87 600.64,-128.02 601.83,-121.12"/>
</a>
</g>
<text xml:space="preserve" text-anchor="start" x="628.75" y="-154.5" font-family="Helvetica,sans-Serif" font-size="10.00" fill="grey">&lt; R(Args...), C &gt;</text>
</g>
</g>
</svg>
