<?xml version="1.0" encoding="UTF-8" standalone="no"?>
<!DOCTYPE svg PUBLIC "-//W3C//DTD SVG 1.1//EN"
 "http://www.w3.org/Graphics/SVG/1.1/DTD/svg11.dtd">
<!-- Generated by graphviz version 14.1.1 (20251213.1925)
 -->
<!-- Title: mstd::function_traits&lt; R(Args...) noexcept &gt; Pages: 1 -->
<!--zoomable 218 -->

<svg id="main" version="1.1" xmlns="http://www.w3.org/2000/svg" xmlns:xlink="http://www.w3.org/1999/xlink" xml:space="preserve" onload="init(evt)">

<style type="text/css"><![CDATA[
.node, .edge {opacity: 0.7;}
.node.selected, .edge.selected {opacity: 1;}
.edge:hover path { stroke: red; }
.edge:hover polygon { stroke: red; fill: red; }
]]></style>

<defs>
  <circle id="rim" cx="0" cy="0" r="7"/>
  <circle id="rim2" cx="0" cy="0" r="3.5"/>
  <g id="zoomPlus">
    <use xlink:href="#rim" fill="#404040"><set attributeName="fill" to="#808080" begin="zoomplus.mouseover" end="zoomplus.mouseout"/></use>
    <path d="M-4,0h8M0,-4v8" fill="none" stroke="white" stroke-width="1.5" pointer-events="none"/>
  </g>
  <g id="zoomMin">
    <use xlink:href="#rim" fill="#404040"><set attributeName="fill" to="#808080" begin="zoomminus.mouseover" end="zoomminus.mouseout"/></use>
    <path d="M-4,0h8" fill="none" stroke="white" stroke-width="1.5" pointer-events="none"/>
  </g>
  <g id="arrowUp" transform="translate(30 24)">
    <use xlink:href="#rim"/>
    <path pointer-events="none" fill="none" stroke="white" stroke-width="1.5" d="M0,-3.0v7 M-2.5,-0.5L0,-3.0L2.5,-0.5"/>
  </g>
  <g id="arrowRight" transform="rotate(90) translate(36 -43)">
    <use xlink:href="#rim"/>
    <path pointer-events="none" fill="none" stroke="white" stroke-width="1.5" d="M0,-3.0v7 M-2.5,-0.5L0,-3.0L2.5,-0.5"/>
  </g>
  <g id="arrowDown" transform="rotate(180) translate(-30 -48)">
    <use xlink:href="#rim"/>
    <path pointer-events="none" fill="none" stroke="white" stroke-width="1.5" d="M0,-3.0v7 M-2.5,-0.5L0,-3.0L2.5,-0.5"/>
  </g>
  <g id="arrowLeft" transform="rotate(270) translate(-36 17)">
    <use xlink:href="#rim"/>
    <path pointer-events="none" fill="none" stroke="white" stroke-width="1.5" d="M0,-3.0v7 M-2.5,-0.5L0,-3.0L2.5,-0.5"/>
  </g>
  <g id="resetDef">
    <use xlink:href="#rim2" fill="#404040"><set attributeName="fill" to="#808080" begin="reset.mouseover" end="reset.mouseout"/></use>
  </g>
</defs>
<script type="application/ecmascript">
var viewWidth = 1061;
var viewHeight = 218;
var sectionId = 'dynsection-0';
</script>
<script type="application/ecmascript" xlink:href="../../svg.min.js"/>
<svg id="graph" class="graph">
<g id="viewport">
<title>mstd::function_traits&lt; R(Args...) noexcept &gt;</title>
<!-- Node1 -->
<g id="Node000001" class="node">
<title>Node1</title>
<g id="a_Node000001"><a xlink:title=" ">
<polygon fill="#999999" stroke="#666666" points="877.25,-160 757.75,-160 757.75,-128 877.25,-128 877.25,-160"/>
<text xml:space="preserve" text-anchor="start" x="765.75" y="-146.5" font-family="Helvetica,sans-Serif" font-size="10.00">mstd::function_traits</text>
<text xml:space="preserve" text-anchor="middle" x="817.5" y="-134.5" font-family="Helvetica,sans-Serif" font-size="10.00">&lt; R(Args...) noexcept &gt;</text>
</a>
</g>
</g>
<!-- Node8 -->
<g id="Node000008" class="node">
<title>Node8</title>
<g id="a_Node000008"><a xlink:href="../../d9/d51/structmstd_1_1function__traits_3_01_r_07_6_6_08_07_args_8_8_8_08_01noexcept_01_4.html" target="_top" xlink:title=" ">
<polygon fill="white" stroke="#666666" points="1053.25,-210 914.25,-210 914.25,-178 1053.25,-178 1053.25,-210"/>
<text xml:space="preserve" text-anchor="start" x="922.25" y="-196.5" font-family="Helvetica,sans-Serif" font-size="10.00">mstd::function_traits</text>
<text xml:space="preserve" text-anchor="middle" x="983.75" y="-184.5" font-family="Helvetica,sans-Serif" font-size="10.00">&lt; R(&amp;&amp;)(Args...) noexcept &gt;</text>
</a>
</g>
</g>
<!-- Node1&#45;&gt;Node8 -->
<g id="edge11_Node000001_Node000008" class="edge">
<title>Node1&#45;&gt;Node8</title>
<g id="a_edge11_Node000001_Node000008"><a xlink:title=" ">
<path fill="none" stroke="#63b8ff" d="M883.07,-163.66C898.13,-168.24 914.01,-173.08 928.57,-177.51"/>
<polygon fill="#63b8ff" stroke="#63b8ff" points="884.32,-160.38 873.73,-160.81 882.28,-167.07 884.32,-160.38"/>
</a>
</g>
</g>
<!-- Node9 -->
<g id="Node000009" class="node">
<title>Node9</title>
<g id="a_Node000009"><a xlink:href="../../df/d6a/structmstd_1_1function__traits_3_01_r_07_6_08_07_args_8_8_8_08_01noexcept_01_4.html" target="_top" xlink:title=" ">
<polygon fill="white" stroke="#666666" points="1049.88,-160 917.62,-160 917.62,-128 1049.88,-128 1049.88,-160"/>
<text xml:space="preserve" text-anchor="start" x="925.62" y="-146.5" font-family="Helvetica,sans-Serif" font-size="10.00">mstd::function_traits</text>
<text xml:space="preserve" text-anchor="middle" x="983.75" y="-134.5" font-family="Helvetica,sans-Serif" font-size="10.00">&lt; R(&amp;)(Args...) noexcept &gt;</text>
</a>
</g>
</g>
<!-- Node1&#45;&gt;Node9 -->
<g id="edge12_Node000001_Node000009" class="edge">
<title>Node1&#45;&gt;Node9</title>
<g id="a_edge12_Node000001_Node000009"><a xlink:title=" ">
<path fill="none" stroke="#63b8ff" d="M888.77,-144C898.26,-144 907.96,-144 917.36,-144"/>
<polygon fill="#63b8ff" stroke="#63b8ff" points="888.85,-140.5 878.85,-144 888.85,-147.5 888.85,-140.5"/>
</a>
</g>
</g>
<!-- Node10 -->
<g id="Node000010" class="node">
<title>Node10</title>
<g id="a_Node000010"><a xlink:href="../../d1/dae/structmstd_1_1function__traits_3_01_r_07_5_08_07_args_8_8_8_08_01noexcept_01_4.html" target="_top" xlink:title=" ">
<polygon fill="white" stroke="#666666" points="1048.38,-110 919.12,-110 919.12,-78 1048.38,-78 1048.38,-110"/>
<text xml:space="preserve" text-anchor="start" x="927.12" y="-96.5" font-family="Helvetica,sans-Serif" font-size="10.00">mstd::function_traits</text>
<text xml:space="preserve" text-anchor="middle" x="983.75" y="-84.5" font-family="Helvetica,sans-Serif" font-size="10.00">&lt; R(*)(Args...) noexcept &gt;</text>
</a>
</g>
</g>
<!-- Node1&#45;&gt;Node10 -->
<g id="edge13_Node000001_Node000010" class="edge">
<title>Node1&#45;&gt;Node10</title>
<g id="a_edge13_Node000001_Node000010"><a xlink:title=" ">
<path fill="none" stroke="#63b8ff" d="M883.07,-124.34C898.13,-119.76 914.01,-114.92 928.57,-110.49"/>
<polygon fill="#63b8ff" stroke="#63b8ff" points="882.28,-120.93 873.73,-127.19 884.32,-127.62 882.28,-120.93"/>
</a>
</g>
</g>
<!-- Node2 -->
<g id="Node000002" class="node">
<title>Node2</title>
<g id="a_Node000002"><a xlink:href="../../d0/d74/structmstd_1_1utils_1_1function__default__type__traits.html" target="_top" xlink:title=" ">
<polygon fill="white" stroke="#666666" points="286.25,-114 184,-114 184,-70 286.25,-70 286.25,-114"/>
<text xml:space="preserve" text-anchor="start" x="192" y="-100.5" font-family="Helvetica,sans-Serif" font-size="10.00">mstd::utils::function</text>
<text xml:space="preserve" text-anchor="start" x="192" y="-88.5" font-family="Helvetica,sans-Serif" font-size="10.00">_default_type_traits</text>
<text xml:space="preserve" text-anchor="middle" x="235.12" y="-76.5" font-family="Helvetica,sans-Serif" font-size="10.00">&lt; false &gt;</text>
</a>
</g>
</g>
<!-- Node2&#45;&gt;Node1 -->
<g id="edge1_Node000001_Node000002" class="edge">
<title>Node2&#45;&gt;Node1</title>
<g id="a_edge1_Node000001_Node000002"><a xlink:title=" ">
<path fill="none" stroke="#63b8ff" d="M295.34,-118.83C322.59,-129.8 355.7,-141.26 386.75,-147 532.83,-174.02 572.7,-172.28 720.75,-160 732.68,-159.01 745.35,-157.34 757.44,-155.44"/>
<polygon fill="#63b8ff" stroke="#63b8ff" points="296.8,-115.64 286.22,-115.07 294.13,-122.12 296.8,-115.64"/>
</a>
</g>
</g>
<!-- Node4 -->
<g id="Node000004" class="node">
<title>Node4</title>
<g id="a_Node000004"><a xlink:href="../../d0/dfd/structmstd_1_1function__traits_3_01_r_07_args_8_8_8_08_4.html" target="_top" xlink:title=" ">
<polygon fill="white" stroke="#666666" points="718.62,-85 613.38,-85 613.38,-53 718.62,-53 718.62,-85"/>
<text xml:space="preserve" text-anchor="start" x="621.38" y="-71.5" font-family="Helvetica,sans-Serif" font-size="10.00">mstd::function_traits</text>
<text xml:space="preserve" text-anchor="middle" x="666" y="-59.5" font-family="Helvetica,sans-Serif" font-size="10.00">&lt; R(Args...)&gt;</text>
</a>
</g>
</g>
<!-- Node2&#45;&gt;Node4 -->
<g id="edge4_Node000004_Node000002" class="edge">
<title>Node2&#45;&gt;Node4</title>
<g id="a_edge4_Node000004_Node000002"><a xlink:title=" ">
<path fill="none" stroke="#63b8ff" d="M297.85,-83.78C382.66,-76.68 533.73,-68.68 613.06,-67.19"/>
<polygon fill="#63b8ff" stroke="#63b8ff" points="297.75,-80.28 288.09,-84.62 298.36,-87.25 297.75,-80.28"/>
</a>
</g>
</g>
<!-- Node2&#45;&gt;Node4 -->
<g id="edge7_Node000004_Node000002" class="edge">
<title>Node2&#45;&gt;Node4</title>
<g id="a_edge7_Node000004_Node000002"><a xlink:title=" ">
<path fill="none" stroke="#63b8ff" d="M297.85,-93.6C382.66,-91.61 533.73,-83.4 613.06,-76.38"/>
<polygon fill="#63b8ff" stroke="#63b8ff" points="298.02,-90.09 288.1,-93.8 298.17,-97.09 298.02,-90.09"/>
</a>
</g>
</g>
<!-- Node7 -->
<g id="Node000007" class="node">
<title>Node7</title>
<g id="a_Node000007"><a xlink:href="../../d7/dcb/structmstd_1_1function__traits.html" target="_top" xlink:title=" ">
<polygon fill="white" stroke="#666666" points="501.75,-138 396.5,-138 396.5,-106 501.75,-106 501.75,-138"/>
<text xml:space="preserve" text-anchor="start" x="404.5" y="-124.5" font-family="Helvetica,sans-Serif" font-size="10.00">mstd::function_traits</text>
<text xml:space="preserve" text-anchor="middle" x="449.12" y="-112.5" font-family="Helvetica,sans-Serif" font-size="10.00">&lt; F, C &gt;</text>
</a>
</g>
</g>
<!-- Node2&#45;&gt;Node7 -->
<g id="edge9_Node000007_Node000002" class="edge">
<title>Node2&#45;&gt;Node7</title>
<g id="a_edge9_Node000007_Node000002"><a xlink:title=" ">
<path fill="none" stroke="#63b8ff" d="M297.82,-100.73C329.01,-105.14 366.45,-110.44 396.16,-114.65"/>
<polygon fill="#63b8ff" stroke="#63b8ff" points="298.53,-97.3 288.13,-99.36 297.54,-104.23 298.53,-97.3"/>
</a>
</g>
</g>
<!-- Node3 -->
<g id="Node000003" class="node">
<title>Node3</title>
<g id="a_Node000003"><a xlink:href="../../d0/d74/structmstd_1_1utils_1_1function__default__type__traits.html" target="_top" xlink:title=" ">
<polygon fill="white" stroke="#666666" points="102.25,-114 0,-114 0,-70 102.25,-70 102.25,-114"/>
<text xml:space="preserve" text-anchor="start" x="8" y="-100.5" font-family="Helvetica,sans-Serif" font-size="10.00">mstd::utils::function</text>
<text xml:space="preserve" text-anchor="start" x="8" y="-88.5" font-family="Helvetica,sans-Serif" font-size="10.00">_default_type_traits</text>
<text xml:space="preserve" text-anchor="middle" x="51.12" y="-76.5" font-family="Helvetica,sans-Serif" font-size="10.00">&lt; IsMember &gt;</text>
</a>
</g>
</g>
<!-- Node3&#45;&gt;Node2 -->
<g id="edge2_Node000002_Node000003" class="edge">
<title>Node3&#45;&gt;Node2</title>
<g id="a_edge2_Node000002_Node000003"><a xlink:title=" ">
<path fill="none" stroke="orange" stroke-dasharray="5,2" d="M113.64,-92C136.46,-92 162.05,-92 183.76,-92"/>
<polygon fill="orange" stroke="orange" points="113.85,-88.5 103.85,-92 113.85,-95.5 113.85,-88.5"/>
</a>
</g>
<text xml:space="preserve" text-anchor="start" x="123.25" y="-97.5" font-family="Helvetica,sans-Serif" font-size="10.00" fill="grey">&lt; false &gt;</text>
</g>
<!-- Node4&#45;&gt;Node1 -->
<g id="edge3_Node000001_Node000004" class="edge">
<title>Node4&#45;&gt;Node1</title>
<g id="a_edge3_Node000001_Node000004"><a xlink:title=" ">
<path fill="none" stroke="#63b8ff" d="M709.87,-90.51C733.38,-102.3 762.07,-116.69 783.77,-127.58"/>
<polygon fill="#63b8ff" stroke="#63b8ff" points="711.67,-87.49 701.16,-86.14 708.53,-93.75 711.67,-87.49"/>
</a>
</g>
</g>
<!-- Node5 -->
<g id="Node000005" class="node">
<title>Node5</title>
<g id="a_Node000005"><a xlink:href="../../df/db9/structmstd_1_1utils_1_1function__core__traits.html" target="_top" xlink:title=" ">
<polygon fill="white" stroke="#666666" points="511.5,-32 386.75,-32 386.75,0 511.5,0 511.5,-32"/>
<text xml:space="preserve" text-anchor="start" x="394.75" y="-18.5" font-family="Helvetica,sans-Serif" font-size="10.00">mstd::utils::function</text>
<text xml:space="preserve" text-anchor="middle" x="449.12" y="-6.5" font-family="Helvetica,sans-Serif" font-size="10.00">_core_traits&lt; R(Args...)&gt;</text>
</a>
</g>
</g>
<!-- Node5&#45;&gt;Node4 -->
<g id="edge5_Node000004_Node000005" class="edge">
<title>Node5&#45;&gt;Node4</title>
<g id="a_edge5_Node000004_Node000005"><a xlink:title=" ">
<path fill="none" stroke="#63b8ff" d="M522.99,-29.75C545.62,-34.43 570.57,-40.01 593.25,-46 600.71,-47.97 608.54,-50.26 616.18,-52.61"/>
<polygon fill="#63b8ff" stroke="#63b8ff" points="523.72,-26.33 513.23,-27.76 522.33,-33.19 523.72,-26.33"/>
</a>
</g>
</g>
<!-- Node6 -->
<g id="Node000006" class="node">
<title>Node6</title>
<g id="a_Node000006"><a xlink:href="../../df/db9/structmstd_1_1utils_1_1function__core__traits.html" target="_top" xlink:title=" ">
<polygon fill="white" stroke="#666666" points="287,-32 183.25,-32 183.25,0 287,0 287,-32"/>
<text xml:space="preserve" text-anchor="start" x="191.25" y="-18.5" font-family="Helvetica,sans-Serif" font-size="10.00">mstd::utils::function</text>
<text xml:space="preserve" text-anchor="middle" x="235.12" y="-6.5" font-family="Helvetica,sans-Serif" font-size="10.00">_core_traits&lt; F, C &gt;</text>
</a>
</g>
</g>
<!-- Node6&#45;&gt;Node5 -->
<g id="edge6_Node000005_Node000006" class="edge">
<title>Node6&#45;&gt;Node5</title>
<g id="a_edge6_Node000005_Node000006"><a xlink:title=" ">
<path fill="none" stroke="orange" stroke-dasharray="5,2" d="M298.95,-16C326.55,-16 358.85,-16 386.33,-16"/>
<polygon fill="orange" stroke="orange" points="298.96,-12.5 288.96,-16 298.96,-19.5 298.96,-12.5"/>
</a>
</g>
<text xml:space="preserve" text-anchor="start" x="308" y="-21.5" font-family="Helvetica,sans-Serif" font-size="10.00" fill="grey">&lt; R(Args...)&gt;</text>
</g>
<!-- Node7&#45;&gt;Node1 -->
<g id="edge10_Node000001_Node000007" class="edge">
<title>Node7&#45;&gt;Node1</title>
<g id="a_edge10_Node000001_Node000007"><a xlink:title=" ">
<path fill="none" stroke="orange" stroke-dasharray="5,2" d="M513.71,-125.82C582.26,-129.93 690.5,-136.43 757.29,-140.44"/>
<polygon fill="orange" stroke="orange" points="513.93,-122.33 503.74,-125.22 513.51,-129.31 513.93,-122.33"/>
</a>
</g>
<text xml:space="preserve" text-anchor="start" x="614.25" y="-143.71" font-family="Helvetica,sans-Serif" font-size="10.00" fill="grey">&lt; R(Args...) noexcept &gt;</text>
</g>
<!-- Node7&#45;&gt;Node4 -->
<g id="edge8_Node000004_Node000007" class="edge">
<title>Node7&#45;&gt;Node4</title>
<g id="a_edge8_Node000004_Node000007"><a xlink:title=" ">
<path fill="none" stroke="orange" stroke-dasharray="5,2" d="M513.12,-108.12C538.13,-102.44 567.11,-95.65 593.25,-89 599.64,-87.37 606.33,-85.6 612.95,-83.81"/>
<polygon fill="orange" stroke="orange" points="512.39,-104.7 503.41,-110.31 513.94,-111.53 512.39,-104.7"/>
</a>
</g>
<text xml:space="preserve" text-anchor="start" x="532.5" y="-109.62" font-family="Helvetica,sans-Serif" font-size="10.00" fill="grey">&lt; R(Args...)&gt;</text>
</g>
</g>
</svg>

<g id="navigator" transform="translate(0 0)" fill="#404254">
  <rect fill="#f2f5e9" fill-opacity="0.5" stroke="#606060" stroke-width=".5" x="0" y="0" width="60" height="60"/>
  <use id="zoomplus" xlink:href="#zoomPlus" x="17" y="9" onmousedown="handleZoom(evt,'in')"/>
  <use id="zoomminus" xlink:href="#zoomMin" x="42" y="9" onmousedown="handleZoom(evt,'out')"/>
  <use id="reset" xlink:href="#resetDef" x="30" y="36" onmousedown="handleReset()"/>
   <use id="arrowup" xlink:href="#arrowUp" x="0" y="0" onmousedown="handlePan(0,-1)"/>
  <use id="arrowright" xlink:href="#arrowRight" x="0" y="0" onmousedown="handlePan(1,0)"/>
  <use id="arrowdown" xlink:href="#arrowDown" x="0" y="0" onmousedown="handlePan(0,1)"/>
  <use id="arrowleft" xlink:href="#arrowLeft" x="0" y="0" onmousedown="handlePan(-1,0)"/>
</g>
<svg viewBox="0 0 15 15" width="100%" height="30px" preserveAspectRatio="xMaxYMin meet">
 <g id="arrow_out" transform="scale(0.3 0.3)">
  <a xlink:href="structmstd_1_1function__traits_3_01_r_07_args_8_8_8_08_01noexcept_01_4__inherit__graph_org.svg" target="_base">
   <rect id="button" ry="5" rx="5" y="6" x="6" height="38" width="38"
        fill="#f2f5e9" fill-opacity="0.5" stroke="#606060" stroke-width="1.0"/>
   <path id="arrow"
     d="M 11.500037,31.436501 C 11.940474,20.09759 22.043105,11.32322 32.158766,21.979434 L 37.068811,17.246167 C 37.068811,17.246167 37.088388,32 37.088388,32 L 22.160133,31.978069 C 22.160133,31.978069 26.997745,27.140456 26.997745,27.140456 C 18.528582,18.264221 13.291696,25.230495 11.500037,31.436501 z"
     style="fill:#404040;"/>
  </a>
 </g>
</svg>

<style type='text/css'>
<![CDATA[
[data-mouse-over-selected='false'] { opacity: 0.7; }
[data-mouse-over-selected='true']  { opacity: 1.0; }
]]>
</style>
<script type="application/ecmascript"><![CDATA[
document.addEventListener('DOMContentLoaded', (event) => {
  highlightEdges();
  highlightAdjacentNodes();
});
]]></script>
</svg>
