<?xml version="1.0" encoding="UTF-8" standalone="no"?>
<!DOCTYPE svg PUBLIC "-//W3C//DTD SVG 1.1//EN"
 "http://www.w3.org/Graphics/SVG/1.1/DTD/svg11.dtd">
<!-- Generated by graphviz version 14.1.1 (20251213.1925)
 -->
<!-- Title: mstd::function_traits&lt; R(Args...) noexcept &gt; Pages: 1 -->
<svg width="1061pt" height="218pt"
 viewBox="0.00 0.00 1061.00 218.00" xmlns="http://www.w3.org/2000/svg" xmlns:xlink="http://www.w3.org/1999/xlink">
<g id="graph0" class="graph" transform="scale(1 1) rotate(0) translate(4 214)">
<title>mstd::function_traits&lt; R(Args...) noexcept &gt;</title>
<!-- Node1 -->
<g id="Node000001" class="node">
<title>Node1</title>
<g id="a_Node000001"><a xlink:title=" ">
<polygon fill="#999999" stroke="#666666" points="877.25,-160 757.75,-160 757.75,-128 877.25,-128 877.25,-160"/>
<text xml:space="preserve" text-anchor="start" x="765.75" y="-146.5" font-family="Helvetica,sans-Serif" font-size="10.00">mstd::function_traits</text>
<text xml:space="preserve" text-anchor="middle" x="817.5" y="-134.5" font-family="Helvetica,sans-Serif" font-size="10.00">&lt; R(Args...) noexcept &gt;</text>
</a>
</g>
</g>
<!-- Node8 -->
<g id="Node000008" class="node">
<title>Node8</title>
<g id="a_Node000008"><a xlink:href="../../d9/d51/structmstd_1_1function__traits_3_01_r_07_6_6_08_07_args_8_8_8_08_01noexcept_01_4.html" target="_top" xlink:title=" ">
<polygon fill="white" stroke="#666666" points="1053.25,-210 914.25,-210 914.25,-178 1053.25,-178 1053.25,-210"/>
<text xml:space="preserve" text-anchor="start" x="922.25" y="-196.5" font-family="Helvetica,sans-Serif" font-size="10.00">mstd::function_traits</text>
<text xml:space="preserve" text-anchor="middle" x="983.75" y="-184.5" font-family="Helvetica,sans-Serif" font-size="10.00">&lt; R(&amp;&amp;)(Args...) noexcept &gt;</text>
</a>
</g>
</g>
<!-- Node1&#45;&gt;Node8 -->
<g id="edge11_Node000001_Node000008" class="edge">
<title>Node1&#45;&gt;Node8</title>
<g id="a_edge11_Node000001_Node000008"><a xlink:title=" ">
<path fill="none" stroke="#63b8ff" d="M883.07,-163.66C898.13,-168.24 914.01,-173.08 928.57,-177.51"/>
<polygon fill="#63b8ff" stroke="#63b8ff" points="884.32,-160.38 873.73,-160.81 882.28,-167.07 884.32,-160.38"/>
</a>
</g>
</g>
<!-- Node9 -->
<g id="Node000009" class="node">
<title>Node9</title>
<g id="a_Node000009"><a xlink:href="../../df/d6a/structmstd_1_1function__traits_3_01_r_07_6_08_07_args_8_8_8_08_01noexcept_01_4.html" target="_top" xlink:title=" ">
<polygon fill="white" stroke="#666666" points="1049.88,-160 917.62,-160 917.62,-128 1049.88,-128 1049.88,-160"/>
<text xml:space="preserve" text-anchor="start" x="925.62" y="-146.5" font-family="Helvetica,sans-Serif" font-size="10.00">mstd::function_traits</text>
<text xml:space="preserve" text-anchor="middle" x="983.75" y="-134.5" font-family="Helvetica,sans-Serif" font-size="10.00">&lt; R(&amp;)(Args...) noexcept &gt;</text>
</a>
</g>
</g>
<!-- Node1&#45;&gt;Node9 -->
<g id="edge12_Node000001_Node000009" class="edge">
<title>Node1&#45;&gt;Node9</title>
<g id="a_edge12_Node000001_Node000009"><a xlink:title=" ">
<path fill="none" stroke="#63b8ff" d="M888.77,-144C898.26,-144 907.96,-144 917.36,-144"/>
<polygon fill="#63b8ff" stroke="#63b8ff" points="888.85,-140.5 878.85,-144 888.85,-147.5 888.85,-140.5"/>
</a>
</g>
</g>
<!-- Node10 -->
<g id="Node000010" class="node">
<title>Node10</title>
<g id="a_Node000010"><a xlink:href="../../d1/dae/structmstd_1_1function__traits_3_01_r_07_5_08_07_args_8_8_8_08_01noexcept_01_4.html" target="_top" xlink:title=" ">
<polygon fill="white" stroke="#666666" points="1048.38,-110 919.12,-110 919.12,-78 1048.38,-78 1048.38,-110"/>
<text xml:space="preserve" text-anchor="start" x="927.12" y="-96.5" font-family="Helvetica,sans-Serif" font-size="10.00">mstd::function_traits</text>
<text xml:space="preserve" text-anchor="middle" x="983.75" y="-84.5" font-family="Helvetica,sans-Serif" font-size="10.00">&lt; R(*)(Args...) noexcept &gt;</text>
</a>
</g>
</g>
<!-- Node1&#45;&gt;Node10 -->
<g id="edge13_Node000001_Node000010" class="edge">
<title>Node1&#45;&gt;Node10</title>
<g id="a_edge13_Node000001_Node000010"><a xlink:title=" ">
<path fill="none" stroke="#63b8ff" d="M883.07,-124.34C898.13,-119.76 914.01,-114.92 928.57,-110.49"/>
<polygon fill="#63b8ff" stroke="#63b8ff" points="882.28,-120.93 873.73,-127.19 884.32,-127.62 882.28,-120.93"/>
</a>
</g>
</g>
<!-- Node2 -->
<g id="Node000002" class="node">
<title>Node2</title>
<g id="a_Node000002"><a xlink:href="../../d0/d74/structmstd_1_1utils_1_1function__default__type__traits.html" target="_top" xlink:title=" ">
<polygon fill="white" stroke="#666666" points="286.25,-114 184,-114 184,-70 286.25,-70 286.25,-114"/>
<text xml:space="preserve" text-anchor="start" x="192" y="-100.5" font-family="Helvetica,sans-Serif" font-size="10.00">mstd::utils::function</text>
<text xml:space="preserve" text-anchor="start" x="192" y="-88.5" font-family="Helvetica,sans-Serif" font-size="10.00">_default_type_traits</text>
<text xml:space="preserve" text-anchor="middle" x="235.12" y="-76.5" font-family="Helvetica,sans-Serif" font-size="10.00">&lt; false &gt;</text>
</a>
</g>
</g>
<!-- Node2&#45;&gt;Node1 -->
<g id="edge1_Node000001_Node000002" class="edge">
<title>Node2&#45;&gt;Node1</title>
<g id="a_edge1_Node000001_Node000002"><a xlink:title=" ">
<path fill="none" stroke="#63b8ff" d="M295.34,-118.83C322.59,-129.8 355.7,-141.26 386.75,-147 532.83,-174.02 572.7,-172.28 720.75,-160 732.68,-159.01 745.35,-157.34 757.44,-155.44"/>
<polygon fill="#63b8ff" stroke="#63b8ff" points="296.8,-115.64 286.22,-115.07 294.13,-122.12 296.8,-115.64"/>
</a>
</g>
</g>
<!-- Node4 -->
<g id="Node000004" class="node">
<title>Node4</title>
<g id="a_Node000004"><a xlink:href="../../d0/dfd/structmstd_1_1function__traits_3_01_r_07_args_8_8_8_08_4.html" target="_top" xlink:title=" ">
<polygon fill="white" stroke="#666666" points="718.62,-85 613.38,-85 613.38,-53 718.62,-53 718.62,-85"/>
<text xml:space="preserve" text-anchor="start" x="621.38" y="-71.5" font-family="Helvetica,sans-Serif" font-size="10.00">mstd::function_traits</text>
<text xml:space="preserve" text-anchor="middle" x="666" y="-59.5" font-family="Helvetica,sans-Serif" font-size="10.00">&lt; R(Args...)&gt;</text>
</a>
</g>
</g>
<!-- Node2&#45;&gt;Node4 -->
<g id="edge4_Node000004_Node000002" class="edge">
<title>Node2&#45;&gt;Node4</title>
<g id="a_edge4_Node000004_Node000002"><a xlink:title=" ">
<path fill="none" stroke="#63b8ff" d="M297.85,-83.78C382.66,-76.68 533.73,-68.68 613.06,-67.19"/>
<polygon fill="#63b8ff" stroke="#63b8ff" points="297.75,-80.28 288.09,-84.62 298.36,-87.25 297.75,-80.28"/>
</a>
</g>
</g>
<!-- Node2&#45;&gt;Node4 -->
<g id="edge7_Node000004_Node000002" class="edge">
<title>Node2&#45;&gt;Node4</title>
<g id="a_edge7_Node000004_Node000002"><a xlink:title=" ">
<path fill="none" stroke="#63b8ff" d="M297.85,-93.6C382.66,-91.61 533.73,-83.4 613.06,-76.38"/>
<polygon fill="#63b8ff" stroke="#63b8ff" points="298.02,-90.09 288.1,-93.8 298.17,-97.09 298.02,-90.09"/>
</a>
</g>
</g>
<!-- Node7 -->
<g id="Node000007" class="node">
<title>Node7</title>
<g id="a_Node000007"><a xlink:href="../../d7/dcb/structmstd_1_1function__traits.html" target="_top" xlink:title=" ">
<polygon fill="white" stroke="#666666" points="501.75,-138 396.5,-138 396.5,-106 501.75,-106 501.75,-138"/>
<text xml:space="preserve" text-anchor="start" x="404.5" y="-124.5" font-family="Helvetica,sans-Serif" font-size="10.00">mstd::function_traits</text>
<text xml:space="preserve" text-anchor="middle" x="449.12" y="-112.5" font-family="Helvetica,sans-Serif" font-size="10.00">&lt; F, C &gt;</text>
</a>
</g>
</g>
<!-- Node2&#45;&gt;Node7 -->
<g id="edge9_Node000007_Node000002" class="edge">
<title>Node2&#45;&gt;Node7</title>
<g id="a_edge9_Node000007_Node000002"><a xlink:title=" ">
<path fill="none" stroke="#63b8ff" d="M297.82,-100.73C329.01,-105.14 366.45,-110.44 396.16,-114.65"/>
<polygon fill="#63b8ff" stroke="#63b8ff" points="298.53,-97.3 288.13,-99.36 297.54,-104.23 298.53,-97.3"/>
</a>
</g>
</g>
<!-- Node3 -->
<g id="Node000003" class="node">
<title>Node3</title>
<g id="a_Node000003"><a xlink:href="../../d0/d74/structmstd_1_1utils_1_1function__default__type__traits.html" target="_top" xlink:title=" ">
<polygon fill="white" stroke="#666666" points="102.25,-114 0,-114 0,-70 102.25,-70 102.25,-114"/>
<text xml:space="preserve" text-anchor="start" x="8" y="-100.5" font-family="Helvetica,sans-Serif" font-size="10.00">mstd::utils::function</text>
<text xml:space="preserve" text-anchor="start" x="8" y="-88.5" font-family="Helvetica,sans-Serif" font-size="10.00">_default_type_traits</text>
<text xml:space="preserve" text-anchor="middle" x="51.12" y="-76.5" font-family="Helvetica,sans-Serif" font-size="10.00">&lt; IsMember &gt;</text>
</a>
</g>
</g>
<!-- Node3&#45;&gt;Node2 -->
<g id="edge2_Node000002_Node000003" class="edge">
<title>Node3&#45;&gt;Node2</title>
<g id="a_edge2_Node000002_Node000003"><a xlink:title=" ">
<path fill="none" stroke="orange" stroke-dasharray="5,2" d="M113.64,-92C136.46,-92 162.05,-92 183.76,-92"/>
<polygon fill="orange" stroke="orange" points="113.85,-88.5 103.85,-92 113.85,-95.5 113.85,-88.5"/>
</a>
</g>
<text xml:space="preserve" text-anchor="start" x="123.25" y="-97.5" font-family="Helvetica,sans-Serif" font-size="10.00" fill="grey">&lt; false &gt;</text>
</g>
<!-- Node4&#45;&gt;Node1 -->
<g id="edge3_Node000001_Node000004" class="edge">
<title>Node4&#45;&gt;Node1</title>
<g id="a_edge3_Node000001_Node000004"><a xlink:title=" ">
<path fill="none" stroke="#63b8ff" d="M709.87,-90.51C733.38,-102.3 762.07,-116.69 783.77,-127.58"/>
<polygon fill="#63b8ff" stroke="#63b8ff" points="711.67,-87.49 701.16,-86.14 708.53,-93.75 711.67,-87.49"/>
</a>
</g>
</g>
<!-- Node5 -->
<g id="Node000005" class="node">
<title>Node5</title>
<g id="a_Node000005"><a xlink:href="../../df/db9/structmstd_1_1utils_1_1function__core__traits.html" target="_top" xlink:title=" ">
<polygon fill="white" stroke="#666666" points="511.5,-32 386.75,-32 386.75,0 511.5,0 511.5,-32"/>
<text xml:space="preserve" text-anchor="start" x="394.75" y="-18.5" font-family="Helvetica,sans-Serif" font-size="10.00">mstd::utils::function</text>
<text xml:space="preserve" text-anchor="middle" x="449.12" y="-6.5" font-family="Helvetica,sans-Serif" font-size="10.00">_core_traits&lt; R(Args...)&gt;</text>
</a>
</g>
</g>
<!-- Node5&#45;&gt;Node4 -->
<g id="edge5_Node000004_Node000005" class="edge">
<title>Node5&#45;&gt;Node4</title>
<g id="a_edge5_Node000004_Node000005"><a xlink:title=" ">
<path fill="none" stroke="#63b8ff" d="M522.99,-29.75C545.62,-34.43 570.57,-40.01 593.25,-46 600.71,-47.97 608.54,-50.26 616.18,-52.61"/>
<polygon fill="#63b8ff" stroke="#63b8ff" points="523.72,-26.33 513.23,-27.76 522.33,-33.19 523.72,-26.33"/>
</a>
</g>
</g>
<!-- Node6 -->
<g id="Node000006" class="node">
<title>Node6</title>
<g id="a_Node000006"><a xlink:href="../../df/db9/structmstd_1_1utils_1_1function__core__traits.html" target="_top" xlink:title=" ">
<polygon fill="white" stroke="#666666" points="287,-32 183.25,-32 183.25,0 287,0 287,-32"/>
<text xml:space="preserve" text-anchor="start" x="191.25" y="-18.5" font-family="Helvetica,sans-Serif" font-size="10.00">mstd::utils::function</text>
<text xml:space="preserve" text-anchor="middle" x="235.12" y="-6.5" font-family="Helvetica,sans-Serif" font-size="10.00">_core_traits&lt; F, C &gt;</text>
</a>
</g>
</g>
<!-- Node6&#45;&gt;Node5 -->
<g id="edge6_Node000005_Node000006" class="edge">
<title>Node6&#45;&gt;Node5</title>
<g id="a_edge6_Node000005_Node000006"><a xlink:title=" ">
<path fill="none" stroke="orange" stroke-dasharray="5,2" d="M298.95,-16C326.55,-16 358.85,-16 386.33,-16"/>
<polygon fill="orange" stroke="orange" points="298.96,-12.5 288.96,-16 298.96,-19.5 298.96,-12.5"/>
</a>
</g>
<text xml:space="preserve" text-anchor="start" x="308" y="-21.5" font-family="Helvetica,sans-Serif" font-size="10.00" fill="grey">&lt; R(Args...)&gt;</text>
</g>
<!-- Node7&#45;&gt;Node1 -->
<g id="edge10_Node000001_Node000007" class="edge">
<title>Node7&#45;&gt;Node1</title>
<g id="a_edge10_Node000001_Node000007"><a xlink:title=" ">
<path fill="none" stroke="orange" stroke-dasharray="5,2" d="M513.71,-125.82C582.26,-129.93 690.5,-136.43 757.29,-140.44"/>
<polygon fill="orange" stroke="orange" points="513.93,-122.33 503.74,-125.22 513.51,-129.31 513.93,-122.33"/>
</a>
</g>
<text xml:space="preserve" text-anchor="start" x="614.25" y="-143.71" font-family="Helvetica,sans-Serif" font-size="10.00" fill="grey">&lt; R(Args...) noexcept &gt;</text>
</g>
<!-- Node7&#45;&gt;Node4 -->
<g id="edge8_Node000004_Node000007" class="edge">
<title>Node7&#45;&gt;Node4</title>
<g id="a_edge8_Node000004_Node000007"><a xlink:title=" ">
<path fill="none" stroke="orange" stroke-dasharray="5,2" d="M513.12,-108.12C538.13,-102.44 567.11,-95.65 593.25,-89 599.64,-87.37 606.33,-85.6 612.95,-83.81"/>
<polygon fill="orange" stroke="orange" points="512.39,-104.7 503.41,-110.31 513.94,-111.53 512.39,-104.7"/>
</a>
</g>
<text xml:space="preserve" text-anchor="start" x="532.5" y="-109.62" font-family="Helvetica,sans-Serif" font-size="10.00" fill="grey">&lt; R(Args...)&gt;</text>
</g>
</g>
</svg>
