<?xml version="1.0" encoding="UTF-8" standalone="no"?>
<!DOCTYPE svg PUBLIC "-//W3C//DTD SVG 1.1//EN"
 "http://www.w3.org/Graphics/SVG/1.1/DTD/svg11.dtd">
<!-- Generated by graphviz version 14.1.1 (20251213.1925)
 -->
<!-- Title: mstd::function_traits&lt; R(*)(Args...) noexcept &gt; Pages: 1 -->
<svg width="1170pt" height="262pt"
 viewBox="0.00 0.00 1170.00 262.00" xmlns="http://www.w3.org/2000/svg" xmlns:xlink="http://www.w3.org/1999/xlink">
<g id="graph0" class="graph" transform="scale(1 1) rotate(0) translate(4 258)">
<title>mstd::function_traits&lt; R(*)(Args...) noexcept &gt;</title>
<!-- Node1 -->
<g id="Node000001" class="node">
<title>Node1</title>
<g id="a_Node000001"><a xlink:title=" ">
<polygon fill="#999999" stroke="#666666" points="1161.75,-232 1032.5,-232 1032.5,-200 1161.75,-200 1161.75,-232"/>
<text xml:space="preserve" text-anchor="start" x="1040.5" y="-218.5" font-family="Helvetica,sans-Serif" font-size="10.00">mstd::function_traits</text>
<text xml:space="preserve" text-anchor="middle" x="1097.12" y="-206.5" font-family="Helvetica,sans-Serif" font-size="10.00">&lt; R(*)(Args...) noexcept &gt;</text>
</a>
</g>
</g>
<!-- Node2 -->
<g id="Node000002" class="node">
<title>Node2</title>
<g id="a_Node000002"><a xlink:href="../../d0/d74/structmstd_1_1utils_1_1function__default__type__traits.html" target="_top" xlink:title=" ">
<polygon fill="white" stroke="#666666" points="286.25,-138 184,-138 184,-94 286.25,-94 286.25,-138"/>
<text xml:space="preserve" text-anchor="start" x="192" y="-124.5" font-family="Helvetica,sans-Serif" font-size="10.00">mstd::utils::function</text>
<text xml:space="preserve" text-anchor="start" x="192" y="-112.5" font-family="Helvetica,sans-Serif" font-size="10.00">_default_type_traits</text>
<text xml:space="preserve" text-anchor="middle" x="235.12" y="-100.5" font-family="Helvetica,sans-Serif" font-size="10.00">&lt; false &gt;</text>
</a>
</g>
</g>
<!-- Node2&#45;&gt;Node1 -->
<g id="edge1_Node000001_Node000002" class="edge">
<title>Node2&#45;&gt;Node1</title>
<g id="a_edge1_Node000001_Node000002"><a xlink:title=" ">
<path fill="none" stroke="#63b8ff" d="M261.73,-146.99C298.42,-187.67 370.18,-254 448.12,-254 448.12,-254 448.12,-254 936.75,-254 976.43,-254 1020.19,-242.72 1051.8,-232.45"/>
<polygon fill="#63b8ff" stroke="#63b8ff" points="264.47,-144.8 255.23,-139.61 259.22,-149.43 264.47,-144.8"/>
</a>
</g>
</g>
<!-- Node4 -->
<g id="Node000004" class="node">
<title>Node4</title>
<g id="a_Node000004"><a xlink:href="../../df/d39/structmstd_1_1function__traits_3_01_r_07_args_8_8_8_08_01noexcept_01_4.html" target="_top" xlink:title=" ">
<polygon fill="white" stroke="#666666" points="995.5,-163 876,-163 876,-131 995.5,-131 995.5,-163"/>
<text xml:space="preserve" text-anchor="start" x="884" y="-149.5" font-family="Helvetica,sans-Serif" font-size="10.00">mstd::function_traits</text>
<text xml:space="preserve" text-anchor="middle" x="935.75" y="-137.5" font-family="Helvetica,sans-Serif" font-size="10.00">&lt; R(Args...) noexcept &gt;</text>
</a>
</g>
</g>
<!-- Node2&#45;&gt;Node4 -->
<g id="edge4_Node000004_Node000002" class="edge">
<title>Node2&#45;&gt;Node4</title>
<g id="a_edge4_Node000004_Node000002"><a xlink:title=" ">
<path fill="none" stroke="#63b8ff" d="M298.13,-117.67C369.38,-119.68 489.78,-123.38 593.25,-128 692.32,-132.42 807.46,-139.16 875.54,-143.31"/>
<polygon fill="#63b8ff" stroke="#63b8ff" points="298.31,-114.17 288.22,-117.39 298.11,-121.17 298.31,-114.17"/>
</a>
</g>
</g>
<!-- Node5 -->
<g id="Node000005" class="node">
<title>Node5</title>
<g id="a_Node000005"><a xlink:href="../../d0/dfd/structmstd_1_1function__traits_3_01_r_07_args_8_8_8_08_4.html" target="_top" xlink:title=" ">
<polygon fill="white" stroke="#666666" points="718.62,-85 613.38,-85 613.38,-53 718.62,-53 718.62,-85"/>
<text xml:space="preserve" text-anchor="start" x="621.38" y="-71.5" font-family="Helvetica,sans-Serif" font-size="10.00">mstd::function_traits</text>
<text xml:space="preserve" text-anchor="middle" x="666" y="-59.5" font-family="Helvetica,sans-Serif" font-size="10.00">&lt; R(Args...)&gt;</text>
</a>
</g>
</g>
<!-- Node2&#45;&gt;Node5 -->
<g id="edge6_Node000005_Node000002" class="edge">
<title>Node2&#45;&gt;Node5</title>
<g id="a_edge6_Node000005_Node000002"><a xlink:title=" ">
<path fill="none" stroke="#63b8ff" d="M297.53,-94.17C300.05,-93.75 302.55,-93.36 305,-93 413.98,-76.98 542.73,-67.41 612.92,-65.88"/>
<polygon fill="#63b8ff" stroke="#63b8ff" points="297.12,-90.69 287.91,-95.91 298.37,-97.58 297.12,-90.69"/>
</a>
</g>
</g>
<!-- Node2&#45;&gt;Node5 -->
<g id="edge9_Node000005_Node000002" class="edge">
<title>Node2&#45;&gt;Node5</title>
<g id="a_edge9_Node000005_Node000002"><a xlink:title=" ">
<path fill="none" stroke="#63b8ff" d="M297.53,-112.16C300.05,-111.75 302.55,-111.36 305,-111 413.98,-94.98 542.73,-85.41 612.92,-78.08"/>
<polygon fill="#63b8ff" stroke="#63b8ff" points="297.18,-108.67 287.91,-113.8 298.36,-115.57 297.18,-108.67"/>
</a>
</g>
</g>
<!-- Node8 -->
<g id="Node000008" class="node">
<title>Node8</title>
<g id="a_Node000008"><a xlink:href="../../d7/dcb/structmstd_1_1function__traits.html" target="_top" xlink:title=" ">
<polygon fill="white" stroke="#666666" points="501.75,-186 396.5,-186 396.5,-154 501.75,-154 501.75,-186"/>
<text xml:space="preserve" text-anchor="start" x="404.5" y="-172.5" font-family="Helvetica,sans-Serif" font-size="10.00">mstd::function_traits</text>
<text xml:space="preserve" text-anchor="middle" x="449.12" y="-160.5" font-family="Helvetica,sans-Serif" font-size="10.00">&lt; F, C &gt;</text>
</a>
</g>
</g>
<!-- Node2&#45;&gt;Node8 -->
<g id="edge11_Node000008_Node000002" class="edge">
<title>Node2&#45;&gt;Node8</title>
<g id="a_edge11_Node000008_Node000002"><a xlink:title=" ">
<path fill="none" stroke="#63b8ff" d="M297.41,-131.61C328.69,-139.58 366.32,-149.16 396.16,-156.76"/>
<polygon fill="#63b8ff" stroke="#63b8ff" points="298.66,-128.32 288.1,-129.24 296.93,-135.1 298.66,-128.32"/>
</a>
</g>
</g>
<!-- Node3 -->
<g id="Node000003" class="node">
<title>Node3</title>
<g id="a_Node000003"><a xlink:href="../../d0/d74/structmstd_1_1utils_1_1function__default__type__traits.html" target="_top" xlink:title=" ">
<polygon fill="white" stroke="#666666" points="102.25,-138 0,-138 0,-94 102.25,-94 102.25,-138"/>
<text xml:space="preserve" text-anchor="start" x="8" y="-124.5" font-family="Helvetica,sans-Serif" font-size="10.00">mstd::utils::function</text>
<text xml:space="preserve" text-anchor="start" x="8" y="-112.5" font-family="Helvetica,sans-Serif" font-size="10.00">_default_type_traits</text>
<text xml:space="preserve" text-anchor="middle" x="51.12" y="-100.5" font-family="Helvetica,sans-Serif" font-size="10.00">&lt; IsMember &gt;</text>
</a>
</g>
</g>
<!-- Node3&#45;&gt;Node2 -->
<g id="edge2_Node000002_Node000003" class="edge">
<title>Node3&#45;&gt;Node2</title>
<g id="a_edge2_Node000002_Node000003"><a xlink:title=" ">
<path fill="none" stroke="orange" stroke-dasharray="5,2" d="M113.64,-116C136.46,-116 162.05,-116 183.76,-116"/>
<polygon fill="orange" stroke="orange" points="113.85,-112.5 103.85,-116 113.85,-119.5 113.85,-112.5"/>
</a>
</g>
<text xml:space="preserve" text-anchor="start" x="123.25" y="-121.5" font-family="Helvetica,sans-Serif" font-size="10.00" fill="grey">&lt; false &gt;</text>
</g>
<!-- Node4&#45;&gt;Node1 -->
<g id="edge3_Node000001_Node000004" class="edge">
<title>Node4&#45;&gt;Node1</title>
<g id="a_edge3_Node000001_Node000004"><a xlink:title=" ">
<path fill="none" stroke="#63b8ff" d="M984.95,-167.87C1008.38,-178.01 1036.15,-190.04 1058.07,-199.53"/>
<polygon fill="#63b8ff" stroke="#63b8ff" points="986.48,-164.71 975.91,-163.95 983.69,-171.14 986.48,-164.71"/>
</a>
</g>
</g>
<!-- Node5&#45;&gt;Node4 -->
<g id="edge5_Node000004_Node000005" class="edge">
<title>Node5&#45;&gt;Node4</title>
<g id="a_edge5_Node000004_Node000005"><a xlink:title=" ">
<path fill="none" stroke="#63b8ff" d="M730.46,-73.1C768.41,-77.05 817.04,-84.81 858,-100 877.92,-107.39 898.34,-120.19 913.1,-130.57"/>
<polygon fill="#63b8ff" stroke="#63b8ff" points="730.85,-69.62 720.56,-72.13 730.17,-76.58 730.85,-69.62"/>
</a>
</g>
</g>
<!-- Node6 -->
<g id="Node000006" class="node">
<title>Node6</title>
<g id="a_Node000006"><a xlink:href="../../df/db9/structmstd_1_1utils_1_1function__core__traits.html" target="_top" xlink:title=" ">
<polygon fill="white" stroke="#666666" points="511.5,-32 386.75,-32 386.75,0 511.5,0 511.5,-32"/>
<text xml:space="preserve" text-anchor="start" x="394.75" y="-18.5" font-family="Helvetica,sans-Serif" font-size="10.00">mstd::utils::function</text>
<text xml:space="preserve" text-anchor="middle" x="449.12" y="-6.5" font-family="Helvetica,sans-Serif" font-size="10.00">_core_traits&lt; R(Args...)&gt;</text>
</a>
</g>
</g>
<!-- Node6&#45;&gt;Node5 -->
<g id="edge7_Node000005_Node000006" class="edge">
<title>Node6&#45;&gt;Node5</title>
<g id="a_edge7_Node000005_Node000006"><a xlink:title=" ">
<path fill="none" stroke="#63b8ff" d="M522.99,-29.75C545.62,-34.43 570.57,-40.01 593.25,-46 600.71,-47.97 608.54,-50.26 616.18,-52.61"/>
<polygon fill="#63b8ff" stroke="#63b8ff" points="523.72,-26.33 513.23,-27.76 522.33,-33.19 523.72,-26.33"/>
</a>
</g>
</g>
<!-- Node7 -->
<g id="Node000007" class="node">
<title>Node7</title>
<g id="a_Node000007"><a xlink:href="../../df/db9/structmstd_1_1utils_1_1function__core__traits.html" target="_top" xlink:title=" ">
<polygon fill="white" stroke="#666666" points="287,-32 183.25,-32 183.25,0 287,0 287,-32"/>
<text xml:space="preserve" text-anchor="start" x="191.25" y="-18.5" font-family="Helvetica,sans-Serif" font-size="10.00">mstd::utils::function</text>
<text xml:space="preserve" text-anchor="middle" x="235.12" y="-6.5" font-family="Helvetica,sans-Serif" font-size="10.00">_core_traits&lt; F, C &gt;</text>
</a>
</g>
</g>
<!-- Node7&#45;&gt;Node6 -->
<g id="edge8_Node000006_Node000007" class="edge">
<title>Node7&#45;&gt;Node6</title>
<g id="a_edge8_Node000006_Node000007"><a xlink:title=" ">
<path fill="none" stroke="orange" stroke-dasharray="5,2" d="M298.95,-16C326.55,-16 358.85,-16 386.33,-16"/>
<polygon fill="orange" stroke="orange" points="298.96,-12.5 288.96,-16 298.96,-19.5 298.96,-12.5"/>
</a>
</g>
<text xml:space="preserve" text-anchor="start" x="308" y="-21.5" font-family="Helvetica,sans-Serif" font-size="10.00" fill="grey">&lt; R(Args...)&gt;</text>
</g>
<!-- Node8&#45;&gt;Node1 -->
<g id="edge13_Node000001_Node000008" class="edge">
<title>Node8&#45;&gt;Node1</title>
<g id="a_edge13_Node000001_Node000008"><a xlink:title=" ">
<path fill="none" stroke="orange" stroke-dasharray="5,2" d="M513.35,-177.44C518.81,-178 524.25,-178.53 529.5,-179 711.64,-195.26 927.33,-207.39 1032.32,-212.83"/>
<polygon fill="orange" stroke="orange" points="514,-173.99 503.68,-176.42 513.26,-180.95 514,-173.99"/>
</a>
</g>
<text xml:space="preserve" text-anchor="start" x="741.75" y="-208.25" font-family="Helvetica,sans-Serif" font-size="10.00" fill="grey">&lt; R(*)(Args...) noexcept &gt;</text>
</g>
<!-- Node8&#45;&gt;Node4 -->
<g id="edge12_Node000004_Node000008" class="edge">
<title>Node8&#45;&gt;Node4</title>
<g id="a_edge12_Node000004_Node000008"><a xlink:title=" ">
<path fill="none" stroke="orange" stroke-dasharray="5,2" d="M513.35,-167C607.67,-162.52 783.94,-154.16 875.75,-149.8"/>
<polygon fill="orange" stroke="orange" points="513.32,-163.5 503.5,-167.47 513.65,-170.49 513.32,-163.5"/>
</a>
</g>
<text xml:space="preserve" text-anchor="start" x="614.25" y="-167.77" font-family="Helvetica,sans-Serif" font-size="10.00" fill="grey">&lt; R(Args...) noexcept &gt;</text>
</g>
<!-- Node8&#45;&gt;Node5 -->
<g id="edge10_Node000005_Node000008" class="edge">
<title>Node8&#45;&gt;Node5</title>
<g id="a_edge10_Node000005_Node000008"><a xlink:title=" ">
<path fill="none" stroke="orange" stroke-dasharray="5,2" d="M495.44,-148.7C535.58,-129.83 593.34,-102.68 630.01,-85.45"/>
<polygon fill="orange" stroke="orange" points="494.06,-145.48 486.5,-152.9 497.04,-151.82 494.06,-145.48"/>
</a>
</g>
<text xml:space="preserve" text-anchor="start" x="532.5" y="-137.02" font-family="Helvetica,sans-Serif" font-size="10.00" fill="grey">&lt; R(Args...)&gt;</text>
</g>
</g>
</svg>
