<?xml version="1.0" encoding="UTF-8" standalone="no"?>
<!DOCTYPE svg PUBLIC "-//W3C//DTD SVG 1.1//EN"
 "http://www.w3.org/Graphics/SVG/1.1/DTD/svg11.dtd">
<!-- Generated by graphviz version 14.1.1 (20251213.1925)
 -->
<!-- Title: mstd::function_traits&lt; R(C::*)(Args...) volatile &amp;noexcept &gt; Pages: 1 -->
<svg width="1647pt" height="388pt"
 viewBox="0.00 0.00 1647.00 388.00" xmlns="http://www.w3.org/2000/svg" xmlns:xlink="http://www.w3.org/1999/xlink">
<g id="graph0" class="graph" transform="scale(1 1) rotate(0) translate(4 384)">
<title>mstd::function_traits&lt; R(C::*)(Args...) volatile &amp;noexcept &gt;</title>
<!-- Node1 -->
<g id="Node000001" class="node">
<title>Node1</title>
<g id="a_Node000001"><a xlink:title=" ">
<polygon fill="#999999" stroke="#666666" points="1639,-216 1514.25,-216 1514.25,-172 1639,-172 1639,-216"/>
<text xml:space="preserve" text-anchor="start" x="1522.25" y="-202.5" font-family="Helvetica,sans-Serif" font-size="10.00">mstd::function_traits</text>
<text xml:space="preserve" text-anchor="start" x="1522.25" y="-190.5" font-family="Helvetica,sans-Serif" font-size="10.00">&lt; R(C::*)(Args...) volatile</text>
<text xml:space="preserve" text-anchor="middle" x="1576.62" y="-178.5" font-family="Helvetica,sans-Serif" font-size="10.00"> &amp;noexcept &gt;</text>
</a>
</g>
</g>
<!-- Node2 -->
<g id="Node000002" class="node">
<title>Node2</title>
<g id="a_Node000002"><a xlink:href="../../d0/d74/structmstd_1_1utils_1_1function__default__type__traits.html" target="_top" xlink:title=" ">
<polygon fill="white" stroke="#666666" points="317,-308 214.75,-308 214.75,-264 317,-264 317,-308"/>
<text xml:space="preserve" text-anchor="start" x="222.75" y="-294.5" font-family="Helvetica,sans-Serif" font-size="10.00">mstd::utils::function</text>
<text xml:space="preserve" text-anchor="start" x="222.75" y="-282.5" font-family="Helvetica,sans-Serif" font-size="10.00">_default_type_traits</text>
<text xml:space="preserve" text-anchor="middle" x="265.88" y="-270.5" font-family="Helvetica,sans-Serif" font-size="10.00">&lt; false &gt;</text>
</a>
</g>
</g>
<!-- Node2&#45;&gt;Node1 -->
<g id="edge1_Node000001_Node000002" class="edge">
<title>Node2&#45;&gt;Node1</title>
<g id="a_edge1_Node000001_Node000002"><a xlink:title=" ">
<path fill="none" stroke="#63b8ff" d="M304.85,-314.88C317.48,-323.37 331.97,-331.98 346.25,-338 425.9,-371.56 449.7,-380 536.12,-380 536.12,-380 536.12,-380 1425.62,-380 1508.8,-380 1553.7,-265.91 1569.26,-216.44"/>
<polygon fill="#63b8ff" stroke="#63b8ff" points="307.04,-312.15 296.83,-309.32 303.05,-317.9 307.04,-312.15"/>
</a>
</g>
</g>
<!-- Node4 -->
<g id="Node000004" class="node">
<title>Node4</title>
<g id="a_Node000004"><a xlink:href="../../d1/df3/structmstd_1_1function__traits_3_01_r_07_args_8_8_8_08_01volatile_01_6noexcept_00_01_c_01_4.html" target="_top" xlink:title=" ">
<polygon fill="white" stroke="#666666" points="1477.25,-216 1372,-216 1372,-172 1477.25,-172 1477.25,-216"/>
<text xml:space="preserve" text-anchor="start" x="1380" y="-202.5" font-family="Helvetica,sans-Serif" font-size="10.00">mstd::function_traits</text>
<text xml:space="preserve" text-anchor="start" x="1380" y="-190.5" font-family="Helvetica,sans-Serif" font-size="10.00">&lt; R(Args...) volatile</text>
<text xml:space="preserve" text-anchor="middle" x="1424.62" y="-178.5" font-family="Helvetica,sans-Serif" font-size="10.00"> &amp;noexcept, C &gt;</text>
</a>
</g>
</g>
<!-- Node2&#45;&gt;Node4 -->
<g id="edge4_Node000004_Node000002" class="edge">
<title>Node2&#45;&gt;Node4</title>
<g id="a_edge4_Node000004_Node000002"><a xlink:title=" ">
<path fill="none" stroke="#63b8ff" d="M328.18,-307.15C334.25,-308.92 340.35,-310.58 346.25,-312 429.31,-332.03 450.69,-342 536.12,-342 536.12,-342 536.12,-342 1283.38,-342 1351.69,-342 1396.72,-257.88 1414.74,-216.48"/>
<polygon fill="#63b8ff" stroke="#63b8ff" points="329.37,-303.86 318.79,-304.3 327.34,-310.56 329.37,-303.86"/>
</a>
</g>
</g>
<!-- Node5 -->
<g id="Node000005" class="node">
<title>Node5</title>
<g id="a_Node000005"><a xlink:href="../../de/dcb/structmstd_1_1function__traits_3_01_r_07_args_8_8_8_08_01volatile_01_6_00_01_c_01_4.html" target="_top" xlink:title=" ">
<polygon fill="white" stroke="#666666" points="1335,-216 1229.75,-216 1229.75,-172 1335,-172 1335,-216"/>
<text xml:space="preserve" text-anchor="start" x="1237.75" y="-202.5" font-family="Helvetica,sans-Serif" font-size="10.00">mstd::function_traits</text>
<text xml:space="preserve" text-anchor="start" x="1237.75" y="-190.5" font-family="Helvetica,sans-Serif" font-size="10.00">&lt; R(Args...) volatile</text>
<text xml:space="preserve" text-anchor="middle" x="1282.38" y="-178.5" font-family="Helvetica,sans-Serif" font-size="10.00"> &amp;, C &gt;</text>
</a>
</g>
</g>
<!-- Node2&#45;&gt;Node5 -->
<g id="edge6_Node000005_Node000002" class="edge">
<title>Node2&#45;&gt;Node5</title>
<g id="a_edge6_Node000005_Node000002"><a xlink:title=" ">
<path fill="none" stroke="#63b8ff" d="M328.63,-292.48C383.16,-297.64 464.83,-304 536.12,-304 536.12,-304 536.12,-304 1028.5,-304 1115.63,-304 1206.69,-248.4 1252.04,-216.26"/>
<polygon fill="#63b8ff" stroke="#63b8ff" points="329.22,-289.02 318.93,-291.55 328.55,-295.99 329.22,-289.02"/>
</a>
</g>
</g>
<!-- Node6 -->
<g id="Node000006" class="node">
<title>Node6</title>
<g id="a_Node000006"><a xlink:href="../../d0/d52/structmstd_1_1function__traits_3_01_r_07_args_8_8_8_08_01volatile_00_01_c_01_4.html" target="_top" xlink:title=" ">
<polygon fill="white" stroke="#666666" points="1089.5,-210 965.5,-210 965.5,-178 1089.5,-178 1089.5,-210"/>
<text xml:space="preserve" text-anchor="start" x="973.5" y="-196.5" font-family="Helvetica,sans-Serif" font-size="10.00">mstd::function_traits</text>
<text xml:space="preserve" text-anchor="middle" x="1027.5" y="-184.5" font-family="Helvetica,sans-Serif" font-size="10.00">&lt; R(Args...) volatile, C &gt;</text>
</a>
</g>
</g>
<!-- Node2&#45;&gt;Node6 -->
<g id="edge8_Node000006_Node000002" class="edge">
<title>Node2&#45;&gt;Node6</title>
<g id="a_edge8_Node000006_Node000002"><a xlink:title=" ">
<path fill="none" stroke="#63b8ff" d="M328.85,-280.18C448.65,-268.65 720.27,-241.12 947.5,-208 953.29,-207.16 959.3,-206.21 965.32,-205.22"/>
<polygon fill="#63b8ff" stroke="#63b8ff" points="328.52,-276.7 318.9,-281.14 329.18,-283.67 328.52,-276.7"/>
</a>
</g>
</g>
<!-- Node7 -->
<g id="Node000007" class="node">
<title>Node7</title>
<g id="a_Node000007"><a xlink:href="../../dd/db6/structmstd_1_1function__traits_3_01_r_07_args_8_8_8_08_00_01_c_01_4.html" target="_top" xlink:title=" ">
<polygon fill="white" stroke="#666666" points="833.62,-210 728.38,-210 728.38,-178 833.62,-178 833.62,-210"/>
<text xml:space="preserve" text-anchor="start" x="736.38" y="-196.5" font-family="Helvetica,sans-Serif" font-size="10.00">mstd::function_traits</text>
<text xml:space="preserve" text-anchor="middle" x="781" y="-184.5" font-family="Helvetica,sans-Serif" font-size="10.00">&lt; R(Args...), C &gt;</text>
</a>
</g>
</g>
<!-- Node2&#45;&gt;Node7 -->
<g id="edge10_Node000007_Node000002" class="edge">
<title>Node2&#45;&gt;Node7</title>
<g id="a_edge10_Node000007_Node000002"><a xlink:title=" ">
<path fill="none" stroke="#63b8ff" d="M324.14,-259.31C331.48,-256.54 338.97,-254.01 346.25,-252 501.77,-209.18 546.13,-225.47 706,-204 713.2,-203.03 720.78,-202.01 728.25,-201"/>
<polygon fill="#63b8ff" stroke="#63b8ff" points="322.96,-256.02 314.95,-262.96 325.54,-262.52 322.96,-256.02"/>
</a>
</g>
</g>
<!-- Node12 -->
<g id="Node000012" class="node">
<title>Node12</title>
<g id="a_Node000012"><a xlink:href="../../d7/dcb/structmstd_1_1function__traits.html" target="_top" xlink:title=" ">
<polygon fill="white" stroke="#666666" points="589.75,-108 484.5,-108 484.5,-76 589.75,-76 589.75,-108"/>
<text xml:space="preserve" text-anchor="start" x="492.5" y="-94.5" font-family="Helvetica,sans-Serif" font-size="10.00">mstd::function_traits</text>
<text xml:space="preserve" text-anchor="middle" x="537.12" y="-82.5" font-family="Helvetica,sans-Serif" font-size="10.00">&lt; F, C &gt;</text>
</a>
</g>
</g>
<!-- Node2&#45;&gt;Node12 -->
<g id="edge18_Node000012_Node000002" class="edge">
<title>Node2&#45;&gt;Node12</title>
<g id="a_edge18_Node000012_Node000002"><a xlink:title=" ">
<path fill="none" stroke="#63b8ff" d="M325.59,-258.41C326.53,-257.32 327.42,-256.18 328.25,-255 365.16,-202.65 300.5,-156.83 346.25,-112 381.88,-77.08 441.24,-76.31 484.12,-81.6"/>
<polygon fill="#63b8ff" stroke="#63b8ff" points="323.47,-255.6 318.59,-265 328.27,-260.69 323.47,-255.6"/>
</a>
</g>
</g>
<!-- Node3 -->
<g id="Node000003" class="node">
<title>Node3</title>
<g id="a_Node000003"><a xlink:href="../../d0/d74/structmstd_1_1utils_1_1function__default__type__traits.html" target="_top" xlink:title=" ">
<polygon fill="white" stroke="#666666" points="103,-288 0.75,-288 0.75,-244 103,-244 103,-288"/>
<text xml:space="preserve" text-anchor="start" x="8.75" y="-274.5" font-family="Helvetica,sans-Serif" font-size="10.00">mstd::utils::function</text>
<text xml:space="preserve" text-anchor="start" x="8.75" y="-262.5" font-family="Helvetica,sans-Serif" font-size="10.00">_default_type_traits</text>
<text xml:space="preserve" text-anchor="middle" x="51.88" y="-250.5" font-family="Helvetica,sans-Serif" font-size="10.00">&lt; IsMember &gt;</text>
</a>
</g>
</g>
<!-- Node3&#45;&gt;Node2 -->
<g id="edge2_Node000002_Node000003" class="edge">
<title>Node3&#45;&gt;Node2</title>
<g id="a_edge2_Node000002_Node000003"><a xlink:title=" ">
<path fill="none" stroke="orange" stroke-dasharray="5,2" d="M114.74,-271.84C146.42,-274.82 184.5,-278.42 214.39,-281.24"/>
<polygon fill="orange" stroke="orange" points="115.18,-268.36 104.89,-270.91 114.52,-275.33 115.18,-268.36"/>
</a>
</g>
<text xml:space="preserve" text-anchor="start" x="134.12" y="-283.88" font-family="Helvetica,sans-Serif" font-size="10.00" fill="grey">&lt; false &gt;</text>
</g>
<!-- Node11 -->
<g id="Node000011" class="node">
<title>Node11</title>
<g id="a_Node000011"><a xlink:href="../../d0/d74/structmstd_1_1utils_1_1function__default__type__traits.html" target="_top" xlink:title=" ">
<polygon fill="white" stroke="#666666" points="448.5,-159 346.25,-159 346.25,-115 448.5,-115 448.5,-159"/>
<text xml:space="preserve" text-anchor="start" x="354.25" y="-145.5" font-family="Helvetica,sans-Serif" font-size="10.00">mstd::utils::function</text>
<text xml:space="preserve" text-anchor="start" x="354.25" y="-133.5" font-family="Helvetica,sans-Serif" font-size="10.00">_default_type_traits</text>
<text xml:space="preserve" text-anchor="middle" x="397.38" y="-121.5" font-family="Helvetica,sans-Serif" font-size="10.00">&lt; true &gt;</text>
</a>
</g>
</g>
<!-- Node3&#45;&gt;Node11 -->
<g id="edge16_Node000011_Node000003" class="edge">
<title>Node3&#45;&gt;Node11</title>
<g id="a_edge16_Node000011_Node000003"><a xlink:title=" ">
<path fill="none" stroke="orange" stroke-dasharray="5,2" d="M85.45,-235.47C91.88,-228.71 98.31,-221.35 103.75,-214 113.69,-200.57 108.8,-191.56 121.75,-181 185.37,-129.12 285.6,-126.74 345.76,-131"/>
<polygon fill="orange" stroke="orange" points="82.95,-233.02 78.44,-242.61 87.95,-237.93 82.95,-233.02"/>
</a>
</g>
<text xml:space="preserve" text-anchor="start" x="136.38" y="-186.5" font-family="Helvetica,sans-Serif" font-size="10.00" fill="grey">&lt; true &gt;</text>
</g>
<!-- Node4&#45;&gt;Node1 -->
<g id="edge3_Node000001_Node000004" class="edge">
<title>Node4&#45;&gt;Node1</title>
<g id="a_edge3_Node000001_Node000004"><a xlink:title=" ">
<path fill="none" stroke="#63b8ff" d="M1489.1,-194C1497.3,-194 1505.7,-194 1513.87,-194"/>
<polygon fill="#63b8ff" stroke="#63b8ff" points="1489.18,-190.5 1479.18,-194 1489.18,-197.5 1489.18,-190.5"/>
</a>
</g>
</g>
<!-- Node5&#45;&gt;Node4 -->
<g id="edge5_Node000004_Node000005" class="edge">
<title>Node5&#45;&gt;Node4</title>
<g id="a_edge5_Node000004_Node000005"><a xlink:title=" ">
<path fill="none" stroke="#63b8ff" d="M1346.49,-194C1354.87,-194 1363.38,-194 1371.54,-194"/>
<polygon fill="#63b8ff" stroke="#63b8ff" points="1346.71,-190.5 1336.71,-194 1346.71,-197.5 1346.71,-190.5"/>
</a>
</g>
</g>
<!-- Node6&#45;&gt;Node5 -->
<g id="edge7_Node000005_Node000006" class="edge">
<title>Node6&#45;&gt;Node5</title>
<g id="a_edge7_Node000005_Node000006"><a xlink:title=" ">
<path fill="none" stroke="#63b8ff" d="M1101,-194C1141.96,-194 1192.22,-194 1229.27,-194"/>
<polygon fill="#63b8ff" stroke="#63b8ff" points="1101.23,-190.5 1091.23,-194 1101.23,-197.5 1101.23,-190.5"/>
</a>
</g>
</g>
<!-- Node7&#45;&gt;Node6 -->
<g id="edge9_Node000006_Node000007" class="edge">
<title>Node7&#45;&gt;Node6</title>
<g id="a_edge9_Node000006_Node000007"><a xlink:title=" ">
<path fill="none" stroke="#63b8ff" d="M845,-194C881.99,-194 928.53,-194 965.22,-194"/>
<polygon fill="#63b8ff" stroke="#63b8ff" points="845.37,-190.5 835.37,-194 845.37,-197.5 845.37,-190.5"/>
</a>
</g>
</g>
<!-- Node8 -->
<g id="Node000008" class="node">
<title>Node8</title>
<g id="a_Node000008"><a xlink:href="../../d1/d4f/structmstd_1_1utils_1_1function__core__traits_3_01_r_07_args_8_8_8_08_00_01_c_01_4.html" target="_top" xlink:title=" ">
<polygon fill="white" stroke="#666666" points="607.75,-200 466.5,-200 466.5,-168 607.75,-168 607.75,-200"/>
<text xml:space="preserve" text-anchor="start" x="474.5" y="-186.5" font-family="Helvetica,sans-Serif" font-size="10.00">mstd::utils::function</text>
<text xml:space="preserve" text-anchor="middle" x="537.12" y="-174.5" font-family="Helvetica,sans-Serif" font-size="10.00">_core_traits&lt; R(Args...), C &gt;</text>
</a>
</g>
</g>
<!-- Node8&#45;&gt;Node7 -->
<g id="edge11_Node000007_Node000008" class="edge">
<title>Node8&#45;&gt;Node7</title>
<g id="a_edge11_Node000007_Node000008"><a xlink:title=" ">
<path fill="none" stroke="#63b8ff" d="M619.44,-188.71C621.56,-188.81 623.67,-188.91 625.75,-189 659.88,-190.53 698.27,-191.77 728.22,-192.64"/>
<polygon fill="#63b8ff" stroke="#63b8ff" points="619.62,-185.21 609.46,-188.21 619.27,-192.2 619.62,-185.21"/>
</a>
</g>
</g>
<!-- Node9 -->
<g id="Node000009" class="node">
<title>Node9</title>
<g id="a_Node000009"><a xlink:href="../../df/db9/structmstd_1_1utils_1_1function__core__traits.html" target="_top" xlink:title=" ">
<polygon fill="white" stroke="#666666" points="328.25,-246 203.5,-246 203.5,-214 328.25,-214 328.25,-246"/>
<text xml:space="preserve" text-anchor="start" x="211.5" y="-232.5" font-family="Helvetica,sans-Serif" font-size="10.00">mstd::utils::function</text>
<text xml:space="preserve" text-anchor="middle" x="265.88" y="-220.5" font-family="Helvetica,sans-Serif" font-size="10.00">_core_traits&lt; R(Args...)&gt;</text>
</a>
</g>
</g>
<!-- Node9&#45;&gt;Node8 -->
<g id="edge12_Node000008_Node000009" class="edge">
<title>Node9&#45;&gt;Node8</title>
<g id="a_edge12_Node000008_Node000009"><a xlink:title=" ">
<path fill="none" stroke="#63b8ff" d="M339.99,-217.51C379.22,-210.81 427.34,-202.59 466.1,-195.96"/>
<polygon fill="#63b8ff" stroke="#63b8ff" points="339.41,-214.06 330.14,-219.19 340.58,-220.96 339.41,-214.06"/>
</a>
</g>
</g>
<!-- Node10 -->
<g id="Node000010" class="node">
<title>Node10</title>
<g id="a_Node000010"><a xlink:href="../../df/db9/structmstd_1_1utils_1_1function__core__traits.html" target="_top" xlink:title=" ">
<polygon fill="white" stroke="#666666" points="103.75,-205 0,-205 0,-173 103.75,-173 103.75,-205"/>
<text xml:space="preserve" text-anchor="start" x="8" y="-191.5" font-family="Helvetica,sans-Serif" font-size="10.00">mstd::utils::function</text>
<text xml:space="preserve" text-anchor="middle" x="51.88" y="-179.5" font-family="Helvetica,sans-Serif" font-size="10.00">_core_traits&lt; F, C &gt;</text>
</a>
</g>
</g>
<!-- Node10&#45;&gt;Node8 -->
<g id="edge14_Node000008_Node000010" class="edge">
<title>Node10&#45;&gt;Node8</title>
<g id="a_edge14_Node000008_Node000010"><a xlink:title=" ">
<path fill="none" stroke="orange" stroke-dasharray="5,2" d="M115.39,-188.11C142.48,-187.74 174.55,-187.32 203.5,-187 294.16,-185.99 398.73,-185.09 466.04,-184.55"/>
<polygon fill="orange" stroke="orange" points="115.58,-184.61 105.63,-188.24 115.68,-191.61 115.58,-184.61"/>
</a>
</g>
<text xml:space="preserve" text-anchor="start" x="228.75" y="-192.5" font-family="Helvetica,sans-Serif" font-size="10.00" fill="grey">&lt; R(Args...), C &gt;</text>
</g>
<!-- Node10&#45;&gt;Node9 -->
<g id="edge13_Node000009_Node000010" class="edge">
<title>Node10&#45;&gt;Node9</title>
<g id="a_edge13_Node000009_Node000010"><a xlink:title=" ">
<path fill="none" stroke="orange" stroke-dasharray="5,2" d="M115.34,-201.08C143.01,-206.43 175.48,-212.71 203.08,-218.05"/>
<polygon fill="orange" stroke="orange" points="116.16,-197.67 105.68,-199.21 114.83,-204.55 116.16,-197.67"/>
</a>
</g>
<text xml:space="preserve" text-anchor="start" x="124.75" y="-219.88" font-family="Helvetica,sans-Serif" font-size="10.00" fill="grey">&lt; R(Args...)&gt;</text>
</g>
<!-- Node11&#45;&gt;Node7 -->
<g id="edge15_Node000007_Node000011" class="edge">
<title>Node11&#45;&gt;Node7</title>
<g id="a_edge15_Node000007_Node000011"><a xlink:title=" ">
<path fill="none" stroke="#63b8ff" d="M460.05,-140.77C501.96,-144 558.52,-149.64 607.75,-159 615.91,-160.55 617.67,-162.09 625.75,-164 659.61,-171.98 698,-179.45 728.01,-184.94"/>
<polygon fill="#63b8ff" stroke="#63b8ff" points="460.38,-137.29 450.15,-140.04 459.86,-144.27 460.38,-137.29"/>
</a>
</g>
</g>
<!-- Node12&#45;&gt;Node1 -->
<g id="edge22_Node000001_Node000012" class="edge">
<title>Node12&#45;&gt;Node1</title>
<g id="a_edge22_Node000001_Node000012"><a xlink:title=" ">
<path fill="none" stroke="orange" stroke-dasharray="5,2" d="M572.73,-69.66C618.32,-42.43 701.89,0 780,0 780,0 780,0 1425.62,0 1511.62,0 1555.3,-120.79 1569.9,-171.75"/>
<polygon fill="orange" stroke="orange" points="571.07,-66.57 564.35,-74.76 574.71,-72.55 571.07,-66.57"/>
</a>
</g>
<text xml:space="preserve" text-anchor="start" x="1110.5" y="-21.5" font-family="Helvetica,sans-Serif" font-size="10.00" fill="grey">&lt; R(C::*)(Args...)</text>
<text xml:space="preserve" text-anchor="start" x="1110.5" y="-5.5" font-family="Helvetica,sans-Serif" font-size="10.00" fill="grey">   volatile &amp;noexcept &gt;</text>
</g>
<!-- Node12&#45;&gt;Node4 -->
<g id="edge21_Node000004_Node000012" class="edge">
<title>Node12&#45;&gt;Node4</title>
<g id="a_edge21_Node000004_Node000012"><a xlink:title=" ">
<path fill="none" stroke="orange" stroke-dasharray="5,2" d="M600.97,-74.58C649.48,-62.66 718.47,-49 780,-49 780,-49 780,-49 1283.38,-49 1350.79,-49 1396.12,-130.99 1414.46,-171.66"/>
<polygon fill="orange" stroke="orange" points="600.34,-71.13 591.49,-76.95 602.04,-77.92 600.34,-71.13"/>
</a>
</g>
<text xml:space="preserve" text-anchor="start" x="984.75" y="-70.5" font-family="Helvetica,sans-Serif" font-size="10.00" fill="grey">&lt; R(Args...) volatile</text>
<text xml:space="preserve" text-anchor="start" x="984.75" y="-54.5" font-family="Helvetica,sans-Serif" font-size="10.00" fill="grey">   &amp;noexcept, C &gt;</text>
</g>
<!-- Node12&#45;&gt;Node5 -->
<g id="edge20_Node000005_Node000012" class="edge">
<title>Node12&#45;&gt;Node5</title>
<g id="a_edge20_Node000005_Node000012"><a xlink:title=" ">
<path fill="none" stroke="orange" stroke-dasharray="5,2" d="M601.55,-92.62C682.3,-94.16 825.93,-99.39 947.5,-117 1048.47,-131.62 1163.99,-161.21 1229.26,-179.15"/>
<polygon fill="orange" stroke="orange" points="601.68,-89.13 591.62,-92.45 601.56,-96.13 601.68,-89.13"/>
</a>
</g>
<text xml:space="preserve" text-anchor="start" x="859" y="-138.5" font-family="Helvetica,sans-Serif" font-size="10.00" fill="grey">&lt; R(Args...) volatile</text>
<text xml:space="preserve" text-anchor="start" x="859" y="-122.5" font-family="Helvetica,sans-Serif" font-size="10.00" fill="grey">   &amp;, C &gt;</text>
</g>
<!-- Node12&#45;&gt;Node6 -->
<g id="edge19_Node000006_Node000012" class="edge">
<title>Node12&#45;&gt;Node6</title>
<g id="a_edge19_Node000006_Node000012"><a xlink:title=" ">
<path fill="none" stroke="orange" stroke-dasharray="5,2" d="M601.17,-103.83C661.93,-115.37 756.4,-133.67 838,-151 880.52,-160.03 928.26,-170.93 965.05,-179.49"/>
<polygon fill="orange" stroke="orange" points="602.19,-100.47 591.72,-102.04 600.89,-107.34 602.19,-100.47"/>
</a>
</g>
<text xml:space="preserve" text-anchor="start" x="727" y="-156.5" font-family="Helvetica,sans-Serif" font-size="10.00" fill="grey">&lt; R(Args...) volatile, C &gt;</text>
</g>
<!-- Node12&#45;&gt;Node7 -->
<g id="edge17_Node000007_Node000012" class="edge">
<title>Node12&#45;&gt;Node7</title>
<g id="a_edge17_Node000007_Node000012"><a xlink:title=" ">
<path fill="none" stroke="orange" stroke-dasharray="5,2" d="M593.79,-112.27C604.37,-115.95 615.37,-119.68 625.75,-123 661.09,-134.3 672.23,-130.63 706,-146 716.17,-150.63 738.81,-165.59 756.39,-177.59"/>
<polygon fill="orange" stroke="orange" points="595,-108.98 584.4,-108.96 592.67,-115.58 595,-108.98"/>
</a>
</g>
<text xml:space="preserve" text-anchor="start" x="628.75" y="-151.5" font-family="Helvetica,sans-Serif" font-size="10.00" fill="grey">&lt; R(Args...), C &gt;</text>
</g>
</g>
</svg>
