<?xml version="1.0" encoding="UTF-8" standalone="no"?>
<!DOCTYPE svg PUBLIC "-//W3C//DTD SVG 1.1//EN"
 "http://www.w3.org/Graphics/SVG/1.1/DTD/svg11.dtd">
<!-- Generated by graphviz version 14.1.1 (20251213.1925)
 -->
<!-- Title: mstd::is_same_function&lt; F, F, std::void_t&lt; std::enable_if_t&lt; is_function_v&lt; F &gt; &gt; &gt; &gt; Pages: 1 -->
<svg width="289pt" height="239pt"
 viewBox="0.00 0.00 289.00 239.00" xmlns="http://www.w3.org/2000/svg" xmlns:xlink="http://www.w3.org/1999/xlink">
<g id="graph0" class="graph" transform="scale(1 1) rotate(0) translate(4 235)">
<title>mstd::is_same_function&lt; F, F, std::void_t&lt; std::enable_if_t&lt; is_function_v&lt; F &gt; &gt; &gt; &gt;</title>
<!-- Node1 -->
<g id="Node000001" class="node">
<title>Node1</title>
<g id="a_Node000001"><a xlink:title=" ">
<polygon fill="#999999" stroke="#666666" points="167,-56 41.5,-56 41.5,0 167,0 167,-56"/>
<text xml:space="preserve" text-anchor="start" x="49.5" y="-42.5" font-family="Helvetica,sans-Serif" font-size="10.00">mstd::is_same_function</text>
<text xml:space="preserve" text-anchor="start" x="49.5" y="-30.5" font-family="Helvetica,sans-Serif" font-size="10.00">&lt; F, F, std::void_t&lt; std</text>
<text xml:space="preserve" text-anchor="start" x="49.5" y="-18.5" font-family="Helvetica,sans-Serif" font-size="10.00">::enable_if_t&lt; is_function</text>
<text xml:space="preserve" text-anchor="middle" x="104.25" y="-6.5" font-family="Helvetica,sans-Serif" font-size="10.00">_v&lt; F &gt; &gt; &gt; &gt;</text>
</a>
</g>
</g>
<!-- Node2 -->
<g id="Node000002" class="node">
<title>Node2</title>
<g id="a_Node000002"><a xlink:title=" ">
<polygon fill="white" stroke="#666666" points="80.5,-231 0,-231 0,-211 80.5,-211 80.5,-231"/>
<text xml:space="preserve" text-anchor="middle" x="40.25" y="-217.5" font-family="Helvetica,sans-Serif" font-size="10.00">std::false_type</text>
</a>
</g>
</g>
<!-- Node2&#45;&gt;Node1 -->
<g id="edge1_Node000001_Node000002" class="edge">
<title>Node2&#45;&gt;Node1</title>
<g id="a_edge1_Node000001_Node000002"><a xlink:title=" ">
<path fill="none" stroke="#63b8ff" d="M40,-199.48C40.3,-183.52 41.83,-160.98 47.25,-142 56.12,-110.94 73.6,-78.29 86.88,-56.12"/>
<polygon fill="#63b8ff" stroke="#63b8ff" points="36.5,-199.15 39.97,-209.16 43.5,-199.17 36.5,-199.15"/>
</a>
</g>
</g>
<!-- Node4 -->
<g id="Node000004" class="node">
<title>Node4</title>
<g id="a_Node000004"><a xlink:href="../../d6/d67/structmstd_1_1is__same__function.html" target="_top" xlink:title=" ">
<polygon fill="white" stroke="#666666" points="176.38,-174 56.12,-174 56.12,-142 176.38,-142 176.38,-174"/>
<text xml:space="preserve" text-anchor="start" x="64.12" y="-160.5" font-family="Helvetica,sans-Serif" font-size="10.00">mstd::is_same_function</text>
<text xml:space="preserve" text-anchor="middle" x="116.25" y="-148.5" font-family="Helvetica,sans-Serif" font-size="10.00">&lt; Fa, Fb, class &gt;</text>
</a>
</g>
</g>
<!-- Node2&#45;&gt;Node4 -->
<g id="edge4_Node000004_Node000002" class="edge">
<title>Node2&#45;&gt;Node4</title>
<g id="a_edge4_Node000004_Node000002"><a xlink:title=" ">
<path fill="none" stroke="#63b8ff" d="M60.58,-203.68C71.95,-194.55 86.04,-183.25 97.2,-174.29"/>
<polygon fill="#63b8ff" stroke="#63b8ff" points="58.58,-200.8 52.97,-209.79 62.96,-206.26 58.58,-200.8"/>
</a>
</g>
</g>
<!-- Node3 -->
<g id="Node000003" class="node">
<title>Node3</title>
<g id="a_Node000003"><a xlink:title=" ">
<polygon fill="white" stroke="#666666" points="281.25,-168 205.25,-168 205.25,-148 281.25,-148 281.25,-168"/>
<text xml:space="preserve" text-anchor="middle" x="243.25" y="-154.5" font-family="Helvetica,sans-Serif" font-size="10.00">std::true_type</text>
</a>
</g>
</g>
<!-- Node3&#45;&gt;Node1 -->
<g id="edge2_Node000001_Node000003" class="edge">
<title>Node3&#45;&gt;Node1</title>
<g id="a_edge2_Node000001_Node000003"><a xlink:title=" ">
<path fill="none" stroke="#63b8ff" d="M245.23,-136.06C245.81,-117.67 243.65,-91.23 229.25,-74 213.72,-55.42 189.9,-44.51 167.2,-38.1"/>
<polygon fill="#63b8ff" stroke="#63b8ff" points="241.74,-135.83 244.59,-146.03 248.72,-136.28 241.74,-135.83"/>
</a>
</g>
</g>
<!-- Node4&#45;&gt;Node1 -->
<g id="edge3_Node000001_Node000004" class="edge">
<title>Node4&#45;&gt;Node1</title>
<g id="a_edge3_Node000001_Node000004"><a xlink:title=" ">
<path fill="none" stroke="orange" stroke-dasharray="5,2" d="M106.93,-130.79C106.36,-128.51 105.87,-126.23 105.5,-124 101.76,-101.38 101.71,-75.32 102.45,-56.22"/>
<polygon fill="orange" stroke="orange" points="103.57,-131.77 109.8,-140.35 110.28,-129.76 103.57,-131.77"/>
</a>
</g>
<text xml:space="preserve" text-anchor="start" x="108.5" y="-111.5" font-family="Helvetica,sans-Serif" font-size="10.00" fill="grey">&lt; F, F, std::void_t</text>
<text xml:space="preserve" text-anchor="start" x="108.5" y="-95.5" font-family="Helvetica,sans-Serif" font-size="10.00" fill="grey">  &lt; std::enable_if_t&lt;</text>
<text xml:space="preserve" text-anchor="start" x="108.5" y="-79.5" font-family="Helvetica,sans-Serif" font-size="10.00" fill="grey">   is_function_v&lt; F &gt; &gt; &gt; &gt;</text>
</g>
</g>
</svg>
