<?xml version="1.0" encoding="UTF-8" standalone="no"?>
<!DOCTYPE svg PUBLIC "-//W3C//DTD SVG 1.1//EN"
 "http://www.w3.org/Graphics/SVG/1.1/DTD/svg11.dtd">
<!-- Generated by graphviz version 14.1.1 (20251213.1925)
 -->
<!-- Title: mstd::function_traits&lt; R(Args...) const volatile &amp;&amp;noexcept, C &gt; Pages: 1 -->
<svg width="1875pt" height="388pt"
 viewBox="0.00 0.00 1875.00 388.00" xmlns="http://www.w3.org/2000/svg" xmlns:xlink="http://www.w3.org/1999/xlink">
<g id="graph0" class="graph" transform="scale(1 1) rotate(0) translate(4 384)">
<title>mstd::function_traits&lt; R(Args...) const volatile &amp;&amp;noexcept, C &gt;</title>
<!-- Node1 -->
<g id="Node000001" class="node">
<title>Node1</title>
<g id="a_Node000001"><a xlink:title=" ">
<polygon fill="#999999" stroke="#666666" points="1711.75,-216 1583.25,-216 1583.25,-172 1711.75,-172 1711.75,-216"/>
<text xml:space="preserve" text-anchor="start" x="1591.25" y="-202.5" font-family="Helvetica,sans-Serif" font-size="10.00">mstd::function_traits</text>
<text xml:space="preserve" text-anchor="start" x="1591.25" y="-190.5" font-family="Helvetica,sans-Serif" font-size="10.00">&lt; R(Args...) const volatile</text>
<text xml:space="preserve" text-anchor="middle" x="1647.5" y="-178.5" font-family="Helvetica,sans-Serif" font-size="10.00"> &amp;&amp;noexcept, C &gt;</text>
</a>
</g>
</g>
<!-- Node13 -->
<g id="Node000013" class="node">
<title>Node13</title>
<g id="a_Node000013"><a xlink:href="../../d9/d7d/structmstd_1_1function__traits_3_01_r_07_c_1_1_5_08_07_args_8_8_8_08_01const_01volatile_01_6_6noexcept_01_4.html" target="_top" xlink:title=" ">
<polygon fill="white" stroke="#666666" points="1866.75,-216 1748.75,-216 1748.75,-172 1866.75,-172 1866.75,-216"/>
<text xml:space="preserve" text-anchor="start" x="1756.75" y="-202.5" font-family="Helvetica,sans-Serif" font-size="10.00">mstd::function_traits</text>
<text xml:space="preserve" text-anchor="start" x="1756.75" y="-190.5" font-family="Helvetica,sans-Serif" font-size="10.00">&lt; R(C::*)(Args...) const</text>
<text xml:space="preserve" text-anchor="middle" x="1807.75" y="-178.5" font-family="Helvetica,sans-Serif" font-size="10.00"> volatile &amp;&amp;noexcept &gt;</text>
</a>
</g>
</g>
<!-- Node1&#45;&gt;Node13 -->
<g id="edge23_Node000001_Node000013" class="edge">
<title>Node1&#45;&gt;Node13</title>
<g id="a_edge23_Node000001_Node000013"><a xlink:title=" ">
<path fill="none" stroke="#63b8ff" d="M1723.35,-194C1731.77,-194 1740.25,-194 1748.41,-194"/>
<polygon fill="#63b8ff" stroke="#63b8ff" points="1723.47,-190.5 1713.47,-194 1723.47,-197.5 1723.47,-190.5"/>
</a>
</g>
</g>
<!-- Node2 -->
<g id="Node000002" class="node">
<title>Node2</title>
<g id="a_Node000002"><a xlink:href="../../d0/d74/structmstd_1_1utils_1_1function__default__type__traits.html" target="_top" xlink:title=" ">
<polygon fill="white" stroke="#666666" points="317,-308 214.75,-308 214.75,-264 317,-264 317,-308"/>
<text xml:space="preserve" text-anchor="start" x="222.75" y="-294.5" font-family="Helvetica,sans-Serif" font-size="10.00">mstd::utils::function</text>
<text xml:space="preserve" text-anchor="start" x="222.75" y="-282.5" font-family="Helvetica,sans-Serif" font-size="10.00">_default_type_traits</text>
<text xml:space="preserve" text-anchor="middle" x="265.88" y="-270.5" font-family="Helvetica,sans-Serif" font-size="10.00">&lt; false &gt;</text>
</a>
</g>
</g>
<!-- Node2&#45;&gt;Node1 -->
<g id="edge1_Node000001_Node000002" class="edge">
<title>Node2&#45;&gt;Node1</title>
<g id="a_edge1_Node000001_Node000002"><a xlink:title=" ">
<path fill="none" stroke="#63b8ff" d="M304.85,-314.88C317.48,-323.37 331.97,-331.98 346.25,-338 425.9,-371.56 449.7,-380 536.12,-380 536.12,-380 536.12,-380 1483,-380 1569.2,-380 1620.67,-265.91 1638.93,-216.44"/>
<polygon fill="#63b8ff" stroke="#63b8ff" points="307.04,-312.15 296.83,-309.32 303.05,-317.9 307.04,-312.15"/>
</a>
</g>
</g>
<!-- Node4 -->
<g id="Node000004" class="node">
<title>Node4</title>
<g id="a_Node000004"><a xlink:href="../../d7/d15/structmstd_1_1function__traits_3_01_r_07_args_8_8_8_08_01const_01volatile_01_6_6_00_01_c_01_4.html" target="_top" xlink:title=" ">
<polygon fill="white" stroke="#666666" points="1546.25,-216 1417.75,-216 1417.75,-172 1546.25,-172 1546.25,-216"/>
<text xml:space="preserve" text-anchor="start" x="1425.75" y="-202.5" font-family="Helvetica,sans-Serif" font-size="10.00">mstd::function_traits</text>
<text xml:space="preserve" text-anchor="start" x="1425.75" y="-190.5" font-family="Helvetica,sans-Serif" font-size="10.00">&lt; R(Args...) const volatile</text>
<text xml:space="preserve" text-anchor="middle" x="1482" y="-178.5" font-family="Helvetica,sans-Serif" font-size="10.00"> &amp;&amp;, C &gt;</text>
</a>
</g>
</g>
<!-- Node2&#45;&gt;Node4 -->
<g id="edge4_Node000004_Node000002" class="edge">
<title>Node2&#45;&gt;Node4</title>
<g id="a_edge4_Node000004_Node000002"><a xlink:title=" ">
<path fill="none" stroke="#63b8ff" d="M328.18,-307.15C334.25,-308.92 340.35,-310.58 346.25,-312 429.31,-332.03 450.69,-342 536.12,-342 536.12,-342 536.12,-342 1306.25,-342 1382.98,-342 1443.34,-257.88 1468.4,-216.48"/>
<polygon fill="#63b8ff" stroke="#63b8ff" points="329.37,-303.86 318.79,-304.3 327.34,-310.56 329.37,-303.86"/>
</a>
</g>
</g>
<!-- Node5 -->
<g id="Node000005" class="node">
<title>Node5</title>
<g id="a_Node000005"><a xlink:href="../../da/d58/structmstd_1_1function__traits_3_01_r_07_args_8_8_8_08_01const_01volatile_00_01_c_01_4.html" target="_top" xlink:title=" ">
<polygon fill="white" stroke="#666666" points="1380.75,-210 1229.75,-210 1229.75,-178 1380.75,-178 1380.75,-210"/>
<text xml:space="preserve" text-anchor="start" x="1237.75" y="-196.5" font-family="Helvetica,sans-Serif" font-size="10.00">mstd::function_traits</text>
<text xml:space="preserve" text-anchor="middle" x="1305.25" y="-184.5" font-family="Helvetica,sans-Serif" font-size="10.00">&lt; R(Args...) const volatile, C &gt;</text>
</a>
</g>
</g>
<!-- Node2&#45;&gt;Node5 -->
<g id="edge6_Node000005_Node000002" class="edge">
<title>Node2&#45;&gt;Node5</title>
<g id="a_edge6_Node000005_Node000002"><a xlink:title=" ">
<path fill="none" stroke="#63b8ff" d="M328.63,-292.48C383.16,-297.64 464.83,-304 536.12,-304 536.12,-304 536.12,-304 1011.62,-304 1116.64,-304 1230.09,-241.15 1279.22,-210.47"/>
<polygon fill="#63b8ff" stroke="#63b8ff" points="329.22,-289.02 318.93,-291.55 328.55,-295.99 329.22,-289.02"/>
</a>
</g>
</g>
<!-- Node6 -->
<g id="Node000006" class="node">
<title>Node6</title>
<g id="a_Node000006"><a xlink:href="../../df/d15/structmstd_1_1function__traits_3_01_r_07_args_8_8_8_08_01const_00_01_c_01_4.html" target="_top" xlink:title=" ">
<polygon fill="white" stroke="#666666" points="1069.25,-210 952,-210 952,-178 1069.25,-178 1069.25,-210"/>
<text xml:space="preserve" text-anchor="start" x="960" y="-196.5" font-family="Helvetica,sans-Serif" font-size="10.00">mstd::function_traits</text>
<text xml:space="preserve" text-anchor="middle" x="1010.62" y="-184.5" font-family="Helvetica,sans-Serif" font-size="10.00">&lt; R(Args...) const, C &gt;</text>
</a>
</g>
</g>
<!-- Node2&#45;&gt;Node6 -->
<g id="edge8_Node000006_Node000002" class="edge">
<title>Node2&#45;&gt;Node6</title>
<g id="a_edge8_Node000006_Node000002"><a xlink:title=" ">
<path fill="none" stroke="#63b8ff" d="M328.52,-280.18C446.43,-268.74 711.94,-241.5 934,-208 939.81,-207.12 945.86,-206.13 951.89,-205.1"/>
<polygon fill="#63b8ff" stroke="#63b8ff" points="328.36,-276.68 318.75,-281.12 329.04,-283.65 328.36,-276.68"/>
</a>
</g>
</g>
<!-- Node7 -->
<g id="Node000007" class="node">
<title>Node7</title>
<g id="a_Node000007"><a xlink:href="../../dd/db6/structmstd_1_1function__traits_3_01_r_07_args_8_8_8_08_00_01_c_01_4.html" target="_top" xlink:title=" ">
<polygon fill="white" stroke="#666666" points="830.25,-210 725,-210 725,-178 830.25,-178 830.25,-210"/>
<text xml:space="preserve" text-anchor="start" x="733" y="-196.5" font-family="Helvetica,sans-Serif" font-size="10.00">mstd::function_traits</text>
<text xml:space="preserve" text-anchor="middle" x="777.62" y="-184.5" font-family="Helvetica,sans-Serif" font-size="10.00">&lt; R(Args...), C &gt;</text>
</a>
</g>
</g>
<!-- Node2&#45;&gt;Node7 -->
<g id="edge10_Node000007_Node000002" class="edge">
<title>Node2&#45;&gt;Node7</title>
<g id="a_edge10_Node000007_Node000002"><a xlink:title=" ">
<path fill="none" stroke="#63b8ff" d="M324.14,-259.31C331.48,-256.54 338.97,-254.01 346.25,-252 501.77,-209.18 546.2,-225.97 706,-204 712.01,-203.17 718.31,-202.3 724.56,-201.42"/>
<polygon fill="#63b8ff" stroke="#63b8ff" points="322.96,-256.02 314.95,-262.96 325.54,-262.52 322.96,-256.02"/>
</a>
</g>
</g>
<!-- Node12 -->
<g id="Node000012" class="node">
<title>Node12</title>
<g id="a_Node000012"><a xlink:href="../../d7/dcb/structmstd_1_1function__traits.html" target="_top" xlink:title=" ">
<polygon fill="white" stroke="#666666" points="589.75,-108 484.5,-108 484.5,-76 589.75,-76 589.75,-108"/>
<text xml:space="preserve" text-anchor="start" x="492.5" y="-94.5" font-family="Helvetica,sans-Serif" font-size="10.00">mstd::function_traits</text>
<text xml:space="preserve" text-anchor="middle" x="537.12" y="-82.5" font-family="Helvetica,sans-Serif" font-size="10.00">&lt; F, C &gt;</text>
</a>
</g>
</g>
<!-- Node2&#45;&gt;Node12 -->
<g id="edge18_Node000012_Node000002" class="edge">
<title>Node2&#45;&gt;Node12</title>
<g id="a_edge18_Node000012_Node000002"><a xlink:title=" ">
<path fill="none" stroke="#63b8ff" d="M325.59,-258.41C326.53,-257.32 327.42,-256.18 328.25,-255 365.16,-202.65 300.5,-156.83 346.25,-112 381.88,-77.08 441.24,-76.31 484.12,-81.6"/>
<polygon fill="#63b8ff" stroke="#63b8ff" points="323.47,-255.6 318.59,-265 328.27,-260.69 323.47,-255.6"/>
</a>
</g>
</g>
<!-- Node3 -->
<g id="Node000003" class="node">
<title>Node3</title>
<g id="a_Node000003"><a xlink:href="../../d0/d74/structmstd_1_1utils_1_1function__default__type__traits.html" target="_top" xlink:title=" ">
<polygon fill="white" stroke="#666666" points="103,-288 0.75,-288 0.75,-244 103,-244 103,-288"/>
<text xml:space="preserve" text-anchor="start" x="8.75" y="-274.5" font-family="Helvetica,sans-Serif" font-size="10.00">mstd::utils::function</text>
<text xml:space="preserve" text-anchor="start" x="8.75" y="-262.5" font-family="Helvetica,sans-Serif" font-size="10.00">_default_type_traits</text>
<text xml:space="preserve" text-anchor="middle" x="51.88" y="-250.5" font-family="Helvetica,sans-Serif" font-size="10.00">&lt; IsMember &gt;</text>
</a>
</g>
</g>
<!-- Node3&#45;&gt;Node2 -->
<g id="edge2_Node000002_Node000003" class="edge">
<title>Node3&#45;&gt;Node2</title>
<g id="a_edge2_Node000002_Node000003"><a xlink:title=" ">
<path fill="none" stroke="orange" stroke-dasharray="5,2" d="M114.74,-271.84C146.42,-274.82 184.5,-278.42 214.39,-281.24"/>
<polygon fill="orange" stroke="orange" points="115.18,-268.36 104.89,-270.91 114.52,-275.33 115.18,-268.36"/>
</a>
</g>
<text xml:space="preserve" text-anchor="start" x="134.12" y="-283.88" font-family="Helvetica,sans-Serif" font-size="10.00" fill="grey">&lt; false &gt;</text>
</g>
<!-- Node11 -->
<g id="Node000011" class="node">
<title>Node11</title>
<g id="a_Node000011"><a xlink:href="../../d0/d74/structmstd_1_1utils_1_1function__default__type__traits.html" target="_top" xlink:title=" ">
<polygon fill="white" stroke="#666666" points="448.5,-159 346.25,-159 346.25,-115 448.5,-115 448.5,-159"/>
<text xml:space="preserve" text-anchor="start" x="354.25" y="-145.5" font-family="Helvetica,sans-Serif" font-size="10.00">mstd::utils::function</text>
<text xml:space="preserve" text-anchor="start" x="354.25" y="-133.5" font-family="Helvetica,sans-Serif" font-size="10.00">_default_type_traits</text>
<text xml:space="preserve" text-anchor="middle" x="397.38" y="-121.5" font-family="Helvetica,sans-Serif" font-size="10.00">&lt; true &gt;</text>
</a>
</g>
</g>
<!-- Node3&#45;&gt;Node11 -->
<g id="edge16_Node000011_Node000003" class="edge">
<title>Node3&#45;&gt;Node11</title>
<g id="a_edge16_Node000011_Node000003"><a xlink:title=" ">
<path fill="none" stroke="orange" stroke-dasharray="5,2" d="M85.45,-235.47C91.88,-228.71 98.31,-221.35 103.75,-214 113.69,-200.57 108.8,-191.56 121.75,-181 185.37,-129.12 285.6,-126.74 345.76,-131"/>
<polygon fill="orange" stroke="orange" points="82.95,-233.02 78.44,-242.61 87.95,-237.93 82.95,-233.02"/>
</a>
</g>
<text xml:space="preserve" text-anchor="start" x="136.38" y="-186.5" font-family="Helvetica,sans-Serif" font-size="10.00" fill="grey">&lt; true &gt;</text>
</g>
<!-- Node4&#45;&gt;Node1 -->
<g id="edge3_Node000001_Node000004" class="edge">
<title>Node4&#45;&gt;Node1</title>
<g id="a_edge3_Node000001_Node000004"><a xlink:title=" ">
<path fill="none" stroke="#63b8ff" d="M1557.99,-194C1566.34,-194 1574.8,-194 1582.99,-194"/>
<polygon fill="#63b8ff" stroke="#63b8ff" points="1558.2,-190.5 1548.2,-194 1558.2,-197.5 1558.2,-190.5"/>
</a>
</g>
</g>
<!-- Node5&#45;&gt;Node4 -->
<g id="edge5_Node000004_Node000005" class="edge">
<title>Node5&#45;&gt;Node4</title>
<g id="a_edge5_Node000004_Node000005"><a xlink:title=" ">
<path fill="none" stroke="#63b8ff" d="M1392.48,-194C1400.83,-194 1409.2,-194 1417.28,-194"/>
<polygon fill="#63b8ff" stroke="#63b8ff" points="1392.63,-190.5 1382.63,-194 1392.63,-197.5 1392.63,-190.5"/>
</a>
</g>
</g>
<!-- Node6&#45;&gt;Node5 -->
<g id="edge7_Node000005_Node000006" class="edge">
<title>Node6&#45;&gt;Node5</title>
<g id="a_edge7_Node000005_Node000006"><a xlink:title=" ">
<path fill="none" stroke="#63b8ff" d="M1080.78,-194C1125.45,-194 1183.57,-194 1229.33,-194"/>
<polygon fill="#63b8ff" stroke="#63b8ff" points="1080.95,-190.5 1070.95,-194 1080.95,-197.5 1080.95,-190.5"/>
</a>
</g>
</g>
<!-- Node7&#45;&gt;Node6 -->
<g id="edge9_Node000006_Node000007" class="edge">
<title>Node7&#45;&gt;Node6</title>
<g id="a_edge9_Node000006_Node000007"><a xlink:title=" ">
<path fill="none" stroke="#63b8ff" d="M841.8,-194C876.17,-194 918.38,-194 951.87,-194"/>
<polygon fill="#63b8ff" stroke="#63b8ff" points="841.98,-190.5 831.98,-194 841.98,-197.5 841.98,-190.5"/>
</a>
</g>
</g>
<!-- Node8 -->
<g id="Node000008" class="node">
<title>Node8</title>
<g id="a_Node000008"><a xlink:href="../../d1/d4f/structmstd_1_1utils_1_1function__core__traits_3_01_r_07_args_8_8_8_08_00_01_c_01_4.html" target="_top" xlink:title=" ">
<polygon fill="white" stroke="#666666" points="607.75,-200 466.5,-200 466.5,-168 607.75,-168 607.75,-200"/>
<text xml:space="preserve" text-anchor="start" x="474.5" y="-186.5" font-family="Helvetica,sans-Serif" font-size="10.00">mstd::utils::function</text>
<text xml:space="preserve" text-anchor="middle" x="537.12" y="-174.5" font-family="Helvetica,sans-Serif" font-size="10.00">_core_traits&lt; R(Args...), C &gt;</text>
</a>
</g>
</g>
<!-- Node8&#45;&gt;Node7 -->
<g id="edge11_Node000007_Node000008" class="edge">
<title>Node8&#45;&gt;Node7</title>
<g id="a_edge11_Node000007_Node000008"><a xlink:title=" ">
<path fill="none" stroke="#63b8ff" d="M619.44,-188.71C621.56,-188.81 623.67,-188.91 625.75,-189 658.61,-190.48 695.51,-191.71 724.59,-192.58"/>
<polygon fill="#63b8ff" stroke="#63b8ff" points="619.62,-185.21 609.46,-188.21 619.27,-192.2 619.62,-185.21"/>
</a>
</g>
</g>
<!-- Node9 -->
<g id="Node000009" class="node">
<title>Node9</title>
<g id="a_Node000009"><a xlink:href="../../df/db9/structmstd_1_1utils_1_1function__core__traits.html" target="_top" xlink:title=" ">
<polygon fill="white" stroke="#666666" points="328.25,-246 203.5,-246 203.5,-214 328.25,-214 328.25,-246"/>
<text xml:space="preserve" text-anchor="start" x="211.5" y="-232.5" font-family="Helvetica,sans-Serif" font-size="10.00">mstd::utils::function</text>
<text xml:space="preserve" text-anchor="middle" x="265.88" y="-220.5" font-family="Helvetica,sans-Serif" font-size="10.00">_core_traits&lt; R(Args...)&gt;</text>
</a>
</g>
</g>
<!-- Node9&#45;&gt;Node8 -->
<g id="edge12_Node000008_Node000009" class="edge">
<title>Node9&#45;&gt;Node8</title>
<g id="a_edge12_Node000008_Node000009"><a xlink:title=" ">
<path fill="none" stroke="#63b8ff" d="M339.99,-217.51C379.22,-210.81 427.34,-202.59 466.1,-195.96"/>
<polygon fill="#63b8ff" stroke="#63b8ff" points="339.41,-214.06 330.14,-219.19 340.58,-220.96 339.41,-214.06"/>
</a>
</g>
</g>
<!-- Node10 -->
<g id="Node000010" class="node">
<title>Node10</title>
<g id="a_Node000010"><a xlink:href="../../df/db9/structmstd_1_1utils_1_1function__core__traits.html" target="_top" xlink:title=" ">
<polygon fill="white" stroke="#666666" points="103.75,-205 0,-205 0,-173 103.75,-173 103.75,-205"/>
<text xml:space="preserve" text-anchor="start" x="8" y="-191.5" font-family="Helvetica,sans-Serif" font-size="10.00">mstd::utils::function</text>
<text xml:space="preserve" text-anchor="middle" x="51.88" y="-179.5" font-family="Helvetica,sans-Serif" font-size="10.00">_core_traits&lt; F, C &gt;</text>
</a>
</g>
</g>
<!-- Node10&#45;&gt;Node8 -->
<g id="edge14_Node000008_Node000010" class="edge">
<title>Node10&#45;&gt;Node8</title>
<g id="a_edge14_Node000008_Node000010"><a xlink:title=" ">
<path fill="none" stroke="orange" stroke-dasharray="5,2" d="M115.39,-188.11C142.48,-187.74 174.55,-187.32 203.5,-187 294.16,-185.99 398.73,-185.09 466.04,-184.55"/>
<polygon fill="orange" stroke="orange" points="115.58,-184.61 105.63,-188.24 115.68,-191.61 115.58,-184.61"/>
</a>
</g>
<text xml:space="preserve" text-anchor="start" x="228.75" y="-192.5" font-family="Helvetica,sans-Serif" font-size="10.00" fill="grey">&lt; R(Args...), C &gt;</text>
</g>
<!-- Node10&#45;&gt;Node9 -->
<g id="edge13_Node000009_Node000010" class="edge">
<title>Node10&#45;&gt;Node9</title>
<g id="a_edge13_Node000009_Node000010"><a xlink:title=" ">
<path fill="none" stroke="orange" stroke-dasharray="5,2" d="M115.34,-201.08C143.01,-206.43 175.48,-212.71 203.08,-218.05"/>
<polygon fill="orange" stroke="orange" points="116.16,-197.67 105.68,-199.21 114.83,-204.55 116.16,-197.67"/>
</a>
</g>
<text xml:space="preserve" text-anchor="start" x="124.75" y="-219.88" font-family="Helvetica,sans-Serif" font-size="10.00" fill="grey">&lt; R(Args...)&gt;</text>
</g>
<!-- Node11&#45;&gt;Node7 -->
<g id="edge15_Node000007_Node000011" class="edge">
<title>Node11&#45;&gt;Node7</title>
<g id="a_edge15_Node000007_Node000011"><a xlink:title=" ">
<path fill="none" stroke="#63b8ff" d="M460.05,-140.77C501.96,-144 558.52,-149.64 607.75,-159 615.91,-160.55 617.67,-162.08 625.75,-164 658.49,-171.79 695.55,-179.18 724.74,-184.67"/>
<polygon fill="#63b8ff" stroke="#63b8ff" points="460.38,-137.29 450.15,-140.04 459.86,-144.27 460.38,-137.29"/>
</a>
</g>
</g>
<!-- Node12&#45;&gt;Node1 -->
<g id="edge22_Node000001_Node000012" class="edge">
<title>Node12&#45;&gt;Node1</title>
<g id="a_edge22_Node000001_Node000012"><a xlink:title=" ">
<path fill="none" stroke="orange" stroke-dasharray="5,2" d="M572.21,-69.66C617.11,-42.43 699.47,0 776.62,0 776.62,0 776.62,0 1483,0 1571.97,0 1622.33,-120.79 1639.62,-171.75"/>
<polygon fill="orange" stroke="orange" points="570.63,-66.52 563.96,-74.76 574.31,-72.47 570.63,-66.52"/>
</a>
</g>
<text xml:space="preserve" text-anchor="start" x="1090.25" y="-21.5" font-family="Helvetica,sans-Serif" font-size="10.00" fill="grey">&lt; R(Args...) const</text>
<text xml:space="preserve" text-anchor="start" x="1090.25" y="-5.5" font-family="Helvetica,sans-Serif" font-size="10.00" fill="grey">   volatile &amp;&amp;noexcept, C &gt;</text>
</g>
<!-- Node12&#45;&gt;Node4 -->
<g id="edge21_Node000004_Node000012" class="edge">
<title>Node12&#45;&gt;Node4</title>
<g id="a_edge21_Node000004_Node000012"><a xlink:title=" ">
<path fill="none" stroke="orange" stroke-dasharray="5,2" d="M601.31,-74.27C649.06,-62.42 716.45,-49 776.62,-49 776.62,-49 776.62,-49 1306.25,-49 1382.14,-49 1442.71,-130.99 1468.09,-171.66"/>
<polygon fill="orange" stroke="orange" points="600.52,-70.86 591.68,-76.71 602.24,-77.65 600.52,-70.86"/>
</a>
</g>
<text xml:space="preserve" text-anchor="start" x="971.25" y="-70.5" font-family="Helvetica,sans-Serif" font-size="10.00" fill="grey">&lt; R(Args...) const</text>
<text xml:space="preserve" text-anchor="start" x="971.25" y="-54.5" font-family="Helvetica,sans-Serif" font-size="10.00" fill="grey">   volatile &amp;&amp;, C &gt;</text>
</g>
<!-- Node12&#45;&gt;Node5 -->
<g id="edge20_Node000005_Node000012" class="edge">
<title>Node12&#45;&gt;Node5</title>
<g id="a_edge20_Node000005_Node000012"><a xlink:title=" ">
<path fill="none" stroke="orange" stroke-dasharray="5,2" d="M601.36,-93.23C679.73,-95.39 817.24,-101.25 934,-117 1042.01,-131.57 1165.62,-159.62 1239.19,-177.54"/>
<polygon fill="orange" stroke="orange" points="601.83,-89.74 591.74,-92.98 601.65,-96.74 601.83,-89.74"/>
</a>
</g>
<text xml:space="preserve" text-anchor="start" x="852.25" y="-138.5" font-family="Helvetica,sans-Serif" font-size="10.00" fill="grey">&lt; R(Args...) const</text>
<text xml:space="preserve" text-anchor="start" x="852.25" y="-122.5" font-family="Helvetica,sans-Serif" font-size="10.00" fill="grey">   volatile, C &gt;</text>
</g>
<!-- Node12&#45;&gt;Node6 -->
<g id="edge19_Node000006_Node000012" class="edge">
<title>Node12&#45;&gt;Node6</title>
<g id="a_edge19_Node000006_Node000012"><a xlink:title=" ">
<path fill="none" stroke="orange" stroke-dasharray="5,2" d="M601.23,-103.98C660.69,-115.45 752.2,-133.52 831.25,-151 871.53,-159.91 916.7,-170.8 951.51,-179.4"/>
<polygon fill="orange" stroke="orange" points="602.11,-100.59 591.63,-102.14 600.79,-107.46 602.11,-100.59"/>
</a>
</g>
<text xml:space="preserve" text-anchor="start" x="727" y="-156.5" font-family="Helvetica,sans-Serif" font-size="10.00" fill="grey">&lt; R(Args...) const, C &gt;</text>
</g>
<!-- Node12&#45;&gt;Node7 -->
<g id="edge17_Node000007_Node000012" class="edge">
<title>Node12&#45;&gt;Node7</title>
<g id="a_edge17_Node000007_Node000012"><a xlink:title=" ">
<path fill="none" stroke="orange" stroke-dasharray="5,2" d="M593.79,-112.27C604.37,-115.95 615.37,-119.68 625.75,-123 661.09,-134.3 672.4,-130.26 706,-146 715.8,-150.59 737.39,-165.56 754.14,-177.57"/>
<polygon fill="orange" stroke="orange" points="595,-108.98 584.4,-108.96 592.67,-115.58 595,-108.98"/>
</a>
</g>
<text xml:space="preserve" text-anchor="start" x="628.75" y="-151.5" font-family="Helvetica,sans-Serif" font-size="10.00" fill="grey">&lt; R(Args...), C &gt;</text>
</g>
</g>
</svg>
