<?xml version="1.0" encoding="UTF-8" standalone="no"?>
<!DOCTYPE svg PUBLIC "-//W3C//DTD SVG 1.1//EN"
 "http://www.w3.org/Graphics/SVG/1.1/DTD/svg11.dtd">
<!-- Generated by graphviz version 14.1.1 (20251213.1925)
 -->
<!-- Title: mstd::is_same_function&lt; Fa, Fb, std::void_t&lt; as_std_function_t&lt; Fa &gt;, as_std_function_t&lt; Fb &gt; &gt; &gt; Pages: 1 -->
<svg width="563pt" height="148pt"
 viewBox="0.00 0.00 563.00 148.00" xmlns="http://www.w3.org/2000/svg" xmlns:xlink="http://www.w3.org/1999/xlink">
<g id="graph0" class="graph" transform="scale(1 1) rotate(0) translate(4 144.14)">
<title>mstd::is_same_function&lt; Fa, Fb, std::void_t&lt; as_std_function_t&lt; Fa &gt;, as_std_function_t&lt; Fb &gt; &gt; &gt;</title>
<!-- Node1 -->
<g id="Node000001" class="node">
<title>Node1</title>
<g id="a_Node000001"><a xlink:title=" ">
<polygon fill="#999999" stroke="#666666" points="554.5,-83 399,-83 399,-27 554.5,-27 554.5,-83"/>
<text xml:space="preserve" text-anchor="start" x="407" y="-69.5" font-family="Helvetica,sans-Serif" font-size="10.00">mstd::is_same_function</text>
<text xml:space="preserve" text-anchor="start" x="407" y="-57.5" font-family="Helvetica,sans-Serif" font-size="10.00">&lt; Fa, Fb, std::void_t</text>
<text xml:space="preserve" text-anchor="start" x="407" y="-45.5" font-family="Helvetica,sans-Serif" font-size="10.00">&lt; as_std_function_t&lt; Fa</text>
<text xml:space="preserve" text-anchor="middle" x="476.75" y="-33.5" font-family="Helvetica,sans-Serif" font-size="10.00"> &gt;, as_std_function_t&lt; Fb &gt; &gt; &gt;</text>
</a>
</g>
</g>
<!-- Node2 -->
<g id="Node000002" class="node">
<title>Node2</title>
<g id="a_Node000002"><a xlink:title=" ">
<polygon fill="white" stroke="#666666" points="80.5,-120 0,-120 0,-100 80.5,-100 80.5,-120"/>
<text xml:space="preserve" text-anchor="middle" x="40.25" y="-106.5" font-family="Helvetica,sans-Serif" font-size="10.00">std::false_type</text>
</a>
</g>
</g>
<!-- Node2&#45;&gt;Node1 -->
<g id="edge1_Node000001_Node000002" class="edge">
<title>Node2&#45;&gt;Node1</title>
<g id="a_edge1_Node000001_Node000002"><a xlink:title=" ">
<path fill="none" stroke="#63b8ff" d="M92.06,-122.21C159.78,-136.17 282.5,-153.31 381,-122 405.19,-114.31 428.52,-97.96 445.98,-83.34"/>
<polygon fill="#63b8ff" stroke="#63b8ff" points="92.87,-118.81 82.36,-120.15 91.41,-125.65 92.87,-118.81"/>
</a>
</g>
</g>
<!-- Node4 -->
<g id="Node000004" class="node">
<title>Node4</title>
<g id="a_Node000004"><a xlink:href="../../d6/d67/structmstd_1_1is__same__function.html" target="_top" xlink:title=" ">
<polygon fill="white" stroke="#666666" points="238.12,-101 117.88,-101 117.88,-69 238.12,-69 238.12,-101"/>
<text xml:space="preserve" text-anchor="start" x="125.88" y="-87.5" font-family="Helvetica,sans-Serif" font-size="10.00">mstd::is_same_function</text>
<text xml:space="preserve" text-anchor="middle" x="178" y="-75.5" font-family="Helvetica,sans-Serif" font-size="10.00">&lt; Fa, Fb, class &gt;</text>
</a>
</g>
</g>
<!-- Node2&#45;&gt;Node4 -->
<g id="edge4_Node000004_Node000002" class="edge">
<title>Node2&#45;&gt;Node4</title>
<g id="a_edge4_Node000004_Node000002"><a xlink:title=" ">
<path fill="none" stroke="#63b8ff" d="M91.92,-100.67C100.22,-99.14 108.89,-97.54 117.39,-95.98"/>
<polygon fill="#63b8ff" stroke="#63b8ff" points="91.57,-97.17 82.37,-102.43 92.84,-104.06 91.57,-97.17"/>
</a>
</g>
</g>
<!-- Node3 -->
<g id="Node000003" class="node">
<title>Node3</title>
<g id="a_Node000003"><a xlink:title=" ">
<polygon fill="white" stroke="#666666" points="238.5,-44 117.5,-44 117.5,0 238.5,0 238.5,-44"/>
<text xml:space="preserve" text-anchor="start" x="125.5" y="-30.5" font-family="Helvetica,sans-Serif" font-size="10.00">std::is_same&lt; as_std</text>
<text xml:space="preserve" text-anchor="start" x="125.5" y="-18.5" font-family="Helvetica,sans-Serif" font-size="10.00">_function_t&lt; Fa &gt;, as</text>
<text xml:space="preserve" text-anchor="middle" x="178" y="-6.5" font-family="Helvetica,sans-Serif" font-size="10.00">_std_function_t&lt; Fb &gt; &gt;</text>
</a>
</g>
</g>
<!-- Node3&#45;&gt;Node1 -->
<g id="edge2_Node000001_Node000003" class="edge">
<title>Node3&#45;&gt;Node1</title>
<g id="a_edge2_Node000001_Node000003"><a xlink:title=" ">
<path fill="none" stroke="#63b8ff" d="M249.84,-29.59C288.59,-33.77 337.45,-39.1 381,-44 386.76,-44.65 392.72,-45.32 398.71,-46.01"/>
<polygon fill="#63b8ff" stroke="#63b8ff" points="250.5,-26.14 240.18,-28.55 249.75,-33.1 250.5,-26.14"/>
</a>
</g>
</g>
<!-- Node4&#45;&gt;Node1 -->
<g id="edge3_Node000001_Node000004" class="edge">
<title>Node4&#45;&gt;Node1</title>
<g id="a_edge3_Node000001_Node000004"><a xlink:title=" ">
<path fill="none" stroke="orange" stroke-dasharray="5,2" d="M225.5,-64.58C235.54,-61.04 246.23,-57.88 256.5,-56 303.11,-47.45 356.24,-46.98 398.53,-48.76"/>
<polygon fill="orange" stroke="orange" points="224.46,-61.23 216.33,-68.02 226.92,-67.79 224.46,-61.23"/>
</a>
</g>
<text xml:space="preserve" text-anchor="start" x="259.5" y="-109.5" font-family="Helvetica,sans-Serif" font-size="10.00" fill="grey">&lt; Fa, Fb, std::void</text>
<text xml:space="preserve" text-anchor="start" x="259.5" y="-93.5" font-family="Helvetica,sans-Serif" font-size="10.00" fill="grey">  _t&lt; as_std_function</text>
<text xml:space="preserve" text-anchor="start" x="259.5" y="-77.5" font-family="Helvetica,sans-Serif" font-size="10.00" fill="grey">  _t&lt; Fa &gt;, as_std_function</text>
<text xml:space="preserve" text-anchor="start" x="259.5" y="-61.5" font-family="Helvetica,sans-Serif" font-size="10.00" fill="grey">  _t&lt; Fb &gt; &gt; &gt;</text>
</g>
</g>
</svg>
