<?xml version="1.0" encoding="UTF-8" standalone="no"?>
<!DOCTYPE svg PUBLIC "-//W3C//DTD SVG 1.1//EN"
 "http://www.w3.org/Graphics/SVG/1.1/DTD/svg11.dtd">
<!-- Generated by graphviz version 14.1.1 (20251213.1925)
 -->
<!-- Title: mstd::function_traits&lt; R(C::*)(Args...) const volatile &gt; Pages: 1 -->
<svg width="1633pt" height="652pt"
 viewBox="0.00 0.00 1633.00 652.00" xmlns="http://www.w3.org/2000/svg" xmlns:xlink="http://www.w3.org/1999/xlink">
<g id="graph0" class="graph" transform="scale(1 1) rotate(0) translate(4 648)">
<title>mstd::function_traits&lt; R(C::*)(Args...) const volatile &gt;</title>
<!-- Node1 -->
<g id="Node000001" class="node">
<title>Node1</title>
<g id="a_Node000001"><a xlink:title=" ">
<polygon fill="#999999" stroke="#666666" points="1624.5,-518 1506.5,-518 1506.5,-474 1624.5,-474 1624.5,-518"/>
<text xml:space="preserve" text-anchor="start" x="1514.5" y="-504.5" font-family="Helvetica,sans-Serif" font-size="10.00">mstd::function_traits</text>
<text xml:space="preserve" text-anchor="start" x="1514.5" y="-492.5" font-family="Helvetica,sans-Serif" font-size="10.00">&lt; R(C::*)(Args...) const</text>
<text xml:space="preserve" text-anchor="middle" x="1565.5" y="-480.5" font-family="Helvetica,sans-Serif" font-size="10.00"> volatile &gt;</text>
</a>
</g>
</g>
<!-- Node2 -->
<g id="Node000002" class="node">
<title>Node2</title>
<g id="a_Node000002"><a xlink:href="../../d0/d74/structmstd_1_1utils_1_1function__default__type__traits.html" target="_top" xlink:title=" ">
<polygon fill="white" stroke="#666666" points="588.75,-377 486.5,-377 486.5,-333 588.75,-333 588.75,-377"/>
<text xml:space="preserve" text-anchor="start" x="494.5" y="-363.5" font-family="Helvetica,sans-Serif" font-size="10.00">mstd::utils::function</text>
<text xml:space="preserve" text-anchor="start" x="494.5" y="-351.5" font-family="Helvetica,sans-Serif" font-size="10.00">_default_type_traits</text>
<text xml:space="preserve" text-anchor="middle" x="537.62" y="-339.5" font-family="Helvetica,sans-Serif" font-size="10.00">&lt; false &gt;</text>
</a>
</g>
</g>
<!-- Node2&#45;&gt;Node1 -->
<g id="edge1_Node000001_Node000002" class="edge">
<title>Node2&#45;&gt;Node1</title>
<g id="a_edge1_Node000001_Node000002"><a xlink:title=" ">
<path fill="none" stroke="#63b8ff" d="M553.34,-387.1C582.05,-444.32 651.29,-558 748.38,-558 748.38,-558 748.38,-558 1395,-558 1442.63,-558 1493.45,-536.14 1526.89,-518.38"/>
<polygon fill="#63b8ff" stroke="#63b8ff" points="556.66,-385.92 549.12,-378.47 550.37,-388.99 556.66,-385.92"/>
</a>
</g>
</g>
<!-- Node5 -->
<g id="Node000005" class="node">
<title>Node5</title>
<g id="a_Node000005"><a xlink:href="../../da/d58/structmstd_1_1function__traits_3_01_r_07_args_8_8_8_08_01const_01volatile_00_01_c_01_4.html" target="_top" xlink:title=" ">
<polygon fill="white" stroke="#666666" points="1469.5,-463 1318.5,-463 1318.5,-431 1469.5,-431 1469.5,-463"/>
<text xml:space="preserve" text-anchor="start" x="1326.5" y="-449.5" font-family="Helvetica,sans-Serif" font-size="10.00">mstd::function_traits</text>
<text xml:space="preserve" text-anchor="middle" x="1394" y="-437.5" font-family="Helvetica,sans-Serif" font-size="10.00">&lt; R(Args...) const volatile, C &gt;</text>
</a>
</g>
</g>
<!-- Node2&#45;&gt;Node5 -->
<g id="edge6_Node000005_Node000002" class="edge">
<title>Node2&#45;&gt;Node5</title>
<g id="a_edge6_Node000005_Node000002"><a xlink:title=" ">
<path fill="none" stroke="#63b8ff" d="M600.06,-337.89C641.59,-327.8 697.86,-317 748.38,-317 748.38,-317 748.38,-317 1223.88,-317 1297.57,-317 1358.89,-395.55 1382.54,-430.54"/>
<polygon fill="#63b8ff" stroke="#63b8ff" points="599.35,-334.46 590.49,-340.27 601.04,-341.25 599.35,-334.46"/>
</a>
</g>
</g>
<!-- Node6 -->
<g id="Node000006" class="node">
<title>Node6</title>
<g id="a_Node000006"><a xlink:href="../../df/d15/structmstd_1_1function__traits_3_01_r_07_args_8_8_8_08_01const_00_01_c_01_4.html" target="_top" xlink:title=" ">
<polygon fill="white" stroke="#666666" points="1281.5,-289 1164.25,-289 1164.25,-257 1281.5,-257 1281.5,-289"/>
<text xml:space="preserve" text-anchor="start" x="1172.25" y="-275.5" font-family="Helvetica,sans-Serif" font-size="10.00">mstd::function_traits</text>
<text xml:space="preserve" text-anchor="middle" x="1222.88" y="-263.5" font-family="Helvetica,sans-Serif" font-size="10.00">&lt; R(Args...) const, C &gt;</text>
</a>
</g>
</g>
<!-- Node2&#45;&gt;Node6 -->
<g id="edge8_Node000006_Node000002" class="edge">
<title>Node2&#45;&gt;Node6</title>
<g id="a_edge8_Node000006_Node000002"><a xlink:title=" ">
<path fill="none" stroke="#63b8ff" d="M600.31,-353.48C675.61,-351.08 806.7,-345.12 918.25,-331 1004.5,-320.08 1103.18,-299.75 1164.01,-286.3"/>
<polygon fill="#63b8ff" stroke="#63b8ff" points="600.57,-349.97 590.68,-353.78 600.78,-356.97 600.57,-349.97"/>
</a>
</g>
</g>
<!-- Node7 -->
<g id="Node000007" class="node">
<title>Node7</title>
<g id="a_Node000007"><a xlink:href="../../dd/db6/structmstd_1_1function__traits_3_01_r_07_args_8_8_8_08_00_01_c_01_4.html" target="_top" xlink:title=" ">
<polygon fill="white" stroke="#666666" points="1042.5,-289 937.25,-289 937.25,-257 1042.5,-257 1042.5,-289"/>
<text xml:space="preserve" text-anchor="start" x="945.25" y="-275.5" font-family="Helvetica,sans-Serif" font-size="10.00">mstd::function_traits</text>
<text xml:space="preserve" text-anchor="middle" x="989.88" y="-263.5" font-family="Helvetica,sans-Serif" font-size="10.00">&lt; R(Args...), C &gt;</text>
</a>
</g>
</g>
<!-- Node2&#45;&gt;Node7 -->
<g id="edge10_Node000007_Node000002" class="edge">
<title>Node2&#45;&gt;Node7</title>
<g id="a_edge10_Node000007_Node000002"><a xlink:title=" ">
<path fill="none" stroke="#63b8ff" d="M574.49,-326.06C587.46,-317.12 602.7,-308.25 618,-303 726.77,-265.7 863.58,-265.77 936.86,-269.27"/>
<polygon fill="#63b8ff" stroke="#63b8ff" points="572.78,-322.97 566.7,-331.65 576.87,-328.66 572.78,-322.97"/>
</a>
</g>
</g>
<!-- Node12 -->
<g id="Node000012" class="node">
<title>Node12</title>
<g id="a_Node000012"><a xlink:href="../../d7/dcb/structmstd_1_1function__traits.html" target="_top" xlink:title=" ">
<polygon fill="white" stroke="#666666" points="802,-450 696.75,-450 696.75,-418 802,-418 802,-450"/>
<text xml:space="preserve" text-anchor="start" x="704.75" y="-436.5" font-family="Helvetica,sans-Serif" font-size="10.00">mstd::function_traits</text>
<text xml:space="preserve" text-anchor="middle" x="749.38" y="-424.5" font-family="Helvetica,sans-Serif" font-size="10.00">&lt; F, C &gt;</text>
</a>
</g>
</g>
<!-- Node2&#45;&gt;Node12 -->
<g id="edge19_Node000012_Node000002" class="edge">
<title>Node2&#45;&gt;Node12</title>
<g id="a_edge19_Node000012_Node000002"><a xlink:title=" ">
<path fill="none" stroke="#63b8ff" d="M599.77,-378.03C633.39,-390.69 674.31,-406.11 704.7,-417.55"/>
<polygon fill="#63b8ff" stroke="#63b8ff" points="601.14,-374.81 590.55,-374.56 598.67,-381.36 601.14,-374.81"/>
</a>
</g>
</g>
<!-- Node3 -->
<g id="Node000003" class="node">
<title>Node3</title>
<g id="a_Node000003"><a xlink:title=" ">
<polygon fill="white" stroke="#666666" points="155.5,-301 0,-301 0,-269 155.5,-269 155.5,-301"/>
<text xml:space="preserve" text-anchor="start" x="8" y="-287.5" font-family="Helvetica,sans-Serif" font-size="10.00">static _MSTD_CONSTEXPR17</text>
<text xml:space="preserve" text-anchor="middle" x="77.75" y="-275.5" font-family="Helvetica,sans-Serif" font-size="10.00"> const bool</text>
</a>
</g>
</g>
<!-- Node3&#45;&gt;Node2 -->
<g id="edge2_Node000002_Node000003" class="edge">
<title>Node3&#45;&gt;Node2</title>
<g id="a_edge2_Node000002_Node000003"><a xlink:title=" ">
<path fill="none" stroke="#9a32cd" stroke-dasharray="5,2" d="M98.23,-309.96C115.54,-329.93 142.79,-356.45 173.5,-368 279.04,-407.69 414.24,-385.62 486.22,-368.68"/>
<polygon fill="#9a32cd" stroke="#9a32cd" points="101.08,-307.9 91.98,-302.48 95.71,-312.39 101.08,-307.9"/>
</a>
</g>
<text xml:space="preserve" text-anchor="start" x="286.5" y="-555.78" font-family="Helvetica,sans-Serif" font-size="10.00" fill="grey">is_const</text>
<text xml:space="preserve" text-anchor="start" x="286.5" y="-539.78" font-family="Helvetica,sans-Serif" font-size="10.00" fill="grey">is_free</text>
<text xml:space="preserve" text-anchor="start" x="286.5" y="-523.78" font-family="Helvetica,sans-Serif" font-size="10.00" fill="grey">is_functor</text>
<text xml:space="preserve" text-anchor="start" x="286.5" y="-507.78" font-family="Helvetica,sans-Serif" font-size="10.00" fill="grey">is_member</text>
<text xml:space="preserve" text-anchor="start" x="286.5" y="-491.78" font-family="Helvetica,sans-Serif" font-size="10.00" fill="grey">is_moved</text>
<text xml:space="preserve" text-anchor="start" x="286.5" y="-475.78" font-family="Helvetica,sans-Serif" font-size="10.00" fill="grey">is_noexcept</text>
<text xml:space="preserve" text-anchor="start" x="286.5" y="-459.78" font-family="Helvetica,sans-Serif" font-size="10.00" fill="grey">is_parent_moved</text>
<text xml:space="preserve" text-anchor="start" x="286.5" y="-443.78" font-family="Helvetica,sans-Serif" font-size="10.00" fill="grey">is_parent_ref</text>
<text xml:space="preserve" text-anchor="start" x="286.5" y="-427.78" font-family="Helvetica,sans-Serif" font-size="10.00" fill="grey">is_ptr</text>
<text xml:space="preserve" text-anchor="start" x="286.5" y="-411.78" font-family="Helvetica,sans-Serif" font-size="10.00" fill="grey">is_ref</text>
<text xml:space="preserve" text-anchor="start" x="286.5" y="-395.78" font-family="Helvetica,sans-Serif" font-size="10.00" fill="grey"> &#160;...</text>
</g>
<!-- Node4 -->
<g id="Node000004" class="node">
<title>Node4</title>
<g id="a_Node000004"><a xlink:href="../../d0/d74/structmstd_1_1utils_1_1function__default__type__traits.html" target="_top" xlink:title=" ">
<polygon fill="white" stroke="#666666" points="374.75,-346 272.5,-346 272.5,-302 374.75,-302 374.75,-346"/>
<text xml:space="preserve" text-anchor="start" x="280.5" y="-332.5" font-family="Helvetica,sans-Serif" font-size="10.00">mstd::utils::function</text>
<text xml:space="preserve" text-anchor="start" x="280.5" y="-320.5" font-family="Helvetica,sans-Serif" font-size="10.00">_default_type_traits</text>
<text xml:space="preserve" text-anchor="middle" x="323.62" y="-308.5" font-family="Helvetica,sans-Serif" font-size="10.00">&lt; IsMember &gt;</text>
</a>
</g>
</g>
<!-- Node3&#45;&gt;Node4 -->
<g id="edge4_Node000004_Node000003" class="edge">
<title>Node3&#45;&gt;Node4</title>
<g id="a_edge4_Node000004_Node000003"><a xlink:title=" ">
<path fill="none" stroke="#9a32cd" stroke-dasharray="5,2" d="M95.26,-259.49C111.87,-236.42 139.8,-203.98 173.5,-190 206.44,-176.33 226.35,-167.17 253.75,-190 287.77,-218.34 247.92,-250.68 271.75,-288 275.01,-293.11 279.28,-297.7 283.96,-301.77"/>
<polygon fill="#9a32cd" stroke="#9a32cd" points="92.55,-257.27 89.72,-267.48 98.3,-261.26 92.55,-257.27"/>
</a>
</g>
<text xml:space="preserve" text-anchor="start" x="176.5" y="-355.5" font-family="Helvetica,sans-Serif" font-size="10.00" fill="grey">is_const</text>
<text xml:space="preserve" text-anchor="start" x="176.5" y="-339.5" font-family="Helvetica,sans-Serif" font-size="10.00" fill="grey">is_free</text>
<text xml:space="preserve" text-anchor="start" x="176.5" y="-323.5" font-family="Helvetica,sans-Serif" font-size="10.00" fill="grey">is_functor</text>
<text xml:space="preserve" text-anchor="start" x="176.5" y="-307.5" font-family="Helvetica,sans-Serif" font-size="10.00" fill="grey">is_member</text>
<text xml:space="preserve" text-anchor="start" x="176.5" y="-291.5" font-family="Helvetica,sans-Serif" font-size="10.00" fill="grey">is_moved</text>
<text xml:space="preserve" text-anchor="start" x="176.5" y="-275.5" font-family="Helvetica,sans-Serif" font-size="10.00" fill="grey">is_noexcept</text>
<text xml:space="preserve" text-anchor="start" x="176.5" y="-259.5" font-family="Helvetica,sans-Serif" font-size="10.00" fill="grey">is_parent_moved</text>
<text xml:space="preserve" text-anchor="start" x="176.5" y="-243.5" font-family="Helvetica,sans-Serif" font-size="10.00" fill="grey">is_parent_ref</text>
<text xml:space="preserve" text-anchor="start" x="176.5" y="-227.5" font-family="Helvetica,sans-Serif" font-size="10.00" fill="grey">is_ptr</text>
<text xml:space="preserve" text-anchor="start" x="176.5" y="-211.5" font-family="Helvetica,sans-Serif" font-size="10.00" fill="grey">is_ref</text>
<text xml:space="preserve" text-anchor="start" x="176.5" y="-195.5" font-family="Helvetica,sans-Serif" font-size="10.00" fill="grey"> &#160;...</text>
</g>
<!-- Node3&#45;&gt;Node5 -->
<g id="edge23_Node000005_Node000003" class="edge">
<title>Node3&#45;&gt;Node5</title>
<g id="a_edge23_Node000005_Node000003"><a xlink:title=" ">
<path fill="none" stroke="#9a32cd" stroke-dasharray="5,2" d="M82.93,-312.42C91.74,-362.19 116.32,-468.58 173.5,-537 223,-596.22 245.44,-626 322.62,-626 322.62,-626 322.62,-626 1223.88,-626 1313.02,-626 1369.14,-507.26 1386.9,-463.2"/>
<polygon fill="#9a32cd" stroke="#9a32cd" points="86.43,-312.09 81.32,-302.81 79.52,-313.25 86.43,-312.09"/>
</a>
</g>
<text xml:space="preserve" text-anchor="start" x="727.62" y="-631.5" font-family="Helvetica,sans-Serif" font-size="10.00" fill="grey">is_volatile</text>
</g>
<!-- Node3&#45;&gt;Node6 -->
<g id="edge21_Node000006_Node000003" class="edge">
<title>Node3&#45;&gt;Node6</title>
<g id="a_edge21_Node000006_Node000003"><a xlink:title=" ">
<path fill="none" stroke="#9a32cd" stroke-dasharray="5,2" d="M87.16,-258.14C111.24,-187.15 187.53,0 322.62,0 322.62,0 322.62,0 990.88,0 1126.22,0 1198.57,-197.97 1217.06,-256.74"/>
<polygon fill="#9a32cd" stroke="#9a32cd" points="83.91,-256.83 84.1,-267.42 90.55,-259.02 83.91,-256.83"/>
</a>
</g>
<text xml:space="preserve" text-anchor="start" x="621" y="-5.5" font-family="Helvetica,sans-Serif" font-size="10.00" fill="grey">is_const</text>
</g>
<!-- Node11 -->
<g id="Node000011" class="node">
<title>Node11</title>
<g id="a_Node000011"><a xlink:href="../../d0/d74/structmstd_1_1utils_1_1function__default__type__traits.html" target="_top" xlink:title=" ">
<polygon fill="white" stroke="#666666" points="588.75,-263 486.5,-263 486.5,-219 588.75,-219 588.75,-263"/>
<text xml:space="preserve" text-anchor="start" x="494.5" y="-249.5" font-family="Helvetica,sans-Serif" font-size="10.00">mstd::utils::function</text>
<text xml:space="preserve" text-anchor="start" x="494.5" y="-237.5" font-family="Helvetica,sans-Serif" font-size="10.00">_default_type_traits</text>
<text xml:space="preserve" text-anchor="middle" x="537.62" y="-225.5" font-family="Helvetica,sans-Serif" font-size="10.00">&lt; true &gt;</text>
</a>
</g>
</g>
<!-- Node3&#45;&gt;Node11 -->
<g id="edge16_Node000011_Node000003" class="edge">
<title>Node3&#45;&gt;Node11</title>
<g id="a_edge16_Node000011_Node000003"><a xlink:title=" ">
<path fill="none" stroke="#9a32cd" stroke-dasharray="5,2" d="M95.68,-259.34C125.3,-217.41 191.12,-136.7 271.75,-115 316.28,-103.02 331.9,-99.98 375.5,-115 435.09,-135.53 489.51,-188.17 517.28,-218.52"/>
<polygon fill="#9a32cd" stroke="#9a32cd" points="92.93,-257.16 90.12,-267.38 98.69,-261.14 92.93,-257.16"/>
</a>
</g>
<text xml:space="preserve" text-anchor="start" x="286.5" y="-280.5" font-family="Helvetica,sans-Serif" font-size="10.00" fill="grey">is_const</text>
<text xml:space="preserve" text-anchor="start" x="286.5" y="-264.5" font-family="Helvetica,sans-Serif" font-size="10.00" fill="grey">is_free</text>
<text xml:space="preserve" text-anchor="start" x="286.5" y="-248.5" font-family="Helvetica,sans-Serif" font-size="10.00" fill="grey">is_functor</text>
<text xml:space="preserve" text-anchor="start" x="286.5" y="-232.5" font-family="Helvetica,sans-Serif" font-size="10.00" fill="grey">is_member</text>
<text xml:space="preserve" text-anchor="start" x="286.5" y="-216.5" font-family="Helvetica,sans-Serif" font-size="10.00" fill="grey">is_moved</text>
<text xml:space="preserve" text-anchor="start" x="286.5" y="-200.5" font-family="Helvetica,sans-Serif" font-size="10.00" fill="grey">is_noexcept</text>
<text xml:space="preserve" text-anchor="start" x="286.5" y="-184.5" font-family="Helvetica,sans-Serif" font-size="10.00" fill="grey">is_parent_moved</text>
<text xml:space="preserve" text-anchor="start" x="286.5" y="-168.5" font-family="Helvetica,sans-Serif" font-size="10.00" fill="grey">is_parent_ref</text>
<text xml:space="preserve" text-anchor="start" x="286.5" y="-152.5" font-family="Helvetica,sans-Serif" font-size="10.00" fill="grey">is_ptr</text>
<text xml:space="preserve" text-anchor="start" x="286.5" y="-136.5" font-family="Helvetica,sans-Serif" font-size="10.00" fill="grey">is_ref</text>
<text xml:space="preserve" text-anchor="start" x="286.5" y="-120.5" font-family="Helvetica,sans-Serif" font-size="10.00" fill="grey"> &#160;...</text>
</g>
<!-- Node3&#45;&gt;Node12 -->
<g id="edge20_Node000012_Node000003" class="edge">
<title>Node3&#45;&gt;Node12</title>
<g id="a_edge20_Node000012_Node000003"><a xlink:title=" ">
<path fill="none" stroke="#9a32cd" stroke-dasharray="5,2" d="M87.3,-312.37C107.76,-372.58 165.92,-515.64 271.75,-572 351.3,-614.37 619.24,-495.27 714.45,-450.36"/>
<polygon fill="#9a32cd" stroke="#9a32cd" points="90.63,-311.32 84.18,-302.92 83.99,-313.51 90.63,-311.32"/>
</a>
</g>
<text xml:space="preserve" text-anchor="start" x="410.75" y="-576.3" font-family="Helvetica,sans-Serif" font-size="10.00" fill="grey">is_free</text>
</g>
<!-- Node4&#45;&gt;Node2 -->
<g id="edge3_Node000002_Node000004" class="edge">
<title>Node4&#45;&gt;Node2</title>
<g id="a_edge3_Node000002_Node000004"><a xlink:title=" ">
<path fill="none" stroke="orange" stroke-dasharray="5,2" d="M386.49,-333.05C418.17,-337.68 456.25,-343.25 486.14,-347.62"/>
<polygon fill="orange" stroke="orange" points="387.03,-329.59 376.63,-331.6 386.02,-336.52 387.03,-329.59"/>
</a>
</g>
<text xml:space="preserve" text-anchor="start" x="405.88" y="-348.69" font-family="Helvetica,sans-Serif" font-size="10.00" fill="grey">&lt; false &gt;</text>
</g>
<!-- Node4&#45;&gt;Node11 -->
<g id="edge17_Node000011_Node000004" class="edge">
<title>Node4&#45;&gt;Node11</title>
<g id="a_edge17_Node000011_Node000004"><a xlink:title=" ">
<path fill="none" stroke="orange" stroke-dasharray="5,2" d="M385.66,-300.11C417.5,-287.64 455.99,-272.57 486.14,-260.77"/>
<polygon fill="orange" stroke="orange" points="384.58,-296.77 376.54,-303.67 387.13,-303.29 384.58,-296.77"/>
</a>
</g>
<text xml:space="preserve" text-anchor="start" x="408.12" y="-300.28" font-family="Helvetica,sans-Serif" font-size="10.00" fill="grey">&lt; true &gt;</text>
</g>
<!-- Node5&#45;&gt;Node1 -->
<g id="edge5_Node000001_Node000005" class="edge">
<title>Node5&#45;&gt;Node1</title>
<g id="a_edge5_Node000001_Node000005"><a xlink:title=" ">
<path fill="none" stroke="#63b8ff" d="M1462.71,-466.57C1477.04,-470.72 1492.05,-475.06 1506,-479.09"/>
<polygon fill="#63b8ff" stroke="#63b8ff" points="1463.95,-463.29 1453.37,-463.87 1462,-470.01 1463.95,-463.29"/>
</a>
</g>
</g>
<!-- Node6&#45;&gt;Node5 -->
<g id="edge7_Node000005_Node000006" class="edge">
<title>Node6&#45;&gt;Node5</title>
<g id="a_edge7_Node000005_Node000006"><a xlink:title=" ">
<path fill="none" stroke="#63b8ff" d="M1288.64,-294.79C1292.83,-297.26 1296.83,-299.99 1300.5,-303 1344.4,-338.97 1374.28,-401.43 1386.63,-430.82"/>
<polygon fill="#63b8ff" stroke="#63b8ff" points="1290.4,-291.76 1279.92,-290.17 1287.12,-297.95 1290.4,-291.76"/>
</a>
</g>
</g>
<!-- Node7&#45;&gt;Node6 -->
<g id="edge9_Node000006_Node000007" class="edge">
<title>Node7&#45;&gt;Node6</title>
<g id="a_edge9_Node000006_Node000007"><a xlink:title=" ">
<path fill="none" stroke="#63b8ff" d="M1054.05,-273C1088.42,-273 1130.63,-273 1164.12,-273"/>
<polygon fill="#63b8ff" stroke="#63b8ff" points="1054.23,-269.5 1044.23,-273 1054.23,-276.5 1054.23,-269.5"/>
</a>
</g>
</g>
<!-- Node8 -->
<g id="Node000008" class="node">
<title>Node8</title>
<g id="a_Node000008"><a xlink:href="../../d1/d4f/structmstd_1_1utils_1_1function__core__traits_3_01_r_07_args_8_8_8_08_00_01_c_01_4.html" target="_top" xlink:title=" ">
<polygon fill="white" stroke="#666666" points="820,-112 678.75,-112 678.75,-80 820,-80 820,-112"/>
<text xml:space="preserve" text-anchor="start" x="686.75" y="-98.5" font-family="Helvetica,sans-Serif" font-size="10.00">mstd::utils::function</text>
<text xml:space="preserve" text-anchor="middle" x="749.38" y="-86.5" font-family="Helvetica,sans-Serif" font-size="10.00">_core_traits&lt; R(Args...), C &gt;</text>
</a>
</g>
</g>
<!-- Node8&#45;&gt;Node7 -->
<g id="edge11_Node000007_Node000008" class="edge">
<title>Node8&#45;&gt;Node7</title>
<g id="a_edge11_Node000007_Node000008"><a xlink:title=" ">
<path fill="none" stroke="#63b8ff" d="M781.56,-119.14C830.56,-155.51 924.37,-225.12 966.92,-256.71"/>
<polygon fill="#63b8ff" stroke="#63b8ff" points="783.72,-116.39 773.6,-113.24 779.54,-122.01 783.72,-116.39"/>
</a>
</g>
</g>
<!-- Node9 -->
<g id="Node000009" class="node">
<title>Node9</title>
<g id="a_Node000009"><a xlink:href="../../df/db9/structmstd_1_1utils_1_1function__core__traits.html" target="_top" xlink:title=" ">
<polygon fill="white" stroke="#666666" points="600,-60 475.25,-60 475.25,-28 600,-28 600,-60"/>
<text xml:space="preserve" text-anchor="start" x="483.25" y="-46.5" font-family="Helvetica,sans-Serif" font-size="10.00">mstd::utils::function</text>
<text xml:space="preserve" text-anchor="middle" x="537.62" y="-34.5" font-family="Helvetica,sans-Serif" font-size="10.00">_core_traits&lt; R(Args...)&gt;</text>
</a>
</g>
</g>
<!-- Node9&#45;&gt;Node8 -->
<g id="edge12_Node000008_Node000009" class="edge">
<title>Node9&#45;&gt;Node8</title>
<g id="a_edge12_Node000008_Node000009"><a xlink:title=" ">
<path fill="none" stroke="#63b8ff" d="M611.45,-62.06C634.34,-67.73 659.48,-73.96 681.9,-79.52"/>
<polygon fill="#63b8ff" stroke="#63b8ff" points="612.44,-58.69 601.89,-59.68 610.76,-65.49 612.44,-58.69"/>
</a>
</g>
</g>
<!-- Node10 -->
<g id="Node000010" class="node">
<title>Node10</title>
<g id="a_Node000010"><a xlink:href="../../df/db9/structmstd_1_1utils_1_1function__core__traits.html" target="_top" xlink:title=" ">
<polygon fill="white" stroke="#666666" points="375.5,-65 271.75,-65 271.75,-33 375.5,-33 375.5,-65"/>
<text xml:space="preserve" text-anchor="start" x="279.75" y="-51.5" font-family="Helvetica,sans-Serif" font-size="10.00">mstd::utils::function</text>
<text xml:space="preserve" text-anchor="middle" x="323.62" y="-39.5" font-family="Helvetica,sans-Serif" font-size="10.00">_core_traits&lt; F, C &gt;</text>
</a>
</g>
</g>
<!-- Node10&#45;&gt;Node8 -->
<g id="edge14_Node000008_Node000010" class="edge">
<title>Node10&#45;&gt;Node8</title>
<g id="a_edge14_Node000008_Node000010"><a xlink:title=" ">
<path fill="none" stroke="orange" stroke-dasharray="5,2" d="M386.95,-67.71C389.15,-68.18 391.34,-68.61 393.5,-69 491.38,-86.74 606.51,-92.84 678.47,-94.93"/>
<polygon fill="orange" stroke="orange" points="387.88,-64.33 377.35,-65.48 386.3,-71.15 387.88,-64.33"/>
</a>
</g>
<text xml:space="preserve" text-anchor="start" x="500.5" y="-96.8" font-family="Helvetica,sans-Serif" font-size="10.00" fill="grey">&lt; R(Args...), C &gt;</text>
</g>
<!-- Node10&#45;&gt;Node9 -->
<g id="edge13_Node000009_Node000010" class="edge">
<title>Node10&#45;&gt;Node9</title>
<g id="a_edge13_Node000009_Node000010"><a xlink:title=" ">
<path fill="none" stroke="orange" stroke-dasharray="5,2" d="M387.09,-47.53C414.76,-46.87 447.23,-46.11 474.83,-45.46"/>
<polygon fill="orange" stroke="orange" points="387.37,-44.02 377.46,-47.75 387.54,-51.02 387.37,-44.02"/>
</a>
</g>
<text xml:space="preserve" text-anchor="start" x="396.5" y="-52.74" font-family="Helvetica,sans-Serif" font-size="10.00" fill="grey">&lt; R(Args...)&gt;</text>
</g>
<!-- Node11&#45;&gt;Node7 -->
<g id="edge15_Node000007_Node000011" class="edge">
<title>Node11&#45;&gt;Node7</title>
<g id="a_edge15_Node000007_Node000011"><a xlink:title=" ">
<path fill="none" stroke="#63b8ff" d="M600.16,-243.95C675.31,-247.77 806.25,-255.12 918.25,-265 924.27,-265.53 930.58,-266.15 936.84,-266.81"/>
<polygon fill="#63b8ff" stroke="#63b8ff" points="600.71,-240.47 590.55,-243.47 600.36,-247.46 600.71,-240.47"/>
</a>
</g>
</g>
<!-- Node12&#45;&gt;Node1 -->
<g id="edge25_Node000001_Node000012" class="edge">
<title>Node12&#45;&gt;Node1</title>
<g id="a_edge25_Node000001_Node000012"><a xlink:title=" ">
<path fill="none" stroke="orange" stroke-dasharray="5,2" d="M799.43,-454.56C846.98,-472.61 921.6,-496 988.88,-496 988.88,-496 988.88,-496 1395,-496 1431.93,-496 1473.39,-496 1506.06,-496"/>
<polygon fill="orange" stroke="orange" points="800.83,-451.35 790.24,-451 798.3,-457.87 800.83,-451.35"/>
</a>
</g>
<text xml:space="preserve" text-anchor="start" x="1185" y="-517.5" font-family="Helvetica,sans-Serif" font-size="10.00" fill="grey">&lt; R(C::*)(Args...)</text>
<text xml:space="preserve" text-anchor="start" x="1185" y="-501.5" font-family="Helvetica,sans-Serif" font-size="10.00" fill="grey">   const volatile &gt;</text>
</g>
<!-- Node12&#45;&gt;Node5 -->
<g id="edge24_Node000005_Node000012" class="edge">
<title>Node12&#45;&gt;Node5</title>
<g id="a_edge24_Node000005_Node000012"><a xlink:title=" ">
<path fill="none" stroke="orange" stroke-dasharray="5,2" d="M813.88,-435.28C933.24,-437.7 1190.53,-442.9 1318.12,-445.49"/>
<polygon fill="orange" stroke="orange" points="814,-431.79 803.93,-435.08 813.86,-438.79 814,-431.79"/>
</a>
</g>
<text xml:space="preserve" text-anchor="start" x="1064.5" y="-463.51" font-family="Helvetica,sans-Serif" font-size="10.00" fill="grey">&lt; R(Args...) const</text>
<text xml:space="preserve" text-anchor="start" x="1064.5" y="-447.51" font-family="Helvetica,sans-Serif" font-size="10.00" fill="grey">   volatile, C &gt;</text>
</g>
<!-- Node12&#45;&gt;Node6 -->
<g id="edge22_Node000006_Node000012" class="edge">
<title>Node12&#45;&gt;Node6</title>
<g id="a_edge22_Node000006_Node000012"><a xlink:title=" ">
<path fill="none" stroke="orange" stroke-dasharray="5,2" d="M813.44,-426.19C917.87,-412.88 1118.07,-385.63 1146.25,-369 1178.59,-349.91 1202.36,-311.33 1213.95,-289.33"/>
<polygon fill="orange" stroke="orange" points="813.1,-422.71 803.61,-427.44 813.98,-429.65 813.1,-422.71"/>
</a>
</g>
<text xml:space="preserve" text-anchor="start" x="939.25" y="-414.6" font-family="Helvetica,sans-Serif" font-size="10.00" fill="grey">&lt; R(Args...) const, C &gt;</text>
</g>
<!-- Node12&#45;&gt;Node7 -->
<g id="edge18_Node000007_Node000012" class="edge">
<title>Node12&#45;&gt;Node7</title>
<g id="a_edge18_Node000007_Node000012"><a xlink:title=" ">
<path fill="none" stroke="orange" stroke-dasharray="5,2" d="M784.03,-411.28C832.76,-378.39 921.82,-318.27 964.63,-289.37"/>
<polygon fill="orange" stroke="orange" points="782.14,-408.33 775.81,-416.83 786.06,-414.14 782.14,-408.33"/>
</a>
</g>
<text xml:space="preserve" text-anchor="start" x="841" y="-378.16" font-family="Helvetica,sans-Serif" font-size="10.00" fill="grey">&lt; R(Args...), C &gt;</text>
</g>
</g>
</svg>
