<?xml version="1.0" encoding="UTF-8" standalone="no"?>
<!DOCTYPE svg PUBLIC "-//W3C//DTD SVG 1.1//EN"
 "http://www.w3.org/Graphics/SVG/1.1/DTD/svg11.dtd">
<!-- Generated by graphviz version 14.1.1 (20251213.1925)
 -->
<!-- Title: mstd::is_same_function&lt; Fa, Fb, std::void_t&lt; as_std_function_t&lt; Fa &gt;, as_std_function_t&lt; Fb &gt; &gt; &gt; Pages: 1 -->
<!--zoomable 148 -->

<svg id="main" version="1.1" xmlns="http://www.w3.org/2000/svg" xmlns:xlink="http://www.w3.org/1999/xlink" xml:space="preserve" onload="init(evt)">

<style type="text/css"><![CDATA[
.node, .edge {opacity: 0.7;}
.node.selected, .edge.selected {opacity: 1;}
.edge:hover path { stroke: red; }
.edge:hover polygon { stroke: red; fill: red; }
]]></style>

<defs>
  <circle id="rim" cx="0" cy="0" r="7"/>
  <circle id="rim2" cx="0" cy="0" r="3.5"/>
  <g id="zoomPlus">
    <use xlink:href="#rim" fill="#404040"><set attributeName="fill" to="#808080" begin="zoomplus.mouseover" end="zoomplus.mouseout"/></use>
    <path d="M-4,0h8M0,-4v8" fill="none" stroke="white" stroke-width="1.5" pointer-events="none"/>
  </g>
  <g id="zoomMin">
    <use xlink:href="#rim" fill="#404040"><set attributeName="fill" to="#808080" begin="zoomminus.mouseover" end="zoomminus.mouseout"/></use>
    <path d="M-4,0h8" fill="none" stroke="white" stroke-width="1.5" pointer-events="none"/>
  </g>
  <g id="arrowUp" transform="translate(30 24)">
    <use xlink:href="#rim"/>
    <path pointer-events="none" fill="none" stroke="white" stroke-width="1.5" d="M0,-3.0v7 M-2.5,-0.5L0,-3.0L2.5,-0.5"/>
  </g>
  <g id="arrowRight" transform="rotate(90) translate(36 -43)">
    <use xlink:href="#rim"/>
    <path pointer-events="none" fill="none" stroke="white" stroke-width="1.5" d="M0,-3.0v7 M-2.5,-0.5L0,-3.0L2.5,-0.5"/>
  </g>
  <g id="arrowDown" transform="rotate(180) translate(-30 -48)">
    <use xlink:href="#rim"/>
    <path pointer-events="none" fill="none" stroke="white" stroke-width="1.5" d="M0,-3.0v7 M-2.5,-0.5L0,-3.0L2.5,-0.5"/>
  </g>
  <g id="arrowLeft" transform="rotate(270) translate(-36 17)">
    <use xlink:href="#rim"/>
    <path pointer-events="none" fill="none" stroke="white" stroke-width="1.5" d="M0,-3.0v7 M-2.5,-0.5L0,-3.0L2.5,-0.5"/>
  </g>
  <g id="resetDef">
    <use xlink:href="#rim2" fill="#404040"><set attributeName="fill" to="#808080" begin="reset.mouseover" end="reset.mouseout"/></use>
  </g>
</defs>
<script type="application/ecmascript">
var viewWidth = 563;
var viewHeight = 148;
var sectionId = 'dynsection-1';
</script>
<script type="application/ecmascript" xlink:href="../../svg.min.js"/>
<svg id="graph" class="graph">
<g id="viewport">
<title>mstd::is_same_function&lt; Fa, Fb, std::void_t&lt; as_std_function_t&lt; Fa &gt;, as_std_function_t&lt; Fb &gt; &gt; &gt;</title>
<!-- Node1 -->
<g id="Node000001" class="node">
<title>Node1</title>
<g id="a_Node000001"><a xlink:title=" ">
<polygon fill="#999999" stroke="#666666" points="554.5,-83 399,-83 399,-27 554.5,-27 554.5,-83"/>
<text xml:space="preserve" text-anchor="start" x="407" y="-69.5" font-family="Helvetica,sans-Serif" font-size="10.00">mstd::is_same_function</text>
<text xml:space="preserve" text-anchor="start" x="407" y="-57.5" font-family="Helvetica,sans-Serif" font-size="10.00">&lt; Fa, Fb, std::void_t</text>
<text xml:space="preserve" text-anchor="start" x="407" y="-45.5" font-family="Helvetica,sans-Serif" font-size="10.00">&lt; as_std_function_t&lt; Fa</text>
<text xml:space="preserve" text-anchor="middle" x="476.75" y="-33.5" font-family="Helvetica,sans-Serif" font-size="10.00"> &gt;, as_std_function_t&lt; Fb &gt; &gt; &gt;</text>
</a>
</g>
</g>
<!-- Node2 -->
<g id="Node000002" class="node">
<title>Node2</title>
<g id="a_Node000002"><a xlink:title=" ">
<polygon fill="white" stroke="#666666" points="80.5,-120 0,-120 0,-100 80.5,-100 80.5,-120"/>
<text xml:space="preserve" text-anchor="middle" x="40.25" y="-106.5" font-family="Helvetica,sans-Serif" font-size="10.00">std::false_type</text>
</a>
</g>
</g>
<!-- Node2&#45;&gt;Node1 -->
<g id="edge1_Node000001_Node000002" class="edge">
<title>Node2&#45;&gt;Node1</title>
<g id="a_edge1_Node000001_Node000002"><a xlink:title=" ">
<path fill="none" stroke="#63b8ff" d="M92.06,-122.21C159.78,-136.17 282.5,-153.31 381,-122 405.19,-114.31 428.52,-97.96 445.98,-83.34"/>
<polygon fill="#63b8ff" stroke="#63b8ff" points="92.87,-118.81 82.36,-120.15 91.41,-125.65 92.87,-118.81"/>
</a>
</g>
</g>
<!-- Node4 -->
<g id="Node000004" class="node">
<title>Node4</title>
<g id="a_Node000004"><a xlink:href="../../d6/d67/structmstd_1_1is__same__function.html" target="_top" xlink:title=" ">
<polygon fill="white" stroke="#666666" points="238.12,-101 117.88,-101 117.88,-69 238.12,-69 238.12,-101"/>
<text xml:space="preserve" text-anchor="start" x="125.88" y="-87.5" font-family="Helvetica,sans-Serif" font-size="10.00">mstd::is_same_function</text>
<text xml:space="preserve" text-anchor="middle" x="178" y="-75.5" font-family="Helvetica,sans-Serif" font-size="10.00">&lt; Fa, Fb, class &gt;</text>
</a>
</g>
</g>
<!-- Node2&#45;&gt;Node4 -->
<g id="edge4_Node000004_Node000002" class="edge">
<title>Node2&#45;&gt;Node4</title>
<g id="a_edge4_Node000004_Node000002"><a xlink:title=" ">
<path fill="none" stroke="#63b8ff" d="M91.92,-100.67C100.22,-99.14 108.89,-97.54 117.39,-95.98"/>
<polygon fill="#63b8ff" stroke="#63b8ff" points="91.57,-97.17 82.37,-102.43 92.84,-104.06 91.57,-97.17"/>
</a>
</g>
</g>
<!-- Node3 -->
<g id="Node000003" class="node">
<title>Node3</title>
<g id="a_Node000003"><a xlink:title=" ">
<polygon fill="white" stroke="#666666" points="238.5,-44 117.5,-44 117.5,0 238.5,0 238.5,-44"/>
<text xml:space="preserve" text-anchor="start" x="125.5" y="-30.5" font-family="Helvetica,sans-Serif" font-size="10.00">std::is_same&lt; as_std</text>
<text xml:space="preserve" text-anchor="start" x="125.5" y="-18.5" font-family="Helvetica,sans-Serif" font-size="10.00">_function_t&lt; Fa &gt;, as</text>
<text xml:space="preserve" text-anchor="middle" x="178" y="-6.5" font-family="Helvetica,sans-Serif" font-size="10.00">_std_function_t&lt; Fb &gt; &gt;</text>
</a>
</g>
</g>
<!-- Node3&#45;&gt;Node1 -->
<g id="edge2_Node000001_Node000003" class="edge">
<title>Node3&#45;&gt;Node1</title>
<g id="a_edge2_Node000001_Node000003"><a xlink:title=" ">
<path fill="none" stroke="#63b8ff" d="M249.84,-29.59C288.59,-33.77 337.45,-39.1 381,-44 386.76,-44.65 392.72,-45.32 398.71,-46.01"/>
<polygon fill="#63b8ff" stroke="#63b8ff" points="250.5,-26.14 240.18,-28.55 249.75,-33.1 250.5,-26.14"/>
</a>
</g>
</g>
<!-- Node4&#45;&gt;Node1 -->
<g id="edge3_Node000001_Node000004" class="edge">
<title>Node4&#45;&gt;Node1</title>
<g id="a_edge3_Node000001_Node000004"><a xlink:title=" ">
<path fill="none" stroke="orange" stroke-dasharray="5,2" d="M225.5,-64.58C235.54,-61.04 246.23,-57.88 256.5,-56 303.11,-47.45 356.24,-46.98 398.53,-48.76"/>
<polygon fill="orange" stroke="orange" points="224.46,-61.23 216.33,-68.02 226.92,-67.79 224.46,-61.23"/>
</a>
</g>
<text xml:space="preserve" text-anchor="start" x="259.5" y="-109.5" font-family="Helvetica,sans-Serif" font-size="10.00" fill="grey">&lt; Fa, Fb, std::void</text>
<text xml:space="preserve" text-anchor="start" x="259.5" y="-93.5" font-family="Helvetica,sans-Serif" font-size="10.00" fill="grey">  _t&lt; as_std_function</text>
<text xml:space="preserve" text-anchor="start" x="259.5" y="-77.5" font-family="Helvetica,sans-Serif" font-size="10.00" fill="grey">  _t&lt; Fa &gt;, as_std_function</text>
<text xml:space="preserve" text-anchor="start" x="259.5" y="-61.5" font-family="Helvetica,sans-Serif" font-size="10.00" fill="grey">  _t&lt; Fb &gt; &gt; &gt;</text>
</g>
</g>
</svg>

<g id="navigator" transform="translate(0 0)" fill="#404254">
  <rect fill="#f2f5e9" fill-opacity="0.5" stroke="#606060" stroke-width=".5" x="0" y="0" width="60" height="60"/>
  <use id="zoomplus" xlink:href="#zoomPlus" x="17" y="9" onmousedown="handleZoom(evt,'in')"/>
  <use id="zoomminus" xlink:href="#zoomMin" x="42" y="9" onmousedown="handleZoom(evt,'out')"/>
  <use id="reset" xlink:href="#resetDef" x="30" y="36" onmousedown="handleReset()"/>
   <use id="arrowup" xlink:href="#arrowUp" x="0" y="0" onmousedown="handlePan(0,-1)"/>
  <use id="arrowright" xlink:href="#arrowRight" x="0" y="0" onmousedown="handlePan(1,0)"/>
  <use id="arrowdown" xlink:href="#arrowDown" x="0" y="0" onmousedown="handlePan(0,1)"/>
  <use id="arrowleft" xlink:href="#arrowLeft" x="0" y="0" onmousedown="handlePan(-1,0)"/>
</g>
<svg viewBox="0 0 15 15" width="100%" height="30px" preserveAspectRatio="xMaxYMin meet">
 <g id="arrow_out" transform="scale(0.3 0.3)">
  <a xlink:href="structmstd_1_1is__same__function_3_01_fa_00_01_fb_00_01std_1_1void__t_3_01as__std__function__t_3c74265123079cc0ba9b5792489ddce2b_org.svg" target="_base">
   <rect id="button" ry="5" rx="5" y="6" x="6" height="38" width="38"
        fill="#f2f5e9" fill-opacity="0.5" stroke="#606060" stroke-width="1.0"/>
   <path id="arrow"
     d="M 11.500037,31.436501 C 11.940474,20.09759 22.043105,11.32322 32.158766,21.979434 L 37.068811,17.246167 C 37.068811,17.246167 37.088388,32 37.088388,32 L 22.160133,31.978069 C 22.160133,31.978069 26.997745,27.140456 26.997745,27.140456 C 18.528582,18.264221 13.291696,25.230495 11.500037,31.436501 z"
     style="fill:#404040;"/>
  </a>
 </g>
</svg>

<style type='text/css'>
<![CDATA[
[data-mouse-over-selected='false'] { opacity: 0.7; }
[data-mouse-over-selected='true']  { opacity: 1.0; }
]]>
</style>
<script type="application/ecmascript"><![CDATA[
document.addEventListener('DOMContentLoaded', (event) => {
  highlightEdges();
  highlightAdjacentNodes();
});
]]></script>
</svg>
