<?xml version="1.0" encoding="UTF-8" standalone="no"?>
<!DOCTYPE svg PUBLIC "-//W3C//DTD SVG 1.1//EN"
 "http://www.w3.org/Graphics/SVG/1.1/DTD/svg11.dtd">
<!-- Generated by graphviz version 14.1.1 (20251213.1925)
 -->
<!-- Title: mstd::function_traits&lt; R(C::*)(Args...) const &gt; Pages: 1 -->
<!--zoomable 636 -->

<svg id="main" version="1.1" xmlns="http://www.w3.org/2000/svg" xmlns:xlink="http://www.w3.org/1999/xlink" xml:space="preserve" onload="init(evt)">

<style type="text/css"><![CDATA[
.node, .edge {opacity: 0.7;}
.node.selected, .edge.selected {opacity: 1;}
.edge:hover path { stroke: red; }
.edge:hover polygon { stroke: red; fill: red; }
]]></style>

<defs>
  <circle id="rim" cx="0" cy="0" r="7"/>
  <circle id="rim2" cx="0" cy="0" r="3.5"/>
  <g id="zoomPlus">
    <use xlink:href="#rim" fill="#404040"><set attributeName="fill" to="#808080" begin="zoomplus.mouseover" end="zoomplus.mouseout"/></use>
    <path d="M-4,0h8M0,-4v8" fill="none" stroke="white" stroke-width="1.5" pointer-events="none"/>
  </g>
  <g id="zoomMin">
    <use xlink:href="#rim" fill="#404040"><set attributeName="fill" to="#808080" begin="zoomminus.mouseover" end="zoomminus.mouseout"/></use>
    <path d="M-4,0h8" fill="none" stroke="white" stroke-width="1.5" pointer-events="none"/>
  </g>
  <g id="arrowUp" transform="translate(30 24)">
    <use xlink:href="#rim"/>
    <path pointer-events="none" fill="none" stroke="white" stroke-width="1.5" d="M0,-3.0v7 M-2.5,-0.5L0,-3.0L2.5,-0.5"/>
  </g>
  <g id="arrowRight" transform="rotate(90) translate(36 -43)">
    <use xlink:href="#rim"/>
    <path pointer-events="none" fill="none" stroke="white" stroke-width="1.5" d="M0,-3.0v7 M-2.5,-0.5L0,-3.0L2.5,-0.5"/>
  </g>
  <g id="arrowDown" transform="rotate(180) translate(-30 -48)">
    <use xlink:href="#rim"/>
    <path pointer-events="none" fill="none" stroke="white" stroke-width="1.5" d="M0,-3.0v7 M-2.5,-0.5L0,-3.0L2.5,-0.5"/>
  </g>
  <g id="arrowLeft" transform="rotate(270) translate(-36 17)">
    <use xlink:href="#rim"/>
    <path pointer-events="none" fill="none" stroke="white" stroke-width="1.5" d="M0,-3.0v7 M-2.5,-0.5L0,-3.0L2.5,-0.5"/>
  </g>
  <g id="resetDef">
    <use xlink:href="#rim2" fill="#404040"><set attributeName="fill" to="#808080" begin="reset.mouseover" end="reset.mouseout"/></use>
  </g>
</defs>
<script type="application/ecmascript">
var viewWidth = 1450;
var viewHeight = 636;
var sectionId = 'dynsection-1';
</script>
<script type="application/ecmascript" xlink:href="../../svg.min.js"/>
<svg id="graph" class="graph">
<g id="viewport">
<title>mstd::function_traits&lt; R(C::*)(Args...) const &gt;</title>
<!-- Node1 -->
<g id="Node000001" class="node">
<title>Node1</title>
<g id="a_Node000001"><a xlink:title=" ">
<polygon fill="#999999" stroke="#666666" points="1441.75,-448 1314.75,-448 1314.75,-416 1441.75,-416 1441.75,-448"/>
<text xml:space="preserve" text-anchor="start" x="1322.75" y="-434.5" font-family="Helvetica,sans-Serif" font-size="10.00">mstd::function_traits</text>
<text xml:space="preserve" text-anchor="middle" x="1378.25" y="-422.5" font-family="Helvetica,sans-Serif" font-size="10.00">&lt; R(C::*)(Args...) const &gt;</text>
</a>
</g>
</g>
<!-- Node2 -->
<g id="Node000002" class="node">
<title>Node2</title>
<g id="a_Node000002"><a xlink:href="../../d0/d74/structmstd_1_1utils_1_1function__default__type__traits.html" target="_top" xlink:title=" ">
<polygon fill="white" stroke="#666666" points="588.75,-341 486.5,-341 486.5,-297 588.75,-297 588.75,-341"/>
<text xml:space="preserve" text-anchor="start" x="494.5" y="-327.5" font-family="Helvetica,sans-Serif" font-size="10.00">mstd::utils::function</text>
<text xml:space="preserve" text-anchor="start" x="494.5" y="-315.5" font-family="Helvetica,sans-Serif" font-size="10.00">_default_type_traits</text>
<text xml:space="preserve" text-anchor="middle" x="537.62" y="-303.5" font-family="Helvetica,sans-Serif" font-size="10.00">&lt; false &gt;</text>
</a>
</g>
</g>
<!-- Node2&#45;&gt;Node1 -->
<g id="edge1_Node000001_Node000002" class="edge">
<title>Node2&#45;&gt;Node1</title>
<g id="a_edge1_Node000001_Node000002"><a xlink:title=" ">
<path fill="none" stroke="#63b8ff" d="M559.07,-350.36C592.52,-397.46 663.79,-481 748.38,-481 748.38,-481 748.38,-481 1220.12,-481 1264.84,-481 1313.61,-462.69 1344.76,-448.45"/>
<polygon fill="#63b8ff" stroke="#63b8ff" points="562.14,-348.65 553.56,-342.43 556.39,-352.64 562.14,-348.65"/>
</a>
</g>
</g>
<!-- Node5 -->
<g id="Node000005" class="node">
<title>Node5</title>
<g id="a_Node000005"><a xlink:href="../../df/d15/structmstd_1_1function__traits_3_01_r_07_args_8_8_8_08_01const_00_01_c_01_4.html" target="_top" xlink:title=" ">
<polygon fill="white" stroke="#666666" points="1277.75,-339 1160.5,-339 1160.5,-307 1277.75,-307 1277.75,-339"/>
<text xml:space="preserve" text-anchor="start" x="1168.5" y="-325.5" font-family="Helvetica,sans-Serif" font-size="10.00">mstd::function_traits</text>
<text xml:space="preserve" text-anchor="middle" x="1219.12" y="-313.5" font-family="Helvetica,sans-Serif" font-size="10.00">&lt; R(Args...) const, C &gt;</text>
</a>
</g>
</g>
<!-- Node2&#45;&gt;Node5 -->
<g id="edge6_Node000005_Node000002" class="edge">
<title>Node2&#45;&gt;Node5</title>
<g id="a_edge6_Node000005_Node000002"><a xlink:title=" ">
<path fill="none" stroke="#63b8ff" d="M600.63,-311.93C695.93,-302.08 884.11,-286.65 1043.5,-298 1082.6,-300.78 1126.26,-307.03 1160.14,-312.59"/>
<polygon fill="#63b8ff" stroke="#63b8ff" points="600.29,-308.45 590.71,-312.97 601.02,-315.41 600.29,-308.45"/>
</a>
</g>
</g>
<!-- Node6 -->
<g id="Node000006" class="node">
<title>Node6</title>
<g id="a_Node000006"><a xlink:href="../../dd/db6/structmstd_1_1function__traits_3_01_r_07_args_8_8_8_08_00_01_c_01_4.html" target="_top" xlink:title=" ">
<polygon fill="white" stroke="#666666" points="1042.5,-339 937.25,-339 937.25,-307 1042.5,-307 1042.5,-339"/>
<text xml:space="preserve" text-anchor="start" x="945.25" y="-325.5" font-family="Helvetica,sans-Serif" font-size="10.00">mstd::function_traits</text>
<text xml:space="preserve" text-anchor="middle" x="989.88" y="-313.5" font-family="Helvetica,sans-Serif" font-size="10.00">&lt; R(Args...), C &gt;</text>
</a>
</g>
</g>
<!-- Node2&#45;&gt;Node6 -->
<g id="edge8_Node000006_Node000002" class="edge">
<title>Node2&#45;&gt;Node6</title>
<g id="a_edge8_Node000006_Node000002"><a xlink:title=" ">
<path fill="none" stroke="#63b8ff" d="M600.26,-319.55C689.52,-320.34 853.21,-321.79 936.78,-322.54"/>
<polygon fill="#63b8ff" stroke="#63b8ff" points="600.51,-316.05 590.48,-319.46 600.45,-323.05 600.51,-316.05"/>
</a>
</g>
</g>
<!-- Node11 -->
<g id="Node000011" class="node">
<title>Node11</title>
<g id="a_Node000011"><a xlink:href="../../d7/dcb/structmstd_1_1function__traits.html" target="_top" xlink:title=" ">
<polygon fill="white" stroke="#666666" points="802,-398 696.75,-398 696.75,-366 802,-366 802,-398"/>
<text xml:space="preserve" text-anchor="start" x="704.75" y="-384.5" font-family="Helvetica,sans-Serif" font-size="10.00">mstd::function_traits</text>
<text xml:space="preserve" text-anchor="middle" x="749.38" y="-372.5" font-family="Helvetica,sans-Serif" font-size="10.00">&lt; F, C &gt;</text>
</a>
</g>
</g>
<!-- Node2&#45;&gt;Node11 -->
<g id="edge17_Node000011_Node000002" class="edge">
<title>Node2&#45;&gt;Node11</title>
<g id="a_edge17_Node000011_Node000002"><a xlink:title=" ">
<path fill="none" stroke="#63b8ff" d="M600.11,-337.47C630.72,-346.66 667.31,-357.65 696.48,-366.41"/>
<polygon fill="#63b8ff" stroke="#63b8ff" points="601.17,-334.13 590.58,-334.61 599.15,-340.83 601.17,-334.13"/>
</a>
</g>
</g>
<!-- Node3 -->
<g id="Node000003" class="node">
<title>Node3</title>
<g id="a_Node000003"><a xlink:title=" ">
<polygon fill="white" stroke="#666666" points="155.5,-145 0,-145 0,-113 155.5,-113 155.5,-145"/>
<text xml:space="preserve" text-anchor="start" x="8" y="-131.5" font-family="Helvetica,sans-Serif" font-size="10.00">static _MSTD_CONSTEXPR17</text>
<text xml:space="preserve" text-anchor="middle" x="77.75" y="-119.5" font-family="Helvetica,sans-Serif" font-size="10.00"> const bool</text>
</a>
</g>
</g>
<!-- Node3&#45;&gt;Node2 -->
<g id="edge2_Node000002_Node000003" class="edge">
<title>Node3&#45;&gt;Node2</title>
<g id="a_edge2_Node000002_Node000003"><a xlink:title=" ">
<path fill="none" stroke="#9a32cd" stroke-dasharray="5,2" d="M84.23,-156.41C94.08,-197.56 119.04,-274.07 173.5,-308 224.22,-339.6 398.83,-330.44 486.11,-323.56"/>
<polygon fill="#9a32cd" stroke="#9a32cd" points="87.68,-155.8 82.07,-146.81 80.85,-157.34 87.68,-155.8"/>
</a>
</g>
<text xml:space="preserve" text-anchor="start" x="286.5" y="-495.81" font-family="Helvetica,sans-Serif" font-size="10.00" fill="grey">is_const</text>
<text xml:space="preserve" text-anchor="start" x="286.5" y="-479.81" font-family="Helvetica,sans-Serif" font-size="10.00" fill="grey">is_free</text>
<text xml:space="preserve" text-anchor="start" x="286.5" y="-463.81" font-family="Helvetica,sans-Serif" font-size="10.00" fill="grey">is_functor</text>
<text xml:space="preserve" text-anchor="start" x="286.5" y="-447.81" font-family="Helvetica,sans-Serif" font-size="10.00" fill="grey">is_member</text>
<text xml:space="preserve" text-anchor="start" x="286.5" y="-431.81" font-family="Helvetica,sans-Serif" font-size="10.00" fill="grey">is_moved</text>
<text xml:space="preserve" text-anchor="start" x="286.5" y="-415.81" font-family="Helvetica,sans-Serif" font-size="10.00" fill="grey">is_noexcept</text>
<text xml:space="preserve" text-anchor="start" x="286.5" y="-399.81" font-family="Helvetica,sans-Serif" font-size="10.00" fill="grey">is_parent_moved</text>
<text xml:space="preserve" text-anchor="start" x="286.5" y="-383.81" font-family="Helvetica,sans-Serif" font-size="10.00" fill="grey">is_parent_ref</text>
<text xml:space="preserve" text-anchor="start" x="286.5" y="-367.81" font-family="Helvetica,sans-Serif" font-size="10.00" fill="grey">is_ptr</text>
<text xml:space="preserve" text-anchor="start" x="286.5" y="-351.81" font-family="Helvetica,sans-Serif" font-size="10.00" fill="grey">is_ref</text>
<text xml:space="preserve" text-anchor="start" x="286.5" y="-335.81" font-family="Helvetica,sans-Serif" font-size="10.00" fill="grey"> &#160;...</text>
</g>
<!-- Node4 -->
<g id="Node000004" class="node">
<title>Node4</title>
<g id="a_Node000004"><a xlink:href="../../d0/d74/structmstd_1_1utils_1_1function__default__type__traits.html" target="_top" xlink:title=" ">
<polygon fill="white" stroke="#666666" points="374.75,-286 272.5,-286 272.5,-242 374.75,-242 374.75,-286"/>
<text xml:space="preserve" text-anchor="start" x="280.5" y="-272.5" font-family="Helvetica,sans-Serif" font-size="10.00">mstd::utils::function</text>
<text xml:space="preserve" text-anchor="start" x="280.5" y="-260.5" font-family="Helvetica,sans-Serif" font-size="10.00">_default_type_traits</text>
<text xml:space="preserve" text-anchor="middle" x="323.62" y="-248.5" font-family="Helvetica,sans-Serif" font-size="10.00">&lt; IsMember &gt;</text>
</a>
</g>
</g>
<!-- Node3&#45;&gt;Node4 -->
<g id="edge4_Node000004_Node000003" class="edge">
<title>Node3&#45;&gt;Node4</title>
<g id="a_edge4_Node000004_Node000003"><a xlink:title=" ">
<path fill="none" stroke="#9a32cd" stroke-dasharray="5,2" d="M145.24,-110.55C181.27,-104.78 224.31,-105.33 253.75,-130 287.69,-158.44 247.92,-190.68 271.75,-228 275.01,-233.11 279.28,-237.7 283.96,-241.77"/>
<polygon fill="#9a32cd" stroke="#9a32cd" points="145.02,-107.03 135.8,-112.25 146.26,-113.92 145.02,-107.03"/>
</a>
</g>
<text xml:space="preserve" text-anchor="start" x="176.5" y="-295.5" font-family="Helvetica,sans-Serif" font-size="10.00" fill="grey">is_const</text>
<text xml:space="preserve" text-anchor="start" x="176.5" y="-279.5" font-family="Helvetica,sans-Serif" font-size="10.00" fill="grey">is_free</text>
<text xml:space="preserve" text-anchor="start" x="176.5" y="-263.5" font-family="Helvetica,sans-Serif" font-size="10.00" fill="grey">is_functor</text>
<text xml:space="preserve" text-anchor="start" x="176.5" y="-247.5" font-family="Helvetica,sans-Serif" font-size="10.00" fill="grey">is_member</text>
<text xml:space="preserve" text-anchor="start" x="176.5" y="-231.5" font-family="Helvetica,sans-Serif" font-size="10.00" fill="grey">is_moved</text>
<text xml:space="preserve" text-anchor="start" x="176.5" y="-215.5" font-family="Helvetica,sans-Serif" font-size="10.00" fill="grey">is_noexcept</text>
<text xml:space="preserve" text-anchor="start" x="176.5" y="-199.5" font-family="Helvetica,sans-Serif" font-size="10.00" fill="grey">is_parent_moved</text>
<text xml:space="preserve" text-anchor="start" x="176.5" y="-183.5" font-family="Helvetica,sans-Serif" font-size="10.00" fill="grey">is_parent_ref</text>
<text xml:space="preserve" text-anchor="start" x="176.5" y="-167.5" font-family="Helvetica,sans-Serif" font-size="10.00" fill="grey">is_ptr</text>
<text xml:space="preserve" text-anchor="start" x="176.5" y="-151.5" font-family="Helvetica,sans-Serif" font-size="10.00" fill="grey">is_ref</text>
<text xml:space="preserve" text-anchor="start" x="176.5" y="-135.5" font-family="Helvetica,sans-Serif" font-size="10.00" fill="grey"> &#160;...</text>
</g>
<!-- Node3&#45;&gt;Node5 -->
<g id="edge19_Node000005_Node000003" class="edge">
<title>Node3&#45;&gt;Node5</title>
<g id="a_edge19_Node000005_Node000003"><a xlink:title=" ">
<path fill="none" stroke="#9a32cd" stroke-dasharray="5,2" d="M99.99,-104.32C117.82,-85.05 144.9,-58.96 173.5,-43 233.74,-9.39 253.65,0 322.62,0 322.62,0 322.62,0 990.88,0 1142.4,0 1201.67,-240.72 1215.04,-306.54"/>
<polygon fill="#9a32cd" stroke="#9a32cd" points="97.6,-101.75 93.49,-111.51 102.8,-106.44 97.6,-101.75"/>
</a>
</g>
<text xml:space="preserve" text-anchor="start" x="621" y="-5.5" font-family="Helvetica,sans-Serif" font-size="10.00" fill="grey">is_const</text>
</g>
<!-- Node10 -->
<g id="Node000010" class="node">
<title>Node10</title>
<g id="a_Node000010"><a xlink:href="../../d0/d74/structmstd_1_1utils_1_1function__default__type__traits.html" target="_top" xlink:title=" ">
<polygon fill="white" stroke="#666666" points="588.75,-270 486.5,-270 486.5,-226 588.75,-226 588.75,-270"/>
<text xml:space="preserve" text-anchor="start" x="494.5" y="-256.5" font-family="Helvetica,sans-Serif" font-size="10.00">mstd::utils::function</text>
<text xml:space="preserve" text-anchor="start" x="494.5" y="-244.5" font-family="Helvetica,sans-Serif" font-size="10.00">_default_type_traits</text>
<text xml:space="preserve" text-anchor="middle" x="537.62" y="-232.5" font-family="Helvetica,sans-Serif" font-size="10.00">&lt; true &gt;</text>
</a>
</g>
</g>
<!-- Node3&#45;&gt;Node10 -->
<g id="edge14_Node000010_Node000003" class="edge">
<title>Node3&#45;&gt;Node10</title>
<g id="a_edge14_Node000010_Node000003"><a xlink:title=" ">
<path fill="none" stroke="#9a32cd" stroke-dasharray="5,2" d="M111.97,-106.74C168.36,-71.97 285.44,-12.87 375.5,-55 452,-90.79 504.91,-182.74 526.18,-225.51"/>
<polygon fill="#9a32cd" stroke="#9a32cd" points="110.36,-103.62 103.77,-111.91 114.1,-109.54 110.36,-103.62"/>
</a>
</g>
<text xml:space="preserve" text-anchor="start" x="286.5" y="-220.5" font-family="Helvetica,sans-Serif" font-size="10.00" fill="grey">is_const</text>
<text xml:space="preserve" text-anchor="start" x="286.5" y="-204.5" font-family="Helvetica,sans-Serif" font-size="10.00" fill="grey">is_free</text>
<text xml:space="preserve" text-anchor="start" x="286.5" y="-188.5" font-family="Helvetica,sans-Serif" font-size="10.00" fill="grey">is_functor</text>
<text xml:space="preserve" text-anchor="start" x="286.5" y="-172.5" font-family="Helvetica,sans-Serif" font-size="10.00" fill="grey">is_member</text>
<text xml:space="preserve" text-anchor="start" x="286.5" y="-156.5" font-family="Helvetica,sans-Serif" font-size="10.00" fill="grey">is_moved</text>
<text xml:space="preserve" text-anchor="start" x="286.5" y="-140.5" font-family="Helvetica,sans-Serif" font-size="10.00" fill="grey">is_noexcept</text>
<text xml:space="preserve" text-anchor="start" x="286.5" y="-124.5" font-family="Helvetica,sans-Serif" font-size="10.00" fill="grey">is_parent_moved</text>
<text xml:space="preserve" text-anchor="start" x="286.5" y="-108.5" font-family="Helvetica,sans-Serif" font-size="10.00" fill="grey">is_parent_ref</text>
<text xml:space="preserve" text-anchor="start" x="286.5" y="-92.5" font-family="Helvetica,sans-Serif" font-size="10.00" fill="grey">is_ptr</text>
<text xml:space="preserve" text-anchor="start" x="286.5" y="-76.5" font-family="Helvetica,sans-Serif" font-size="10.00" fill="grey">is_ref</text>
<text xml:space="preserve" text-anchor="start" x="286.5" y="-60.5" font-family="Helvetica,sans-Serif" font-size="10.00" fill="grey"> &#160;...</text>
</g>
<!-- Node3&#45;&gt;Node11 -->
<g id="edge18_Node000011_Node000003" class="edge">
<title>Node3&#45;&gt;Node11</title>
<g id="a_edge18_Node000011_Node000003"><a xlink:title=" ">
<path fill="none" stroke="#9a32cd" stroke-dasharray="5,2" d="M82.61,-156.59C94.63,-230.59 138.91,-433.17 271.75,-512 430.33,-606.11 658.73,-450.45 727.82,-398.18"/>
<polygon fill="#9a32cd" stroke="#9a32cd" points="86.11,-156.32 81.12,-146.97 79.19,-157.39 86.11,-156.32"/>
</a>
</g>
<text xml:space="preserve" text-anchor="start" x="410.75" y="-547.01" font-family="Helvetica,sans-Serif" font-size="10.00" fill="grey">is_free</text>
</g>
<!-- Node4&#45;&gt;Node2 -->
<g id="edge3_Node000002_Node000004" class="edge">
<title>Node4&#45;&gt;Node2</title>
<g id="a_edge3_Node000002_Node000004"><a xlink:title=" ">
<path fill="none" stroke="orange" stroke-dasharray="5,2" d="M386.25,-274.01C408.78,-278.21 434.34,-283.61 457.25,-290 466.72,-292.64 476.67,-295.88 486.2,-299.24"/>
<polygon fill="orange" stroke="orange" points="387.08,-270.6 376.62,-272.25 385.83,-277.49 387.08,-270.6"/>
</a>
</g>
<text xml:space="preserve" text-anchor="start" x="405.88" y="-295.5" font-family="Helvetica,sans-Serif" font-size="10.00" fill="grey">&lt; false &gt;</text>
</g>
<!-- Node4&#45;&gt;Node10 -->
<g id="edge15_Node000010_Node000004" class="edge">
<title>Node4&#45;&gt;Node10</title>
<g id="a_edge15_Node000010_Node000004"><a xlink:title=" ">
<path fill="none" stroke="orange" stroke-dasharray="5,2" d="M386.42,-249.9C388.81,-249.56 391.17,-249.26 393.5,-249 424.12,-245.6 458.66,-245.25 486.13,-245.81"/>
<polygon fill="orange" stroke="orange" points="386,-246.43 376.7,-251.49 387.13,-253.33 386,-246.43"/>
</a>
</g>
<text xml:space="preserve" text-anchor="start" x="408.12" y="-254.5" font-family="Helvetica,sans-Serif" font-size="10.00" fill="grey">&lt; true &gt;</text>
</g>
<!-- Node5&#45;&gt;Node1 -->
<g id="edge5_Node000001_Node000005" class="edge">
<title>Node5&#45;&gt;Node1</title>
<g id="a_edge5_Node000001_Node000005"><a xlink:title=" ">
<path fill="none" stroke="#63b8ff" d="M1252.89,-345.73C1282.95,-366.58 1326.77,-396.98 1353.57,-415.57"/>
<polygon fill="#63b8ff" stroke="#63b8ff" points="1255.1,-343.01 1244.89,-340.18 1251.11,-348.76 1255.1,-343.01"/>
</a>
</g>
</g>
<!-- Node6&#45;&gt;Node5 -->
<g id="edge7_Node000005_Node000006" class="edge">
<title>Node6&#45;&gt;Node5</title>
<g id="a_edge7_Node000005_Node000006"><a xlink:title=" ">
<path fill="none" stroke="#63b8ff" d="M1054.14,-323C1087.34,-323 1127.72,-323 1160.1,-323"/>
<polygon fill="#63b8ff" stroke="#63b8ff" points="1054.24,-319.5 1044.24,-323 1054.24,-326.5 1054.24,-319.5"/>
</a>
</g>
</g>
<!-- Node7 -->
<g id="Node000007" class="node">
<title>Node7</title>
<g id="a_Node000007"><a xlink:href="../../d1/d4f/structmstd_1_1utils_1_1function__core__traits_3_01_r_07_args_8_8_8_08_00_01_c_01_4.html" target="_top" xlink:title=" ">
<polygon fill="white" stroke="#666666" points="820,-588 678.75,-588 678.75,-556 820,-556 820,-588"/>
<text xml:space="preserve" text-anchor="start" x="686.75" y="-574.5" font-family="Helvetica,sans-Serif" font-size="10.00">mstd::utils::function</text>
<text xml:space="preserve" text-anchor="middle" x="749.38" y="-562.5" font-family="Helvetica,sans-Serif" font-size="10.00">_core_traits&lt; R(Args...), C &gt;</text>
</a>
</g>
</g>
<!-- Node7&#45;&gt;Node6 -->
<g id="edge9_Node000006_Node000007" class="edge">
<title>Node7&#45;&gt;Node6</title>
<g id="a_edge9_Node000006_Node000007"><a xlink:title=" ">
<path fill="none" stroke="#63b8ff" d="M769.27,-546.77C801.08,-505.2 868.52,-420.85 936.25,-360 944.48,-352.61 954.21,-345.4 963.05,-339.34"/>
<polygon fill="#63b8ff" stroke="#63b8ff" points="766.68,-544.39 763.42,-554.47 772.25,-548.63 766.68,-544.39"/>
</a>
</g>
</g>
<!-- Node8 -->
<g id="Node000008" class="node">
<title>Node8</title>
<g id="a_Node000008"><a xlink:href="../../df/db9/structmstd_1_1utils_1_1function__core__traits.html" target="_top" xlink:title=" ">
<polygon fill="white" stroke="#666666" points="600,-588 475.25,-588 475.25,-556 600,-556 600,-588"/>
<text xml:space="preserve" text-anchor="start" x="483.25" y="-574.5" font-family="Helvetica,sans-Serif" font-size="10.00">mstd::utils::function</text>
<text xml:space="preserve" text-anchor="middle" x="537.62" y="-562.5" font-family="Helvetica,sans-Serif" font-size="10.00">_core_traits&lt; R(Args...)&gt;</text>
</a>
</g>
</g>
<!-- Node8&#45;&gt;Node7 -->
<g id="edge10_Node000007_Node000008" class="edge">
<title>Node8&#45;&gt;Node7</title>
<g id="a_edge10_Node000007_Node000008"><a xlink:title=" ">
<path fill="none" stroke="#63b8ff" d="M611.87,-572C633.52,-572 657.14,-572 678.56,-572"/>
<polygon fill="#63b8ff" stroke="#63b8ff" points="611.94,-568.5 601.94,-572 611.94,-575.5 611.94,-568.5"/>
</a>
</g>
</g>
<!-- Node9 -->
<g id="Node000009" class="node">
<title>Node9</title>
<g id="a_Node000009"><a xlink:href="../../df/db9/structmstd_1_1utils_1_1function__core__traits.html" target="_top" xlink:title=" ">
<polygon fill="white" stroke="#666666" points="375.5,-618 271.75,-618 271.75,-586 375.5,-586 375.5,-618"/>
<text xml:space="preserve" text-anchor="start" x="279.75" y="-604.5" font-family="Helvetica,sans-Serif" font-size="10.00">mstd::utils::function</text>
<text xml:space="preserve" text-anchor="middle" x="323.62" y="-592.5" font-family="Helvetica,sans-Serif" font-size="10.00">_core_traits&lt; F, C &gt;</text>
</a>
</g>
</g>
<!-- Node9&#45;&gt;Node7 -->
<g id="edge12_Node000007_Node000009" class="edge">
<title>Node9&#45;&gt;Node7</title>
<g id="a_edge12_Node000007_Node000009"><a xlink:title=" ">
<path fill="none" stroke="orange" stroke-dasharray="5,2" d="M386.92,-609.56C389.14,-609.73 391.34,-609.87 393.5,-610 492.78,-615.75 607.07,-599.35 678.51,-586.32"/>
<polygon fill="orange" stroke="orange" points="387.49,-606.1 377.23,-608.73 386.89,-613.07 387.49,-606.1"/>
</a>
</g>
<text xml:space="preserve" text-anchor="start" x="500.5" y="-615.63" font-family="Helvetica,sans-Serif" font-size="10.00" fill="grey">&lt; R(Args...), C &gt;</text>
</g>
<!-- Node9&#45;&gt;Node8 -->
<g id="edge11_Node000008_Node000009" class="edge">
<title>Node9&#45;&gt;Node8</title>
<g id="a_edge11_Node000008_Node000009"><a xlink:title=" ">
<path fill="none" stroke="orange" stroke-dasharray="5,2" d="M386.94,-592.94C389.16,-592.62 391.35,-592.31 393.5,-592 420.2,-588.2 449.72,-584.06 474.97,-580.54"/>
<polygon fill="orange" stroke="orange" points="386.67,-589.44 377.27,-594.33 387.67,-596.37 386.67,-589.44"/>
</a>
</g>
<text xml:space="preserve" text-anchor="start" x="396.5" y="-597.5" font-family="Helvetica,sans-Serif" font-size="10.00" fill="grey">&lt; R(Args...)&gt;</text>
</g>
<!-- Node10&#45;&gt;Node6 -->
<g id="edge13_Node000006_Node000010" class="edge">
<title>Node10&#45;&gt;Node6</title>
<g id="a_edge13_Node000006_Node000010"><a xlink:title=" ">
<path fill="none" stroke="#63b8ff" d="M600.26,-258.27C689.52,-273.14 853.21,-300.4 936.78,-314.32"/>
<polygon fill="#63b8ff" stroke="#63b8ff" points="600.9,-254.82 590.46,-256.63 599.75,-261.73 600.9,-254.82"/>
</a>
</g>
</g>
<!-- Node11&#45;&gt;Node1 -->
<g id="edge21_Node000001_Node000011" class="edge">
<title>Node11&#45;&gt;Node1</title>
<g id="a_edge21_Node000001_Node000011"><a xlink:title=" ">
<path fill="none" stroke="orange" stroke-dasharray="5,2" d="M813.67,-387.05C934.01,-396.65 1194.44,-417.42 1314.42,-426.99"/>
<polygon fill="orange" stroke="orange" points="814.23,-383.58 803.98,-386.28 813.67,-390.56 814.23,-383.58"/>
</a>
</g>
<text xml:space="preserve" text-anchor="start" x="1064.5" y="-434.65" font-family="Helvetica,sans-Serif" font-size="10.00" fill="grey">&lt; R(C::*)(Args...)</text>
<text xml:space="preserve" text-anchor="start" x="1064.5" y="-418.65" font-family="Helvetica,sans-Serif" font-size="10.00" fill="grey">   const &gt;</text>
</g>
<!-- Node11&#45;&gt;Node5 -->
<g id="edge20_Node000005_Node000011" class="edge">
<title>Node11&#45;&gt;Node5</title>
<g id="a_edge20_Node000005_Node000011"><a xlink:title=" ">
<path fill="none" stroke="orange" stroke-dasharray="5,2" d="M813.51,-377.55C845.02,-375.12 883.69,-371.83 918.25,-368 1018.25,-356.93 1043.17,-353.05 1142.5,-337 1148.3,-336.06 1154.34,-335.03 1160.37,-333.97"/>
<polygon fill="orange" stroke="orange" points="813.46,-374.04 803.76,-378.29 813.99,-381.02 813.46,-374.04"/>
</a>
</g>
<text xml:space="preserve" text-anchor="start" x="939.25" y="-371.38" font-family="Helvetica,sans-Serif" font-size="10.00" fill="grey">&lt; R(Args...) const, C &gt;</text>
</g>
<!-- Node11&#45;&gt;Node6 -->
<g id="edge16_Node000006_Node000011" class="edge">
<title>Node11&#45;&gt;Node6</title>
<g id="a_edge16_Node000006_Node000011"><a xlink:title=" ">
<path fill="none" stroke="orange" stroke-dasharray="5,2" d="M801.53,-361.64C813.38,-357.39 826.03,-353.23 838,-350 870.5,-341.23 907.72,-334.53 937.06,-330"/>
<polygon fill="orange" stroke="orange" points="800.52,-358.28 792.34,-365.01 802.93,-364.85 800.52,-358.28"/>
</a>
</g>
<text xml:space="preserve" text-anchor="start" x="841" y="-355.5" font-family="Helvetica,sans-Serif" font-size="10.00" fill="grey">&lt; R(Args...), C &gt;</text>
</g>
</g>
</svg>

<g id="navigator" transform="translate(0 0)" fill="#404254">
  <rect fill="#f2f5e9" fill-opacity="0.5" stroke="#606060" stroke-width=".5" x="0" y="0" width="60" height="60"/>
  <use id="zoomplus" xlink:href="#zoomPlus" x="17" y="9" onmousedown="handleZoom(evt,'in')"/>
  <use id="zoomminus" xlink:href="#zoomMin" x="42" y="9" onmousedown="handleZoom(evt,'out')"/>
  <use id="reset" xlink:href="#resetDef" x="30" y="36" onmousedown="handleReset()"/>
   <use id="arrowup" xlink:href="#arrowUp" x="0" y="0" onmousedown="handlePan(0,-1)"/>
  <use id="arrowright" xlink:href="#arrowRight" x="0" y="0" onmousedown="handlePan(1,0)"/>
  <use id="arrowdown" xlink:href="#arrowDown" x="0" y="0" onmousedown="handlePan(0,1)"/>
  <use id="arrowleft" xlink:href="#arrowLeft" x="0" y="0" onmousedown="handlePan(-1,0)"/>
</g>
<svg viewBox="0 0 15 15" width="100%" height="30px" preserveAspectRatio="xMaxYMin meet">
 <g id="arrow_out" transform="scale(0.3 0.3)">
  <a xlink:href="structmstd_1_1function__traits_3_01_r_07_c_1_1_5_08_07_args_8_8_8_08_01const_01_4__coll__graph_org.svg" target="_base">
   <rect id="button" ry="5" rx="5" y="6" x="6" height="38" width="38"
        fill="#f2f5e9" fill-opacity="0.5" stroke="#606060" stroke-width="1.0"/>
   <path id="arrow"
     d="M 11.500037,31.436501 C 11.940474,20.09759 22.043105,11.32322 32.158766,21.979434 L 37.068811,17.246167 C 37.068811,17.246167 37.088388,32 37.088388,32 L 22.160133,31.978069 C 22.160133,31.978069 26.997745,27.140456 26.997745,27.140456 C 18.528582,18.264221 13.291696,25.230495 11.500037,31.436501 z"
     style="fill:#404040;"/>
  </a>
 </g>
</svg>

<style type='text/css'>
<![CDATA[
[data-mouse-over-selected='false'] { opacity: 0.7; }
[data-mouse-over-selected='true']  { opacity: 1.0; }
]]>
</style>
<script type="application/ecmascript"><![CDATA[
document.addEventListener('DOMContentLoaded', (event) => {
  highlightEdges();
  highlightAdjacentNodes();
});
]]></script>
</svg>
