<?xml version="1.0" encoding="UTF-8" standalone="no"?>
<!DOCTYPE svg PUBLIC "-//W3C//DTD SVG 1.1//EN"
 "http://www.w3.org/Graphics/SVG/1.1/DTD/svg11.dtd">
<!-- Generated by graphviz version 14.1.1 (20251213.1925)
 -->
<!-- Title: mstd::utils::unique_impl&lt; types_holder&lt;&gt;, types_holder&lt; T, Us... &gt; &gt; Pages: 1 -->
<!--zoomable 125 -->

<svg id="main" version="1.1" xmlns="http://www.w3.org/2000/svg" xmlns:xlink="http://www.w3.org/1999/xlink" xml:space="preserve" onload="init(evt)">

<style type="text/css"><![CDATA[
.node, .edge {opacity: 0.7;}
.node.selected, .edge.selected {opacity: 1;}
.edge:hover path { stroke: red; }
.edge:hover polygon { stroke: red; fill: red; }
]]></style>

<defs>
  <circle id="rim" cx="0" cy="0" r="7"/>
  <circle id="rim2" cx="0" cy="0" r="3.5"/>
  <g id="zoomPlus">
    <use xlink:href="#rim" fill="#404040"><set attributeName="fill" to="#808080" begin="zoomplus.mouseover" end="zoomplus.mouseout"/></use>
    <path d="M-4,0h8M0,-4v8" fill="none" stroke="white" stroke-width="1.5" pointer-events="none"/>
  </g>
  <g id="zoomMin">
    <use xlink:href="#rim" fill="#404040"><set attributeName="fill" to="#808080" begin="zoomminus.mouseover" end="zoomminus.mouseout"/></use>
    <path d="M-4,0h8" fill="none" stroke="white" stroke-width="1.5" pointer-events="none"/>
  </g>
  <g id="arrowUp" transform="translate(30 24)">
    <use xlink:href="#rim"/>
    <path pointer-events="none" fill="none" stroke="white" stroke-width="1.5" d="M0,-3.0v7 M-2.5,-0.5L0,-3.0L2.5,-0.5"/>
  </g>
  <g id="arrowRight" transform="rotate(90) translate(36 -43)">
    <use xlink:href="#rim"/>
    <path pointer-events="none" fill="none" stroke="white" stroke-width="1.5" d="M0,-3.0v7 M-2.5,-0.5L0,-3.0L2.5,-0.5"/>
  </g>
  <g id="arrowDown" transform="rotate(180) translate(-30 -48)">
    <use xlink:href="#rim"/>
    <path pointer-events="none" fill="none" stroke="white" stroke-width="1.5" d="M0,-3.0v7 M-2.5,-0.5L0,-3.0L2.5,-0.5"/>
  </g>
  <g id="arrowLeft" transform="rotate(270) translate(-36 17)">
    <use xlink:href="#rim"/>
    <path pointer-events="none" fill="none" stroke="white" stroke-width="1.5" d="M0,-3.0v7 M-2.5,-0.5L0,-3.0L2.5,-0.5"/>
  </g>
  <g id="resetDef">
    <use xlink:href="#rim2" fill="#404040"><set attributeName="fill" to="#808080" begin="reset.mouseover" end="reset.mouseout"/></use>
  </g>
</defs>
<script type="application/ecmascript">
var viewWidth = 518;
var viewHeight = 125;
var sectionId = 'dynsection-0';
</script>
<script type="application/ecmascript" xlink:href="../../svg.min.js"/>
<svg id="graph" class="graph">
<g id="viewport">
<title>mstd::utils::unique_impl&lt; types_holder&lt;&gt;, types_holder&lt; T, Us... &gt; &gt;</title>
<!-- Node1 -->
<g id="Node000001" class="node">
<title>Node1</title>
<g id="a_Node000001"><a xlink:title=" ">
<polygon fill="#999999" stroke="#666666" points="510,-88 404,-88 404,-32 510,-32 510,-88"/>
<text xml:space="preserve" text-anchor="start" x="412" y="-74.5" font-family="Helvetica,sans-Serif" font-size="10.00">mstd::utils::unique</text>
<text xml:space="preserve" text-anchor="start" x="412" y="-62.5" font-family="Helvetica,sans-Serif" font-size="10.00">_impl&lt; types_holder</text>
<text xml:space="preserve" text-anchor="start" x="412" y="-50.5" font-family="Helvetica,sans-Serif" font-size="10.00">&lt;&gt;, types_holder&lt; T,</text>
<text xml:space="preserve" text-anchor="middle" x="457" y="-38.5" font-family="Helvetica,sans-Serif" font-size="10.00"> Us... &gt; &gt;</text>
</a>
</g>
</g>
<!-- Node2 -->
<g id="Node000002" class="node">
<title>Node2</title>
<g id="a_Node000002"><a xlink:href="../../dc/d00/structmstd_1_1utils_1_1unique__impl.html" target="_top" xlink:title=" ">
<polygon fill="white" stroke="#666666" points="364.12,-56 257.38,-56 257.38,0 364.12,0 364.12,-56"/>
<text xml:space="preserve" text-anchor="start" x="265.38" y="-42.5" font-family="Helvetica,sans-Serif" font-size="10.00">mstd::utils::unique</text>
<text xml:space="preserve" text-anchor="start" x="265.38" y="-30.5" font-family="Helvetica,sans-Serif" font-size="10.00">_impl&lt; types_holder</text>
<text xml:space="preserve" text-anchor="start" x="265.38" y="-18.5" font-family="Helvetica,sans-Serif" font-size="10.00">&lt; T &gt;, types_holder&lt;</text>
<text xml:space="preserve" text-anchor="middle" x="310.75" y="-6.5" font-family="Helvetica,sans-Serif" font-size="10.00"> Us... &gt; &gt;</text>
</a>
</g>
</g>
<!-- Node2&#45;&gt;Node1 -->
<g id="edge1_Node000001_Node000002" class="edge">
<title>Node2&#45;&gt;Node1</title>
<g id="a_edge1_Node000001_Node000002"><a xlink:title=" ">
<path fill="none" stroke="#63b8ff" d="M375.29,-42.09C384.81,-44.21 394.54,-46.37 403.79,-48.42"/>
<polygon fill="#63b8ff" stroke="#63b8ff" points="376.23,-38.72 365.71,-39.97 374.72,-45.55 376.23,-38.72"/>
</a>
</g>
</g>
<!-- Node3 -->
<g id="Node000003" class="node">
<title>Node3</title>
<g id="a_Node000003"><a xlink:href="../../dc/d00/structmstd_1_1utils_1_1unique__impl.html" target="_top" xlink:title=" ">
<polygon fill="white" stroke="#666666" points="96.25,-76 0,-76 0,-44 96.25,-44 96.25,-76"/>
<text xml:space="preserve" text-anchor="start" x="8" y="-62.5" font-family="Helvetica,sans-Serif" font-size="10.00">mstd::utils::unique</text>
<text xml:space="preserve" text-anchor="middle" x="48.12" y="-50.5" font-family="Helvetica,sans-Serif" font-size="10.00">_impl&lt; T, U &gt;</text>
</a>
</g>
</g>
<!-- Node3&#45;&gt;Node1 -->
<g id="edge3_Node000001_Node000003" class="edge">
<title>Node3&#45;&gt;Node1</title>
<g id="a_edge3_Node000001_Node000003"><a xlink:title=" ">
<path fill="none" stroke="orange" stroke-dasharray="5,2" d="M107.64,-76.96C109.86,-77.36 112.07,-77.7 114.25,-78 216.1,-91.82 336.37,-78.74 403.64,-68.81"/>
<polygon fill="orange" stroke="orange" points="108.46,-73.56 97.96,-74.98 107.05,-80.42 108.46,-73.56"/>
</a>
</g>
<text xml:space="preserve" text-anchor="start" x="257.5" y="-104.63" font-family="Helvetica,sans-Serif" font-size="10.00" fill="grey">&lt; types_holder&lt;&gt;, types</text>
<text xml:space="preserve" text-anchor="start" x="257.5" y="-88.63" font-family="Helvetica,sans-Serif" font-size="10.00" fill="grey">  _holder&lt; T, Us... &gt; &gt;</text>
</g>
<!-- Node3&#45;&gt;Node2 -->
<g id="edge2_Node000002_Node000003" class="edge">
<title>Node3&#45;&gt;Node2</title>
<g id="a_edge2_Node000002_Node000003"><a xlink:title=" ">
<path fill="none" stroke="orange" stroke-dasharray="5,2" d="M107.7,-45.15C109.91,-44.74 112.1,-44.35 114.25,-44 162.32,-36.18 217.68,-32.1 257.2,-30.03"/>
<polygon fill="orange" stroke="orange" points="107.19,-41.68 98.09,-47.11 108.59,-48.54 107.19,-41.68"/>
</a>
</g>
<text xml:space="preserve" text-anchor="start" x="117.25" y="-65.5" font-family="Helvetica,sans-Serif" font-size="10.00" fill="grey">&lt; types_holder&lt; T &gt;</text>
<text xml:space="preserve" text-anchor="start" x="117.25" y="-49.5" font-family="Helvetica,sans-Serif" font-size="10.00" fill="grey">  , types_holder&lt; Us... &gt; &gt;</text>
</g>
</g>
</svg>

<g id="navigator" transform="translate(0 0)" fill="#404254">
  <rect fill="#f2f5e9" fill-opacity="0.5" stroke="#606060" stroke-width=".5" x="0" y="0" width="60" height="60"/>
  <use id="zoomplus" xlink:href="#zoomPlus" x="17" y="9" onmousedown="handleZoom(evt,'in')"/>
  <use id="zoomminus" xlink:href="#zoomMin" x="42" y="9" onmousedown="handleZoom(evt,'out')"/>
  <use id="reset" xlink:href="#resetDef" x="30" y="36" onmousedown="handleReset()"/>
   <use id="arrowup" xlink:href="#arrowUp" x="0" y="0" onmousedown="handlePan(0,-1)"/>
  <use id="arrowright" xlink:href="#arrowRight" x="0" y="0" onmousedown="handlePan(1,0)"/>
  <use id="arrowdown" xlink:href="#arrowDown" x="0" y="0" onmousedown="handlePan(0,1)"/>
  <use id="arrowleft" xlink:href="#arrowLeft" x="0" y="0" onmousedown="handlePan(-1,0)"/>
</g>
<svg viewBox="0 0 15 15" width="100%" height="30px" preserveAspectRatio="xMaxYMin meet">
 <g id="arrow_out" transform="scale(0.3 0.3)">
  <a xlink:href="structmstd_1_1utils_1_1unique__impl_3_01types__holder_3_4_00_01types__holder_3_01_t_00_01_us_8_8_8_01_4_01_4__inherit__graph_org.svg" target="_base">
   <rect id="button" ry="5" rx="5" y="6" x="6" height="38" width="38"
        fill="#f2f5e9" fill-opacity="0.5" stroke="#606060" stroke-width="1.0"/>
   <path id="arrow"
     d="M 11.500037,31.436501 C 11.940474,20.09759 22.043105,11.32322 32.158766,21.979434 L 37.068811,17.246167 C 37.068811,17.246167 37.088388,32 37.088388,32 L 22.160133,31.978069 C 22.160133,31.978069 26.997745,27.140456 26.997745,27.140456 C 18.528582,18.264221 13.291696,25.230495 11.500037,31.436501 z"
     style="fill:#404040;"/>
  </a>
 </g>
</svg>

<style type='text/css'>
<![CDATA[
[data-mouse-over-selected='false'] { opacity: 0.7; }
[data-mouse-over-selected='true']  { opacity: 1.0; }
]]>
</style>
<script type="application/ecmascript"><![CDATA[
document.addEventListener('DOMContentLoaded', (event) => {
  highlightEdges();
  highlightAdjacentNodes();
});
]]></script>
</svg>
