<?xml version="1.0" encoding="UTF-8" standalone="no"?>
<!DOCTYPE svg PUBLIC "-//W3C//DTD SVG 1.1//EN"
 "http://www.w3.org/Graphics/SVG/1.1/DTD/svg11.dtd">
<!-- Generated by graphviz version 14.1.1 (20251213.1925)
 -->
<!-- Title: mstd::are_integrals&lt; Ns &gt; Pages: 1 -->
<svg width="643pt" height="108pt"
 viewBox="0.00 0.00 643.00 108.00" xmlns="http://www.w3.org/2000/svg" xmlns:xlink="http://www.w3.org/1999/xlink">
<g id="graph0" class="graph" transform="scale(1 1) rotate(0) translate(4 104)">
<title>mstd::are_integrals&lt; Ns &gt;</title>
<!-- Node1 -->
<g id="Node000001" class="node">
<title>Node1</title>
<g id="a_Node000001"><a xlink:title=" ">
<polygon fill="#999999" stroke="#666666" points="634.5,-66 535.25,-66 535.25,-34 634.5,-34 634.5,-66"/>
<text xml:space="preserve" text-anchor="start" x="543.25" y="-52.5" font-family="Helvetica,sans-Serif" font-size="10.00">mstd::are_integrals</text>
<text xml:space="preserve" text-anchor="middle" x="584.88" y="-40.5" font-family="Helvetica,sans-Serif" font-size="10.00">&lt; Ns &gt;</text>
</a>
</g>
</g>
<!-- Node2 -->
<g id="Node000002" class="node">
<title>Node2</title>
<g id="a_Node000002"><a xlink:href="../../dd/def/structmstd_1_1all__check.html" target="_top" xlink:title=" ">
<polygon fill="white" stroke="#666666" points="498.25,-66 390.75,-66 390.75,-34 498.25,-34 498.25,-66"/>
<text xml:space="preserve" text-anchor="start" x="398.75" y="-52.5" font-family="Helvetica,sans-Serif" font-size="10.00">mstd::all_check&lt; std</text>
<text xml:space="preserve" text-anchor="middle" x="444.5" y="-40.5" font-family="Helvetica,sans-Serif" font-size="10.00">::is_integral, Ns... &gt;</text>
</a>
</g>
</g>
<!-- Node2&#45;&gt;Node1 -->
<g id="edge1_Node000001_Node000002" class="edge">
<title>Node2&#45;&gt;Node1</title>
<g id="a_edge1_Node000001_Node000002"><a xlink:title=" ">
<path fill="none" stroke="#63b8ff" d="M509.9,-50C518.26,-50 526.72,-50 534.77,-50"/>
<polygon fill="#63b8ff" stroke="#63b8ff" points="510.12,-46.5 500.12,-50 510.12,-53.5 510.12,-46.5"/>
</a>
</g>
</g>
<!-- Node3 -->
<g id="Node000003" class="node">
<title>Node3</title>
<g id="a_Node000003"><a xlink:title=" ">
<polygon fill="white" stroke="#666666" points="261,-100 159.5,-100 159.5,-56 261,-56 261,-100"/>
<text xml:space="preserve" text-anchor="start" x="167.5" y="-86.5" font-family="Helvetica,sans-Serif" font-size="10.00">std::bool_constant</text>
<text xml:space="preserve" text-anchor="start" x="167.5" y="-74.5" font-family="Helvetica,sans-Serif" font-size="10.00">&lt;(std::is_integral&lt;</text>
<text xml:space="preserve" text-anchor="middle" x="210.25" y="-62.5" font-family="Helvetica,sans-Serif" font-size="10.00"> Ts &gt;::value &amp;&amp;...)&gt;</text>
</a>
</g>
</g>
<!-- Node3&#45;&gt;Node2 -->
<g id="edge2_Node000002_Node000003" class="edge">
<title>Node3&#45;&gt;Node2</title>
<g id="a_edge2_Node000002_Node000003"><a xlink:title=" ">
<path fill="none" stroke="#63b8ff" d="M272.49,-74.27C302.75,-72.02 339.76,-68.68 372.75,-64 378.45,-63.19 384.39,-62.22 390.29,-61.17"/>
<polygon fill="#63b8ff" stroke="#63b8ff" points="272.48,-70.76 262.76,-74.97 272.98,-77.74 272.48,-70.76"/>
</a>
</g>
</g>
<!-- Node4 -->
<g id="Node000004" class="node">
<title>Node4</title>
<g id="a_Node000004"><a xlink:href="../../dd/def/structmstd_1_1all__check.html" target="_top" xlink:title=" ">
<polygon fill="white" stroke="#666666" points="273,-38 147.5,-38 147.5,-6 273,-6 273,-38"/>
<text xml:space="preserve" text-anchor="start" x="155.5" y="-24.5" font-family="Helvetica,sans-Serif" font-size="10.00">mstd::all_check&lt; Check,</text>
<text xml:space="preserve" text-anchor="middle" x="210.25" y="-12.5" font-family="Helvetica,sans-Serif" font-size="10.00"> Ts &gt;</text>
</a>
</g>
</g>
<!-- Node4&#45;&gt;Node2 -->
<g id="edge3_Node000002_Node000004" class="edge">
<title>Node4&#45;&gt;Node2</title>
<g id="a_edge3_Node000002_Node000004"><a xlink:title=" ">
<path fill="none" stroke="orange" stroke-dasharray="5,2" d="M284.66,-19.16C312.44,-19.3 344.23,-20.93 372.75,-26 382.33,-27.7 392.37,-30.47 401.77,-33.53"/>
<polygon fill="orange" stroke="orange" points="284.93,-15.66 274.94,-19.18 284.94,-22.66 284.93,-15.66"/>
</a>
</g>
<text xml:space="preserve" text-anchor="start" x="294" y="-47.5" font-family="Helvetica,sans-Serif" font-size="10.00" fill="grey">&lt; std::is_integral,</text>
<text xml:space="preserve" text-anchor="start" x="294" y="-31.5" font-family="Helvetica,sans-Serif" font-size="10.00" fill="grey">   Ns... &gt;</text>
</g>
<!-- Node5 -->
<g id="Node000005" class="node">
<title>Node5</title>
<g id="a_Node000005"><a xlink:title=" ">
<polygon fill="white" stroke="#666666" points="110.5,-44 0,-44 0,0 110.5,0 110.5,-44"/>
<text xml:space="preserve" text-anchor="start" x="8" y="-30.5" font-family="Helvetica,sans-Serif" font-size="10.00">std::bool_constant</text>
<text xml:space="preserve" text-anchor="start" x="8" y="-18.5" font-family="Helvetica,sans-Serif" font-size="10.00">&lt;(Check&lt; Ts &gt;::value</text>
<text xml:space="preserve" text-anchor="middle" x="55.25" y="-6.5" font-family="Helvetica,sans-Serif" font-size="10.00"> &amp;&amp;...)&gt;</text>
</a>
</g>
</g>
<!-- Node5&#45;&gt;Node4 -->
<g id="edge4_Node000004_Node000005" class="edge">
<title>Node5&#45;&gt;Node4</title>
<g id="a_edge4_Node000004_Node000005"><a xlink:title=" ">
<path fill="none" stroke="#63b8ff" d="M121.92,-22C130.32,-22 138.89,-22 147.23,-22"/>
<polygon fill="#63b8ff" stroke="#63b8ff" points="122.14,-18.5 112.14,-22 122.14,-25.5 122.14,-18.5"/>
</a>
</g>
</g>
</g>
</svg>
