<?xml version="1.0" encoding="UTF-8" standalone="no"?>
<!DOCTYPE svg PUBLIC "-//W3C//DTD SVG 1.1//EN"
 "http://www.w3.org/Graphics/SVG/1.1/DTD/svg11.dtd">
<!-- Generated by graphviz version 14.1.1 (20251213.1925)
 -->
<!-- Title: mstd::function_traits&lt; R(C::*)(Args...) noexcept &gt; Pages: 1 -->
<svg width="1285pt" height="328pt"
 viewBox="0.00 0.00 1285.00 328.00" xmlns="http://www.w3.org/2000/svg" xmlns:xlink="http://www.w3.org/1999/xlink">
<g id="graph0" class="graph" transform="scale(1 1) rotate(0) translate(4 324)">
<title>mstd::function_traits&lt; R(C::*)(Args...) noexcept &gt;</title>
<!-- Node1 -->
<g id="Node000001" class="node">
<title>Node1</title>
<g id="a_Node000001"><a xlink:title=" ">
<polygon fill="#999999" stroke="#666666" points="1276.75,-64 1134,-64 1134,-32 1276.75,-32 1276.75,-64"/>
<text xml:space="preserve" text-anchor="start" x="1142" y="-50.5" font-family="Helvetica,sans-Serif" font-size="10.00">mstd::function_traits</text>
<text xml:space="preserve" text-anchor="middle" x="1205.38" y="-38.5" font-family="Helvetica,sans-Serif" font-size="10.00">&lt; R(C::*)(Args...) noexcept &gt;</text>
</a>
</g>
</g>
<!-- Node2 -->
<g id="Node000002" class="node">
<title>Node2</title>
<g id="a_Node000002"><a xlink:href="../../d0/d74/structmstd_1_1utils_1_1function__default__type__traits.html" target="_top" xlink:title=" ">
<polygon fill="white" stroke="#666666" points="317,-137 214.75,-137 214.75,-93 317,-93 317,-137"/>
<text xml:space="preserve" text-anchor="start" x="222.75" y="-123.5" font-family="Helvetica,sans-Serif" font-size="10.00">mstd::utils::function</text>
<text xml:space="preserve" text-anchor="start" x="222.75" y="-111.5" font-family="Helvetica,sans-Serif" font-size="10.00">_default_type_traits</text>
<text xml:space="preserve" text-anchor="middle" x="265.88" y="-99.5" font-family="Helvetica,sans-Serif" font-size="10.00">&lt; false &gt;</text>
</a>
</g>
</g>
<!-- Node2&#45;&gt;Node1 -->
<g id="edge1_Node000001_Node000002" class="edge">
<title>Node2&#45;&gt;Node1</title>
<g id="a_edge1_Node000001_Node000002"><a xlink:title=" ">
<path fill="none" stroke="#63b8ff" d="M306.24,-86.21C356.79,-52.15 448.5,0 536.12,0 536.12,0 536.12,0 1031.5,0 1079.94,0 1133.31,-17.71 1167.76,-31.62"/>
<polygon fill="#63b8ff" stroke="#63b8ff" points="304.5,-83.16 298.23,-91.7 308.46,-88.93 304.5,-83.16"/>
</a>
</g>
</g>
<!-- Node4 -->
<g id="Node000004" class="node">
<title>Node4</title>
<g id="a_Node000004"><a xlink:href="../../d8/d93/structmstd_1_1function__traits_3_01_r_07_args_8_8_8_08_01noexcept_00_01_c_01_4.html" target="_top" xlink:title=" ">
<polygon fill="white" stroke="#666666" points="1097,-125 964,-125 964,-93 1097,-93 1097,-125"/>
<text xml:space="preserve" text-anchor="start" x="972" y="-111.5" font-family="Helvetica,sans-Serif" font-size="10.00">mstd::function_traits</text>
<text xml:space="preserve" text-anchor="middle" x="1030.5" y="-99.5" font-family="Helvetica,sans-Serif" font-size="10.00">&lt; R(Args...) noexcept, C &gt;</text>
</a>
</g>
</g>
<!-- Node2&#45;&gt;Node4 -->
<g id="edge4_Node000004_Node000002" class="edge">
<title>Node2&#45;&gt;Node4</title>
<g id="a_edge4_Node000004_Node000002"><a xlink:title=" ">
<path fill="none" stroke="#63b8ff" d="M328.43,-105.28C367.8,-99.56 420.02,-92.9 466.5,-90 646.1,-78.8 858.37,-93.51 963.57,-102.68"/>
<polygon fill="#63b8ff" stroke="#63b8ff" points="328.05,-101.8 318.67,-106.72 329.07,-108.72 328.05,-101.8"/>
</a>
</g>
</g>
<!-- Node5 -->
<g id="Node000005" class="node">
<title>Node5</title>
<g id="a_Node000005"><a xlink:href="../../dd/db6/structmstd_1_1function__traits_3_01_r_07_args_8_8_8_08_00_01_c_01_4.html" target="_top" xlink:title=" ">
<polygon fill="white" stroke="#666666" points="838.12,-197 732.88,-197 732.88,-165 838.12,-165 838.12,-197"/>
<text xml:space="preserve" text-anchor="start" x="740.88" y="-183.5" font-family="Helvetica,sans-Serif" font-size="10.00">mstd::function_traits</text>
<text xml:space="preserve" text-anchor="middle" x="785.5" y="-171.5" font-family="Helvetica,sans-Serif" font-size="10.00">&lt; R(Args...), C &gt;</text>
</a>
</g>
</g>
<!-- Node2&#45;&gt;Node5 -->
<g id="edge6_Node000005_Node000002" class="edge">
<title>Node2&#45;&gt;Node5</title>
<g id="a_edge6_Node000005_Node000002"><a xlink:title=" ">
<path fill="none" stroke="#63b8ff" d="M328.15,-126.06C334.26,-127.08 340.37,-128.08 346.25,-129 470.11,-148.34 501.16,-153.05 625.75,-167 661.36,-170.99 701.56,-174.52 732.6,-177.04"/>
<polygon fill="#63b8ff" stroke="#63b8ff" points="329.15,-122.68 318.71,-124.44 327.97,-129.58 329.15,-122.68"/>
</a>
</g>
</g>
<!-- Node10 -->
<g id="Node000010" class="node">
<title>Node10</title>
<g id="a_Node000010"><a xlink:href="../../d7/dcb/structmstd_1_1function__traits.html" target="_top" xlink:title=" ">
<polygon fill="white" stroke="#666666" points="589.75,-131 484.5,-131 484.5,-99 589.75,-99 589.75,-131"/>
<text xml:space="preserve" text-anchor="start" x="492.5" y="-117.5" font-family="Helvetica,sans-Serif" font-size="10.00">mstd::function_traits</text>
<text xml:space="preserve" text-anchor="middle" x="537.12" y="-105.5" font-family="Helvetica,sans-Serif" font-size="10.00">&lt; F, C &gt;</text>
</a>
</g>
</g>
<!-- Node2&#45;&gt;Node10 -->
<g id="edge14_Node000010_Node000002" class="edge">
<title>Node2&#45;&gt;Node10</title>
<g id="a_edge14_Node000010_Node000002"><a xlink:title=" ">
<path fill="none" stroke="#63b8ff" d="M328.48,-115C375.56,-115 439.72,-115 484.21,-115"/>
<polygon fill="#63b8ff" stroke="#63b8ff" points="328.72,-111.5 318.72,-115 328.72,-118.5 328.72,-111.5"/>
</a>
</g>
</g>
<!-- Node3 -->
<g id="Node000003" class="node">
<title>Node3</title>
<g id="a_Node000003"><a xlink:href="../../d0/d74/structmstd_1_1utils_1_1function__default__type__traits.html" target="_top" xlink:title=" ">
<polygon fill="white" stroke="#666666" points="103,-215 0.75,-215 0.75,-171 103,-171 103,-215"/>
<text xml:space="preserve" text-anchor="start" x="8.75" y="-201.5" font-family="Helvetica,sans-Serif" font-size="10.00">mstd::utils::function</text>
<text xml:space="preserve" text-anchor="start" x="8.75" y="-189.5" font-family="Helvetica,sans-Serif" font-size="10.00">_default_type_traits</text>
<text xml:space="preserve" text-anchor="middle" x="51.88" y="-177.5" font-family="Helvetica,sans-Serif" font-size="10.00">&lt; IsMember &gt;</text>
</a>
</g>
</g>
<!-- Node3&#45;&gt;Node2 -->
<g id="edge2_Node000002_Node000003" class="edge">
<title>Node3&#45;&gt;Node2</title>
<g id="a_edge2_Node000002_Node000003"><a xlink:title=" ">
<path fill="none" stroke="orange" stroke-dasharray="5,2" d="M107.61,-165.92C112.36,-163.83 117.12,-161.83 121.75,-160 151.92,-148.1 186.59,-137.13 214.26,-129"/>
<polygon fill="orange" stroke="orange" points="106.34,-162.65 98.67,-169.96 109.23,-169.03 106.34,-162.65"/>
</a>
</g>
<text xml:space="preserve" text-anchor="start" x="134.12" y="-165.5" font-family="Helvetica,sans-Serif" font-size="10.00" fill="grey">&lt; false &gt;</text>
</g>
<!-- Node9 -->
<g id="Node000009" class="node">
<title>Node9</title>
<g id="a_Node000009"><a xlink:href="../../d0/d74/structmstd_1_1utils_1_1function__default__type__traits.html" target="_top" xlink:title=" ">
<polygon fill="white" stroke="#666666" points="448.5,-233 346.25,-233 346.25,-189 448.5,-189 448.5,-233"/>
<text xml:space="preserve" text-anchor="start" x="354.25" y="-219.5" font-family="Helvetica,sans-Serif" font-size="10.00">mstd::utils::function</text>
<text xml:space="preserve" text-anchor="start" x="354.25" y="-207.5" font-family="Helvetica,sans-Serif" font-size="10.00">_default_type_traits</text>
<text xml:space="preserve" text-anchor="middle" x="397.38" y="-195.5" font-family="Helvetica,sans-Serif" font-size="10.00">&lt; true &gt;</text>
</a>
</g>
</g>
<!-- Node3&#45;&gt;Node9 -->
<g id="edge12_Node000009_Node000003" class="edge">
<title>Node3&#45;&gt;Node9</title>
<g id="a_edge12_Node000009_Node000003"><a xlink:title=" ">
<path fill="none" stroke="orange" stroke-dasharray="5,2" d="M114.68,-196.24C180.83,-199.71 284.51,-205.14 345.92,-208.36"/>
<polygon fill="orange" stroke="orange" points="114.87,-192.74 104.7,-195.72 114.51,-199.73 114.87,-192.74"/>
</a>
</g>
<text xml:space="preserve" text-anchor="start" x="136.38" y="-205.21" font-family="Helvetica,sans-Serif" font-size="10.00" fill="grey">&lt; true &gt;</text>
</g>
<!-- Node4&#45;&gt;Node1 -->
<g id="edge3_Node000001_Node000004" class="edge">
<title>Node4&#45;&gt;Node1</title>
<g id="a_edge3_Node000001_Node000004"><a xlink:title=" ">
<path fill="none" stroke="#63b8ff" d="M1088.55,-88.87C1110.95,-80.97 1136.33,-72.01 1157.62,-64.5"/>
<polygon fill="#63b8ff" stroke="#63b8ff" points="1087.52,-85.52 1079.25,-92.15 1089.85,-92.12 1087.52,-85.52"/>
</a>
</g>
</g>
<!-- Node5&#45;&gt;Node4 -->
<g id="edge5_Node000004_Node000005" class="edge">
<title>Node5&#45;&gt;Node4</title>
<g id="a_edge5_Node000004_Node000005"><a xlink:title=" ">
<path fill="none" stroke="#63b8ff" d="M849.33,-163.86C878.76,-155.69 914.26,-145.61 946,-136 956.94,-132.69 968.63,-129 979.7,-125.44"/>
<polygon fill="#63b8ff" stroke="#63b8ff" points="848.52,-160.45 839.82,-166.5 850.39,-167.2 848.52,-160.45"/>
</a>
</g>
</g>
<!-- Node6 -->
<g id="Node000006" class="node">
<title>Node6</title>
<g id="a_Node000006"><a xlink:href="../../d1/d4f/structmstd_1_1utils_1_1function__core__traits_3_01_r_07_args_8_8_8_08_00_01_c_01_4.html" target="_top" xlink:title=" ">
<polygon fill="white" stroke="#666666" points="607.75,-272 466.5,-272 466.5,-240 607.75,-240 607.75,-272"/>
<text xml:space="preserve" text-anchor="start" x="474.5" y="-258.5" font-family="Helvetica,sans-Serif" font-size="10.00">mstd::utils::function</text>
<text xml:space="preserve" text-anchor="middle" x="537.12" y="-246.5" font-family="Helvetica,sans-Serif" font-size="10.00">_core_traits&lt; R(Args...), C &gt;</text>
</a>
</g>
</g>
<!-- Node6&#45;&gt;Node5 -->
<g id="edge7_Node000005_Node000006" class="edge">
<title>Node6&#45;&gt;Node5</title>
<g id="a_edge7_Node000005_Node000006"><a xlink:title=" ">
<path fill="none" stroke="#63b8ff" d="M619.5,-247.21C647.46,-242.69 678.61,-235.96 706,-226 725.49,-218.92 745.75,-207.17 760.81,-197.46"/>
<polygon fill="#63b8ff" stroke="#63b8ff" points="618.99,-243.75 609.63,-248.73 620.05,-250.67 618.99,-243.75"/>
</a>
</g>
</g>
<!-- Node7 -->
<g id="Node000007" class="node">
<title>Node7</title>
<g id="a_Node000007"><a xlink:href="../../df/db9/structmstd_1_1utils_1_1function__core__traits.html" target="_top" xlink:title=" ">
<polygon fill="white" stroke="#666666" points="328.25,-320 203.5,-320 203.5,-288 328.25,-288 328.25,-320"/>
<text xml:space="preserve" text-anchor="start" x="211.5" y="-306.5" font-family="Helvetica,sans-Serif" font-size="10.00">mstd::utils::function</text>
<text xml:space="preserve" text-anchor="middle" x="265.88" y="-294.5" font-family="Helvetica,sans-Serif" font-size="10.00">_core_traits&lt; R(Args...)&gt;</text>
</a>
</g>
</g>
<!-- Node7&#45;&gt;Node6 -->
<g id="edge8_Node000006_Node000007" class="edge">
<title>Node7&#45;&gt;Node6</title>
<g id="a_edge8_Node000006_Node000007"><a xlink:title=" ">
<path fill="none" stroke="#63b8ff" d="M339.74,-291.01C379.02,-284.01 427.26,-275.41 466.1,-268.48"/>
<polygon fill="#63b8ff" stroke="#63b8ff" points="339.37,-287.52 330.14,-292.72 340.6,-294.41 339.37,-287.52"/>
</a>
</g>
</g>
<!-- Node8 -->
<g id="Node000008" class="node">
<title>Node8</title>
<g id="a_Node000008"><a xlink:href="../../df/db9/structmstd_1_1utils_1_1function__core__traits.html" target="_top" xlink:title=" ">
<polygon fill="white" stroke="#666666" points="103.75,-280 0,-280 0,-248 103.75,-248 103.75,-280"/>
<text xml:space="preserve" text-anchor="start" x="8" y="-266.5" font-family="Helvetica,sans-Serif" font-size="10.00">mstd::utils::function</text>
<text xml:space="preserve" text-anchor="middle" x="51.88" y="-254.5" font-family="Helvetica,sans-Serif" font-size="10.00">_core_traits&lt; F, C &gt;</text>
</a>
</g>
</g>
<!-- Node8&#45;&gt;Node6 -->
<g id="edge10_Node000006_Node000008" class="edge">
<title>Node8&#45;&gt;Node6</title>
<g id="a_edge10_Node000006_Node000008"><a xlink:title=" ">
<path fill="none" stroke="orange" stroke-dasharray="5,2" d="M115.39,-262.69C142.48,-262.14 174.55,-261.51 203.5,-261 294.16,-259.42 398.72,-257.89 466.04,-256.95"/>
<polygon fill="orange" stroke="orange" points="115.55,-259.18 105.63,-262.89 115.7,-266.18 115.55,-259.18"/>
</a>
</g>
<text xml:space="preserve" text-anchor="start" x="228.75" y="-266.5" font-family="Helvetica,sans-Serif" font-size="10.00" fill="grey">&lt; R(Args...), C &gt;</text>
</g>
<!-- Node8&#45;&gt;Node7 -->
<g id="edge9_Node000007_Node000008" class="edge">
<title>Node8&#45;&gt;Node7</title>
<g id="a_edge9_Node000007_Node000008"><a xlink:title=" ">
<path fill="none" stroke="orange" stroke-dasharray="5,2" d="M115.34,-275.79C143.01,-281.01 175.48,-287.13 203.08,-292.34"/>
<polygon fill="orange" stroke="orange" points="116.16,-272.38 105.68,-273.96 114.86,-279.26 116.16,-272.38"/>
</a>
</g>
<text xml:space="preserve" text-anchor="start" x="124.75" y="-294.26" font-family="Helvetica,sans-Serif" font-size="10.00" fill="grey">&lt; R(Args...)&gt;</text>
</g>
<!-- Node9&#45;&gt;Node5 -->
<g id="edge11_Node000005_Node000009" class="edge">
<title>Node9&#45;&gt;Node5</title>
<g id="a_edge11_Node000005_Node000009"><a xlink:title=" ">
<path fill="none" stroke="#63b8ff" d="M460.08,-210.05C522.32,-208.56 621.1,-204.74 706,-195 714.66,-194.01 723.82,-192.65 732.7,-191.18"/>
<polygon fill="#63b8ff" stroke="#63b8ff" points="460.32,-206.54 450.4,-210.26 460.48,-213.54 460.32,-206.54"/>
</a>
</g>
</g>
<!-- Node10&#45;&gt;Node1 -->
<g id="edge16_Node000001_Node000010" class="edge">
<title>Node10&#45;&gt;Node1</title>
<g id="a_edge16_Node000001_Node000010"><a xlink:title=" ">
<path fill="none" stroke="orange" stroke-dasharray="5,2" d="M601.09,-105.57C666.81,-96 772.94,-81.3 865,-72 957.71,-62.63 1065.02,-55.7 1133.75,-51.75"/>
<polygon fill="orange" stroke="orange" points="600.98,-102.05 591.59,-106.96 602,-108.98 600.98,-102.05"/>
</a>
</g>
<text xml:space="preserve" text-anchor="start" x="868" y="-93.5" font-family="Helvetica,sans-Serif" font-size="10.00" fill="grey">&lt; R(C::*)(Args...)</text>
<text xml:space="preserve" text-anchor="start" x="868" y="-77.5" font-family="Helvetica,sans-Serif" font-size="10.00" fill="grey">   noexcept &gt;</text>
</g>
<!-- Node10&#45;&gt;Node4 -->
<g id="edge15_Node000004_Node000010" class="edge">
<title>Node10&#45;&gt;Node4</title>
<g id="a_edge15_Node000004_Node000010"><a xlink:title=" ">
<path fill="none" stroke="orange" stroke-dasharray="5,2" d="M601.5,-114.23C694.91,-113.09 868.7,-110.96 963.55,-109.81"/>
<polygon fill="orange" stroke="orange" points="601.72,-110.72 591.76,-114.35 601.8,-117.72 601.72,-110.72"/>
</a>
</g>
<text xml:space="preserve" text-anchor="start" x="727" y="-118.19" font-family="Helvetica,sans-Serif" font-size="10.00" fill="grey">&lt; R(Args...) noexcept, C &gt;</text>
</g>
<!-- Node10&#45;&gt;Node5 -->
<g id="edge13_Node000005_Node000010" class="edge">
<title>Node10&#45;&gt;Node5</title>
<g id="a_edge13_Node000005_Node000010"><a xlink:title=" ">
<path fill="none" stroke="orange" stroke-dasharray="5,2" d="M601.11,-124.87C632.91,-130.58 671.88,-138.69 706,-149 720.09,-153.26 735.15,-159.07 748.27,-164.58"/>
<polygon fill="orange" stroke="orange" points="602.12,-121.5 591.67,-123.21 600.91,-128.39 602.12,-121.5"/>
</a>
</g>
<text xml:space="preserve" text-anchor="start" x="628.75" y="-154.5" font-family="Helvetica,sans-Serif" font-size="10.00" fill="grey">&lt; R(Args...), C &gt;</text>
</g>
</g>
</svg>
